<svg width="732" height="323" viewBox="0 0 732 323" fill="none" xmlns="http://www.w3.org/2000/svg">
<path d="M594.657 103.553C602.315 103.394 609.972 103.218 617.63 103.094C625.311 102.962 632.993 102.953 640.662 102.75C648.236 102.548 655.798 102.169 663.827 101.851C663.012 103.746 661.418 103.817 659.884 103.87C646.139 104.319 632.406 104.778 618.66 105.157C614.298 105.28 609.936 105.174 605.874 105.174C604.46 106.029 605.418 107.942 603.249 107.633C602.183 107.484 601.296 106.637 600.062 105.959C598.432 107.351 596.275 108.427 593.483 106.593C593.219 106.417 592.164 106.867 591.505 107.069C590.151 107.475 588.869 107.501 587.958 106.532C587.012 105.536 587.047 104.619 588.33 103.676C596.335 97.753 604.328 91.8125 612.249 85.8279C616.192 82.8488 619.979 79.7639 623.658 76.5292C621.836 76.6526 620.458 77.4547 619.092 78.1862C606.593 84.8936 593.698 91.1691 580.408 96.9862C574.956 99.3748 569.396 101.614 563.979 104.046C562.924 104.522 562.349 105.571 561.402 106.505C556.729 106.338 551.72 106.161 546.71 105.985C546.663 105.8 546.603 105.615 546.555 105.43C547.334 105.024 548.101 104.61 548.987 104.143C548.017 100.415 551.6 98.3788 554.799 96.2106C555.279 95.8845 555.89 95.6553 556.453 95.3997C561.187 93.2756 561.187 93.2756 565.045 96.1048C565.309 96.2988 565.729 96.3604 566.615 96.6865C571.301 93.8308 576.13 90.8782 580.96 87.9255C580.864 87.7404 580.768 87.5554 580.684 87.3791C579.869 87.3526 579.042 87.291 578.227 87.3086C573.997 87.3791 569.767 87.4849 565.537 87.5466C564.41 87.5642 563.116 87.6876 562.637 86.3214C563.236 86.154 563.787 85.8807 564.362 85.8631C571.936 85.6163 579.498 85.4136 587.179 85.1933C587.431 86.6916 586.053 87.2645 584.986 87.8991C579.546 91.1514 574.057 94.3773 568.593 97.612C567.286 98.3876 565.908 99.128 565.681 101.014C567.107 100.512 568.161 100.23 569.096 99.8155C577.712 96.0079 586.388 92.2796 594.873 88.3134C602.015 84.9729 608.918 81.3592 615.94 77.8777C620.662 75.5332 625.395 73.2064 630.129 70.8883C630.788 70.5622 631.459 70.1656 632.19 70.0334C632.849 69.9188 633.616 70.1303 634.335 70.2008C634.215 70.7297 634.335 71.4172 633.939 71.7697C632.765 72.8098 631.363 73.7176 630.069 74.6959C624.472 78.9618 618.876 83.2278 613.292 87.5113C607.623 91.8654 601.955 96.2194 596.335 100.6C595.472 101.27 594.837 102.098 594.106 102.856C594.31 103.085 594.477 103.315 594.657 103.553ZM554.991 103.976C556.849 102.777 558.622 101.772 560.168 100.6C561.043 99.93 561.786 99.0487 562.133 98.1673C562.325 97.6825 561.762 96.854 561.187 96.4662C560.815 96.2106 559.725 96.3252 559.09 96.5191C556.429 97.3211 554.56 98.8107 553.17 100.609C552.007 102.089 552.235 102.451 554.991 103.976Z" fill="#1341B3"/>
<path d="M359.198 37.8688C359.33 38.7061 359.426 39.3495 359.606 40.5482C357.916 40.0635 356.706 39.7197 355.783 39.4553C352.428 40.1252 349.168 40.7774 345.693 41.4737C345.441 42.0907 345.07 42.8046 344.878 43.5537C343.979 46.9118 341.043 49.274 337.676 51.354C333.937 53.6545 330.234 55.9902 325.5 57.2593C323.283 57.8499 321.258 57.6031 319.353 57.0302C316.369 56.14 315.734 54.1657 318.082 52.306C321.594 49.5296 325.332 46.8766 329.275 44.444C339.605 38.0715 350.522 32.2455 361.667 26.6487C364.351 25.3002 366.832 23.7225 369.169 21.713C368.078 21.7747 366.976 21.7394 365.909 21.9069C353.997 23.7401 342.146 25.7938 330.186 27.4155C320.18 28.7729 310.053 29.7336 299.951 30.6855C293.528 31.2937 287.057 31.6198 280.598 31.9811C278.944 32.0693 277.889 32.3337 277.422 33.647C276.931 35.0131 276.092 36.3088 275.253 37.9305C271.094 37.7631 266.72 37.5956 262.358 37.4193C262.598 32.2544 266.553 29.4956 272.928 29.5838C277.961 29.6455 283.03 29.998 288.003 29.6543C299.723 28.8434 311.467 28.0413 323.068 26.6135C338.73 24.6832 354.249 22.1537 369.84 19.9149C371.733 19.6417 373.663 19.5183 375.376 19.342C376.431 20.6377 375.424 21.0607 374.573 21.519C367.862 25.1327 361.116 28.72 354.429 32.3513C351.289 34.0612 348.245 35.8681 345.01 37.7102C347.179 39.279 349.048 38.6621 350.942 38.2831C355.735 37.3223 359.917 35.4362 364.04 33.5148C375.34 28.2705 386.605 22.991 397.774 17.6057C405.431 13.9215 413.424 10.7309 421.705 7.88398C424.341 6.97615 426.87 5.83034 429.626 5.21337C439.956 2.8777 450.454 1.69665 461.335 2.55159C469.58 3.20382 477.729 4.38487 485.973 4.88726C490.551 5.16931 495.213 4.48184 499.838 4.43777C506.453 4.38489 512.577 2.83365 518.761 1.43224C520.127 1.12375 521.301 0.348115 522.667 0.0660712C523.482 -0.101393 525.016 0.0572594 525.328 0.453884C526.083 1.43222 524.8 1.93462 523.746 1.91699C520.606 1.86411 518.473 3.59162 515.705 4.16452C512.913 4.73742 510.192 5.68053 507.352 5.95376C501.049 6.55311 494.685 7.28464 488.37 7.14361C480.473 6.96734 472.624 5.93612 464.738 5.33678C461.718 5.10762 458.675 4.92254 455.643 4.90491C451.017 4.87847 446.391 4.92252 441.778 5.10761C435.306 5.36321 429.47 7.29347 423.706 9.25897C417.247 11.4624 410.992 13.8774 404.916 16.7243C397.151 20.3644 389.565 24.2161 381.787 27.8386C375.868 30.5885 369.708 33.0476 363.68 35.6653C362.23 36.3088 360.852 37.0579 359.198 37.8688ZM320.587 54.2891C321.965 55.6817 323.751 55.1969 325.249 54.7386C331.085 52.9229 335.914 50.032 339.965 46.5064C341.187 45.4399 341.822 43.9328 342.397 42.549C343.008 41.0859 341.774 40.275 339.761 40.7333C338.91 40.9272 338.095 41.315 337.412 41.7469C333.901 43.9592 330.294 46.1098 326.986 48.4807C324.661 50.1466 321.594 51.4069 320.587 54.2891ZM264.887 35.6213C267.619 35.6213 269.249 35.8592 270.663 35.5508C271.909 35.2775 273.108 34.5107 273.935 33.7439C274.654 33.0741 274.162 31.9459 272.988 31.9723C271.106 32.0164 269.141 32.3778 267.427 32.9595C266.517 33.2591 266.073 34.3168 264.887 35.6213Z" fill="#1341B3"/>
<path d="M640.843 315.83C636.253 315.178 633.017 316.077 630.07 317.302C627.098 318.545 624.365 320.114 621.669 321.665C620.231 322.485 618.973 323.164 616.756 322.124C624.952 316.183 633.041 310.401 640.016 303.711C639.441 303.844 638.842 303.941 638.302 304.126C632.191 306.206 626.127 308.356 619.967 310.357C618.05 310.983 615.941 311.309 613.88 311.635C611.986 311.935 610.093 311.732 608.763 310.577C606.929 308.982 604.796 308.885 602.315 309.537C600.398 310.04 598.421 310.436 596.467 310.877C596.312 310.648 596.156 310.428 596 310.198C597.126 309.643 598.157 308.806 599.391 308.603C602.196 308.127 605.096 307.827 607.972 307.739C608.942 307.713 610.165 308.383 610.92 308.973C611.974 309.811 613.137 310.049 614.479 309.775C617.019 309.246 619.644 308.815 622.017 307.995C629.554 305.386 637.02 302.663 644.414 299.86C645.996 299.26 647.326 298.194 648.56 297.198C653.294 293.39 657.908 289.495 662.653 285.696C663.804 284.779 665.194 283.986 666.62 283.298C668.094 282.585 669.711 282.717 671.054 283.554C672.528 284.479 672.24 285.652 671.509 286.771C669.652 289.583 666.524 291.566 663.144 293.276C659.993 294.88 656.493 296.114 653.366 297.744C650.801 299.084 648.452 300.679 646.223 302.319C642.113 305.342 638.147 308.48 634.156 311.591C633.113 312.411 632.203 313.319 631.627 314.658C633.509 314.403 635.378 314.024 637.272 313.944C638.913 313.874 640.915 313.777 642.185 314.367C644.138 315.275 645.457 314.861 646.775 313.962C649.088 312.367 651.269 310.666 653.545 309.035C660.029 304.408 665.889 299.375 670.946 293.875C673.75 290.825 676.422 287.679 676.506 283.748C676.614 278.363 671.377 273.682 664.127 272.995C654.6 272.087 645.804 273.066 637.463 276.855C631.795 279.429 627.253 282.726 623.395 286.586C621.921 288.058 621.022 289.83 619.907 291.487C619.404 292.227 619.38 293.249 617.499 293.188C616.432 291.019 617.87 289.16 619.152 287.476C627.553 276.432 647.146 268.958 664.714 271.497C674.589 272.924 679.598 278.178 679.202 285.669C677.285 288.648 675.811 291.839 673.366 294.554C667.351 301.226 659.993 307.122 652.227 312.71C648.644 315.293 644.654 317.558 640.867 319.991C639.884 320.625 639.105 321.471 638.015 321.965C637.272 322.3 636.157 322.194 635.21 322.282C635.318 321.586 635.127 320.713 635.618 320.22C636.457 319.365 637.775 318.792 638.782 318.016C639.429 317.514 639.884 316.862 640.843 315.83ZM668.765 284.55C665.625 285.158 664.235 287.168 662.258 288.525C660.16 289.962 657.872 291.398 656.805 293.769C662.893 292.262 668.765 287.794 668.765 284.55Z" fill="#1341B3"/>
<path d="M570.297 173.505C576.792 170.957 582.184 167.308 587.733 163.8C587.601 163.589 587.469 163.377 587.337 163.166C582.975 164.065 578.589 164.911 574.263 165.889C568.068 167.291 561.896 168.763 555.737 170.243C549.457 171.751 543.238 173.408 536.922 174.809C528.941 176.581 520.888 178.167 512.871 179.833C511.481 180.124 510.103 180.459 508.593 180.802C508.593 181.534 508.593 182.16 508.593 182.715C506.52 183.693 505.621 182.715 504.794 181.437C503.176 183.015 501.367 183.279 499.042 183.173C496.597 183.059 494.093 183.737 491.6 183.808C490.138 183.852 488.101 183.737 487.31 183.059C486.052 182.001 486.483 180.441 487.741 179.269C489.383 177.735 490.929 176.105 492.87 174.818C498.862 170.86 504.938 166.965 511.193 163.236C512.835 162.258 515.16 161.668 517.281 161.412C519.45 161.147 520.576 162.399 519.546 163.862C518.731 165.008 517.413 166.171 515.915 166.78C512.008 168.357 508.281 170.261 503.644 170.781C502.242 170.94 500.911 171.909 499.737 172.667C496.945 174.456 494.165 176.263 491.588 178.22C490.593 178.978 490.15 180.133 489.251 181.402C490.761 181.622 491.66 181.939 492.463 181.842C495.722 181.455 498.982 181.04 502.182 180.441C511.169 178.758 520.169 177.109 529.073 175.197C537.33 173.425 545.443 171.319 553.639 169.406C563.095 167.194 572.562 165.026 582.029 162.831C585.18 162.099 588.32 161.333 591.484 160.627C592.311 160.442 593.209 160.434 594.18 160.328C594.492 161.861 593.102 162.452 592.047 163.069C585.744 166.78 579.368 170.428 573.053 174.122C571.423 175.073 569.913 176.122 568.619 177.418C584.653 172.253 598.89 164.647 614.456 159.112C615.871 160.248 615.056 160.874 614.289 161.385C609.891 164.329 605.397 167.194 601.059 170.182C597.967 172.306 595.031 174.553 592.131 176.819C591.568 177.259 591.46 178.026 591.112 178.696C592.814 179.718 594.444 179.586 596.038 178.934C604.402 175.523 611.413 171.001 616.47 164.982C617.009 164.347 616.985 163.351 616.865 162.558C616.673 161.368 617.189 160.293 618.747 160.566C622.785 161.297 625.685 159.614 628.633 158.283C638.963 153.612 650.192 150.844 662.103 149.584C665.591 149.214 669.258 149.302 672.757 149.628C678.809 150.183 684.621 149.169 690.529 148.702C697.12 148.173 702.92 146.005 708.624 143.714C712.159 142.295 715.179 140.408 717.54 137.993C719.242 136.257 721.027 134.538 719.781 132C722.345 132.212 722.944 133.102 722.477 134.248C721.998 135.437 721.327 136.663 720.344 137.667C715.023 143.132 707.522 146.27 699.025 148.306C689.199 150.659 679.228 151.646 668.862 150.888C662.475 150.421 656.148 151.496 650.096 152.977C642.055 154.943 634.122 157.155 627.303 161.051C626.165 161.694 624.655 161.976 623.48 162.602C621.802 163.501 619.885 164.365 618.771 165.59C614.504 170.261 609.304 174.192 603.108 177.453C602.461 177.797 601.478 178.07 601.262 178.528C599.489 182.266 594.983 180.935 591.544 181.314C589.231 181.578 586.762 181.111 584.437 180.979C584.437 180.547 584.366 180.221 584.449 180.203C587.182 179.454 588.464 177.682 590.261 176.175C593.653 173.337 597.631 170.887 601.418 168.313C603.228 167.079 605.157 165.933 607.027 164.752C606.883 164.594 606.739 164.426 606.595 164.268C605.804 164.479 604.953 164.611 604.234 164.92C597.619 167.767 591.064 170.675 584.437 173.496C580.651 175.1 576.756 176.554 572.921 178.105C571.483 178.687 569.59 178.934 569.721 180.697C569.745 180.952 567.936 181.649 567.325 181.481C565.851 181.058 564.616 181.181 563.142 181.446C560.83 181.86 558.936 180.908 557.51 178.969C556.396 177.453 557.486 176.351 558.816 175.338C559.739 174.642 560.722 173.98 561.74 173.355C565.467 171.019 566.75 171.037 570.297 173.505ZM566.989 173.848C564.065 173.831 560.614 175.602 560.326 177.171C560.254 177.594 560.446 178.273 560.842 178.44C561.393 178.678 562.423 178.784 562.927 178.555C565.192 177.55 567.181 176.325 566.989 173.848ZM508.197 167.432C512.5 166.965 515.831 165.29 516.238 163.395C513.123 163.739 511.301 164.655 508.197 167.432Z" fill="#1341B3"/>
<path d="M369.617 121.504C372.553 120.693 373.584 118.737 374.758 116.851C375.022 116.428 375.501 116.049 375.968 115.714C380.031 112.787 384.129 109.888 388.18 106.953C388.875 106.45 389.366 105.789 390.517 104.652C389.162 104.996 388.611 105.014 388.3 105.234C383.446 108.618 377.574 110.875 371.858 113.299C371.055 113.642 370.013 113.66 369.078 113.836C368.91 113.66 368.73 113.493 368.563 113.316C369.533 112.153 370.492 110.989 371.618 109.65C368.694 108.953 366.693 110.002 364.74 110.84C362.223 111.915 359.922 113.255 357.406 114.312C353.499 115.943 349.521 117.476 345.494 118.957C343.924 119.53 342.426 119.838 342.318 121.522C342.246 122.615 340.892 122.765 339.358 122.042C340.844 120.129 341.3 117.917 344.931 116.983C348.094 116.172 350.335 114.224 351.318 111.703C353.355 106.477 359.191 103.841 364.788 101.056C365.159 100.871 365.758 100.95 366.429 100.88C366.645 102.105 365.495 102.493 364.644 103.004C362.691 104.167 360.665 105.26 358.796 106.494C356.243 108.169 354.997 110.346 354.338 113.44C356.902 112.311 358.784 111.492 360.653 110.663C363.817 109.253 366.873 107.719 370.744 107.437C373.08 107.261 374.974 107.429 375.873 109.72C379.683 107.922 383.254 106.336 386.67 104.582C389.69 103.03 392.458 101.197 395.478 99.6459C398.618 98.0418 400.691 95.8383 402.836 93.5908C405.952 90.3296 409.283 87.1831 412.674 84.0718C414.1 82.7585 416.006 81.8595 418.522 82.0181C420.524 82.1503 421.566 82.9083 420.895 84.3097C420.344 85.4467 419.301 86.5661 418.091 87.3858C413.513 90.4795 408.624 93.3351 404.142 96.4993C400.643 98.976 397.599 101.805 394.315 104.449C391.296 106.882 388.204 109.271 385.136 111.668C382.691 113.581 380.151 115.44 377.838 117.432C377.119 118.049 376.975 119.045 376.268 120.464C378.964 120.024 380.762 119.847 382.464 119.433C393.896 116.692 405.304 113.872 416.749 111.139C419.134 110.566 421.626 110.223 424.095 109.87C429.14 109.165 431.812 111.421 430.075 115C429.236 116.736 428.013 118.367 426.971 120.05C426.372 121.002 425.76 121.954 425.521 123.205C429.691 120.949 433.861 118.675 438.056 116.436C439.769 115.52 441.423 114.506 443.281 113.801C446.888 112.452 448.853 113.325 449.093 116.295C449.428 120.482 448.398 124.527 445.414 128.088C440.333 134.152 434.64 139.899 427.019 144.438C425.689 145.231 424.526 146.192 423.136 146.924C422.082 147.479 420.835 147.972 419.589 148.14C418.738 148.254 417.552 147.928 416.869 147.496C415.886 146.871 415.838 145.936 416.737 145.134C417.156 144.764 417.672 144.464 418.307 144.033C419.241 144.315 420.176 144.605 421.482 145.002C423.591 143.768 426.06 142.596 428.085 141.098C434.077 136.664 439.674 131.913 443.281 126.211C445.282 123.038 446.78 119.539 445.725 115.881C442.502 115.661 441.435 116.128 434.077 120.975C435.096 121.258 436.054 121.522 437.073 121.795C435 123.814 434.017 122.386 432.903 121.848C428.361 124.025 423.663 126.043 419.325 128.423C416.389 130.036 413.801 132.046 411.356 134.073C407.749 137.052 404.514 140.278 400.918 143.266C399.361 144.561 397.443 145.681 395.454 146.624C392.805 147.875 390.241 147.629 388.563 146.289C386.91 144.958 386.933 143.09 389.043 141.247C392.913 137.854 397.443 134.84 403.004 133.209C411.56 130.706 417.372 126.052 422.609 120.87C424.322 119.177 425.437 117.133 426.575 115.167C427.582 113.422 426.084 112.073 423.496 112.223C422.453 112.285 421.398 112.452 420.392 112.69C415.227 113.88 410.098 115.123 404.933 116.295C400.763 117.247 396.568 118.129 392.386 119.054C391.152 119.327 389.941 119.662 388.395 120.041C389.019 120.773 389.45 121.275 389.905 121.804C388.036 122.262 388.036 122.262 386.107 120.667C384.477 122.271 382.116 122.412 379.623 122.333C376.508 122.227 373.392 122.209 370.276 122.13C370.108 122.148 369.965 121.866 369.617 121.504ZM406.898 134.593C399.528 135.703 391.224 140.939 390.624 144.702C393.237 145.284 395.274 144.394 396.964 143.178C399.229 141.556 401.278 139.767 403.351 138.004C404.513 137.026 405.508 135.95 406.898 134.593ZM409.331 90.074C414.688 87.4651 416.198 86.3369 417.12 84.0453C413.333 85.4203 411.38 87.518 409.331 90.074Z" fill="#1341B3"/>
<path d="M186.274 84.5059C187.268 87.8552 184.464 89.5563 182.199 91.0634C178.592 93.4696 174.422 95.4175 170.503 97.5769C168.598 98.6258 166.704 99.6922 164.883 100.82C164.248 101.208 163.864 101.808 162.834 102.848C164.739 102.848 165.842 102.9 166.932 102.839C169.305 102.698 171.666 102.425 174.05 102.328C177.55 102.187 177.765 102.319 179.779 105.042C192.601 98.2996 205.352 91.5658 218.15 84.8849C219.469 84.1974 221.074 83.8184 222.74 83.2191C223.363 84.8232 222.165 85.3873 221.29 86.0572C216.688 89.5651 212.087 93.0554 207.497 96.5721C206.706 97.1803 205.987 97.8413 205.472 98.7315C212.602 96.5016 219.433 93.8751 226.479 91.0899C227.21 92.9672 225.844 93.6195 224.945 94.3422C222.273 96.5016 219.397 98.5288 216.832 100.75C215.694 101.737 215.106 103.077 214.196 104.372C209.342 105.562 208.048 106.849 208.432 110.383C210.349 111.371 212.35 110.833 213.944 110.057C217.527 108.321 221.686 107.017 223.627 103.852C223.867 103.456 244.167 88.3223 250.782 83.5716C256.45 79.5084 262.43 75.6215 269.38 72.6777C269.836 72.4838 288.458 67.2748 298.165 68.0856C299.471 68.1914 300.838 68.306 302.06 68.6497C306.662 69.9718 311.431 69.9013 316.189 69.5576C318.202 69.4166 319.017 70.8444 317.758 70.9414C312.869 71.3292 307.908 71.5319 303.162 70.4566C297.614 69.1962 292.125 69.5311 286.673 70.3684C282.407 71.0207 278.212 71.9814 274.066 72.9862C268.925 74.2289 264.779 76.7585 260.824 79.3233C255.072 83.0516 249.571 87.009 244.179 91.0282C239.637 94.4127 235.419 98.0264 231.045 101.552C231.26 101.931 230.973 104.531 230.505 104.381C228.42 103.703 227.198 104.619 226.036 105.545C222.656 108.233 218.486 110.11 214.256 111.926C212.494 112.684 210.601 113.16 208.587 112.516C204.729 111.282 204.058 109.678 206.167 106.92C206.358 106.664 206.646 106.452 206.838 106.197C207.017 105.95 207.125 105.668 207.365 105.21C206.466 104.875 204.836 103.588 205.1 103.447C205.508 103.227 206.131 102.927 206.526 103.015C210.025 103.782 211.871 102.019 213.884 100.503C215.778 99.0841 218.186 97.9911 219.612 95.7172C218.666 95.8934 218.162 95.9023 217.755 96.0697C213.357 97.8501 208.899 99.56 204.633 101.508C203.326 102.107 195.921 105.21 192.302 104.337C200.343 100.212 211.823 90.2349 211.595 90.0322C204.249 94.0602 196.903 98.0793 189.437 102.169C189.965 102.953 190.396 103.588 190.983 104.434C190.001 104.646 189.078 105.086 188.647 104.901C186.118 103.826 184.392 105.016 182.511 105.88C179.491 107.263 176.471 108.674 173.391 109.978C172.576 110.322 171.498 110.322 170.024 110.569C171.282 107.73 175.704 107.73 176.591 105.13C174.746 103.544 172.576 105.43 170.491 105.086C168.394 104.743 166.093 104.989 163.876 105.06C161.815 105.122 159.754 105.298 157.022 105.457C158.747 103.156 160.185 101.455 162.39 100.212C166.489 97.903 170.707 95.7172 174.793 93.3991C177.202 92.0418 179.563 90.6139 181.72 89.0539C182.667 88.3752 183.062 87.2735 183.853 86.1717C180.594 85.2022 177.933 85.969 175.548 86.7182C172.672 87.626 170 88.9129 167.376 90.1909C163.745 91.9625 160.365 94.0249 156.662 95.7083C151.725 97.9647 146.644 100.071 141.491 102.046C139.442 102.83 137.752 103.491 138.711 106.012C136.829 105.545 135.607 105.245 133.965 104.84C132.719 105.421 131.245 106.814 128.8 105.73C128.321 105.518 127.338 106.003 126.571 106.056C125.613 106.118 124.642 106.073 123.647 106.073C123.527 104.117 125.924 104.672 126.787 103.553C126.643 103.306 126.535 102.821 126.164 102.513C125.025 101.587 125.229 100.609 126.236 99.8949C128.333 98.423 130.478 96.9335 132.899 95.7965C134.624 94.9856 136.745 94.6683 138.914 95.6467C139.717 96.008 141.431 95.964 142.222 95.5585C146.344 93.4432 154.913 88.1725 155.38 87.5731C151.557 88.3135 148.154 88.9393 144.762 89.6356C139.046 90.8167 133.342 92.0418 127.638 93.2669C118.123 95.3117 108.62 97.383 99.1047 99.419C97.0674 99.8509 71.1828 104.707 69.565 105.104C68.0311 105.474 53.1833 108.603 52.68 108.585C50.1754 108.506 46.3047 105.835 47.1076 104.69C48.0543 103.324 49.025 101.834 50.523 100.829C57.2697 96.3077 64.1603 91.8831 71.1109 87.5291C73.4836 86.0483 76.4077 85.4049 79.6912 85.6341C80.8896 87.0884 80.2663 88.1813 78.8043 89.2566C75.3531 91.8038 71.2068 93.5489 66.5931 94.5008C60.2178 95.8141 56.1073 99.2427 51.6973 102.46C51.3258 102.724 50.1874 105.113 50.6188 105.606C51.0023 106.047 52.5003 106.259 53.3871 106.135C62.0992 104.945 91.3752 99.56 97.3551 98.2996C107.529 96.149 117.619 93.8045 127.782 91.6363C131.844 90.7726 136.026 90.2085 140.113 89.3888C143.672 88.6749 147.183 87.8111 150.706 86.9914C153.343 86.3833 155.943 85.7134 158.592 85.1317C159.155 85.0083 159.838 85.1669 161.216 85.2198C160.305 86.1277 159.862 86.8063 159.155 87.2294C153.199 90.7902 147.195 94.2893 141.215 97.8237C138.914 99.1898 136.302 100.318 134.876 102.566C137.908 101.543 141.119 100.723 143.936 99.4454C151.569 95.964 159.107 92.3679 166.525 88.6484C170.419 86.7006 174.566 85.1846 179.024 84.3208C181.157 83.933 183.637 84.4178 186.274 84.5059ZM137.416 96.7131C134.241 96.6426 131.413 97.6827 129.064 99.7804C128.237 100.512 127.83 101.252 128.896 102.037C133.186 101.42 137.009 99.0136 137.416 96.7131ZM66.8088 92.9849C70.9551 91.557 74.8138 90.7373 76.887 87.7054C73.2559 87.961 69.577 89.8383 66.8088 92.9849Z" fill="#1341B3"/>
<path d="M339.589 192.889C342.321 193.532 344.191 192.854 345.928 191.937C349.703 189.954 353.358 187.865 357.193 185.952C360.356 184.375 363.544 182.779 367.499 182.303C369.416 182.074 371.034 181.916 372.508 183.229C373.119 183.775 374.593 184.075 375.636 184.022C377.325 183.934 379.063 183.626 380.633 183.15C389.069 180.585 397.494 177.985 405.858 175.288C408.147 174.547 410.184 173.401 412.401 172.538C413.18 172.229 414.151 172.203 415.302 172C415.254 173.728 413.839 174.071 412.725 174.415C407.848 175.905 405.595 178.813 404.181 182.559C404.96 182.638 405.571 182.806 406.122 182.735C410.172 182.233 414.187 181.642 418.238 181.158C426.123 180.232 434.008 180.347 441.989 180.629C451.336 180.964 460.708 181.634 470.091 181.131C476.706 180.77 483.213 180.012 489.456 178.275C489.636 178.223 489.924 178.399 490.583 178.593C489.996 179.113 489.6 179.818 488.965 179.968C485.945 180.664 482.913 181.396 479.809 181.783C471.84 182.762 463.823 183.044 455.71 182.647C447.154 182.233 438.562 182.277 429.982 182.039C421.809 181.81 413.971 183.326 406.026 184.357C403.653 184.666 402.347 185.591 401.544 187.23C400.753 188.852 399.591 190.377 398.5 192.069C399.172 192.342 399.926 192.651 400.669 192.959C400.574 194.334 399.112 194.484 398.117 194.202C396.224 193.665 394.678 194.149 392.892 194.378C390.208 194.713 387.392 194.467 384.647 194.467C384.563 194.264 384.36 193.955 384.432 193.92C386.565 192.801 387.068 190.967 388.242 189.416C389.932 187.178 393.036 186.093 396.032 185.115C400.777 183.564 401.724 182.797 402.886 178.099C400.226 178.954 397.889 179.765 395.505 180.47C389.501 182.251 383.473 183.996 377.433 185.723C374.689 186.508 372.088 186.737 369.871 184.763C368.613 183.652 366.78 184.225 365.449 184.71C362.621 185.75 359.877 186.948 357.229 188.226C354.58 189.504 352.004 190.897 349.547 192.369C348.253 193.145 347.306 194.22 346.156 195.119C345.557 195.586 344.898 196.3 344.19 196.353C341.938 196.511 339.649 196.414 337.084 196.414C337.084 194.696 337.084 192.995 337.084 190.685C333.225 192.624 329.247 193.682 328.264 197.252C321.769 197.313 317.503 200.839 312.242 203.254C310.984 200.442 315.49 200.407 315.526 198.398C314.351 197.939 313.057 197.428 311.487 196.811C309.809 198.168 307.317 198.186 304.86 198.274C302.463 198.362 300.079 198.433 297.358 198.521C300.222 194.898 303.063 191.752 307.257 189.31C310.792 187.257 314.135 185.036 317.455 182.797C318.953 181.783 320.163 180.532 321.422 179.474C320.127 178.038 318.665 178.311 317.503 178.602C314.89 179.263 312.362 180.109 309.821 180.902C308.443 181.334 307.161 182.145 305.196 181.519C305.603 181.061 305.771 180.629 306.154 180.47C310.325 178.743 314.627 177.218 319.456 176.821C320.954 176.698 322.752 176.248 323.77 177.57C324.789 178.875 324.046 180.109 322.86 181.061C321.086 182.497 319.133 183.819 317.155 185.115C313.105 187.777 308.959 190.359 304.92 193.021C304.069 193.585 303.47 194.352 302.787 195.004C303.758 196.503 305.244 196.168 306.646 195.965C309.114 195.604 311.547 195.128 314.028 194.872C315.13 194.757 316.52 194.81 317.431 195.216C320.079 196.397 322.536 196.062 324.813 194.916C331.919 191.338 339.193 187.9 345.892 183.943C349.523 181.792 352.268 178.778 355.156 176.002C356.965 174.265 359.122 173.146 361.962 172.767C364.263 172.467 365.174 173.304 364.527 174.979C363.724 177.068 361.747 178.522 359.446 179.703C356.522 181.21 353.526 182.665 350.422 183.96C346.755 185.494 343.975 187.689 341.362 190.024C340.5 190.738 340.212 191.822 339.589 192.889ZM398.68 186.234C394.845 186.913 392.533 188.456 390.591 190.298C390.172 190.703 390.256 191.567 390.519 192.104C390.627 192.316 391.945 192.386 392.592 192.237C396.259 191.373 397.829 189.275 398.68 186.234ZM361.771 174.635C357.828 175.155 356.797 177.094 355.647 178.954C358.283 178.267 360.308 177.094 361.771 174.635Z" fill="#1341B3"/>
<path d="M206.84 30.7945C208.242 30.7945 208.865 30.7945 209.5 30.7945C213.071 30.8033 216.631 30.7857 220.202 30.8121C225.606 30.8562 230.448 30.1951 234.977 27.5157C244.037 22.1481 249.07 14.9735 253.085 7.27903C253.96 5.61321 253.684 3.6301 253.936 1.788C254.008 1.23273 254.091 0.686265 254.175 0.0252244C256.213 -0.151053 256.74 0.615748 256.512 1.7263C255.973 4.30876 255.889 7.04987 254.607 9.42962C250.221 17.6001 244.097 24.9949 234.019 30.0717C229.765 32.2135 224.648 32.4162 219.519 32.3016C215.708 32.2135 211.873 32.4867 208.062 32.6366C206.013 32.7159 204.827 33.4915 204.036 34.9722C203.329 36.2855 202.166 37.6164 200.728 38.5331C199.122 39.5643 197.984 40.5514 198.403 42.3671C194.928 42.3671 191.753 42.3671 188.661 42.3671C188.709 36.9994 193.226 34.558 199.182 33.2623C202.837 32.4691 204.419 30.5653 205.893 27.9211C204.695 28.115 203.832 28.1768 203.053 28.3971C197.133 30.0806 191.237 31.7904 185.329 33.4915C182.741 34.2407 180.296 34.6549 178.115 32.7247C177.636 32.3016 176.09 32.1782 175.251 32.3898C172.89 32.9891 170.517 33.6766 168.396 34.6285C164.214 36.4883 160.188 38.5507 155.837 40.6484C155.837 41.3358 155.837 42.1556 155.837 43.0017C152.925 43.0987 149.75 43.9007 147.713 43.1163C144.944 42.041 142.715 44.6852 140.343 43.0546C140.546 41.5033 142.643 42.0322 143.758 41.2654C142.991 37.4489 147.341 35.8713 150.457 33.8C152.602 32.381 155.19 31.3145 157.551 30.0629C157.935 29.8602 158.198 29.5164 158.989 28.8113C150.373 28.9083 142.5 30.0629 134.554 30.2216C126.705 30.3802 118.82 30.7592 110 29.9131C111.318 29.2432 111.833 28.7673 112.397 28.732C114.901 28.591 117.43 28.4764 119.946 28.5293C131.511 28.7849 142.979 27.93 154.459 27.1279C154.591 27.1191 154.723 27.075 154.855 27.0838C161.47 27.5686 166.539 25.2506 171.057 22.1216C173.226 20.6233 175.766 19.9798 178.547 19.7419C179.457 19.6625 181.051 19.8653 181.243 20.2443C181.662 21.0375 181.878 22.4213 181.255 22.8884C179.517 24.1664 177.444 25.277 175.251 26.1055C173.406 26.8106 171.248 27.1543 169.175 27.454C165.844 27.93 162.92 28.9259 160.283 30.4683C156.556 32.6542 152.77 34.7783 149.115 37.0259C147.82 37.8191 146.406 38.8151 147.497 40.2694C148.072 41.0362 150.828 40.9393 152.614 40.0755C157.827 37.5812 163.04 35.0868 168.157 32.4955C170.769 31.1646 173.633 30.5124 176.713 30.4243C178.055 30.389 179.613 30.6358 180.716 31.1559C182.225 31.8698 183.532 32.0372 185.173 31.5877C192.987 29.4371 200.86 27.4188 208.601 25.1536C211.502 24.2987 214.102 22.8972 216.822 21.7162C217.841 21.2755 218.74 20.6321 219.83 20.3412C220.513 20.1561 221.436 20.4293 222.251 20.4999C221.867 21.0551 221.664 21.7867 221.052 22.1216C219.159 23.1705 217.158 24.1312 215.097 25.0037C211.981 26.3523 209.368 28.0533 206.84 30.7945ZM201.124 34.9106C194.868 36.0652 192.448 37.6517 192.915 40.2958C196.462 39.3263 198.955 37.7486 201.124 34.9106ZM170.11 25.2153C173.334 25.1007 176.222 24.5278 178.511 22.0335C174.28 21.8572 172.375 23.7786 170.11 25.2153Z" fill="#1341B3"/>
<path d="M480.523 41.5454C482.752 42.3034 484.358 41.845 485.88 41.2104C491.728 38.7337 497.624 36.3187 503.364 33.7098C512.256 29.6643 521.028 25.4865 529.86 21.3792C530.975 20.868 532.161 20.4009 533.875 21.3616C531.07 24.9488 526.78 27.5842 523.389 30.7219C520.034 33.8156 516.247 36.6537 512.891 39.8355C519.315 38.4958 524.767 35.737 530.519 33.4719C530.735 33.6217 530.963 33.7715 531.178 33.9214C530.891 34.4502 530.759 35.0936 530.268 35.4814C528.83 36.6272 527.152 37.6056 525.75 38.769C524.863 39.5094 524.336 40.4789 523.509 41.5189C526.72 42.603 529.489 42.2857 532.065 41.7217C546.769 38.4958 561.425 35.1553 576.105 31.8589C577.495 31.5504 578.897 31.2419 580.311 30.9863C585.788 30.008 589.335 27.1082 592.93 24.2173C594.344 23.0803 595.89 21.9786 597.616 21.1148C599.521 20.1541 601.642 20.3832 602.685 21.3351C603.787 22.3399 603.572 24.2349 601.762 25.2485C599.473 26.5265 597.052 27.9456 594.38 28.5096C585.884 30.3165 580.97 35.1994 575.542 39.6856C575.027 40.1087 574.715 40.6816 574.391 41.2193C574.188 41.5718 574.128 41.9684 573.984 42.4091C575.829 44.216 578.226 44.0044 580.779 43.5461C586.183 42.5766 590.581 40.2057 595.159 38.0551C605.333 33.278 614.776 27.7693 624.159 22.2077C624.974 21.723 625.933 21.3792 627.095 20.8504C625.753 19.9425 625.238 19.5371 624.651 19.211C623.165 18.3825 623.081 17.2984 623.381 16.0644C623.98 13.6406 626.017 11.7809 628.09 10.0446C631.577 7.11835 635.352 4.36842 639.103 1.61849C641.236 0.0584345 645.383 -0.461586 647.168 0.446244C649.038 1.38933 649.733 4.2891 648.019 6.40443C646.413 8.37874 644.22 10.1151 642.135 11.8514C640.074 13.5701 637.821 15.1566 635.64 16.8048C635.82 16.9899 635.987 17.1838 636.167 17.3689C637.473 17.0252 638.756 16.5845 640.098 16.3729C642.662 15.9675 645.251 15.5444 647.863 15.421C651.195 15.2536 654.226 15.9587 656.036 18.2503C657.055 19.5371 658.684 19.5019 660.218 19.3785C665.611 18.9378 671.028 18.5764 676.336 17.8008C681.513 17.0428 686.594 15.8882 691.651 14.7688C697.847 13.3938 703.911 11.6751 710.154 10.4941C714.289 9.71844 717.201 7.92923 719.969 5.80509C720.975 5.02946 721.922 4.21858 722.953 3.46059C723.504 3.04634 724.115 2.6409 724.786 2.34123C726.811 1.44221 730.383 1.55679 731.006 2.61446C731.952 4.2274 730.407 5.28506 728.873 5.98136C725.745 7.4004 722.545 8.8018 719.166 9.83302C717.009 10.4941 715.199 11.2697 713.677 12.5565C712.551 13.5084 711.161 14.284 709.95 15.1831C708.56 16.2143 707.206 17.2896 707.434 19.0171C709.867 19.969 712.143 19.3785 714.253 18.594C717.44 17.4041 720.508 16.0644 723.588 14.7247C724.547 14.3105 725.349 13.8257 726.608 15.0156C725.349 15.6854 724.187 16.4258 722.881 16.9635C720.005 18.1533 717.129 19.3696 714.097 20.3304C712.335 20.8856 710.274 21.2734 708.381 21.2029C704.69 21.0531 703.395 18.929 705.493 16.6462C706.715 15.3153 708.297 14.1606 710.082 12.6094C706.523 12.5036 704.007 13.5789 701.358 14.2488C688.452 17.5187 675.318 20.1276 661.74 21.4233C660.566 21.5379 659.367 21.5731 658.169 21.5819C656.228 21.6084 654.478 21.2294 653.316 19.9778C651.087 17.5804 647.755 17.3601 644.46 17.9418C639.463 18.832 634.561 20.0395 629.66 21.1853C628.833 21.3792 628.198 21.9874 627.467 22.4104C619.845 26.7821 612.32 31.2419 604.578 35.4902C600.564 37.6937 596.118 39.4829 591.971 41.5718C590.222 42.4532 588.736 43.6255 586.639 44.9828C581.57 44.9652 575.638 46.6751 569.933 44.595C571.683 39.7738 575.985 35.8957 581.869 32.4847C580.623 32.185 580.167 31.9471 579.94 32.0352C570.557 35.8252 560.047 37.2089 550.005 39.5799C545.715 40.5935 541.412 41.5983 537.026 42.3386C534.809 42.7176 534.426 44.0397 533.395 45.256C531.466 44.5421 529.656 44.1102 527.619 44.9828C527.116 45.1943 525.846 44.4363 525.031 44.1631C523.724 44.5333 522.466 44.8858 520.98 45.3089C520.98 43.2288 520.98 41.563 520.98 39.4389C517.864 40.5318 515.084 41.5013 512.064 42.559C512.364 43.317 512.616 43.9868 512.939 44.7889C510.051 44.7889 507.343 44.7889 504.551 44.7889C503.927 43.6431 505.162 43.0702 506.013 42.3739C511.969 37.5439 517.936 32.7227 523.868 27.875C524.24 27.5754 524.336 27.0818 524.276 26.4648C517.313 29.2324 510.566 32.185 504.227 35.5519C497.84 38.9453 489.859 40.5494 484.346 45.2913C482.429 44.1278 480.248 44.075 478.139 45.3177C476.581 41.3338 478.247 38.5663 481.866 36.213C486.611 33.1105 491.297 29.9463 495.958 26.7733C496.881 26.1475 497.612 25.3543 498.739 24.3583C497.492 24.0586 496.725 23.662 496.138 23.7766C493.094 24.3847 490.086 25.1075 487.078 25.8214C485.521 26.1916 484.095 27.1523 481.925 26.1916C482.513 25.6099 482.872 24.9488 483.531 24.6668C487.821 22.8423 492.495 21.7758 497.372 21.1765C499.086 20.965 500.608 21.2382 501.447 22.4457C502.286 23.6708 502.19 24.9665 500.92 25.9977C499.41 27.214 497.72 28.3246 496.042 29.4351C491.704 32.2996 487.33 35.1289 482.992 37.9934C481.614 38.9188 480.392 39.9148 480.523 41.5454ZM646.09 4.35079C645.994 2.40293 644.783 1.63612 643.118 2.07681C641.811 2.42055 640.517 3.03753 639.523 3.76027C637.078 5.52304 634.729 7.37395 632.476 9.27775C630.739 10.732 629.013 12.2304 627.635 13.8698C626.664 15.0244 625.19 16.4258 626.868 17.8625C627.85 18.6998 630.463 18.0652 632.428 16.5668C636.011 13.8433 639.642 11.1639 642.998 8.2906C644.496 7.01259 645.347 5.32913 646.09 4.35079ZM593.421 26.5001C596.921 26.0418 599.222 25.2044 600.887 22.8864C596.825 22.5779 595.507 24.4993 593.421 26.5001ZM727.483 4.35961C725.002 3.90129 723.72 4.59758 723.121 5.9461C723.312 6.1312 723.504 6.31629 723.696 6.49257C724.966 5.78746 726.224 5.07353 727.483 4.35961Z" fill="#1341B3"/>
<path d="M249.274 278.506C250.268 281.855 247.464 283.556 245.199 285.063C241.592 287.47 237.422 289.418 233.503 291.577C231.598 292.626 229.704 293.692 227.883 294.82C227.248 295.208 226.864 295.808 225.834 296.848C227.739 296.848 228.842 296.9 229.932 296.839C232.305 296.698 234.666 296.425 237.05 296.328C240.55 296.187 240.765 296.319 242.779 299.042C255.601 292.3 268.352 285.566 281.15 278.885C282.469 278.197 284.074 277.818 285.74 277.219C286.363 278.823 285.165 279.387 284.29 280.057C279.688 283.565 275.087 287.055 270.497 290.572C269.706 291.18 268.987 291.841 268.472 292.732C275.602 290.502 282.433 287.875 289.479 285.09C290.21 286.967 288.844 287.619 287.945 288.342C285.273 290.502 282.397 292.529 279.832 294.75C278.694 295.737 278.106 297.077 277.196 298.372C272.342 299.562 271.048 300.849 271.432 304.383C273.349 305.371 275.35 304.833 276.944 304.057C280.527 302.321 284.686 301.017 286.627 297.852C286.867 297.456 307.167 282.322 313.782 277.572C319.45 273.508 325.43 269.622 332.38 266.678C332.836 266.484 351.458 261.275 361.165 262.086C362.471 262.191 363.838 262.306 365.06 262.65C369.662 263.972 374.431 263.901 379.189 263.558C381.202 263.417 382.017 264.844 380.758 264.941C375.869 265.329 370.908 265.532 366.162 264.457C360.614 263.196 355.125 263.531 349.673 264.368C345.407 265.021 341.212 265.981 337.066 266.986C331.925 268.229 327.779 270.759 323.824 273.323C318.072 277.052 312.571 281.009 307.179 285.028C302.637 288.413 298.419 292.026 294.045 295.552C294.26 295.931 293.973 298.531 293.505 298.381C291.42 297.703 290.198 298.619 289.036 299.545C285.656 302.233 281.486 304.11 277.256 305.926C275.494 306.684 273.601 307.16 271.587 306.516C267.729 305.282 267.058 303.678 269.167 300.92C269.358 300.664 269.646 300.452 269.838 300.197C270.017 299.95 270.125 299.668 270.365 299.21C269.466 298.875 267.836 297.588 268.1 297.447C268.508 297.227 269.131 296.927 269.526 297.015C273.025 297.782 274.871 296.019 276.884 294.503C278.778 293.084 281.186 291.991 282.612 289.717C281.666 289.893 281.162 289.902 280.755 290.07C276.357 291.85 271.899 293.56 267.633 295.508C266.326 296.107 258.921 299.21 255.302 298.337C263.343 294.212 274.823 284.235 274.595 284.032C267.249 288.06 259.903 292.079 252.437 296.169C252.965 296.953 253.396 297.588 253.983 298.434C253.001 298.646 252.078 299.086 251.647 298.901C249.118 297.826 247.392 299.016 245.511 299.88C242.491 301.263 239.471 302.674 236.391 303.978C235.576 304.322 234.498 304.322 233.024 304.569C234.282 301.73 238.704 301.73 239.591 299.13C237.746 297.544 235.576 299.43 233.491 299.086C231.394 298.743 229.093 298.989 226.876 299.06C224.815 299.122 222.754 299.298 220.022 299.457C221.747 297.156 223.185 295.455 225.39 294.212C229.489 291.903 233.707 289.717 237.793 287.399C240.202 286.042 242.563 284.614 244.72 283.054C245.667 282.375 246.062 281.273 246.853 280.172C243.594 279.202 240.933 279.969 238.548 280.718C235.672 281.626 233 282.913 230.376 284.191C226.745 285.962 223.365 288.025 219.662 289.708C214.725 291.965 209.644 294.071 204.491 296.046C202.442 296.83 200.752 297.491 201.711 300.012C199.829 299.545 198.607 299.245 196.965 298.84C195.719 299.421 194.245 300.814 191.8 299.73C191.321 299.518 190.338 300.003 189.571 300.056C188.613 300.118 187.642 300.073 186.647 300.073C186.527 298.117 188.924 298.672 189.787 297.553C189.643 297.306 189.535 296.821 189.164 296.513C188.025 295.587 188.229 294.609 189.236 293.895C191.333 292.423 193.478 290.933 195.899 289.796C197.624 288.986 199.745 288.668 201.914 289.647C202.717 290.008 204.431 289.964 205.222 289.559C209.344 287.443 217.913 282.172 218.38 281.573C214.557 282.314 211.154 282.939 207.762 283.636C202.046 284.817 196.342 286.042 190.638 287.267C181.123 289.312 171.62 291.383 162.105 293.419C160.067 293.851 134.183 298.707 132.565 299.104C131.031 299.474 116.183 302.603 115.68 302.585C113.175 302.506 109.305 299.835 110.108 298.69C111.054 297.324 112.025 295.834 113.523 294.829C120.27 290.308 127.16 285.883 134.111 281.529C136.484 280.048 139.408 279.405 142.691 279.634C143.89 281.088 143.266 282.181 141.804 283.257C138.353 285.804 134.207 287.549 129.593 288.501C123.218 289.814 119.107 293.243 114.697 296.46C114.326 296.724 113.187 299.113 113.619 299.606C114.002 300.047 115.5 300.259 116.387 300.135C125.099 298.945 154.375 293.56 160.355 292.3C170.529 290.149 180.619 287.805 190.782 285.636C194.844 284.773 199.026 284.208 203.113 283.389C206.672 282.675 210.183 281.811 213.706 280.991C216.343 280.383 218.943 279.713 221.592 279.132C222.155 279.008 222.838 279.167 224.216 279.22C223.305 280.128 222.862 280.806 222.155 281.229C216.199 284.79 210.195 288.289 204.215 291.824C201.914 293.19 199.302 294.318 197.876 296.566C200.908 295.543 204.119 294.723 206.936 293.445C214.569 289.964 222.107 286.368 229.525 282.648C233.419 280.701 237.566 279.185 242.024 278.321C244.157 277.933 246.637 278.418 249.274 278.506ZM200.416 290.713C197.241 290.643 194.413 291.683 192.064 293.78C191.237 294.512 190.83 295.252 191.896 296.037C196.186 295.42 200.009 293.014 200.416 290.713ZM129.809 286.985C133.955 285.557 137.814 284.737 139.887 281.705C136.256 281.961 132.577 283.838 129.809 286.985Z" fill="#1341B3"/>
<path d="M49.4326 288.658C48.4739 288.975 47.4672 289.231 46.5805 289.627C43.5486 290.993 43.5726 291.02 41.1758 289.019C39.6419 290.341 37.9283 291.346 35.4836 290.094C35.2439 289.971 34.6447 290.059 34.3571 290.2C32.224 291.231 30.7021 290.747 29.324 289.319C27.9219 287.864 28.4732 286.498 29.6955 285.291C32.0683 282.955 34.5968 280.69 37.1373 278.451C38.6713 277.103 40.3729 275.878 41.9668 274.564C42.3742 274.229 42.6139 273.789 43.4407 272.766C41.2118 273.515 39.8217 273.965 38.4436 274.45C37.2452 274.873 36.1307 275.437 34.8964 275.754C31.8645 276.521 28.7727 277.297 25.9686 274.934C24.0392 276.23 22.2656 277.367 20.564 278.575C16.0821 281.739 11.6241 284.929 7.16622 288.12C6.31538 288.728 5.44057 289.345 4.76949 290.05C3.35542 291.54 1.84548 291.284 0 290.429C10.977 282.92 21.7863 275.525 32.6195 268.148C32.8232 268.007 33.3505 268.13 33.9737 268.13C34.1894 270.862 29.5157 271.797 29.9112 274.652C30.7381 274.652 31.6848 274.838 32.4038 274.617C35.22 273.78 37.9882 272.854 40.7324 271.894C43.4767 270.933 46.161 269.858 48.9173 268.906C49.6483 268.65 50.571 268.677 51.6496 268.844C44.9986 275.217 35.8551 280.011 30.7021 287.856C32.991 287.97 34.7646 288.164 36.5142 288.102C38.2398 288.041 38.6832 286.948 39.2584 285.908C40.8523 282.964 42.5539 282.7 46.2449 284.85C45.8974 285.573 45.5139 286.348 45.0945 287.195C45.5978 287.265 46.0772 287.441 46.3168 287.336C47.7549 286.657 49.3367 286.066 50.4991 285.176C55.9277 281.042 61.1766 276.785 66.5932 272.634C74.3825 266.667 82.088 260.621 91.2555 255.747C96.744 252.829 103.071 251.957 109.603 251.604C112.503 251.445 115.451 251.551 118.339 251.313C122.233 250.996 126.092 250.458 130.083 250C130.658 251.111 129.495 251.472 128.321 251.639C125.469 252.054 122.593 252.45 119.705 252.688C117.08 252.9 114.42 252.961 111.772 252.961C107.074 252.97 102.592 253.843 98.1941 254.865C96.1089 255.35 94.1316 256.293 92.346 257.263C79.919 264.023 69.8048 272.555 59.391 280.849C56.0715 283.493 52.6801 286.084 49.3247 288.693L49.4326 288.658Z" fill="#1341B3"/>
</svg>
