<svg width="706" height="174" viewBox="0 0 706 174" fill="none" xmlns="http://www.w3.org/2000/svg">
<path d="M470.438 117.281C468.306 119.046 469.799 122.228 472.724 122.228H477.934C495.392 122.255 512.819 122.202 530.278 122.309C556.724 122.496 580.398 119.661 602.548 108.162C646.848 85.1104 661.467 78.3036 681.118 45.2771C684.836 37.5219 682.398 25.9693 688.187 24.5788C701.745 21.2895 694.829 44.2877 688.553 54.5031C667.103 89.5887 647.153 97.3316 597.856 119.126C577.046 128.326 552.001 129.181 526.926 128.7C508.28 128.326 489.542 129.502 470.895 130.144C460.871 130.492 455.052 133.808 451.213 140.172C447.74 145.815 442.073 151.538 435.035 155.469C430.8 157.849 410.294 168.572 395.822 172.664C387.961 174.884 379.217 173.734 386.926 161.165C393.659 150.227 412.762 135.653 427.448 132.845C442.134 130.037 449.964 124.047 456.301 115.677C457.977 113.484 455.631 110.649 452.736 111.291C450.39 111.826 448.319 112.387 446.369 112.869C417.424 120.089 388.601 126.507 359.687 133.808C347.012 137.017 335.069 138.808 324.405 130.518C322.059 128.7 314.503 128.165 310.39 129.074C298.842 131.642 287.234 134.61 276.845 138.675C256.4 146.671 236.688 155.522 215.421 164.508C204.849 168.92 177.366 176.408 170.085 172.664C161.736 168.358 159.421 158.651 165.636 152.126C171.395 146.056 180.383 140.172 189.097 135.091C196.074 131.053 210.516 124.234 220.54 119.26C223.495 117.789 222.246 113.831 218.833 113.912C169.506 115.169 52.9654 120.704 3.15018 119.046C-0.841131 118.912 -1.14581 113.617 2.8455 113.323C2.87597 113.323 2.90644 113.323 2.9369 113.323C14.5148 112.762 159.055 110.863 203.843 106.959C208.109 106.584 212.405 106.424 216.701 106.504C246.133 107.066 269.197 97.5187 289.885 84.95C300.488 78.5051 330.742 68.5303 338.299 77.9435C346.464 88.1323 321.145 98.4815 310.42 102.038C301.402 105.06 290.829 106.531 280.714 107.814C264.414 109.847 250.124 114.126 237.206 120.758C218.986 130.144 200.461 139.263 182.576 148.917C176.239 152.313 169.323 156.592 174.655 162.85C177.458 166.139 190.955 165.738 199.699 162.021C225.201 151.324 250.703 140.6 275.717 129.476C288.483 123.753 302.499 120.972 317.58 120.57C324.131 120.41 331.778 121.48 337.171 123.699C344.544 126.775 350.943 127.497 358.986 125.544C397.193 116.318 435.705 107.654 473.577 97.9199C487.775 94.2562 523.179 78.5051 528.51 77.2483C529.607 76.9808 530.826 76.9273 532.106 77.0076C536.798 77.2215 538.687 82.8106 534.604 84.843C534.574 84.8697 534.543 84.8697 534.513 84.8965C525.25 89.3892 515.47 93.5342 505.385 97.2781C492.345 102.279 481.133 108.323 470.438 117.281ZM434.486 139.076C427.448 138.062 405.16 151.442 400.377 158.128C394.618 166.177 399.204 164.668 405.115 162.342C416.754 157.795 421.69 154.479 431.287 146.778C433.877 144.718 438.569 139.664 434.486 139.076ZM295.796 97.5455C307.77 95.4329 330.103 88.3462 325.959 84.736C323.552 82.3292 301.31 87.1161 293.663 92.0634C286.99 96.3421 287.021 99.0965 295.796 97.5455Z" fill="#437122"/>
<circle cx="688.205" cy="141.43" r="8.18179" fill="#212121"/>
<path d="M74.2136 151.014C71.3045 151.014 69.1227 150.36 67.6681 149.051C66.2136 147.669 65.4863 145.778 65.4863 143.378C65.4863 141.487 65.9227 139.924 66.7954 138.687C67.6681 137.378 68.8318 136.724 70.2863 136.724C70.2863 137.669 70.7227 138.76 71.5954 139.996C72.4681 141.233 73.8136 141.851 75.6317 141.851C76.6499 141.851 77.5954 141.705 78.4681 141.414C79.4135 141.051 80.3226 140.36 81.1954 139.342C82.0681 138.324 82.9408 136.796 83.8135 134.76C84.6863 132.651 85.5953 129.887 86.5408 126.469C87.2681 123.633 87.959 120.542 88.6135 117.196C89.2681 113.778 89.8135 110.324 90.2499 106.833C90.759 103.342 91.159 99.96 91.4499 96.6873C91.7408 93.4146 91.959 90.4692 92.1044 87.851C92.3226 85.1601 92.4317 83.0147 92.4317 81.4147C92.4317 80.0328 92.0317 79.051 91.2317 78.4692C90.4317 77.8147 89.3771 77.4147 88.0681 77.2692C86.759 77.051 85.3044 76.9419 83.7044 76.9419H82.0681V72.3601H137.922V76.9419H136.504C134.904 76.9419 133.413 77.1238 132.032 77.4874C130.65 77.851 129.559 78.5783 128.759 79.6692C127.959 80.7601 127.559 82.4692 127.559 84.7965V137.814C127.559 140.069 127.959 141.778 128.759 142.942C129.559 144.033 130.65 144.76 132.032 145.124C133.413 145.487 134.904 145.669 136.504 145.669H137.922V150.251H106.177V145.669H107.595C109.268 145.669 110.759 145.487 112.068 145.124C113.45 144.76 114.541 144.033 115.341 142.942C116.141 141.778 116.541 140.069 116.541 137.814V77.8147H98.7589C98.5407 82.3237 98.2135 87.0874 97.7771 92.1055C97.3408 97.051 96.7953 101.996 96.1408 106.942C95.4862 111.887 94.7226 116.615 93.8499 121.124C92.9771 125.633 91.9953 129.705 90.9044 133.342C89.5953 137.778 88.1772 141.305 86.6499 143.924C85.1226 146.469 83.3408 148.287 81.3045 149.378C79.3408 150.469 76.9772 151.014 74.2136 151.014Z" fill="#212121"/>
<path d="M207.647 150.251V145.124H213.647C216.12 145.124 218.484 144.687 220.738 143.814C222.993 142.869 224.993 141.56 226.738 139.887C228.484 138.214 229.756 136.287 230.556 134.105L205.793 82.7238C205.138 81.2692 204.484 80.1419 203.829 79.3419C203.175 78.4692 202.411 77.851 201.538 77.4874C200.666 77.1238 199.502 76.9419 198.047 76.9419H196.629V72.3601H227.175V76.9419H225.429C223.247 76.9419 221.611 77.3783 220.52 78.251C219.429 79.051 218.884 80.3601 218.884 82.1783C218.884 82.7601 218.956 83.3783 219.102 84.0328C219.247 84.6874 219.466 85.4146 219.756 86.2146L231.756 112.069C232.993 114.615 234.047 117.16 234.92 119.705C235.866 122.251 236.629 124.651 237.211 126.905C237.793 124.578 238.484 122.324 239.284 120.142C240.084 117.96 241.065 115.415 242.229 112.505L252.484 86.9783C252.847 86.1056 253.102 85.2692 253.247 84.4692C253.393 83.5965 253.465 82.8692 253.465 82.2874C253.465 80.3965 252.847 79.051 251.611 78.251C250.447 77.3783 248.665 76.9419 246.265 76.9419H243.975V72.3601H270.265V76.9419H268.193C266.811 76.9419 265.684 77.1965 264.811 77.7056C263.938 78.1419 263.138 78.9783 262.411 80.2147C261.684 81.3783 260.847 83.1237 259.902 85.451L241.465 130.287C239.72 134.578 238.084 138.033 236.556 140.651C235.102 143.269 233.466 145.269 231.647 146.651C229.902 148.033 227.756 148.978 225.211 149.487C222.666 149.996 219.466 150.251 215.611 150.251H207.647Z" fill="#212121"/>
<path d="M340.62 150.251V145.669H343.129C344.729 145.669 346.184 145.524 347.493 145.233C348.875 144.869 349.966 144.178 350.766 143.16C351.638 142.069 352.075 140.469 352.075 138.36V77.8147H341.602C339.493 77.8147 337.82 78.251 336.584 79.1238C335.348 79.9238 334.438 81.0147 333.857 82.3965C333.275 83.7056 332.875 85.1601 332.657 86.7601L332.111 91.451H326.438L326.984 72.3601H388.402L388.947 91.451H383.275L382.729 86.7601C382.584 85.1601 382.184 83.7056 381.529 82.3965C380.947 81.0147 380.038 79.9238 378.802 79.1238C377.566 78.251 375.856 77.8147 373.675 77.8147H363.093V137.814C363.093 140.069 363.493 141.778 364.293 142.942C365.093 144.033 366.184 144.76 367.566 145.124C368.947 145.487 370.438 145.669 372.038 145.669H374.547V150.251H340.62Z" fill="#212121"/>
<path d="M484.047 151.342C476.338 151.342 469.938 149.669 464.847 146.324C459.756 142.978 455.938 138.287 453.393 132.251C450.92 126.214 449.683 119.16 449.683 111.087C449.683 103.015 450.92 95.9964 453.393 90.0328C455.938 84.0692 459.756 79.451 464.847 76.1783C470.011 72.8329 476.447 71.1602 484.156 71.1602C491.501 71.1602 497.683 72.8329 502.701 76.1783C507.792 79.451 511.647 84.1056 514.265 90.1419C516.956 96.1055 518.301 103.124 518.301 111.196C518.301 119.269 516.956 126.324 514.265 132.36C511.647 138.324 507.792 142.978 502.701 146.324C497.611 149.669 491.392 151.342 484.047 151.342ZM484.047 145.451C488.12 145.451 491.538 144.687 494.301 143.16C497.138 141.633 499.429 139.414 501.174 136.505C502.92 133.524 504.192 129.924 504.992 125.705C505.792 121.415 506.192 116.578 506.192 111.196C506.192 105.815 505.792 101.015 504.992 96.7964C504.192 92.5783 502.92 89.0146 501.174 86.1056C499.501 83.1237 497.247 80.8692 494.411 79.3419C491.647 77.8147 488.229 77.051 484.156 77.051C480.083 77.051 476.629 77.8147 473.792 79.3419C470.956 80.8692 468.629 83.1237 466.811 86.1056C465.065 89.0146 463.793 92.5783 462.993 96.7964C462.193 101.015 461.793 105.815 461.793 111.196C461.793 116.578 462.193 121.415 462.993 125.705C463.793 129.924 465.065 133.524 466.811 136.505C468.629 139.414 470.956 141.633 473.792 143.16C476.629 144.687 480.047 145.451 484.047 145.451Z" fill="#212121"/>
<path d="M583.231 150.251V145.669H584.649C586.249 145.669 587.703 145.524 589.013 145.233C590.394 144.869 591.485 144.178 592.285 143.16C593.158 142.069 593.594 140.469 593.594 138.36V84.3601C593.594 82.1783 593.158 80.5783 592.285 79.5601C591.485 78.4692 590.394 77.7783 589.013 77.4874C587.703 77.1238 586.249 76.9419 584.649 76.9419H583.231V72.3601H614.976V76.9419H613.558C611.958 76.9419 610.467 77.1238 609.085 77.4874C607.703 77.851 606.612 78.5783 605.812 79.6692C605.012 80.7601 604.612 82.4692 604.612 84.7965V108.578C606.94 108.578 608.685 108.469 609.849 108.251C611.012 108.033 611.922 107.669 612.576 107.16C613.231 106.651 613.849 106.033 614.431 105.305C615.376 104.142 616.503 102.215 617.812 99.5237C619.194 96.8328 620.903 93.4873 622.94 89.4874C624.831 85.851 626.721 82.7237 628.612 80.1056C630.503 77.4147 632.54 75.342 634.721 73.8874C636.976 72.4329 639.521 71.7056 642.358 71.7056C644.54 71.7056 646.249 72.0329 647.485 72.6874C648.794 73.2692 649.74 74.0692 650.321 75.0874C650.903 76.1056 651.194 77.2692 651.194 78.5783C651.194 80.6147 650.649 82.2874 649.558 83.5965C648.54 84.8328 647.34 85.5965 645.958 85.8874C645.667 84.2147 645.012 82.7965 643.994 81.6328C642.976 80.3965 641.485 79.7783 639.521 79.7783C638.14 79.7783 636.758 80.251 635.376 81.1965C634.067 82.1419 632.758 83.5601 631.449 85.451C630.14 87.3419 628.721 89.7419 627.194 92.651C625.667 95.6328 624.358 98.1419 623.267 100.178C622.249 102.215 621.267 103.96 620.321 105.415C619.449 106.796 618.431 107.996 617.267 109.015C619.885 109.087 621.994 109.524 623.594 110.324C625.194 111.051 626.54 112.105 627.631 113.487C628.794 114.796 629.921 116.469 631.012 118.505L641.267 136.942C642.43 138.978 643.63 140.651 644.867 141.96C646.103 143.196 647.449 144.142 648.903 144.796C650.358 145.378 651.885 145.669 653.485 145.669H653.812V150.251H652.285C647.63 150.251 643.958 149.996 641.267 149.487C638.649 148.905 636.54 147.887 634.94 146.433C633.412 144.978 631.921 142.833 630.467 139.996L620.54 121.015C619.667 119.342 618.794 118.033 617.922 117.087C617.122 116.069 616.176 115.342 615.085 114.905C613.994 114.396 612.612 114.069 610.94 113.924C609.267 113.705 607.158 113.596 604.612 113.596V137.814C604.612 140.069 605.012 141.778 605.812 142.942C606.612 144.033 607.703 144.76 609.085 145.124C610.467 145.487 611.958 145.669 613.558 145.669H614.976V150.251H583.231Z" fill="#212121"/>
<circle cx="290.621" cy="97.8218" r="10.1753" fill="#EA4949"/>
<circle cx="302.429" cy="101.087" r="10.1753" fill="#EA4949"/>
<circle cx="302.429" cy="87.521" r="10.1753" fill="#EA4949"/>
<path d="M293.407 88.7662C294.064 87.6281 293.327 85.9723 291.76 85.0679C290.194 84.1636 285.686 84.3084 285.686 84.3084C285.686 84.3084 287.814 88.285 289.381 89.1894C290.947 90.0937 292.75 89.9043 293.407 88.7662Z" fill="#41721E"/>
<path d="M292.95 87.2772C294.092 86.6276 294.294 84.8263 293.4 83.254C292.506 81.6816 288.543 79.527 288.543 79.527C288.543 79.527 288.369 84.034 289.263 85.6063C290.157 87.1787 291.808 87.9267 292.95 87.2772Z" fill="#41721E"/>
<circle cx="211.736" cy="141.587" r="7.688" transform="rotate(51.9791 211.736 141.587)" fill="#EA4949"/>
<circle cx="215.286" cy="150.134" r="7.688" transform="rotate(51.9791 215.286 150.134)" fill="#EA4949"/>
<circle cx="223.363" cy="143.821" r="7.688" transform="rotate(51.9791 223.363 143.821)" fill="#EA4949"/>
<path d="M218.423 139.031C219.407 138.892 220.049 137.683 219.858 136.33C219.668 134.976 217.483 132.36 217.483 132.36C217.483 132.36 216.107 135.478 216.298 136.831C216.488 138.185 217.44 139.169 218.423 139.031Z" fill="#41721E"/>
<path d="M219.097 138.066C220.015 138.444 221.181 137.725 221.701 136.461C222.22 135.197 221.659 131.836 221.659 131.836C221.659 131.836 218.895 133.83 218.375 135.094C217.855 136.358 218.178 137.688 219.097 138.066Z" fill="#41721E"/>
<circle cx="94.2527" cy="105.879" r="10.1753" transform="rotate(105 94.2527 105.879)" fill="#EA4949"/>
<circle cx="88.0418" cy="116.439" r="10.1753" transform="rotate(105 88.0418 116.439)" fill="#EA4949"/>
<circle cx="100.164" cy="116.827" r="7.66287" transform="rotate(105 100.164 116.827)" fill="#EA4949"/>
<path d="M85.9865 109.596C86.8302 108.588 86.3897 106.83 85.0029 105.669C83.616 104.508 79.1505 103.873 79.1505 103.873C79.1505 103.873 80.561 108.157 81.9479 109.318C83.3348 110.479 85.1429 110.604 85.9865 109.596Z" fill="#41721E"/>
<path d="M85.7926 108.052C87.03 107.609 87.5391 105.87 86.9298 104.167C86.3204 102.463 82.7892 99.6574 82.7892 99.6574C82.7892 99.6574 81.8396 104.067 82.4489 105.77C83.0583 107.473 84.5553 108.494 85.7926 108.052Z" fill="#41721E"/>
<circle cx="615.824" cy="103.082" r="10.1753" transform="rotate(49.2037 615.824 103.082)" fill="#EA4949"/>
<circle cx="621.068" cy="114.154" r="10.1753" transform="rotate(49.2037 621.068 114.154)" fill="#EA4949"/>
<circle cx="631.338" cy="105.291" r="10.1753" transform="rotate(49.2037 631.338 105.291)" fill="#EA4949"/>
<path d="M626.58 104.918C627.611 105.733 629.356 105.243 630.478 103.823C631.599 102.404 632.107 97.9224 632.107 97.9224C632.107 97.9224 627.865 99.4538 626.743 100.873C625.622 102.292 625.549 104.103 626.58 104.918Z" fill="#41721E"/>
<path d="M627.23 105.738C628.594 105.01 628.887 102.898 627.885 101.022C626.882 99.1453 622.291 96.4884 622.291 96.4884C622.291 96.4884 621.945 101.782 622.947 103.658C623.949 105.535 625.867 106.466 627.23 105.738Z" fill="#41721E"/>
<path d="M628.119 104.682C628.597 105.906 630.35 106.365 632.035 105.708C633.72 105.051 636.425 101.441 636.425 101.441C636.425 101.441 631.991 100.617 630.306 101.275C628.621 101.932 627.642 103.457 628.119 104.682Z" fill="#41721E"/>
<circle cx="479.759" cy="139.792" r="7.93645" transform="rotate(5.88283 479.759 139.792)" fill="#EA4949"/>
<circle cx="472.513" cy="131.144" r="7.93645" transform="rotate(5.88283 472.513 131.144)" fill="#EA4949"/>
<circle cx="493.394" cy="138.316" r="7.93645" transform="rotate(5.88283 493.394 138.316)" fill="#EA4949"/>
<circle cx="477.216" cy="122.61" r="7.93645" transform="rotate(5.88283 477.216 122.61)" fill="#EA4949"/>
<circle cx="489.763" cy="124.851" r="13.4159" transform="rotate(5.88283 489.763 124.851)" fill="#EA4949"/>
<path d="M484.865 128.797C486.591 128.646 487.821 126.598 487.613 124.222C487.405 121.846 483.838 117.087 483.838 117.087C483.838 117.087 481.154 122.394 481.362 124.77C481.57 127.145 483.138 128.949 484.865 128.797Z" fill="#41721E"/>
<path d="M486.228 128.995C486.877 127.063 485.248 124.773 482.589 123.879C479.93 122.985 473.123 124.59 473.123 124.59C473.123 124.59 477.579 129.981 480.238 130.874C482.897 131.768 485.579 130.926 486.228 128.995Z" fill="#41721E"/>
<path d="M486.125 127.178C487.69 127.921 489.788 126.776 490.81 124.621C491.831 122.466 491.161 116.557 491.161 116.557C491.161 116.557 486.162 119.778 485.14 121.933C484.118 124.087 484.559 126.436 486.125 127.178Z" fill="#41721E"/>
</svg>
