<svg width="237" height="54" viewBox="0 0 237 54" fill="none" xmlns="http://www.w3.org/2000/svg">
<g filter="url(#filter0_i_792_1991)">
<path d="M236.299 51.1889V52.4971H224.246C222.938 50.3521 220.183 46.3095 215.981 40.3694C211.78 34.4057 210.253 30.7644 209.335 30.1279C208.417 29.4679 208.737 29.5481 206.877 29.5245L204.135 43.7638C204.135 46.9224 204.525 48.926 205.306 49.7746C206.109 50.6232 207.969 51.0946 210.885 51.1889V52.4971H190.773V51.1889C193.643 51.0946 195.48 50.6349 196.283 49.8099C199.736 46.2645 202.881 38.0169 202.881 27.676C202.881 17.335 199.394 10.5229 196.318 7.2746C195.514 6.42601 193.666 5.95457 190.773 5.86029V4.55205H210.885V5.86029C207.969 5.95457 206.109 6.42601 205.306 7.2746C204.525 8.12318 203.468 9.04955 204.135 13.2854L206.877 26.628C209.379 26.6044 208.734 26.6931 209.698 26.3866C210.662 26.0566 211.378 25.0949 212.572 23.9634C213.789 22.832 214.742 21.618 215.43 20.3216C216.142 19.0016 217.049 16.8448 218.151 13.8511C219.184 11.0461 220.022 9.10141 220.665 8.01711C221.33 6.90923 222.387 5.96636 223.833 5.18849C225.279 4.38705 227.001 3.98633 228.998 3.98633C232.534 3.98633 234.302 5.25921 234.302 7.80496C234.302 8.70069 233.946 9.47856 233.234 10.1386C232.545 10.7986 231.753 11.1286 230.858 11.1286C230.215 11.1286 229.136 10.7514 227.621 9.99714C226.289 9.31356 225.36 8.97177 224.832 8.97177C224.097 8.97177 223.466 9.37249 222.938 10.1739C222.41 10.9518 221.572 12.9554 220.424 16.1847C218.22 22.2191 215.407 26.0495 211.987 27.676C214.076 28.0531 216.968 30.9878 220.665 36.4801C224.591 42.3023 227.472 46.1917 229.308 48.1481C231.145 50.1046 233.475 51.1182 236.299 51.1889Z" fill="#FAF9F1"/>
<path d="M166.947 2.89844C173.008 2.89844 178.253 5.2674 182.684 10.0053C187.138 14.7197 189.365 20.6127 189.365 27.6842C189.365 34.9679 187.127 41.0141 182.65 45.8227C178.173 50.6314 172.755 53.0357 166.396 53.0357C159.967 53.0357 154.561 50.6903 150.176 45.9995C145.814 41.3087 143.633 35.239 143.633 27.7903C143.633 20.1766 146.158 13.9654 151.209 9.15675C155.594 4.98454 160.84 2.89844 166.947 2.89844ZM166.292 5.47955C162.114 5.47955 158.762 7.07065 156.237 10.2528C153.091 14.2129 151.519 20.0116 151.519 27.6488C151.519 35.4747 153.149 41.4973 156.409 45.7166C158.911 48.9224 162.217 50.5253 166.327 50.5253C170.712 50.5253 174.328 48.7692 177.174 45.257C180.044 41.7448 181.479 36.2054 181.479 28.6389C181.479 20.4359 179.906 14.319 176.761 10.2882C174.236 7.08243 170.746 5.47955 166.292 5.47955Z" fill="#FAF9F1"/>
<path d="M143.565 5.07032C134.38 5.07032 130.031 19.6636 128.738 31.7324C128.049 13.3879 136.043 8.07572 128.049 8.07572H123.768V44.7063C123.768 47.6528 124.078 49.4914 124.698 50.2221C125.57 51.2121 126.913 51.7071 128.727 51.7071H130.345V53.0154H110.544V51.7071H112.197C114.171 51.7071 115.572 51.0943 116.398 49.8685C116.903 49.1142 117.156 47.3935 117.156 44.7063V8.07572H111.543C109.362 8.07572 107.812 8.24072 106.894 8.57073C105.7 9.01859 104.678 9.87896 103.829 11.1518C102.979 12.4247 98.6466 21.4739 96.4132 24.7325L91.2266 33.1806C91.2266 33.1806 100.898 12.3017 101.838 10.612C102.778 8.92238 103.483 7.23275 105.482 6.1466C107.48 5.06046 109.85 5.07032 111.543 5.07032C123.298 5.07032 130.552 5.07032 143.565 5.07032Z" fill="#FAF9F1"/>
<path d="M45.8281 4.95898H64.7684V6.26722C61.4395 6.40865 59.7751 7.32795 59.7751 9.02512C59.7751 10.2273 61.0033 13.0323 63.4598 17.4403L73.6532 35.8263L81.0916 17.4403C82.6527 13.5745 83.4333 10.9816 83.4333 9.66156C83.4333 7.82296 81.9869 6.69151 79.0942 6.26722V4.95898H93.7299V6.26722C90.2862 6.69151 87.669 9.09584 85.8783 13.4802L76.9591 35.2605C74.6404 40.8471 72.7578 44.8189 71.3115 47.1761C69.8651 49.5333 68.281 51.2658 66.5592 52.3737C64.8603 53.458 63.0925 54.0001 61.2559 54.0001C59.6718 54.0001 58.3287 53.6466 57.2268 52.9394C56.1477 52.2558 55.6082 51.3129 55.6082 50.1108C55.6082 49.2386 55.8952 48.5197 56.4691 47.954C57.0431 47.3647 57.8237 47.07 58.8109 47.07C59.7751 47.07 60.923 47.4707 62.2545 48.2722C63.1499 48.7672 63.8272 49.0147 64.2863 49.0147C66.1 49.0147 68.1318 47.0818 70.3817 43.216L53.4387 12.6316C52.2449 10.4866 51.1085 8.96619 50.0294 8.07046C48.9734 7.17473 47.5729 6.57365 45.8281 6.26722V4.95898Z" fill="#FAF9F1"/>
<path d="M30.9143 10.1378C28.916 7.72401 26.8002 8.05732 26.8002 8.05732H18.1138V21.4932C18.1138 35.047 16.9774 43.8511 14.7046 47.9055C12.4317 51.9362 9.29797 53.9516 5.30329 53.9516C3.6044 53.9516 2.2958 53.5273 1.37748 52.6788C0.459159 51.8066 0 50.8048 0 49.6734C0 48.8012 0.298453 48.0469 0.89536 47.4105C1.49227 46.774 2.21544 46.4558 3.06489 46.4558C3.77658 46.4558 4.59159 46.8094 5.50991 47.5165C6.54302 48.2944 7.47282 48.6833 8.2993 48.6833C10.2966 48.6833 11.9267 46.9862 13.1893 43.5918C14.452 40.1739 15.0834 33.7152 15.0834 24.2158V14.1742C15.0834 11.0156 14.6816 9.01198 13.8781 8.16339C13.0746 7.31481 11.2264 6.84337 8.33374 6.74908V5.44085H30.209L29.6213 0C30.209 6.15507 39.1548 9.41364 39.1548 14.1742V44.6526C39.1548 47.8112 39.5566 49.8148 40.3601 50.6634C41.7292 52.1092 43.9327 53.3859 45.9044 53.3859H25.8277V52.0777C28.7204 51.9834 30.5685 51.512 31.3721 50.6634C32.1756 49.8148 32.5773 47.8112 32.5773 44.6526V14.9653C32.5773 14.9653 32.9125 12.5515 30.9143 10.1378Z" fill="#FAF9F1"/>
</g>
<defs>
<filter id="filter0_i_792_1991" x="0" y="0" width="236.297" height="56.7542" filterUnits="userSpaceOnUse" color-interpolation-filters="sRGB">
<feFlood flood-opacity="0" result="BackgroundImageFix"/>
<feBlend mode="normal" in="SourceGraphic" in2="BackgroundImageFix" result="shape"/>
<feColorMatrix in="SourceAlpha" type="matrix" values="0 0 0 0 0 0 0 0 0 0 0 0 0 0 0 0 0 0 127 0" result="hardAlpha"/>
<feOffset dy="2.75417"/>
<feGaussianBlur stdDeviation="1.37708"/>
<feComposite in2="hardAlpha" operator="arithmetic" k2="-1" k3="1"/>
<feColorMatrix type="matrix" values="0 0 0 0 0 0 0 0 0 0 0 0 0 0 0 0 0 0 0.25 0"/>
<feBlend mode="normal" in2="shape" result="effect1_innerShadow_792_1991"/>
</filter>
</defs>
</svg>
