<svg width="706" height="175" viewBox="0 0 706 175" fill="none" xmlns="http://www.w3.org/2000/svg">
<path d="M470.438 117.701C468.306 119.466 469.799 122.648 472.724 122.648H477.934C495.392 122.675 512.819 122.622 530.278 122.729C556.724 122.916 580.398 120.081 602.548 108.582C646.848 85.5304 661.467 78.7235 681.118 45.697C684.836 37.9418 682.398 26.3893 688.187 24.9987C701.745 21.7094 694.829 44.7076 688.553 54.923C667.103 90.0086 647.153 97.7515 597.856 119.546C577.046 128.746 552.001 129.601 526.926 129.12C508.28 128.746 489.542 129.922 470.895 130.564C460.871 130.912 455.052 134.228 451.213 140.592C447.74 146.235 442.073 151.958 435.035 155.889C430.8 158.269 410.294 168.992 395.822 173.084C387.961 175.303 379.217 174.154 386.926 161.585C393.659 150.647 412.762 136.073 427.448 133.265C442.134 130.457 449.964 124.467 456.301 116.097C457.977 113.904 455.631 111.069 452.736 111.711C450.39 112.246 448.319 112.807 446.369 113.289C417.424 120.509 388.601 126.927 359.687 134.228C347.012 137.437 335.069 139.228 324.405 130.938C322.059 129.12 314.503 128.585 310.39 129.494C298.842 132.062 287.234 135.03 276.845 139.095C256.4 147.091 236.688 155.942 215.421 164.928C204.849 169.34 177.366 176.828 170.085 173.084C161.736 168.778 159.421 159.071 165.636 152.546C171.395 146.476 180.383 140.592 189.097 135.511C196.074 131.473 210.516 124.654 220.54 119.68C223.495 118.209 222.246 114.251 218.833 114.332C169.506 115.588 52.9654 121.124 3.15018 119.466C-0.841131 119.332 -1.14581 114.037 2.8455 113.743C2.87597 113.743 2.90644 113.743 2.9369 113.743C14.5148 113.182 159.055 111.283 203.843 107.379C208.109 107.004 212.405 106.844 216.701 106.924C246.133 107.486 269.197 97.9387 289.885 85.3699C300.488 78.925 330.742 68.9503 338.299 78.3635C346.464 88.5522 321.145 98.9014 310.42 102.458C301.402 105.48 290.829 106.951 280.714 108.234C264.414 110.267 250.124 114.545 237.206 121.178C218.986 130.564 200.461 139.683 182.576 149.337C176.239 152.733 169.323 157.012 174.655 163.27C177.458 166.559 190.955 166.158 199.699 162.441C225.201 151.744 250.703 141.02 275.717 129.895C288.483 124.173 302.499 121.391 317.58 120.99C324.131 120.83 331.778 121.9 337.171 124.119C344.544 127.194 350.943 127.917 358.986 125.964C397.193 116.738 435.705 108.074 473.577 98.3398C487.775 94.6761 523.179 78.9251 528.51 77.6682C529.607 77.4008 530.826 77.3473 532.106 77.4275C536.798 77.6414 538.687 83.2305 534.604 85.2629C534.574 85.2897 534.543 85.2897 534.513 85.3164C525.25 89.8091 515.47 93.9541 505.385 97.698C492.345 102.699 481.133 108.742 470.438 117.701ZM434.486 139.496C427.448 138.482 405.16 151.862 400.377 158.548C394.618 166.597 399.204 165.088 405.115 162.761C416.754 158.215 421.69 154.899 431.287 147.198C433.877 145.138 438.569 140.084 434.486 139.496ZM295.796 97.9654C307.77 95.8528 330.103 88.7661 325.959 85.156C323.552 82.7492 301.31 87.536 293.663 92.4833C286.99 96.762 287.021 99.5164 295.796 97.9654Z" fill="#17C1FB"/>
<circle cx="688.206" cy="141.85" r="8.18179" fill="#212121"/>
<path d="M74.2141 151.435C71.305 151.435 69.1232 150.78 67.6686 149.471C66.2141 148.09 65.4868 146.199 65.4868 143.799C65.4868 141.908 65.9232 140.344 66.7959 139.108C67.6686 137.799 68.8323 137.144 70.2868 137.144C70.2868 138.09 70.7232 139.181 71.5959 140.417C72.4686 141.653 73.8141 142.271 75.6322 142.271C76.6504 142.271 77.5959 142.126 78.4686 141.835C79.414 141.471 80.3231 140.781 81.1958 139.762C82.0686 138.744 82.9413 137.217 83.814 135.181C84.6867 133.071 85.5958 130.308 86.5413 126.89C87.2686 124.053 87.9595 120.962 88.614 117.617C89.2685 114.199 89.814 110.744 90.2504 107.253C90.7595 103.762 91.1594 100.381 91.4504 97.1079C91.7413 93.8352 91.9594 90.8898 92.1049 88.2716C92.3231 85.5807 92.4322 83.4353 92.4322 81.8353C92.4322 80.4535 92.0322 79.4716 91.2322 78.8898C90.4322 78.2353 89.3776 77.8353 88.0686 77.6898C86.7595 77.4717 85.3049 77.3626 83.7049 77.3626H82.0686V72.7808H137.923V77.3626H136.505C134.905 77.3626 133.414 77.5444 132.032 77.908C130.65 78.2717 129.559 78.9989 128.759 80.0898C127.959 81.1807 127.559 82.8898 127.559 85.2171V138.235C127.559 140.49 127.959 142.199 128.759 143.362C129.559 144.453 130.65 145.18 132.032 145.544C133.414 145.908 134.905 146.09 136.505 146.09H137.923V150.671H106.178V146.09H107.596C109.268 146.09 110.759 145.908 112.068 145.544C113.45 145.18 114.541 144.453 115.341 143.362C116.141 142.199 116.541 140.49 116.541 138.235V78.2353H98.7594C98.5412 82.7444 98.214 87.508 97.7776 92.5261C97.3412 97.4716 96.7958 102.417 96.1412 107.362C95.4867 112.308 94.7231 117.035 93.8503 121.544C92.9776 126.053 91.9958 130.126 90.9049 133.762C89.5958 138.199 88.1776 141.726 86.6504 144.344C85.1231 146.89 83.3413 148.708 81.3049 149.799C79.3413 150.89 76.9777 151.435 74.2141 151.435ZM207.648 150.671V145.544H213.648C216.121 145.544 218.484 145.108 220.739 144.235C222.993 143.29 224.993 141.981 226.739 140.308C228.484 138.635 229.757 136.708 230.557 134.526L205.793 83.1444C205.139 81.6898 204.484 80.5626 203.83 79.7626C203.175 78.8898 202.412 78.2717 201.539 77.908C200.666 77.5444 199.503 77.3626 198.048 77.3626H196.63V72.7808H227.175V77.3626H225.43C223.248 77.3626 221.612 77.7989 220.521 78.6717C219.43 79.4716 218.884 80.7807 218.884 82.5989C218.884 83.1807 218.957 83.7989 219.102 84.4534C219.248 85.108 219.466 85.8353 219.757 86.6353L231.757 112.49C232.993 115.035 234.048 117.581 234.921 120.126C235.866 122.671 236.63 125.071 237.211 127.326C237.793 124.999 238.484 122.744 239.284 120.562C240.084 118.381 241.066 115.835 242.23 112.926L252.484 87.3989C252.848 86.5262 253.102 85.6898 253.248 84.8898C253.393 84.0171 253.466 83.2898 253.466 82.708C253.466 80.8171 252.848 79.4716 251.611 78.6717C250.448 77.7989 248.666 77.3626 246.266 77.3626H243.975V72.7808H270.266V77.3626H268.193C266.811 77.3626 265.684 77.6171 264.811 78.1262C263.939 78.5626 263.139 79.3989 262.411 80.6353C261.684 81.7989 260.848 83.5444 259.902 85.8716L241.466 130.708C239.721 134.999 238.084 138.453 236.557 141.071C235.102 143.69 233.466 145.69 231.648 147.071C229.902 148.453 227.757 149.399 225.212 149.908C222.666 150.417 219.466 150.671 215.612 150.671H207.648ZM340.621 150.671V146.09H343.13C344.73 146.09 346.184 145.944 347.493 145.653C348.875 145.29 349.966 144.599 350.766 143.581C351.639 142.49 352.075 140.89 352.075 138.781V78.2353H341.603C339.493 78.2353 337.821 78.6717 336.584 79.5444C335.348 80.3444 334.439 81.4353 333.857 82.8171C333.275 84.1262 332.875 85.5807 332.657 87.1807L332.112 91.8716H326.439L326.984 72.7808H388.402L388.948 91.8716H383.275L382.73 87.1807C382.584 85.5807 382.184 84.1262 381.53 82.8171C380.948 81.4353 380.039 80.3444 378.802 79.5444C377.566 78.6717 375.857 78.2353 373.675 78.2353H363.093V138.235C363.093 140.49 363.493 142.199 364.293 143.362C365.093 144.453 366.184 145.18 367.566 145.544C368.948 145.908 370.439 146.09 372.039 146.09H374.548V150.671H340.621ZM484.047 151.762C476.338 151.762 469.938 150.09 464.848 146.744C459.757 143.399 455.938 138.708 453.393 132.671C450.92 126.635 449.684 119.581 449.684 111.508C449.684 103.435 450.92 96.417 453.393 90.4534C455.938 84.4898 459.757 79.8717 464.848 76.5989C470.011 73.2535 476.447 71.5808 484.157 71.5808C491.502 71.5808 497.684 73.2535 502.702 76.5989C507.793 79.8717 511.647 84.5262 514.266 90.5625C516.956 96.5261 518.302 103.544 518.302 111.617C518.302 119.69 516.956 126.744 514.266 132.781C511.647 138.744 507.793 143.399 502.702 146.744C497.611 150.09 491.393 151.762 484.047 151.762ZM484.047 145.871C488.12 145.871 491.538 145.108 494.302 143.581C497.138 142.053 499.429 139.835 501.175 136.926C502.92 133.944 504.193 130.344 504.993 126.126C505.793 121.835 506.193 116.999 506.193 111.617C506.193 106.235 505.793 101.435 504.993 97.217C504.193 92.9989 502.92 89.4353 501.175 86.5262C499.502 83.5444 497.247 81.2898 494.411 79.7626C491.647 78.2353 488.229 77.4717 484.157 77.4717C480.084 77.4717 476.629 78.2353 473.793 79.7626C470.957 81.2898 468.629 83.5444 466.811 86.5262C465.066 89.4353 463.793 92.9989 462.993 97.217C462.193 101.435 461.793 106.235 461.793 111.617C461.793 116.999 462.193 121.835 462.993 126.126C463.793 130.344 465.066 133.944 466.811 136.926C468.629 139.835 470.957 142.053 473.793 143.581C476.629 145.108 480.047 145.871 484.047 145.871ZM583.231 150.671V146.09H584.649C586.249 146.09 587.704 145.944 589.013 145.653C590.395 145.29 591.486 144.599 592.286 143.581C593.158 142.49 593.595 140.89 593.595 138.781V84.7807C593.595 82.5989 593.158 80.9989 592.286 79.9807C591.486 78.8898 590.395 78.1989 589.013 77.908C587.704 77.5444 586.249 77.3626 584.649 77.3626H583.231V72.7808H614.977V77.3626H613.558C611.958 77.3626 610.467 77.5444 609.086 77.908C607.704 78.2717 606.613 78.9989 605.813 80.0898C605.013 81.1807 604.613 82.8898 604.613 85.2171V108.999C606.94 108.999 608.686 108.89 609.849 108.672C611.013 108.453 611.922 108.09 612.577 107.581C613.231 107.072 613.849 106.453 614.431 105.726C615.377 104.562 616.504 102.635 617.813 99.9443C619.195 97.2534 620.904 93.908 622.94 89.908C624.831 86.2716 626.722 83.1444 628.613 80.5262C630.504 77.8353 632.54 75.7626 634.722 74.308C636.976 72.8535 639.522 72.1262 642.358 72.1262C644.54 72.1262 646.249 72.4535 647.486 73.108C648.795 73.6899 649.74 74.4899 650.322 75.508C650.904 76.5262 651.195 77.6898 651.195 78.9989C651.195 81.0353 650.649 82.708 649.558 84.0171C648.54 85.2534 647.34 86.0171 645.958 86.308C645.667 84.6353 645.013 83.2171 643.995 82.0535C642.976 80.8171 641.486 80.1989 639.522 80.1989C638.14 80.1989 636.758 80.6716 635.376 81.6171C634.067 82.5626 632.758 83.9807 631.449 85.8716C630.14 87.7625 628.722 90.1625 627.195 93.0716C625.667 96.0534 624.358 98.5625 623.267 100.599C622.249 102.635 621.267 104.381 620.322 105.835C619.449 107.217 618.431 108.417 617.267 109.435C619.886 109.508 621.995 109.944 623.595 110.744C625.195 111.472 626.54 112.526 627.631 113.908C628.795 115.217 629.922 116.89 631.013 118.926L641.267 137.362C642.431 139.399 643.631 141.071 644.867 142.381C646.104 143.617 647.449 144.562 648.904 145.217C650.358 145.799 651.885 146.09 653.485 146.09H653.813V150.671H652.285C647.631 150.671 643.958 150.417 641.267 149.908C638.649 149.326 636.54 148.308 634.94 146.853C633.413 145.399 631.922 143.253 630.467 140.417L620.54 121.435C619.667 119.762 618.795 118.453 617.922 117.508C617.122 116.49 616.177 115.762 615.086 115.326C613.995 114.817 612.613 114.49 610.94 114.344C609.267 114.126 607.158 114.017 604.613 114.017V138.235C604.613 140.49 605.013 142.199 605.813 143.362C606.613 144.453 607.704 145.18 609.086 145.544C610.467 145.908 611.958 146.09 613.558 146.09H614.977V150.671H583.231Z" fill="#212121"/>
<path d="M127.735 50.2598L133.064 66.6604H150.309L136.358 76.7965L141.686 93.1971L127.735 83.061L113.784 93.1971L119.113 76.7965L105.162 66.6604H122.406L127.735 50.2598Z" fill="#FFCD29"/>
<path d="M470.703 64.4691L469.046 81.634L484.859 88.5137L468.022 92.2424L466.366 109.407L457.617 94.547L440.78 98.2757L452.209 85.3627L443.46 70.5024L459.273 77.3821L470.703 64.4691Z" fill="#FFCD29"/>
<path d="M268.543 106.073L282.89 122.453L302.901 113.87L291.757 132.576L306.103 148.955L284.869 144.137L273.724 162.843L271.745 141.159L250.511 136.34L270.522 127.757L268.543 106.073Z" fill="#FFCD29"/>
<path d="M673.334 19.1482L680.801 27.6727L691.216 23.2058L685.416 32.9412L692.882 41.4657L681.831 38.9579L676.031 48.6933L675.001 37.4081L663.95 34.9003L674.364 30.4334L673.334 19.1482Z" fill="#FFCD29"/>
<path d="M639.565 123.272L642.265 136.925L656.084 138.576L643.934 145.363L646.634 159.016L636.424 149.558L624.274 156.345L630.115 143.712L619.905 134.254L633.724 135.905L639.565 123.272Z" fill="#FFCD29"/>
</svg>
