<svg width="24" height="24" viewBox="0 0 24 24" fill="none" xmlns="http://www.w3.org/2000/svg">
<path d="M12 1.25C6.07 1.25 1.25 6.07 1.25 12C1.25 17.93 6.07 22.75 12 22.75C17.93 22.75 22.75 17.93 22.75 12C22.75 6.07 17.93 1.25 12 1.25ZM12 21.25C6.9 21.25 2.75 17.1 2.75 12C2.75 6.9 6.9 2.75 12 2.75C17.1 2.75 21.25 6.9 21.25 12C21.25 17.1 17.1 21.25 12 21.25Z" fill="#212121"/>
<path d="M9.49756 12.748L15.4976 12.748C15.9076 12.748 16.2476 12.408 16.2476 11.998C16.2476 11.588 15.9076 11.248 15.4976 11.248L9.49756 11.248C9.08756 11.248 8.74756 11.588 8.74756 11.998C8.74756 12.408 9.08756 12.748 9.49756 12.748Z" fill="#212121"/>
<path d="M11.4976 15.7475C11.6876 15.7475 11.8776 15.6775 12.0276 15.5275C12.3176 15.2375 12.3176 14.7575 12.0276 14.4675L9.55762 11.9975L12.0276 9.5275C12.3176 9.2375 12.3176 8.7575 12.0276 8.4675C11.7376 8.1775 11.2576 8.1775 10.9676 8.4675L7.96762 11.4675C7.67762 11.7575 7.67762 12.2375 7.96762 12.5275L10.9676 15.5275C11.1176 15.6775 11.3076 15.7475 11.4976 15.7475Z" fill="#212121"/>
</svg>
