<svg width="24" height="24" viewBox="0 0 24 24" fill="none" xmlns="http://www.w3.org/2000/svg">
<path d="M1.25 12C1.25 17.93 6.07 22.75 12 22.75C17.93 22.75 22.75 17.93 22.75 12C22.75 6.07 17.93 1.25 12 1.25C6.07 1.25 1.25 6.07 1.25 12ZM21.25 12C21.25 17.1 17.1 21.25 12 21.25C6.9 21.25 2.75 17.1 2.75 12C2.75 6.9 6.9 2.75 12 2.75C17.1 2.75 21.25 6.9 21.25 12Z" fill="#212121"/>
<path d="M12.7476 14.502L12.7476 8.50195C12.7476 8.09195 12.4076 7.75195 11.9976 7.75195C11.5876 7.75195 11.2476 8.09195 11.2476 8.50195L11.2476 14.502C11.2476 14.912 11.5876 15.252 11.9976 15.252C12.4076 15.252 12.7476 14.912 12.7476 14.502Z" fill="#212121"/>
<path d="M15.7475 12.5034C15.7475 12.3134 15.6775 12.1234 15.5275 11.9734C15.2375 11.6834 14.7575 11.6834 14.4675 11.9734L11.9975 14.4434L9.5275 11.9734C9.2375 11.6834 8.7575 11.6834 8.4675 11.9734C8.1775 12.2634 8.1775 12.7434 8.4675 13.0334L11.4675 16.0334C11.7575 16.3234 12.2375 16.3234 12.5275 16.0334L15.5275 13.0334C15.6775 12.8834 15.7475 12.6934 15.7475 12.5034Z" fill="#212121"/>
</svg>
