<svg width="750" height="230" viewBox="0 0 750 230" fill="none" xmlns="http://www.w3.org/2000/svg">
<g clip-path="url(#clip0_1211_65498)">
<path d="M601.838 147.473V142.441H602.197C603.874 142.441 605.432 142.281 606.869 141.962C608.387 141.562 609.625 140.764 610.583 139.566C611.542 138.368 612.021 136.531 612.021 134.055V96.6778C612.021 94.2019 611.542 92.4049 610.583 91.2868C609.705 90.0888 608.507 89.2901 606.989 88.8908C605.472 88.4915 603.874 88.2918 602.197 88.2918H601.838V83.2603H631.788V88.2918H631.428C629.831 88.2918 628.393 88.4915 627.116 88.8908C625.918 89.2901 624.959 90.0888 624.24 91.2868C623.601 92.4848 623.282 94.2818 623.282 96.6778V111.533H631.069L639.694 101.35C642.011 98.6345 643.488 96.558 644.127 95.1204C644.846 93.6828 645.205 92.4049 645.205 91.2868C645.205 90.1687 644.806 89.4099 644.007 89.0106C643.209 88.5314 641.931 88.2918 640.174 88.2918V83.2603H665.571V88.2918C663.654 88.2918 661.817 88.7311 660.06 89.6096C658.303 90.4083 656.546 91.6462 654.789 93.3234C653.032 94.9207 651.075 96.9573 648.919 99.4331L637.059 113.33L638.017 108.059L654.909 132.617C656.267 134.614 657.584 136.371 658.862 137.889C660.14 139.326 661.498 140.444 662.935 141.243C664.373 142.042 665.93 142.441 667.608 142.441H667.967V147.473H666.29C662.935 147.473 660.14 147.353 657.904 147.113C655.747 146.794 653.871 146.235 652.273 145.436C650.756 144.637 649.318 143.479 647.961 141.962C646.603 140.444 645.085 138.408 643.408 135.852L631.069 117.523H623.282V134.055C623.282 136.451 623.641 138.248 624.36 139.446C625.079 140.644 626.037 141.443 627.235 141.842C628.513 142.241 629.911 142.441 631.428 142.441H631.788V147.473H601.838Z" fill="#212121"/>
<path d="M502.509 148.671C496.2 148.671 490.849 147.433 486.456 144.957C482.143 142.401 478.869 138.648 476.633 133.696C474.396 128.744 473.278 122.595 473.278 115.247C473.278 107.899 474.476 101.789 476.872 96.9176C479.268 91.9659 482.663 88.2521 487.055 85.7763C491.448 83.3004 496.599 82.0625 502.509 82.0625C508.819 82.0625 514.13 83.3004 518.443 85.7763C522.835 88.2521 526.15 91.9659 528.386 96.9176C530.622 101.789 531.74 107.899 531.74 115.247C531.74 122.595 530.542 128.744 528.146 133.696C525.75 138.648 522.356 142.401 517.963 144.957C513.651 147.433 508.499 148.671 502.509 148.671ZM502.509 142.92C506.662 142.92 509.977 141.882 512.453 139.806C514.928 137.649 516.725 134.495 517.844 130.342C518.962 126.188 519.521 121.157 519.521 115.247C519.521 109.257 518.962 104.225 517.844 100.152C516.725 96.079 514.928 93.0041 512.453 90.9276C509.977 88.8511 506.662 87.8129 502.509 87.8129C498.436 87.8129 495.122 88.8511 492.566 90.9276C490.09 93.0041 488.293 96.079 487.175 100.152C486.057 104.225 485.498 109.257 485.498 115.247C485.498 121.157 486.057 126.188 487.175 130.342C488.293 134.495 490.09 137.649 492.566 139.806C495.122 141.882 498.436 142.92 502.509 142.92Z" fill="#212121"/>
<path d="M359.796 147.473V142.441H360.754C362.511 142.441 364.109 142.241 365.546 141.842C367.064 141.443 368.262 140.644 369.14 139.446C370.099 138.168 370.578 136.291 370.578 133.815V89.2502H362.312C360.475 89.2502 359.037 89.5697 357.999 90.2086C356.961 90.8475 356.122 91.9257 355.483 93.4432C354.924 94.8808 354.405 96.9573 353.926 99.6727L353.087 104.345H347.457L348.175 83.2603H404.241L404.96 104.345H399.33L398.491 99.6727C398.012 96.9573 397.453 94.8808 396.814 93.4432C396.255 91.9257 395.456 90.8475 394.418 90.2086C393.38 89.5697 391.942 89.2502 390.105 89.2502H381.839V133.815C381.839 136.291 382.278 138.168 383.157 139.446C384.115 140.644 385.313 141.443 386.751 141.842C388.268 142.241 389.905 142.441 391.662 142.441H392.621V147.473H359.796Z" fill="#212121"/>
<path d="M233.371 177.422C231.294 177.422 229.577 177.063 228.219 176.344C226.941 175.625 225.983 174.587 225.344 173.229C224.785 171.952 224.506 170.394 224.506 168.557C224.506 168.158 224.506 167.759 224.506 167.359C224.506 167.04 224.545 166.72 224.625 166.401C225.823 166.64 226.941 166.8 227.98 166.88C229.018 167.04 230.016 167.12 230.975 167.12C234.728 167.12 237.843 166.041 240.319 163.885C242.795 161.729 245.151 158.055 247.387 152.864L251.341 143.879L249.184 150.348L225.584 94.6412C224.545 92.1653 223.467 90.4881 222.349 89.6096C221.231 88.7311 219.514 88.2918 217.198 88.2918H216.838V83.2603H245.59V88.2918H245.231C242.835 88.2918 241.038 88.771 239.84 89.7294C238.722 90.6079 238.163 92.0455 238.163 94.0422C238.163 94.6811 238.242 95.36 238.402 96.0788C238.562 96.7976 238.802 97.5962 239.121 98.4747L247.866 119.799C248.585 121.476 249.344 123.353 250.143 125.43C250.941 127.426 251.74 129.543 252.539 131.779C253.417 134.015 254.256 136.331 255.054 138.727H252.658C253.537 136.331 254.296 134.215 254.934 132.378C255.653 130.541 256.292 128.824 256.851 127.227C257.49 125.629 258.049 124.112 258.528 122.674L267.034 99.3133C267.434 98.3549 267.713 97.4365 267.873 96.558C268.033 95.5996 268.112 94.8009 268.112 94.162C268.112 92.0855 267.434 90.6079 266.076 89.7294C264.798 88.771 262.841 88.2918 260.206 88.2918H259.846V83.2603H284.525V88.2918H284.165C282.648 88.2918 281.37 88.5314 280.332 89.0106C279.373 89.4898 278.495 90.4083 277.696 91.766C276.898 93.1237 276.019 95.0804 275.061 97.6361L255.054 151.546C252.658 157.935 250.382 163.007 248.226 166.76C246.149 170.594 243.953 173.309 241.637 174.907C239.321 176.584 236.565 177.422 233.371 177.422Z" fill="#212121"/>
<path d="M91.4948 148.671C88.5398 148.671 86.4632 147.872 85.2652 146.275C84.0673 144.677 83.4683 142.721 83.4683 140.404C83.4683 139.925 83.4683 139.446 83.4683 138.967C83.5481 138.408 83.628 137.969 83.7079 137.649C84.4267 137.729 85.1055 137.809 85.7444 137.889C86.4632 137.969 87.1421 138.008 87.781 138.008C90.8958 138.008 93.4915 137.13 95.568 135.373C97.6445 133.616 99.3217 130.461 100.6 125.909C101.957 121.276 102.916 114.648 103.475 106.022C103.555 105.144 103.595 104.265 103.595 103.386C103.674 102.508 103.714 101.669 103.714 100.871C103.794 99.9922 103.834 99.1137 103.834 98.2351C103.914 97.3566 103.954 96.4781 103.954 95.5996C103.954 92.8042 103.355 90.8875 102.157 89.8492C100.959 88.8109 99.0821 88.2918 96.5264 88.2918H93.5314V83.2603H151.514V88.2918H151.155C149.398 88.2918 147.76 88.4915 146.243 88.8908C144.805 89.2901 143.607 90.0888 142.649 91.2868C141.77 92.4848 141.331 94.3616 141.331 96.9174V133.815C141.331 136.291 141.77 138.168 142.649 139.446C143.607 140.644 144.805 141.443 146.243 141.842C147.76 142.241 149.398 142.441 151.155 142.441H151.514V147.473H120.965V142.441H121.325C123.002 142.441 124.479 142.241 125.757 141.842C127.115 141.443 128.153 140.644 128.872 139.446C129.671 138.168 130.07 136.291 130.07 133.815V89.2502H111.022L110.064 107.22C109.345 120.957 107.428 131.3 104.313 138.248C101.199 145.196 96.9257 148.671 91.4948 148.671Z" fill="#212121"/>
<path fill-rule="evenodd" clip-rule="evenodd" d="M288.533 154.012C274.392 158.86 268.248 158.493 253.796 159.242C253.796 162.947 252.831 166.281 252.038 169.232C248.604 182.018 237.386 191.012 224.519 198.932C210.232 207.692 196.083 216.585 177.996 221.418C169.524 223.666 161.338 223.309 154.505 220.545C144.566 216.524 143.272 207.669 152.02 197.889C160.768 188.109 174.859 180.435 192.284 171.097C231.755 146.833 273.606 126.175 316.191 104.865C326.448 99.73 345.821 89.1341 345.821 85.3328C345.821 84.0426 336.476 86.1718 332.401 86.8094C286.885 93.7898 266.162 96.7367 221.537 104.708C183.302 109.876 179.307 111.049 157.596 113.097C133.052 115.413 108.325 116.654 83.6445 118.03C77.3254 118.366 73.2958 119.373 71.51 124.373C69.6326 129.575 71.51 138.486 63.222 140.683C53.2311 143.332 20.2511 148.889 13.9516 138.737C9.70405 131.89 29.9782 108.567 54.3386 108.902C73.5706 109.137 92.9399 110.479 111.943 109.171L114.119 109.021L114.119 109.021C158.18 105.983 227.652 94.7195 235.613 93.7417C282.934 87.9306 297.31 85.3328 347.42 79.225C354.655 78.1846 367.123 75.2664 368.575 77.0435C372.604 81.9768 368.758 83.5877 365.507 85.3328C339.864 99.0923 314.084 112.751 288.533 126.578C276.536 133.088 264.906 139.968 252.542 146.982C261.962 151.168 267.973 150.607 275.208 149.164C293.524 145.506 309.505 138.324 325.257 131.008C368.438 111.04 411.48 90.9372 454.157 70.4322C483.417 56.4043 510.957 42.7698 542.598 31.93C552.672 28.4733 571.649 22.8446 594.711 17.8535C633.383 9.48373 665.883 10.849 694.144 13.0616C722.405 15.2742 736.074 24.742 739.069 29.8335C739.675 30.8649 738.878 35.833 735.175 34.326C731.445 32.8077 724.41 28.1724 716.314 25.7707C700.182 20.985 685.363 20.0172 673.778 19.9501C654.61 19.9501 640.234 20.6408 622.299 22.8446C597.107 25.94 575.272 31.1675 553.247 38.6513C528.566 47.0412 504.664 56.2365 481.448 67.0763C451.776 80.9364 426.161 95.2231 396.443 109.016C373.823 119.487 337.063 132.654 323.884 139.196C310.705 145.738 302.675 149.164 288.533 154.012ZM177.034 211.819C171.31 213.565 159.636 216.724 159.221 210.108C158.942 205.639 174.79 194.335 183.674 187.992C196.312 178.965 210.095 170.776 223.511 162.352C226.121 160.708 229.235 159.231 232.486 158.493C240.179 156.748 244.895 159.835 242.56 165.406C240.362 170.675 237.41 176.631 233.265 180.475C217.643 194.959 199.334 204.906 177.034 211.819ZM45.6843 131.622C40.281 132.797 26.9215 133.7 23.6134 131.89C24.3276 127.402 28.4038 123.11 34.3327 121.104C40.8807 118.89 47.3785 118.165 54.5676 117.997C59.0551 117.896 60.9325 122.192 58.1851 124.742C55.0256 127.662 50.4465 130.582 45.6843 131.622Z" fill="#91BC73"/>
<path d="M601.838 147.472V142.44H602.197C603.874 142.44 605.432 142.28 606.869 141.961C608.387 141.561 609.625 140.763 610.583 139.565C611.542 138.367 612.021 136.53 612.021 134.054V96.6768C612.021 94.2009 611.542 92.4039 610.583 91.2858C609.705 90.0878 608.507 89.2892 606.989 88.8898C605.472 88.4905 603.874 88.2908 602.197 88.2908H601.838V83.2593H631.788V88.2908H631.428C629.831 88.2908 628.393 88.4905 627.116 88.8898C625.918 89.2892 624.959 90.0878 624.24 91.2858C623.601 92.4838 623.282 94.2808 623.282 96.6768V111.532H631.069L639.694 101.349C642.011 98.6335 643.488 96.557 644.127 95.1194C644.846 93.6818 645.205 92.4039 645.205 91.2858C645.205 90.1677 644.806 89.409 644.007 89.0096C643.209 88.5304 641.931 88.2908 640.174 88.2908V83.2593H665.571V88.2908C663.654 88.2908 661.817 88.7301 660.06 89.6086C658.303 90.4073 656.546 91.6452 654.789 93.3224C653.032 94.9197 651.075 96.9563 648.919 99.4322L637.059 113.329L638.017 108.058L654.909 132.616C656.267 134.613 657.584 136.37 658.862 137.888C660.14 139.325 661.498 140.443 662.935 141.242C664.373 142.041 665.93 142.44 667.608 142.44H667.967V147.472H666.29C662.935 147.472 660.14 147.352 657.904 147.112C655.747 146.793 653.871 146.234 652.273 145.435C650.756 144.636 649.318 143.478 647.961 141.961C646.603 140.443 645.085 138.407 643.408 135.851L631.069 117.522H623.282V134.054C623.282 136.45 623.641 138.247 624.36 139.445C625.079 140.643 626.037 141.442 627.235 141.841C628.513 142.24 629.911 142.44 631.428 142.44H631.788V147.472H601.838Z" fill="#212121"/>
<path d="M502.51 148.67C496.2 148.67 490.849 147.432 486.457 144.956C482.144 142.4 478.869 138.647 476.633 133.695C474.397 128.743 473.279 122.594 473.279 115.246C473.279 107.898 474.477 101.788 476.873 96.9166C479.269 91.9649 482.663 88.2511 487.056 85.7753C491.448 83.2994 496.6 82.0615 502.51 82.0615C508.819 82.0615 514.13 83.2994 518.443 85.7753C522.836 88.2511 526.15 91.9649 528.386 96.9166C530.623 101.788 531.741 107.898 531.741 115.246C531.741 122.594 530.543 128.743 528.147 133.695C525.751 138.647 522.356 142.4 517.964 144.956C513.651 147.432 508.5 148.67 502.51 148.67ZM502.51 142.919C506.663 142.919 509.977 141.881 512.453 139.805C514.929 137.648 516.726 134.494 517.844 130.341C518.962 126.188 519.521 121.156 519.521 115.246C519.521 109.256 518.962 104.224 517.844 100.151C516.726 96.078 514.929 93.0032 512.453 90.9266C509.977 88.8501 506.663 87.8119 502.51 87.8119C498.437 87.8119 495.122 88.8501 492.566 90.9266C490.091 93.0032 488.294 96.078 487.176 100.151C486.057 104.224 485.498 109.256 485.498 115.246C485.498 121.156 486.057 126.188 487.176 130.341C488.294 134.494 490.091 137.648 492.566 139.805C495.122 141.881 498.437 142.919 502.51 142.919Z" fill="#212121"/>
<path fill-rule="evenodd" clip-rule="evenodd" d="M359.796 142.44V147.472H392.621V142.44H391.663C389.906 142.44 388.269 142.24 386.751 141.841C385.314 141.442 384.116 140.643 383.157 139.445C382.279 138.167 381.839 136.29 381.839 133.814V89.2492H390.106C391.942 89.2492 393.38 89.5687 394.418 90.2076C394.911 90.511 395.35 90.9134 395.735 91.4148L404.398 87.8511L404.242 83.2593H348.176L347.457 104.344H353.088L353.926 99.6718C354.405 96.9563 354.925 94.8798 355.484 93.4422C356.122 91.9247 356.961 90.8466 357.999 90.2076C359.038 89.5687 360.475 89.2492 362.312 89.2492H370.578V133.814C370.578 136.29 370.099 138.167 369.141 139.445C368.262 140.643 367.064 141.442 365.547 141.841C364.109 142.24 362.512 142.44 360.755 142.44H359.796Z" fill="#212121"/>
<path fill-rule="evenodd" clip-rule="evenodd" d="M233.371 177.421C231.294 177.421 229.577 177.062 228.219 176.343C226.941 175.624 225.983 174.586 225.344 173.228C224.785 171.951 224.506 170.393 224.506 168.556V167.358C224.506 167.039 224.545 166.719 224.625 166.4C225.823 166.639 226.941 166.799 227.98 166.879C229.018 167.039 230.016 167.119 230.975 167.119C234.728 167.119 237.843 166.04 240.319 163.884C242.795 161.728 245.151 158.054 247.387 152.863L248.846 149.548L229.501 103.886L240.319 101.395L247.866 119.798C248.585 121.475 249.344 123.352 250.143 125.429C250.941 127.425 251.74 129.542 252.539 131.778C252.998 132.947 253.446 134.137 253.883 135.35C254.264 134.289 254.614 133.298 254.934 132.377C255.653 130.54 256.292 128.823 256.851 127.226C257.49 125.628 258.049 124.111 258.528 122.673L267.034 99.3124C267.273 98.739 267.469 98.1799 267.622 97.6352L275.665 96.0778C275.467 96.5695 275.266 97.0886 275.061 97.6352L255.054 151.545C252.658 157.934 250.382 163.006 248.226 166.759C246.149 170.593 243.953 173.308 241.637 174.906C239.321 176.583 236.565 177.421 233.371 177.421ZM284.525 85.7751V83.2593H259.846V88.2908H260.206C261.616 88.2908 262.833 88.4282 263.855 88.7028L284.525 85.7751ZM222.349 89.6086C223.085 90.187 223.804 91.1115 224.506 92.3822L238.476 91.765C238.751 90.906 239.205 90.2271 239.84 89.7284C241.038 88.77 242.835 88.2908 245.231 88.2908H245.59V83.2593H216.838V88.2908H217.198C219.514 88.2908 221.231 88.7301 222.349 89.6086Z" fill="#212121"/>
<path d="M91.4948 148.67C88.5398 148.67 86.4632 147.871 85.2652 146.274C84.0673 144.676 83.4683 142.72 83.4683 140.403C83.4683 139.924 83.4683 139.445 83.4683 138.966C83.5481 138.407 83.628 137.968 83.7079 137.648C84.4267 137.728 85.1055 137.808 85.7444 137.888C86.4632 137.968 87.1421 138.007 87.781 138.007C90.8958 138.007 93.4915 137.129 95.568 135.372C97.6445 133.615 99.3217 130.46 100.6 125.908C101.957 121.276 102.916 114.647 103.475 106.021C103.555 105.143 103.595 104.264 103.595 103.386C103.674 102.507 103.714 101.668 103.714 100.87C103.794 99.9912 103.834 99.1127 103.834 98.2342C103.914 97.3556 103.954 96.4771 103.954 95.5986C103.954 92.8033 103.355 90.8865 102.157 89.8482C100.959 88.81 99.0821 88.2908 96.5264 88.2908H93.5314V83.2593H151.514V88.2908H151.155C149.398 88.2908 147.76 88.4905 146.243 88.8898C144.805 89.2892 143.607 90.0878 142.649 91.2858C141.77 92.4838 141.331 94.3607 141.331 96.9164V133.814C141.331 136.29 141.77 138.167 142.649 139.445C143.607 140.643 144.805 141.442 146.243 141.841C147.76 142.24 149.398 142.44 151.155 142.44H151.514V147.472H120.965V142.44H121.325C123.002 142.44 124.479 142.24 125.757 141.841C127.115 141.442 128.153 140.643 128.872 139.445C129.671 138.167 130.07 136.29 130.07 133.814V89.2492H111.022L110.064 107.219C109.345 120.956 107.428 131.299 104.313 138.247C101.199 145.195 96.9257 148.67 91.4948 148.67Z" fill="#212121"/>
<path d="M578.741 -28.8758L585.859 -20.8691L595.786 -25.0647L590.258 -15.9206L597.375 -7.91392L586.84 -10.2693L581.312 -1.12532L580.33 -11.7251L569.795 -14.0805L579.723 -18.2761L578.741 -28.8758Z" fill="#FFCD29"/>
<path d="M231.692 95.582C244.339 103.666 264.85 126.054 245.724 150.936" stroke="#41721E" stroke-width="6.12265" stroke-linecap="round"/>
<path d="M227.052 83.7976C226.18 87.3626 230.894 96.4514 230.894 96.4514C230.894 96.4514 239.291 90.4813 240.163 86.9164C241.034 83.3514 238.806 79.7633 235.186 78.902C231.565 78.0408 227.924 80.2326 227.052 83.7976Z" fill="#41721E"/>
<path d="M238.802 94.9089C237.931 98.4739 242.645 107.563 242.645 107.563C242.645 107.563 251.041 101.593 251.913 98.0277C252.785 94.4627 250.557 90.8746 246.936 90.0134C243.316 89.1521 239.674 91.3439 238.802 94.9089Z" fill="#41721E"/>
<path d="M248.862 108.609C247.99 112.174 252.704 121.262 252.704 121.262C252.704 121.262 261.1 115.292 261.972 111.727C262.844 108.162 260.616 104.574 256.995 103.713C253.375 102.852 249.733 105.044 248.862 108.609Z" fill="#41721E"/>
<path d="M258.942 130.332C255.859 132.386 253.126 142.229 253.126 142.229C253.126 142.229 263.416 143.393 266.499 141.339C269.581 139.285 270.389 135.156 268.302 132.116C266.215 129.077 262.024 128.278 258.942 130.332Z" fill="#41721E"/>
<path d="M220.422 90.9595C223.994 89.9296 233.434 94.1309 233.434 94.1309C233.434 94.1309 227.787 102.683 224.215 103.712C220.643 104.742 216.898 102.722 215.851 99.2007C214.804 95.6791 216.85 91.9894 220.422 90.9595Z" fill="#41721E"/>
<path d="M232.171 102.072C235.743 101.042 245.183 105.244 245.183 105.244C245.183 105.244 239.536 113.795 235.964 114.825C232.392 115.855 228.647 113.835 227.6 110.314C226.553 106.792 228.599 103.102 232.171 102.072Z" fill="#41721E"/>
<path d="M242.231 115.773C245.803 114.743 255.243 118.944 255.243 118.944C255.243 118.944 249.596 127.496 246.024 128.526C242.452 129.556 238.708 127.536 237.66 124.014C236.613 120.493 238.659 116.803 242.231 115.773Z" fill="#41721E"/>
<path d="M245.81 132.222C249.501 132.705 256.414 140.307 256.414 140.307C256.414 140.307 247.735 145.868 244.043 145.385C240.352 144.902 237.755 141.564 238.243 137.929C238.73 134.294 242.118 131.739 245.81 132.222Z" fill="#41721E"/>
<path d="M238.799 147.763C241.727 145.499 252.074 145.945 252.074 145.945C252.074 145.945 250.054 155.953 247.126 158.217C244.198 160.48 239.961 159.975 237.661 157.089C235.362 154.202 235.871 150.027 238.799 147.763Z" fill="#41721E"/>
<path d="M251.129 153.58C249.078 150.517 250.371 140.393 250.371 140.393C250.371 140.393 260.327 143.206 262.377 146.269C264.428 149.332 263.573 153.451 260.466 155.47C257.36 157.488 253.179 156.642 251.129 153.58Z" fill="#41721E"/>
<path d="M225.497 80.7339C228.331 83.1143 229.946 93.1943 229.946 93.1943C229.946 93.1943 219.59 93.2192 216.756 90.8389C213.922 88.4585 213.581 84.2667 215.995 81.4763C218.409 78.6859 222.663 78.3536 225.497 80.7339Z" fill="#41721E"/>
<path d="M443.412 95.0713C456.074 91.108 482.004 89.7413 484.433 115.982" stroke="#41721E" stroke-width="5.62669" stroke-linecap="round"/>
<path d="M432.486 90.6751C434.352 93.4976 443.488 96.1221 443.488 96.1221C443.488 96.1221 444.739 86.8241 442.873 84.0016C441.007 81.1792 437.168 80.385 434.3 82.2279C431.431 84.0707 430.619 87.8527 432.486 90.6751Z" fill="#41721E"/>
<path d="M447.435 89.9471C449.302 92.7696 458.437 95.394 458.437 95.394C458.437 95.394 459.689 86.096 457.823 83.2736C455.956 80.4511 452.118 79.657 449.25 81.4998C446.381 83.3427 445.569 87.1247 447.435 89.9471Z" fill="#41721E"/>
<path d="M463.072 91.9647C464.939 94.7871 474.075 97.4116 474.075 97.4116C474.075 97.4116 475.326 88.1136 473.46 85.2912C471.594 82.4687 467.755 81.6746 464.887 83.5174C462.018 85.3603 461.206 89.1422 463.072 91.9647Z" fill="#41721E"/>
<path d="M433.169 99.5621C434.725 96.5575 443.525 92.9807 443.525 92.9807C443.525 92.9807 445.753 102.096 444.196 105.1C442.64 108.105 438.91 109.301 435.865 107.771C432.82 106.242 431.612 102.567 433.169 99.5621Z" fill="#41721E"/>
<path d="M448.118 98.8341C449.674 95.8295 458.475 92.2527 458.475 92.2527C458.475 92.2527 460.702 101.368 459.146 104.372C457.59 107.377 453.86 108.573 450.815 107.043C447.769 105.514 446.562 101.839 448.118 98.8341Z" fill="#41721E"/>
<path d="M463.756 100.853C465.312 97.8481 474.113 94.2713 474.113 94.2713C474.113 94.2713 476.34 103.386 474.784 106.391C473.228 109.395 469.498 110.591 466.452 109.062C463.407 107.533 462.2 103.857 463.756 100.853Z" fill="#41721E"/>
<path d="M429.432 89.7689C432.835 89.4018 440.688 94.6886 440.688 94.6886C440.688 94.6886 434.167 101.526 430.764 101.893C427.361 102.26 424.304 99.8435 423.936 96.4955C423.569 93.1476 426.029 90.1359 429.432 89.7689Z" fill="#41721E"/>
<path d="M516.114 78.2954C500.85 84.1152 474.141 103.818 488.643 134.525" stroke="#41721E" stroke-width="6.65824" stroke-linecap="square"/>
<path d="M523.788 66.8313C523.887 70.8102 516.738 79.4314 516.738 79.4314C516.738 79.4314 509.174 71.245 509.075 67.266C508.977 63.2871 512.191 59.9642 516.254 59.8442C520.317 59.7241 523.69 62.8524 523.788 66.8313Z" fill="#41721E"/>
<path d="M508.738 76.0339C508.837 80.0129 501.688 88.634 501.688 88.634C501.688 88.634 494.124 80.4476 494.026 76.4687C493.927 72.4897 497.141 69.1668 501.204 69.0468C505.267 68.9268 508.64 72.055 508.738 76.0339Z" fill="#41721E"/>
<path d="M494.893 88.3645C494.992 92.3434 487.843 100.965 487.843 100.965C487.843 100.965 480.279 92.7782 480.18 88.7992C480.082 84.8203 483.296 81.4974 487.359 81.3774C491.422 81.2573 494.795 84.3856 494.893 88.3645Z" fill="#41721E"/>
<path d="M480.032 111.172C483.545 113.134 487.327 123.578 487.327 123.578C487.327 123.578 476.269 125.733 472.756 123.771C469.243 121.808 468.024 117.397 470.033 113.918C472.042 110.439 476.518 109.21 480.032 111.172Z" fill="#41721E"/>
<path d="M529.176 75.9234C525.619 74.0386 514.612 76.4346 514.612 76.4346C514.612 76.4346 518.628 86.7926 522.184 88.6775C525.74 90.5623 530.189 89.2352 532.119 85.7133C534.05 82.1914 532.732 77.8083 529.176 75.9234Z" fill="#41721E"/>
<path d="M514.127 85.1246C510.57 83.2397 499.563 85.6358 499.563 85.6358C499.563 85.6358 503.579 95.9938 507.135 97.8786C510.692 99.7635 515.14 98.4364 517.071 94.9145C519.001 91.3926 517.683 87.0095 514.127 85.1246Z" fill="#41721E"/>
<path d="M500.282 97.4566C496.726 95.5718 485.718 97.9678 485.718 97.9678C485.718 97.9678 489.734 108.326 493.29 110.211C496.847 112.096 501.295 110.768 503.226 107.247C505.157 103.725 503.839 99.3415 500.282 97.4566Z" fill="#41721E"/>
<path d="M493.228 113.333C489.2 113.034 480.103 119.629 480.103 119.629C480.103 119.629 488.02 127.488 492.047 127.787C496.075 128.086 499.605 125.093 499.93 121.101C500.256 117.11 497.255 113.632 493.228 113.333Z" fill="#41721E"/>
<path d="M499.428 134.487C496.199 132.099 484.957 132.846 484.957 132.846C484.957 132.846 487.357 143.684 490.587 146.072C493.816 148.461 498.414 147.804 500.855 144.605C503.297 141.406 502.658 136.876 499.428 134.487Z" fill="#41721E"/>
<path d="M526.133 63.9472C522.566 65.8548 518.505 76.2156 518.505 76.2156C518.505 76.2156 529.512 78.5183 533.079 76.6107C536.646 74.7031 537.983 70.3219 536.065 66.825C534.146 63.3281 529.7 62.0397 526.133 63.9472Z" fill="#41721E"/>
<path d="M659.13 71.5737C654.385 83.9199 641.653 91.2602 642.446 115.446" stroke="#41721E" stroke-width="5.4477" stroke-linecap="round"/>
<path d="M668.766 65.4467C665.448 65.3482 658.293 71.0246 658.293 71.0246C658.293 71.0246 665.155 77.1169 668.474 77.2153C671.792 77.3137 674.547 74.7591 674.628 71.5092C674.709 68.2594 672.084 65.5451 668.766 65.4467Z" fill="#41721E"/>
<path d="M661.123 77.5765C657.805 77.4781 650.651 83.1545 650.651 83.1545C650.651 83.1545 657.513 89.2467 660.831 89.3452C664.149 89.4436 666.905 86.8889 666.986 83.6391C667.066 80.3893 664.442 77.675 661.123 77.5765Z" fill="#41721E"/>
<path d="M653.818 89.7323C650.499 89.6339 643.345 95.3103 643.345 95.3103C643.345 95.3103 650.207 101.403 653.525 101.501C656.844 101.599 659.599 99.0447 659.68 95.7949C659.761 92.5451 657.136 89.8307 653.818 89.7323Z" fill="#41721E"/>
<path d="M647.542 105.94C644.387 106.909 639.534 114.612 639.534 114.612C639.534 114.612 648.005 118.222 651.16 117.253C654.314 116.284 656.062 112.966 655.063 109.842C654.064 106.718 650.696 104.971 647.542 105.94Z" fill="#41721E"/>
<path d="M661.204 61.065C662.782 63.944 660.85 72.8135 660.85 72.8135C660.85 72.8135 652.254 69.5219 650.676 66.643C649.098 63.764 650.176 60.1815 653.083 58.6412C655.99 57.1009 659.626 58.1861 661.204 61.065Z" fill="#41721E"/>
<path d="M645.849 84.5875C647.427 87.4664 645.496 96.336 645.496 96.336C645.496 96.336 636.899 93.0444 635.322 90.1654C633.744 87.2865 634.822 83.704 637.729 82.1637C640.636 80.6234 644.272 81.7085 645.849 84.5875Z" fill="#41721E"/>
<path d="M638.79 100.266C641.495 102.165 643.744 110.974 643.744 110.974C643.744 110.974 634.569 111.764 631.864 109.866C629.16 107.968 628.518 104.28 630.43 101.629C632.343 98.9779 636.086 98.3679 638.79 100.266Z" fill="#41721E"/>
<path d="M634.418 115.011C636.779 112.735 645.976 112.165 645.976 112.165C645.976 112.165 645.197 121.212 642.835 123.488C640.474 125.765 636.675 125.713 634.35 123.372C632.026 121.031 632.056 117.288 634.418 115.011Z" fill="#41721E"/>
<path d="M671.211 63.5342C669.639 66.398 661.031 69.617 661.031 69.617C661.031 69.617 659.061 60.7391 660.632 57.8753C662.204 55.0115 665.846 53.9567 668.767 55.5194C671.688 57.0821 672.782 60.6704 671.211 63.5342Z" fill="#41721E"/>
<path d="M642.12 61.4434C644.486 71.9981 644.057 67.2967 651.094 83.9921" stroke="#41721E" stroke-width="5.4477" stroke-linecap="round"/>
<path d="M633.888 53.6023C637.148 54.1204 643.045 61.0706 643.045 61.0706C643.045 61.0706 635.168 65.8325 631.907 65.3145C628.647 64.7964 626.447 61.7546 626.994 58.5204C627.54 55.2862 630.627 53.0843 633.888 53.6023Z" fill="#41721E"/>
<path d="M639.07 66.9368C642.331 67.4549 648.227 74.4051 648.227 74.4051C648.227 74.4051 640.351 79.167 637.09 78.649C633.829 78.1309 631.629 75.0891 632.176 71.8549C632.723 68.6206 635.81 66.4187 639.07 66.9368Z" fill="#41721E"/>
<path d="M642.141 50.7532C640.041 53.2898 640.234 62.3641 640.234 62.3641C640.234 62.3641 649.3 60.7236 651.401 58.1871C653.502 55.6505 653.132 51.9301 650.575 49.8773C648.018 47.8245 644.242 48.2167 642.141 50.7532Z" fill="#41721E"/>
</g>
<defs>
<clipPath id="clip0_1211_65498">
<rect width="750" height="230" fill="white"/>
</clipPath>
</defs>
</svg>
