<svg width="750" height="230" viewBox="0 0 750 230" fill="none" xmlns="http://www.w3.org/2000/svg">
<path d="M601.838 147.473V142.441H602.197C603.874 142.441 605.432 142.281 606.869 141.962C608.387 141.562 609.625 140.764 610.583 139.566C611.542 138.368 612.021 136.531 612.021 134.055V96.6778C612.021 94.2019 611.542 92.4049 610.583 91.2868C609.705 90.0888 608.507 89.2901 606.989 88.8908C605.472 88.4915 603.874 88.2918 602.197 88.2918H601.838V83.2603H631.788V88.2918H631.428C629.831 88.2918 628.393 88.4915 627.116 88.8908C625.918 89.2901 624.959 90.0888 624.24 91.2868C623.601 92.4848 623.282 94.2818 623.282 96.6778V111.533H631.069L639.694 101.35C642.011 98.6345 643.488 96.558 644.127 95.1204C644.846 93.6828 645.205 92.4049 645.205 91.2868C645.205 90.1687 644.806 89.4099 644.007 89.0106C643.209 88.5314 641.931 88.2918 640.174 88.2918V83.2603H665.571V88.2918C663.654 88.2918 661.817 88.7311 660.06 89.6096C658.303 90.4083 656.546 91.6462 654.789 93.3234C653.032 94.9207 651.075 96.9573 648.919 99.4331L637.059 113.33L638.017 108.059L654.909 132.617C656.267 134.614 657.584 136.371 658.862 137.889C660.14 139.326 661.498 140.444 662.935 141.243C664.373 142.042 665.93 142.441 667.608 142.441H667.967V147.473H666.29C662.935 147.473 660.14 147.353 657.904 147.113C655.747 146.794 653.871 146.235 652.273 145.436C650.756 144.637 649.318 143.479 647.961 141.962C646.603 140.444 645.085 138.408 643.408 135.852L631.069 117.523H623.282V134.055C623.282 136.451 623.641 138.248 624.36 139.446C625.079 140.644 626.037 141.443 627.235 141.842C628.513 142.241 629.911 142.441 631.428 142.441H631.788V147.473H601.838Z" fill="#212121"/>
<path d="M502.51 148.671C496.2 148.671 490.849 147.433 486.457 144.957C482.144 142.401 478.869 138.648 476.633 133.696C474.397 128.744 473.279 122.595 473.279 115.247C473.279 107.899 474.477 101.789 476.873 96.9176C479.269 91.9659 482.663 88.2521 487.056 85.7763C491.448 83.3004 496.6 82.0625 502.51 82.0625C508.819 82.0625 514.13 83.3004 518.443 85.7763C522.836 88.2521 526.15 91.9659 528.386 96.9176C530.623 101.789 531.741 107.899 531.741 115.247C531.741 122.595 530.543 128.744 528.147 133.696C525.751 138.648 522.356 142.401 517.964 144.957C513.651 147.433 508.5 148.671 502.51 148.671ZM502.51 142.92C506.663 142.92 509.977 141.882 512.453 139.806C514.929 137.649 516.726 134.495 517.844 130.342C518.962 126.188 519.521 121.157 519.521 115.247C519.521 109.257 518.962 104.225 517.844 100.152C516.726 96.079 514.929 93.0041 512.453 90.9276C509.977 88.8511 506.663 87.8129 502.51 87.8129C498.437 87.8129 495.122 88.8511 492.566 90.9276C490.091 93.0041 488.294 96.079 487.176 100.152C486.057 104.225 485.498 109.257 485.498 115.247C485.498 121.157 486.057 126.188 487.176 130.342C488.294 134.495 490.091 137.649 492.566 139.806C495.122 141.882 498.437 142.92 502.51 142.92Z" fill="#212121"/>
<path d="M359.796 147.473V142.441H360.755C362.512 142.441 364.109 142.241 365.547 141.842C367.064 141.443 368.262 140.644 369.141 139.446C370.099 138.168 370.578 136.291 370.578 133.815V89.2502H362.312C360.475 89.2502 359.038 89.5697 357.999 90.2086C356.961 90.8475 356.122 91.9257 355.484 93.4432C354.925 94.8808 354.405 96.9573 353.926 99.6727L353.088 104.345H347.457L348.176 83.2603H404.242L404.961 104.345H399.33L398.491 99.6727C398.012 96.9573 397.453 94.8808 396.814 93.4432C396.255 91.9257 395.457 90.8475 394.418 90.2086C393.38 89.5697 391.942 89.2502 390.106 89.2502H381.839V133.815C381.839 136.291 382.279 138.168 383.157 139.446C384.116 140.644 385.314 141.443 386.751 141.842C388.269 142.241 389.906 142.441 391.663 142.441H392.621V147.473H359.796Z" fill="#212121"/>
<path d="M233.371 177.422C231.294 177.422 229.577 177.063 228.219 176.344C226.941 175.625 225.983 174.587 225.344 173.229C224.785 171.952 224.506 170.394 224.506 168.557C224.506 168.158 224.506 167.759 224.506 167.359C224.506 167.04 224.545 166.72 224.625 166.401C225.823 166.64 226.941 166.8 227.98 166.88C229.018 167.04 230.016 167.12 230.975 167.12C234.728 167.12 237.843 166.041 240.319 163.885C242.795 161.729 245.151 158.055 247.387 152.864L251.341 143.879L249.184 150.348L225.584 94.6412C224.545 92.1653 223.467 90.4881 222.349 89.6096C221.231 88.7311 219.514 88.2918 217.198 88.2918H216.838V83.2603H245.59V88.2918H245.231C242.835 88.2918 241.038 88.771 239.84 89.7294C238.722 90.6079 238.163 92.0455 238.163 94.0422C238.163 94.6811 238.242 95.36 238.402 96.0788C238.562 96.7976 238.802 97.5962 239.121 98.4747L247.866 119.799C248.585 121.476 249.344 123.353 250.143 125.43C250.941 127.426 251.74 129.543 252.539 131.779C253.417 134.015 254.256 136.331 255.054 138.727H252.658C253.537 136.331 254.296 134.215 254.934 132.378C255.653 130.541 256.292 128.824 256.851 127.227C257.49 125.629 258.049 124.112 258.528 122.674L267.034 99.3133C267.434 98.3549 267.713 97.4365 267.873 96.558C268.033 95.5996 268.112 94.8009 268.112 94.162C268.112 92.0855 267.434 90.6079 266.076 89.7294C264.798 88.771 262.841 88.2918 260.206 88.2918H259.846V83.2603H284.525V88.2918H284.165C282.648 88.2918 281.37 88.5314 280.332 89.0106C279.373 89.4898 278.495 90.4083 277.696 91.766C276.898 93.1237 276.019 95.0804 275.061 97.6361L255.054 151.546C252.658 157.935 250.382 163.007 248.226 166.76C246.149 170.594 243.953 173.309 241.637 174.907C239.321 176.584 236.565 177.422 233.371 177.422Z" fill="#212121"/>
<path d="M91.4948 148.671C88.5398 148.671 86.4632 147.872 85.2652 146.275C84.0673 144.677 83.4683 142.721 83.4683 140.404C83.4683 139.925 83.4683 139.446 83.4683 138.967C83.5481 138.408 83.628 137.969 83.7079 137.649C84.4267 137.729 85.1055 137.809 85.7444 137.889C86.4632 137.969 87.1421 138.008 87.781 138.008C90.8958 138.008 93.4915 137.13 95.568 135.373C97.6445 133.616 99.3217 130.461 100.6 125.909C101.957 121.276 102.916 114.648 103.475 106.022C103.555 105.144 103.595 104.265 103.595 103.386C103.674 102.508 103.714 101.669 103.714 100.871C103.794 99.9922 103.834 99.1137 103.834 98.2351C103.914 97.3566 103.954 96.4781 103.954 95.5996C103.954 92.8042 103.355 90.8875 102.157 89.8492C100.959 88.8109 99.0821 88.2918 96.5264 88.2918H93.5314V83.2603H151.514V88.2918H151.155C149.398 88.2918 147.76 88.4915 146.243 88.8908C144.805 89.2901 143.607 90.0888 142.649 91.2868C141.77 92.4848 141.331 94.3616 141.331 96.9174V133.815C141.331 136.291 141.77 138.168 142.649 139.446C143.607 140.644 144.805 141.443 146.243 141.842C147.76 142.241 149.398 142.441 151.155 142.441H151.514V147.473H120.965V142.441H121.325C123.002 142.441 124.479 142.241 125.757 141.842C127.115 141.443 128.153 140.644 128.872 139.446C129.671 138.168 130.07 136.291 130.07 133.815V89.2502H111.022L110.064 107.22C109.345 120.957 107.428 131.3 104.313 138.248C101.199 145.196 96.9257 148.671 91.4948 148.671Z" fill="#212121"/>
<path d="M494.747 123.026C492.581 124.818 494.097 128.05 497.067 128.05H502.359C520.089 128.077 537.788 128.022 555.518 128.131C582.376 128.321 606.419 125.443 628.914 113.766C673.904 90.357 697.708 60.8702 717.666 27.3325C721.441 19.4572 718.966 7.72579 724.845 6.31367C738.614 2.97348 731.59 26.3277 725.216 36.7013C703.433 72.3301 674.214 102.767 624.149 124.899C603.015 134.241 577.58 135.11 552.114 134.621C533.177 134.241 514.148 135.436 495.211 136.088C485.031 136.441 479.121 139.808 475.222 146.271C471.694 152.001 465.939 157.813 458.791 161.805C454.49 164.221 433.666 175.111 418.968 179.266C410.985 181.52 402.104 180.352 409.933 167.589C416.771 156.482 436.172 141.682 451.087 138.831C466.001 135.979 473.953 129.896 480.389 121.396C482.091 119.17 479.708 116.291 476.769 116.943C474.386 117.486 472.282 118.056 470.302 118.545C440.906 125.877 411.635 132.395 382.27 139.808C369.398 143.067 357.268 144.886 346.439 136.468C344.056 134.621 336.382 134.078 332.205 135.002C320.478 137.609 308.689 140.623 298.137 144.751C277.375 152.87 257.355 161.859 235.757 170.983C225.02 175.464 197.109 183.068 189.714 179.266C181.236 174.894 178.884 165.036 185.196 158.41C191.045 152.246 200.173 146.271 209.022 141.112C216.108 137.011 230.775 130.086 240.955 125.035C243.957 123.542 242.688 119.523 239.222 119.604C189.126 120.88 59.9887 126.502 9.39749 124.818C5.34401 124.682 5.03458 119.305 9.08807 119.007C9.11901 119.007 9.14995 119.007 9.1809 119.007C20.9391 118.436 178.513 116.508 223.999 112.543C228.331 112.163 232.693 112 237.056 112.082C266.947 112.652 290.371 102.957 311.381 90.1941C322.149 83.6494 352.875 73.5202 360.548 83.0792C368.841 93.4256 343.128 103.935 332.236 107.547C323.077 110.615 312.34 112.109 302.067 113.412C285.513 115.476 271 119.821 257.881 126.556C239.377 136.088 220.564 145.348 202.401 155.151C195.965 158.6 188.941 162.945 194.356 169.3C197.202 172.64 210.91 172.233 219.79 168.458C245.689 157.595 271.588 146.706 296.992 135.409C309.957 129.598 324.191 126.773 339.507 126.366C346.16 126.203 353.927 127.289 359.404 129.543C366.892 132.666 373.39 133.399 381.558 131.417C420.361 122.048 459.472 113.25 497.934 103.365C512.353 99.6444 548.308 83.6494 553.723 82.3731C554.837 82.1015 556.075 82.0472 557.375 82.1287C562.14 82.3459 564.058 88.0216 559.912 90.0854C559.881 90.1126 559.85 90.1126 559.819 90.1397C550.412 94.702 540.48 98.9112 530.238 102.713C516.994 107.791 505.607 113.928 494.747 123.026ZM458.234 145.158C451.087 144.128 428.452 157.716 423.594 164.505C417.746 172.679 422.403 171.146 428.406 168.784C440.226 164.167 445.238 160.8 454.985 152.979C457.615 150.888 462.381 145.755 458.234 145.158ZM317.383 102.985C329.544 100.839 350.647 93.0982 346.439 89.4321C343.994 86.9881 322.984 92.3937 315.217 97.4176C308.441 101.763 308.472 104.56 317.383 102.985Z" fill="#91BC73"/>
<path d="M601.838 147.473V142.441H602.197C603.874 142.441 605.432 142.281 606.869 141.962C608.387 141.562 609.625 140.764 610.583 139.566C611.542 138.368 612.021 136.531 612.021 134.055V96.6778C612.021 94.2019 611.542 92.4049 610.583 91.2868C609.705 90.0888 608.507 89.2901 606.989 88.8908C605.472 88.4915 603.874 88.2918 602.197 88.2918H601.838V83.2603H631.788V88.2918H631.428C629.831 88.2918 628.393 88.4915 627.116 88.8908C625.918 89.2901 624.959 90.0888 624.24 91.2868C623.601 92.4848 623.282 94.2818 623.282 96.6778V111.533H631.069L639.694 101.35C642.011 98.6345 643.488 96.558 644.127 95.1204C644.846 93.6828 645.205 92.4049 645.205 91.2868C645.205 90.1687 644.806 89.4099 644.007 89.0106C643.209 88.5314 641.931 88.2918 640.174 88.2918V83.2603H665.571V88.2918C663.654 88.2918 661.817 88.7311 660.06 89.6096C658.303 90.4083 656.546 91.6462 654.789 93.3234C653.032 94.9207 651.075 96.9573 648.919 99.4331L637.059 113.33L638.017 108.059L654.909 132.617C656.267 134.614 657.584 136.371 658.862 137.889C660.14 139.326 661.498 140.444 662.935 141.243C664.373 142.042 665.93 142.441 667.608 142.441H667.967V147.473H666.29C662.935 147.473 660.14 147.353 657.904 147.113C655.747 146.794 653.871 146.235 652.273 145.436C650.756 144.637 649.318 143.479 647.961 141.962C646.603 140.444 645.085 138.408 643.408 135.852L631.069 117.523H623.282V134.055C623.282 136.451 623.641 138.248 624.36 139.446C625.079 140.644 626.037 141.443 627.235 141.842C628.513 142.241 629.911 142.441 631.428 142.441H631.788V147.473H601.838Z" fill="#212121"/>
<path fill-rule="evenodd" clip-rule="evenodd" d="M486.457 144.957C490.849 147.433 496.2 148.671 502.51 148.671C508.5 148.671 513.651 147.433 517.964 144.957C520.861 143.271 523.324 141.065 525.352 138.337L515.578 135.961C514.696 137.478 513.655 138.759 512.453 139.806C509.977 141.882 506.663 142.92 502.51 142.92C498.437 142.92 495.122 141.882 492.566 139.806C490.091 137.649 488.294 134.495 487.176 130.342C486.057 126.188 485.498 121.157 485.498 115.247C485.498 109.257 486.057 104.225 487.176 100.152C488.294 96.079 490.091 93.0041 492.566 90.9276C495.122 88.8511 498.437 87.8129 502.51 87.8129C506.663 87.8129 509.977 88.8511 512.453 90.9276C514.929 93.0041 516.726 96.079 517.844 100.152C518.962 104.225 519.521 109.257 519.521 115.247C519.521 118.376 519.365 121.258 519.051 123.895H531.103C531.528 121.225 531.741 118.342 531.741 115.247C531.741 107.899 530.623 101.789 528.386 96.9176C526.15 91.9659 522.836 88.2521 518.443 85.7763C514.13 83.3004 508.819 82.0625 502.51 82.0625C496.6 82.0625 491.448 83.3004 487.056 85.7763C482.663 88.2521 479.269 91.9659 476.873 96.9176C474.477 101.789 473.279 107.899 473.279 115.247C473.279 122.595 474.397 128.744 476.633 133.696C478.869 138.648 482.144 142.401 486.457 144.957Z" fill="#212121"/>
<path fill-rule="evenodd" clip-rule="evenodd" d="M359.796 142.441V147.473H376.209H392.621V142.441H391.663C389.906 142.441 388.269 142.241 386.751 141.842C385.942 141.617 385.209 141.266 384.551 140.788C384.041 140.417 383.576 139.97 383.157 139.446C382.279 138.168 381.839 136.291 381.839 133.815V129.478V89.2502H390.106C391.942 89.2502 393.38 89.5697 394.418 90.2086C395.457 90.8475 396.255 91.9257 396.814 93.4432C397.453 94.8808 398.012 96.9573 398.491 99.6727L399.33 104.345H404.961L404.242 83.2603H365.688L366.445 89.2502H370.578V129.478V133.815C370.578 136.291 370.099 138.168 369.141 139.446C368.262 140.644 367.064 141.443 365.547 141.842C364.915 142.018 364.252 142.154 363.559 142.253C362.674 142.378 361.74 142.441 360.755 142.441H359.796Z" fill="#212121"/>
<path fill-rule="evenodd" clip-rule="evenodd" d="M228.219 176.344C229.577 177.063 231.294 177.422 233.371 177.422C236.565 177.422 239.321 176.584 241.637 174.907C243.644 173.523 245.56 171.299 247.387 168.237L226.434 174.907C226.937 175.478 227.532 175.957 228.219 176.344ZM246.522 154.783L256.027 148.925L275.061 97.6361C276.019 95.0804 276.898 93.1237 277.696 91.766C278.495 90.4083 279.373 89.4898 280.332 89.0106C281.37 88.5314 282.648 88.2918 284.165 88.2918H284.525V83.2603H259.846V88.2918H260.206C262.841 88.2918 264.798 88.771 266.076 89.7294C267.434 90.6079 268.112 92.0855 268.112 94.162C268.112 94.8009 268.033 95.5996 267.873 96.558C267.713 97.4365 267.434 98.3549 267.034 99.3133L258.528 122.674C258.049 124.112 257.49 125.629 256.851 127.227C256.292 128.824 255.653 130.541 254.934 132.378C254.614 133.299 254.264 134.29 253.883 135.351C253.446 134.138 252.998 132.948 252.539 131.779C251.74 129.543 250.941 127.426 250.143 125.43C249.344 123.353 248.585 121.476 247.866 119.799L239.121 98.4747C238.802 97.5962 238.562 96.7976 238.402 96.0788C238.242 95.36 238.163 94.6811 238.163 94.0422C238.163 92.0455 238.722 90.6079 239.84 89.7294C241.038 88.771 242.835 88.2918 245.231 88.2918H245.59V83.2603H216.838V88.2918H217.198C219.514 88.2918 221.231 88.7311 222.349 89.6096C223.467 90.4881 224.545 92.1653 225.584 94.6412L248.846 149.549L247.387 152.864C247.101 153.528 246.812 154.168 246.522 154.783Z" fill="#212121"/>
<path fill-rule="evenodd" clip-rule="evenodd" d="M85.2652 146.275C86.4632 147.872 88.5398 148.671 91.4948 148.671C96.9257 148.671 101.199 145.196 104.313 138.248C107.428 131.3 109.345 120.957 110.064 107.22L111.022 89.2502H130.07V112.956H141.331V96.9174C141.331 94.3616 141.77 92.4848 142.649 91.2868C143.607 90.0888 144.805 89.2901 146.243 88.8908C147.76 88.4915 149.398 88.2918 151.155 88.2918H151.514V83.2603H93.5314V88.2918H96.5264C99.0821 88.2918 100.959 88.8109 102.157 89.8492C103.355 90.8875 103.954 92.8042 103.954 95.5996C103.954 96.4781 103.914 97.3566 103.834 98.2351C103.834 99.1137 103.794 99.9922 103.714 100.871C103.714 101.669 103.674 102.508 103.595 103.386C103.595 104.265 103.555 105.144 103.475 106.022C102.916 114.648 101.957 121.276 100.6 125.909C99.3217 130.461 97.6445 133.616 95.568 135.373C93.4915 137.13 90.8958 138.008 87.781 138.008C87.1421 138.008 86.4632 137.969 85.7444 137.889C85.1055 137.809 84.4267 137.729 83.7079 137.649C83.628 137.969 83.5481 138.408 83.4683 138.967V140.404C83.4683 142.721 84.0673 144.677 85.2652 146.275ZM130.07 125.909V133.815C130.07 136.291 129.671 138.168 128.872 139.446C128.153 140.644 127.115 141.443 125.757 141.842C124.479 142.241 123.002 142.441 121.325 142.441H120.965V147.473H151.514V142.441H151.155C149.398 142.441 147.76 142.241 146.243 141.842C144.805 141.443 143.607 140.644 142.649 139.446C141.77 138.168 141.331 136.291 141.331 133.815V125.909H130.07Z" fill="#212121"/>
<path d="M231.692 96.7798C244.339 104.864 264.85 127.252 245.724 152.134" stroke="#41721E" stroke-width="6.12265" stroke-linecap="round"/>
<path d="M227.052 84.9953C226.18 88.5603 230.894 97.6492 230.894 97.6492C230.894 97.6492 239.291 91.6791 240.163 88.1141C241.034 84.5492 238.806 80.961 235.186 80.0998C231.565 79.2386 227.924 81.4304 227.052 84.9953Z" fill="#41721E"/>
<path d="M238.802 96.1067C237.931 99.6716 242.645 108.76 242.645 108.76C242.645 108.76 251.041 102.79 251.913 99.2255C252.785 95.6605 250.557 92.0723 246.936 91.2111C243.316 90.3499 239.674 92.5417 238.802 96.1067Z" fill="#41721E"/>
<path d="M248.862 109.806C247.99 113.371 252.704 122.46 252.704 122.46C252.704 122.46 261.1 116.49 261.972 112.925C262.844 109.36 260.616 105.772 256.995 104.911C253.375 104.05 249.733 106.241 248.862 109.806Z" fill="#41721E"/>
<path d="M258.942 131.53C255.859 133.584 253.126 143.426 253.126 143.426C253.126 143.426 263.416 144.591 266.499 142.537C269.581 140.483 270.389 136.353 268.302 133.314C266.215 130.274 262.024 129.476 258.942 131.53Z" fill="#41721E"/>
<path d="M220.422 92.1573C223.994 91.1274 233.434 95.3286 233.434 95.3286C233.434 95.3286 227.787 103.88 224.215 104.91C220.643 105.94 216.898 103.92 215.851 100.398C214.804 96.8769 216.85 93.1871 220.422 92.1573Z" fill="#41721E"/>
<path d="M232.171 103.27C235.743 102.24 245.183 106.441 245.183 106.441C245.183 106.441 239.536 114.993 235.964 116.023C232.392 117.053 228.647 115.033 227.6 111.511C226.553 107.99 228.599 104.3 232.171 103.27Z" fill="#41721E"/>
<path d="M242.231 116.971C245.803 115.941 255.243 120.142 255.243 120.142C255.243 120.142 249.596 128.694 246.024 129.724C242.452 130.753 238.708 128.734 237.66 125.212C236.613 121.69 238.659 118.001 242.231 116.971Z" fill="#41721E"/>
<path d="M245.81 133.42C249.501 133.903 256.414 141.505 256.414 141.505C256.414 141.505 247.735 147.066 244.043 146.583C240.352 146.1 237.755 142.761 238.243 139.127C238.73 135.492 242.118 132.937 245.81 133.42Z" fill="#41721E"/>
<path d="M238.799 148.961C241.727 146.697 252.074 147.142 252.074 147.142C252.074 147.142 250.054 157.15 247.126 159.414C244.198 161.678 239.961 161.173 237.661 158.286C235.362 155.4 235.871 151.224 238.799 148.961Z" fill="#41721E"/>
<path d="M251.129 154.777C249.078 151.715 250.371 141.591 250.371 141.591C250.371 141.591 260.327 144.404 262.377 147.467C264.428 150.529 263.573 154.649 260.466 156.667C257.36 158.686 253.179 157.84 251.129 154.777Z" fill="#41721E"/>
<path d="M225.497 81.9317C228.331 84.3121 229.946 94.3921 229.946 94.3921C229.946 94.3921 219.59 94.417 216.756 92.0366C213.922 89.6562 213.581 85.4645 215.995 82.6741C218.409 79.8837 222.663 79.5513 225.497 81.9317Z" fill="#41721E"/>
<path d="M448.865 96.8643C461.527 92.9009 487.457 91.5343 489.886 117.774" stroke="#41721E" stroke-width="5.62669" stroke-linecap="round"/>
<path d="M437.939 92.4681C439.805 95.2906 448.941 97.915 448.941 97.915C448.941 97.915 450.193 88.617 448.326 85.7946C446.46 82.9721 442.621 82.178 439.753 84.0208C436.885 85.8637 436.072 89.6456 437.939 92.4681Z" fill="#41721E"/>
<path d="M452.888 91.7401C454.755 94.5625 463.891 97.187 463.891 97.187C463.891 97.187 465.142 87.889 463.276 85.0666C461.41 82.2441 457.571 81.45 454.703 83.2928C451.834 85.1357 451.022 88.9176 452.888 91.7401Z" fill="#41721E"/>
<path d="M468.526 93.7577C470.392 96.5801 479.528 99.2046 479.528 99.2046C479.528 99.2046 480.78 89.9066 478.913 87.0841C477.047 84.2617 473.208 83.4675 470.34 85.3104C467.471 87.1532 466.659 90.9352 468.526 93.7577Z" fill="#41721E"/>
<path d="M438.622 101.355C440.178 98.3505 448.978 94.7737 448.978 94.7737C448.978 94.7737 451.206 103.889 449.65 106.893C448.094 109.898 444.363 111.094 441.318 109.564C438.273 108.035 437.066 104.36 438.622 101.355Z" fill="#41721E"/>
<path d="M453.571 100.627C455.127 97.6225 463.928 94.0457 463.928 94.0457C463.928 94.0457 466.155 103.161 464.599 106.165C463.043 109.17 459.313 110.366 456.268 108.836C453.222 107.307 452.015 103.632 453.571 100.627Z" fill="#41721E"/>
<path d="M469.209 102.646C470.765 99.641 479.566 96.0642 479.566 96.0642C479.566 96.0642 481.793 105.179 480.237 108.184C478.681 111.188 474.951 112.384 471.905 110.855C468.86 109.326 467.653 105.65 469.209 102.646Z" fill="#41721E"/>
<path d="M434.885 91.5618C438.288 91.1948 446.141 96.4816 446.141 96.4816C446.141 96.4816 439.62 103.319 436.217 103.686C432.814 104.053 429.757 101.637 429.39 98.2885C429.022 94.9405 431.483 91.9289 434.885 91.5618Z" fill="#41721E"/>
<path d="M521.569 80.0908C506.305 85.9106 479.596 105.613 494.098 136.32" stroke="#41721E" stroke-width="6.65824" stroke-linecap="square"/>
<path d="M529.243 68.6267C529.342 72.6057 522.193 81.2268 522.193 81.2268C522.193 81.2268 514.629 73.0404 514.531 69.0614C514.432 65.0825 517.646 61.7596 521.709 61.6396C525.772 61.5195 529.145 64.6478 529.243 68.6267Z" fill="#41721E"/>
<path d="M514.194 77.8294C514.292 81.8083 507.143 90.4294 507.143 90.4294C507.143 90.4294 499.579 82.243 499.481 78.2641C499.382 74.2851 502.596 70.9623 506.659 70.8422C510.722 70.7222 514.095 73.8504 514.194 77.8294Z" fill="#41721E"/>
<path d="M500.348 90.1599C500.447 94.1389 493.298 102.76 493.298 102.76C493.298 102.76 485.734 94.5736 485.636 90.5946C485.537 86.6157 488.751 83.2928 492.814 83.1728C496.877 83.0527 500.25 86.181 500.348 90.1599Z" fill="#41721E"/>
<path d="M485.487 112.967C489 114.929 492.782 125.373 492.782 125.373C492.782 125.373 481.724 127.528 478.211 125.566C474.698 123.604 473.479 119.193 475.488 115.714C477.497 112.235 481.974 111.005 485.487 112.967Z" fill="#41721E"/>
<path d="M534.631 77.7188C531.074 75.834 520.067 78.23 520.067 78.23C520.067 78.23 524.083 88.588 527.639 90.4729C531.196 92.3578 535.644 91.0307 537.574 87.5087C539.505 83.9868 538.187 79.6037 534.631 77.7188Z" fill="#41721E"/>
<path d="M519.582 86.92C516.026 85.0351 505.018 87.4312 505.018 87.4312C505.018 87.4312 509.034 97.7892 512.59 99.6741C516.147 101.559 520.595 100.232 522.526 96.7099C524.456 93.188 523.138 88.8049 519.582 86.92Z" fill="#41721E"/>
<path d="M505.737 99.252C502.181 97.3672 491.174 99.7632 491.174 99.7632C491.174 99.7632 495.189 110.121 498.746 112.006C502.302 113.891 506.75 112.564 508.681 109.042C510.612 105.52 509.294 101.137 505.737 99.252Z" fill="#41721E"/>
<path d="M498.683 115.128C494.655 114.829 485.558 121.425 485.558 121.425C485.558 121.425 493.475 129.284 497.503 129.583C501.53 129.882 505.06 126.888 505.385 122.897C505.711 118.905 502.71 115.427 498.683 115.128Z" fill="#41721E"/>
<path d="M504.883 136.283C501.654 133.894 490.412 134.642 490.412 134.642C490.412 134.642 492.812 145.479 496.042 147.868C499.272 150.257 503.869 149.599 506.31 146.4C508.752 143.201 508.113 138.671 504.883 136.283Z" fill="#41721E"/>
<path d="M531.588 65.7427C528.021 67.6503 523.96 78.011 523.96 78.011C523.96 78.011 534.968 80.3137 538.535 78.4062C542.102 76.4986 543.438 72.1173 541.52 68.6204C539.601 65.1235 535.155 63.8351 531.588 65.7427Z" fill="#41721E"/>
<path d="M659.13 72.769C654.385 85.1152 641.653 92.4555 642.446 116.642" stroke="#41721E" stroke-width="5.4477" stroke-linecap="round"/>
<path d="M668.766 66.642C665.448 66.5435 658.293 72.2199 658.293 72.2199C658.293 72.2199 665.155 78.3122 668.474 78.4106C671.792 78.5091 674.547 75.9544 674.628 72.7045C674.709 69.4547 672.084 66.7404 668.766 66.642Z" fill="#41721E"/>
<path d="M661.123 78.7719C657.805 78.6734 650.651 84.3498 650.651 84.3498C650.651 84.3498 657.513 90.4421 660.831 90.5405C664.149 90.6389 666.905 88.0842 666.986 84.8344C667.066 81.5846 664.442 78.8703 661.123 78.7719Z" fill="#41721E"/>
<path d="M653.818 90.9276C650.499 90.8292 643.345 96.5056 643.345 96.5056C643.345 96.5056 650.207 102.598 653.525 102.696C656.844 102.795 659.599 100.24 659.68 96.9902C659.761 93.7404 657.136 91.0261 653.818 90.9276Z" fill="#41721E"/>
<path d="M647.542 107.136C644.387 108.104 639.534 115.808 639.534 115.808C639.534 115.808 648.005 119.418 651.16 118.449C654.314 117.48 656.062 114.162 655.063 111.038C654.064 107.914 650.696 106.167 647.542 107.136Z" fill="#41721E"/>
<path d="M661.204 62.2603C662.782 65.1393 660.85 74.0088 660.85 74.0088C660.85 74.0088 652.254 70.7172 650.676 67.8383C649.098 64.9593 650.176 61.3768 653.083 59.8365C655.99 58.2962 659.626 59.3814 661.204 62.2603Z" fill="#41721E"/>
<path d="M645.849 85.7828C647.427 88.6618 645.496 97.5313 645.496 97.5313C645.496 97.5313 636.899 94.2397 635.322 91.3607C633.744 88.4818 634.822 84.8993 637.729 83.359C640.636 81.8187 644.272 82.9039 645.849 85.7828Z" fill="#41721E"/>
<path d="M638.79 101.462C641.495 103.36 643.744 112.169 643.744 112.169C643.744 112.169 634.569 112.96 631.864 111.061C629.16 109.163 628.518 105.475 630.43 102.824C632.343 100.173 636.086 99.5632 638.79 101.462Z" fill="#41721E"/>
<path d="M634.418 116.207C636.779 113.93 645.976 113.36 645.976 113.36C645.976 113.36 645.197 122.407 642.835 124.684C640.474 126.96 636.675 126.908 634.35 124.567C632.026 122.226 632.056 118.483 634.418 116.207Z" fill="#41721E"/>
<path d="M671.211 64.7295C669.639 67.5933 661.031 70.8124 661.031 70.8124C661.031 70.8124 659.061 61.9344 660.632 59.0706C662.204 56.2068 665.846 55.152 668.767 56.7147C671.688 58.2774 672.782 61.8657 671.211 64.7295Z" fill="#41721E"/>
<path d="M642.12 62.6387C644.486 73.1934 644.057 68.492 651.094 85.1874" stroke="#41721E" stroke-width="5.4477" stroke-linecap="round"/>
<path d="M633.888 54.7976C637.148 55.3157 643.045 62.266 643.045 62.266C643.045 62.266 635.168 67.0279 631.907 66.5098C628.647 65.9917 626.447 62.9499 626.994 59.7157C627.54 56.4815 630.627 54.2796 633.888 54.7976Z" fill="#41721E"/>
<path d="M639.07 68.1321C642.331 68.6502 648.227 75.6004 648.227 75.6004C648.227 75.6004 640.351 80.3623 637.09 79.8443C633.829 79.3262 631.629 76.2844 632.176 73.0502C632.723 69.8159 635.81 67.6141 639.07 68.1321Z" fill="#41721E"/>
<path d="M642.141 51.9485C640.041 54.4851 640.234 63.5594 640.234 63.5594C640.234 63.5594 649.3 61.9189 651.401 59.3824C653.502 56.8458 653.132 53.1254 650.575 51.0726C648.018 49.0198 644.242 49.412 642.141 51.9485Z" fill="#41721E"/>
</svg>
