<svg width="750" height="230" viewBox="0 0 750 230" fill="none" xmlns="http://www.w3.org/2000/svg">
<g clip-path="url(#clip0_1211_65747)">
<path d="M601.838 147.473V142.441H602.197C603.874 142.441 605.432 142.281 606.869 141.962C608.387 141.562 609.625 140.764 610.583 139.566C611.542 138.368 612.021 136.531 612.021 134.055V96.6778C612.021 94.2019 611.542 92.4049 610.583 91.2868C609.705 90.0888 608.507 89.2901 606.989 88.8908C605.472 88.4915 603.874 88.2918 602.197 88.2918H601.838V83.2603H631.788V88.2918H631.428C629.831 88.2918 628.393 88.4915 627.116 88.8908C625.918 89.2901 624.959 90.0888 624.24 91.2868C623.601 92.4848 623.282 94.2818 623.282 96.6778V111.533H631.069L639.694 101.35C642.011 98.6345 643.488 96.558 644.127 95.1204C644.846 93.6828 645.205 92.4049 645.205 91.2868C645.205 90.1687 644.806 89.4099 644.007 89.0106C643.209 88.5314 641.931 88.2918 640.174 88.2918V83.2603H665.571V88.2918C663.654 88.2918 661.817 88.7311 660.06 89.6096C658.303 90.4083 656.546 91.6462 654.789 93.3234C653.032 94.9207 651.075 96.9573 648.919 99.4331L637.059 113.33L638.017 108.059L654.909 132.617C656.267 134.614 657.584 136.371 658.862 137.889C660.14 139.326 661.498 140.444 662.935 141.243C664.373 142.042 665.93 142.441 667.608 142.441H667.967V147.473H666.29C662.935 147.473 660.14 147.353 657.904 147.113C655.747 146.794 653.871 146.235 652.273 145.436C650.756 144.637 649.318 143.479 647.961 141.962C646.603 140.444 645.085 138.408 643.408 135.852L631.069 117.523H623.282V134.055C623.282 136.451 623.641 138.248 624.36 139.446C625.079 140.644 626.037 141.443 627.235 141.842C628.513 142.241 629.911 142.441 631.428 142.441H631.788V147.473H601.838Z" fill="#212121"/>
<path d="M502.51 148.671C496.2 148.671 490.849 147.433 486.457 144.957C482.144 142.401 478.869 138.648 476.633 133.696C474.397 128.744 473.279 122.595 473.279 115.247C473.279 107.899 474.477 101.789 476.873 96.9176C479.269 91.9659 482.663 88.2521 487.056 85.7763C491.448 83.3004 496.6 82.0625 502.51 82.0625C508.819 82.0625 514.13 83.3004 518.443 85.7763C522.836 88.2521 526.15 91.9659 528.386 96.9176C530.623 101.789 531.741 107.899 531.741 115.247C531.741 122.595 530.543 128.744 528.147 133.696C525.751 138.648 522.356 142.401 517.964 144.957C513.651 147.433 508.5 148.671 502.51 148.671ZM502.51 142.92C506.663 142.92 509.977 141.882 512.453 139.806C514.929 137.649 516.726 134.495 517.844 130.342C518.962 126.188 519.521 121.157 519.521 115.247C519.521 109.257 518.962 104.225 517.844 100.152C516.726 96.079 514.929 93.0041 512.453 90.9276C509.977 88.8511 506.663 87.8129 502.51 87.8129C498.437 87.8129 495.122 88.8511 492.566 90.9276C490.091 93.0041 488.294 96.079 487.176 100.152C486.057 104.225 485.498 109.257 485.498 115.247C485.498 121.157 486.057 126.188 487.176 130.342C488.294 134.495 490.091 137.649 492.566 139.806C495.122 141.882 498.437 142.92 502.51 142.92Z" fill="#212121"/>
<path d="M359.796 147.473V142.441H360.755C362.512 142.441 364.109 142.241 365.547 141.842C367.064 141.443 368.262 140.644 369.141 139.446C370.099 138.168 370.578 136.291 370.578 133.815V89.2502H362.312C360.475 89.2502 359.038 89.5697 357.999 90.2086C356.961 90.8475 356.122 91.9257 355.484 93.4432C354.925 94.8808 354.405 96.9573 353.926 99.6727L353.088 104.345H347.457L348.176 83.2603H404.242L404.961 104.345H399.33L398.491 99.6727C398.012 96.9573 397.453 94.8808 396.814 93.4432C396.255 91.9257 395.457 90.8475 394.418 90.2086C393.38 89.5697 391.942 89.2502 390.106 89.2502H381.839V133.815C381.839 136.291 382.279 138.168 383.157 139.446C384.116 140.644 385.314 141.443 386.751 141.842C388.269 142.241 389.906 142.441 391.663 142.441H392.621V147.473H359.796Z" fill="#212121"/>
<path d="M233.371 177.422C231.294 177.422 229.577 177.063 228.219 176.344C226.941 175.625 225.983 174.587 225.344 173.229C224.785 171.952 224.506 170.394 224.506 168.557C224.506 168.158 224.506 167.759 224.506 167.359C224.506 167.04 224.545 166.72 224.625 166.401C225.823 166.64 226.941 166.8 227.98 166.88C229.018 167.04 230.016 167.12 230.975 167.12C234.728 167.12 237.843 166.041 240.319 163.885C242.795 161.729 245.151 158.055 247.387 152.864L251.341 143.879L249.184 150.348L225.584 94.6412C224.545 92.1653 223.467 90.4881 222.349 89.6096C221.231 88.7311 219.514 88.2918 217.198 88.2918H216.838V83.2603H245.59V88.2918H245.231C242.835 88.2918 241.038 88.771 239.84 89.7294C238.722 90.6079 238.163 92.0455 238.163 94.0422C238.163 94.6811 238.242 95.36 238.402 96.0788C238.562 96.7976 238.802 97.5962 239.121 98.4747L247.866 119.799C248.585 121.476 249.344 123.353 250.143 125.43C250.941 127.426 251.74 129.543 252.539 131.779C253.417 134.015 254.256 136.331 255.054 138.727H252.658C253.537 136.331 254.296 134.215 254.934 132.378C255.653 130.541 256.292 128.824 256.851 127.227C257.49 125.629 258.049 124.112 258.528 122.674L267.034 99.3133C267.434 98.3549 267.713 97.4365 267.873 96.558C268.033 95.5996 268.112 94.8009 268.112 94.162C268.112 92.0855 267.434 90.6079 266.076 89.7294C264.798 88.771 262.841 88.2918 260.206 88.2918H259.846V83.2603H284.525V88.2918H284.165C282.648 88.2918 281.37 88.5314 280.332 89.0106C279.373 89.4898 278.495 90.4083 277.696 91.766C276.898 93.1237 276.019 95.0804 275.061 97.6361L255.054 151.546C252.658 157.935 250.382 163.007 248.226 166.76C246.149 170.594 243.953 173.309 241.637 174.907C239.321 176.584 236.565 177.422 233.371 177.422Z" fill="#212121"/>
<path d="M91.4948 148.671C88.5398 148.671 86.4632 147.872 85.2652 146.275C84.0673 144.677 83.4683 142.721 83.4683 140.404C83.4683 139.925 83.4683 139.446 83.4683 138.967C83.5481 138.408 83.628 137.969 83.7079 137.649C84.4267 137.729 85.1055 137.809 85.7444 137.889C86.4632 137.969 87.1421 138.008 87.781 138.008C90.8958 138.008 93.4915 137.13 95.568 135.373C97.6445 133.616 99.3217 130.461 100.6 125.909C101.957 121.276 102.916 114.648 103.475 106.022C103.555 105.144 103.595 104.265 103.595 103.386C103.674 102.508 103.714 101.669 103.714 100.871C103.794 99.9922 103.834 99.1137 103.834 98.2351C103.914 97.3566 103.954 96.4781 103.954 95.5996C103.954 92.8042 103.355 90.8875 102.157 89.8492C100.959 88.8109 99.0821 88.2918 96.5264 88.2918H93.5314V83.2603H151.514V88.2918H151.155C149.398 88.2918 147.76 88.4915 146.243 88.8908C144.805 89.2901 143.607 90.0888 142.649 91.2868C141.77 92.4848 141.331 94.3616 141.331 96.9174V133.815C141.331 136.291 141.77 138.168 142.649 139.446C143.607 140.644 144.805 141.443 146.243 141.842C147.76 142.241 149.398 142.441 151.155 142.441H151.514V147.473H120.965V142.441H121.325C123.002 142.441 124.479 142.241 125.757 141.842C127.115 141.443 128.153 140.644 128.872 139.446C129.671 138.168 130.07 136.291 130.07 133.815V89.2502H111.022L110.064 107.22C109.345 120.957 107.428 131.3 104.313 138.248C101.199 145.196 96.9257 148.671 91.4948 148.671Z" fill="#212121"/>
<path d="M454.394 62.0756C459.699 70.6292 446.529 84.7339 436.911 91.5783C421.029 102.879 402.546 112.24 385.208 122.502C376.783 127.491 368.398 132.555 360.368 137.869C356.857 140.187 354.891 141.027 356.811 143.675C358.327 145.766 388.54 144.088 400.241 138.638C412.696 132.857 424.079 146.594 423.294 156.128C423.213 156.998 458.861 136.854 461.708 135.202C473.066 128.784 484.385 122.367 495.742 115.91C518.381 103.076 533.319 94.1146 555.998 81.3165C573.504 71.4638 599.768 54.2707 604.713 57.4063C609.736 60.5767 583.848 83.6021 578.165 88.1883C568.73 95.8179 542.334 119.181 538.036 124.374C536.425 126.319 530.595 133.065 533.018 132.334C546.237 128.524 575.65 110.573 582.514 107.791C598.088 101.48 620.058 88.18 627.509 93.7497C630.11 95.6899 625.061 100.856 622.649 102.869C610.933 112.922 598.313 122.405 587.104 132.703C582.148 137.299 556.615 156.578 550.922 165.917C543.897 177.493 574.805 177.221 581.975 173.447C597.856 165.126 666.625 111.813 695.682 89.575C695.682 89.575 720.813 66.2796 729.277 75.9625C733.596 80.9032 707.256 92.1767 685.951 108.176C679.123 113.303 669.146 122.138 669.146 122.138L652.341 136.099C652.268 136.178 596.975 176.362 578.165 185.169C566.803 190.494 553.413 189.02 542.107 182.764C539.406 181.242 536.764 179.228 535.66 176.403C534.216 172.684 535.702 168.48 537.871 165.118C540.186 161.563 564.873 139.185 573.716 132.106C579.809 127.203 593.597 117.224 603.963 108.918C605.635 107.574 604.041 104.955 602.045 105.821C595.149 108.755 586.673 113.407 583.811 114.683C577.936 117.277 544.452 135.907 532.129 138.137C486.604 146.314 569.849 81.0288 569.493 80.7403C537.023 99.861 449.071 153.248 440.729 157.404C427.312 164.05 413.939 170.845 400.241 177.162C396.629 178.843 383.1 182.551 387.532 174.277C388.962 171.621 394.729 170.2 397.392 168.744C402.305 166.034 411.652 162.219 412.615 156.128C416.46 131.805 381.485 155.42 363.306 156.128C346.33 154.589 339.325 141.366 348.907 135.579C367.023 124.61 385.695 114.186 403.772 103.218C412.118 98.1559 420.38 92.9083 428.319 87.2201C433.613 83.4405 437.255 79.5337 440.434 74.5501C441.988 72.1163 440.559 68.8124 437.636 68.4683C426.901 67.1317 416.318 69.7874 406.04 73.4125C393.193 77.9251 338.719 108.461 322.293 116.539C300.382 127.385 277.796 137.614 254.882 147.253C250.171 149.238 226.227 160.009 220.12 161.518C217.085 162.272 200.31 166.213 194.41 166.168C188.129 166.137 182.09 168.436 175.79 167.915C175.559 167.886 175.328 167.857 175.169 167.712C175.01 167.567 175.003 167.379 174.958 167.192C174.657 164.336 177.402 162.009 180.118 160.928C182.834 159.846 185.914 159.279 188.02 157.278C188.242 157.081 188.542 155.9 188.454 155.602C187.289 152.175 182.781 150.457 182.186 146.896C181.89 145.172 182.627 143.409 183.762 142.047C187.424 137.687 193.651 134.287 198.316 131.097C203.689 127.39 209.261 123.901 215.12 120.893C220.041 118.372 225.536 116.886 231.131 116.98C239.829 117.11 248.67 123.005 257.182 118.276C272.633 109.744 302.078 90.6226 311.984 83.2772C312.84 82.642 312.213 81.2697 311.151 81.5354C287.809 87.0032 214.841 104.572 190.944 110.55C148.309 121.222 57.4937 149.481 49.6385 151.356C34.8769 154.884 13.1439 160.367 9.42881 144.324C6.49196 131.609 23.758 119.465 28.3702 115.899C37.4474 108.924 47.3722 103.087 56.8108 96.5507C75.4261 83.6395 94.1237 70.876 112.981 58.2952C123.4 51.3458 136.445 47.9951 151.243 48.4266C151.358 48.4223 151.437 48.4949 151.517 48.5674C157.038 54.7744 154.393 59.7004 148.035 64.6887C132.867 76.6046 114.464 85.0573 93.7843 90.0491C78.8344 93.659 65.1172 100.467 52.5824 109.154C41.6134 116.728 8.60137 134.699 21.0488 142.762C27.9194 147.184 45.6847 143.092 53.3711 140.808C59.9204 138.83 77.2573 133.806 127.524 121.417C178.511 108.851 279.426 82.0715 295.163 78.0175C302.595 76.0821 310.457 73.3765 318.385 71.4227C326.011 69.5556 330.493 79.6107 323.876 83.8166L323.689 83.9366C315.802 88.9817 307.875 93.9906 299.946 98.9618C284.316 108.82 268.646 118.643 253.056 128.537C243.298 134.746 232.392 139.941 225.874 149.763C225.693 150.033 225.974 150.362 226.277 150.276C232.663 148.04 239.087 145.802 245.434 143.53C251.819 141.256 260.089 139.214 265.606 135.276C281.09 127.61 296.532 119.833 312.054 112.166C331.596 102.464 351.18 92.8362 370.929 83.5414C385.637 76.6213 400.409 69.3594 415.749 63.9246C427.045 59.8846 449.415 54.038 454.394 62.0756ZM235.597 124.621C235.628 124.432 235.467 124.211 235.237 124.22C221.08 124.519 208.599 129.621 198.474 139.238C194.851 142.616 193.142 145.999 198.092 149.285C217.11 145.901 233.765 134.798 235.597 124.621ZM95.614 82.8149C113.356 76.1217 129.848 71.7756 138.617 58.7394C138.762 58.5078 138.557 58.1759 138.29 58.1858C122.547 60.0901 106.943 68.6276 95.2497 82.3004C95.0303 82.5725 95.3124 82.9392 95.614 82.8149Z" fill="#91BC73"/>
<path fill-rule="evenodd" clip-rule="evenodd" d="M601.838 142.441V147.473H631.788V142.441H631.428C629.911 142.441 628.513 142.241 627.235 141.842C626.037 141.443 625.079 140.644 624.36 139.446C623.641 138.248 623.282 136.451 623.282 134.055V117.523H631.069L643.408 135.852C645.085 138.408 646.603 140.444 647.961 141.962C649.318 143.479 650.756 144.637 652.273 145.436C653.871 146.235 655.747 146.794 657.904 147.113C660.14 147.353 662.935 147.473 666.29 147.473H667.967V142.441H667.608C665.93 142.441 664.373 142.042 662.935 141.243C661.498 140.444 660.14 139.326 658.862 137.889C657.584 136.371 656.267 134.614 654.909 132.617L639.597 110.356L648.919 99.4331C651.075 96.9573 653.032 94.9207 654.789 93.3234C656.546 91.6462 658.303 90.4083 660.06 89.6096C661.817 88.7311 663.654 88.2918 665.571 88.2918V83.2603H640.174V88.2918C641.931 88.2918 643.209 88.5314 644.007 89.0106C644.806 89.4099 645.205 90.1687 645.205 91.2868C645.205 92.4049 644.846 93.6828 644.127 95.1204C643.488 96.558 642.011 98.6345 639.694 101.35L631.069 111.533H623.282V104.105L612.021 111.533V134.055C612.021 136.531 611.542 138.368 610.583 139.566C609.625 140.764 608.387 141.562 606.869 141.962C605.432 142.281 603.874 142.441 602.197 142.441H601.838ZM611.318 92.4806H623.765C623.897 92.0323 624.055 91.6343 624.24 91.2868C624.959 90.0888 625.918 89.2901 627.116 88.8908C628.393 88.4915 629.831 88.2918 631.428 88.2918H631.788V83.2603H601.838V88.2918H602.197C603.874 88.2918 605.472 88.4915 606.989 88.8908C608.507 89.2901 609.705 90.0888 610.583 91.2868C610.872 91.6233 611.117 92.0212 611.318 92.4806Z" fill="#212121"/>
<path d="M502.51 148.671C496.2 148.671 490.849 147.433 486.457 144.957C482.144 142.401 478.869 138.648 476.633 133.696C474.397 128.744 473.279 122.595 473.279 115.247C473.279 107.899 474.477 101.789 476.873 96.9176C479.269 91.9659 482.663 88.2521 487.056 85.7763C491.448 83.3004 496.6 82.0625 502.51 82.0625C508.819 82.0625 514.13 83.3004 518.443 85.7763C522.836 88.2521 526.15 91.9659 528.386 96.9176C529.686 99.7486 530.608 102.998 531.152 106.665C531.545 109.308 531.741 112.169 531.741 115.247C531.741 122.595 530.543 128.744 528.147 133.696C525.751 138.648 522.356 142.401 517.964 144.957C513.651 147.433 508.5 148.671 502.51 148.671ZM502.51 142.92C506.663 142.92 509.977 141.882 512.453 139.806C513.234 139.126 513.946 138.347 514.592 137.469C515.994 135.561 517.078 133.185 517.844 130.342C518.962 126.188 519.521 121.157 519.521 115.247C519.521 114.227 519.505 113.234 519.473 112.269C519.315 107.571 518.772 103.532 517.844 100.152C516.726 96.079 514.929 93.0041 512.453 90.9276C509.977 88.8511 506.663 87.8129 502.51 87.8129C498.437 87.8129 495.122 88.8511 492.566 90.9276C490.091 93.0041 488.294 96.079 487.176 100.152C486.057 104.225 485.498 109.257 485.498 115.247C485.498 121.157 486.057 126.188 487.176 130.342C488.294 134.495 490.091 137.649 492.566 139.806C495.122 141.882 498.437 142.92 502.51 142.92Z" fill="#212121"/>
<path fill-rule="evenodd" clip-rule="evenodd" d="M381.839 89.2502V114.55L370.578 121.641V89.2502H362.312C360.475 89.2502 359.038 89.5697 357.999 90.2086C356.961 90.8475 356.122 91.9257 355.484 93.4432C354.925 94.8808 354.405 96.9573 353.926 99.6727L353.088 104.345H347.457L348.176 83.2603H404.242L404.961 104.345H399.33L398.491 99.6727C398.012 96.9573 397.453 94.8808 396.814 93.4432C396.255 91.9257 395.457 90.8475 394.418 90.2086C393.38 89.5697 391.942 89.2502 390.106 89.2502H381.839Z" fill="#212121"/>
<path fill-rule="evenodd" clip-rule="evenodd" d="M228.219 176.344C229.577 177.063 231.294 177.422 233.371 177.422C236.565 177.422 239.321 176.584 241.637 174.907C243.953 173.309 246.149 170.594 248.226 166.76C250.382 163.007 252.658 157.935 255.054 151.546L275.061 97.6361C275.575 96.266 276.065 95.068 276.533 94.0422L268.099 94.6412C268.07 95.1869 267.995 95.8258 267.873 96.558C267.713 97.4365 267.434 98.3549 267.034 99.3133L258.528 122.674C258.049 124.112 257.49 125.629 256.851 127.227C256.292 128.824 255.653 130.541 254.934 132.378C254.614 133.299 254.264 134.29 253.883 135.351C253.446 134.138 252.998 132.948 252.539 131.779C251.74 129.543 250.941 127.426 250.143 125.43C249.344 123.353 248.585 121.476 247.866 119.799L239.121 98.4747C238.802 97.5962 238.562 96.7976 238.402 96.0788C238.242 95.36 238.163 94.6811 238.163 94.0422C238.163 92.0455 238.722 90.6079 239.84 89.7294C241.038 88.771 242.835 88.2918 245.231 88.2918H245.59V83.2603H216.838V88.2918H217.198C219.514 88.2918 221.231 88.7311 222.349 89.6096C223.467 90.4881 224.545 92.1653 225.584 94.6412L248.846 149.549L247.387 152.864C245.151 158.055 242.795 161.729 240.319 163.885C237.843 166.041 234.728 167.12 230.975 167.12C230.016 167.12 229.018 167.04 227.98 166.88C226.941 166.8 225.823 166.64 224.625 166.401C224.545 166.72 224.506 167.04 224.506 167.359V168.557C224.506 170.394 224.785 171.952 225.344 173.229C225.983 174.587 226.941 175.625 228.219 176.344Z" fill="#212121"/>
<path fill-rule="evenodd" clip-rule="evenodd" d="M85.2652 146.275C86.4632 147.872 88.5398 148.671 91.4948 148.671C96.9257 148.671 101.199 145.196 104.313 138.248C107.428 131.3 109.345 120.957 110.064 107.22L111.022 89.2502H130.07V133.815C130.07 136.291 129.671 138.168 128.872 139.446C128.153 140.644 127.115 141.443 125.757 141.842C124.479 142.241 123.002 142.441 121.325 142.441H120.965V147.473H151.514V142.441H151.155C149.398 142.441 147.76 142.241 146.243 141.842C144.805 141.443 143.607 140.644 142.649 139.446C141.77 138.168 141.331 136.291 141.331 133.815V96.9174C141.331 94.3616 141.77 92.4848 142.649 91.2868C143.607 90.0888 144.805 89.2901 146.243 88.8908C147.76 88.4915 149.398 88.2918 151.155 88.2918H151.514V83.2603H120.965L101.288 89.2502C101.609 89.4258 101.899 89.6254 102.157 89.8492C103.355 90.8875 103.954 92.8042 103.954 95.5996C103.954 96.4781 103.914 97.3566 103.834 98.2351C103.834 99.1137 103.794 99.9922 103.714 100.871C103.714 101.669 103.674 102.508 103.595 103.386C103.595 104.265 103.555 105.144 103.475 106.022C102.916 114.648 101.957 121.276 100.6 125.909C99.3217 130.461 97.6445 133.616 95.568 135.373C93.4915 137.13 90.8958 138.008 87.781 138.008C87.1421 138.008 86.4632 137.969 85.7444 137.889C85.1055 137.809 84.4267 137.729 83.7079 137.649C83.628 137.969 83.5481 138.408 83.4683 138.967V140.404C83.4683 142.721 84.0673 144.677 85.2652 146.275Z" fill="#212121"/>
<path d="M578.741 -27.68L585.859 -19.6733L595.786 -23.8689L590.258 -14.7248L597.375 -6.71812L586.84 -9.07353L581.312 0.070477L580.33 -10.5293L569.795 -12.8847L579.723 -17.0803L578.741 -27.68Z" fill="#FFCD29"/>
<path d="M232.525 92.0781C245.172 100.162 265.683 122.55 246.557 147.432" stroke="#41721E" stroke-width="6.12265" stroke-linecap="round"/>
<path d="M227.885 80.2937C227.013 83.8586 231.727 92.9475 231.727 92.9475C231.727 92.9475 240.124 86.9774 240.996 83.4125C241.867 79.8475 239.639 76.2594 236.019 75.3981C232.398 74.5369 228.757 76.7287 227.885 80.2937Z" fill="#41721E"/>
<path d="M239.635 91.405C238.764 94.97 243.478 104.059 243.478 104.059C243.478 104.059 251.874 98.0888 252.746 94.5238C253.618 90.9588 251.39 87.3707 247.769 86.5095C244.149 85.6482 240.507 87.84 239.635 91.405Z" fill="#41721E"/>
<path d="M249.695 105.105C248.823 108.67 253.537 117.759 253.537 117.759C253.537 117.759 261.933 111.788 262.805 108.224C263.677 104.659 261.449 101.07 257.828 100.209C254.208 99.3479 250.566 101.54 249.695 105.105Z" fill="#41721E"/>
<path d="M259.775 126.828C256.692 128.883 253.959 138.725 253.959 138.725C253.959 138.725 264.249 139.89 267.332 137.835C270.414 135.781 271.222 131.652 269.135 128.612C267.048 125.573 262.857 124.774 259.775 126.828Z" fill="#41721E"/>
<path d="M221.255 87.4556C224.827 86.4257 234.267 90.627 234.267 90.627C234.267 90.627 228.62 99.1786 225.048 100.208C221.476 101.238 217.731 99.2184 216.684 95.6968C215.637 92.1752 217.683 88.4855 221.255 87.4556Z" fill="#41721E"/>
<path d="M233.004 98.5684C236.576 97.5385 246.016 101.74 246.016 101.74C246.016 101.74 240.369 110.291 236.797 111.321C233.225 112.351 229.48 110.331 228.433 106.81C227.386 103.288 229.432 99.5983 233.004 98.5684Z" fill="#41721E"/>
<path d="M243.064 112.269C246.636 111.239 256.076 115.44 256.076 115.44C256.076 115.44 250.429 123.992 246.857 125.022C243.285 126.052 239.541 124.032 238.493 120.51C237.446 116.989 239.492 113.299 243.064 112.269Z" fill="#41721E"/>
<path d="M246.643 128.718C250.334 129.201 257.247 136.803 257.247 136.803C257.247 136.803 248.568 142.364 244.876 141.881C241.185 141.398 238.588 138.06 239.076 134.425C239.563 130.79 242.951 128.235 246.643 128.718Z" fill="#41721E"/>
<path d="M239.632 144.259C242.56 141.995 252.907 142.441 252.907 142.441C252.907 142.441 250.887 152.449 247.959 154.713C245.031 156.976 240.794 156.471 238.494 153.585C236.195 150.698 236.704 146.523 239.632 144.259Z" fill="#41721E"/>
<path d="M251.962 150.076C249.911 147.013 251.204 136.889 251.204 136.889C251.204 136.889 261.16 139.702 263.21 142.765C265.261 145.828 264.406 149.947 261.299 151.966C258.193 153.985 254.012 153.138 251.962 150.076Z" fill="#41721E"/>
<path d="M226.33 77.23C229.164 79.6104 230.779 89.6904 230.779 89.6904C230.779 89.6904 220.423 89.7153 217.589 87.335C214.755 84.9546 214.414 80.7628 216.828 77.9724C219.242 75.182 223.496 74.8497 226.33 77.23Z" fill="#41721E"/>
<path d="M437.346 89.6953C450.007 85.732 475.937 84.3654 478.367 110.606" stroke="#41721E" stroke-width="5.62669" stroke-linecap="round"/>
<path d="M426.419 85.2992C428.286 88.1216 437.421 90.7461 437.421 90.7461C437.421 90.7461 438.673 81.4481 436.807 78.6256C434.94 75.8032 431.102 75.0091 428.233 76.8519C425.365 78.6947 424.553 82.4767 426.419 85.2992Z" fill="#41721E"/>
<path d="M441.369 84.5711C443.235 87.3936 452.371 90.0181 452.371 90.0181C452.371 90.0181 453.623 80.7201 451.756 77.8976C449.89 75.0752 446.052 74.281 443.183 76.1239C440.315 77.9667 439.502 81.7487 441.369 84.5711Z" fill="#41721E"/>
<path d="M457.006 86.5887C458.872 89.4112 468.008 92.0356 468.008 92.0356C468.008 92.0356 469.26 82.7377 467.394 79.9152C465.527 77.0927 461.689 76.2986 458.82 78.1414C455.952 79.9843 455.14 83.7663 457.006 86.5887Z" fill="#41721E"/>
<path d="M427.102 94.1861C428.658 91.1816 437.459 87.6048 437.459 87.6048C437.459 87.6048 439.686 96.7197 438.13 99.7243C436.574 102.729 432.844 103.925 429.799 102.395C426.753 100.866 425.546 97.1907 427.102 94.1861Z" fill="#41721E"/>
<path d="M442.052 93.4581C443.608 90.4535 452.409 86.8767 452.409 86.8767C452.409 86.8767 454.636 95.9917 453.08 98.9963C451.524 102.001 447.794 103.197 444.748 101.667C441.703 100.138 440.496 96.4627 442.052 93.4581Z" fill="#41721E"/>
<path d="M457.69 95.4767C459.246 92.4721 468.046 88.8953 468.046 88.8953C468.046 88.8953 470.274 98.0102 468.717 101.015C467.161 104.019 463.431 105.215 460.386 103.686C457.341 102.157 456.133 98.4812 457.69 95.4767Z" fill="#41721E"/>
<path d="M423.366 84.3929C426.769 84.0258 434.622 89.3127 434.622 89.3127C434.622 89.3127 428.1 96.15 424.697 96.517C421.294 96.8841 418.238 94.4676 417.87 91.1196C417.502 87.7716 419.963 84.7599 423.366 84.3929Z" fill="#41721E"/>
<path d="M510.049 72.9214C494.785 78.7412 468.076 98.4439 482.579 129.151" stroke="#41721E" stroke-width="6.65824" stroke-linecap="square"/>
<path d="M517.724 61.4573C517.822 65.4362 510.673 74.0574 510.673 74.0574C510.673 74.0574 503.109 65.8709 503.011 61.892C502.913 57.9131 506.127 54.5902 510.189 54.4701C514.252 54.3501 517.626 57.4783 517.724 61.4573Z" fill="#41721E"/>
<path d="M502.674 70.6599C502.772 74.6389 495.624 83.26 495.624 83.26C495.624 83.26 488.06 75.0736 487.961 71.0946C487.863 67.1157 491.077 63.7928 495.14 63.6728C499.202 63.5527 502.576 66.681 502.674 70.6599Z" fill="#41721E"/>
<path d="M488.829 82.9905C488.927 86.9694 481.778 95.5906 481.778 95.5906C481.778 95.5906 474.214 87.4041 474.116 83.4252C474.018 79.4463 477.232 76.1234 481.294 76.0033C485.357 75.8833 488.73 79.0116 488.829 82.9905Z" fill="#41721E"/>
<path d="M473.967 105.798C477.48 107.76 481.262 118.204 481.262 118.204C481.262 118.204 470.205 120.359 466.692 118.397C463.178 116.434 461.959 112.023 463.968 108.544C465.977 105.065 470.454 103.836 473.967 105.798Z" fill="#41721E"/>
<path d="M523.111 70.5494C519.555 68.6645 508.548 71.0606 508.548 71.0606C508.548 71.0606 512.563 81.4186 516.12 83.3034C519.676 85.1883 524.124 83.8612 526.055 80.3393C527.986 76.8174 526.668 72.4343 523.111 70.5494Z" fill="#41721E"/>
<path d="M508.062 79.7506C504.506 77.8657 493.499 80.2617 493.499 80.2617C493.499 80.2617 497.514 90.6197 501.071 92.5046C504.627 94.3895 509.075 93.0624 511.006 89.5405C512.937 86.0185 511.619 81.6355 508.062 79.7506Z" fill="#41721E"/>
<path d="M494.218 92.0826C490.661 90.1977 479.654 92.5938 479.654 92.5938C479.654 92.5938 483.67 102.952 487.226 104.837C490.782 106.722 495.231 105.394 497.161 101.872C499.092 98.3506 497.774 93.9675 494.218 92.0826Z" fill="#41721E"/>
<path d="M487.163 107.958C483.135 107.659 474.039 114.255 474.039 114.255C474.039 114.255 481.955 122.114 485.983 122.413C490.011 122.712 493.54 119.719 493.866 115.727C494.192 111.736 491.191 108.258 487.163 107.958Z" fill="#41721E"/>
<path d="M493.364 129.113C490.134 126.725 478.892 127.472 478.892 127.472C478.892 127.472 481.293 138.31 484.522 140.698C487.752 143.087 492.349 142.43 494.791 139.231C497.232 136.032 496.593 131.502 493.364 129.113Z" fill="#41721E"/>
<path d="M520.068 58.5732C516.501 60.4808 512.441 70.8415 512.441 70.8415C512.441 70.8415 523.448 73.1443 527.015 71.2367C530.582 69.3291 531.919 64.9479 530 61.451C528.082 57.954 523.635 56.6656 520.068 58.5732Z" fill="#41721E"/>
<path d="M662.162 88.3008C657.417 100.647 644.684 107.987 645.478 132.173" stroke="#41721E" stroke-width="5.4477" stroke-linecap="round"/>
<path d="M671.797 82.1737C668.479 82.0753 661.324 87.7517 661.324 87.7517C661.324 87.7517 668.187 93.8439 671.505 93.9424C674.823 94.0408 677.579 91.4861 677.659 88.2363C677.74 84.9865 675.116 82.2722 671.797 82.1737Z" fill="#41721E"/>
<path d="M664.155 94.3036C660.836 94.2051 653.682 99.8815 653.682 99.8815C653.682 99.8815 660.544 105.974 663.862 106.072C667.181 106.171 669.936 103.616 670.017 100.366C670.097 97.1163 667.473 94.402 664.155 94.3036Z" fill="#41721E"/>
<path d="M656.849 106.459C653.531 106.361 646.376 112.037 646.376 112.037C646.376 112.037 653.238 118.13 656.557 118.228C659.875 118.326 662.63 115.772 662.711 112.522C662.792 109.272 660.167 106.558 656.849 106.459Z" fill="#41721E"/>
<path d="M650.573 122.667C647.419 123.636 642.565 131.339 642.565 131.339C642.565 131.339 651.036 134.949 654.191 133.98C657.346 133.012 659.093 129.694 658.094 126.569C657.095 123.445 653.728 121.698 650.573 122.667Z" fill="#41721E"/>
<path d="M664.235 77.7921C665.813 80.671 663.881 89.5405 663.881 89.5405C663.881 89.5405 655.285 86.249 653.707 83.37C652.13 80.4911 653.207 76.9086 656.114 75.3683C659.022 73.828 662.657 74.9131 664.235 77.7921Z" fill="#41721E"/>
<path d="M648.881 101.315C650.458 104.193 648.527 113.063 648.527 113.063C648.527 113.063 639.931 109.771 638.353 106.892C636.775 104.014 637.853 100.431 640.76 98.8907C643.667 97.3504 647.303 98.4356 648.881 101.315Z" fill="#41721E"/>
<path d="M641.822 116.993C644.526 118.892 646.776 127.701 646.776 127.701C646.776 127.701 637.6 128.491 634.896 126.593C632.191 124.695 631.549 121.007 633.462 118.356C635.374 115.705 639.117 115.095 641.822 116.993Z" fill="#41721E"/>
<path d="M637.449 131.738C639.811 129.462 649.008 128.892 649.008 128.892C649.008 128.892 648.228 137.939 645.867 140.215C643.505 142.492 639.706 142.44 637.381 140.099C635.057 137.758 635.087 134.015 637.449 131.738Z" fill="#41721E"/>
<path d="M674.242 80.2612C672.67 83.125 664.062 86.3441 664.062 86.3441C664.062 86.3441 662.092 77.4661 663.663 74.6023C665.235 71.7385 668.877 70.6838 671.798 72.2465C674.719 73.8091 675.813 77.3975 674.242 80.2612Z" fill="#41721E"/>
<path d="M645.151 78.1704C647.517 88.7252 647.088 84.0237 654.125 100.719" stroke="#41721E" stroke-width="5.4477" stroke-linecap="round"/>
<path d="M636.919 70.3294C640.18 70.8474 646.076 77.7977 646.076 77.7977C646.076 77.7977 638.199 82.5596 634.939 82.0415C631.678 81.5235 629.478 78.4817 630.025 75.2474C630.572 72.0132 633.658 69.8113 636.919 70.3294Z" fill="#41721E"/>
<path d="M642.102 83.6639C645.362 84.1819 651.259 91.1322 651.259 91.1322C651.259 91.1322 643.382 95.8941 640.121 95.376C636.861 94.858 634.661 91.8161 635.207 88.5819C635.754 85.3477 638.841 83.1458 642.102 83.6639Z" fill="#41721E"/>
<path d="M645.172 67.4803C643.072 70.0168 643.265 79.0912 643.265 79.0912C643.265 79.0912 652.332 77.4507 654.432 74.9141C656.533 72.3776 656.163 68.6572 653.606 66.6044C651.049 64.5516 647.273 64.9437 645.172 67.4803Z" fill="#41721E"/>
</g>
<defs>
<clipPath id="clip0_1211_65747">
<rect width="750" height="230" fill="white"/>
</clipPath>
</defs>
</svg>
