<svg width="750" height="230" viewBox="0 0 750 230" fill="none" xmlns="http://www.w3.org/2000/svg">
<path d="M601.838 147.473V142.441H602.197C603.874 142.441 605.432 142.281 606.869 141.962C608.387 141.562 609.625 140.764 610.583 139.566C611.542 138.368 612.021 136.531 612.021 134.055V96.6778C612.021 94.2019 611.542 92.4049 610.583 91.2868C609.705 90.0888 608.507 89.2901 606.989 88.8908C605.472 88.4915 603.874 88.2918 602.197 88.2918H601.838V83.2603H631.788V88.2918H631.428C629.831 88.2918 628.393 88.4915 627.116 88.8908C625.918 89.2901 624.959 90.0888 624.24 91.2868C623.601 92.4848 623.282 94.2818 623.282 96.6778V111.533H631.069L639.694 101.35C642.011 98.6345 643.488 96.558 644.127 95.1204C644.846 93.6828 645.205 92.4049 645.205 91.2868C645.205 90.1687 644.806 89.4099 644.007 89.0106C643.209 88.5314 641.931 88.2918 640.174 88.2918V83.2603H665.571V88.2918C663.654 88.2918 661.817 88.7311 660.06 89.6096C658.303 90.4083 656.546 91.6462 654.789 93.3234C653.032 94.9207 651.075 96.9573 648.919 99.4331L637.059 113.33L638.017 108.059L654.909 132.617C656.267 134.614 657.584 136.371 658.862 137.889C660.14 139.326 661.498 140.444 662.935 141.243C664.373 142.042 665.93 142.441 667.608 142.441H667.967V147.473H666.29C662.935 147.473 660.14 147.353 657.904 147.113C655.747 146.794 653.871 146.235 652.273 145.436C650.756 144.637 649.318 143.479 647.961 141.962C646.603 140.444 645.085 138.408 643.408 135.852L631.069 117.523H623.282V134.055C623.282 136.451 623.641 138.248 624.36 139.446C625.079 140.644 626.037 141.443 627.235 141.842C628.513 142.241 629.911 142.441 631.428 142.441H631.788V147.473H601.838Z" fill="#212121"/>
<path d="M502.509 148.671C496.2 148.671 490.849 147.433 486.456 144.957C482.143 142.401 478.869 138.648 476.633 133.696C474.396 128.744 473.278 122.595 473.278 115.247C473.278 107.899 474.476 101.789 476.872 96.9176C479.268 91.9659 482.663 88.2521 487.055 85.7763C491.448 83.3004 496.599 82.0625 502.509 82.0625C508.819 82.0625 514.13 83.3004 518.443 85.7763C522.835 88.2521 526.15 91.9659 528.386 96.9176C530.622 101.789 531.74 107.899 531.74 115.247C531.74 122.595 530.542 128.744 528.146 133.696C525.75 138.648 522.356 142.401 517.963 144.957C513.651 147.433 508.499 148.671 502.509 148.671ZM502.509 142.92C506.662 142.92 509.977 141.882 512.453 139.806C514.928 137.649 516.725 134.495 517.844 130.342C518.962 126.188 519.521 121.157 519.521 115.247C519.521 109.257 518.962 104.225 517.844 100.152C516.725 96.079 514.928 93.0041 512.453 90.9276C509.977 88.8511 506.662 87.8129 502.509 87.8129C498.436 87.8129 495.122 88.8511 492.566 90.9276C490.09 93.0041 488.293 96.079 487.175 100.152C486.057 104.225 485.498 109.257 485.498 115.247C485.498 121.157 486.057 126.188 487.175 130.342C488.293 134.495 490.09 137.649 492.566 139.806C495.122 141.882 498.436 142.92 502.509 142.92Z" fill="#212121"/>
<path d="M359.796 147.473V142.441H360.754C362.511 142.441 364.109 142.241 365.546 141.842C367.064 141.443 368.262 140.644 369.14 139.446C370.099 138.168 370.578 136.291 370.578 133.815V89.2502H362.312C360.475 89.2502 359.037 89.5697 357.999 90.2086C356.961 90.8475 356.122 91.9257 355.483 93.4432C354.924 94.8808 354.405 96.9573 353.926 99.6727L353.087 104.345H347.457L348.175 83.2603H404.241L404.96 104.345H399.33L398.491 99.6727C398.012 96.9573 397.453 94.8808 396.814 93.4432C396.255 91.9257 395.456 90.8475 394.418 90.2086C393.38 89.5697 391.942 89.2502 390.105 89.2502H381.839V133.815C381.839 136.291 382.278 138.168 383.157 139.446C384.115 140.644 385.313 141.443 386.751 141.842C388.268 142.241 389.905 142.441 391.662 142.441H392.621V147.473H359.796Z" fill="#212121"/>
<path d="M233.371 177.422C231.294 177.422 229.577 177.063 228.219 176.344C226.941 175.625 225.983 174.587 225.344 173.229C224.785 171.952 224.506 170.394 224.506 168.557C224.506 168.158 224.506 167.759 224.506 167.359C224.506 167.04 224.545 166.72 224.625 166.401C225.823 166.64 226.941 166.8 227.98 166.88C229.018 167.04 230.016 167.12 230.975 167.12C234.728 167.12 237.843 166.041 240.319 163.885C242.795 161.729 245.151 158.055 247.387 152.864L251.341 143.879L249.184 150.348L225.584 94.6412C224.545 92.1653 223.467 90.4881 222.349 89.6096C221.231 88.7311 219.514 88.2918 217.198 88.2918H216.838V83.2603H245.59V88.2918H245.231C242.835 88.2918 241.038 88.771 239.84 89.7294C238.722 90.6079 238.163 92.0455 238.163 94.0422C238.163 94.6811 238.242 95.36 238.402 96.0788C238.562 96.7976 238.802 97.5962 239.121 98.4747L247.866 119.799C248.585 121.476 249.344 123.353 250.143 125.43C250.941 127.426 251.74 129.543 252.539 131.779C253.417 134.015 254.256 136.331 255.054 138.727H252.658C253.537 136.331 254.296 134.215 254.934 132.378C255.653 130.541 256.292 128.824 256.851 127.227C257.49 125.629 258.049 124.112 258.528 122.674L267.034 99.3133C267.434 98.3549 267.713 97.4365 267.873 96.558C268.033 95.5996 268.112 94.8009 268.112 94.162C268.112 92.0855 267.434 90.6079 266.076 89.7294C264.798 88.771 262.841 88.2918 260.206 88.2918H259.846V83.2603H284.525V88.2918H284.165C282.648 88.2918 281.37 88.5314 280.332 89.0106C279.373 89.4898 278.495 90.4083 277.696 91.766C276.898 93.1237 276.019 95.0804 275.061 97.6361L255.054 151.546C252.658 157.935 250.382 163.007 248.226 166.76C246.149 170.594 243.953 173.309 241.637 174.907C239.321 176.584 236.565 177.422 233.371 177.422Z" fill="#212121"/>
<path d="M91.4948 148.671C88.5398 148.671 86.4632 147.872 85.2652 146.275C84.0673 144.677 83.4683 142.721 83.4683 140.404C83.4683 139.925 83.4683 139.446 83.4683 138.967C83.5481 138.408 83.628 137.969 83.7079 137.649C84.4267 137.729 85.1055 137.809 85.7444 137.889C86.4632 137.969 87.1421 138.008 87.781 138.008C90.8958 138.008 93.4915 137.13 95.568 135.373C97.6445 133.616 99.3217 130.461 100.6 125.909C101.957 121.276 102.916 114.648 103.475 106.022C103.555 105.144 103.595 104.265 103.595 103.386C103.674 102.508 103.714 101.669 103.714 100.871C103.794 99.9922 103.834 99.1137 103.834 98.2351C103.914 97.3566 103.954 96.4781 103.954 95.5996C103.954 92.8042 103.355 90.8875 102.157 89.8492C100.959 88.8109 99.0821 88.2918 96.5264 88.2918H93.5314V83.2603H151.514V88.2918H151.155C149.398 88.2918 147.76 88.4915 146.243 88.8908C144.805 89.2901 143.607 90.0888 142.649 91.2868C141.77 92.4848 141.331 94.3616 141.331 96.9174V133.815C141.331 136.291 141.77 138.168 142.649 139.446C143.607 140.644 144.805 141.443 146.243 141.842C147.76 142.241 149.398 142.441 151.155 142.441H151.514V147.473H120.965V142.441H121.325C123.002 142.441 124.479 142.241 125.757 141.842C127.115 141.443 128.153 140.644 128.872 139.446C129.671 138.168 130.07 136.291 130.07 133.815V89.2502H111.022L110.064 107.22C109.345 120.957 107.428 131.3 104.313 138.248C101.199 145.196 96.9257 148.671 91.4948 148.671Z" fill="#212121"/>
<path fill-rule="evenodd" clip-rule="evenodd" d="M518.294 163.143C541.957 162.654 565.621 162.11 589.284 161.729C613.021 161.322 636.759 161.294 660.459 160.669C683.863 160.044 722.187 156.095 725.182 158.662C727.279 160.459 724.598 163.959 719.858 164.122C677.382 165.509 634.944 166.923 592.469 168.092C578.989 168.473 565.509 168.147 552.956 168.147C552.956 168.147 537.333 168.545 527.813 169.743C518.294 170.941 513.138 173.081 509.245 173.637C503.346 174.478 499.361 174.191 497.593 172.334C495.826 170.477 494.779 166.434 498.741 163.524C523.478 145.251 548.179 126.924 572.657 108.461C584.84 99.2704 615.267 79.6796 613.47 76.8989C611.673 74.1181 598.023 82.6291 593.802 84.886C555.178 105.579 515.331 124.939 474.263 142.886C457.414 150.255 440.596 156.754 423.858 164.258C419.695 166.125 414.865 170.941 410.71 172.139C407.02 173.203 380.166 176.467 377.166 164.965C374.167 153.463 384.923 146.96 390.913 142.891C392.395 141.885 398.496 138.78 400.237 137.991C411.717 132.79 416.669 132.109 426.789 140.167C427.603 140.765 428.751 141.89 430.746 142.886C432.741 143.882 475.967 114.933 475.967 114.933C475.967 114.933 477.748 113.584 475.964 112.839C474.191 112.097 470.183 112.184 467.662 112.239L467.614 112.24C454.542 112.457 441.379 113.573 428.307 113.763C424.826 113.818 420.877 115.256 419.395 111.042C419.03 110.003 421.492 108.921 424.678 108.57C448.447 105.95 494.69 103.554 495.186 106.503C495.964 111.126 491.705 112.893 488.409 114.851C471.597 124.885 454.637 134.837 437.75 144.816C433.714 147.209 429.455 149.493 428.751 155.312C433.158 153.762 436.417 152.892 439.305 151.614C465.931 139.867 492.742 128.365 518.961 116.129C541.031 105.823 562.362 94.6749 584.062 83.9343C598.653 76.7013 613.28 69.5227 627.908 62.3714C629.945 61.3653 632.018 60.1416 634.277 59.7338C636.314 59.3803 639.684 58.929 640.906 60.2504C642.128 61.5718 640.906 64.0029 639.684 65.0905C636.055 68.2991 631.722 71.0999 627.723 74.1181C610.429 87.2789 593.135 100.44 575.878 113.655L575.862 113.667L575.859 113.67C558.349 127.097 545.175 136.467 527.813 149.976C522.722 153.938 516.924 159.391 514.665 161.729C512.406 164.068 516.433 163.182 518.294 163.143ZM411.908 157.164C407.131 160.781 399.898 164.317 395.719 164.449C388.817 164.666 386.498 158.63 390.09 154.061C394.386 148.514 398.131 145.484 404.121 142.886C408.613 140.937 413.717 140.493 414.865 141.281C416.642 142.478 417.79 144.816 417.79 146.529C417.79 148.881 414.611 155.098 411.908 157.164Z" fill="#91BC73"/>
<path fill-rule="evenodd" clip-rule="evenodd" d="M131.989 118.97C133.905 117.34 137.159 114.698 138.602 113.664C144.734 109.248 150.608 105.28 156.471 101.318C162.603 97.1751 168.723 93.0397 175.117 88.4079C178.411 86.0212 184.401 80.621 183.525 79.5154C182.457 78.6082 181.671 79.0583 180.31 79.8386C180.002 80.0147 179.666 80.2077 179.29 80.4056C178.865 80.6292 177.324 81.4254 176.838 81.6738C174.159 83.0436 171.692 84.4401 169.136 85.8873C167.684 86.7097 166.202 87.5484 164.636 88.4079C152.876 94.8638 139.798 101.398 125.999 105.779C123.304 106.634 120.212 107.324 117.325 107.868C115.734 108.168 114.918 107.241 115.734 106.263C116.625 105.195 118.123 103.806 119.702 102.343C123.434 98.8824 127.615 95.0051 125.289 93.971C120.103 91.6662 110.712 95.7025 104.635 98.314C104.395 98.4174 104.16 98.5185 103.93 98.617C100.134 100.238 96.4978 102.055 92.8649 103.869C89.0599 105.769 85.2589 107.667 81.2836 109.338C69.2203 114.372 56.9351 119.106 44.5018 123.677C43.9485 123.879 43.398 124.071 42.8565 124.259C38.6542 125.719 34.9907 126.992 34.6957 131.596C34.4737 134.97 26.5917 136.571 25.5559 133.201C24.0588 128.33 31.5504 120.467 42.7625 117.582C52.5315 115.079 58.9831 110.992 62.4856 101.284C65.9881 91.5749 102.227 69.1126 104.078 68.4138C104.349 68.3115 104.651 68.1839 104.972 68.0487C106.842 67.2601 109.327 66.2122 109.715 68.4138C110.062 70.382 106.261 72.849 103.634 74.4272C101.664 75.6003 99.67 76.7502 97.6771 77.8997C93.5683 80.2694 89.4631 82.6372 85.5759 85.2023C77.6941 90.3723 73.8458 97.0932 71.8106 106.644C74.8773 105.295 77.6276 104.089 80.1819 102.969L80.1876 102.967L80.1916 102.965C84.2292 101.194 87.7772 99.6387 91.3115 98.0727C92.2497 97.6546 93.1849 97.233 94.1195 96.8116C102.916 92.8453 111 86.6744 121.804 85.8873C129.02 85.3431 135.531 88.0866 138.306 95.1612C140.078 94.3257 142.976 93.4483 145.834 92.5829C148.577 91.7526 151.283 90.9334 152.923 90.1726L173.047 79.5154C176.121 77.9363 179.979 75.5752 183.532 73.401C185.366 72.2784 187.119 71.2056 188.641 70.3161C193.109 67.7039 196.092 66.064 200.755 63.6695C205.839 61.7473 209.653 57.5253 214.163 52.5344C215.443 51.1182 216.778 49.64 218.215 48.1349L218.57 47.7628C228.191 37.6951 238.478 27.981 248.95 18.3759C253.354 14.3216 259.237 11.5462 267.008 12.0359C273.188 12.4441 276.407 14.7842 274.335 19.1106C272.633 22.6207 269.413 26.0763 265.676 28.6069L246.887 40.7785C238.658 45.9985 230.43 51.218 222.603 56.7421C215.521 61.7536 209.043 67.2327 205.56 70.3161C202.154 73.1965 198.749 76.077 195.255 78.8897C188.398 84.412 181.421 89.8606 174.442 95.3007L173.047 96.3883L173.046 96.389L173.028 96.4028L173.021 96.408C170.983 97.9967 168.945 99.585 166.91 101.175C164.187 103.305 161.475 105.334 158.785 107.346C154.019 110.912 149.322 114.427 144.757 118.358C143.819 119.165 142.693 120.024 141.542 120.901C137.546 123.949 133.258 127.219 135.583 129.312C138.245 131.708 153.254 127.814 162.239 125.119C179.613 120.954 196.102 116.737 212.581 112.522C229.586 108.172 246.58 103.826 264.526 99.5421C271.539 97.8577 278.854 96.8149 286.12 95.7792L287.21 95.6238C302.788 93.447 310.555 100.198 305.674 111.46C302.833 118.017 295.758 126.832 291.089 132.648C287.739 136.822 285.628 139.452 287.21 138.596C288.797 137.737 294.355 134.823 301.229 131.219L301.237 131.215L301.241 131.212C310.761 126.22 316.799 123.608 324.317 119.596C325.564 118.929 326.801 118.245 328.038 117.562L328.039 117.561L328.043 117.559C332.054 115.342 336.069 113.123 340.451 111.46C351.589 107.297 356.805 109.357 357.545 118.526C358.581 131.451 354.859 143.646 345.645 154.639C329.956 173.36 320.959 183.643 297.425 197.656C295.687 198.692 294.042 199.821 292.398 200.949C290.155 202.488 287.912 204.027 285.436 205.33C282.179 207.044 278.331 208.568 274.482 209.085C271.855 209.438 268.192 208.432 266.083 207.098C263.048 205.166 262.9 202.282 265.676 199.806C268.451 197.33 271.406 197.375 275.167 197.821C276.027 197.923 276.562 198.277 277.094 198.63C277.857 199.135 278.617 199.638 280.329 199.398C282.222 199.132 284.481 197.943 286.571 196.843C287.69 196.254 288.761 195.69 289.701 195.308C292.926 193.545 294.854 191.987 297.082 190.186C298.163 189.313 299.314 188.382 300.718 187.344C302.67 185.9 304.529 184.538 306.305 183.237C321.362 172.206 330.488 165.519 340.451 149.772C346.631 139.976 353.897 121.943 349.002 117.137C346.11 114.297 330.504 120.391 319.351 127.322C309.779 133.27 311.83 131.705 304.275 135.789C303.027 136.463 301.681 137.19 300.195 137.997C295.409 140.596 291.158 142.863 287.065 145.046C282.195 147.644 277.546 150.124 272.482 152.901C268.759 154.946 266.429 155.783 264.453 156.493C261.618 157.512 259.511 158.269 255.062 161.957C249.398 166.634 245.187 170.741 240.511 177.822C240.511 177.822 237.926 181.611 235.835 183.643C233.169 186.235 233.323 186.213 230.109 188.551C229.348 189.104 226.979 190.736 225.966 191.481C220.678 195.372 212.938 198.314 205.959 200.704C195.523 203.398 189.862 203.806 184.681 199.67C179.575 195.561 179.649 189.793 186.161 184.106C198.114 173.63 212.101 164.324 229.271 159.29C255.692 151.562 275.829 137.34 282.621 129.582C288.856 122.461 291.346 118.119 294.116 113.288C294.364 112.856 294.614 112.419 294.869 111.977C297.978 106.589 297.406 100.097 289.413 100.56C286.194 100.75 278.445 102.154 275.337 102.889C268.008 104.577 261.319 106.177 254.682 107.765C248.045 109.353 236.801 112.006 230.523 113.438C224.245 114.871 217.746 116.818 211.233 118.77C204.386 120.821 197.522 122.878 190.879 124.348C187.343 125.13 181.559 126.567 175.31 128.119C173.831 128.487 172.26 128.898 170.574 129.339C165.137 130.761 158.503 132.495 149.889 134.099C138.602 136.2 136.37 135.901 130.68 135.13C127.891 134.752 121.994 132.307 122.294 129.312C122.542 126.84 124.781 124.98 129.025 121.455C131.053 119.77 131.381 119.5 131.381 119.5C131.381 119.5 130.989 119.821 131.989 118.97ZM238.626 36.9059C255.167 28.8517 266.052 20.594 262.678 18.2942C260.174 16.5874 244.954 29.015 238.626 36.9059ZM191.046 194.772C187.285 187.115 224.239 166.185 237.71 165.023C237.71 165.023 237.111 169.516 232.499 174.021C231.946 174.561 231.792 174.955 231.524 175.246C230.957 175.862 230.171 177.209 226.814 180.063C223.894 182.547 221.895 183.643 218.665 185.908C216.487 187.436 214.153 188.934 211.03 190.665C205.099 193.954 192.975 198.196 191.046 194.772Z" fill="#91BC73"/>
<path d="M601.838 147.473V142.441H602.197C603.874 142.441 605.432 142.281 606.869 141.962C608.387 141.562 609.625 140.764 610.583 139.566C611.542 138.368 612.021 136.531 612.021 134.055V96.6778C612.021 94.2019 611.542 92.4049 610.583 91.2868C609.705 90.0888 608.507 89.2901 606.989 88.8908C605.472 88.4915 603.874 88.2918 602.197 88.2918H601.838V83.2603H631.788V88.2918H631.428C629.831 88.2918 628.393 88.4915 627.116 88.8908C625.918 89.2901 624.959 90.0888 624.24 91.2868C623.601 92.4848 623.282 94.2818 623.282 96.6778V111.533H631.069L639.694 101.35C642.011 98.6345 643.488 96.558 644.127 95.1204C644.846 93.6828 645.205 92.4049 645.205 91.2868C645.205 90.1687 644.806 89.4099 644.007 89.0106C643.209 88.5314 641.931 88.2918 640.174 88.2918V83.2603H665.571V88.2918C663.654 88.2918 661.817 88.7311 660.06 89.6096C658.303 90.4083 656.546 91.6462 654.789 93.3234C653.032 94.9207 651.075 96.9573 648.919 99.4331L637.059 113.33L638.017 108.059L654.909 132.617C656.267 134.614 657.584 136.371 658.862 137.889C660.14 139.326 661.498 140.444 662.935 141.243C664.373 142.042 665.93 142.441 667.608 142.441H667.967V147.473H666.29C662.935 147.473 660.14 147.353 657.904 147.113C655.747 146.794 653.871 146.235 652.273 145.436C650.756 144.637 649.318 143.479 647.961 141.962C646.603 140.444 645.085 138.408 643.408 135.852L631.069 117.523H623.282V134.055C623.282 136.451 623.641 138.248 624.36 139.446C625.079 140.644 626.037 141.443 627.235 141.842C628.513 142.241 629.911 142.441 631.428 142.441H631.788V147.473H601.838Z" fill="#212121"/>
<path fill-rule="evenodd" clip-rule="evenodd" d="M502.51 148.671C496.2 148.671 490.849 147.433 486.457 144.957C482.144 142.401 478.869 138.648 476.633 133.696C475.28 130.7 474.337 127.266 473.802 123.393L485.507 116.505C485.581 121.874 486.138 126.486 487.176 130.342C488.294 134.495 490.091 137.649 492.566 139.806C495.122 141.882 498.437 142.92 502.51 142.92C506.663 142.92 509.977 141.882 512.453 139.806C514.929 137.649 516.726 134.495 517.844 130.342C518.343 128.489 518.73 126.462 519.006 124.261L531.504 120.668C531.047 125.673 529.928 130.015 528.147 133.696C525.751 138.648 522.356 142.401 517.964 144.957C513.651 147.433 508.5 148.671 502.51 148.671ZM531.175 106.817C530.633 103.088 529.704 99.7878 528.386 96.9176C526.15 91.9659 522.836 88.2521 518.443 85.7763C514.13 83.3004 508.819 82.0625 502.51 82.0625C496.6 82.0625 491.448 83.3004 487.056 85.7763C482.663 88.2521 479.269 91.9659 476.873 96.9176C475.64 99.4249 474.75 102.099 474.152 105.262C478.784 105.081 481.379 105.031 486.154 105.177C486.421 103.271 486.734 101.76 487.176 100.152C488.294 96.079 490.091 93.0041 492.566 90.9276C495.122 88.8511 498.437 87.8129 502.51 87.8129C506.663 87.8129 509.977 88.8511 512.453 90.9276C514.929 93.0041 516.726 96.079 517.844 100.152C518.851 103.82 519.405 108.266 519.505 113.489L531.175 106.817Z" fill="#212121"/>
<path fill-rule="evenodd" clip-rule="evenodd" d="M359.796 142.441V147.473H384.464C386.799 145.278 388.262 144.163 391.228 142.437C389.635 142.406 388.143 142.208 386.751 141.842C385.314 141.443 384.116 140.644 383.157 139.446C382.279 138.168 381.839 136.291 381.839 133.815V89.2502H390.106C391.942 89.2502 393.38 89.5697 394.418 90.2086C395.457 90.8475 396.255 91.9257 396.814 93.4432C397.453 94.8808 398.012 96.9573 398.491 99.6727L399.33 104.345H404.961L404.242 83.2603H348.176L347.457 104.345H353.088L353.926 99.6727C354.405 96.9573 354.925 94.8808 355.484 93.4432C356.122 91.9257 356.961 90.8475 357.999 90.2086C359.038 89.5697 360.475 89.2502 362.312 89.2502H370.578V133.815C370.578 136.291 370.099 138.168 369.141 139.446C368.262 140.644 367.064 141.443 365.547 141.842C364.109 142.241 362.512 142.441 360.755 142.441H359.796Z" fill="#212121"/>
<path d="M392.621 142.441H391.663C391.517 142.441 391.372 142.44 391.228 142.437C388.262 144.163 386.799 145.278 384.464 147.473H392.621V142.441Z" fill="#212121"/>
<path fill-rule="evenodd" clip-rule="evenodd" d="M248.846 149.549L248.192 151.034L256.721 147.053L275.061 97.6361C276.019 95.0804 276.898 93.1237 277.696 91.766C278.495 90.4083 279.373 89.4898 280.332 89.0106C281.37 88.5314 282.648 88.2918 284.165 88.2918H284.525V83.2603H259.846V88.2918H260.206C262.841 88.2918 264.798 88.771 266.076 89.7294C267.434 90.6079 268.112 92.0855 268.112 94.162C268.112 94.8009 268.033 95.5996 267.873 96.558C267.713 97.4365 267.434 98.3549 267.034 99.3133L258.528 122.674C258.049 124.112 257.49 125.629 256.851 127.227C256.292 128.824 255.653 130.541 254.934 132.378C254.614 133.299 254.264 134.29 253.883 135.351C253.446 134.138 252.998 132.948 252.539 131.779C251.74 129.543 250.941 127.426 250.143 125.43C249.344 123.353 248.585 121.476 247.866 119.799L239.121 98.4747C238.802 97.5962 238.562 96.7976 238.402 96.0788C238.242 95.36 238.163 94.6811 238.163 94.0422C238.163 92.0455 238.722 90.6079 239.84 89.7294C241.038 88.771 242.835 88.2918 245.231 88.2918H245.59V83.2603H216.838V88.2918H217.198C219.514 88.2918 221.231 88.7311 222.349 89.6096C223.467 90.4881 224.545 92.1653 225.584 94.6412L248.846 149.549Z" fill="#212121"/>
<path d="M224.506 167.359V168.557C224.506 169.42 224.567 170.221 224.69 170.96L229.343 167.046C228.896 167.006 228.442 166.951 227.98 166.88C226.941 166.8 225.823 166.64 224.625 166.401C224.545 166.72 224.506 167.04 224.506 167.359Z" fill="#212121"/>
<path d="M141.331 96.9174C141.331 94.963 141.357 93.7051 141.87 92.5447C137.564 94.6979 135.193 95.3998 131.409 96.5198C130.982 96.6461 130.538 96.7777 130.07 96.9174V103.327C134.341 101.606 136.797 100.575 141.331 98.5346V96.9174Z" fill="#212121"/>
<path fill-rule="evenodd" clip-rule="evenodd" d="M85.2652 146.275C86.4632 147.872 88.5398 148.671 91.4948 148.671C96.9257 148.671 101.199 145.196 104.313 138.248C107.428 131.3 109.345 120.957 110.064 107.22L111.022 89.2502H130.07V96.9174C130.538 96.7777 130.982 96.6461 131.409 96.5198C135.193 95.3998 137.564 94.6979 141.87 92.5447C142.028 92.1876 142.442 91.5687 142.649 91.2868C143.607 90.0888 144.805 89.2901 146.243 88.8908C147.76 88.4915 149.398 88.2918 151.155 88.2918H151.514V83.2603H93.5314V88.2918H96.5264C99.0821 88.2918 100.959 88.8109 102.157 89.8492C103.355 90.8875 103.954 92.8042 103.954 95.5996C103.954 96.4781 103.914 97.3566 103.834 98.2351C103.834 99.1137 103.794 99.9922 103.714 100.871C103.714 101.669 103.674 102.508 103.595 103.386C103.595 104.265 103.555 105.144 103.475 106.022C102.916 114.648 101.957 121.276 100.6 125.909C99.3217 130.461 97.6445 133.616 95.568 135.373C93.4915 137.13 90.8958 138.008 87.781 138.008C87.1421 138.008 86.4632 137.969 85.7444 137.889C85.1055 137.809 84.4267 137.729 83.7079 137.649C83.628 137.969 83.5481 138.408 83.4683 138.967V140.404C83.4683 142.721 84.0673 144.677 85.2652 146.275ZM141.331 107.22V98.5346C136.797 100.575 134.341 101.606 130.07 103.327V116.055L141.331 107.22Z" fill="#212121"/>
<path d="M231.692 104.546C244.339 112.63 264.85 135.018 245.724 159.9" stroke="#41721E" stroke-width="6.12265" stroke-linecap="round"/>
<path d="M227.052 92.7615C226.18 96.3264 230.894 105.415 230.894 105.415C230.894 105.415 239.291 99.4452 240.163 95.8802C241.034 92.3153 238.806 88.7271 235.186 87.8659C231.565 87.0047 227.924 89.1965 227.052 92.7615Z" fill="#41721E"/>
<path d="M238.802 103.873C237.931 107.438 242.645 116.527 242.645 116.527C242.645 116.527 251.041 110.557 251.913 106.992C252.785 103.427 250.557 99.8385 246.936 98.9772C243.316 98.116 239.674 100.308 238.802 103.873Z" fill="#41721E"/>
<path d="M248.862 117.572C247.99 121.137 252.704 130.226 252.704 130.226C252.704 130.226 261.1 124.256 261.972 120.691C262.844 117.126 260.616 113.538 256.995 112.677C253.375 111.816 249.733 114.008 248.862 117.572Z" fill="#41721E"/>
<path d="M258.942 139.296C255.859 141.35 253.126 151.193 253.126 151.193C253.126 151.193 263.416 152.357 266.499 150.303C269.581 148.249 270.389 144.12 268.302 141.08C266.215 138.041 262.024 137.242 258.942 139.296Z" fill="#41721E"/>
<path d="M220.422 99.9234C223.994 98.8935 233.434 103.095 233.434 103.095C233.434 103.095 227.787 111.646 224.215 112.676C220.643 113.706 216.898 111.686 215.851 108.165C214.804 104.643 216.85 100.953 220.422 99.9234Z" fill="#41721E"/>
<path d="M232.171 111.036C235.743 110.006 245.183 114.208 245.183 114.208C245.183 114.208 239.536 122.759 235.964 123.789C232.392 124.819 228.647 122.799 227.6 119.277C226.553 115.756 228.599 112.066 232.171 111.036Z" fill="#41721E"/>
<path d="M242.231 124.737C245.803 123.707 255.243 127.908 255.243 127.908C255.243 127.908 249.596 136.46 246.024 137.49C242.452 138.52 238.708 136.5 237.66 132.978C236.613 129.456 238.659 125.767 242.231 124.737Z" fill="#41721E"/>
<path d="M245.81 141.186C249.501 141.669 256.414 149.271 256.414 149.271C256.414 149.271 247.735 154.832 244.043 154.349C240.352 153.866 237.755 150.528 238.243 146.893C238.73 143.258 242.118 140.703 245.81 141.186Z" fill="#41721E"/>
<path d="M238.799 156.727C241.727 154.463 252.074 154.909 252.074 154.909C252.074 154.909 250.054 164.917 247.126 167.18C244.198 169.444 239.961 168.939 237.661 166.052C235.362 163.166 235.871 158.991 238.799 156.727Z" fill="#41721E"/>
<path d="M251.129 162.543C249.078 159.481 250.371 149.357 250.371 149.357C250.371 149.357 260.327 152.17 262.377 155.233C264.428 158.296 263.573 162.415 260.466 164.434C257.36 166.452 253.179 165.606 251.129 162.543Z" fill="#41721E"/>
<path d="M225.497 89.6978C228.331 92.0782 229.946 102.158 229.946 102.158C229.946 102.158 219.59 102.183 216.756 99.8027C213.922 97.4224 213.581 93.2306 215.995 90.4402C218.409 87.6498 222.663 87.3174 225.497 89.6978Z" fill="#41721E"/>
<path d="M448.865 104.631C461.527 100.668 487.457 99.3009 489.886 125.541" stroke="#41721E" stroke-width="5.62669" stroke-linecap="round"/>
<path d="M437.939 100.235C439.805 103.057 448.941 105.682 448.941 105.682C448.941 105.682 450.193 96.3836 448.326 93.5612C446.46 90.7387 442.621 89.9446 439.753 91.7874C436.885 93.6303 436.072 97.4122 437.939 100.235Z" fill="#41721E"/>
<path d="M452.888 99.5067C454.755 102.329 463.891 104.954 463.891 104.954C463.891 104.954 465.142 95.6556 463.276 92.8332C461.41 90.0107 457.571 89.2166 454.703 91.0594C451.834 92.9023 451.022 96.6842 452.888 99.5067Z" fill="#41721E"/>
<path d="M468.526 101.524C470.392 104.347 479.528 106.971 479.528 106.971C479.528 106.971 480.78 97.6732 478.913 94.8507C477.047 92.0283 473.208 91.2342 470.34 93.077C467.471 94.9198 466.659 98.7018 468.526 101.524Z" fill="#41721E"/>
<path d="M438.622 109.122C440.178 106.117 448.978 102.54 448.978 102.54C448.978 102.54 451.206 111.655 449.65 114.66C448.094 117.664 444.363 118.86 441.318 117.331C438.273 115.802 437.066 112.126 438.622 109.122Z" fill="#41721E"/>
<path d="M453.571 108.394C455.127 105.389 463.928 101.812 463.928 101.812C463.928 101.812 466.155 110.927 464.599 113.932C463.043 116.936 459.313 118.132 456.268 116.603C453.222 115.074 452.015 111.398 453.571 108.394Z" fill="#41721E"/>
<path d="M469.209 110.412C470.765 107.408 479.566 103.831 479.566 103.831C479.566 103.831 481.793 112.946 480.237 115.95C478.681 118.955 474.951 120.151 471.905 118.622C468.86 117.092 467.653 113.417 469.209 110.412Z" fill="#41721E"/>
<path d="M434.885 99.3284C438.288 98.9614 446.141 104.248 446.141 104.248C446.141 104.248 439.62 111.086 436.217 111.453C432.814 111.82 429.757 109.403 429.39 106.055C429.022 102.707 431.483 99.6955 434.885 99.3284Z" fill="#41721E"/>
<path d="M521.569 87.8569C506.305 93.6768 479.596 113.379 494.098 144.086" stroke="#41721E" stroke-width="6.65824" stroke-linecap="square"/>
<path d="M529.243 76.3928C529.342 80.3718 522.193 88.9929 522.193 88.9929C522.193 88.9929 514.629 80.8065 514.531 76.8275C514.432 72.8486 517.646 69.5257 521.709 69.4057C525.772 69.2856 529.145 72.4139 529.243 76.3928Z" fill="#41721E"/>
<path d="M514.194 85.5955C514.292 89.5744 507.143 98.1956 507.143 98.1956C507.143 98.1956 499.579 90.0091 499.481 86.0302C499.382 82.0512 502.596 78.7284 506.659 78.6083C510.722 78.4883 514.095 81.6165 514.194 85.5955Z" fill="#41721E"/>
<path d="M500.348 97.926C500.447 101.905 493.298 110.526 493.298 110.526C493.298 110.526 485.734 102.34 485.636 98.3607C485.537 94.3818 488.751 91.0589 492.814 90.9389C496.877 90.8189 500.25 93.9471 500.348 97.926Z" fill="#41721E"/>
<path d="M485.487 120.733C489 122.696 492.782 133.139 492.782 133.139C492.782 133.139 481.724 135.294 478.211 133.332C474.698 131.37 473.479 126.959 475.488 123.48C477.497 120.001 481.974 118.771 485.487 120.733Z" fill="#41721E"/>
<path d="M534.631 85.485C531.074 83.6001 520.067 85.9961 520.067 85.9961C520.067 85.9961 524.083 96.3541 527.639 98.239C531.196 100.124 535.644 98.7968 537.574 95.2748C539.505 91.7529 538.187 87.3698 534.631 85.485Z" fill="#41721E"/>
<path d="M519.582 94.6861C516.026 92.8013 505.018 95.1973 505.018 95.1973C505.018 95.1973 509.034 105.555 512.59 107.44C516.147 109.325 520.595 107.998 522.526 104.476C524.456 100.954 523.138 96.571 519.582 94.6861Z" fill="#41721E"/>
<path d="M505.737 107.018C502.181 105.133 491.174 107.529 491.174 107.529C491.174 107.529 495.189 117.887 498.746 119.772C502.302 121.657 506.75 120.33 508.681 116.808C510.612 113.286 509.294 108.903 505.737 107.018Z" fill="#41721E"/>
<path d="M498.683 122.894C494.655 122.595 485.558 129.191 485.558 129.191C485.558 129.191 493.475 137.05 497.503 137.349C501.53 137.648 505.06 134.654 505.385 130.663C505.711 126.671 502.71 123.193 498.683 122.894Z" fill="#41721E"/>
<path d="M504.883 144.049C501.654 141.66 490.412 142.408 490.412 142.408C490.412 142.408 492.812 153.245 496.042 155.634C499.272 158.023 503.869 157.366 506.31 154.166C508.752 150.967 508.113 146.437 504.883 144.049Z" fill="#41721E"/>
<path d="M531.588 73.5088C528.021 75.4164 523.96 85.7771 523.96 85.7771C523.96 85.7771 534.968 88.0799 538.535 86.1723C542.102 84.2647 543.438 79.8834 541.52 76.3865C539.601 72.8896 535.155 71.6012 531.588 73.5088Z" fill="#41721E"/>
<path d="M659.13 80.5352C654.385 92.8813 641.653 100.222 642.446 124.408" stroke="#41721E" stroke-width="5.4477" stroke-linecap="round"/>
<path d="M668.766 74.4081C665.448 74.3096 658.293 79.986 658.293 79.986C658.293 79.986 665.155 86.0783 668.474 86.1767C671.792 86.2752 674.547 83.7205 674.628 80.4707C674.709 77.2208 672.084 74.5065 668.766 74.4081Z" fill="#41721E"/>
<path d="M661.123 86.538C657.805 86.4395 650.651 92.1159 650.651 92.1159C650.651 92.1159 657.513 98.2082 660.831 98.3066C664.149 98.4051 666.905 95.8504 666.986 92.6005C667.066 89.3507 664.442 86.6364 661.123 86.538Z" fill="#41721E"/>
<path d="M653.818 98.6937C650.499 98.5953 643.345 104.272 643.345 104.272C643.345 104.272 650.207 110.364 653.525 110.462C656.844 110.561 659.599 108.006 659.68 104.756C659.761 101.506 657.136 98.7922 653.818 98.6937Z" fill="#41721E"/>
<path d="M647.542 114.902C644.387 115.871 639.534 123.574 639.534 123.574C639.534 123.574 648.005 127.184 651.16 126.215C654.314 125.246 656.062 121.928 655.063 118.804C654.064 115.68 650.696 113.933 647.542 114.902Z" fill="#41721E"/>
<path d="M661.204 70.0265C662.782 72.9054 660.85 81.7749 660.85 81.7749C660.85 81.7749 652.254 78.4833 650.676 75.6044C649.098 72.7254 650.176 69.1429 653.083 67.6026C655.99 66.0623 659.626 67.1475 661.204 70.0265Z" fill="#41721E"/>
<path d="M645.849 93.5489C647.427 96.4279 645.496 105.297 645.496 105.297C645.496 105.297 636.899 102.006 635.322 99.1269C633.744 96.2479 634.822 92.6654 637.729 91.1251C640.636 89.5848 644.272 90.67 645.849 93.5489Z" fill="#41721E"/>
<path d="M638.79 109.228C641.495 111.126 643.744 119.935 643.744 119.935C643.744 119.935 634.569 120.726 631.864 118.827C629.16 116.929 628.518 113.241 630.43 110.59C632.343 107.939 636.086 107.329 638.79 109.228Z" fill="#41721E"/>
<path d="M634.418 123.973C636.779 121.696 645.976 121.126 645.976 121.126C645.976 121.126 645.197 130.173 642.835 132.45C640.474 134.726 636.675 134.674 634.35 132.333C632.026 129.993 632.056 126.249 634.418 123.973Z" fill="#41721E"/>
<path d="M671.211 72.4956C669.639 75.3594 661.031 78.5785 661.031 78.5785C661.031 78.5785 659.061 69.7005 660.632 66.8367C662.204 63.9729 665.846 62.9182 668.767 64.4808C671.688 66.0435 672.782 69.6318 671.211 72.4956Z" fill="#41721E"/>
<path d="M642.12 70.4048C644.486 80.9596 644.057 76.2581 651.094 92.9535" stroke="#41721E" stroke-width="5.4477" stroke-linecap="round"/>
<path d="M633.888 62.5638C637.148 63.0818 643.045 70.0321 643.045 70.0321C643.045 70.0321 635.168 74.794 631.907 74.2759C628.647 73.7579 626.447 70.716 626.994 67.4818C627.54 64.2476 630.627 62.0457 633.888 62.5638Z" fill="#41721E"/>
<path d="M639.07 75.8982C642.331 76.4163 648.227 83.3665 648.227 83.3665C648.227 83.3665 640.351 88.1284 637.09 87.6104C633.829 87.0923 631.629 84.0505 632.176 80.8163C632.723 77.5821 635.81 75.3802 639.07 75.8982Z" fill="#41721E"/>
<path d="M642.141 59.7147C640.041 62.2512 640.234 71.3255 640.234 71.3255C640.234 71.3255 649.3 69.6851 651.401 67.1485C653.502 64.6119 653.132 60.8915 650.575 58.8387C648.018 56.7859 644.242 57.1781 642.141 59.7147Z" fill="#41721E"/>
</svg>
