<svg width="24" height="24" viewBox="0 0 24 24" fill="none" xmlns="http://www.w3.org/2000/svg">
<path d="M12 22.75C6.07 22.75 1.25 17.93 1.25 12C1.25 6.07 6.07 1.25 12 1.25C17.93 1.25 22.75 6.07 22.75 12C22.75 17.93 17.93 22.75 12 22.75ZM12 2.75C6.9 2.75 2.75 6.9 2.75 12C2.75 17.1 6.9 21.25 12 21.25C17.1 21.25 21.25 17.1 21.25 12C21.25 6.9 17.1 2.75 12 2.75Z" fill="#212121"/>
<path d="M14.2982 15.3587L8.6413 9.70189C8.35139 9.41198 8.35139 8.93114 8.6413 8.64123C8.93121 8.35132 9.41205 8.35132 9.70196 8.64123L15.3588 14.2981C15.6487 14.588 15.6487 15.0688 15.3588 15.3587C15.0689 15.6487 14.5881 15.6487 14.2982 15.3587Z" fill="#212121"/>
<path d="M8.64118 15.3587C8.35127 15.0688 8.35127 14.588 8.64118 14.2981L14.298 8.64123C14.588 8.35132 15.0688 8.35132 15.3587 8.64123C15.6486 8.93114 15.6486 9.41198 15.3587 9.70189L9.70185 15.3587C9.41193 15.6487 8.9311 15.6487 8.64118 15.3587Z" fill="#212121"/>
</svg>
