<svg width="312" height="68" viewBox="0 0 312 68" fill="none" xmlns="http://www.w3.org/2000/svg">
<path d="M114.797 44.7072C114.953 45.6957 115.066 46.4553 115.28 47.8704C113.277 47.2981 111.842 46.8923 110.748 46.5801C106.77 47.371 102.906 48.141 98.7867 48.963C98.4884 49.6914 98.048 50.5342 97.8207 51.4187C96.7553 55.3832 93.2749 58.1719 89.2831 60.6276C84.8509 63.3434 80.4613 66.1009 74.8501 67.5993C72.222 68.2964 69.8212 68.0051 67.5625 67.3287C64.0253 66.2777 63.2724 63.9469 66.0567 61.7514C70.219 58.4736 74.6512 55.3416 79.3249 52.4697C91.5702 44.9465 104.512 38.0685 117.723 31.461C120.905 29.8689 123.846 28.0063 126.616 25.6339C125.323 25.7067 124.016 25.6651 122.752 25.8628C108.631 28.0272 94.5818 30.4516 80.4045 32.3662C68.5427 33.9687 56.5388 35.1029 44.5634 36.2267C36.9491 36.9447 29.278 37.3297 21.6211 37.7563C19.6607 37.8604 18.4106 38.1725 17.8566 39.7229C17.2742 41.3358 16.2798 42.8654 15.2854 44.78C10.356 44.5823 5.17089 44.3846 0 44.1765C0.284115 38.0789 4.972 34.822 12.5295 34.926C18.4959 34.9989 24.5049 35.4151 30.4003 35.0092C44.2935 34.0519 58.2151 33.105 71.9663 31.4193C90.5332 29.1405 108.93 26.1542 127.411 23.5112C129.656 23.1886 131.943 23.0429 133.974 22.8348C135.224 24.3644 134.031 24.8639 133.023 25.405C125.067 29.6712 117.069 33.9063 109.143 38.1933C105.421 40.212 101.813 42.3451 97.977 44.5199C100.548 46.3721 102.764 45.6437 105.009 45.1962C110.691 44.062 115.649 41.8353 120.536 39.5669C133.932 33.3756 147.285 27.1427 160.525 20.7849C169.602 16.4354 179.078 12.6686 188.894 9.30767C192.019 8.2359 195.016 6.88319 198.284 6.15481C210.529 3.39735 222.973 2.00303 235.872 3.01236C245.646 3.78236 255.306 5.17669 265.079 5.76981C270.506 6.10278 276.032 5.29118 281.515 5.23915C289.357 5.17672 296.616 3.34535 303.946 1.69087C305.565 1.32668 306.958 0.410978 308.577 0.0780023C309.543 -0.119702 311.361 0.0675993 311.731 0.535846C312.626 1.69086 311.106 2.28397 309.856 2.26316C306.134 2.20073 303.605 4.24019 300.324 4.91655C297.014 5.59291 293.789 6.70632 290.422 7.02889C282.95 7.73647 275.407 8.6001 267.92 8.43361C258.559 8.2255 249.254 7.00807 239.907 6.3005C236.327 6.02995 232.718 5.81145 229.124 5.79064C223.641 5.75942 218.158 5.81143 212.688 6.02994C205.017 6.3317 198.099 8.61053 191.266 10.931C183.609 13.5323 176.194 16.3834 168.992 19.7444C159.786 24.0418 150.794 28.5891 141.574 32.8657C134.557 36.1122 127.255 39.0154 120.11 42.1058C118.391 42.8654 116.757 43.7499 114.797 44.7072ZM69.0257 64.0926C70.6594 65.7367 72.776 65.1644 74.5518 64.6233C81.4699 62.4797 87.1949 59.0667 91.9964 54.9045C93.4454 53.6455 94.1983 51.8661 94.8802 50.2325C95.6047 48.5052 94.1414 47.5479 91.7549 48.089C90.7463 48.3179 89.7803 48.7757 88.9706 49.2856C84.8083 51.8974 80.5323 54.4363 76.6116 57.2354C73.8556 59.202 70.219 60.69 69.0257 64.0926ZM2.99741 42.0538C6.23632 42.0538 8.16829 42.3347 9.84457 41.9705C11.322 41.648 12.7426 40.7427 13.7228 39.8374C14.5751 39.0466 13.9926 37.7147 12.6005 37.7459C10.3702 37.7979 8.04044 38.2245 6.00902 38.9113C4.92939 39.2651 4.40378 40.5137 2.99741 42.0538Z" fill="#1341B3"/>
</svg>
