<svg width="750" height="230" viewBox="0 0 750 230" fill="none" xmlns="http://www.w3.org/2000/svg">
<path d="M119.545 85.0171L122.854 93.7749C89.1922 100.949 84.6535 99.1786 84.6535 108.589C87.112 119.303 96.9458 135.514 99.3097 141.197C102.508 148.887 98.4587 156.943 94.2037 161.974C90.7997 165.999 75.0718 170.11 67.6334 171.663L55.7193 174.831L61.8654 168.682L53.3554 164.489C58.9027 165.11 73.3257 164.471 86.6392 156.943C103.281 147.533 78.5073 124.148 77.4672 108.589C76.6351 96.1413 105.172 87.6879 119.545 85.0171Z" fill="#B2D0FE"/>
<path d="M151.766 71.9305C147.727 75.728 135.842 83.805 120.617 85.7328C111.967 86.8282 111.199 92.7696 117.675 94.2452C122.855 95.4257 137.909 89.3384 144.788 86.1472L156.224 81.5783L147.556 80.3377L151.766 71.9305Z" fill="#B2D0FE"/>
<path d="M601.839 147.473V142.441H602.198C603.875 142.441 605.433 142.281 606.87 141.962C608.388 141.562 609.626 140.764 610.584 139.566C611.543 138.368 612.022 136.531 612.022 134.055V96.6778C612.022 94.2019 611.543 92.4049 610.584 91.2868C609.706 90.0888 608.508 89.2901 606.99 88.8908C605.473 88.4915 603.875 88.2918 602.198 88.2918H601.839V83.2603H631.789V88.2918H631.429C629.832 88.2918 628.394 88.4915 627.116 88.8908C625.918 89.2901 624.96 90.0888 624.241 91.2868C623.602 92.4848 623.283 94.2818 623.283 96.6778V111.533H631.07L639.695 101.35C642.011 98.6345 643.489 96.558 644.128 95.1204C644.847 93.6828 645.206 92.4049 645.206 91.2868C645.206 90.1687 644.807 89.4099 644.008 89.0106C643.209 88.5314 641.932 88.2918 640.175 88.2918V83.2603H665.572V88.2918C663.655 88.2918 661.818 88.7311 660.061 89.6096C658.304 90.4083 656.547 91.6462 654.79 93.3234C653.033 94.9207 651.076 96.9573 648.92 99.4331L637.06 113.33L638.018 108.059L654.91 132.617C656.268 134.614 657.585 136.371 658.863 137.889C660.141 139.326 661.499 140.444 662.936 141.243C664.374 142.042 665.931 142.441 667.609 142.441H667.968V147.473H666.291C662.936 147.473 660.141 147.353 657.905 147.113C655.748 146.794 653.872 146.235 652.274 145.436C650.757 144.637 649.319 143.479 647.962 141.962C646.604 140.444 645.086 138.408 643.409 135.852L631.07 117.523H623.283V134.055C623.283 136.451 623.642 138.248 624.361 139.446C625.08 140.644 626.038 141.443 627.236 141.842C628.514 142.241 629.912 142.441 631.429 142.441H631.789V147.473H601.839Z" fill="#212121"/>
<path d="M502.51 148.671C496.201 148.671 490.85 147.433 486.457 144.957C482.144 142.401 478.87 138.648 476.634 133.696C474.397 128.744 473.279 122.595 473.279 115.247C473.279 107.899 474.477 101.789 476.873 96.9176C479.269 91.9659 482.664 88.2521 487.056 85.7763C491.449 83.3004 496.6 82.0625 502.51 82.0625C508.82 82.0625 514.131 83.3004 518.444 85.7763C522.836 88.2521 526.151 91.9659 528.387 96.9176C530.623 101.789 531.741 107.899 531.741 115.247C531.741 122.595 530.543 128.744 528.147 133.696C525.751 138.648 522.357 142.401 517.964 144.957C513.652 147.433 508.5 148.671 502.51 148.671ZM502.51 142.92C506.663 142.92 509.978 141.882 512.454 139.806C514.929 137.649 516.726 134.495 517.845 130.342C518.963 126.188 519.522 121.157 519.522 115.247C519.522 109.257 518.963 104.225 517.845 100.152C516.726 96.079 514.929 93.0041 512.454 90.9276C509.978 88.8511 506.663 87.8129 502.51 87.8129C498.437 87.8129 495.123 88.8511 492.567 90.9276C490.091 93.0041 488.294 96.079 487.176 100.152C486.058 104.225 485.499 109.257 485.499 115.247C485.499 121.157 486.058 126.188 487.176 130.342C488.294 134.495 490.091 137.649 492.567 139.806C495.123 141.882 498.437 142.92 502.51 142.92Z" fill="#212121"/>
<path d="M359.797 147.473V142.441H360.755C362.513 142.441 364.11 142.241 365.547 141.842C367.065 141.443 368.263 140.644 369.141 139.446C370.1 138.168 370.579 136.291 370.579 133.815V89.2502H362.313C360.476 89.2502 359.038 89.5697 358 90.2086C356.962 90.8475 356.123 91.9257 355.484 93.4432C354.925 94.8808 354.406 96.9573 353.927 99.6727L353.088 104.345H347.458L348.177 83.2603H404.243L404.961 104.345H399.331L398.492 99.6727C398.013 96.9573 397.454 94.8808 396.815 93.4432C396.256 91.9257 395.457 90.8475 394.419 90.2086C393.381 89.5697 391.943 89.2502 390.106 89.2502H381.84V133.815C381.84 136.291 382.279 138.168 383.158 139.446C384.116 140.644 385.314 141.443 386.752 141.842C388.269 142.241 389.907 142.441 391.664 142.441H392.622V147.473H359.797Z" fill="#212121"/>
<path d="M233.372 177.422C231.295 177.422 229.578 177.063 228.22 176.344C226.942 175.625 225.984 174.587 225.345 173.229C224.786 171.952 224.506 170.394 224.506 168.557C224.506 168.158 224.506 167.759 224.506 167.359C224.506 167.04 224.546 166.72 224.626 166.401C225.824 166.64 226.942 166.8 227.981 166.88C229.019 167.04 230.017 167.12 230.976 167.12C234.729 167.12 237.844 166.041 240.32 163.885C242.796 161.729 245.152 158.055 247.388 152.864L251.341 143.879L249.185 150.348L225.585 94.6412C224.546 92.1653 223.468 90.4881 222.35 89.6096C221.232 88.7311 219.515 88.2918 217.199 88.2918H216.839V83.2603H245.591V88.2918H245.232C242.836 88.2918 241.039 88.771 239.841 89.7294C238.723 90.6079 238.164 92.0455 238.164 94.0422C238.164 94.6811 238.243 95.36 238.403 96.0788C238.563 96.7976 238.803 97.5962 239.122 98.4747L247.867 119.799C248.586 121.476 249.345 123.353 250.144 125.43C250.942 127.426 251.741 129.543 252.539 131.779C253.418 134.015 254.257 136.331 255.055 138.727H252.659C253.538 136.331 254.297 134.215 254.935 132.378C255.654 130.541 256.293 128.824 256.852 127.227C257.491 125.629 258.05 124.112 258.529 122.674L267.035 99.3133C267.435 98.3549 267.714 97.4365 267.874 96.558C268.034 95.5996 268.113 94.8009 268.113 94.162C268.113 92.0855 267.435 90.6079 266.077 89.7294C264.799 88.771 262.842 88.2918 260.207 88.2918H259.847V83.2603H284.526V88.2918H284.166C282.649 88.2918 281.371 88.5314 280.333 89.0106C279.374 89.4898 278.496 90.4083 277.697 91.766C276.899 93.1237 276.02 95.0804 275.062 97.6361L255.055 151.546C252.659 157.935 250.383 163.007 248.227 166.76C246.15 170.594 243.954 173.309 241.638 174.907C239.322 176.584 236.566 177.422 233.372 177.422Z" fill="#212121"/>
<path d="M91.4958 148.671C88.5407 148.671 86.4642 147.872 85.2662 146.275C84.0682 144.677 83.4692 142.721 83.4692 140.404C83.4692 139.925 83.4692 139.446 83.4692 138.967C83.5491 138.408 83.629 137.969 83.7088 137.649C84.4276 137.729 85.1065 137.809 85.7454 137.889C86.4642 137.969 87.1431 138.008 87.782 138.008C90.8968 138.008 93.4924 137.13 95.5689 135.373C97.6455 133.616 99.3227 130.461 100.601 125.909C101.958 121.276 102.917 114.648 103.476 106.022C103.556 105.144 103.595 104.265 103.595 103.386C103.675 102.508 103.715 101.669 103.715 100.871C103.795 99.9922 103.835 99.1137 103.835 98.2351C103.915 97.3566 103.955 96.4781 103.955 95.5996C103.955 92.8042 103.356 90.8875 102.158 89.8492C100.96 88.8109 99.0831 88.2918 96.5273 88.2918H93.5324V83.2603H151.515V88.2918H151.156C149.399 88.2918 147.761 88.4915 146.244 88.8908C144.806 89.2901 143.608 90.0888 142.65 91.2868C141.771 92.4848 141.332 94.3616 141.332 96.9174V133.815C141.332 136.291 141.771 138.168 142.65 139.446C143.608 140.644 144.806 141.443 146.244 141.842C147.761 142.241 149.399 142.441 151.156 142.441H151.515V147.473H120.966V142.441H121.326C123.003 142.441 124.48 142.241 125.758 141.842C127.116 141.443 128.154 140.644 128.873 139.446C129.672 138.168 130.071 136.291 130.071 133.815V89.2502H111.023L110.065 107.22C109.346 120.957 107.429 131.3 104.314 138.248C101.2 145.196 96.9267 148.671 91.4958 148.671Z" fill="#212121"/>
<path d="M494.747 123.026C492.581 124.818 494.097 128.05 497.068 128.05H502.359C520.089 128.077 537.788 128.022 555.518 128.131C582.377 128.321 606.419 125.443 628.914 113.766C673.905 90.357 697.709 60.8702 717.667 27.3325C721.442 19.4572 718.966 7.72579 724.845 6.31367C738.615 2.97348 731.591 26.3277 725.217 36.7013C703.433 72.3301 674.214 102.767 624.149 124.899C603.015 134.241 577.581 135.11 552.115 134.621C533.178 134.241 514.148 135.436 495.211 136.088C485.031 136.441 479.121 139.808 475.222 146.271C471.695 152.001 465.94 157.813 458.792 161.805C454.491 164.221 433.666 175.111 418.969 179.266C410.985 181.52 402.105 180.352 409.933 167.589C416.772 156.482 436.173 141.682 451.087 138.831C466.001 135.979 473.954 129.896 480.39 121.396C482.092 119.17 479.709 116.291 476.769 116.943C474.387 117.486 472.283 118.056 470.302 118.545C440.907 125.877 411.635 132.395 382.271 139.808C369.399 143.067 357.269 144.886 346.439 136.468C344.056 134.621 336.383 134.078 332.205 135.002C320.478 137.609 308.689 140.623 298.138 144.751C277.375 152.87 257.355 161.859 235.757 170.983C225.02 175.464 197.11 183.068 189.715 179.266C181.236 174.894 178.885 165.036 185.197 158.41C191.045 152.246 200.173 146.271 209.023 141.112C216.109 137.011 230.775 130.086 240.956 125.035C243.957 123.542 242.688 119.523 239.223 119.604C189.127 120.88 59.9892 126.502 9.39798 124.818C5.3445 124.682 5.03507 119.305 9.08856 119.007C9.1195 119.007 9.15044 119.007 9.18138 119.007C20.9396 118.436 178.513 116.508 223.999 112.543C228.331 112.163 232.694 112 237.057 112.082C266.947 112.652 290.371 102.957 311.381 90.1941C322.149 83.6494 352.875 73.5202 360.549 83.0792C368.842 93.4256 343.128 103.935 332.236 107.547C323.077 110.615 312.34 112.109 302.067 113.412C285.513 115.476 271.001 119.821 257.881 126.556C239.378 136.088 220.564 145.348 202.401 155.151C195.965 158.6 188.941 162.945 194.356 169.3C197.203 172.64 210.91 172.233 219.791 168.458C245.69 157.595 271.589 146.706 296.993 135.409C309.958 129.598 324.191 126.773 339.508 126.366C346.161 126.203 353.927 127.289 359.404 129.543C366.892 132.666 373.39 133.399 381.559 131.417C420.361 122.048 459.473 113.25 497.934 103.365C512.353 99.6444 548.309 83.6494 553.724 82.3731C554.838 82.1015 556.075 82.0472 557.375 82.1287C562.14 82.3459 564.059 88.0216 559.912 90.0854C559.881 90.1126 559.85 90.1126 559.819 90.1397C550.413 94.702 540.48 98.9112 530.238 102.713C516.995 107.791 505.608 113.928 494.747 123.026ZM458.235 145.158C451.087 144.128 428.452 157.716 423.594 164.505C417.746 172.679 422.403 171.146 428.406 168.784C440.226 164.167 445.239 160.8 454.986 152.979C457.616 150.888 462.381 145.755 458.235 145.158ZM317.384 102.985C329.544 100.839 350.647 93.0982 346.439 89.4321C343.995 86.9881 322.985 92.3937 315.218 97.4176C308.442 101.763 308.472 104.56 317.384 102.985Z" fill="#FFCD29"/>
<path d="M601.839 147.473V142.441H602.198C603.875 142.441 605.433 142.281 606.87 141.962C608.388 141.562 609.626 140.764 610.584 139.566C611.543 138.368 612.022 136.531 612.022 134.055V96.6778C612.022 94.2019 611.543 92.4049 610.584 91.2868C609.706 90.0888 608.508 89.2901 606.99 88.8908C605.473 88.4915 603.875 88.2918 602.198 88.2918H601.839V83.2603H631.789V88.2918H631.429C629.832 88.2918 628.394 88.4915 627.116 88.8908C625.918 89.2901 624.96 90.0888 624.241 91.2868C623.602 92.4848 623.283 94.2818 623.283 96.6778V111.533H631.07L639.695 101.35C642.011 98.6345 643.489 96.558 644.128 95.1204C644.847 93.6828 645.206 92.4049 645.206 91.2868C645.206 90.1687 644.807 89.4099 644.008 89.0106C643.209 88.5314 641.932 88.2918 640.175 88.2918V83.2603H665.572V88.2918C663.655 88.2918 661.818 88.7311 660.061 89.6096C658.304 90.4083 656.547 91.6462 654.79 93.3234C653.033 94.9207 651.076 96.9573 648.92 99.4331L637.06 113.33L638.018 108.059L654.91 132.617C656.268 134.614 657.585 136.371 658.863 137.889C660.141 139.326 661.499 140.444 662.936 141.243C664.374 142.042 665.931 142.441 667.609 142.441H667.968V147.473H666.291C662.936 147.473 660.141 147.353 657.905 147.113C655.748 146.794 653.872 146.235 652.274 145.436C650.757 144.637 649.319 143.479 647.962 141.962C646.604 140.444 645.086 138.408 643.409 135.852L631.07 117.523H623.283V134.055C623.283 136.451 623.642 138.248 624.361 139.446C625.08 140.644 626.038 141.443 627.236 141.842C628.514 142.241 629.912 142.441 631.429 142.441H631.789V147.473H601.839Z" fill="#212121"/>
<path fill-rule="evenodd" clip-rule="evenodd" d="M486.457 144.957C490.85 147.433 496.201 148.671 502.51 148.671C508.5 148.671 513.652 147.433 517.964 144.957C520.861 143.271 523.324 141.065 525.353 138.337L515.578 135.961C514.697 137.478 513.655 138.759 512.454 139.806C509.978 141.882 506.663 142.92 502.51 142.92C498.437 142.92 495.123 141.882 492.567 139.806C490.091 137.649 488.294 134.495 487.176 130.342C486.058 126.188 485.499 121.157 485.499 115.247C485.499 109.257 486.058 104.225 487.176 100.152C488.294 96.079 490.091 93.0041 492.567 90.9276C495.123 88.8511 498.437 87.8129 502.51 87.8129C506.663 87.8129 509.978 88.8511 512.454 90.9276C514.929 93.0041 516.726 96.079 517.845 100.152C518.963 104.225 519.522 109.257 519.522 115.247C519.522 118.376 519.365 121.258 519.052 123.895H531.103C531.529 121.225 531.741 118.342 531.741 115.247C531.741 107.899 530.623 101.789 528.387 96.9176C526.151 91.9659 522.836 88.2521 518.444 85.7763C514.131 83.3004 508.82 82.0625 502.51 82.0625C496.6 82.0625 491.449 83.3004 487.056 85.7763C482.664 88.2521 479.269 91.9659 476.873 96.9176C474.477 101.789 473.279 107.899 473.279 115.247C473.279 122.595 474.397 128.744 476.634 133.696C478.87 138.648 482.144 142.401 486.457 144.957Z" fill="#212121"/>
<path fill-rule="evenodd" clip-rule="evenodd" d="M359.797 142.441V147.473H376.21H392.622V142.441H391.664C389.907 142.441 388.269 142.241 386.752 141.842C385.943 141.617 385.209 141.266 384.552 140.788C384.042 140.417 383.577 139.97 383.158 139.446C382.279 138.168 381.84 136.291 381.84 133.815V129.478V89.2502H390.106C391.943 89.2502 393.381 89.5697 394.419 90.2086C395.457 90.8475 396.256 91.9257 396.815 93.4432C397.454 94.8808 398.013 96.9573 398.492 99.6727L399.331 104.345H404.961L404.243 83.2603H365.689L366.446 89.2502H370.579V129.478V133.815C370.579 136.291 370.1 138.168 369.141 139.446C368.263 140.644 367.065 141.443 365.547 141.842C364.916 142.018 364.253 142.154 363.559 142.253C362.675 142.378 361.74 142.441 360.755 142.441H359.797Z" fill="#212121"/>
<path fill-rule="evenodd" clip-rule="evenodd" d="M228.22 176.344C229.578 177.063 231.295 177.422 233.372 177.422C236.566 177.422 239.322 176.584 241.638 174.907C243.644 173.523 245.561 171.299 247.388 168.237L226.435 174.907C226.938 175.478 227.533 175.957 228.22 176.344ZM246.523 154.783L256.028 148.925L275.062 97.6361C276.02 95.0804 276.899 93.1237 277.697 91.766C278.496 90.4083 279.374 89.4898 280.333 89.0106C281.371 88.5314 282.649 88.2918 284.166 88.2918H284.526V83.2603H259.847V88.2918H260.207C262.842 88.2918 264.799 88.771 266.077 89.7294C267.435 90.6079 268.113 92.0855 268.113 94.162C268.113 94.8009 268.034 95.5996 267.874 96.558C267.714 97.4365 267.435 98.3549 267.035 99.3133L258.529 122.674C258.05 124.112 257.491 125.629 256.852 127.227C256.293 128.824 255.654 130.541 254.935 132.378C254.615 133.299 254.265 134.29 253.884 135.351C253.447 134.138 252.999 132.948 252.539 131.779C251.741 129.543 250.942 127.426 250.144 125.43C249.345 123.353 248.586 121.476 247.867 119.799L239.122 98.4747C238.803 97.5962 238.563 96.7976 238.403 96.0788C238.243 95.36 238.164 94.6811 238.164 94.0422C238.164 92.0455 238.723 90.6079 239.841 89.7294C241.039 88.771 242.836 88.2918 245.232 88.2918H245.591V83.2603H216.839V88.2918H217.199C219.515 88.2918 221.232 88.7311 222.35 89.6096C223.468 90.4881 224.546 92.1653 225.585 94.6412L248.847 149.549L247.388 152.864C247.102 153.528 246.813 154.168 246.523 154.783Z" fill="#212121"/>
<path fill-rule="evenodd" clip-rule="evenodd" d="M85.2662 146.275C86.4642 147.872 88.5407 148.671 91.4958 148.671C96.9267 148.671 101.2 145.196 104.314 138.248C107.429 131.3 109.346 120.957 110.065 107.22L111.023 89.2502H130.071V112.956H141.332V96.9174C141.332 94.3616 141.771 92.4848 142.65 91.2868C143.608 90.0888 144.806 89.2901 146.244 88.8908C147.761 88.4915 149.399 88.2918 151.156 88.2918H151.515V83.2603H93.5324V88.2918H96.5273C99.0831 88.2918 100.96 88.8109 102.158 89.8492C103.356 90.8875 103.955 92.8042 103.955 95.5996C103.955 96.4781 103.915 97.3566 103.835 98.2351C103.835 99.1137 103.795 99.9922 103.715 100.871C103.715 101.669 103.675 102.508 103.595 103.386C103.595 104.265 103.556 105.144 103.476 106.022C102.917 114.648 101.958 121.276 100.601 125.909C99.3227 130.461 97.6455 133.616 95.5689 135.373C93.4924 137.13 90.8968 138.008 87.782 138.008C87.1431 138.008 86.4642 137.969 85.7454 137.889C85.1065 137.809 84.4276 137.729 83.7088 137.649C83.629 137.969 83.5491 138.408 83.4692 138.967V140.404C83.4692 142.721 84.0682 144.677 85.2662 146.275ZM130.071 125.909V133.815C130.071 136.291 129.672 138.168 128.873 139.446C128.154 140.644 127.116 141.443 125.758 141.842C124.48 142.241 123.003 142.441 121.326 142.441H120.966V147.473H151.515V142.441H151.156C149.399 142.441 147.761 142.241 146.244 141.842C144.806 141.443 143.608 140.644 142.65 139.446C141.771 138.168 141.332 136.291 141.332 133.815V125.909H130.071Z" fill="#212121"/>
<path d="M404.573 195.778C398.898 187.01 386.155 163.105 380.581 137.639C377.414 123.169 369.67 118.306 369.11 127.733C368.662 135.274 379.513 163.015 384.994 175.942L393.166 196.983L392.978 183.915L404.573 195.778Z" fill="#7F94FF"/>
<path d="M298.322 154.034C309.441 151.802 337.78 143.833 362.192 129.817C376.062 121.853 385.548 123.79 378.408 130.789C372.695 136.389 342.652 148.357 328.345 153.641L305.6 162.757L309.287 156.697L298.322 154.034Z" fill="#7F94FF"/>
<path d="M404.636 151C399.48 148.836 387.244 140.771 379.542 125.825C375.167 117.333 369.243 119.783 370.345 127.399C371.226 133.491 382.801 145.977 388.478 151.459L397.219 160.974L395.048 151.183L404.636 151Z" fill="#FFAFF7"/>
<path d="M428.274 127.069C420.508 128.633 400.294 130.032 381.565 123.117C370.924 119.188 365.005 124.883 371.017 130.199C375.826 134.451 397.904 136.964 408.341 137.689L425.065 139.655L416.393 133.3L428.274 127.069Z" fill="#B2D0FE"/>
<path d="M333.99 161.253C340.223 157.623 355.522 146.276 366.853 129.923C373.292 120.633 379.601 121.069 377.036 128.519C374.984 134.479 359.674 149.746 352.276 156.634L340.7 168.243L344.855 158.429L333.99 161.253Z" fill="#B2D0FE"/>
<path d="M369.678 193.86C368.957 184.91 369.422 161.394 377.047 138.922C381.379 126.153 376.884 119.707 371.724 127.179C367.596 133.156 363.548 159.176 362.04 171.439L358.919 191.156L365.212 180.487L369.678 193.86Z" fill="#FFAFF7"/>
<path d="M387.467 124.7C384.094 125.926 374.729 122.508 374.729 122.508C374.729 122.508 379.612 113.912 382.985 112.686C386.358 111.461 390.096 113.157 391.334 116.474C392.572 119.792 390.84 123.474 387.467 124.7Z" fill="#7F94FF"/>
<path d="M369.789 130.855C373.162 129.629 378.045 121.034 378.045 121.034C378.045 121.034 368.68 117.616 365.306 118.841C361.933 120.067 360.202 123.75 361.44 127.067C362.678 130.385 366.415 132.081 369.789 130.855Z" fill="#7F94FF"/>
<path d="M386.035 128.537C384.797 125.218 376.072 120.429 376.072 120.429C376.072 120.429 372.577 129.658 373.815 132.977C375.053 136.296 378.793 137.992 382.167 136.766C385.542 135.54 387.274 131.856 386.035 128.537Z" fill="#7F94FF"/>
<path d="M379.007 111.543C380.245 114.862 376.75 124.092 376.75 124.092C376.75 124.092 368.024 119.302 366.786 115.983C365.548 112.665 367.28 108.98 370.654 107.754C374.029 106.528 377.768 108.224 379.007 111.543Z" fill="#7F94FF"/>
<path d="M667.333 78.6915C666.881 80.2812 663.021 82.848 663.021 82.848C663.021 82.848 661.071 78.6996 661.523 77.1099C661.975 75.5202 663.642 74.5855 665.247 75.0223C666.851 75.459 667.785 77.1018 667.333 78.6915Z" fill="#7F94FF"/>
<path d="M664.54 88.5689C664.992 86.9792 663.042 82.8308 663.042 82.8308C663.042 82.8308 659.182 85.3976 658.73 86.9873C658.278 88.577 659.212 90.2198 660.816 90.6565C662.42 91.0933 664.087 90.1586 664.54 88.5689Z" fill="#7F94FF"/>
<path d="M668.722 81.2904C667.116 80.853 662.903 82.8116 662.903 82.8116C662.903 82.8116 665.476 86.6175 667.083 87.0548C668.689 87.4922 670.359 86.5563 670.811 84.9645C671.264 83.3726 670.329 81.7277 668.722 81.2904Z" fill="#7F94FF"/>
<path d="M658.934 78.6109C660.541 79.0482 663.114 82.8541 663.114 82.8541C663.114 82.8541 658.901 84.8127 657.295 84.3754C655.689 83.938 654.753 82.2931 655.206 80.7013C655.659 79.1095 657.328 78.1736 658.934 78.6109Z" fill="#7F94FF"/>
</svg>
