<svg width="750" height="230" viewBox="0 0 750 230" fill="none" xmlns="http://www.w3.org/2000/svg">
<path d="M119.545 85.0151L122.854 93.7729C89.1922 100.947 84.6535 99.1767 84.6535 108.587C87.112 119.301 96.9458 135.512 99.3097 141.195C102.508 148.885 98.4587 156.941 94.2037 161.972C90.7997 165.997 75.0718 170.108 67.6334 171.661L55.7193 174.829L61.8654 168.68L53.3554 164.487C58.9027 165.108 73.3257 164.469 86.6392 156.941C103.281 147.531 78.5073 124.146 77.4672 108.587C76.6351 96.1394 105.172 87.6859 119.545 85.0151Z" fill="#B2D0FE"/>
<path d="M151.766 71.9286C147.727 75.7261 135.842 83.803 120.617 85.7309C111.967 86.8262 111.199 92.7676 117.675 94.2432C122.855 95.4237 137.909 89.3365 144.788 86.1453L156.224 81.5763L147.556 80.3357L151.766 71.9286Z" fill="#B2D0FE"/>
<path d="M601.839 147.473V142.441H602.199C603.876 142.441 605.433 142.281 606.871 141.962C608.388 141.562 609.626 140.764 610.585 139.566C611.543 138.368 612.022 136.531 612.022 134.055V96.6778C612.022 94.2019 611.543 92.4049 610.585 91.2868C609.706 90.0888 608.508 89.2901 606.991 88.8908C605.473 88.4915 603.876 88.2918 602.199 88.2918H601.839V83.2603H631.789V88.2918H631.43C629.832 88.2918 628.395 88.4915 627.117 88.8908C625.919 89.2901 624.961 90.0888 624.242 91.2868C623.603 92.4848 623.283 94.2818 623.283 96.6778V111.533H631.07L639.696 101.35C642.012 98.6345 643.489 96.558 644.128 95.1204C644.847 93.6828 645.207 92.4049 645.207 91.2868C645.207 90.1687 644.807 89.4099 644.009 89.0106C643.21 88.5314 641.932 88.2918 640.175 88.2918V83.2603H665.572V88.2918C663.656 88.2918 661.819 88.7311 660.062 89.6096C658.305 90.4083 656.548 91.6462 654.791 93.3234C653.034 94.9207 651.077 96.9573 648.92 99.4331L637.06 113.33L638.019 108.059L654.91 132.617C656.268 134.614 657.586 136.371 658.864 137.889C660.142 139.326 661.499 140.444 662.937 141.243C664.374 142.042 665.932 142.441 667.609 142.441H667.968V147.473H666.291C662.937 147.473 660.142 147.353 657.905 147.113C655.749 146.794 653.872 146.235 652.275 145.436C650.757 144.637 649.32 143.479 647.962 141.962C646.604 140.444 645.087 138.408 643.41 135.852L631.07 117.523H623.283V134.055C623.283 136.451 623.643 138.248 624.362 139.446C625.08 140.644 626.039 141.443 627.237 141.842C628.515 142.241 629.912 142.441 631.43 142.441H631.789V147.473H601.839Z" fill="#212121"/>
<path d="M502.511 148.671C496.202 148.671 490.851 147.433 486.458 144.957C482.145 142.401 478.871 138.648 476.635 133.696C474.398 128.744 473.28 122.595 473.28 115.247C473.28 107.899 474.478 101.789 476.874 96.9176C479.27 91.9659 482.665 88.2521 487.057 85.7763C491.45 83.3004 496.601 82.0625 502.511 82.0625C508.821 82.0625 514.132 83.3004 518.445 85.7763C522.837 88.2521 526.152 91.9659 528.388 96.9176C530.624 101.789 531.742 107.899 531.742 115.247C531.742 122.595 530.544 128.744 528.148 133.696C525.752 138.648 522.358 142.401 517.965 144.957C513.653 147.433 508.501 148.671 502.511 148.671ZM502.511 142.92C506.664 142.92 509.979 141.882 512.455 139.806C514.93 137.649 516.727 134.495 517.846 130.342C518.964 126.188 519.523 121.157 519.523 115.247C519.523 109.257 518.964 104.225 517.846 100.152C516.727 96.079 514.93 93.0041 512.455 90.9276C509.979 88.8511 506.664 87.8129 502.511 87.8129C498.438 87.8129 495.124 88.8511 492.568 90.9276C490.092 93.0041 488.295 96.079 487.177 100.152C486.059 104.225 485.5 109.257 485.5 115.247C485.5 121.157 486.059 126.188 487.177 130.342C488.295 134.495 490.092 137.649 492.568 139.806C495.124 141.882 498.438 142.92 502.511 142.92Z" fill="#212121"/>
<path d="M359.798 147.473V142.441H360.756C362.513 142.441 364.11 142.241 365.548 141.842C367.065 141.443 368.263 140.644 369.142 139.446C370.1 138.168 370.579 136.291 370.579 133.815V89.2502H362.313C360.476 89.2502 359.039 89.5697 358.001 90.2086C356.962 90.8475 356.124 91.9257 355.485 93.4432C354.926 94.8808 354.407 96.9573 353.927 99.6727L353.089 104.345H347.458L348.177 83.2603H404.243L404.962 104.345H399.331L398.493 99.6727C398.013 96.9573 397.454 94.8808 396.815 93.4432C396.256 91.9257 395.458 90.8475 394.42 90.2086C393.381 89.5697 391.944 89.2502 390.107 89.2502H381.841V133.815C381.841 136.291 382.28 138.168 383.158 139.446C384.117 140.644 385.315 141.443 386.752 141.842C388.27 142.241 389.907 142.441 391.664 142.441H392.623V147.473H359.798Z" fill="#212121"/>
<path d="M233.372 177.422C231.296 177.422 229.578 177.063 228.221 176.344C226.943 175.625 225.985 174.587 225.346 173.229C224.787 171.952 224.507 170.394 224.507 168.557C224.507 168.158 224.507 167.759 224.507 167.359C224.507 167.04 224.547 166.72 224.627 166.401C225.825 166.64 226.943 166.8 227.981 166.88C229.019 167.04 230.018 167.12 230.976 167.12C234.73 167.12 237.845 166.041 240.32 163.885C242.796 161.729 245.152 158.055 247.389 152.864L251.342 143.879L249.186 150.348L225.585 94.6412C224.547 92.1653 223.469 90.4881 222.351 89.6096C221.232 88.7311 219.515 88.2918 217.199 88.2918H216.84V83.2603H245.592V88.2918H245.232C242.836 88.2918 241.039 88.771 239.841 89.7294C238.723 90.6079 238.164 92.0455 238.164 94.0422C238.164 94.6811 238.244 95.36 238.404 96.0788C238.563 96.7976 238.803 97.5962 239.122 98.4747L247.868 119.799C248.587 121.476 249.345 123.353 250.144 125.43C250.943 127.426 251.741 129.543 252.54 131.779C253.418 134.015 254.257 136.331 255.056 138.727H252.66C253.538 136.331 254.297 134.215 254.936 132.378C255.655 130.541 256.294 128.824 256.853 127.227C257.492 125.629 258.051 124.112 258.53 122.674L267.036 99.3133C267.435 98.3549 267.715 97.4365 267.874 96.558C268.034 95.5996 268.114 94.8009 268.114 94.162C268.114 92.0855 267.435 90.6079 266.077 89.7294C264.799 88.771 262.843 88.2918 260.207 88.2918H259.848V83.2603H284.526V88.2918H284.167C282.649 88.2918 281.372 88.5314 280.333 89.0106C279.375 89.4898 278.496 90.4083 277.698 91.766C276.899 93.1237 276.021 95.0804 275.062 97.6361L255.056 151.546C252.66 157.935 250.384 163.007 248.227 166.76C246.151 170.594 243.954 173.309 241.638 174.907C239.322 176.584 236.567 177.422 233.372 177.422Z" fill="#212121"/>
<path d="M91.4963 148.671C88.5412 148.671 86.4647 147.872 85.2667 146.275C84.0687 144.677 83.4697 142.721 83.4697 140.404C83.4697 139.925 83.4697 139.446 83.4697 138.967C83.5496 138.408 83.6295 137.969 83.7093 137.649C84.4281 137.729 85.107 137.809 85.7459 137.889C86.4647 137.969 87.1436 138.008 87.7825 138.008C90.8973 138.008 93.4929 137.13 95.5694 135.373C97.646 133.616 99.3231 130.461 100.601 125.909C101.959 121.276 102.917 114.648 103.476 106.022C103.556 105.144 103.596 104.265 103.596 103.386C103.676 102.508 103.716 101.669 103.716 100.871C103.796 99.9922 103.836 99.1137 103.836 98.2351C103.915 97.3566 103.955 96.4781 103.955 95.5996C103.955 92.8042 103.356 90.8875 102.158 89.8492C100.96 88.8109 99.0835 88.2918 96.5278 88.2918H93.5329V83.2603H151.516V88.2918H151.156C149.399 88.2918 147.762 88.4915 146.244 88.8908C144.807 89.2901 143.609 90.0888 142.65 91.2868C141.772 92.4848 141.333 94.3616 141.333 96.9174V133.815C141.333 136.291 141.772 138.168 142.65 139.446C143.609 140.644 144.807 141.443 146.244 141.842C147.762 142.241 149.399 142.441 151.156 142.441H151.516V147.473H120.967V142.441H121.326C123.003 142.441 124.481 142.241 125.759 141.842C127.117 141.443 128.155 140.644 128.874 139.446C129.672 138.168 130.072 136.291 130.072 133.815V89.2502H111.024L110.065 107.22C109.346 120.957 107.43 131.3 104.315 138.248C101.2 145.196 96.9272 148.671 91.4963 148.671Z" fill="#212121"/>
<path fill-rule="evenodd" clip-rule="evenodd" d="M288.534 154.012C274.393 158.86 268.249 158.493 253.797 159.242C253.797 162.947 252.832 166.281 252.039 169.232C248.605 182.018 237.387 191.012 224.52 198.932C210.233 207.692 196.084 216.585 177.997 221.418C169.525 223.666 161.339 223.309 154.506 220.545C144.567 216.524 143.273 207.669 152.021 197.889C160.769 188.109 174.86 180.435 192.285 171.097C231.756 146.833 273.607 126.175 316.192 104.865C326.449 99.73 345.822 89.1341 345.822 85.3328C345.822 84.0426 336.477 86.1718 332.402 86.8094C286.886 93.7898 266.163 96.7367 221.538 104.708C183.303 109.876 179.308 111.049 157.597 113.097C133.053 115.413 108.326 116.654 83.6455 118.03C77.3264 118.366 73.2968 119.373 71.511 124.373C69.6336 129.575 71.511 138.486 63.2229 140.683C53.232 143.332 20.252 148.889 13.9526 138.737C9.70503 131.89 29.9792 108.567 54.3396 108.902C73.5716 109.137 92.9409 110.479 111.944 109.171L114.12 109.021L114.12 109.021C158.18 105.983 227.653 94.7195 235.614 93.7417C282.935 87.9306 297.311 85.3328 347.421 79.225C354.656 78.1846 367.124 75.2664 368.576 77.0435C372.605 81.9768 368.759 83.5877 365.508 85.3328C339.865 99.0923 314.085 112.751 288.534 126.578C276.537 133.088 264.907 139.968 252.543 146.982C261.963 151.168 267.974 150.607 275.209 149.164C293.525 145.506 309.506 138.324 325.258 131.008C368.439 111.04 411.481 90.9372 454.158 70.4322C483.418 56.4043 510.958 42.7698 542.599 31.93C552.673 28.4733 571.65 22.8446 594.712 17.8535C633.384 9.48373 665.884 10.849 694.145 13.0616C722.406 15.2742 736.075 24.742 739.07 29.8335C739.676 30.8649 738.879 35.833 735.176 34.326C731.446 32.8077 724.411 28.1724 716.315 25.7707C700.183 20.985 685.364 20.0172 673.779 19.9501C654.611 19.9501 640.235 20.6408 622.3 22.8446C597.108 25.94 575.273 31.1675 553.248 38.6513C528.567 47.0412 504.665 56.2365 481.449 67.0763C451.777 80.9364 426.162 95.2231 396.444 109.016C373.824 119.487 337.063 132.654 323.884 139.196C310.705 145.738 302.676 149.164 288.534 154.012ZM177.035 211.819C171.311 213.565 159.637 216.724 159.222 210.108C158.943 205.639 174.791 194.335 183.674 187.992C196.313 178.965 210.096 170.776 223.512 162.352C226.122 160.708 229.236 159.231 232.487 158.493C240.18 156.748 244.896 159.835 242.561 165.406C240.363 170.675 237.411 176.631 233.266 180.475C217.644 194.959 199.335 204.906 177.035 211.819ZM45.6853 131.622C40.282 132.797 26.9225 133.7 23.6143 131.89C24.3286 127.402 28.4047 123.11 34.3336 121.104C40.8817 118.89 47.3795 118.165 54.5686 117.997C59.056 117.896 60.9335 122.192 58.1861 124.742C55.0265 127.662 50.4475 130.582 45.6853 131.622Z" fill="#FFCD29"/>
<path d="M601.839 147.472V142.44H602.198C603.875 142.44 605.433 142.28 606.87 141.961C608.388 141.561 609.626 140.763 610.584 139.565C611.543 138.367 612.022 136.53 612.022 134.054V96.6768C612.022 94.2009 611.543 92.4039 610.584 91.2858C609.706 90.0878 608.508 89.2892 606.99 88.8898C605.473 88.4905 603.875 88.2908 602.198 88.2908H601.839V83.2593H631.789V88.2908H631.429C629.832 88.2908 628.394 88.4905 627.116 88.8898C625.918 89.2892 624.96 90.0878 624.241 91.2858C623.602 92.4838 623.283 94.2808 623.283 96.6768V111.532H631.07L639.695 101.349C642.011 98.6335 643.489 96.557 644.128 95.1194C644.847 93.6818 645.206 92.4039 645.206 91.2858C645.206 90.1677 644.807 89.409 644.008 89.0096C643.209 88.5304 641.932 88.2908 640.175 88.2908V83.2593H665.572V88.2908C663.655 88.2908 661.818 88.7301 660.061 89.6086C658.304 90.4073 656.547 91.6452 654.79 93.3224C653.033 94.9197 651.076 96.9563 648.92 99.4322L637.06 113.329L638.018 108.058L654.91 132.616C656.268 134.613 657.585 136.37 658.863 137.888C660.141 139.325 661.499 140.443 662.936 141.242C664.374 142.041 665.931 142.44 667.609 142.44H667.968V147.472H666.291C662.936 147.472 660.141 147.352 657.905 147.112C655.748 146.793 653.872 146.234 652.274 145.435C650.757 144.636 649.319 143.478 647.962 141.961C646.604 140.443 645.086 138.407 643.409 135.851L631.07 117.522H623.283V134.054C623.283 136.45 623.642 138.247 624.361 139.445C625.08 140.643 626.038 141.442 627.236 141.841C628.514 142.24 629.912 142.44 631.429 142.44H631.789V147.472H601.839Z" fill="#212121"/>
<path d="M502.51 148.67C496.201 148.67 490.85 147.432 486.457 144.956C482.144 142.4 478.87 138.647 476.634 133.695C474.397 128.743 473.279 122.594 473.279 115.246C473.279 107.898 474.477 101.788 476.873 96.9166C479.269 91.9649 482.664 88.2511 487.056 85.7753C491.449 83.2994 496.6 82.0615 502.51 82.0615C508.82 82.0615 514.131 83.2994 518.444 85.7753C522.836 88.2511 526.151 91.9649 528.387 96.9166C530.623 101.788 531.741 107.898 531.741 115.246C531.741 122.594 530.543 128.743 528.147 133.695C525.751 138.647 522.357 142.4 517.964 144.956C513.652 147.432 508.5 148.67 502.51 148.67ZM502.51 142.919C506.663 142.919 509.978 141.881 512.454 139.805C514.929 137.648 516.726 134.494 517.845 130.341C518.963 126.188 519.522 121.156 519.522 115.246C519.522 109.256 518.963 104.224 517.845 100.151C516.726 96.078 514.929 93.0032 512.454 90.9266C509.978 88.8501 506.663 87.8119 502.51 87.8119C498.437 87.8119 495.123 88.8501 492.567 90.9266C490.091 93.0032 488.294 96.078 487.176 100.151C486.058 104.224 485.499 109.256 485.499 115.246C485.499 121.156 486.058 126.188 487.176 130.341C488.294 134.494 490.091 137.648 492.567 139.805C495.123 141.881 498.437 142.919 502.51 142.919Z" fill="#212121"/>
<path fill-rule="evenodd" clip-rule="evenodd" d="M359.797 142.44V147.472H392.622V142.44H391.664C389.907 142.44 388.269 142.24 386.752 141.841C385.314 141.442 384.116 140.643 383.158 139.445C382.279 138.167 381.84 136.29 381.84 133.814V89.2492H390.106C391.943 89.2492 393.381 89.5687 394.419 90.2076C394.912 90.511 395.351 90.9134 395.736 91.4148L404.399 87.8511L404.243 83.2593H348.177L347.458 104.344H353.088L353.927 99.6718C354.406 96.9563 354.925 94.8798 355.484 93.4422C356.123 91.9247 356.962 90.8466 358 90.2076C359.038 89.5687 360.476 89.2492 362.313 89.2492H370.579V133.814C370.579 136.29 370.1 138.167 369.141 139.445C368.263 140.643 367.065 141.442 365.547 141.841C364.11 142.24 362.513 142.44 360.755 142.44H359.797Z" fill="#212121"/>
<path fill-rule="evenodd" clip-rule="evenodd" d="M233.372 177.421C231.295 177.421 229.578 177.062 228.22 176.343C226.942 175.624 225.984 174.586 225.345 173.228C224.786 171.951 224.506 170.393 224.506 168.556V167.358C224.506 167.039 224.546 166.719 224.626 166.4C225.824 166.639 226.942 166.799 227.981 166.879C229.019 167.039 230.017 167.119 230.976 167.119C234.729 167.119 237.844 166.04 240.32 163.884C242.796 161.728 245.152 158.054 247.388 152.863L248.847 149.548L229.502 103.886L240.32 101.395L247.867 119.798C248.586 121.475 249.345 123.352 250.144 125.429C250.942 127.425 251.741 129.542 252.539 131.778C252.999 132.947 253.447 134.137 253.884 135.35C254.265 134.289 254.615 133.298 254.935 132.377C255.654 130.54 256.293 128.823 256.852 127.226C257.491 125.628 258.05 124.111 258.529 122.673L267.035 99.3124C267.274 98.739 267.47 98.1799 267.623 97.6352L275.666 96.0778C275.468 96.5695 275.267 97.0886 275.062 97.6352L255.055 151.545C252.659 157.934 250.383 163.006 248.227 166.759C246.15 170.593 243.954 173.308 241.638 174.906C239.322 176.583 236.566 177.421 233.372 177.421ZM284.526 85.7751V83.2593H259.847V88.2908H260.207C261.617 88.2908 262.834 88.4282 263.856 88.7028L284.526 85.7751ZM222.35 89.6086C223.086 90.187 223.805 91.1115 224.506 92.3822L238.477 91.765C238.751 90.906 239.206 90.2271 239.841 89.7284C241.039 88.77 242.836 88.2908 245.232 88.2908H245.591V83.2593H216.839V88.2908H217.199C219.515 88.2908 221.232 88.7301 222.35 89.6086Z" fill="#212121"/>
<path d="M91.4958 148.67C88.5407 148.67 86.4642 147.871 85.2662 146.274C84.0682 144.676 83.4692 142.72 83.4692 140.403C83.4692 139.924 83.4692 139.445 83.4692 138.966C83.5491 138.407 83.629 137.968 83.7088 137.648C84.4276 137.728 85.1065 137.808 85.7454 137.888C86.4642 137.968 87.1431 138.007 87.782 138.007C90.8968 138.007 93.4924 137.129 95.5689 135.372C97.6455 133.615 99.3227 130.46 100.601 125.908C101.958 121.276 102.917 114.647 103.476 106.021C103.556 105.143 103.595 104.264 103.595 103.386C103.675 102.507 103.715 101.668 103.715 100.87C103.795 99.9912 103.835 99.1127 103.835 98.2342C103.915 97.3556 103.955 96.4771 103.955 95.5986C103.955 92.8033 103.356 90.8865 102.158 89.8482C100.96 88.81 99.0831 88.2908 96.5273 88.2908H93.5324V83.2593H151.515V88.2908H151.156C149.399 88.2908 147.761 88.4905 146.244 88.8898C144.806 89.2892 143.608 90.0878 142.65 91.2858C141.771 92.4838 141.332 94.3607 141.332 96.9164V133.814C141.332 136.29 141.771 138.167 142.65 139.445C143.608 140.643 144.806 141.442 146.244 141.841C147.761 142.24 149.399 142.44 151.156 142.44H151.515V147.472H120.966V142.44H121.326C123.003 142.44 124.48 142.24 125.758 141.841C127.116 141.442 128.154 140.643 128.873 139.445C129.672 138.167 130.071 136.29 130.071 133.814V89.2492H111.023L110.065 107.219C109.346 120.956 107.429 131.299 104.314 138.247C101.2 145.195 96.9267 148.67 91.4958 148.67Z" fill="#212121"/>
<path d="M404.573 195.777C398.898 187.008 386.155 163.104 380.581 137.637C377.414 123.167 369.67 118.305 369.11 127.731C368.662 135.272 379.513 163.013 384.994 175.941L393.166 196.981L392.978 183.913L404.573 195.777Z" fill="#7F94FF"/>
<path d="M298.322 154.033C309.441 151.8 337.78 143.831 362.192 129.815C376.062 121.852 385.548 123.788 378.408 130.788C372.695 136.388 342.652 148.355 328.345 153.639L305.6 162.756L309.287 156.695L298.322 154.033Z" fill="#7F94FF"/>
<path d="M404.636 150.999C399.48 148.835 387.244 140.77 379.542 125.824C375.167 117.332 369.243 119.782 370.345 127.397C371.226 133.489 382.801 145.976 388.478 151.457L397.219 160.973L395.048 151.182L404.636 150.999Z" fill="#FFAFF7"/>
<path d="M428.274 127.068C420.508 128.631 400.294 130.03 381.565 123.115C370.924 119.186 365.005 124.882 371.017 130.197C375.826 134.449 397.904 136.962 408.341 137.688L425.065 139.654L416.393 133.299L428.274 127.068Z" fill="#B2D0FE"/>
<path d="M333.99 161.251C340.223 157.621 355.522 146.274 366.853 129.922C373.292 120.631 379.601 121.067 377.036 128.517C374.984 134.477 359.674 149.744 352.276 156.632L340.7 168.242L344.855 158.428L333.99 161.251Z" fill="#B2D0FE"/>
<path d="M369.678 193.858C368.957 184.909 369.422 161.392 377.047 138.92C381.379 126.152 376.884 119.706 371.724 127.177C367.596 133.154 363.548 159.175 362.04 171.438L358.919 191.155L365.212 180.486L369.678 193.858Z" fill="#FFAFF7"/>
<path d="M387.467 124.698C384.094 125.923 374.729 122.505 374.729 122.505C374.729 122.505 379.612 113.91 382.985 112.684C386.358 111.458 390.096 113.154 391.334 116.472C392.572 119.789 390.84 123.472 387.467 124.698Z" fill="#7F94FF"/>
<path d="M369.789 130.853C373.162 129.627 378.045 121.031 378.045 121.031C378.045 121.031 368.68 117.613 365.306 118.839C361.933 120.065 360.202 123.747 361.44 127.065C362.678 130.382 366.415 132.078 369.789 130.853Z" fill="#7F94FF"/>
<path d="M386.035 128.534C384.797 125.216 376.072 120.426 376.072 120.426C376.072 120.426 372.577 129.656 373.815 132.975C375.053 136.293 378.793 137.99 382.167 136.764C385.542 135.538 387.274 131.853 386.035 128.534Z" fill="#7F94FF"/>
<path d="M379.007 111.541C380.245 114.86 376.75 124.089 376.75 124.089C376.75 124.089 368.024 119.3 366.786 115.981C365.548 112.662 367.28 108.978 370.654 107.752C374.029 106.525 377.768 108.222 379.007 111.541Z" fill="#7F94FF"/>
<path d="M667.333 78.6915C666.881 80.2812 663.021 82.848 663.021 82.848C663.021 82.848 661.071 78.6996 661.523 77.1099C661.975 75.5202 663.642 74.5855 665.247 75.0223C666.851 75.459 667.785 77.1018 667.333 78.6915Z" fill="#7F94FF"/>
<path d="M664.54 88.5689C664.992 86.9792 663.042 82.8308 663.042 82.8308C663.042 82.8308 659.182 85.3976 658.73 86.9873C658.278 88.577 659.212 90.2198 660.816 90.6565C662.42 91.0933 664.087 90.1586 664.54 88.5689Z" fill="#7F94FF"/>
<path d="M668.722 81.2904C667.116 80.853 662.903 82.8116 662.903 82.8116C662.903 82.8116 665.476 86.6175 667.083 87.0548C668.689 87.4922 670.359 86.5563 670.811 84.9645C671.264 83.3726 670.329 81.7277 668.722 81.2904Z" fill="#7F94FF"/>
<path d="M658.934 78.6109C660.541 79.0482 663.114 82.8541 663.114 82.8541C663.114 82.8541 658.901 84.8127 657.295 84.3754C655.689 83.938 654.753 82.2931 655.206 80.7013C655.659 79.1095 657.328 78.1736 658.934 78.6109Z" fill="#7F94FF"/>
</svg>
