<svg width="750" height="230" viewBox="0 0 750 230" fill="none" xmlns="http://www.w3.org/2000/svg">
<path d="M119.545 85.0151L122.854 93.7729C89.1922 100.947 84.6535 99.1767 84.6535 108.587C87.112 119.301 96.9458 135.512 99.3097 141.195C102.508 148.885 98.4587 156.941 94.2037 161.972C90.7997 165.997 75.0718 170.108 67.6334 171.661L55.7193 174.829L61.8654 168.68L53.3554 164.487C58.9027 165.108 73.3257 164.469 86.6392 156.941C103.281 147.531 78.5073 124.146 77.4672 108.587C76.6351 96.1394 105.172 87.6859 119.545 85.0151Z" fill="#B2D0FE"/>
<path d="M151.766 71.9286C147.727 75.7261 135.842 83.803 120.617 85.7309C111.967 86.8262 111.199 92.7676 117.675 94.2432C122.855 95.4237 137.909 89.3365 144.788 86.1453L156.224 81.5763L147.556 80.3357L151.766 71.9286Z" fill="#B2D0FE"/>
<path d="M601.839 147.473V142.441H602.199C603.876 142.441 605.433 142.281 606.871 141.962C608.388 141.562 609.626 140.764 610.585 139.566C611.543 138.368 612.022 136.531 612.022 134.055V96.6778C612.022 94.2019 611.543 92.4049 610.585 91.2868C609.706 90.0888 608.508 89.2901 606.991 88.8908C605.473 88.4915 603.876 88.2918 602.199 88.2918H601.839V83.2603H631.789V88.2918H631.43C629.832 88.2918 628.395 88.4915 627.117 88.8908C625.919 89.2901 624.961 90.0888 624.242 91.2868C623.603 92.4848 623.283 94.2818 623.283 96.6778V111.533H631.07L639.696 101.35C642.012 98.6345 643.489 96.558 644.128 95.1204C644.847 93.6828 645.207 92.4049 645.207 91.2868C645.207 90.1687 644.807 89.4099 644.009 89.0106C643.21 88.5314 641.932 88.2918 640.175 88.2918V83.2603H665.572V88.2918C663.656 88.2918 661.819 88.7311 660.062 89.6096C658.305 90.4083 656.548 91.6462 654.791 93.3234C653.034 94.9207 651.077 96.9573 648.92 99.4331L637.06 113.33L638.019 108.059L654.91 132.617C656.268 134.614 657.586 136.371 658.864 137.889C660.142 139.326 661.499 140.444 662.937 141.243C664.374 142.042 665.932 142.441 667.609 142.441H667.968V147.473H666.291C662.937 147.473 660.142 147.353 657.905 147.113C655.749 146.794 653.872 146.235 652.275 145.436C650.757 144.637 649.32 143.479 647.962 141.962C646.604 140.444 645.087 138.408 643.41 135.852L631.07 117.523H623.283V134.055C623.283 136.451 623.643 138.248 624.362 139.446C625.08 140.644 626.039 141.443 627.237 141.842C628.515 142.241 629.912 142.441 631.43 142.441H631.789V147.473H601.839Z" fill="#212121"/>
<path d="M502.511 148.671C496.202 148.671 490.851 147.433 486.458 144.957C482.145 142.401 478.871 138.648 476.635 133.696C474.398 128.744 473.28 122.595 473.28 115.247C473.28 107.899 474.478 101.789 476.874 96.9176C479.27 91.9659 482.665 88.2521 487.057 85.7763C491.45 83.3004 496.601 82.0625 502.511 82.0625C508.821 82.0625 514.132 83.3004 518.445 85.7763C522.837 88.2521 526.152 91.9659 528.388 96.9176C530.624 101.789 531.742 107.899 531.742 115.247C531.742 122.595 530.544 128.744 528.148 133.696C525.752 138.648 522.358 142.401 517.965 144.957C513.653 147.433 508.501 148.671 502.511 148.671ZM502.511 142.92C506.664 142.92 509.979 141.882 512.455 139.806C514.93 137.649 516.727 134.495 517.846 130.342C518.964 126.188 519.523 121.157 519.523 115.247C519.523 109.257 518.964 104.225 517.846 100.152C516.727 96.079 514.93 93.0041 512.455 90.9276C509.979 88.8511 506.664 87.8129 502.511 87.8129C498.438 87.8129 495.124 88.8511 492.568 90.9276C490.092 93.0041 488.295 96.079 487.177 100.152C486.059 104.225 485.5 109.257 485.5 115.247C485.5 121.157 486.059 126.188 487.177 130.342C488.295 134.495 490.092 137.649 492.568 139.806C495.124 141.882 498.438 142.92 502.511 142.92Z" fill="#212121"/>
<path d="M359.798 147.473V142.441H360.756C362.513 142.441 364.11 142.241 365.548 141.842C367.065 141.443 368.263 140.644 369.142 139.446C370.1 138.168 370.579 136.291 370.579 133.815V89.2502H362.313C360.476 89.2502 359.039 89.5697 358.001 90.2086C356.962 90.8475 356.124 91.9257 355.485 93.4432C354.926 94.8808 354.407 96.9573 353.927 99.6727L353.089 104.345H347.458L348.177 83.2603H404.243L404.962 104.345H399.331L398.493 99.6727C398.013 96.9573 397.454 94.8808 396.815 93.4432C396.256 91.9257 395.458 90.8475 394.42 90.2086C393.381 89.5697 391.944 89.2502 390.107 89.2502H381.841V133.815C381.841 136.291 382.28 138.168 383.158 139.446C384.117 140.644 385.315 141.443 386.752 141.842C388.27 142.241 389.907 142.441 391.664 142.441H392.623V147.473H359.798Z" fill="#212121"/>
<path d="M233.372 177.422C231.296 177.422 229.578 177.063 228.221 176.344C226.943 175.625 225.985 174.587 225.346 173.229C224.787 171.952 224.507 170.394 224.507 168.557C224.507 168.158 224.507 167.759 224.507 167.359C224.507 167.04 224.547 166.72 224.627 166.401C225.825 166.64 226.943 166.8 227.981 166.88C229.019 167.04 230.018 167.12 230.976 167.12C234.73 167.12 237.845 166.041 240.32 163.885C242.796 161.729 245.152 158.055 247.389 152.864L251.342 143.879L249.186 150.348L225.585 94.6412C224.547 92.1653 223.469 90.4881 222.351 89.6096C221.232 88.7311 219.515 88.2918 217.199 88.2918H216.84V83.2603H245.592V88.2918H245.232C242.836 88.2918 241.039 88.771 239.841 89.7294C238.723 90.6079 238.164 92.0455 238.164 94.0422C238.164 94.6811 238.244 95.36 238.404 96.0788C238.563 96.7976 238.803 97.5962 239.122 98.4747L247.868 119.799C248.587 121.476 249.345 123.353 250.144 125.43C250.943 127.426 251.741 129.543 252.54 131.779C253.418 134.015 254.257 136.331 255.056 138.727H252.66C253.538 136.331 254.297 134.215 254.936 132.378C255.655 130.541 256.294 128.824 256.853 127.227C257.492 125.629 258.051 124.112 258.53 122.674L267.036 99.3133C267.435 98.3549 267.715 97.4365 267.874 96.558C268.034 95.5996 268.114 94.8009 268.114 94.162C268.114 92.0855 267.435 90.6079 266.077 89.7294C264.799 88.771 262.843 88.2918 260.207 88.2918H259.848V83.2603H284.526V88.2918H284.167C282.649 88.2918 281.372 88.5314 280.333 89.0106C279.375 89.4898 278.496 90.4083 277.698 91.766C276.899 93.1237 276.021 95.0804 275.062 97.6361L255.056 151.546C252.66 157.935 250.384 163.007 248.227 166.76C246.151 170.594 243.954 173.309 241.638 174.907C239.322 176.584 236.567 177.422 233.372 177.422Z" fill="#212121"/>
<path d="M91.4963 148.671C88.5412 148.671 86.4647 147.872 85.2667 146.275C84.0687 144.677 83.4697 142.721 83.4697 140.404C83.4697 139.925 83.4697 139.446 83.4697 138.967C83.5496 138.408 83.6295 137.969 83.7093 137.649C84.4281 137.729 85.107 137.809 85.7459 137.889C86.4647 137.969 87.1436 138.008 87.7825 138.008C90.8973 138.008 93.4929 137.13 95.5694 135.373C97.646 133.616 99.3231 130.461 100.601 125.909C101.959 121.276 102.917 114.648 103.476 106.022C103.556 105.144 103.596 104.265 103.596 103.386C103.676 102.508 103.716 101.669 103.716 100.871C103.796 99.9922 103.836 99.1137 103.836 98.2351C103.915 97.3566 103.955 96.4781 103.955 95.5996C103.955 92.8042 103.356 90.8875 102.158 89.8492C100.96 88.8109 99.0835 88.2918 96.5278 88.2918H93.5329V83.2603H151.516V88.2918H151.156C149.399 88.2918 147.762 88.4915 146.244 88.8908C144.807 89.2901 143.609 90.0888 142.65 91.2868C141.772 92.4848 141.333 94.3616 141.333 96.9174V133.815C141.333 136.291 141.772 138.168 142.65 139.446C143.609 140.644 144.807 141.443 146.244 141.842C147.762 142.241 149.399 142.441 151.156 142.441H151.516V147.473H120.967V142.441H121.326C123.003 142.441 124.481 142.241 125.759 141.842C127.117 141.443 128.155 140.644 128.874 139.446C129.672 138.168 130.072 136.291 130.072 133.815V89.2502H111.024L110.065 107.22C109.346 120.957 107.43 131.3 104.315 138.248C101.2 145.196 96.9272 148.671 91.4963 148.671Z" fill="#212121"/>
<path fill-rule="evenodd" clip-rule="evenodd" d="M27.441 162.388C32.5975 166.273 42.174 163.537 48.0212 161.105C70.4891 151.612 93.141 142.357 115.195 132.358C149.357 116.852 183.407 98.0205 217.339 82.2789C222.093 80.0735 232.924 77.729 232.924 84.4931C232.924 89.8028 205.399 109.466 192.37 121.492C179.478 133.349 162.324 143.831 149.433 156.025C174.111 150.891 197.409 140.055 219.508 131.374C221.403 130.63 222.055 132.49 222.055 133.168C222.055 135.839 220.444 137.661 218.556 139.147C213.031 143.539 206.585 147.289 201.199 151.748C197.792 154.585 190.245 164.457 188.293 168.953C189.491 171.747 215.563 165.226 225.462 163.064C281.954 150.7 264.231 155.102 320.631 142.468C325.972 141.286 331.359 140.104 336.791 139.124C357.549 135.425 371.092 124.558 384.715 113.628L385.272 113.181C390.705 108.823 396.644 104.601 403.274 101.29C410.595 97.608 418.744 98.4863 422.75 102.135C426.985 105.986 426.156 113.248 419.204 117.133C410.439 123.278 401.11 127.47 390.843 129.632C355.718 134.418 333.793 156.468 322.315 166.216C316.678 171.003 314.427 175.84 313.184 177.901C312.685 178.727 312.058 180.577 312.482 182.904C314.047 188.018 328.781 189.018 338.587 187.261C359.352 183.545 376.248 174.458 393.836 166.216C432.925 147.907 469.204 126.794 505.254 105.479C508.385 103.621 514.865 101.583 515.345 99.7316C515.953 97.3896 509.655 97.0362 506.956 95.0006C502.829 91.8878 501.111 86.6632 502.262 81.9339C504.564 72.6443 512.391 65.5166 520.356 58.8619C533.172 48.1337 546.999 38.0238 560.79 27.9407L562.667 26.5678C570.862 20.5887 586.793 18.5957 593.653 22.075C600.835 25.6895 603.505 36.8033 596.921 44.9106C590.752 52.4774 582.326 59.1322 574.315 65.7869C566.396 72.3741 557.741 78.4545 549.361 84.7715C547.948 86.0709 548.847 87.6002 551.387 86.9334C556.406 85.616 564.163 82.6603 571.95 80.5638C583.247 77.5222 593.777 74.1942 598.12 80.5638C602.463 86.9334 565.597 137.97 572.549 146.753C576.462 151.685 584.027 153.578 589.92 153.105C607.59 151.351 616.276 150.347 628.855 148.55L658.959 143.446C674.843 140.474 686.031 133.616 696.666 125.475C700.534 122.502 704.171 119.395 708.13 116.489C710.248 114.902 712.596 113.348 715.175 112.199C722.955 108.754 736.676 109.193 739.07 113.247C742.707 119.428 736.768 123.482 730.874 126.151C718.858 131.589 706.565 136.96 693.581 140.913C685.294 143.446 678.342 146.419 672.495 151.351C668.167 154.999 662.826 157.972 658.176 161.417C652.618 165.536 644.792 169.527 648.507 176.112C650.754 180.095 666.601 177.497 674.705 174.49C686.644 170.045 698.145 165.053 709.679 160.048L709.68 160.047L710.571 159.661C714.254 158.073 722.173 156.654 722.173 160.776C722.173 162.979 714.851 165.956 707.854 168.241C696.804 172.801 685.754 177.463 674.106 181.145C667.338 183.273 659.419 184.76 652.145 184.489C637.964 183.915 632.992 175.774 641.049 167.025C645.745 161.924 651.822 157.499 658.682 151.554L595.034 158.645C590.522 159.085 585.918 159.22 581.314 159.253C576.71 159.287 568.78 161.417 562.667 153.105C551.387 137.768 596.909 88.0233 591.219 83.8594C587.924 81.4487 545.218 97.1689 526.387 101.56C523.21 102.304 520.77 104.634 517.962 106.256C488.68 123.011 459.766 140.104 430.024 156.386C414.165 163.833 400.283 169.222 384.353 177.228C377.631 180.606 363.648 187.539 352.119 190.622C338.206 194.343 308.692 199.165 298.27 190.622C290.123 182.904 320.171 157.94 342.777 144.867C342.616 143.742 340.371 143.328 334.79 144.486C306.296 150.396 300.296 152.066 283.813 155.951C267.331 159.836 261.374 162.591 244.523 165.429C236.005 166.881 232.694 168.11 228.083 168.953C219.508 170.521 218.418 171.043 210.196 171.929C199.787 171.929 181.129 177.773 180.007 175.563C177.775 171.165 179.291 162.287 184.881 153.476C172.325 158.812 159.138 163.064 146.841 166.72C146.841 166.72 124.126 171.716 118.509 171.929C112.892 172.143 120.858 165.342 124.126 162.674C147.009 144.162 171.18 128.574 193.97 109.995C195.397 108.846 200.876 104.213 199.787 102.13C197.522 101.236 142.865 126.514 118.509 139.418C93.9697 152.423 67.8703 162.643 41.7819 173.94C33.2108 176.846 26.8855 177.706 17.9765 175.563C5.04631 172.452 18.6932 150.971 32.5975 141.951C50.8297 130.061 68.8316 117.933 86.7414 105.772C90.2866 103.374 97.4229 99.526 97.4229 96.5166C97.4229 92.0846 89.688 93.8479 87.432 94.2871C75.7377 96.6179 64.1815 99.3879 52.6252 102.124C46.6399 103.543 33.5499 108.828 32.8276 103.543C32.482 101.014 36.465 98.7798 38.9972 97.6989C55.7685 92.1675 73.3686 88.1623 92.1072 85.8652C98.691 85.0545 104.605 84.5583 107.828 89.1862C111.051 93.8817 110.683 98.8474 105.802 102.8C100.001 107.461 93.5095 111.718 87.0637 115.974C70.397 126.953 53.5921 137.796 36.9253 148.775C31.6307 152.322 23.8639 158.685 27.441 162.388ZM578.091 28.3244C584.49 26.6354 589.141 29.5743 589.509 37.0398C589.509 42.1084 584.306 46.5004 578.985 50.9926C578.983 50.9949 578.98 50.9972 578.977 50.9994C578.974 51.0025 578.97 51.0056 578.966 51.0087C578.675 51.2545 578.384 51.5005 578.093 51.747C577.938 51.8777 577.784 52.0086 577.63 52.1396C566.884 61.3198 555.401 69.9836 543.903 78.6593C541.608 80.3908 539.313 82.1227 537.023 83.8594C529.472 89.6021 519.435 92.0342 515.66 88.8251C509.753 83.7797 514.014 78.8478 517.637 74.6531C517.968 74.2699 518.294 73.8929 518.606 73.5226C523.901 67.2394 530.531 61.4968 537.207 55.923C545.862 48.6264 554.886 41.5326 564.279 34.7765C568.1 32.0065 573.072 29.6418 578.091 28.3244ZM415.843 108.08C417.11 111.496 400.604 120.173 387.16 121.93C388.133 120.999 389.062 120.072 389.972 119.165C396.556 112.599 414.414 104.224 415.843 108.08ZM708.775 126.016C711.884 121.287 724.095 116.489 725.534 119.935C726.576 122.432 717.654 125.667 713.107 127.316C712.174 127.654 711.425 127.925 710.985 128.11C708.397 129.194 707.939 127.285 708.676 126.165L708.775 126.016Z" fill="#FFCD29"/>
<path d="M601.839 147.472V142.44H602.198C603.875 142.44 605.433 142.28 606.87 141.961C608.388 141.561 609.626 140.763 610.584 139.565C611.543 138.367 612.022 136.53 612.022 134.054V96.6768C612.022 94.2009 611.543 92.4039 610.584 91.2858C609.706 90.0878 608.508 89.2892 606.99 88.8898C605.473 88.4905 603.875 88.2908 602.198 88.2908H601.839V83.2593H631.789V88.2908H631.429C629.832 88.2908 628.394 88.4905 627.116 88.8898C625.918 89.2892 624.96 90.0878 624.241 91.2858C623.602 92.4838 623.283 94.2808 623.283 96.6768V111.532H631.07L639.695 101.349C642.011 98.6335 643.489 96.557 644.128 95.1194C644.847 93.6818 645.206 92.4039 645.206 91.2858C645.206 90.1677 644.807 89.409 644.008 89.0096C643.209 88.5304 641.932 88.2908 640.175 88.2908V83.2593H665.572V88.2908C663.655 88.2908 661.818 88.7301 660.061 89.6086C658.304 90.4073 656.547 91.6452 654.79 93.3224C653.033 94.9197 651.076 96.9563 648.92 99.4322L637.06 113.329L638.018 108.058L654.91 132.616C656.268 134.613 657.585 136.37 658.863 137.888C660.141 139.325 661.499 140.443 662.936 141.242C664.374 142.041 665.931 142.44 667.609 142.44H667.968V147.472H666.291C662.936 147.472 660.141 147.352 657.905 147.112C655.748 146.793 653.872 146.234 652.274 145.435C650.757 144.636 649.319 143.478 647.962 141.961C646.604 140.443 645.086 138.407 643.409 135.851L631.07 117.522H623.283V134.054C623.283 136.45 623.642 138.247 624.361 139.445C625.08 140.643 626.038 141.442 627.236 141.841C628.514 142.24 629.912 142.44 631.429 142.44H631.789V147.472H601.839Z" fill="#212121"/>
<path d="M85.2662 146.274C86.4642 147.871 88.5407 148.67 91.4958 148.67C96.9267 148.67 101.2 145.195 104.314 138.247C105.808 134.915 107.026 130.802 107.969 125.908H100.601C99.3227 130.46 97.6455 133.615 95.5689 135.372C93.4924 137.129 90.8968 138.007 87.782 138.007C87.1431 138.007 86.4642 137.968 85.7454 137.888C85.1065 137.808 84.4276 137.728 83.7088 137.648C83.629 137.968 83.5491 138.407 83.4692 138.966V140.403C83.4692 142.72 84.0682 144.676 85.2662 146.274Z" fill="#212121"/>
<path d="M103.595 103.386C103.595 104.264 103.556 105.143 103.476 106.021L110.065 107.219L111.023 89.2492V83.2593H93.5324V88.2908H96.5273C99.0831 88.2908 100.96 88.81 102.158 89.8482C103.356 90.8865 103.955 92.8033 103.955 95.5986C103.955 96.4771 103.915 97.3556 103.835 98.2342C103.835 99.1127 103.795 99.9912 103.715 100.87C103.715 101.668 103.675 102.507 103.595 103.386Z" fill="#212121"/>
<path fill-rule="evenodd" clip-rule="evenodd" d="M228.22 176.343C229.578 177.062 231.295 177.421 233.372 177.421C236.566 177.421 239.322 176.583 241.638 174.906C243.954 173.308 246.15 170.593 248.227 166.759C250.383 163.006 252.659 157.934 255.055 151.545L247.388 152.863C245.152 158.054 242.796 161.728 240.32 163.884C237.844 166.04 234.729 167.119 230.976 167.119C230.017 167.119 229.019 167.039 227.981 166.879C226.942 166.799 225.824 166.639 224.626 166.4C224.546 166.719 224.506 167.039 224.506 167.358V168.556C224.506 170.393 224.786 171.951 225.345 173.228C225.984 174.586 226.942 175.624 228.22 176.343ZM253.884 135.35C253.838 135.48 253.791 135.61 253.744 135.742C253.405 136.683 253.044 137.678 252.659 138.726H255.055C254.674 137.583 254.284 136.457 253.884 135.35ZM248.847 149.548L249.185 150.347L251.341 143.878L248.847 149.548Z" fill="#212121"/>
<path fill-rule="evenodd" clip-rule="evenodd" d="M404.961 104.344L404.243 83.2593L396.815 93.4422C397.454 94.8798 398.013 96.9563 398.492 99.6718L399.331 104.344H404.961Z" fill="#212121"/>
<path fill-rule="evenodd" clip-rule="evenodd" d="M473.279 115.246C473.279 122.594 474.397 128.743 476.634 133.695L487.176 130.341C486.058 126.188 485.499 121.156 485.499 115.246H473.279Z" fill="#212121"/>
<path d="M404.573 195.777C398.898 187.008 386.155 163.104 380.581 137.637C377.414 123.167 369.67 118.305 369.11 127.731C368.662 135.272 379.513 163.013 384.994 175.941L393.166 196.981L392.978 183.913L404.573 195.777Z" fill="#7F94FF"/>
<path d="M298.322 154.033C309.441 151.8 337.78 143.831 362.192 129.815C376.062 121.852 385.548 123.788 378.408 130.788C372.695 136.388 342.652 148.355 328.345 153.639L305.6 162.756L309.287 156.695L298.322 154.033Z" fill="#7F94FF"/>
<path d="M404.636 150.999C399.48 148.835 387.244 140.77 379.542 125.824C375.167 117.332 369.243 119.782 370.345 127.397C371.226 133.489 382.801 145.976 388.478 151.457L397.219 160.973L395.048 151.182L404.636 150.999Z" fill="#FFAFF7"/>
<path d="M428.274 127.068C420.508 128.631 400.294 130.03 381.565 123.115C370.924 119.186 365.005 124.882 371.017 130.197C375.826 134.449 397.904 136.962 408.341 137.688L425.065 139.654L416.393 133.299L428.274 127.068Z" fill="#B2D0FE"/>
<path d="M333.99 161.251C340.223 157.621 355.522 146.274 366.853 129.922C373.292 120.631 379.601 121.067 377.036 128.517C374.984 134.477 359.674 149.744 352.276 156.632L340.7 168.242L344.855 158.428L333.99 161.251Z" fill="#B2D0FE"/>
<path d="M369.678 193.858C368.957 184.909 369.422 161.392 377.047 138.92C381.379 126.152 376.884 119.706 371.724 127.177C367.596 133.154 363.548 159.175 362.04 171.438L358.919 191.155L365.212 180.486L369.678 193.858Z" fill="#FFAFF7"/>
<path d="M387.467 124.698C384.094 125.923 374.729 122.505 374.729 122.505C374.729 122.505 379.612 113.91 382.985 112.684C386.358 111.458 390.096 113.154 391.334 116.472C392.572 119.789 390.84 123.472 387.467 124.698Z" fill="#7F94FF"/>
<path d="M369.789 130.853C373.162 129.627 378.045 121.031 378.045 121.031C378.045 121.031 368.68 117.613 365.306 118.839C361.933 120.065 360.202 123.747 361.44 127.065C362.678 130.382 366.415 132.078 369.789 130.853Z" fill="#7F94FF"/>
<path d="M386.035 128.534C384.797 125.216 376.072 120.426 376.072 120.426C376.072 120.426 372.577 129.656 373.815 132.975C375.053 136.293 378.793 137.99 382.167 136.764C385.542 135.538 387.274 131.853 386.035 128.534Z" fill="#7F94FF"/>
<path d="M379.007 111.541C380.245 114.86 376.75 124.089 376.75 124.089C376.75 124.089 368.024 119.3 366.786 115.981C365.548 112.662 367.28 108.978 370.654 107.752C374.029 106.525 377.768 108.222 379.007 111.541Z" fill="#7F94FF"/>
<path d="M667.333 78.6915C666.881 80.2812 663.021 82.848 663.021 82.848C663.021 82.848 661.071 78.6996 661.523 77.1099C661.975 75.5202 663.642 74.5855 665.247 75.0223C666.851 75.459 667.785 77.1018 667.333 78.6915Z" fill="#7F94FF"/>
<path d="M664.54 88.5689C664.992 86.9792 663.042 82.8308 663.042 82.8308C663.042 82.8308 659.182 85.3976 658.73 86.9873C658.278 88.577 659.212 90.2198 660.816 90.6565C662.42 91.0933 664.087 90.1586 664.54 88.5689Z" fill="#7F94FF"/>
<path d="M668.722 81.2904C667.116 80.853 662.903 82.8116 662.903 82.8116C662.903 82.8116 665.476 86.6175 667.083 87.0548C668.689 87.4922 670.359 86.5563 670.811 84.9645C671.264 83.3726 670.329 81.7277 668.722 81.2904Z" fill="#7F94FF"/>
<path d="M658.934 78.6109C660.541 79.0482 663.114 82.8541 663.114 82.8541C663.114 82.8541 658.901 84.8127 657.295 84.3754C655.689 83.938 654.753 82.2931 655.206 80.7013C655.659 79.1095 657.328 78.1736 658.934 78.6109Z" fill="#7F94FF"/>
</svg>
