<svg width="40" height="40" viewBox="0 0 40 40" fill="none" xmlns="http://www.w3.org/2000/svg">
<path d="M12.4012 20.8864C12.1759 20.6611 12.0335 20.3528 12.0335 19.9971C12.0333 19.3093 12.6024 18.7403 13.2901 18.7404L26.7124 18.7428C27.4001 18.7429 27.9694 19.3121 27.9695 19.9998C27.9696 20.6876 27.4006 21.2566 26.7129 21.2565L13.2905 21.2541C12.9467 21.2659 12.6265 21.1117 12.4012 20.8864Z" fill="#F5F5F5"/>
<path d="M19.1135 27.5987C18.8882 27.3734 18.7459 27.0651 18.7458 26.7094L18.7435 13.2871C18.7433 12.5994 19.3124 12.0303 20.0001 12.0304C20.6878 12.0306 21.257 12.5998 21.2572 13.2875L21.2595 26.7098C21.2596 27.3975 20.6906 27.9666 20.0029 27.9665C19.6472 27.9664 19.3388 27.8241 19.1135 27.5987Z" fill="#F5F5F5"/>
</svg>
