<svg width="971" height="475" viewBox="0 0 971 475" fill="none" xmlns="http://www.w3.org/2000/svg">
<path d="M680.926 181.424C694.341 181.146 707.758 180.837 721.174 180.621C734.631 180.389 748.089 180.373 761.526 180.018C774.795 179.663 788.044 178.999 802.11 178.443C800.683 181.763 797.89 181.887 795.203 181.979C771.121 182.767 747.061 183.57 722.979 184.234C715.337 184.45 707.694 184.265 700.577 184.265C698.1 185.763 699.779 189.114 695.979 188.573C694.111 188.311 692.557 186.828 690.394 185.639C687.539 188.079 683.76 189.963 678.868 186.751C678.406 186.442 676.558 187.23 675.404 187.585C673.031 188.295 670.785 188.342 669.189 186.643C667.531 184.898 667.593 183.292 669.84 181.64C683.865 171.263 697.869 160.855 711.747 150.37C718.654 145.151 725.289 139.746 731.734 134.079C728.543 134.295 726.128 135.7 723.735 136.982C701.837 148.733 679.246 159.728 655.962 169.919C646.409 174.104 636.667 178.026 627.178 182.288C625.33 183.122 624.322 184.96 622.664 186.597C614.475 186.303 605.699 185.994 596.923 185.686C596.839 185.361 596.734 185.037 596.65 184.713C598.015 184.002 599.359 183.277 600.912 182.458C599.212 175.926 605.489 172.359 611.095 168.56C611.935 167.989 613.006 167.588 613.992 167.14C622.286 163.418 622.286 163.418 629.046 168.375C629.508 168.715 630.243 168.823 631.797 169.394C640.006 164.391 648.467 159.218 656.928 154.045C656.76 153.721 656.592 153.397 656.445 153.088C655.017 153.041 653.569 152.933 652.141 152.964C644.73 153.088 637.318 153.273 629.907 153.381C627.933 153.412 625.666 153.628 624.826 151.235C625.876 150.941 626.842 150.463 627.849 150.432C641.118 149.999 654.366 149.644 667.824 149.258C668.265 151.883 665.851 152.887 663.982 153.999C654.45 159.697 644.835 165.349 635.261 171.016C632.972 172.375 630.558 173.672 630.159 176.976C632.657 176.096 634.505 175.602 636.143 174.876C651.238 168.205 666.439 161.673 681.303 154.725C693.817 148.872 705.91 142.541 718.213 136.441C726.485 132.334 734.778 128.257 743.072 124.196C744.226 123.625 745.402 122.93 746.683 122.698C747.838 122.497 749.181 122.868 750.441 122.992C750.231 123.918 750.441 125.123 749.748 125.74C747.691 127.562 745.234 129.153 742.967 130.867C733.162 138.341 723.357 145.815 713.573 153.319C703.642 160.948 693.712 168.576 683.865 176.251C682.353 177.424 681.24 178.876 679.96 180.204C680.317 180.605 680.611 181.007 680.926 181.424ZM611.431 182.165C614.685 180.065 617.793 178.304 620.501 176.251C622.034 175.077 623.335 173.533 623.944 171.989C624.28 171.139 623.293 169.688 622.286 169.008C621.635 168.56 619.724 168.761 618.611 169.101C613.951 170.506 610.675 173.116 608.24 176.266C606.203 178.86 606.602 179.493 611.431 182.165Z" fill="#1341B3"/>
<path d="M78.5644 316.814C70.5232 315.671 64.8545 317.246 59.6896 319.393C54.4828 321.57 49.6959 324.319 44.9719 327.036C42.4525 328.472 40.248 329.661 36.3638 327.839C50.7246 317.432 64.8964 307.302 77.1157 295.581C76.1079 295.813 75.0582 295.983 74.1134 296.307C63.4058 299.951 52.7822 303.719 41.9906 307.224C38.6313 308.321 34.9362 308.892 31.325 309.464C28.0077 309.989 24.6905 309.633 22.36 307.61C19.1477 304.816 15.4105 304.646 11.0645 305.788C7.70525 306.669 4.24105 307.363 0.818815 308.136C0.545876 307.734 0.272939 307.348 0 306.946C1.97356 305.974 3.77912 304.507 5.94164 304.152C10.8545 303.318 15.9354 302.793 20.9743 302.638C22.6749 302.592 24.8164 303.765 26.1391 304.8C27.9867 306.267 30.0233 306.684 32.3747 306.205C36.8257 305.279 41.4237 304.522 45.5808 303.086C58.7868 298.515 71.8669 293.744 84.821 288.833C87.5924 287.783 89.9228 285.915 92.0853 284.17C100.378 277.499 108.462 270.674 116.776 264.018C118.791 262.412 121.227 261.022 123.725 259.818C126.308 258.567 129.142 258.799 131.494 260.266C134.076 261.887 133.572 263.941 132.291 265.902C129.037 270.828 123.557 274.302 117.637 277.298C112.115 280.109 105.984 282.27 100.504 285.127C96.0115 287.474 91.8964 290.269 87.9913 293.141C80.7899 298.438 73.8404 303.935 66.849 309.386C65.0224 310.822 63.4268 312.413 62.419 314.76C65.7153 314.312 68.9905 313.648 72.3078 313.509C75.1841 313.386 78.6904 313.216 80.9159 314.25C84.3381 315.841 86.6476 315.115 88.9571 313.54C93.0091 310.745 96.8303 307.765 100.819 304.908C112.178 296.801 122.445 287.984 131.305 278.348C136.217 273.005 140.899 267.493 141.046 260.605C141.235 251.17 132.06 242.971 119.358 241.766C102.667 240.176 87.2564 241.89 72.6437 248.53C62.7129 253.039 54.7557 258.814 47.9952 265.578C45.4128 268.157 43.8382 271.26 41.8856 274.163C41.0038 275.461 40.9618 277.252 37.6655 277.144C35.797 273.345 38.3164 270.087 40.5629 267.137C55.2806 247.789 89.6079 234.694 120.387 239.141C137.687 241.643 146.463 250.846 145.77 263.972C142.411 269.191 139.829 274.781 135.546 279.537C125.006 291.227 112.115 301.557 98.5099 311.347C92.2323 315.872 85.2409 319.84 78.6064 324.102C76.8847 325.214 75.5201 326.697 73.6095 327.561C72.3078 328.148 70.3552 327.963 68.6966 328.117C68.8855 326.897 68.5496 325.369 69.4104 324.504C70.8801 323.006 73.1896 322.002 74.9532 320.643C76.0869 319.763 76.8848 318.621 78.5644 316.814ZM127.483 262.011C121.983 263.076 119.547 266.597 116.083 268.975C112.409 271.492 108.399 274.009 106.53 278.163C117.196 275.522 127.483 267.693 127.483 262.011Z" fill="#1341B3"/>
<path d="M638.245 303.979C649.624 299.516 659.072 293.123 668.793 286.978C668.562 286.607 668.331 286.236 668.1 285.866C660.458 287.441 652.774 288.923 645.194 290.637C634.34 293.093 623.527 295.671 612.736 298.266C601.734 300.906 590.837 303.809 579.773 306.264C565.79 309.368 551.681 312.148 537.635 315.066C535.2 315.576 532.786 316.163 530.14 316.765C530.14 318.047 530.14 319.143 530.14 320.116C526.508 321.83 524.933 320.116 523.485 317.877C520.65 320.641 517.48 321.104 513.407 320.919C509.124 320.718 504.736 321.907 500.369 322.031C497.807 322.108 494.238 321.907 492.852 320.718C490.648 318.865 491.404 316.132 493.608 314.078C496.485 311.391 499.193 308.534 502.594 306.28C513.092 299.347 523.737 292.521 534.696 285.989C537.572 284.275 541.646 283.241 545.362 282.793C549.162 282.33 551.135 284.522 549.33 287.086C547.902 289.093 545.593 291.131 542.968 292.197C536.124 294.961 529.594 298.296 521.469 299.208C519.013 299.485 516.682 301.184 514.625 302.512C509.733 305.647 504.862 308.812 500.348 312.24C498.605 313.568 497.828 315.591 496.254 317.815C498.899 318.201 500.474 318.757 501.88 318.587C507.591 317.908 513.302 317.182 518.908 316.132C534.654 313.182 550.421 310.295 566.021 306.944C580.487 303.84 594.701 300.149 609.061 296.799C625.627 292.923 642.213 289.124 658.799 285.279C664.321 283.997 669.822 282.654 675.365 281.418C676.813 281.094 678.388 281.079 680.088 280.893C680.634 283.58 678.199 284.615 676.351 285.696C665.308 292.197 654.138 298.59 643.074 305.06C640.218 306.728 637.573 308.565 635.305 310.835C663.397 301.786 688.34 288.46 715.612 278.763C718.09 280.755 716.662 281.851 715.319 282.746C707.613 287.904 699.74 292.923 692.14 298.157C686.723 301.879 681.579 305.817 676.498 309.785C675.511 310.557 675.323 311.901 674.714 313.074C677.695 314.866 680.55 314.634 683.343 313.491C697.997 307.515 710.28 299.594 719.14 289.047C720.084 287.935 720.043 286.19 719.833 284.8C719.497 282.716 720.399 280.832 723.129 281.31C730.204 282.592 735.285 279.643 740.45 277.311C758.548 269.127 778.22 264.278 799.09 262.07C805.199 261.421 811.624 261.576 817.755 262.147C828.357 263.12 838.54 261.344 848.891 260.526C860.438 259.599 870.6 255.8 880.594 251.786C886.787 249.299 892.078 245.995 896.214 241.764C899.195 238.722 902.324 235.711 900.14 231.263C904.633 231.634 905.683 233.194 904.864 235.201C904.024 237.286 902.848 239.432 901.127 241.192C891.805 250.766 878.662 256.264 863.776 259.831C846.56 263.954 829.092 265.683 810.931 264.355C799.741 263.537 788.655 265.421 778.052 268.015C763.965 271.458 750.066 275.334 738.119 282.16C736.125 283.287 733.48 283.781 731.422 284.877C728.483 286.453 725.123 287.966 723.171 290.112C715.697 298.296 706.585 305.184 695.73 310.897C694.596 311.499 692.875 311.978 692.497 312.781C689.389 319.328 681.495 316.997 675.469 317.661C671.417 318.124 667.092 317.305 663.019 317.074C663.019 316.317 662.893 315.746 663.04 315.715C667.827 314.402 670.074 311.299 673.223 308.658C679.165 303.686 686.135 299.393 692.77 294.884C695.94 292.722 699.32 290.714 702.595 288.645C702.343 288.367 702.092 288.074 701.84 287.796C700.454 288.167 698.963 288.398 697.704 288.939C686.114 293.926 674.63 299.022 663.019 303.964C656.385 306.774 649.561 309.322 642.843 312.04C640.323 313.059 637.006 313.491 637.237 316.58C637.279 317.027 634.109 318.247 633.038 317.954C630.456 317.213 628.293 317.429 625.711 317.892C621.659 318.618 618.341 316.95 615.843 313.553C613.89 310.897 615.801 308.967 618.131 307.191C619.748 305.971 621.47 304.813 623.254 303.717C629.784 299.624 632.03 299.655 638.245 303.979ZM632.45 304.581C627.327 304.55 621.281 307.654 620.777 310.403C620.651 311.144 620.987 312.333 621.68 312.627C622.645 313.043 624.451 313.229 625.333 312.827C629.301 311.067 632.786 308.92 632.45 304.581ZM529.447 293.34C536.985 292.521 542.821 289.587 543.535 286.267C538.076 286.869 534.885 288.475 529.447 293.34Z" fill="#1341B3"/>
<path d="M286.656 212.875C291.8 211.454 293.605 208.026 295.663 204.722C296.125 203.98 296.964 203.316 297.783 202.73C304.901 197.603 312.081 192.523 319.177 187.38C320.395 186.5 321.256 185.342 323.271 183.35C320.899 183.952 319.933 183.983 319.387 184.369C310.884 190.299 300.597 194.252 290.582 198.499C289.175 199.101 287.349 199.132 285.711 199.44C285.417 199.132 285.102 198.838 284.808 198.529C286.509 196.491 288.188 194.453 290.162 192.106C285.039 190.886 281.533 192.723 278.111 194.19C273.702 196.074 269.67 198.421 265.261 200.274C258.417 203.131 251.447 205.818 244.392 208.412C241.642 209.416 239.017 209.956 238.828 212.906C238.702 214.821 236.33 215.083 233.643 213.817C236.246 210.466 237.044 206.59 243.405 204.953C248.948 203.533 252.874 200.12 254.596 195.704C258.165 186.547 268.39 181.929 278.195 177.05C278.845 176.726 279.895 176.864 281.071 176.741C281.449 178.887 279.433 179.567 277.943 180.462C274.52 182.501 270.972 184.416 267.697 186.577C263.225 189.511 261.041 193.325 259.887 198.746C264.38 196.769 267.676 195.333 270.951 193.881C276.494 191.411 281.848 188.724 288.629 188.23C292.723 187.921 296.041 188.214 297.615 192.229C304.292 189.079 310.548 186.299 316.532 183.227C321.823 180.509 326.673 177.297 331.963 174.579C337.464 171.769 341.096 167.908 344.855 163.971C350.313 158.257 356.15 152.744 362.092 147.293C364.59 144.992 367.928 143.417 372.337 143.695C375.844 143.927 377.67 145.255 376.495 147.71C375.529 149.702 373.702 151.663 371.582 153.099C363.561 158.52 354.995 163.523 347.143 169.066C341.013 173.405 335.68 178.362 329.927 182.995C324.636 187.257 319.219 191.442 313.845 195.642C309.561 198.993 305.111 202.251 301.058 205.741C299.799 206.822 299.547 208.567 298.308 211.053C303.032 210.281 306.181 209.972 309.163 209.246C329.192 204.444 349.18 199.502 369.23 194.715C373.408 193.712 377.775 193.109 382.1 192.492C390.939 191.256 395.621 195.209 392.577 201.479C391.107 204.521 388.966 207.378 387.139 210.327C386.089 211.995 385.019 213.662 384.599 215.855C391.905 211.902 399.211 207.918 406.56 203.996C409.562 202.39 412.459 200.614 415.714 199.379C422.033 197.016 425.477 198.545 425.897 203.749C426.484 211.084 424.679 218.171 419.451 224.41C410.549 235.034 400.576 245.102 387.223 253.055C384.893 254.444 382.856 256.128 380.421 257.409C378.573 258.382 376.389 259.247 374.206 259.54C372.715 259.741 370.637 259.17 369.44 258.413C367.719 257.317 367.635 255.68 369.209 254.275C369.944 253.626 370.847 253.101 371.96 252.344C373.597 252.838 375.235 253.348 377.523 254.043C381.218 251.881 385.543 249.827 389.092 247.202C399.589 239.435 409.394 231.112 415.714 221.121C419.22 215.562 421.844 209.431 419.997 203.023C414.349 202.637 412.48 203.455 399.589 211.948C401.374 212.443 403.054 212.906 404.838 213.384C401.206 216.921 399.484 214.419 397.532 213.477C389.575 217.291 381.344 220.827 373.744 224.997C368.6 227.823 364.065 231.343 359.782 234.895C353.463 240.114 347.794 245.766 341.495 251.001C338.766 253.271 335.407 255.232 331.922 256.884C327.282 259.077 322.789 258.645 319.849 256.297C316.952 253.966 316.994 250.692 320.689 247.465C327.47 241.52 335.407 236.238 345.149 233.382C360.139 228.996 370.322 220.843 379.497 211.763C382.499 208.798 384.452 205.216 386.446 201.772C388.21 198.715 385.585 196.352 381.05 196.615C379.224 196.723 377.376 197.016 375.613 197.433C366.564 199.518 357.578 201.695 348.529 203.749C341.222 205.416 333.874 206.961 326.547 208.582C324.384 209.061 322.264 209.648 319.555 210.312C320.647 211.593 321.403 212.473 322.201 213.4C318.925 214.203 318.925 214.203 315.545 211.408C312.69 214.218 308.554 214.465 304.187 214.326C298.728 214.141 293.269 214.11 287.81 213.971C287.516 214.002 287.265 213.508 286.656 212.875ZM351.972 235.806C339.06 237.752 324.51 246.924 323.46 253.518C328.037 254.537 331.607 252.977 334.567 250.846C338.535 248.005 342.125 244.87 345.757 241.782C347.794 240.068 349.537 238.184 351.972 235.806ZM356.234 157.809C365.619 153.238 368.264 151.262 369.881 147.247C363.246 149.656 359.824 153.331 356.234 157.809Z" fill="#1341B3"/>
<path d="M917.26 204.938C919.591 205.309 921.312 205.571 923.202 205.865C923.685 205.664 924.336 205.463 924.84 205.139C926.96 203.811 928.913 202.329 931.138 201.109C938.046 197.341 942.392 192.23 946.234 186.67C949.257 182.285 952.952 178.116 956.773 174.07C959.524 171.151 960.994 170.796 965.801 170.009C971.533 174.811 971.596 175.985 965.927 180.139C960.679 183.984 955.493 187.89 949.929 191.473C945.688 194.222 943.525 197.526 942.14 201.464C939.893 207.888 937.521 214.311 934.371 220.504C932.986 223.252 929.92 225.692 927.023 227.838C924.315 229.861 920.934 231.436 917.659 232.981C912.914 235.204 905.482 232.61 904.684 228.487C904.6 228.055 905.629 227.499 906.07 227.066C906.889 227.267 907.539 227.283 907.686 227.483C910.437 231.637 913.397 232.533 918.226 229.969C925.05 226.325 930.991 222.233 932.293 215.408C933.133 210.961 935.505 206.668 937.332 201.958C931.537 201.973 932.041 205.17 930.592 207.795C923.958 207.007 920.032 210.713 915.182 213.215C904.012 218.99 892.906 224.843 881.463 230.309C879.028 231.467 875.165 231.56 872.099 231.313C867.753 230.973 865.255 227.344 867.229 224.287C868.992 221.538 871.344 218.929 873.947 216.566C884.151 207.285 894.543 198.113 904.831 188.879C906.238 187.612 907.372 186.192 909.324 184.092C897.21 190.732 886.208 196.769 874.325 203.27C874.283 203.533 874.094 204.83 873.926 205.988C873.107 206.22 872.582 206.513 872.267 206.421C869.223 205.618 866.452 205.479 863.092 206.143C859.523 206.853 855.408 206.143 851.398 206.035C850.915 200.244 852.658 195.395 857.34 191.334C865.129 184.57 873.107 177.915 881.043 171.229C882.408 170.086 883.92 168.928 887.048 170.271C886.25 171.229 885.641 172.186 884.739 172.958C876.865 179.66 868.845 186.284 861.077 193.048C859.166 194.716 857.592 196.723 856.584 198.761C854.988 202.02 856.941 203.919 861.56 203.255C866.221 202.576 871.281 201.695 875.081 199.765C884.991 194.747 894.312 189.11 903.844 183.69C906.595 182.131 909.03 180.169 912.032 178.934C920.41 175.46 926.099 170.194 931.285 164.465C937.962 157.115 944.302 149.533 953.582 143.711C955.661 142.399 957.844 140.947 960.343 140.283C961.854 139.882 964.521 140.515 965.78 141.379C966.557 141.92 966.263 144.113 965.382 144.977C960.952 149.332 956.605 153.841 951.378 157.64C943.651 163.261 935.043 168.217 927.128 173.715C922.95 176.618 919.339 179.969 915.707 183.258C908.862 189.496 901.808 195.642 895.53 202.174C889.274 208.691 880.141 213.4 874.955 220.534C874.199 221.584 872.687 222.465 872.414 223.546C872.036 225.074 871.658 227.452 872.792 228.147C874.094 228.935 877.558 228.904 879.154 228.163C891.037 222.542 902.648 216.597 914.468 210.883C917.386 209.463 917.281 207.378 917.26 204.938ZM962.064 144.097C960.805 143.912 959.923 143.572 959.566 143.773C956.48 145.472 953.036 146.985 950.559 149.085C945.394 153.455 940.754 158.165 935.883 162.751C943.169 160.991 955.073 152.142 962.064 144.097ZM951.672 185.466C952.133 185.667 952.721 185.991 952.784 185.929C956.752 183.103 960.846 180.37 964.5 177.359C965.843 176.247 965.99 174.502 962.925 173.143C957.949 176.602 954.086 180.633 951.672 185.466Z" fill="#1341B3"/>
<path d="M705.753 393.333C707.496 399.201 702.583 402.181 698.615 404.822C692.295 409.037 684.989 412.45 678.123 416.233C674.785 418.071 671.468 419.939 668.276 421.916C667.164 422.595 666.492 423.645 664.686 425.468C668.025 425.468 669.956 425.56 671.867 425.452C676.024 425.205 680.16 424.726 684.338 424.557C690.468 424.309 690.846 424.541 694.374 429.313C716.838 417.5 739.178 405.702 761.6 393.997C763.91 392.793 766.723 392.129 769.642 391.079C770.733 393.889 768.634 394.877 767.101 396.051C759.039 402.197 750.977 408.312 742.936 414.473C741.55 415.538 740.29 416.697 739.387 418.256C751.88 414.349 763.847 409.748 776.192 404.868C777.473 408.157 775.079 409.3 773.505 410.566C768.823 414.349 763.784 417.901 759.291 421.792C757.297 423.522 756.268 425.869 754.672 428.139C746.169 430.224 743.901 432.478 744.573 438.67C747.933 440.4 751.439 439.458 754.231 438.099C760.509 435.057 767.794 432.772 771.195 427.228C771.615 426.533 807.181 400.019 818.771 391.696C828.701 384.578 839.178 377.768 851.355 372.61C852.153 372.27 884.78 363.144 901.786 364.565C904.075 364.75 906.468 364.951 908.61 365.553C916.672 367.869 925.028 367.746 933.363 367.144C936.89 366.897 938.318 369.398 936.113 369.568C927.547 370.247 918.855 370.603 910.541 368.719C900.82 366.511 891.204 367.097 881.652 368.564C874.177 369.707 866.829 371.39 859.564 373.151C850.558 375.328 843.293 379.76 836.365 384.253C826.287 390.785 816.65 397.719 807.202 404.76C799.245 410.69 791.855 417.021 784.191 423.198C784.569 423.862 784.065 428.417 783.247 428.154C779.593 426.965 777.452 428.571 775.415 430.193C769.495 434.903 762.188 438.192 754.777 441.373C751.691 442.701 748.374 443.535 744.846 442.407C738.086 440.245 736.91 437.435 740.605 432.602C740.941 432.154 741.445 431.783 741.781 431.336C742.096 430.903 742.285 430.409 742.705 429.606C741.13 429.019 738.275 426.765 738.737 426.518C739.45 426.132 740.542 425.607 741.235 425.761C747.366 427.104 750.599 424.016 754.126 421.36C757.443 418.874 761.663 416.959 764.162 412.975C762.503 413.284 761.621 413.299 760.908 413.593C753.202 416.712 745.392 419.708 737.918 423.12C735.629 424.17 722.654 429.606 716.314 428.077C730.401 420.85 750.515 403.37 750.116 403.015C737.246 410.072 724.376 417.114 711.296 424.279C712.22 425.653 712.975 426.765 714.004 428.247C712.283 428.618 710.666 429.39 709.91 429.066C705.48 427.182 702.457 429.266 699.16 430.78C693.87 433.204 688.579 435.675 683.183 437.96C681.755 438.562 679.866 438.562 677.283 438.995C679.488 434.022 687.235 434.022 688.789 429.467C685.556 426.687 681.755 429.992 678.102 429.39C674.428 428.788 670.397 429.22 666.513 429.344C662.902 429.452 659.29 429.76 654.503 430.038C657.527 426.008 660.046 423.028 663.909 420.85C671.09 416.805 678.48 412.975 685.64 408.914C689.86 406.536 693.996 404.034 697.775 401.301C699.433 400.112 700.126 398.182 701.512 396.252C695.801 394.553 691.14 395.896 686.962 397.209C681.923 398.799 677.241 401.054 672.643 403.293C666.282 406.397 660.361 410.01 653.874 412.96C645.224 416.913 636.322 420.603 627.294 424.062C623.703 425.437 620.743 426.595 622.423 431.011C619.126 430.193 616.985 429.668 614.109 428.957C611.925 429.977 609.343 432.416 605.06 430.517C604.22 430.146 602.498 430.996 601.154 431.088C599.475 431.197 597.774 431.119 596.032 431.119C595.822 427.691 600.021 428.664 601.532 426.703C601.28 426.271 601.091 425.421 600.441 424.881C598.446 423.259 598.803 421.545 600.567 420.295C604.241 417.716 607.999 415.106 612.24 413.114C615.263 411.693 618.979 411.138 622.78 412.852C624.186 413.485 627.189 413.407 628.574 412.697C635.797 408.991 650.808 399.757 651.627 398.707C644.93 400.004 638.967 401.1 633.025 402.32C623.011 404.389 613.017 406.536 603.023 408.682C586.353 412.265 569.703 415.894 553.033 419.461C549.464 420.217 504.114 428.726 501.28 429.421C498.592 430.069 472.579 435.551 471.697 435.52C467.309 435.381 460.528 430.702 461.935 428.695C463.593 426.301 465.294 423.692 467.918 421.931C479.739 414.01 491.811 406.258 503.988 398.63C508.145 396.035 513.268 394.908 519.021 395.31C521.12 397.858 520.029 399.772 517.467 401.656C511.42 406.119 504.156 409.176 496.073 410.844C484.904 413.145 477.702 419.152 469.976 424.788C469.325 425.251 467.33 429.436 468.086 430.301C468.758 431.073 471.383 431.444 472.936 431.227C488.2 429.143 539.491 419.708 549.968 417.5C567.793 413.732 585.471 409.624 603.275 405.826C610.392 404.312 617.72 403.324 624.879 401.888C631.115 400.637 637.266 399.124 643.439 397.688C648.058 396.622 652.614 395.449 657.254 394.429C658.241 394.213 659.437 394.491 661.852 394.584C660.256 396.174 659.479 397.363 658.241 398.105C647.806 404.343 637.287 410.474 626.811 416.666C622.78 419.059 618.203 421.036 615.704 424.973C621.016 423.182 626.643 421.746 631.577 419.507C644.951 413.408 658.157 407.107 671.153 400.591C677.976 397.178 685.241 394.522 693.051 393.009C696.788 392.329 701.134 393.179 705.753 393.333ZM620.155 414.72C614.591 414.597 609.636 416.419 605.521 420.094C604.073 421.376 603.359 422.673 605.228 424.047C612.744 422.966 619.441 418.75 620.155 414.72ZM496.451 408.188C503.715 405.687 510.476 404.25 514.108 398.938C507.746 399.386 501.301 402.675 496.451 408.188Z" fill="#1341B3"/>
<path d="M234.048 337.94C238.835 339.068 242.11 337.878 245.154 336.273C251.768 332.798 258.172 329.138 264.89 325.787C270.433 323.023 276.018 320.228 282.946 319.395C286.305 318.993 289.14 318.715 291.722 321.016C292.793 321.973 295.375 322.498 297.202 322.406C300.162 322.251 303.207 321.711 305.957 320.877C320.738 316.383 335.497 311.828 350.152 307.103C354.162 305.806 357.731 303.798 361.615 302.285C362.98 301.745 364.681 301.698 366.696 301.343C366.612 304.37 364.135 304.972 362.182 305.574C353.637 308.184 349.69 313.28 347.213 319.842C348.577 319.981 349.648 320.275 350.614 320.151C357.71 319.271 364.744 318.236 371.84 317.387C385.655 315.766 399.47 315.966 413.453 316.461C429.829 317.047 446.247 318.221 462.687 317.341C474.276 316.708 485.677 315.38 496.615 312.338C496.93 312.245 497.434 312.554 498.589 312.894C497.56 313.805 496.867 315.04 495.754 315.302C490.463 316.522 485.152 317.804 479.714 318.484C465.752 320.198 451.706 320.692 437.492 319.997C422.502 319.271 407.448 319.348 392.416 318.931C378.097 318.53 364.366 321.186 350.446 322.993C346.289 323.533 344 325.154 342.594 328.027C341.208 330.868 339.171 333.539 337.261 336.504C338.437 336.983 339.759 337.523 341.061 338.064C340.893 340.473 338.332 340.735 336.589 340.241C333.272 339.299 330.563 340.148 327.435 340.55C322.732 341.137 317.798 340.704 312.99 340.704C312.843 340.349 312.486 339.809 312.612 339.747C316.35 337.786 317.231 334.574 319.289 331.856C322.249 327.934 327.687 326.035 332.936 324.321C341.25 321.603 342.909 320.259 344.945 312.029C340.284 313.527 336.19 314.947 332.012 316.183C321.493 319.302 310.933 322.359 300.351 325.386C295.543 326.76 290.987 327.162 287.103 323.703C284.899 321.757 281.686 322.761 279.356 323.61C274.401 325.432 269.593 327.532 264.953 329.772C260.313 332.011 255.799 334.45 251.495 337.029C249.228 338.388 247.569 340.272 245.553 341.847C244.504 342.665 243.349 343.916 242.11 344.009C238.163 344.287 234.153 344.117 229.66 344.117C229.66 341.106 229.66 338.126 229.66 334.08C222.899 337.477 215.929 339.33 214.207 345.584C202.828 345.692 195.354 351.869 186.137 356.1C183.932 351.174 191.826 351.112 191.889 347.591C189.832 346.788 187.564 345.893 184.814 344.812C181.875 347.19 177.508 347.221 173.204 347.375C169.005 347.53 164.826 347.653 160.061 347.808C165.078 341.461 170.054 335.948 177.403 331.671C183.596 328.073 189.454 324.182 195.27 320.259C197.894 318.483 200.015 316.291 202.219 314.438C199.952 311.921 197.39 312.399 195.354 312.909C190.777 314.067 186.347 315.55 181.896 316.939C179.481 317.696 177.235 319.117 173.791 318.02C174.505 317.217 174.799 316.461 175.471 316.183C182.777 313.156 190.315 310.485 198.776 309.79C201.4 309.574 204.55 308.786 206.334 311.102C208.119 313.388 206.817 315.55 204.739 317.217C201.631 319.734 198.209 322.051 194.745 324.321C187.648 328.984 180.384 333.508 173.309 338.172C171.818 339.16 170.768 340.504 169.571 341.646C171.272 344.271 173.875 343.685 176.332 343.329C180.657 342.696 184.919 341.863 189.265 341.415C191.197 341.214 193.632 341.307 195.228 342.017C199.868 344.086 204.172 343.499 208.161 341.492C220.611 335.222 233.355 329.2 245.091 322.267C251.453 318.499 256.261 313.218 261.321 308.354C264.491 305.312 268.27 303.35 273.246 302.686C277.277 302.161 278.873 303.628 277.739 306.562C276.333 310.222 272.868 312.77 268.837 314.839C263.714 317.48 258.465 320.028 253.028 322.298C246.603 324.985 241.732 328.83 237.155 332.922C235.644 334.172 235.14 336.072 234.048 337.94ZM337.576 326.282C330.857 327.471 326.805 330.173 323.404 333.4C322.669 334.111 322.816 335.624 323.278 336.566C323.467 336.937 325.776 337.06 326.91 336.798C333.335 335.284 336.085 331.609 337.576 326.282ZM272.91 305.96C266.003 306.871 264.197 310.268 262.182 313.527C266.801 312.322 270.349 310.268 272.91 305.96Z" fill="#1341B3"/>
<path d="M480.963 72.7873C484.868 74.1153 487.681 73.3123 490.348 72.2005C500.594 67.8613 510.923 63.6303 520.98 59.0595C536.558 51.9716 551.927 44.6522 567.401 37.4563C569.353 36.5606 571.432 35.7422 574.434 37.4254C569.521 43.7102 562.005 48.3274 556.063 53.8247C550.184 59.2448 543.55 64.217 537.671 69.7916C548.925 67.4444 558.478 62.6111 568.555 58.6425C568.933 58.905 569.332 59.1675 569.71 59.43C569.206 60.3566 568.975 61.4838 568.114 62.1633C565.595 64.1707 562.656 65.8847 560.199 67.9231C558.645 69.2202 557.722 70.9188 556.273 72.741C561.9 74.6403 566.75 74.0844 571.264 73.0961C597.025 67.4444 622.702 61.5919 648.421 55.8167C650.857 55.2762 653.313 54.7357 655.791 54.2879C665.386 52.5739 671.6 47.4935 677.899 42.4285C680.376 40.4365 683.085 38.5063 686.108 36.993C689.446 35.3098 693.162 35.7113 694.989 37.3791C696.921 39.1394 696.543 42.4594 693.372 44.2352C689.362 46.4743 685.121 48.9605 680.439 49.9487C665.554 53.1143 656.946 61.6691 647.435 69.529C646.532 70.2703 645.986 71.274 645.419 72.2159C645.062 72.8336 644.957 73.5285 644.705 74.3006C647.938 77.4662 652.138 77.0955 656.61 76.2926C666.078 74.594 673.784 70.4401 681.804 66.6723C699.629 58.3028 716.173 48.6516 732.612 38.9078C734.04 38.0585 735.72 37.4563 737.756 36.5297C735.405 34.9392 734.502 34.2289 733.473 33.6576C730.87 32.206 730.723 30.3067 731.248 28.1448C732.298 23.8983 735.867 20.6401 739.499 17.598C745.609 12.4713 752.222 7.65345 758.794 2.83559C762.531 0.102377 769.795 -0.808696 772.924 0.781817C776.199 2.4341 777.416 7.51448 774.414 11.2205C771.601 14.6795 767.759 17.7216 764.105 20.7636C760.494 23.7748 756.547 26.5543 752.726 29.4419C753.041 29.7662 753.335 30.1059 753.65 30.4302C755.938 29.828 758.185 29.0559 760.536 28.6853C765.029 27.975 769.564 27.2338 774.141 27.0176C779.978 26.7242 785.29 27.9595 788.46 31.9744C790.245 34.2289 793.1 34.1671 795.787 33.951C805.235 33.1789 814.725 32.5458 824.026 31.1869C833.096 29.8589 841.998 27.836 850.858 25.8749C861.713 23.4659 872.336 20.4548 883.275 18.3855C890.518 17.0267 895.62 13.892 900.47 10.1705C902.234 8.81159 903.892 7.39094 905.698 6.06293C906.664 5.33717 907.734 4.62685 908.91 4.10182C912.458 2.52675 918.715 2.72749 919.807 4.58052C921.465 7.40638 918.757 9.2594 916.069 10.4793C910.59 12.9655 904.984 15.4207 899.063 17.2274C895.284 18.3855 892.114 19.7444 889.447 21.999C887.474 23.6667 885.038 25.0256 882.918 26.6006C880.482 28.4073 878.11 30.2912 878.509 33.3179C882.771 34.9856 886.76 33.951 890.455 32.5766C896.04 30.492 901.415 28.1448 906.811 25.7976C908.49 25.0719 909.897 24.2226 912.101 26.3072C909.897 27.4808 907.86 28.7779 905.572 29.7199C900.533 31.8045 895.494 33.9355 890.182 35.6187C887.096 36.5915 883.485 37.271 880.168 37.1474C873.701 36.8849 871.433 33.1634 875.108 29.164C877.249 26.8323 880.021 24.8094 883.149 22.0916C876.913 21.9063 872.504 23.7902 867.864 24.9638C845.252 30.6927 822.241 35.2635 798.454 37.5335C796.396 37.7342 794.297 37.796 792.197 37.8114C788.796 37.8577 785.731 37.1938 783.694 35.001C779.789 30.8008 773.952 30.4148 768.179 31.4339C759.424 32.9936 750.836 35.1091 742.249 37.1165C740.801 37.4563 739.688 38.5218 738.407 39.263C725.054 46.9221 711.869 54.7357 698.306 62.1787C691.273 66.0392 683.484 69.1739 676.219 72.8336C673.154 74.3778 670.55 76.4316 666.876 78.8096C657.995 78.7787 647.603 81.7744 637.609 78.1302C640.674 69.6835 648.211 62.889 658.52 56.913C656.337 56.388 655.539 55.9711 655.14 56.1255C638.701 62.7655 620.288 65.1899 602.694 69.3437C595.177 71.1195 587.64 72.8799 579.956 74.177C576.072 74.841 575.4 77.1573 573.594 79.2883C570.214 78.0375 567.044 77.2809 563.474 78.8096C562.593 79.1802 560.367 77.8522 558.939 77.3735C556.651 78.0221 554.446 78.6397 551.843 79.3809C551.843 75.7367 551.843 72.8182 551.843 69.0967C546.384 71.0115 541.513 72.7101 536.223 74.5631C536.747 75.8911 537.188 77.0647 537.755 78.4699C532.695 78.4699 527.95 78.4699 523.058 78.4699C521.967 76.4624 524.129 75.4587 525.62 74.2388C536.055 65.7767 546.51 57.3299 556.903 48.8369C557.554 48.3119 557.722 47.4472 557.617 46.3662C545.419 51.215 533.598 56.388 522.492 62.2868C511.301 68.2319 497.318 71.0423 487.66 79.3501C484.301 77.3117 480.48 77.2191 476.785 79.3964C474.055 72.4167 476.974 67.5679 483.314 63.4449C491.629 58.0094 499.838 52.4658 508.005 46.9067C509.622 45.8103 510.902 44.4206 512.876 42.6756C510.692 42.1506 509.349 41.4557 508.32 41.6565C502.987 42.7219 497.717 43.9882 492.447 45.239C489.718 45.8875 487.219 47.5707 483.419 45.8875C484.448 44.8684 485.078 43.7102 486.233 43.2161C493.749 40.0196 501.937 38.1512 510.482 37.1011C513.485 36.7305 516.151 37.2092 517.621 39.3247C519.09 41.4712 518.922 43.7411 516.697 45.5478C514.051 47.6788 511.091 49.6245 508.152 51.5701C500.552 56.5887 492.888 61.5456 485.288 66.5642C482.873 68.1856 480.732 69.9305 480.963 72.7873ZM771.034 7.62257C770.866 4.20991 768.745 2.86647 765.827 3.63856C763.539 4.24079 761.271 5.32173 759.528 6.58796C755.245 9.67634 751.13 12.9191 747.183 16.2546C744.139 18.8025 741.116 21.4276 738.701 24.2998C737.001 26.3227 734.418 28.7779 737.357 31.2949C739.079 32.7619 743.656 31.6501 747.099 29.025C753.377 24.2535 759.738 19.5591 765.617 14.5251C768.242 12.286 769.732 9.33662 771.034 7.62257ZM678.76 46.428C684.89 45.625 688.921 44.158 691.84 40.0968C684.722 39.5564 682.413 42.9227 678.76 46.428ZM913.634 7.63801C909.288 6.83503 907.041 8.05494 905.992 10.4175C906.328 10.7418 906.664 11.0661 906.999 11.3749C909.225 10.1396 911.43 8.8888 913.634 7.63801Z" fill="#1341B3"/>
<path d="M184.717 470.687C183.037 471.243 181.274 471.691 179.72 472.385C174.408 474.779 174.45 474.825 170.251 471.32C167.564 473.636 164.561 475.397 160.278 473.204C159.858 472.988 158.809 473.142 158.305 473.389C154.568 475.196 151.901 474.347 149.487 471.845C147.03 469.297 147.996 466.904 150.138 464.788C154.295 460.696 158.725 456.727 163.176 452.805C165.863 450.442 168.844 448.296 171.637 445.995C172.351 445.408 172.771 444.636 174.219 442.845C170.314 444.158 167.879 444.945 165.464 445.794C163.365 446.536 161.412 447.524 159.25 448.08C153.938 449.423 148.521 450.782 143.608 446.644C140.228 448.914 137.121 450.906 134.139 453.021C126.287 458.565 118.477 464.155 110.667 469.745C109.176 470.81 107.643 471.891 106.467 473.127C103.99 475.736 101.345 475.288 98.1113 473.791C117.343 460.634 136.281 447.678 155.261 434.754C155.617 434.506 156.541 434.723 157.633 434.723C158.011 439.51 149.823 441.146 150.516 446.15C151.964 446.15 153.623 446.474 154.883 446.088C159.817 444.621 164.666 443 169.474 441.316C174.282 439.633 178.985 437.749 183.814 436.082C185.095 435.634 186.711 435.68 188.601 435.973C176.949 447.138 160.929 455.538 151.901 469.282C155.911 469.482 159.019 469.822 162.084 469.714C165.107 469.606 165.884 467.691 166.892 465.869C169.684 460.711 172.666 460.248 179.132 464.016C178.523 465.282 177.851 466.641 177.117 468.123C177.998 468.247 178.838 468.556 179.258 468.371C181.778 467.181 184.549 466.147 186.586 464.587C196.096 457.345 205.292 449.887 214.782 442.613C228.429 432.159 241.929 421.566 257.991 413.027C267.606 407.916 278.692 406.387 290.134 405.769C295.215 405.491 300.38 405.677 305.44 405.26C312.263 404.704 319.024 403.762 326.015 402.959C327.023 404.904 324.987 405.538 322.929 405.831C317.932 406.557 312.893 407.252 307.833 407.669C303.235 408.039 298.574 408.147 293.934 408.147C285.704 408.163 277.852 409.691 270.147 411.483C266.494 412.332 263.029 413.984 259.901 415.683C238.129 427.527 220.409 442.474 202.164 457.005C196.348 461.638 190.407 466.178 184.528 470.749L184.717 470.687Z" fill="#1341B3"/>
</svg>
