<svg width="25" height="25" viewBox="0 0 25 25" fill="none" xmlns="http://www.w3.org/2000/svg">
<path d="M5.90995 22.2492C4.78995 22.2492 4.07995 21.8692 3.62995 21.4192C2.74995 20.5392 2.12995 18.6692 4.10995 14.6992L4.97995 12.9692C5.08995 12.7392 5.08995 12.2592 4.97995 12.0292L4.10995 10.2992C2.11995 6.32917 2.74995 4.44917 3.62995 3.57917C4.49995 2.69917 6.37995 2.06917 10.3399 4.05917L18.8999 8.33917C21.0299 9.39917 22.1999 10.8792 22.1999 12.4992C22.1999 14.1192 21.0299 15.5992 18.9099 16.6592L10.3499 20.9392C8.40995 21.9092 6.96995 22.2492 5.90995 22.2492ZM5.90995 4.24917C5.36995 4.24917 4.94995 4.37917 4.68995 4.63917C3.95995 5.35917 4.24995 7.22917 5.44995 9.61917L6.31995 11.3592C6.63995 12.0092 6.63995 12.9892 6.31995 13.6392L5.44995 15.3692C4.24995 17.7692 3.95995 19.6292 4.68995 20.3492C5.40995 21.0792 7.27995 20.7892 9.67995 19.5892L18.2399 15.3092C19.8099 14.5292 20.6999 13.4992 20.6999 12.4892C20.6999 11.4792 19.7999 10.4492 18.2299 9.66917L9.66995 5.39917C8.14995 4.63917 6.83995 4.24917 5.90995 4.24917Z" fill="white"/>
<path d="M11.3404 13.25H5.94043C5.53043 13.25 5.19043 12.91 5.19043 12.5C5.19043 12.09 5.53043 11.75 5.94043 11.75H11.3404C11.7504 11.75 12.0904 12.09 12.0904 12.5C12.0904 12.91 11.7504 13.25 11.3404 13.25Z" fill="white"/>
</svg>
