<svg width="750" height="230" viewBox="0 0 750 230" fill="none" xmlns="http://www.w3.org/2000/svg">
<g clip-path="url(#clip0_1211_65402)">
<path d="M601.838 147.473V142.441H602.197C603.874 142.441 605.432 142.281 606.869 141.962C608.387 141.562 609.625 140.764 610.583 139.566C611.542 138.368 612.021 136.531 612.021 134.055V96.6778C612.021 94.2019 611.542 92.4049 610.583 91.2868C609.705 90.0888 608.507 89.2901 606.989 88.8908C605.472 88.4915 603.874 88.2918 602.197 88.2918H601.838V83.2603H631.788V88.2918H631.428C629.831 88.2918 628.393 88.4915 627.116 88.8908C625.918 89.2901 624.959 90.0888 624.24 91.2868C623.601 92.4848 623.282 94.2818 623.282 96.6778V111.533H631.069L639.694 101.35C642.011 98.6345 643.488 96.558 644.127 95.1204C644.846 93.6828 645.205 92.4049 645.205 91.2868C645.205 90.1687 644.806 89.4099 644.007 89.0106C643.209 88.5314 641.931 88.2918 640.174 88.2918V83.2603H665.571V88.2918C663.654 88.2918 661.817 88.7311 660.06 89.6096C658.303 90.4083 656.546 91.6462 654.789 93.3234C653.032 94.9207 651.075 96.9573 648.919 99.4331L637.059 113.33L638.017 108.059L654.909 132.617C656.267 134.614 657.584 136.371 658.862 137.889C660.14 139.326 661.498 140.444 662.935 141.243C664.373 142.042 665.93 142.441 667.608 142.441H667.967V147.473H666.29C662.935 147.473 660.14 147.353 657.904 147.113C655.747 146.794 653.871 146.235 652.273 145.436C650.756 144.637 649.318 143.479 647.961 141.962C646.603 140.444 645.085 138.408 643.408 135.852L631.069 117.523H623.282V134.055C623.282 136.451 623.641 138.248 624.36 139.446C625.079 140.644 626.037 141.443 627.235 141.842C628.513 142.241 629.911 142.441 631.428 142.441H631.788V147.473H601.838Z" fill="#212121"/>
<path d="M502.51 148.671C496.2 148.671 490.849 147.433 486.456 144.957C482.144 142.401 478.869 138.648 476.633 133.696C474.397 128.744 473.279 122.595 473.279 115.247C473.279 107.899 474.477 101.789 476.873 96.9176C479.269 91.9659 482.663 88.2521 487.055 85.7763C491.448 83.3004 496.599 82.0625 502.51 82.0625C508.819 82.0625 514.13 83.3004 518.443 85.7763C522.835 88.2521 526.15 91.9659 528.386 96.9176C530.622 101.789 531.741 107.899 531.741 115.247C531.741 122.595 530.543 128.744 528.147 133.696C525.751 138.648 522.356 142.401 517.964 144.957C513.651 147.433 508.499 148.671 502.51 148.671ZM502.51 142.92C506.663 142.92 509.977 141.882 512.453 139.806C514.929 137.649 516.726 134.495 517.844 130.342C518.962 126.188 519.521 121.157 519.521 115.247C519.521 109.257 518.962 104.225 517.844 100.152C516.726 96.079 514.929 93.0041 512.453 90.9276C509.977 88.8511 506.663 87.8129 502.51 87.8129C498.436 87.8129 495.122 88.8511 492.566 90.9276C490.09 93.0041 488.293 96.079 487.175 100.152C486.057 104.225 485.498 109.257 485.498 115.247C485.498 121.157 486.057 126.188 487.175 130.342C488.293 134.495 490.09 137.649 492.566 139.806C495.122 141.882 498.436 142.92 502.51 142.92Z" fill="#212121"/>
<path d="M359.796 147.473V142.441H360.754C362.512 142.441 364.109 142.241 365.546 141.842C367.064 141.443 368.262 140.644 369.14 139.446C370.099 138.168 370.578 136.291 370.578 133.815V89.2502H362.312C360.475 89.2502 359.037 89.5697 357.999 90.2086C356.961 90.8475 356.122 91.9257 355.483 93.4432C354.924 94.8808 354.405 96.9573 353.926 99.6727L353.087 104.345H347.457L348.176 83.2603H404.242L404.96 104.345H399.33L398.491 99.6727C398.012 96.9573 397.453 94.8808 396.814 93.4432C396.255 91.9257 395.456 90.8475 394.418 90.2086C393.38 89.5697 391.942 89.2502 390.105 89.2502H381.839V133.815C381.839 136.291 382.278 138.168 383.157 139.446C384.115 140.644 385.313 141.443 386.751 141.842C388.268 142.241 389.906 142.441 391.663 142.441H392.621V147.473H359.796Z" fill="#212121"/>
<path d="M233.371 177.422C231.294 177.422 229.577 177.063 228.219 176.344C226.941 175.625 225.983 174.587 225.344 173.229C224.785 171.952 224.506 170.394 224.506 168.557C224.506 168.158 224.506 167.759 224.506 167.359C224.506 167.04 224.545 166.72 224.625 166.401C225.823 166.64 226.941 166.8 227.98 166.88C229.018 167.04 230.016 167.12 230.975 167.12C234.728 167.12 237.843 166.041 240.319 163.885C242.795 161.729 245.151 158.055 247.387 152.864L251.341 143.879L249.184 150.348L225.584 94.6412C224.545 92.1653 223.467 90.4881 222.349 89.6096C221.231 88.7311 219.514 88.2918 217.198 88.2918H216.838V83.2603H245.59V88.2918H245.231C242.835 88.2918 241.038 88.771 239.84 89.7294C238.722 90.6079 238.163 92.0455 238.163 94.0422C238.163 94.6811 238.242 95.36 238.402 96.0788C238.562 96.7976 238.802 97.5962 239.121 98.4747L247.866 119.799C248.585 121.476 249.344 123.353 250.143 125.43C250.941 127.426 251.74 129.543 252.539 131.779C253.417 134.015 254.256 136.331 255.054 138.727H252.658C253.537 136.331 254.296 134.215 254.934 132.378C255.653 130.541 256.292 128.824 256.851 127.227C257.49 125.629 258.049 124.112 258.528 122.674L267.034 99.3133C267.434 98.3549 267.713 97.4365 267.873 96.558C268.033 95.5996 268.112 94.8009 268.112 94.162C268.112 92.0855 267.434 90.6079 266.076 89.7294C264.798 88.771 262.841 88.2918 260.206 88.2918H259.846V83.2603H284.525V88.2918H284.165C282.648 88.2918 281.37 88.5314 280.332 89.0106C279.373 89.4898 278.495 90.4083 277.696 91.766C276.898 93.1237 276.019 95.0804 275.061 97.6361L255.054 151.546C252.658 157.935 250.382 163.007 248.226 166.76C246.149 170.594 243.953 173.309 241.637 174.907C239.321 176.584 236.565 177.422 233.371 177.422Z" fill="#212121"/>
<path d="M91.4948 148.671C88.5398 148.671 86.4632 147.872 85.2652 146.275C84.0673 144.677 83.4683 142.721 83.4683 140.404C83.4683 139.925 83.4683 139.446 83.4683 138.967C83.5481 138.408 83.628 137.969 83.7079 137.649C84.4267 137.729 85.1055 137.809 85.7444 137.889C86.4632 137.969 87.1421 138.008 87.781 138.008C90.8958 138.008 93.4915 137.13 95.568 135.373C97.6445 133.616 99.3217 130.461 100.6 125.909C101.957 121.276 102.916 114.648 103.475 106.022C103.555 105.144 103.595 104.265 103.595 103.386C103.674 102.508 103.714 101.669 103.714 100.871C103.794 99.9922 103.834 99.1137 103.834 98.2351C103.914 97.3566 103.954 96.4781 103.954 95.5996C103.954 92.8042 103.355 90.8875 102.157 89.8492C100.959 88.8109 99.0821 88.2918 96.5264 88.2918H93.5314V83.2603H151.514V88.2918H151.155C149.398 88.2918 147.76 88.4915 146.243 88.8908C144.805 89.2901 143.607 90.0888 142.649 91.2868C141.77 92.4848 141.331 94.3616 141.331 96.9174V133.815C141.331 136.291 141.77 138.168 142.649 139.446C143.607 140.644 144.805 141.443 146.243 141.842C147.76 142.241 149.398 142.441 151.155 142.441H151.514V147.473H120.965V142.441H121.325C123.002 142.441 124.479 142.241 125.757 141.842C127.115 141.443 128.153 140.644 128.872 139.446C129.671 138.168 130.07 136.291 130.07 133.815V89.2502H111.022L110.064 107.22C109.345 120.957 107.428 131.3 104.313 138.248C101.199 145.196 96.9257 148.671 91.4948 148.671Z" fill="#212121"/>
<path fill-rule="evenodd" clip-rule="evenodd" d="M288.533 154.012C274.391 158.86 268.247 158.493 253.796 159.242C253.796 162.947 252.83 166.281 252.038 169.232C248.604 182.018 237.385 191.012 224.518 198.932C210.231 207.692 196.082 216.585 177.995 221.418C169.524 223.666 161.337 223.309 154.504 220.545C144.565 216.524 143.272 207.669 152.019 197.889C160.767 188.109 174.858 180.435 192.283 171.097C231.754 146.833 273.605 126.175 316.19 104.865C326.447 99.73 345.821 89.1341 345.821 85.3328C345.821 84.0426 336.475 86.1718 332.4 86.8094C286.884 93.7898 266.161 96.7367 221.536 104.708C183.301 109.876 179.307 111.049 157.595 113.097C133.052 115.413 108.325 116.654 83.6439 118.03C77.3248 118.366 73.2952 119.373 71.5094 124.373C69.632 129.575 71.5094 138.486 63.2214 140.683C53.2304 143.332 20.2505 148.889 13.951 138.737C9.70344 131.89 29.9776 108.567 54.338 108.902C73.57 109.137 92.9393 110.479 111.942 109.171L114.118 109.021L114.119 109.021C158.179 105.983 227.651 94.7195 235.612 93.7417C282.933 87.9306 297.309 85.3328 347.419 79.225C354.654 78.1846 367.123 75.2664 368.574 77.0435C372.604 81.9768 368.757 83.5877 365.506 85.3328C339.864 99.0923 314.084 112.751 288.533 126.578C276.536 133.088 264.905 139.968 252.542 146.982C261.961 151.168 267.973 150.607 275.208 149.164C293.524 145.506 309.505 138.324 325.257 131.008C368.437 111.04 411.48 90.9372 454.156 70.4322C483.416 56.4043 510.956 42.7698 542.598 31.93C552.671 28.4733 571.649 22.8446 594.71 17.8535C633.383 9.48373 665.883 10.849 694.143 13.0616C722.404 15.2742 736.073 24.742 739.068 29.8335C739.675 30.8649 738.877 35.833 735.175 34.326C731.445 32.8077 724.409 28.1724 716.313 25.7707C700.181 20.985 685.363 20.0172 673.778 19.9501C654.61 19.9501 640.234 20.6408 622.299 22.8446C597.106 25.94 575.272 31.1675 553.247 38.6513C528.566 47.0412 504.663 56.2365 481.447 67.0763C451.775 80.9364 426.161 95.2231 396.443 109.016C373.822 119.487 337.062 132.654 323.883 139.196C310.704 145.738 302.674 149.164 288.533 154.012ZM177.033 211.819C171.31 213.565 159.635 216.724 159.221 210.108C158.941 205.639 174.79 194.335 183.673 187.992C196.311 178.965 210.094 170.776 223.511 162.352C226.121 160.708 229.234 159.231 232.485 158.493C240.178 156.748 244.895 159.835 242.559 165.406C240.361 170.675 237.409 176.631 233.264 180.475C217.643 194.959 199.333 204.906 177.033 211.819ZM45.6837 131.622C40.2804 132.797 26.9209 133.7 23.6128 131.89C24.327 127.402 28.4032 123.11 34.3321 121.104C40.8801 118.89 47.3779 118.165 54.567 117.997C59.0545 117.896 60.9319 122.192 58.1845 124.742C55.0249 127.662 50.4459 130.582 45.6837 131.622Z" fill="#91BC73"/>
<path d="M601.837 147.472V142.44H602.197C603.874 142.44 605.431 142.28 606.869 141.961C608.386 141.561 609.624 140.763 610.583 139.565C611.541 138.367 612.02 136.53 612.02 134.054V96.6768C612.02 94.2009 611.541 92.4039 610.583 91.2858C609.704 90.0878 608.506 89.2892 606.989 88.8898C605.471 88.4905 603.874 88.2908 602.197 88.2908H601.837V83.2593H631.787V88.2908H631.428C629.83 88.2908 628.393 88.4905 627.115 88.8898C625.917 89.2892 624.959 90.0878 624.24 91.2858C623.601 92.4838 623.281 94.2808 623.281 96.6768V111.532H631.068L639.694 101.349C642.01 98.6335 643.488 96.557 644.126 95.1194C644.845 93.6818 645.205 92.4039 645.205 91.2858C645.205 90.1677 644.805 89.409 644.007 89.0096C643.208 88.5304 641.93 88.2908 640.173 88.2908V83.2593H665.571V88.2908C663.654 88.2908 661.817 88.7301 660.06 89.6086C658.303 90.4073 656.546 91.6452 654.789 93.3224C653.032 94.9197 651.075 96.9563 648.918 99.4322L637.058 113.329L638.017 108.058L654.908 132.616C656.266 134.613 657.584 136.37 658.862 137.888C660.14 139.325 661.497 140.443 662.935 141.242C664.373 142.041 665.93 142.44 667.607 142.44H667.967V147.472H666.289C662.935 147.472 660.14 147.352 657.903 147.112C655.747 146.793 653.87 146.234 652.273 145.435C650.755 144.636 649.318 143.478 647.96 141.961C646.602 140.443 645.085 138.407 643.408 135.851L631.068 117.522H623.281V134.054C623.281 136.45 623.641 138.247 624.36 139.445C625.078 140.643 626.037 141.442 627.235 141.841C628.513 142.24 629.91 142.44 631.428 142.44H631.787V147.472H601.837Z" fill="#212121"/>
<path d="M502.509 148.67C496.199 148.67 490.848 147.432 486.456 144.956C482.143 142.4 478.868 138.647 476.632 133.695C474.396 128.743 473.278 122.594 473.278 115.246C473.278 107.898 474.476 101.788 476.872 96.9166C479.268 91.9649 482.662 88.2511 487.055 85.7753C491.447 83.2994 496.599 82.0615 502.509 82.0615C508.818 82.0615 514.129 83.2994 518.442 85.7753C522.835 88.2511 526.149 91.9649 528.385 96.9166C530.622 101.788 531.74 107.898 531.74 115.246C531.74 122.594 530.542 128.743 528.146 133.695C525.75 138.647 522.356 142.4 517.963 144.956C513.65 147.432 508.499 148.67 502.509 148.67ZM502.509 142.919C506.662 142.919 509.976 141.881 512.452 139.805C514.928 137.648 516.725 134.494 517.843 130.341C518.961 126.188 519.52 121.156 519.52 115.246C519.52 109.256 518.961 104.224 517.843 100.151C516.725 96.078 514.928 93.0032 512.452 90.9266C509.976 88.8501 506.662 87.8119 502.509 87.8119C498.436 87.8119 495.121 88.8501 492.565 90.9266C490.09 93.0032 488.293 96.078 487.175 100.151C486.056 104.224 485.497 109.256 485.497 115.246C485.497 121.156 486.056 126.188 487.175 130.341C488.293 134.494 490.09 137.648 492.565 139.805C495.121 141.881 498.436 142.919 502.509 142.919Z" fill="#212121"/>
<path fill-rule="evenodd" clip-rule="evenodd" d="M359.795 142.44V147.472H392.62V142.44H391.662C389.905 142.44 388.268 142.24 386.75 141.841C385.313 141.442 384.115 140.643 383.156 139.445C382.278 138.167 381.838 136.29 381.838 133.814V89.2492H390.105C391.941 89.2492 393.379 89.5687 394.417 90.2076C394.91 90.511 395.349 90.9134 395.734 91.4148L404.397 87.8511L404.241 83.2593H348.175L347.456 104.344H353.087L353.925 99.6718C354.404 96.9563 354.924 94.8798 355.483 93.4422C356.122 91.9247 356.96 90.8466 357.998 90.2076C359.037 89.5687 360.474 89.2492 362.311 89.2492H370.577V133.814C370.577 136.29 370.098 138.167 369.14 139.445C368.261 140.643 367.063 141.442 365.546 141.841C364.108 142.24 362.511 142.44 360.754 142.44H359.795Z" fill="#212121"/>
<path fill-rule="evenodd" clip-rule="evenodd" d="M233.37 177.421C231.293 177.421 229.576 177.062 228.219 176.343C226.941 175.624 225.982 174.586 225.343 173.228C224.784 171.951 224.505 170.393 224.505 168.556V167.358C224.505 167.039 224.545 166.719 224.625 166.4C225.823 166.639 226.941 166.799 227.979 166.879C229.017 167.039 230.016 167.119 230.974 167.119C234.728 167.119 237.842 166.04 240.318 163.884C242.794 161.728 245.15 158.054 247.386 152.863L248.845 149.548L229.5 103.886L240.318 101.395L247.866 119.798C248.584 121.475 249.343 123.352 250.142 125.429C250.94 127.425 251.739 129.542 252.538 131.778C252.997 132.947 253.445 134.137 253.883 135.35C254.263 134.289 254.613 133.298 254.934 132.377C255.653 130.54 256.291 128.823 256.851 127.226C257.489 125.628 258.049 124.111 258.528 122.673L267.033 99.3124C267.272 98.739 267.468 98.1799 267.622 97.6352L275.664 96.0778C275.466 96.5695 275.265 97.0886 275.06 97.6352L255.054 151.545C252.658 157.934 250.381 163.006 248.225 166.759C246.148 170.593 243.952 173.308 241.636 174.906C239.32 176.583 236.565 177.421 233.37 177.421ZM284.524 85.7751V83.2593H259.846V88.2908H260.205C261.616 88.2908 262.832 88.4282 263.854 88.7028L284.524 85.7751ZM222.348 89.6086C223.085 90.187 223.803 91.1115 224.505 92.3822L238.475 91.765C238.75 90.906 239.204 90.2271 239.839 89.7284C241.037 88.77 242.834 88.2908 245.23 88.2908H245.589V83.2593H216.838V88.2908H217.197C219.513 88.2908 221.23 88.7301 222.348 89.6086Z" fill="#212121"/>
<path d="M91.4941 148.67C88.539 148.67 86.4625 147.871 85.2645 146.274C84.0665 144.676 83.4675 142.72 83.4675 140.403C83.4675 139.924 83.4675 139.445 83.4675 138.966C83.5474 138.407 83.6273 137.968 83.7071 137.648C84.4259 137.728 85.1048 137.808 85.7437 137.888C86.4625 137.968 87.1414 138.007 87.7803 138.007C90.8951 138.007 93.4907 137.129 95.5672 135.372C97.6438 133.615 99.3209 130.46 100.599 125.908C101.957 121.276 102.915 114.647 103.474 106.021C103.554 105.143 103.594 104.264 103.594 103.386C103.674 102.507 103.714 101.668 103.714 100.87C103.793 99.9912 103.833 99.1127 103.833 98.2342C103.913 97.3556 103.953 96.4771 103.953 95.5986C103.953 92.8033 103.354 90.8865 102.156 89.8482C100.958 88.81 99.0813 88.2908 96.5256 88.2908H93.5307V83.2593H151.513V88.2908H151.154C149.397 88.2908 147.76 88.4905 146.242 88.8898C144.805 89.2892 143.607 90.0878 142.648 91.2858C141.77 92.4838 141.33 94.3607 141.33 96.9164V133.814C141.33 136.29 141.77 138.167 142.648 139.445C143.607 140.643 144.805 141.442 146.242 141.841C147.76 142.24 149.397 142.44 151.154 142.44H151.513V147.472H120.965V142.44H121.324C123.001 142.44 124.479 142.24 125.757 141.841C127.114 141.442 128.153 140.643 128.871 139.445C129.67 138.167 130.069 136.29 130.069 133.814V89.2492H111.021L110.063 107.219C109.344 120.956 107.427 131.299 104.313 138.247C101.198 145.195 96.925 148.67 91.4941 148.67Z" fill="#212121"/>
<path d="M578.74 -28.8758L585.858 -20.8691L595.786 -25.0647L590.257 -15.9206L597.374 -7.91392L586.84 -10.2693L581.311 -1.12532L580.329 -11.7251L569.794 -14.0805L579.722 -18.2761L578.74 -28.8758Z" fill="#FFCD29"/>
<path d="M38.5489 92.5961C36.0305 92.5961 33.9889 95.3648 33.9889 98.7802C33.9889 102.196 38.5489 109.431 38.5489 109.431C38.5489 109.431 43.1089 102.196 43.1089 98.7802C43.1089 95.3648 41.0673 92.5961 38.5489 92.5961Z" fill="#FFAFF7"/>
<path d="M38.3533 126.196C35.8349 126.196 33.7933 123.428 33.7933 120.012C33.7933 116.597 38.3533 109.362 38.3533 109.362C38.3533 109.362 42.9133 116.597 42.9133 120.012C42.9133 123.428 40.8717 126.196 38.3533 126.196Z" fill="#FFAFF7"/>
<path d="M53.6426 101.803C52.5149 99.5839 49.0882 99.0251 45.9888 100.554C42.8895 102.084 38.3658 109.341 38.3658 109.341C38.3658 109.341 46.9733 110.119 50.0726 108.589C53.172 107.06 54.7703 104.021 53.6426 101.803Z" fill="#FFAFF7"/>
<path d="M23.2606 116.988C22.1329 114.769 23.7313 111.73 26.8306 110.201C29.93 108.672 38.5374 109.449 38.5374 109.449C38.5374 109.449 34.0138 116.707 30.9144 118.236C27.8151 119.765 24.3883 119.206 23.2606 116.988Z" fill="#FFAFF7"/>
<path d="M52.8162 118.333C54.1593 116.234 52.8711 113.055 49.9389 111.234C47.0067 109.412 38.3633 109.355 38.3633 109.355C38.3633 109.355 42.1428 117.014 45.075 118.835C48.0072 120.657 51.473 120.432 52.8162 118.333Z" fill="#FFAFF7"/>
<path d="M24.0846 100.46C25.4277 98.3612 28.8935 98.1362 31.8257 99.9577C34.7579 101.779 38.5374 109.439 38.5374 109.439C38.5374 109.439 29.894 109.381 26.9618 107.559C24.0296 105.738 22.7415 102.559 24.0846 100.46Z" fill="#FFAFF7"/>
<path d="M562.588 11.4888C560.4 11.857 559.053 14.572 559.579 17.5529C560.106 20.5338 565.183 26.1818 565.183 26.1818C565.183 26.1818 568.029 19.2005 567.503 16.2195C566.976 13.2386 564.776 11.1206 562.588 11.4888Z" fill="#FFAFF7"/>
<path d="M567.568 40.8241C565.38 41.1923 563.18 39.0743 562.653 36.0934C562.127 33.1124 564.973 26.131 564.973 26.131C564.973 26.131 570.05 31.779 570.577 34.76C571.103 37.7409 569.756 40.4559 567.568 40.8241Z" fill="#FFAFF7"/>
<path d="M577.155 17.298C575.829 15.5257 572.755 15.5389 570.29 17.3275C567.825 19.1161 565.004 26.1138 565.004 26.1138C565.004 26.1138 572.627 25.5339 575.093 23.7454C577.558 21.9568 578.481 19.0702 577.155 17.298Z" fill="#FFAFF7"/>
<path d="M553.001 35.0156C551.675 33.2434 552.599 30.3568 555.064 28.5682C557.529 26.7797 565.153 26.1998 565.153 26.1998C565.153 26.1998 562.332 33.1975 559.866 34.9861C557.401 36.7746 554.328 36.7879 553.001 35.0156Z" fill="#FFAFF7"/>
<path d="M578.971 31.8319C579.817 29.8089 578.203 27.2302 575.365 26.0722C572.528 24.9142 564.985 26.1241 564.985 26.1241C564.985 26.1241 569.464 32.2401 572.301 33.3981C575.139 34.5561 578.125 33.8549 578.971 31.8319Z" fill="#FFAFF7"/>
<path d="M551.182 20.4833C552.028 18.4603 555.014 17.7591 557.851 18.9171C560.689 20.075 565.167 26.191 565.167 26.191C565.167 26.191 557.625 27.401 554.787 26.243C551.95 25.085 550.336 22.5063 551.182 20.4833Z" fill="#FFAFF7"/>
<path d="M437.749 69.6375C435.904 69.948 434.768 72.2373 435.212 74.7509C435.656 77.2645 439.937 82.027 439.937 82.027C439.937 82.027 442.337 76.1402 441.894 73.6266C441.45 71.113 439.594 69.327 437.749 69.6375Z" fill="#FFAFF7"/>
<path d="M441.949 94.375C440.104 94.6855 438.248 92.8995 437.804 90.3859C437.36 87.8724 439.76 81.9855 439.76 81.9855C439.76 81.9855 444.041 86.748 444.485 89.2616C444.929 91.7752 443.794 94.0645 441.949 94.375Z" fill="#FFAFF7"/>
<path d="M450.032 74.5367C448.914 73.0423 446.322 73.0535 444.243 74.5616C442.165 76.0698 439.786 81.9704 439.786 81.9704C439.786 81.9704 446.214 81.4815 448.293 79.9733C450.372 78.4651 451.15 76.0311 450.032 74.5367Z" fill="#FFAFF7"/>
<path d="M429.665 89.4769C428.547 87.9825 429.326 85.5485 431.404 84.0403C433.483 82.5322 439.911 82.0432 439.911 82.0432C439.911 82.0432 437.533 87.9438 435.454 89.452C433.375 90.9601 430.784 90.9713 429.665 89.4769Z" fill="#FFAFF7"/>
<path d="M451.564 86.7926C452.278 85.0867 450.917 82.9123 448.524 81.9359C446.131 80.9594 439.771 81.9797 439.771 81.9797C439.771 81.9797 443.548 87.1368 445.94 88.1133C448.333 89.0897 450.851 88.4984 451.564 86.7926Z" fill="#FFAFF7"/>
<path d="M428.131 77.222C428.844 75.5161 431.362 74.9248 433.755 75.9013C436.148 76.8777 439.924 82.0348 439.924 82.0348C439.924 82.0348 433.564 83.0551 431.171 82.0786C428.779 81.1022 427.418 78.9278 428.131 77.222Z" fill="#FFAFF7"/>
<path d="M261.191 140.084C258.019 138.834 254.01 141.332 252.239 145.663C250.467 149.993 252.458 161.43 252.458 161.43C252.458 161.43 261.956 154.519 263.728 150.188C265.5 145.857 264.364 141.333 261.191 140.084Z" fill="#FFAFF7"/>
<path d="M243.566 182.549C240.393 181.299 239.258 176.775 241.029 172.445C242.801 168.114 252.299 161.202 252.299 161.202C252.299 161.202 254.291 172.639 252.519 176.97C250.747 181.301 246.739 183.798 243.566 182.549Z" fill="#FFAFF7"/>
<path d="M275.54 159.274C275.269 155.922 271.223 153.528 266.503 153.927C261.782 154.326 252.274 161.241 252.274 161.241C252.274 161.241 262.764 166.466 267.484 166.067C272.204 165.668 275.811 162.627 275.54 159.274Z" fill="#FFAFF7"/>
<path d="M229.217 163.357C228.946 160.005 232.552 156.964 237.273 156.565C241.993 156.166 252.483 161.391 252.483 161.391C252.483 161.391 242.974 168.306 238.254 168.705C233.534 169.104 229.488 166.71 229.217 163.357Z" fill="#FFAFF7"/>
<path d="M265.928 179.798C268.723 177.802 268.749 173.133 265.986 169.368C263.223 165.603 252.311 161.24 252.311 161.24C252.311 161.24 253.103 172.829 255.865 176.594C258.628 180.359 263.133 181.793 265.928 179.798Z" fill="#FFAFF7"/>
<path d="M238.828 142.832C241.623 140.837 246.128 142.271 248.891 146.036C251.653 149.801 252.445 161.39 252.445 161.39C252.445 161.39 241.533 157.027 238.77 153.262C236.007 149.497 236.033 144.827 238.828 142.832Z" fill="#FFAFF7"/>
<path d="M687.831 5.67335C686.024 5.20001 684.013 6.81454 683.339 9.27948C682.664 11.7444 684.507 17.8231 684.507 17.8231C684.507 17.8231 689.208 13.4585 689.882 10.9936C690.556 8.52863 689.638 6.14668 687.831 5.67335Z" fill="#FFAFF7"/>
<path d="M681.085 29.8645C679.278 29.3912 678.36 27.0092 679.034 24.5443C679.708 22.0793 684.409 17.7147 684.409 17.7147C684.409 17.7147 686.252 23.7934 685.577 26.2584C684.903 28.7233 682.892 30.3378 681.085 29.8645Z" fill="#FFAFF7"/>
<path d="M696.9 15.1694C696.527 13.3644 694.168 12.3218 691.632 12.8407C689.095 13.3596 684.396 17.7269 684.396 17.7269C684.396 17.7269 690.444 19.8959 692.981 19.3771C695.518 18.8582 697.272 16.9743 696.9 15.1694Z" fill="#FFAFF7"/>
<path d="M672.017 20.3655C671.645 18.5606 673.399 16.6767 675.936 16.1578C678.473 15.639 684.521 17.808 684.521 17.808C684.521 17.808 679.822 22.1753 677.285 22.6942C674.749 23.2131 672.39 22.1705 672.017 20.3655Z" fill="#FFAFF7"/>
<path d="M693.051 26.9288C694.436 25.6662 694.138 23.1301 692.386 21.2642C690.634 19.3983 684.415 17.7319 684.415 17.7319C684.415 17.7319 685.62 23.9707 687.372 25.8365C689.124 27.7024 691.667 28.1915 693.051 26.9288Z" fill="#FFAFF7"/>
<path d="M675.868 8.60523C677.252 7.34261 679.795 7.83164 681.547 9.69752C683.299 11.5634 684.504 17.8022 684.504 17.8022C684.504 17.8022 678.286 16.1358 676.533 14.2699C674.781 12.404 674.483 9.86786 675.868 8.60523Z" fill="#FFAFF7"/>
</g>
<defs>
<clipPath id="clip0_1211_65402">
<rect width="750" height="230" fill="white"/>
</clipPath>
</defs>
</svg>
