<svg width="750" height="230" viewBox="0 0 750 230" fill="none" xmlns="http://www.w3.org/2000/svg">
<g clip-path="url(#clip0_1211_65621)">
<path d="M601.837 147.473V142.441H602.197C603.874 142.441 605.431 142.281 606.869 141.962C608.386 141.562 609.624 140.764 610.583 139.566C611.541 138.368 612.02 136.531 612.02 134.055V96.6778C612.02 94.2019 611.541 92.4049 610.583 91.2868C609.704 90.0888 608.506 89.2901 606.989 88.8908C605.471 88.4915 603.874 88.2918 602.197 88.2918H601.837V83.2603H631.787V88.2918H631.428C629.83 88.2918 628.393 88.4915 627.115 88.8908C625.917 89.2901 624.959 90.0888 624.24 91.2868C623.601 92.4848 623.281 94.2818 623.281 96.6778V111.533H631.068L639.694 101.35C642.01 98.6345 643.488 96.558 644.126 95.1204C644.845 93.6828 645.205 92.4049 645.205 91.2868C645.205 90.1687 644.805 89.4099 644.007 89.0106C643.208 88.5314 641.93 88.2918 640.173 88.2918V83.2603H665.571V88.2918C663.654 88.2918 661.817 88.7311 660.06 89.6096C658.303 90.4083 656.546 91.6462 654.789 93.3234C653.032 94.9207 651.075 96.9573 648.918 99.4331L637.058 113.33L638.017 108.059L654.908 132.617C656.266 134.614 657.584 136.371 658.862 137.889C660.14 139.326 661.497 140.444 662.935 141.243C664.373 142.042 665.93 142.441 667.607 142.441H667.967V147.473H666.289C662.935 147.473 660.14 147.353 657.903 147.113C655.747 146.794 653.87 146.235 652.273 145.436C650.755 144.637 649.318 143.479 647.96 141.962C646.602 140.444 645.085 138.408 643.408 135.852L631.068 117.523H623.281V134.055C623.281 136.451 623.641 138.248 624.36 139.446C625.078 140.644 626.037 141.443 627.235 141.842C628.513 142.241 629.91 142.441 631.428 142.441H631.787V147.473H601.837Z" fill="#212121"/>
<path d="M502.509 148.671C496.199 148.671 490.848 147.433 486.456 144.957C482.143 142.401 478.868 138.648 476.632 133.696C474.396 128.744 473.278 122.595 473.278 115.247C473.278 107.899 474.476 101.789 476.872 96.9176C479.268 91.9659 482.662 88.2521 487.055 85.7763C491.447 83.3004 496.599 82.0625 502.509 82.0625C508.818 82.0625 514.129 83.3004 518.442 85.7763C522.835 88.2521 526.149 91.9659 528.385 96.9176C530.622 101.789 531.74 107.899 531.74 115.247C531.74 122.595 530.542 128.744 528.146 133.696C525.75 138.648 522.356 142.401 517.963 144.957C513.65 147.433 508.499 148.671 502.509 148.671ZM502.509 142.92C506.662 142.92 509.976 141.882 512.452 139.806C514.928 137.649 516.725 134.495 517.843 130.342C518.961 126.188 519.52 121.157 519.52 115.247C519.52 109.257 518.961 104.225 517.843 100.152C516.725 96.079 514.928 93.0041 512.452 90.9276C509.976 88.8511 506.662 87.8129 502.509 87.8129C498.436 87.8129 495.121 88.8511 492.565 90.9276C490.09 93.0041 488.293 96.079 487.175 100.152C486.056 104.225 485.497 109.257 485.497 115.247C485.497 121.157 486.056 126.188 487.175 130.342C488.293 134.495 490.09 137.649 492.565 139.806C495.121 141.882 498.436 142.92 502.509 142.92Z" fill="#212121"/>
<path d="M359.795 147.473V142.441H360.754C362.511 142.441 364.108 142.241 365.546 141.842C367.063 141.443 368.261 140.644 369.14 139.446C370.098 138.168 370.577 136.291 370.577 133.815V89.2502H362.311C360.474 89.2502 359.037 89.5697 357.998 90.2086C356.96 90.8475 356.122 91.9257 355.483 93.4432C354.924 94.8808 354.404 96.9573 353.925 99.6727L353.087 104.345H347.456L348.175 83.2603H404.241L404.96 104.345H399.329L398.49 99.6727C398.011 96.9573 397.452 94.8808 396.813 93.4432C396.254 91.9257 395.456 90.8475 394.417 90.2086C393.379 89.5697 391.941 89.2502 390.105 89.2502H381.838V133.815C381.838 136.291 382.278 138.168 383.156 139.446C384.115 140.644 385.313 141.443 386.75 141.842C388.268 142.241 389.905 142.441 391.662 142.441H392.62V147.473H359.795Z" fill="#212121"/>
<path d="M233.37 177.422C231.293 177.422 229.576 177.063 228.219 176.344C226.941 175.625 225.982 174.587 225.343 173.229C224.784 171.952 224.505 170.394 224.505 168.557C224.505 168.158 224.505 167.759 224.505 167.359C224.505 167.04 224.545 166.72 224.625 166.401C225.823 166.64 226.941 166.8 227.979 166.88C229.017 167.04 230.016 167.12 230.974 167.12C234.728 167.12 237.842 166.041 240.318 163.885C242.794 161.729 245.15 158.055 247.386 152.864L251.34 143.879L249.183 150.348L225.583 94.6412C224.545 92.1653 223.467 90.4881 222.348 89.6096C221.23 88.7311 219.513 88.2918 217.197 88.2918H216.838V83.2603H245.589V88.2918H245.23C242.834 88.2918 241.037 88.771 239.839 89.7294C238.721 90.6079 238.162 92.0455 238.162 94.0422C238.162 94.6811 238.242 95.36 238.401 96.0788C238.561 96.7976 238.801 97.5962 239.12 98.4747L247.866 119.799C248.584 121.476 249.343 123.353 250.142 125.43C250.94 127.426 251.739 129.543 252.538 131.779C253.416 134.015 254.255 136.331 255.054 138.727H252.658C253.536 136.331 254.295 134.215 254.934 132.378C255.653 130.541 256.291 128.824 256.851 127.227C257.489 125.629 258.049 124.112 258.528 122.674L267.033 99.3133C267.433 98.3549 267.712 97.4365 267.872 96.558C268.032 95.5996 268.112 94.8009 268.112 94.162C268.112 92.0855 267.433 90.6079 266.075 89.7294C264.797 88.771 262.84 88.2918 260.205 88.2918H259.846V83.2603H284.524V88.2918H284.165C282.647 88.2918 281.369 88.5314 280.331 89.0106C279.373 89.4898 278.494 90.4083 277.696 91.766C276.897 93.1237 276.018 95.0804 275.06 97.6361L255.054 151.546C252.658 157.935 250.381 163.007 248.225 166.76C246.148 170.594 243.952 173.309 241.636 174.907C239.32 176.584 236.565 177.422 233.37 177.422Z" fill="#212121"/>
<path d="M91.4941 148.671C88.539 148.671 86.4625 147.872 85.2645 146.275C84.0665 144.677 83.4675 142.721 83.4675 140.404C83.4675 139.925 83.4675 139.446 83.4675 138.967C83.5474 138.408 83.6273 137.969 83.7071 137.649C84.4259 137.729 85.1048 137.809 85.7437 137.889C86.4625 137.969 87.1414 138.008 87.7803 138.008C90.8951 138.008 93.4907 137.13 95.5672 135.373C97.6438 133.616 99.3209 130.461 100.599 125.909C101.957 121.276 102.915 114.648 103.474 106.022C103.554 105.144 103.594 104.265 103.594 103.386C103.674 102.508 103.714 101.669 103.714 100.871C103.793 99.9922 103.833 99.1137 103.833 98.2351C103.913 97.3566 103.953 96.4781 103.953 95.5996C103.953 92.8042 103.354 90.8875 102.156 89.8492C100.958 88.8109 99.0813 88.2918 96.5256 88.2918H93.5307V83.2603H151.513V88.2918H151.154C149.397 88.2918 147.76 88.4915 146.242 88.8908C144.805 89.2901 143.607 90.0888 142.648 91.2868C141.77 92.4848 141.33 94.3616 141.33 96.9174V133.815C141.33 136.291 141.77 138.168 142.648 139.446C143.607 140.644 144.805 141.443 146.242 141.842C147.76 142.241 149.397 142.441 151.154 142.441H151.513V147.473H120.965V142.441H121.324C123.001 142.441 124.479 142.241 125.757 141.842C127.114 141.443 128.153 140.644 128.871 139.446C129.67 138.168 130.069 136.291 130.069 133.815V89.2502H111.021L110.063 107.22C109.344 120.957 107.427 131.3 104.313 138.248C101.198 145.196 96.925 148.671 91.4941 148.671Z" fill="#212121"/>
<path d="M454.393 62.0756C459.698 70.6292 446.528 84.7339 436.91 91.5783C421.028 102.879 402.545 112.24 385.207 122.502C376.782 127.491 368.398 132.555 360.367 137.869C356.856 140.187 354.89 141.027 356.81 143.675C358.326 145.766 388.539 144.088 400.24 138.638C412.695 132.857 424.078 146.594 423.293 156.128C423.212 156.998 458.86 136.854 461.707 135.202C473.065 128.784 484.384 122.367 495.741 115.91C518.38 103.076 533.318 94.1146 555.997 81.3165C573.503 71.4638 599.767 54.2707 604.712 57.4063C609.735 60.5767 583.847 83.6021 578.164 88.1883C568.729 95.8179 542.333 119.181 538.035 124.374C536.424 126.319 530.594 133.065 533.017 132.334C546.236 128.524 575.649 110.573 582.513 107.791C598.087 101.48 620.057 88.18 627.508 93.7497C630.109 95.6899 625.06 100.856 622.648 102.869C610.932 112.922 598.312 122.405 587.103 132.703C582.147 137.299 556.614 156.578 550.921 165.917C543.896 177.493 574.804 177.221 581.974 173.447C597.855 165.126 666.624 111.813 695.681 89.575C695.681 89.575 720.812 66.2796 729.276 75.9625C733.595 80.9032 707.255 92.1767 685.95 108.176C679.122 113.303 669.145 122.138 669.145 122.138L652.34 136.099C652.267 136.178 596.974 176.362 578.164 185.169C566.802 190.494 553.412 189.02 542.106 182.764C539.405 181.242 536.763 179.228 535.659 176.403C534.215 172.684 535.701 168.48 537.87 165.118C540.185 161.563 564.872 139.185 573.715 132.106C579.808 127.203 593.596 117.224 603.962 108.918C605.634 107.574 604.04 104.955 602.044 105.821C595.148 108.755 586.672 113.407 583.81 114.683C577.935 117.277 544.451 135.907 532.129 138.137C486.603 146.314 569.848 81.0288 569.492 80.7403C537.022 99.861 449.07 153.248 440.728 157.404C427.311 164.05 413.938 170.845 400.24 177.162C396.628 178.843 383.099 182.551 387.531 174.277C388.961 171.621 394.728 170.2 397.391 168.744C402.304 166.034 411.651 162.219 412.614 156.128C416.459 131.805 381.484 155.42 363.305 156.128C346.329 154.589 339.324 141.366 348.906 135.579C367.022 124.61 385.694 114.186 403.771 103.218C412.117 98.1559 420.379 92.9083 428.318 87.2201C433.612 83.4405 437.254 79.5337 440.433 74.5501C441.987 72.1163 440.558 68.8124 437.635 68.4683C426.9 67.1317 416.317 69.7874 406.039 73.4125C393.192 77.9251 338.718 108.461 322.292 116.539C300.381 127.385 277.795 137.614 254.881 147.253C250.17 149.238 226.226 160.009 220.119 161.518C217.084 162.272 200.309 166.213 194.41 166.168C188.128 166.137 182.089 168.436 175.789 167.915C175.558 167.886 175.327 167.857 175.168 167.712C175.009 167.567 175.002 167.379 174.957 167.192C174.656 164.336 177.401 162.009 180.117 160.928C182.833 159.846 185.913 159.279 188.019 157.278C188.241 157.081 188.541 155.9 188.453 155.602C187.288 152.175 182.78 150.457 182.185 146.896C181.889 145.172 182.626 143.409 183.761 142.047C187.423 137.687 193.65 134.287 198.315 131.097C203.688 127.39 209.26 123.901 215.119 120.893C220.04 118.372 225.535 116.886 231.13 116.98C239.828 117.11 248.669 123.005 257.181 118.276C272.632 109.744 302.077 90.6226 311.983 83.2772C312.839 82.642 312.213 81.2697 311.15 81.5354C287.808 87.0032 214.84 104.572 190.943 110.55C148.308 121.222 57.4928 149.481 49.6375 151.356C34.8759 154.884 13.1429 160.367 9.42783 144.324C6.49098 131.609 23.757 119.465 28.3692 115.899C37.4464 108.924 47.3712 103.087 56.8098 96.5507C75.4252 83.6395 94.1227 70.876 112.98 58.2952C123.399 51.3458 136.444 47.9951 151.242 48.4266C151.357 48.4223 151.436 48.4949 151.516 48.5674C157.037 54.7744 154.392 59.7004 148.034 64.6887C132.866 76.6046 114.463 85.0573 93.7834 90.0491C78.8334 93.659 65.1162 100.467 52.5814 109.154C41.6124 116.728 8.6004 134.699 21.0479 142.762C27.9184 147.184 45.6837 143.092 53.3701 140.808C59.9194 138.83 77.2564 133.806 127.523 121.417C178.51 108.851 279.425 82.0715 295.162 78.0175C302.594 76.0821 310.456 73.3765 318.384 71.4227C326.01 69.5556 330.492 79.6107 323.875 83.8166L323.688 83.9366C315.801 88.9817 307.874 93.9906 299.945 98.9618C284.315 108.82 268.645 118.643 253.055 128.537C243.297 134.746 232.391 139.941 225.873 149.763C225.692 150.033 225.973 150.362 226.276 150.276C232.662 148.04 239.086 145.802 245.433 143.53C251.818 141.256 260.088 139.214 265.605 135.276C281.089 127.61 296.531 119.833 312.053 112.166C331.595 102.464 351.179 92.8362 370.928 83.5414C385.636 76.6213 400.409 69.3594 415.748 63.9246C427.044 59.8846 449.414 54.038 454.393 62.0756ZM235.596 124.621C235.627 124.432 235.466 124.211 235.236 124.22C221.079 124.519 208.598 129.621 198.473 139.238C194.85 142.616 193.141 145.999 198.091 149.285C217.109 145.901 233.764 134.798 235.596 124.621ZM95.613 82.8149C113.355 76.1217 129.847 71.7756 138.616 58.7394C138.761 58.5078 138.556 58.1759 138.289 58.1858C122.546 60.0901 106.942 68.6276 95.2487 82.3004C95.0293 82.5725 95.3114 82.9392 95.613 82.8149Z" fill="#91BC73"/>
<path fill-rule="evenodd" clip-rule="evenodd" d="M601.837 142.441V147.473H631.787V142.441H631.428C629.91 142.441 628.513 142.241 627.235 141.842C626.037 141.443 625.078 140.644 624.36 139.446C623.641 138.248 623.281 136.451 623.281 134.055V117.523H631.068L643.408 135.852C645.085 138.408 646.602 140.444 647.96 141.962C649.318 143.479 650.755 144.637 652.273 145.436C653.87 146.235 655.747 146.794 657.903 147.113C660.14 147.353 662.935 147.473 666.289 147.473H667.967V142.441H667.607C665.93 142.441 664.373 142.042 662.935 141.243C661.497 140.444 660.14 139.326 658.862 137.889C657.584 136.371 656.266 134.614 654.908 132.617L639.597 110.356L648.918 99.4331C651.075 96.9573 653.032 94.9207 654.789 93.3234C656.546 91.6462 658.303 90.4083 660.06 89.6096C661.817 88.7311 663.654 88.2918 665.571 88.2918V83.2603H640.173V88.2918C641.93 88.2918 643.208 88.5314 644.007 89.0106C644.805 89.4099 645.205 90.1687 645.205 91.2868C645.205 92.4049 644.845 93.6828 644.126 95.1204C643.488 96.558 642.01 98.6345 639.694 101.35L631.068 111.533H623.281V104.105L612.02 111.533V134.055C612.02 136.531 611.541 138.368 610.583 139.566C609.624 140.764 608.386 141.562 606.869 141.962C605.431 142.281 603.874 142.441 602.197 142.441H601.837ZM611.318 92.4806H623.764C623.896 92.0323 624.054 91.6343 624.24 91.2868C624.959 90.0888 625.917 89.2901 627.115 88.8908C628.393 88.4915 629.83 88.2918 631.428 88.2918H631.787V83.2603H601.837V88.2918H602.197C603.874 88.2918 605.471 88.4915 606.989 88.8908C608.506 89.2901 609.704 90.0888 610.583 91.2868C610.871 91.6233 611.116 92.0212 611.318 92.4806Z" fill="#212121"/>
<path d="M502.509 148.671C496.199 148.671 490.848 147.433 486.456 144.957C482.143 142.401 478.868 138.648 476.632 133.696C474.396 128.744 473.278 122.595 473.278 115.247C473.278 107.899 474.476 101.789 476.872 96.9176C479.268 91.9659 482.662 88.2521 487.055 85.7763C491.447 83.3004 496.599 82.0625 502.509 82.0625C508.818 82.0625 514.129 83.3004 518.442 85.7763C522.835 88.2521 526.149 91.9659 528.385 96.9176C529.685 99.7486 530.607 102.998 531.151 106.665C531.544 109.308 531.74 112.169 531.74 115.247C531.74 122.595 530.542 128.744 528.146 133.696C525.75 138.648 522.356 142.401 517.963 144.957C513.65 147.433 508.499 148.671 502.509 148.671ZM502.509 142.92C506.662 142.92 509.976 141.882 512.452 139.806C513.233 139.126 513.946 138.347 514.591 137.469C515.993 135.561 517.077 133.185 517.843 130.342C518.961 126.188 519.52 121.157 519.52 115.247C519.52 114.227 519.504 113.234 519.472 112.269C519.314 107.571 518.771 103.532 517.843 100.152C516.725 96.079 514.928 93.0041 512.452 90.9276C509.976 88.8511 506.662 87.8129 502.509 87.8129C498.436 87.8129 495.121 88.8511 492.565 90.9276C490.09 93.0041 488.293 96.079 487.175 100.152C486.056 104.225 485.497 109.257 485.497 115.247C485.497 121.157 486.056 126.188 487.175 130.342C488.293 134.495 490.09 137.649 492.565 139.806C495.121 141.882 498.436 142.92 502.509 142.92Z" fill="#212121"/>
<path fill-rule="evenodd" clip-rule="evenodd" d="M381.838 89.2502V114.55L370.577 121.641V89.2502H362.311C360.474 89.2502 359.037 89.5697 357.998 90.2086C356.96 90.8475 356.122 91.9257 355.483 93.4432C354.924 94.8808 354.404 96.9573 353.925 99.6727L353.087 104.345H347.456L348.175 83.2603H404.241L404.96 104.345H399.329L398.49 99.6727C398.011 96.9573 397.452 94.8808 396.813 93.4432C396.254 91.9257 395.456 90.8475 394.417 90.2086C393.379 89.5697 391.941 89.2502 390.105 89.2502H381.838Z" fill="#212121"/>
<path fill-rule="evenodd" clip-rule="evenodd" d="M228.219 176.344C229.576 177.063 231.293 177.422 233.37 177.422C236.565 177.422 239.32 176.584 241.636 174.907C243.952 173.309 246.148 170.594 248.225 166.76C250.381 163.007 252.658 157.935 255.054 151.546L275.06 97.6361C275.574 96.266 276.065 95.068 276.533 94.0422L268.098 94.6412C268.069 95.1869 267.994 95.8258 267.872 96.558C267.712 97.4365 267.433 98.3549 267.033 99.3133L258.528 122.674C258.049 124.112 257.489 125.629 256.851 127.227C256.291 128.824 255.653 130.541 254.934 132.378C254.613 133.299 254.263 134.29 253.883 135.351C253.445 134.138 252.997 132.948 252.538 131.779C251.739 129.543 250.94 127.426 250.142 125.43C249.343 123.353 248.584 121.476 247.866 119.799L239.12 98.4747C238.801 97.5962 238.561 96.7976 238.401 96.0788C238.242 95.36 238.162 94.6811 238.162 94.0422C238.162 92.0455 238.721 90.6079 239.839 89.7294C241.037 88.771 242.834 88.2918 245.23 88.2918H245.589V83.2603H216.838V88.2918H217.197C219.513 88.2918 221.23 88.7311 222.348 89.6096C223.467 90.4881 224.545 92.1653 225.583 94.6412L248.845 149.549L247.386 152.864C245.15 158.055 242.794 161.729 240.318 163.885C237.842 166.041 234.728 167.12 230.974 167.12C230.016 167.12 229.017 167.04 227.979 166.88C226.941 166.8 225.823 166.64 224.625 166.401C224.545 166.72 224.505 167.04 224.505 167.359V168.557C224.505 170.394 224.784 171.952 225.343 173.229C225.982 174.587 226.941 175.625 228.219 176.344Z" fill="#212121"/>
<path fill-rule="evenodd" clip-rule="evenodd" d="M85.2645 146.275C86.4625 147.872 88.539 148.671 91.4941 148.671C96.925 148.671 101.198 145.196 104.313 138.248C107.427 131.3 109.344 120.957 110.063 107.22L111.021 89.2502H130.069V133.815C130.069 136.291 129.67 138.168 128.871 139.446C128.153 140.644 127.114 141.443 125.757 141.842C124.479 142.241 123.001 142.441 121.324 142.441H120.965V147.473H151.513V142.441H151.154C149.397 142.441 147.76 142.241 146.242 141.842C144.805 141.443 143.607 140.644 142.648 139.446C141.77 138.168 141.33 136.291 141.33 133.815V96.9174C141.33 94.3616 141.77 92.4848 142.648 91.2868C143.607 90.0888 144.805 89.2901 146.242 88.8908C147.76 88.4915 149.397 88.2918 151.154 88.2918H151.513V83.2603H120.965L101.287 89.2502C101.608 89.4258 101.898 89.6254 102.156 89.8492C103.354 90.8875 103.953 92.8042 103.953 95.5996C103.953 96.4781 103.913 97.3566 103.833 98.2351C103.833 99.1137 103.793 99.9922 103.714 100.871C103.714 101.669 103.674 102.508 103.594 103.386C103.594 104.265 103.554 105.144 103.474 106.022C102.915 114.648 101.957 121.276 100.599 125.909C99.3209 130.461 97.6438 133.616 95.5672 135.373C93.4907 137.13 90.8951 138.008 87.7803 138.008C87.1414 138.008 86.4625 137.969 85.7437 137.889C85.1048 137.809 84.4259 137.729 83.7071 137.649C83.6273 137.969 83.5474 138.408 83.4675 138.967V140.404C83.4675 142.721 84.0665 144.677 85.2645 146.275Z" fill="#212121"/>
<path d="M578.74 -27.68L585.858 -19.6733L595.786 -23.8689L590.257 -14.7248L597.374 -6.71812L586.84 -9.07353L581.311 0.070477L580.329 -10.5293L569.794 -12.8847L579.722 -17.0803L578.74 -27.68Z" fill="#FFCD29"/>
<path d="M54.3145 84.8319C51.7961 84.8319 49.7545 87.6007 49.7545 91.0161C49.7545 94.4315 54.3145 101.667 54.3145 101.667C54.3145 101.667 58.8745 94.4315 58.8745 91.0161C58.8745 87.6007 56.8329 84.8319 54.3145 84.8319Z" fill="#FFAFF7"/>
<path d="M54.1189 118.432C51.6005 118.432 49.5589 115.664 49.5589 112.248C49.5589 108.833 54.119 101.598 54.119 101.598C54.119 101.598 58.679 108.833 58.679 112.248C58.679 115.664 56.6374 118.432 54.1189 118.432Z" fill="#FFAFF7"/>
<path d="M69.4083 94.0385C68.2805 91.8198 64.8538 91.2609 61.7545 92.7903C58.6551 94.3197 54.1314 101.577 54.1314 101.577C54.1314 101.577 62.7389 102.354 65.8383 100.825C68.9376 99.2958 70.536 96.2573 69.4083 94.0385Z" fill="#FFAFF7"/>
<path d="M39.0263 109.223C37.8985 107.005 39.4969 103.966 42.5962 102.437C45.6956 100.908 54.3031 101.685 54.3031 101.685C54.3031 101.685 49.7794 108.942 46.68 110.472C43.5807 112.001 40.154 111.442 39.0263 109.223Z" fill="#FFAFF7"/>
<path d="M68.5818 110.569C69.9249 108.47 68.6367 105.291 65.7045 103.47C62.7723 101.648 54.129 101.59 54.129 101.59C54.129 101.59 57.9085 109.25 60.8406 111.071C63.7728 112.893 67.2387 112.668 68.5818 110.569Z" fill="#FFAFF7"/>
<path d="M39.8502 92.6962C41.1933 90.5971 44.6592 90.372 47.5913 92.1935C50.5235 94.015 54.303 101.674 54.303 101.674C54.303 101.674 45.6597 101.617 42.7275 99.795C39.7953 97.9735 38.5071 94.7952 39.8502 92.6962Z" fill="#FFAFF7"/>
<path d="M554.706 108.27C552.518 108.638 551.171 111.353 551.697 114.334C552.224 117.315 557.301 122.963 557.301 122.963C557.301 122.963 560.147 115.982 559.621 113.001C559.094 110.02 556.894 107.902 554.706 108.27Z" fill="#FFAFF7"/>
<path d="M559.686 137.605C557.498 137.974 555.298 135.856 554.771 132.875C554.245 129.894 557.091 122.912 557.091 122.912C557.091 122.912 562.168 128.56 562.695 131.541C563.221 134.522 561.874 137.237 559.686 137.605Z" fill="#FFAFF7"/>
<path d="M569.273 114.079C567.947 112.307 564.873 112.32 562.408 114.109C559.943 115.897 557.122 122.895 557.122 122.895C557.122 122.895 564.745 122.315 567.211 120.527C569.676 118.738 570.599 115.851 569.273 114.079Z" fill="#FFAFF7"/>
<path d="M545.12 131.797C543.793 130.025 544.717 127.138 547.182 125.349C549.647 123.561 557.271 122.981 557.271 122.981C557.271 122.981 554.45 129.979 551.985 131.767C549.519 133.556 546.446 133.569 545.12 131.797Z" fill="#FFAFF7"/>
<path d="M571.089 128.613C571.935 126.59 570.321 124.011 567.483 122.853C564.646 121.695 557.103 122.905 557.103 122.905C557.103 122.905 561.582 129.021 564.419 130.179C567.257 131.337 570.243 130.636 571.089 128.613Z" fill="#FFAFF7"/>
<path d="M543.3 117.265C544.146 115.242 547.132 114.54 549.969 115.698C552.807 116.856 557.286 122.972 557.286 122.972C557.286 122.972 549.743 124.182 546.906 123.024C544.068 121.866 542.454 119.288 543.3 117.265Z" fill="#FFAFF7"/>
<path d="M414.709 144.911C412.864 145.221 411.728 147.511 412.172 150.024C412.616 152.538 416.897 157.3 416.897 157.3C416.897 157.3 419.297 151.414 418.853 148.9C418.41 146.386 416.554 144.6 414.709 144.911Z" fill="#FFAFF7"/>
<path d="M418.909 169.648C417.064 169.959 415.208 168.173 414.764 165.659C414.32 163.146 416.72 157.259 416.72 157.259C416.72 157.259 421.001 162.021 421.445 164.535C421.889 167.049 420.754 169.338 418.909 169.648Z" fill="#FFAFF7"/>
<path d="M426.992 149.81C425.874 148.316 423.282 148.327 421.203 149.835C419.125 151.343 416.746 157.244 416.746 157.244C416.746 157.244 423.174 156.755 425.253 155.247C427.332 153.739 428.11 151.305 426.992 149.81Z" fill="#FFAFF7"/>
<path d="M406.625 164.75C405.507 163.256 406.286 160.822 408.364 159.314C410.443 157.806 416.871 157.317 416.871 157.317C416.871 157.317 414.493 163.217 412.414 164.725C410.335 166.234 407.744 166.245 406.625 164.75Z" fill="#FFAFF7"/>
<path d="M428.524 162.066C429.238 160.36 427.877 158.186 425.484 157.209C423.091 156.233 416.731 157.253 416.731 157.253C416.731 157.253 420.508 162.41 422.9 163.387C425.293 164.363 427.811 163.772 428.524 162.066Z" fill="#FFAFF7"/>
<path d="M405.091 152.495C405.804 150.79 408.322 150.198 410.715 151.175C413.108 152.151 416.884 157.308 416.884 157.308C416.884 157.308 410.524 158.329 408.131 157.352C405.739 156.376 404.378 154.201 405.091 152.495Z" fill="#FFAFF7"/>
<path d="M310.301 64.2135C307.129 62.9639 303.12 65.4616 301.348 69.7924C299.577 74.1232 301.568 85.5601 301.568 85.5601C301.568 85.5601 311.066 78.6486 312.838 74.3178C314.61 69.987 313.474 65.4631 310.301 64.2135Z" fill="#FFAFF7"/>
<path d="M292.676 106.679C289.503 105.429 288.367 100.905 290.139 96.5744C291.911 92.2436 301.409 85.3321 301.409 85.3321C301.409 85.3321 303.401 96.7689 301.629 101.1C299.857 105.431 295.849 107.928 292.676 106.679Z" fill="#FFAFF7"/>
<path d="M324.65 83.4042C324.379 80.0518 320.333 77.6575 315.612 78.0565C310.892 78.4555 301.384 85.3708 301.384 85.3708C301.384 85.3708 311.874 90.5958 316.594 90.1968C321.314 89.7978 324.921 86.7567 324.65 83.4042Z" fill="#FFAFF7"/>
<path d="M278.326 87.4872C278.055 84.1348 281.662 81.0936 286.382 80.6947C291.103 80.2957 301.593 85.5207 301.593 85.5207C301.593 85.5207 292.084 92.436 287.364 92.835C282.644 93.2339 278.597 90.8397 278.326 87.4872Z" fill="#FFAFF7"/>
<path d="M315.038 103.928C317.833 101.932 317.859 97.2625 315.096 93.4975C312.333 89.7324 301.42 85.3698 301.42 85.3698C301.42 85.3698 302.213 96.9586 304.975 100.724C307.738 104.489 312.243 105.923 315.038 103.928Z" fill="#FFAFF7"/>
<path d="M287.938 66.9618C290.733 64.9664 295.238 66.4009 298 70.166C300.763 73.931 301.555 85.5197 301.555 85.5197C301.555 85.5197 290.642 81.1571 287.88 77.3921C285.117 73.6271 285.143 68.9573 287.938 66.9618Z" fill="#FFAFF7"/>
<path d="M703.597 81.544C701.791 81.0706 699.779 82.6851 699.105 85.1501C698.43 87.615 700.273 93.6937 700.273 93.6937C700.273 93.6937 704.974 89.3291 705.648 86.8642C706.323 84.3992 705.404 82.0173 703.597 81.544Z" fill="#FFAFF7"/>
<path d="M696.851 105.735C695.044 105.262 694.126 102.88 694.8 100.415C695.475 97.9499 700.175 93.5853 700.175 93.5853C700.175 93.5853 702.018 99.664 701.344 102.129C700.669 104.594 698.658 106.208 696.851 105.735Z" fill="#FFAFF7"/>
<path d="M712.666 91.04C712.293 89.235 709.935 88.1924 707.398 88.7113C704.861 89.2302 700.162 93.5975 700.162 93.5975C700.162 93.5975 706.21 95.7666 708.747 95.2477C711.284 94.7288 713.038 92.8449 712.666 91.04Z" fill="#FFAFF7"/>
<path d="M687.784 96.2361C687.411 94.4312 689.165 92.5473 691.702 92.0284C694.239 91.5096 700.287 93.6786 700.287 93.6786C700.287 93.6786 695.588 98.0459 693.052 98.5648C690.515 99.0837 688.156 98.0411 687.784 96.2361Z" fill="#FFAFF7"/>
<path d="M708.818 102.799C710.202 101.537 709.904 99.0007 708.152 97.1348C706.4 95.2689 700.181 93.6025 700.181 93.6025C700.181 93.6025 701.386 99.8413 703.138 101.707C704.89 103.573 707.433 104.062 708.818 102.799Z" fill="#FFAFF7"/>
<path d="M691.634 84.4758C693.018 83.2132 695.561 83.7022 697.313 85.5681C699.065 87.434 700.27 93.6728 700.27 93.6728C700.27 93.6728 694.052 92.0064 692.3 90.1405C690.548 88.2746 690.249 85.7385 691.634 84.4758Z" fill="#FFAFF7"/>
</g>
<defs>
<clipPath id="clip0_1211_65621">
<rect width="750" height="230" fill="white"/>
</clipPath>
</defs>
</svg>
