<svg width="750" height="230" viewBox="0 0 750 230" fill="none" xmlns="http://www.w3.org/2000/svg">
<path d="M601.837 147.473V142.441H602.197C603.874 142.441 605.431 142.281 606.869 141.962C608.386 141.562 609.624 140.764 610.583 139.566C611.541 138.368 612.02 136.531 612.02 134.055V96.6778C612.02 94.2019 611.541 92.4049 610.583 91.2868C609.704 90.0888 608.506 89.2901 606.989 88.8908C605.471 88.4915 603.874 88.2918 602.197 88.2918H601.837V83.2603H631.787V88.2918H631.428C629.83 88.2918 628.393 88.4915 627.115 88.8908C625.917 89.2901 624.959 90.0888 624.24 91.2868C623.601 92.4848 623.281 94.2818 623.281 96.6778V111.533H631.068L639.694 101.35C642.01 98.6345 643.488 96.558 644.126 95.1204C644.845 93.6828 645.205 92.4049 645.205 91.2868C645.205 90.1687 644.805 89.4099 644.007 89.0106C643.208 88.5314 641.93 88.2918 640.173 88.2918V83.2603H665.571V88.2918C663.654 88.2918 661.817 88.7311 660.06 89.6096C658.303 90.4083 656.546 91.6462 654.789 93.3234C653.032 94.9207 651.075 96.9573 648.918 99.4331L637.058 113.33L638.017 108.059L654.908 132.617C656.266 134.614 657.584 136.371 658.862 137.889C660.14 139.326 661.497 140.444 662.935 141.243C664.373 142.042 665.93 142.441 667.607 142.441H667.967V147.473H666.289C662.935 147.473 660.14 147.353 657.903 147.113C655.747 146.794 653.87 146.235 652.273 145.436C650.755 144.637 649.318 143.479 647.96 141.962C646.602 140.444 645.085 138.408 643.408 135.852L631.068 117.523H623.281V134.055C623.281 136.451 623.641 138.248 624.36 139.446C625.078 140.644 626.037 141.443 627.235 141.842C628.513 142.241 629.91 142.441 631.428 142.441H631.787V147.473H601.837Z" fill="#212121"/>
<path d="M502.509 148.671C496.199 148.671 490.848 147.433 486.456 144.957C482.143 142.401 478.868 138.648 476.632 133.696C474.396 128.744 473.278 122.595 473.278 115.247C473.278 107.899 474.476 101.789 476.872 96.9176C479.268 91.9659 482.662 88.2521 487.055 85.7763C491.447 83.3004 496.599 82.0625 502.509 82.0625C508.818 82.0625 514.129 83.3004 518.442 85.7763C522.835 88.2521 526.149 91.9659 528.385 96.9176C530.622 101.789 531.74 107.899 531.74 115.247C531.74 122.595 530.542 128.744 528.146 133.696C525.75 138.648 522.356 142.401 517.963 144.957C513.65 147.433 508.499 148.671 502.509 148.671ZM502.509 142.92C506.662 142.92 509.976 141.882 512.452 139.806C514.928 137.649 516.725 134.495 517.843 130.342C518.961 126.188 519.52 121.157 519.52 115.247C519.52 109.257 518.961 104.225 517.843 100.152C516.725 96.079 514.928 93.0041 512.452 90.9276C509.976 88.8511 506.662 87.8129 502.509 87.8129C498.436 87.8129 495.121 88.8511 492.565 90.9276C490.09 93.0041 488.293 96.079 487.175 100.152C486.056 104.225 485.497 109.257 485.497 115.247C485.497 121.157 486.056 126.188 487.175 130.342C488.293 134.495 490.09 137.649 492.565 139.806C495.121 141.882 498.436 142.92 502.509 142.92Z" fill="#212121"/>
<path d="M359.795 147.473V142.441H360.754C362.511 142.441 364.108 142.241 365.546 141.842C367.063 141.443 368.261 140.644 369.14 139.446C370.098 138.168 370.577 136.291 370.577 133.815V89.2502H362.311C360.474 89.2502 359.037 89.5697 357.998 90.2086C356.96 90.8475 356.122 91.9257 355.483 93.4432C354.924 94.8808 354.404 96.9573 353.925 99.6727L353.087 104.345H347.456L348.175 83.2603H404.241L404.96 104.345H399.329L398.49 99.6727C398.011 96.9573 397.452 94.8808 396.813 93.4432C396.254 91.9257 395.456 90.8475 394.417 90.2086C393.379 89.5697 391.941 89.2502 390.105 89.2502H381.838V133.815C381.838 136.291 382.278 138.168 383.156 139.446C384.115 140.644 385.313 141.443 386.75 141.842C388.268 142.241 389.905 142.441 391.662 142.441H392.62V147.473H359.795Z" fill="#212121"/>
<path d="M233.37 177.422C231.293 177.422 229.576 177.063 228.219 176.344C226.941 175.625 225.982 174.587 225.343 173.229C224.784 171.952 224.505 170.394 224.505 168.557C224.505 168.158 224.505 167.759 224.505 167.359C224.505 167.04 224.545 166.72 224.625 166.401C225.823 166.64 226.941 166.8 227.979 166.88C229.017 167.04 230.016 167.12 230.974 167.12C234.728 167.12 237.842 166.041 240.318 163.885C242.794 161.729 245.15 158.055 247.386 152.864L251.34 143.879L249.183 150.348L225.583 94.6412C224.545 92.1653 223.467 90.4881 222.348 89.6096C221.23 88.7311 219.513 88.2918 217.197 88.2918H216.838V83.2603H245.589V88.2918H245.23C242.834 88.2918 241.037 88.771 239.839 89.7294C238.721 90.6079 238.162 92.0455 238.162 94.0422C238.162 94.6811 238.242 95.36 238.401 96.0788C238.561 96.7976 238.801 97.5962 239.12 98.4747L247.866 119.799C248.584 121.476 249.343 123.353 250.142 125.43C250.94 127.426 251.739 129.543 252.538 131.779C253.416 134.015 254.255 136.331 255.054 138.727H252.658C253.536 136.331 254.295 134.215 254.934 132.378C255.653 130.541 256.291 128.824 256.851 127.227C257.489 125.629 258.049 124.112 258.528 122.674L267.033 99.3133C267.433 98.3549 267.712 97.4365 267.872 96.558C268.032 95.5996 268.112 94.8009 268.112 94.162C268.112 92.0855 267.433 90.6079 266.075 89.7294C264.797 88.771 262.84 88.2918 260.205 88.2918H259.846V83.2603H284.524V88.2918H284.165C282.647 88.2918 281.369 88.5314 280.331 89.0106C279.373 89.4898 278.494 90.4083 277.696 91.766C276.897 93.1237 276.018 95.0804 275.06 97.6361L255.054 151.546C252.658 157.935 250.381 163.007 248.225 166.76C246.148 170.594 243.952 173.309 241.636 174.907C239.32 176.584 236.565 177.422 233.37 177.422Z" fill="#212121"/>
<path d="M91.4941 148.671C88.539 148.671 86.4625 147.872 85.2645 146.275C84.0665 144.677 83.4675 142.721 83.4675 140.404C83.4675 139.925 83.4675 139.446 83.4675 138.967C83.5474 138.408 83.6273 137.969 83.7071 137.649C84.4259 137.729 85.1048 137.809 85.7437 137.889C86.4625 137.969 87.1414 138.008 87.7803 138.008C90.8951 138.008 93.4907 137.13 95.5672 135.373C97.6438 133.616 99.3209 130.461 100.599 125.909C101.957 121.276 102.915 114.648 103.474 106.022C103.554 105.144 103.594 104.265 103.594 103.386C103.674 102.508 103.714 101.669 103.714 100.871C103.793 99.9922 103.833 99.1137 103.833 98.2351C103.913 97.3566 103.953 96.4781 103.953 95.5996C103.953 92.8042 103.354 90.8875 102.156 89.8492C100.958 88.8109 99.0813 88.2918 96.5256 88.2918H93.5307V83.2603H151.513V88.2918H151.154C149.397 88.2918 147.76 88.4915 146.242 88.8908C144.805 89.2901 143.607 90.0888 142.648 91.2868C141.77 92.4848 141.33 94.3616 141.33 96.9174V133.815C141.33 136.291 141.77 138.168 142.648 139.446C143.607 140.644 144.805 141.443 146.242 141.842C147.76 142.241 149.397 142.441 151.154 142.441H151.513V147.473H120.965V142.441H121.324C123.001 142.441 124.479 142.241 125.757 141.842C127.114 141.443 128.153 140.644 128.871 139.446C129.67 138.168 130.069 136.291 130.069 133.815V89.2502H111.021L110.063 107.22C109.344 120.957 107.427 131.3 104.313 138.248C101.198 145.196 96.925 148.671 91.4941 148.671Z" fill="#212121"/>
<path d="M494.745 123.026C492.579 124.818 494.096 128.05 497.066 128.05H502.357C520.088 128.077 537.787 128.022 555.517 128.131C582.375 128.321 606.418 125.443 628.913 113.766C673.903 90.357 697.707 60.8702 717.665 27.3325C721.44 19.4572 718.965 7.72579 724.844 6.31367C738.613 2.97348 731.589 26.3277 725.215 36.7013C703.431 72.3301 674.213 102.767 624.148 124.899C603.014 134.241 577.579 135.11 552.113 134.621C533.176 134.241 514.147 135.436 495.21 136.088C485.029 136.441 479.12 139.808 475.221 146.271C471.693 152.001 465.938 157.813 458.79 161.805C454.489 164.221 433.665 175.111 418.967 179.266C410.984 181.52 402.103 180.352 409.932 167.589C416.77 156.482 436.171 141.682 451.086 138.831C466 135.979 473.952 129.896 480.388 121.396C482.09 119.17 479.707 116.291 476.768 116.943C474.385 117.486 472.281 118.056 470.301 118.545C440.905 125.877 411.634 132.395 382.269 139.808C369.397 143.067 357.267 144.886 346.437 136.468C344.055 134.621 336.381 134.078 332.204 135.002C320.477 137.609 308.687 140.623 298.136 144.751C277.374 152.87 257.354 161.859 235.756 170.983C225.019 175.464 197.108 183.068 189.713 179.266C181.235 174.894 178.883 165.036 185.195 158.41C191.044 152.246 200.172 146.271 209.021 141.112C216.107 137.011 230.774 130.086 240.954 125.035C243.955 123.542 242.687 119.523 239.221 119.604C189.125 120.88 59.9876 126.502 9.3964 124.818C5.34291 124.682 5.03348 119.305 9.08697 119.007C9.11791 119.007 9.14885 119.007 9.1798 119.007C20.938 118.436 178.512 116.508 223.997 112.543C228.329 112.163 232.692 112 237.055 112.082C266.946 112.652 290.369 102.957 311.379 90.1941C322.148 83.6494 352.874 73.5202 360.547 83.0792C368.84 93.4256 343.127 103.935 332.235 107.547C323.076 110.615 312.339 112.109 302.066 113.412C285.511 115.476 270.999 119.821 257.88 126.556C239.376 136.088 220.563 145.348 202.4 155.151C195.963 158.6 188.939 162.945 194.354 169.3C197.201 172.64 210.909 172.233 219.789 168.458C245.688 157.595 271.587 146.706 296.991 135.409C309.956 129.598 324.19 126.773 339.506 126.366C346.159 126.203 353.926 127.289 359.402 129.543C366.891 132.666 373.389 133.399 381.557 131.417C420.359 122.048 459.471 113.25 497.933 103.365C512.352 99.6444 548.307 83.6494 553.722 82.3731C554.836 82.1015 556.074 82.0472 557.373 82.1287C562.139 82.3459 564.057 88.0216 559.911 90.0854C559.88 90.1126 559.849 90.1126 559.818 90.1397C550.411 94.702 540.479 98.9112 530.237 102.713C516.993 107.791 505.606 113.928 494.745 123.026ZM458.233 145.158C451.085 144.128 428.451 157.716 423.593 164.505C417.745 172.679 422.402 171.146 428.405 168.784C440.225 164.167 445.237 160.8 454.984 152.979C457.614 150.888 462.379 145.755 458.233 145.158ZM317.382 102.985C329.543 100.839 350.646 93.0982 346.437 89.4321C343.993 86.9881 322.983 92.3937 315.216 97.4176C308.44 101.763 308.471 104.56 317.382 102.985Z" fill="#91BC73"/>
<path d="M601.837 147.473V142.441H602.197C603.874 142.441 605.431 142.281 606.869 141.962C608.386 141.562 609.624 140.764 610.583 139.566C611.541 138.368 612.02 136.531 612.02 134.055V96.6778C612.02 94.2019 611.541 92.4049 610.583 91.2868C609.704 90.0888 608.506 89.2901 606.989 88.8908C605.471 88.4915 603.874 88.2918 602.197 88.2918H601.837V83.2603H631.787V88.2918H631.428C629.83 88.2918 628.393 88.4915 627.115 88.8908C625.917 89.2901 624.959 90.0888 624.24 91.2868C623.601 92.4848 623.281 94.2818 623.281 96.6778V111.533H631.068L639.694 101.35C642.01 98.6345 643.488 96.558 644.126 95.1204C644.845 93.6828 645.205 92.4049 645.205 91.2868C645.205 90.1687 644.805 89.4099 644.007 89.0106C643.208 88.5314 641.93 88.2918 640.173 88.2918V83.2603H665.571V88.2918C663.654 88.2918 661.817 88.7311 660.06 89.6096C658.303 90.4083 656.546 91.6462 654.789 93.3234C653.032 94.9207 651.075 96.9573 648.918 99.4331L637.058 113.33L638.017 108.059L654.908 132.617C656.266 134.614 657.584 136.371 658.862 137.889C660.14 139.326 661.497 140.444 662.935 141.243C664.373 142.042 665.93 142.441 667.607 142.441H667.967V147.473H666.289C662.935 147.473 660.14 147.353 657.903 147.113C655.747 146.794 653.87 146.235 652.273 145.436C650.755 144.637 649.318 143.479 647.96 141.962C646.602 140.444 645.085 138.408 643.408 135.852L631.068 117.523H623.281V134.055C623.281 136.451 623.641 138.248 624.36 139.446C625.078 140.644 626.037 141.443 627.235 141.842C628.513 142.241 629.91 142.441 631.428 142.441H631.787V147.473H601.837Z" fill="#212121"/>
<path fill-rule="evenodd" clip-rule="evenodd" d="M486.456 144.957C490.848 147.433 496.199 148.671 502.509 148.671C508.499 148.671 513.65 147.433 517.963 144.957C520.86 143.271 523.323 141.065 525.351 138.337L515.577 135.961C514.695 137.478 513.654 138.759 512.452 139.806C509.976 141.882 506.662 142.92 502.509 142.92C498.436 142.92 495.121 141.882 492.565 139.806C490.09 137.649 488.293 134.495 487.175 130.342C486.056 126.188 485.497 121.157 485.497 115.247C485.497 109.257 486.056 104.225 487.175 100.152C488.293 96.079 490.09 93.0041 492.565 90.9276C495.121 88.8511 498.436 87.8129 502.509 87.8129C506.662 87.8129 509.976 88.8511 512.452 90.9276C514.928 93.0041 516.725 96.079 517.843 100.152C518.961 104.225 519.52 109.257 519.52 115.247C519.52 118.376 519.364 121.258 519.05 123.895H531.102C531.527 121.225 531.74 118.342 531.74 115.247C531.74 107.899 530.622 101.789 528.385 96.9176C526.149 91.9659 522.835 88.2521 518.442 85.7763C514.129 83.3004 508.818 82.0625 502.509 82.0625C496.599 82.0625 491.447 83.3004 487.055 85.7763C482.662 88.2521 479.268 91.9659 476.872 96.9176C474.476 101.789 473.278 107.899 473.278 115.247C473.278 122.595 474.396 128.744 476.632 133.696C478.868 138.648 482.143 142.401 486.456 144.957Z" fill="#212121"/>
<path fill-rule="evenodd" clip-rule="evenodd" d="M359.795 142.441V147.473H376.208H392.62V142.441H391.662C389.905 142.441 388.268 142.241 386.75 141.842C385.941 141.617 385.208 141.266 384.55 140.788C384.04 140.417 383.575 139.97 383.156 139.446C382.278 138.168 381.838 136.291 381.838 133.815V129.478V89.2502H390.105C391.941 89.2502 393.379 89.5697 394.417 90.2086C395.456 90.8475 396.254 91.9257 396.813 93.4432C397.452 94.8808 398.011 96.9573 398.49 99.6727L399.329 104.345H404.96L404.241 83.2603H365.687L366.444 89.2502H370.577V129.478V133.815C370.577 136.291 370.098 138.168 369.14 139.446C368.261 140.644 367.063 141.443 365.546 141.842C364.914 142.018 364.251 142.154 363.558 142.253C362.673 142.378 361.739 142.441 360.754 142.441H359.795Z" fill="#212121"/>
<path fill-rule="evenodd" clip-rule="evenodd" d="M228.219 176.344C229.576 177.063 231.293 177.422 233.37 177.422C236.565 177.422 239.32 176.584 241.636 174.907C243.643 173.523 245.56 171.299 247.386 168.237L226.433 174.907C226.936 175.478 227.531 175.957 228.219 176.344ZM246.521 154.783L256.026 148.925L275.06 97.6361C276.018 95.0804 276.897 93.1237 277.696 91.766C278.494 90.4083 279.373 89.4898 280.331 89.0106C281.369 88.5314 282.647 88.2918 284.165 88.2918H284.524V83.2603H259.846V88.2918H260.205C262.84 88.2918 264.797 88.771 266.075 89.7294C267.433 90.6079 268.112 92.0855 268.112 94.162C268.112 94.8009 268.032 95.5996 267.872 96.558C267.712 97.4365 267.433 98.3549 267.033 99.3133L258.528 122.674C258.049 124.112 257.489 125.629 256.851 127.227C256.291 128.824 255.653 130.541 254.934 132.378C254.613 133.299 254.263 134.29 253.883 135.351C253.445 134.138 252.997 132.948 252.538 131.779C251.739 129.543 250.94 127.426 250.142 125.43C249.343 123.353 248.584 121.476 247.866 119.799L239.12 98.4747C238.801 97.5962 238.561 96.7976 238.401 96.0788C238.242 95.36 238.162 94.6811 238.162 94.0422C238.162 92.0455 238.721 90.6079 239.839 89.7294C241.037 88.771 242.834 88.2918 245.23 88.2918H245.589V83.2603H216.838V88.2918H217.197C219.513 88.2918 221.23 88.7311 222.348 89.6096C223.467 90.4881 224.545 92.1653 225.583 94.6412L248.845 149.549L247.386 152.864C247.1 153.528 246.812 154.168 246.521 154.783Z" fill="#212121"/>
<path fill-rule="evenodd" clip-rule="evenodd" d="M85.2645 146.275C86.4625 147.872 88.539 148.671 91.4941 148.671C96.925 148.671 101.198 145.196 104.313 138.248C107.427 131.3 109.344 120.957 110.063 107.22L111.021 89.2502H130.069V112.956H141.33V96.9174C141.33 94.3616 141.77 92.4848 142.648 91.2868C143.607 90.0888 144.805 89.2901 146.242 88.8908C147.76 88.4915 149.397 88.2918 151.154 88.2918H151.513V83.2603H93.5307V88.2918H96.5256C99.0813 88.2918 100.958 88.8109 102.156 89.8492C103.354 90.8875 103.953 92.8042 103.953 95.5996C103.953 96.4781 103.913 97.3566 103.833 98.2351C103.833 99.1137 103.793 99.9922 103.714 100.871C103.714 101.669 103.674 102.508 103.594 103.386C103.594 104.265 103.554 105.144 103.474 106.022C102.915 114.648 101.957 121.276 100.599 125.909C99.3209 130.461 97.6438 133.616 95.5672 135.373C93.4907 137.13 90.8951 138.008 87.7803 138.008C87.1414 138.008 86.4625 137.969 85.7437 137.889C85.1048 137.809 84.4259 137.729 83.7071 137.649C83.6273 137.969 83.5474 138.408 83.4675 138.967V140.404C83.4675 142.721 84.0665 144.677 85.2645 146.275ZM130.069 125.909V133.815C130.069 136.291 129.67 138.168 128.871 139.446C128.153 140.644 127.114 141.443 125.757 141.842C124.479 142.241 123.001 142.441 121.324 142.441H120.965V147.473H151.513V142.441H151.154C149.397 142.441 147.76 142.241 146.242 141.842C144.805 141.443 143.607 140.644 142.648 139.446C141.77 138.168 141.33 136.291 141.33 133.815V125.909H130.069Z" fill="#212121"/>
<path d="M44.0059 105.741C41.4875 105.741 39.4459 108.51 39.4459 111.925C39.4459 115.341 44.0059 122.576 44.0059 122.576C44.0059 122.576 48.5659 115.341 48.5659 111.925C48.5659 108.51 46.5243 105.741 44.0059 105.741Z" fill="#FFAFF7"/>
<path d="M43.8104 139.341C41.2919 139.341 39.2504 136.573 39.2504 133.157C39.2504 129.742 43.8104 122.507 43.8104 122.507C43.8104 122.507 48.3704 129.742 48.3704 133.157C48.3704 136.573 46.3288 139.341 43.8104 139.341Z" fill="#FFAFF7"/>
<path d="M59.0997 114.948C57.9719 112.729 54.5452 112.17 51.4459 113.699C48.3465 115.229 43.8228 122.486 43.8228 122.486C43.8228 122.486 52.4303 123.264 55.5297 121.734C58.629 120.205 60.2274 117.166 59.0997 114.948Z" fill="#FFAFF7"/>
<path d="M28.7177 130.133C27.5899 127.914 29.1883 124.875 32.2876 123.346C35.387 121.817 43.9945 122.594 43.9945 122.594C43.9945 122.594 39.4708 129.852 36.3715 131.381C33.2721 132.91 29.8454 132.351 28.7177 130.133Z" fill="#FFAFF7"/>
<path d="M58.2732 131.478C59.6163 129.379 58.3281 126.2 55.3959 124.379C52.4637 122.557 43.8204 122.5 43.8204 122.5C43.8204 122.5 47.5999 130.159 50.5321 131.98C53.4642 133.802 56.9301 133.577 58.2732 131.478Z" fill="#FFAFF7"/>
<path d="M29.5416 113.605C30.8847 111.506 34.3506 111.281 37.2828 113.103C40.2149 114.924 43.9944 122.584 43.9944 122.584C43.9944 122.584 35.3511 122.526 32.4189 120.704C29.4867 118.883 28.1985 115.704 29.5416 113.605Z" fill="#FFAFF7"/>
<path d="M579.704 120.217C577.516 120.585 576.169 123.3 576.695 126.281C577.222 129.262 582.299 134.91 582.299 134.91C582.299 134.91 585.145 127.929 584.619 124.948C584.092 121.967 581.892 119.849 579.704 120.217Z" fill="#FFAFF7"/>
<path d="M584.684 149.553C582.496 149.921 580.295 147.803 579.769 144.822C579.243 141.841 582.089 134.86 582.089 134.86C582.089 134.86 587.166 140.508 587.692 143.488C588.219 146.469 586.872 149.184 584.684 149.553Z" fill="#FFAFF7"/>
<path d="M594.271 126.026C592.945 124.254 589.871 124.267 587.406 126.056C584.941 127.845 582.12 134.842 582.12 134.842C582.12 134.842 589.743 134.262 592.208 132.474C594.674 130.685 595.597 127.799 594.271 126.026Z" fill="#FFAFF7"/>
<path d="M570.117 143.744C568.791 141.972 569.715 139.085 572.18 137.297C574.645 135.508 582.269 134.928 582.269 134.928C582.269 134.928 579.448 141.926 576.982 143.715C574.517 145.503 571.444 145.516 570.117 143.744Z" fill="#FFAFF7"/>
<path d="M596.087 140.56C596.933 138.537 595.319 135.959 592.481 134.801C589.644 133.643 582.101 134.853 582.101 134.853C582.101 134.853 586.58 140.969 589.417 142.127C592.255 143.285 595.241 142.583 596.087 140.56Z" fill="#FFAFF7"/>
<path d="M568.298 129.212C569.144 127.189 572.13 126.488 574.967 127.646C577.805 128.804 582.283 134.92 582.283 134.92C582.283 134.92 574.741 136.129 571.903 134.971C569.066 133.814 567.452 131.235 568.298 129.212Z" fill="#FFAFF7"/>
<path d="M432.898 108.47C431.053 108.78 429.917 111.069 430.361 113.583C430.805 116.097 435.086 120.859 435.086 120.859C435.086 120.859 437.486 114.972 437.042 112.459C436.598 109.945 434.743 108.159 432.898 108.47Z" fill="#FFAFF7"/>
<path d="M437.097 133.207C435.252 133.518 433.397 131.732 432.953 129.218C432.509 126.704 434.909 120.818 434.909 120.818C434.909 120.818 439.19 125.58 439.634 128.094C440.078 130.607 438.942 132.897 437.097 133.207Z" fill="#FFAFF7"/>
<path d="M445.181 113.369C444.062 111.874 441.471 111.886 439.392 113.394C437.313 114.902 434.934 120.802 434.934 120.802C434.934 120.802 441.363 120.313 443.441 118.805C445.52 117.297 446.299 114.863 445.181 113.369Z" fill="#FFAFF7"/>
<path d="M424.814 128.309C423.695 126.815 424.474 124.381 426.553 122.872C428.632 121.364 435.06 120.875 435.06 120.875C435.06 120.875 432.681 126.776 430.602 128.284C428.524 129.792 425.932 129.803 424.814 128.309Z" fill="#FFAFF7"/>
<path d="M446.713 125.625C447.426 123.919 446.065 121.744 443.672 120.768C441.28 119.791 434.92 120.812 434.92 120.812C434.92 120.812 438.696 125.969 441.089 126.945C443.481 127.922 445.999 127.33 446.713 125.625Z" fill="#FFAFF7"/>
<path d="M423.279 116.054C423.993 114.348 426.511 113.757 428.903 114.733C431.296 115.71 435.073 120.867 435.073 120.867C435.073 120.867 428.712 121.887 426.32 120.911C423.927 119.934 422.566 117.76 423.279 116.054Z" fill="#FFAFF7"/>
<path d="M282.412 126.941C279.239 125.691 275.231 128.189 273.459 132.519C271.687 136.85 273.679 148.287 273.679 148.287C273.679 148.287 283.177 141.376 284.949 137.045C286.721 132.714 285.585 128.19 282.412 126.941Z" fill="#FFAFF7"/>
<path d="M264.787 169.406C261.614 168.156 260.478 163.632 262.25 159.301C264.022 154.971 273.52 148.059 273.52 148.059C273.52 148.059 275.512 159.496 273.74 163.827C271.968 168.158 267.96 170.655 264.787 169.406Z" fill="#FFAFF7"/>
<path d="M296.761 146.131C296.49 142.779 292.444 140.385 287.723 140.784C283.003 141.183 273.495 148.098 273.495 148.098C273.495 148.098 283.985 153.323 288.705 152.924C293.425 152.525 297.032 149.484 296.761 146.131Z" fill="#FFAFF7"/>
<path d="M250.437 150.214C250.166 146.862 253.773 143.821 258.493 143.422C263.214 143.023 273.703 148.248 273.703 148.248C273.703 148.248 264.195 155.163 259.475 155.562C254.754 155.961 250.708 153.567 250.437 150.214Z" fill="#FFAFF7"/>
<path d="M287.149 166.655C289.943 164.659 289.969 159.99 287.207 156.225C284.444 152.459 273.531 148.097 273.531 148.097C273.531 148.097 274.323 159.686 277.086 163.451C279.849 167.216 284.354 168.65 287.149 166.655Z" fill="#FFAFF7"/>
<path d="M260.049 129.689C262.843 127.693 267.349 129.128 270.111 132.893C272.874 136.658 273.666 148.247 273.666 148.247C273.666 148.247 262.753 143.884 259.991 140.119C257.228 136.354 257.254 131.684 260.049 129.689Z" fill="#FFAFF7"/>
<path d="M709.66 42.7134C707.853 42.2401 705.842 43.8546 705.167 46.3195C704.493 48.7845 706.336 54.8632 706.336 54.8632C706.336 54.8632 711.036 50.4986 711.711 48.0336C712.385 45.5687 711.467 43.1867 709.66 42.7134Z" fill="#FFAFF7"/>
<path d="M702.913 66.9045C701.106 66.4312 700.188 64.0493 700.863 61.5843C701.537 59.1194 706.237 54.7548 706.237 54.7548C706.237 54.7548 708.08 60.8335 707.406 63.2984C706.732 65.7634 704.72 67.3779 702.913 66.9045Z" fill="#FFAFF7"/>
<path d="M718.728 52.2094C718.356 50.4044 715.997 49.3618 713.46 49.8807C710.924 50.3996 706.224 54.767 706.224 54.767C706.224 54.767 712.273 56.936 714.81 56.4171C717.347 55.8982 719.101 54.0144 718.728 52.2094Z" fill="#FFAFF7"/>
<path d="M693.846 57.4056C693.473 55.6006 695.228 53.7168 697.765 53.1979C700.301 52.679 706.35 54.848 706.35 54.848C706.35 54.848 701.651 59.2154 699.114 59.7343C696.577 60.2531 694.219 59.2106 693.846 57.4056Z" fill="#FFAFF7"/>
<path d="M714.88 63.9689C716.264 62.7062 715.966 60.1701 714.214 58.3042C712.462 56.4383 706.244 54.7719 706.244 54.7719C706.244 54.7719 707.449 61.0107 709.201 62.8766C710.953 64.7425 713.496 65.2315 714.88 63.9689Z" fill="#FFAFF7"/>
<path d="M697.696 45.6453C699.081 44.3826 701.623 44.8717 703.375 46.7376C705.128 48.6034 706.332 54.8422 706.332 54.8422C706.332 54.8422 700.114 53.1758 698.362 51.3099C696.61 49.4441 696.312 46.9079 697.696 45.6453Z" fill="#FFAFF7"/>
</svg>
