<svg width="750" height="230" viewBox="0 0 750 230" fill="none" xmlns="http://www.w3.org/2000/svg">
<path d="M601.838 147.473V142.441H602.197C603.874 142.441 605.432 142.281 606.869 141.962C608.387 141.562 609.625 140.764 610.583 139.566C611.542 138.368 612.021 136.531 612.021 134.055V96.6778C612.021 94.2019 611.542 92.4049 610.583 91.2868C609.705 90.0888 608.507 89.2901 606.989 88.8908C605.472 88.4915 603.874 88.2918 602.197 88.2918H601.838V83.2603H631.788V88.2918H631.428C629.831 88.2918 628.393 88.4915 627.116 88.8908C625.918 89.2901 624.959 90.0888 624.24 91.2868C623.601 92.4848 623.282 94.2818 623.282 96.6778V111.533H631.069L639.694 101.35C642.011 98.6345 643.488 96.558 644.127 95.1204C644.846 93.6828 645.205 92.4049 645.205 91.2868C645.205 90.1687 644.806 89.4099 644.007 89.0106C643.209 88.5314 641.931 88.2918 640.174 88.2918V83.2603H665.571V88.2918C663.654 88.2918 661.817 88.7311 660.06 89.6096C658.303 90.4083 656.546 91.6462 654.789 93.3234C653.032 94.9207 651.075 96.9573 648.919 99.4331L637.059 113.33L638.017 108.059L654.909 132.617C656.267 134.614 657.584 136.371 658.862 137.889C660.14 139.326 661.498 140.444 662.935 141.243C664.373 142.042 665.93 142.441 667.608 142.441H667.967V147.473H666.29C662.935 147.473 660.14 147.353 657.904 147.113C655.747 146.794 653.871 146.235 652.273 145.436C650.756 144.637 649.318 143.479 647.961 141.962C646.603 140.444 645.085 138.408 643.408 135.852L631.069 117.523H623.282V134.055C623.282 136.451 623.641 138.248 624.36 139.446C625.079 140.644 626.037 141.443 627.235 141.842C628.513 142.241 629.911 142.441 631.428 142.441H631.788V147.473H601.838Z" fill="#212121"/>
<path d="M502.51 148.671C496.2 148.671 490.849 147.433 486.456 144.957C482.144 142.401 478.869 138.648 476.633 133.696C474.397 128.744 473.279 122.595 473.279 115.247C473.279 107.899 474.477 101.789 476.873 96.9176C479.269 91.9659 482.663 88.2521 487.055 85.7763C491.448 83.3004 496.599 82.0625 502.51 82.0625C508.819 82.0625 514.13 83.3004 518.443 85.7763C522.835 88.2521 526.15 91.9659 528.386 96.9176C530.622 101.789 531.741 107.899 531.741 115.247C531.741 122.595 530.543 128.744 528.147 133.696C525.751 138.648 522.356 142.401 517.964 144.957C513.651 147.433 508.499 148.671 502.51 148.671ZM502.51 142.92C506.663 142.92 509.977 141.882 512.453 139.806C514.929 137.649 516.726 134.495 517.844 130.342C518.962 126.188 519.521 121.157 519.521 115.247C519.521 109.257 518.962 104.225 517.844 100.152C516.726 96.079 514.929 93.0041 512.453 90.9276C509.977 88.8511 506.663 87.8129 502.51 87.8129C498.436 87.8129 495.122 88.8511 492.566 90.9276C490.09 93.0041 488.293 96.079 487.175 100.152C486.057 104.225 485.498 109.257 485.498 115.247C485.498 121.157 486.057 126.188 487.175 130.342C488.293 134.495 490.09 137.649 492.566 139.806C495.122 141.882 498.436 142.92 502.51 142.92Z" fill="#212121"/>
<path d="M359.796 147.473V142.441H360.754C362.512 142.441 364.109 142.241 365.546 141.842C367.064 141.443 368.262 140.644 369.14 139.446C370.099 138.168 370.578 136.291 370.578 133.815V89.2502H362.312C360.475 89.2502 359.037 89.5697 357.999 90.2086C356.961 90.8475 356.122 91.9257 355.483 93.4432C354.924 94.8808 354.405 96.9573 353.926 99.6727L353.087 104.345H347.457L348.176 83.2603H404.242L404.96 104.345H399.33L398.491 99.6727C398.012 96.9573 397.453 94.8808 396.814 93.4432C396.255 91.9257 395.456 90.8475 394.418 90.2086C393.38 89.5697 391.942 89.2502 390.105 89.2502H381.839V133.815C381.839 136.291 382.278 138.168 383.157 139.446C384.115 140.644 385.313 141.443 386.751 141.842C388.268 142.241 389.906 142.441 391.663 142.441H392.621V147.473H359.796Z" fill="#212121"/>
<path d="M233.371 177.422C231.294 177.422 229.577 177.063 228.219 176.344C226.941 175.625 225.983 174.587 225.344 173.229C224.785 171.952 224.506 170.394 224.506 168.557C224.506 168.158 224.506 167.759 224.506 167.359C224.506 167.04 224.545 166.72 224.625 166.401C225.823 166.64 226.941 166.8 227.98 166.88C229.018 167.04 230.016 167.12 230.975 167.12C234.728 167.12 237.843 166.041 240.319 163.885C242.795 161.729 245.151 158.055 247.387 152.864L251.341 143.879L249.184 150.348L225.584 94.6412C224.545 92.1653 223.467 90.4881 222.349 89.6096C221.231 88.7311 219.514 88.2918 217.198 88.2918H216.838V83.2603H245.59V88.2918H245.231C242.835 88.2918 241.038 88.771 239.84 89.7294C238.722 90.6079 238.163 92.0455 238.163 94.0422C238.163 94.6811 238.242 95.36 238.402 96.0788C238.562 96.7976 238.802 97.5962 239.121 98.4747L247.866 119.799C248.585 121.476 249.344 123.353 250.143 125.43C250.941 127.426 251.74 129.543 252.539 131.779C253.417 134.015 254.256 136.331 255.054 138.727H252.658C253.537 136.331 254.296 134.215 254.934 132.378C255.653 130.541 256.292 128.824 256.851 127.227C257.49 125.629 258.049 124.112 258.528 122.674L267.034 99.3133C267.434 98.3549 267.713 97.4365 267.873 96.558C268.033 95.5996 268.112 94.8009 268.112 94.162C268.112 92.0855 267.434 90.6079 266.076 89.7294C264.798 88.771 262.841 88.2918 260.206 88.2918H259.846V83.2603H284.525V88.2918H284.165C282.648 88.2918 281.37 88.5314 280.332 89.0106C279.373 89.4898 278.495 90.4083 277.696 91.766C276.898 93.1237 276.019 95.0804 275.061 97.6361L255.054 151.546C252.658 157.935 250.382 163.007 248.226 166.76C246.149 170.594 243.953 173.309 241.637 174.907C239.321 176.584 236.565 177.422 233.371 177.422Z" fill="#212121"/>
<path d="M91.4948 148.671C88.5398 148.671 86.4632 147.872 85.2652 146.275C84.0673 144.677 83.4683 142.721 83.4683 140.404C83.4683 139.925 83.4683 139.446 83.4683 138.967C83.5481 138.408 83.628 137.969 83.7079 137.649C84.4267 137.729 85.1055 137.809 85.7444 137.889C86.4632 137.969 87.1421 138.008 87.781 138.008C90.8958 138.008 93.4915 137.13 95.568 135.373C97.6445 133.616 99.3217 130.461 100.6 125.909C101.957 121.276 102.916 114.648 103.475 106.022C103.555 105.144 103.595 104.265 103.595 103.386C103.674 102.508 103.714 101.669 103.714 100.871C103.794 99.9922 103.834 99.1137 103.834 98.2351C103.914 97.3566 103.954 96.4781 103.954 95.5996C103.954 92.8042 103.355 90.8875 102.157 89.8492C100.959 88.8109 99.0821 88.2918 96.5264 88.2918H93.5314V83.2603H151.514V88.2918H151.155C149.398 88.2918 147.76 88.4915 146.243 88.8908C144.805 89.2901 143.607 90.0888 142.649 91.2868C141.77 92.4848 141.331 94.3616 141.331 96.9174V133.815C141.331 136.291 141.77 138.168 142.649 139.446C143.607 140.644 144.805 141.443 146.243 141.842C147.76 142.241 149.398 142.441 151.155 142.441H151.514V147.473H120.965V142.441H121.325C123.002 142.441 124.479 142.241 125.757 141.842C127.115 141.443 128.153 140.644 128.872 139.446C129.671 138.168 130.07 136.291 130.07 133.815V89.2502H111.022L110.064 107.22C109.345 120.957 107.428 131.3 104.313 138.248C101.199 145.196 96.9257 148.671 91.4948 148.671Z" fill="#212121"/>
<path fill-rule="evenodd" clip-rule="evenodd" d="M518.293 163.143C541.957 162.654 565.62 162.11 589.283 161.729C613.02 161.322 636.758 161.294 660.458 160.669C683.862 160.044 722.187 156.095 725.182 158.662C727.278 160.459 724.597 163.959 719.857 164.122C677.381 165.509 634.943 166.923 592.468 168.092C578.988 168.473 565.509 168.147 552.955 168.147C552.955 168.147 537.332 168.545 527.813 169.743C518.293 170.941 513.137 173.081 509.244 173.637C503.345 174.478 499.36 174.191 497.593 172.334C495.825 170.477 494.778 166.434 498.741 163.524C523.478 145.251 548.178 126.924 572.656 108.461C584.839 99.2704 615.266 79.6796 613.469 76.8989C611.672 74.1181 598.023 82.6291 593.801 84.886C555.177 105.579 515.331 124.939 474.263 142.886C457.413 150.255 440.596 156.754 423.857 164.258C419.694 166.125 414.864 170.941 410.709 172.139C407.019 173.203 380.165 176.467 377.165 164.965C374.166 153.463 384.922 146.96 390.913 142.891C392.394 141.885 398.496 138.78 400.236 137.991C411.716 132.79 416.669 132.109 426.788 140.167C427.603 140.765 428.751 141.89 430.746 142.886C432.741 143.882 475.966 114.933 475.966 114.933C475.966 114.933 477.747 113.584 475.963 112.839C474.191 112.097 470.182 112.184 467.661 112.239L467.614 112.24C454.542 112.457 441.379 113.573 428.306 113.763C424.825 113.818 420.876 115.256 419.395 111.042C419.029 110.003 421.491 108.921 424.677 108.57C448.446 105.95 494.689 103.554 495.186 106.503C495.963 111.126 491.705 112.893 488.409 114.851C471.596 124.885 454.636 134.837 437.749 144.816C433.713 147.209 429.454 149.493 428.751 155.312C433.157 153.762 436.416 152.892 439.305 151.614C465.931 139.867 492.741 128.365 518.96 116.129C541.031 105.823 562.361 94.6749 584.062 83.9343C598.652 76.7013 613.28 69.5227 627.907 62.3714C629.944 61.3653 632.018 60.1416 634.277 59.7338C636.313 59.3803 639.683 58.929 640.905 60.2504C642.127 61.5718 640.905 64.0029 639.683 65.0905C636.054 68.2991 631.721 71.0999 627.722 74.1181C610.428 87.2789 593.134 100.44 575.878 113.655L575.862 113.667L575.858 113.67C558.349 127.097 545.174 136.467 527.813 149.976C522.721 153.938 516.923 159.391 514.664 161.729C512.405 164.068 516.432 163.182 518.293 163.143ZM411.907 157.164C407.13 160.781 399.897 164.317 395.718 164.449C388.816 164.666 386.498 158.63 390.09 154.061C394.385 148.514 398.13 145.484 404.12 142.886C408.613 140.937 413.716 140.493 414.864 141.281C416.641 142.478 417.789 144.816 417.789 146.529C417.789 148.881 414.61 155.098 411.907 157.164Z" fill="#91BC73"/>
<path fill-rule="evenodd" clip-rule="evenodd" d="M131.989 118.97C133.905 117.34 137.159 114.698 138.602 113.664C144.734 109.248 150.607 105.28 156.471 101.318C162.602 97.1751 168.723 93.0397 175.116 88.4079C178.411 86.0212 184.401 80.621 183.524 79.5154C182.456 78.6082 181.671 79.0583 180.309 79.8386C180.002 80.0147 179.665 80.2077 179.289 80.4056C178.864 80.6292 177.323 81.4254 176.837 81.6738C174.158 83.0436 171.691 84.4401 169.135 85.8873C167.683 86.7097 166.201 87.5484 164.636 88.4079C152.875 94.8638 139.797 101.398 125.999 105.779C123.303 106.634 120.211 107.324 117.325 107.868C115.733 108.168 114.917 107.241 115.733 106.263C116.624 105.195 118.122 103.806 119.701 102.343C123.433 98.8824 127.615 95.0051 125.288 93.971C120.102 91.6662 110.711 95.7025 104.635 98.314C104.394 98.4174 104.159 98.5185 103.929 98.617C100.134 100.238 96.4971 102.055 92.8641 103.869C89.0591 105.769 85.2582 107.667 81.2829 109.338C69.2196 114.372 56.9344 119.106 44.5011 123.677C43.9477 123.879 43.3973 124.071 42.8557 124.259C38.6535 125.719 34.99 126.992 34.695 131.596C34.473 134.97 26.591 136.571 25.5551 133.201C24.0581 128.33 31.5496 120.467 42.7618 117.582C52.5308 115.079 58.9824 110.992 62.4849 101.284C65.9873 91.5749 102.227 69.1126 104.077 68.4138C104.348 68.3115 104.65 68.1839 104.971 68.0487C106.841 67.2601 109.327 66.2122 109.714 68.4138C110.061 70.382 106.26 72.849 103.633 74.4272C101.663 75.6003 99.6693 76.7502 97.6763 77.8997C93.5676 80.2694 89.4623 82.6372 85.5752 85.2023C77.6934 90.3723 73.8451 97.0932 71.8099 106.644C74.8766 105.295 77.6269 104.089 80.1812 102.969L80.1869 102.967L80.1909 102.965C84.2284 101.194 87.7765 99.6387 91.3107 98.0727C92.249 97.6546 93.1841 97.233 94.1188 96.8116C102.915 92.8453 110.999 86.6744 121.803 85.8873C129.019 85.3431 135.53 88.0866 138.306 95.1612C140.077 94.3257 142.975 93.4483 145.834 92.5829C148.576 91.7526 151.282 90.9334 152.922 90.1726L173.046 79.5154C176.121 77.9363 179.979 75.5752 183.531 73.401C185.366 72.2784 187.118 71.2056 188.64 70.3161C193.108 67.7039 196.091 66.064 200.754 63.6695C205.838 61.7473 209.653 57.5253 214.162 52.5344C215.442 51.1182 216.778 49.64 218.214 48.1349L218.569 47.7628C228.19 37.6951 238.477 27.981 248.949 18.3759C253.353 14.3216 259.236 11.5462 267.007 12.0359C273.187 12.4441 276.406 14.7842 274.334 19.1106C272.632 22.6207 269.412 26.0763 265.675 28.6069L246.887 40.7785C238.657 45.9985 230.429 51.218 222.603 56.7421C215.521 61.7536 209.043 67.2327 205.559 70.3161C202.154 73.1965 198.748 76.077 195.255 78.8897C188.398 84.412 181.421 89.8606 174.441 95.3007L173.046 96.3883L173.045 96.389L173.027 96.4028L173.021 96.408C170.982 97.9967 168.944 99.585 166.91 101.175C164.186 103.305 161.474 105.334 158.785 107.346C154.018 110.912 149.321 114.427 144.756 118.358C143.818 119.165 142.692 120.024 141.541 120.901C137.545 123.949 133.257 127.219 135.582 129.312C138.245 131.708 153.253 127.814 162.238 125.119C179.612 120.954 196.101 116.737 212.58 112.522C229.585 108.172 246.579 103.826 264.526 99.5421C271.539 97.8577 278.854 96.8149 286.119 95.7792L287.209 95.6238C302.787 93.447 310.554 100.198 305.674 111.46C302.832 118.017 295.757 126.832 291.088 132.648C287.738 136.822 285.627 139.452 287.209 138.596C288.796 137.737 294.354 134.823 301.228 131.219L301.236 131.215L301.241 131.212C310.76 126.22 316.799 123.608 324.317 119.596C325.564 118.929 326.801 118.245 328.038 117.562L328.039 117.561L328.043 117.559C332.053 115.342 336.068 113.123 340.45 111.46C351.588 107.297 356.804 109.357 357.544 118.526C358.58 131.451 354.859 143.646 345.645 154.639C329.955 173.36 320.958 183.643 297.424 197.656C295.686 198.692 294.042 199.821 292.397 200.949C290.154 202.488 287.911 204.027 285.435 205.33C282.179 207.044 278.33 208.568 274.482 209.085C271.854 209.438 268.191 208.432 266.082 207.098C263.048 205.166 262.9 202.282 265.675 199.806C268.45 197.33 271.406 197.375 275.166 197.821C276.027 197.923 276.561 198.277 277.094 198.63C277.856 199.135 278.616 199.638 280.328 199.398C282.222 199.132 284.481 197.943 286.57 196.843C287.69 196.254 288.76 195.69 289.7 195.308C292.925 193.545 294.853 191.987 297.082 190.186C298.162 189.313 299.313 188.382 300.717 187.344C302.67 185.9 304.528 184.538 306.304 183.237C321.361 172.206 330.487 165.519 340.45 149.772C346.63 139.976 353.896 121.943 349.001 117.137C346.109 114.297 330.503 120.391 319.351 127.322C309.779 133.27 311.829 131.705 304.274 135.789C303.026 136.463 301.68 137.19 300.195 137.997C295.408 140.596 291.158 142.863 287.064 145.046C282.194 147.644 277.546 150.124 272.481 152.901C268.758 154.946 266.428 155.783 264.452 156.493C261.617 157.512 259.51 158.269 255.062 161.957C249.397 166.634 245.186 170.741 240.51 177.822C240.51 177.822 237.925 181.611 235.834 183.643C233.168 186.235 233.323 186.213 230.108 188.551C229.347 189.104 226.978 190.736 225.966 191.481C220.677 195.372 212.937 198.314 205.958 200.704C195.522 203.398 189.861 203.806 184.681 199.67C179.574 195.561 179.648 189.793 186.161 184.106C198.113 173.63 212.1 164.324 229.27 159.29C255.691 151.562 275.828 137.34 282.62 129.582C288.855 122.461 291.345 118.119 294.115 113.288C294.363 112.856 294.613 112.419 294.869 111.977C297.977 106.589 297.405 100.097 289.413 100.56C286.193 100.75 278.445 102.154 275.336 102.889C268.007 104.577 261.318 106.177 254.681 107.765C248.045 109.353 236.8 112.006 230.522 113.438C224.244 114.871 217.746 116.818 211.232 118.77C204.385 120.821 197.521 122.878 190.878 124.348C187.342 125.13 181.558 126.567 175.309 128.119C173.83 128.487 172.259 128.898 170.573 129.339C165.136 130.761 158.502 132.495 149.888 134.099C138.602 136.2 136.369 135.901 130.679 135.13C127.891 134.752 121.993 132.307 122.293 129.312C122.541 126.84 124.781 124.98 129.024 121.455C131.052 119.77 131.381 119.5 131.381 119.5C131.381 119.5 130.988 119.821 131.989 118.97ZM238.625 36.9059C255.166 28.8517 266.052 20.594 262.678 18.2942C260.174 16.5874 244.953 29.015 238.625 36.9059ZM191.045 194.772C187.284 187.115 224.238 166.185 237.709 165.023C237.709 165.023 237.11 169.516 232.498 174.021C231.945 174.561 231.791 174.955 231.523 175.246C230.957 175.862 230.17 177.209 226.813 180.063C223.893 182.547 221.895 183.643 218.664 185.908C216.486 187.436 214.153 188.934 211.03 190.665C205.098 193.954 192.974 198.196 191.045 194.772Z" fill="#91BC73"/>
<path d="M601.837 147.473V142.441H602.197C603.874 142.441 605.431 142.281 606.869 141.962C608.386 141.562 609.624 140.764 610.583 139.566C611.541 138.368 612.02 136.531 612.02 134.055V96.6778C612.02 94.2019 611.541 92.4049 610.583 91.2868C609.704 90.0888 608.506 89.2901 606.989 88.8908C605.471 88.4915 603.874 88.2918 602.197 88.2918H601.837V83.2603H631.787V88.2918H631.428C629.83 88.2918 628.393 88.4915 627.115 88.8908C625.917 89.2901 624.959 90.0888 624.24 91.2868C623.601 92.4848 623.281 94.2818 623.281 96.6778V111.533H631.068L639.694 101.35C642.01 98.6345 643.488 96.558 644.126 95.1204C644.845 93.6828 645.205 92.4049 645.205 91.2868C645.205 90.1687 644.805 89.4099 644.007 89.0106C643.208 88.5314 641.93 88.2918 640.173 88.2918V83.2603H665.571V88.2918C663.654 88.2918 661.817 88.7311 660.06 89.6096C658.303 90.4083 656.546 91.6462 654.789 93.3234C653.032 94.9207 651.075 96.9573 648.918 99.4331L637.058 113.33L638.017 108.059L654.908 132.617C656.266 134.614 657.584 136.371 658.862 137.889C660.14 139.326 661.497 140.444 662.935 141.243C664.373 142.042 665.93 142.441 667.607 142.441H667.967V147.473H666.289C662.935 147.473 660.14 147.353 657.903 147.113C655.747 146.794 653.87 146.235 652.273 145.436C650.755 144.637 649.318 143.479 647.96 141.962C646.602 140.444 645.085 138.408 643.408 135.852L631.068 117.523H623.281V134.055C623.281 136.451 623.641 138.248 624.36 139.446C625.078 140.644 626.037 141.443 627.235 141.842C628.513 142.241 629.91 142.441 631.428 142.441H631.787V147.473H601.837Z" fill="#212121"/>
<path fill-rule="evenodd" clip-rule="evenodd" d="M502.509 148.671C496.199 148.671 490.848 147.433 486.456 144.957C482.143 142.401 478.868 138.648 476.632 133.696C475.279 130.7 474.336 127.266 473.801 123.393L485.506 116.505C485.58 121.874 486.137 126.486 487.175 130.342C488.293 134.495 490.09 137.649 492.565 139.806C495.121 141.882 498.436 142.92 502.509 142.92C506.662 142.92 509.976 141.882 512.452 139.806C514.928 137.649 516.725 134.495 517.843 130.342C518.342 128.489 518.729 126.462 519.006 124.261L531.503 120.668C531.046 125.673 529.927 130.015 528.146 133.696C525.75 138.648 522.356 142.401 517.963 144.957C513.65 147.433 508.499 148.671 502.509 148.671ZM531.174 106.817C530.632 103.088 529.703 99.7878 528.385 96.9176C526.149 91.9659 522.835 88.2521 518.442 85.7763C514.129 83.3004 508.818 82.0625 502.509 82.0625C496.599 82.0625 491.447 83.3004 487.055 85.7763C482.662 88.2521 479.268 91.9659 476.872 96.9176C475.639 99.4249 474.749 102.099 474.151 105.262C478.783 105.081 481.378 105.031 486.153 105.177C486.42 103.271 486.733 101.76 487.175 100.152C488.293 96.079 490.09 93.0041 492.565 90.9276C495.121 88.8511 498.436 87.8129 502.509 87.8129C506.662 87.8129 509.976 88.8511 512.452 90.9276C514.928 93.0041 516.725 96.079 517.843 100.152C518.85 103.82 519.404 108.266 519.504 113.489L531.174 106.817Z" fill="#212121"/>
<path fill-rule="evenodd" clip-rule="evenodd" d="M359.795 142.441V147.473H384.463C386.798 145.278 388.261 144.163 391.227 142.437C389.634 142.406 388.142 142.208 386.75 141.842C385.313 141.443 384.115 140.644 383.156 139.446C382.278 138.168 381.838 136.291 381.838 133.815V89.2502H390.105C391.941 89.2502 393.379 89.5697 394.417 90.2086C395.456 90.8475 396.254 91.9257 396.813 93.4432C397.452 94.8808 398.011 96.9573 398.49 99.6727L399.329 104.345H404.96L404.241 83.2603H348.175L347.456 104.345H353.087L353.925 99.6727C354.404 96.9573 354.924 94.8808 355.483 93.4432C356.122 91.9257 356.96 90.8475 357.998 90.2086C359.037 89.5697 360.474 89.2502 362.311 89.2502H370.577V133.815C370.577 136.291 370.098 138.168 369.14 139.446C368.261 140.644 367.063 141.443 365.546 141.842C364.108 142.241 362.511 142.441 360.754 142.441H359.795Z" fill="#212121"/>
<path d="M392.62 142.441H391.662C391.516 142.441 391.371 142.44 391.227 142.437C388.261 144.163 386.798 145.278 384.463 147.473H392.62V142.441Z" fill="#212121"/>
<path fill-rule="evenodd" clip-rule="evenodd" d="M248.845 149.549L248.191 151.034L256.721 147.053L275.06 97.6361C276.018 95.0804 276.897 93.1237 277.696 91.766C278.494 90.4083 279.373 89.4898 280.331 89.0106C281.369 88.5314 282.647 88.2918 284.165 88.2918H284.524V83.2603H259.846V88.2918H260.205C262.84 88.2918 264.797 88.771 266.075 89.7294C267.433 90.6079 268.112 92.0855 268.112 94.162C268.112 94.8009 268.032 95.5996 267.872 96.558C267.712 97.4365 267.433 98.3549 267.033 99.3133L258.528 122.674C258.049 124.112 257.489 125.629 256.851 127.227C256.291 128.824 255.653 130.541 254.934 132.378C254.613 133.299 254.263 134.29 253.883 135.351C253.445 134.138 252.997 132.948 252.538 131.779C251.739 129.543 250.94 127.426 250.142 125.43C249.343 123.353 248.584 121.476 247.866 119.799L239.12 98.4747C238.801 97.5962 238.561 96.7976 238.401 96.0788C238.242 95.36 238.162 94.6811 238.162 94.0422C238.162 92.0455 238.721 90.6079 239.839 89.7294C241.037 88.771 242.834 88.2918 245.23 88.2918H245.589V83.2603H216.838V88.2918H217.197C219.513 88.2918 221.23 88.7311 222.348 89.6096C223.467 90.4881 224.545 92.1653 225.583 94.6412L248.845 149.549Z" fill="#212121"/>
<path d="M224.505 167.359V168.557C224.505 169.42 224.566 170.221 224.69 170.96L229.342 167.046C228.896 167.006 228.441 166.951 227.979 166.88C226.941 166.8 225.823 166.64 224.625 166.401C224.545 166.72 224.505 167.04 224.505 167.359Z" fill="#212121"/>
<path d="M141.33 96.9174C141.33 94.963 141.356 93.7051 141.87 92.5447C137.563 94.6979 135.192 95.3998 131.408 96.5198C130.981 96.6461 130.537 96.7777 130.069 96.9174V103.327C134.34 101.606 136.796 100.575 141.33 98.5346V96.9174Z" fill="#212121"/>
<path fill-rule="evenodd" clip-rule="evenodd" d="M85.2645 146.275C86.4625 147.872 88.539 148.671 91.4941 148.671C96.925 148.671 101.198 145.196 104.313 138.248C107.427 131.3 109.344 120.957 110.063 107.22L111.021 89.2502H130.069V96.9174C130.537 96.7777 130.981 96.6461 131.408 96.5198C135.192 95.3998 137.563 94.6979 141.87 92.5447C142.028 92.1876 142.442 91.5687 142.648 91.2868C143.607 90.0888 144.805 89.2901 146.242 88.8908C147.76 88.4915 149.397 88.2918 151.154 88.2918H151.513V83.2603H93.5307V88.2918H96.5256C99.0813 88.2918 100.958 88.8109 102.156 89.8492C103.354 90.8875 103.953 92.8042 103.953 95.5996C103.953 96.4781 103.913 97.3566 103.833 98.2351C103.833 99.1137 103.793 99.9922 103.714 100.871C103.714 101.669 103.674 102.508 103.594 103.386C103.594 104.265 103.554 105.144 103.474 106.022C102.915 114.648 101.957 121.276 100.599 125.909C99.3209 130.461 97.6438 133.616 95.5672 135.373C93.4907 137.13 90.8951 138.008 87.7803 138.008C87.1414 138.008 86.4625 137.969 85.7437 137.889C85.1048 137.809 84.4259 137.729 83.7071 137.649C83.6273 137.969 83.5474 138.408 83.4675 138.967V140.404C83.4675 142.721 84.0665 144.677 85.2645 146.275ZM141.33 107.22V98.5346C136.796 100.575 134.34 101.606 130.069 103.327V116.055L141.33 107.22Z" fill="#212121"/>
<path d="M57.9505 93.7914C55.4321 93.7914 53.3905 96.5601 53.3905 99.9755C53.3905 103.391 57.9505 110.626 57.9505 110.626C57.9505 110.626 62.5105 103.391 62.5105 99.9755C62.5105 96.5601 60.4689 93.7914 57.9505 93.7914Z" fill="#FFAFF7"/>
<path d="M57.7549 127.392C55.2365 127.392 53.1949 124.623 53.1949 121.208C53.1949 117.792 57.7549 110.557 57.7549 110.557C57.7549 110.557 62.3149 117.792 62.3149 121.208C62.3149 124.623 60.2734 127.392 57.7549 127.392Z" fill="#FFAFF7"/>
<path d="M73.0442 102.998C71.9165 100.779 68.4898 100.22 65.3904 101.75C62.2911 103.279 57.7674 110.536 57.7674 110.536C57.7674 110.536 66.3749 111.314 69.4743 109.785C72.5736 108.255 74.172 105.217 73.0442 102.998Z" fill="#FFAFF7"/>
<path d="M42.6622 118.183C41.5345 115.964 43.1329 112.926 46.2322 111.396C49.3316 109.867 57.9391 110.645 57.9391 110.645C57.9391 110.645 53.4154 117.902 50.316 119.431C47.2167 120.961 43.7899 120.402 42.6622 118.183Z" fill="#FFAFF7"/>
<path d="M72.2178 119.528C73.5609 117.429 72.2727 114.251 69.3405 112.429C66.4083 110.608 57.7649 110.55 57.7649 110.55C57.7649 110.55 61.5444 118.209 64.4766 120.031C67.4088 121.852 70.8747 121.627 72.2178 119.528Z" fill="#FFAFF7"/>
<path d="M43.4862 101.656C44.8293 99.5565 48.2951 99.3315 51.2273 101.153C54.1595 102.975 57.939 110.634 57.939 110.634C57.939 110.634 49.2956 110.576 46.3635 108.754C43.4313 106.933 42.1431 103.755 43.4862 101.656Z" fill="#FFAFF7"/>
<path d="M577.14 147.1C574.952 147.468 573.605 150.183 574.131 153.164C574.658 156.145 579.735 161.793 579.735 161.793C579.735 161.793 582.581 154.812 582.055 151.831C581.528 148.85 579.328 146.732 577.14 147.1Z" fill="#FFAFF7"/>
<path d="M582.12 176.435C579.932 176.804 577.732 174.686 577.205 171.705C576.679 168.724 579.525 161.742 579.525 161.742C579.525 161.742 584.602 167.39 585.129 170.371C585.655 173.352 584.308 176.067 582.12 176.435Z" fill="#FFAFF7"/>
<path d="M591.707 152.909C590.381 151.137 587.307 151.15 584.842 152.939C582.377 154.727 579.556 161.725 579.556 161.725C579.556 161.725 587.18 161.145 589.645 159.357C592.11 157.568 593.033 154.682 591.707 152.909Z" fill="#FFAFF7"/>
<path d="M567.554 170.627C566.228 168.855 567.151 165.968 569.616 164.18C572.081 162.391 579.705 161.811 579.705 161.811C579.705 161.811 576.884 168.809 574.419 170.597C571.953 172.386 568.88 172.399 567.554 170.627Z" fill="#FFAFF7"/>
<path d="M593.523 167.443C594.369 165.42 592.755 162.842 589.917 161.684C587.08 160.526 579.537 161.735 579.537 161.735C579.537 161.735 584.016 167.851 586.854 169.009C589.691 170.167 592.677 169.466 593.523 167.443Z" fill="#FFAFF7"/>
<path d="M565.734 156.095C566.58 154.072 569.566 153.37 572.404 154.528C575.241 155.686 579.72 161.802 579.72 161.802C579.72 161.802 572.177 163.012 569.34 161.854C566.502 160.696 564.888 158.118 565.734 156.095Z" fill="#FFAFF7"/>
<path d="M432.898 140.729C431.053 141.04 429.917 143.329 430.361 145.843C430.805 148.356 435.086 153.119 435.086 153.119C435.086 153.119 437.486 147.232 437.042 144.718C436.598 142.205 434.743 140.419 432.898 140.729Z" fill="#FFAFF7"/>
<path d="M437.097 165.467C435.252 165.777 433.397 163.991 432.953 161.478C432.509 158.964 434.909 153.077 434.909 153.077C434.909 153.077 439.19 157.84 439.634 160.353C440.078 162.867 438.942 165.156 437.097 165.467Z" fill="#FFAFF7"/>
<path d="M445.181 145.629C444.062 144.134 441.471 144.145 439.392 145.653C437.313 147.162 434.934 153.062 434.934 153.062C434.934 153.062 441.363 152.573 443.441 151.065C445.52 149.557 446.299 147.123 445.181 145.629Z" fill="#FFAFF7"/>
<path d="M424.814 160.569C423.695 159.074 424.474 156.64 426.553 155.132C428.632 153.624 435.06 153.135 435.06 153.135C435.06 153.135 432.681 159.036 430.602 160.544C428.524 162.052 425.932 162.063 424.814 160.569Z" fill="#FFAFF7"/>
<path d="M446.713 157.884C447.426 156.179 446.065 154.004 443.672 153.028C441.28 152.051 434.92 153.071 434.92 153.071C434.92 153.071 438.696 158.229 441.089 159.205C443.481 160.181 445.999 159.59 446.713 157.884Z" fill="#FFAFF7"/>
<path d="M423.279 148.314C423.993 146.608 426.511 146.017 428.903 146.993C431.296 147.97 435.073 153.127 435.073 153.127C435.073 153.127 428.712 154.147 426.32 153.17C423.927 152.194 422.566 150.02 423.279 148.314Z" fill="#FFAFF7"/>
<path d="M261.191 130.525C258.019 129.275 254.01 131.773 252.239 136.104C250.467 140.435 252.458 151.872 252.458 151.872C252.458 151.872 261.956 144.96 263.728 140.629C265.5 136.298 264.364 131.775 261.191 130.525Z" fill="#FFAFF7"/>
<path d="M243.566 172.99C240.393 171.741 239.258 167.217 241.029 162.886C242.801 158.555 252.299 151.644 252.299 151.644C252.299 151.644 254.291 163.08 252.519 167.411C250.747 171.742 246.739 174.24 243.566 172.99Z" fill="#FFAFF7"/>
<path d="M275.54 149.716C275.269 146.363 271.223 143.969 266.503 144.368C261.782 144.767 252.274 151.682 252.274 151.682C252.274 151.682 262.764 156.907 267.484 156.508C272.204 156.109 275.811 153.068 275.54 149.716Z" fill="#FFAFF7"/>
<path d="M229.217 153.799C228.946 150.446 232.552 147.405 237.273 147.006C241.993 146.607 252.483 151.832 252.483 151.832C252.483 151.832 242.974 158.748 238.254 159.146C233.534 159.545 229.488 157.151 229.217 153.799Z" fill="#FFAFF7"/>
<path d="M265.928 170.239C268.723 168.244 268.749 163.574 265.986 159.809C263.223 156.044 252.311 151.681 252.311 151.681C252.311 151.681 253.103 163.27 255.865 167.035C258.628 170.8 263.133 172.235 265.928 170.239Z" fill="#FFAFF7"/>
<path d="M238.828 133.273C241.623 131.278 246.128 132.712 248.891 136.477C251.653 140.243 252.445 151.831 252.445 151.831C252.445 151.831 241.533 147.469 238.77 143.704C236.007 139.939 236.033 135.269 238.828 133.273Z" fill="#FFAFF7"/>
<path d="M269.481 5.07667C267.674 4.60333 265.662 6.21786 264.988 8.6828C264.313 11.1478 266.157 17.2264 266.157 17.2264C266.157 17.2264 270.857 12.8619 271.531 10.3969C272.206 7.93195 271.287 5.55 269.481 5.07667Z" fill="#FFAFF7"/>
<path d="M262.734 29.2678C260.927 28.7945 260.009 26.4125 260.683 23.9476C261.358 21.4826 266.058 17.118 266.058 17.118C266.058 17.118 267.901 23.1967 267.227 25.6617C266.552 28.1266 264.541 29.7412 262.734 29.2678Z" fill="#FFAFF7"/>
<path d="M278.549 14.5727C278.176 12.7677 275.818 11.7251 273.281 12.244C270.744 12.7629 266.045 17.1302 266.045 17.1302C266.045 17.1302 272.094 19.2993 274.63 18.7804C277.167 18.2615 278.922 16.3777 278.549 14.5727Z" fill="#FFAFF7"/>
<path d="M253.667 19.7689C253.294 17.9639 255.048 16.08 257.585 15.5612C260.122 15.0423 266.17 17.2113 266.17 17.2113C266.17 17.2113 261.471 21.5787 258.935 22.0975C256.398 22.6164 254.039 21.5738 253.667 19.7689Z" fill="#FFAFF7"/>
<path d="M274.701 26.3322C276.085 25.0695 275.787 22.5334 274.035 20.6675C272.283 18.8016 266.065 17.1352 266.065 17.1352C266.065 17.1352 267.269 23.374 269.021 25.2399C270.774 27.1057 273.316 27.5948 274.701 26.3322Z" fill="#FFAFF7"/>
<path d="M257.517 8.00855C258.901 6.74593 261.444 7.23496 263.196 9.10084C264.948 10.9667 266.153 17.2055 266.153 17.2055C266.153 17.2055 259.935 15.5391 258.183 13.6732C256.431 11.8073 256.133 9.27118 257.517 8.00855Z" fill="#FFAFF7"/>
</svg>
