<svg width="750" height="230" viewBox="0 0 750 230" fill="none" xmlns="http://www.w3.org/2000/svg">
<path d="M601.837 147.473V142.441H602.197C603.874 142.441 605.431 142.281 606.869 141.962C608.386 141.562 609.624 140.764 610.582 139.566C611.541 138.368 612.02 136.531 612.02 134.055V96.6778C612.02 94.2019 611.541 92.4049 610.582 91.2868C609.704 90.0888 608.506 89.2901 606.989 88.8908C605.471 88.4915 603.874 88.2918 602.197 88.2918H601.837V83.2603H631.787V88.2918H631.428C629.83 88.2918 628.393 88.4915 627.115 88.8908C625.917 89.2901 624.958 90.0888 624.24 91.2868C623.601 92.4848 623.281 94.2818 623.281 96.6778V111.533H631.068L639.694 101.35C642.01 98.6345 643.487 96.558 644.126 95.1204C644.845 93.6828 645.204 92.4049 645.204 91.2868C645.204 90.1687 644.805 89.4099 644.006 89.0106C643.208 88.5314 641.93 88.2918 640.173 88.2918V83.2603H665.57V88.2918C663.653 88.2918 661.817 88.7311 660.06 89.6096C658.302 90.4083 656.545 91.6462 654.788 93.3234C653.031 94.9207 651.075 96.9573 648.918 99.4331L637.058 113.33L638.016 108.059L654.908 132.617C656.266 134.614 657.584 136.371 658.862 137.889C660.139 139.326 661.497 140.444 662.935 141.243C664.372 142.042 665.93 142.441 667.607 142.441H667.966V147.473H666.289C662.935 147.473 660.139 147.353 657.903 147.113C655.747 146.794 653.87 146.235 652.273 145.436C650.755 144.637 649.318 143.479 647.96 141.962C646.602 140.444 645.085 138.408 643.407 135.852L631.068 117.523H623.281V134.055C623.281 136.451 623.641 138.248 624.359 139.446C625.078 140.644 626.037 141.443 627.235 141.842C628.512 142.241 629.91 142.441 631.428 142.441H631.787V147.473H601.837Z" fill="#212121"/>
<path d="M502.509 148.671C496.199 148.671 490.848 147.433 486.456 144.957C482.143 142.401 478.868 138.648 476.632 133.696C474.396 128.744 473.278 122.595 473.278 115.247C473.278 107.899 474.476 101.789 476.872 96.9176C479.268 91.9659 482.662 88.2521 487.055 85.7763C491.447 83.3004 496.599 82.0625 502.509 82.0625C508.818 82.0625 514.129 83.3004 518.442 85.7763C522.835 88.2521 526.149 91.9659 528.385 96.9176C530.622 101.789 531.74 107.899 531.74 115.247C531.74 122.595 530.542 128.744 528.146 133.696C525.75 138.648 522.356 142.401 517.963 144.957C513.65 147.433 508.499 148.671 502.509 148.671ZM502.509 142.92C506.662 142.92 509.976 141.882 512.452 139.806C514.928 137.649 516.725 134.495 517.843 130.342C518.961 126.188 519.52 121.157 519.52 115.247C519.52 109.257 518.961 104.225 517.843 100.152C516.725 96.079 514.928 93.0041 512.452 90.9276C509.976 88.8511 506.662 87.8129 502.509 87.8129C498.436 87.8129 495.121 88.8511 492.565 90.9276C490.09 93.0041 488.293 96.079 487.175 100.152C486.056 104.225 485.497 109.257 485.497 115.247C485.497 121.157 486.056 126.188 487.175 130.342C488.293 134.495 490.09 137.649 492.565 139.806C495.121 141.882 498.436 142.92 502.509 142.92Z" fill="#212121"/>
<path d="M359.795 147.473V142.441H360.754C362.511 142.441 364.108 142.241 365.546 141.842C367.063 141.443 368.261 140.644 369.14 139.446C370.098 138.168 370.577 136.291 370.577 133.815V89.2502H362.311C360.474 89.2502 359.037 89.5697 357.998 90.2086C356.96 90.8475 356.122 91.9257 355.483 93.4432C354.924 94.8808 354.404 96.9573 353.925 99.6727L353.087 104.345H347.456L348.175 83.2603H404.241L404.96 104.345H399.329L398.49 99.6727C398.011 96.9573 397.452 94.8808 396.813 93.4432C396.254 91.9257 395.456 90.8475 394.417 90.2086C393.379 89.5697 391.941 89.2502 390.105 89.2502H381.838V133.815C381.838 136.291 382.278 138.168 383.156 139.446C384.115 140.644 385.313 141.443 386.75 141.842C388.268 142.241 389.905 142.441 391.662 142.441H392.62V147.473H359.795Z" fill="#212121"/>
<path d="M233.37 177.422C231.293 177.422 229.576 177.063 228.219 176.344C226.941 175.625 225.982 174.587 225.343 173.229C224.784 171.952 224.505 170.394 224.505 168.557C224.505 168.158 224.505 167.759 224.505 167.359C224.505 167.04 224.545 166.72 224.625 166.401C225.823 166.64 226.941 166.8 227.979 166.88C229.017 167.04 230.016 167.12 230.974 167.12C234.728 167.12 237.842 166.041 240.318 163.885C242.794 161.729 245.15 158.055 247.386 152.864L251.34 143.879L249.183 150.348L225.583 94.6412C224.545 92.1653 223.467 90.4881 222.348 89.6096C221.23 88.7311 219.513 88.2918 217.197 88.2918H216.838V83.2603H245.589V88.2918H245.23C242.834 88.2918 241.037 88.771 239.839 89.7294C238.721 90.6079 238.162 92.0455 238.162 94.0422C238.162 94.6811 238.242 95.36 238.401 96.0788C238.561 96.7976 238.801 97.5962 239.12 98.4747L247.866 119.799C248.584 121.476 249.343 123.353 250.142 125.43C250.94 127.426 251.739 129.543 252.538 131.779C253.416 134.015 254.255 136.331 255.054 138.727H252.658C253.536 136.331 254.295 134.215 254.934 132.378C255.653 130.541 256.291 128.824 256.851 127.227C257.489 125.629 258.049 124.112 258.528 122.674L267.033 99.3133C267.433 98.3549 267.712 97.4365 267.872 96.558C268.032 95.5996 268.112 94.8009 268.112 94.162C268.112 92.0855 267.433 90.6079 266.075 89.7294C264.797 88.771 262.84 88.2918 260.205 88.2918H259.846V83.2603H284.524V88.2918H284.165C282.647 88.2918 281.369 88.5314 280.331 89.0106C279.373 89.4898 278.494 90.4083 277.696 91.766C276.897 93.1237 276.018 95.0804 275.06 97.6361L255.054 151.546C252.658 157.935 250.381 163.007 248.225 166.76C246.148 170.594 243.952 173.309 241.636 174.907C239.32 176.584 236.565 177.422 233.37 177.422Z" fill="#212121"/>
<path d="M91.4941 148.671C88.539 148.671 86.4625 147.872 85.2645 146.275C84.0665 144.677 83.4675 142.721 83.4675 140.404C83.4675 139.925 83.4675 139.446 83.4675 138.967C83.5474 138.408 83.6273 137.969 83.7071 137.649C84.4259 137.729 85.1048 137.809 85.7437 137.889C86.4625 137.969 87.1414 138.008 87.7803 138.008C90.8951 138.008 93.4907 137.13 95.5672 135.373C97.6438 133.616 99.3209 130.461 100.599 125.909C101.957 121.276 102.915 114.648 103.474 106.022C103.554 105.144 103.594 104.265 103.594 103.386C103.674 102.508 103.714 101.669 103.714 100.871C103.793 99.9922 103.833 99.1137 103.833 98.2351C103.913 97.3566 103.953 96.4781 103.953 95.5996C103.953 92.8042 103.354 90.8875 102.156 89.8492C100.958 88.8109 99.0813 88.2918 96.5256 88.2918H93.5307V83.2603H151.513V88.2918H151.154C149.397 88.2918 147.76 88.4915 146.242 88.8908C144.805 89.2901 143.607 90.0888 142.648 91.2868C141.77 92.4848 141.33 94.3616 141.33 96.9174V133.815C141.33 136.291 141.77 138.168 142.648 139.446C143.607 140.644 144.805 141.443 146.242 141.842C147.76 142.241 149.397 142.441 151.154 142.441H151.513V147.473H120.965V142.441H121.324C123.001 142.441 124.479 142.241 125.757 141.842C127.114 141.443 128.153 140.644 128.871 139.446C129.67 138.168 130.069 136.291 130.069 133.815V89.2502H111.021L110.063 107.22C109.344 120.957 107.427 131.3 104.313 138.248C101.198 145.196 96.925 148.671 91.4941 148.671Z" fill="#212121"/>
<path fill-rule="evenodd" clip-rule="evenodd" d="M518.294 163.143C541.957 162.654 565.62 162.11 589.284 161.729C613.021 161.322 636.758 161.294 660.459 160.669C683.863 160.044 722.187 156.095 725.182 158.662C727.279 160.459 724.597 163.959 719.857 164.122C677.382 165.509 634.944 166.923 592.468 168.092C578.989 168.473 565.509 168.147 552.955 168.147C552.955 168.147 537.333 168.545 527.813 169.743C518.294 170.941 513.138 173.081 509.244 173.637C503.345 174.478 499.361 174.191 497.593 172.334C495.825 170.477 494.779 166.434 498.741 163.524C523.478 145.251 548.178 126.924 572.656 108.461C584.84 99.2704 615.267 79.6796 613.47 76.8989C611.673 74.1181 598.023 82.6291 593.801 84.886C555.177 105.579 515.331 124.939 474.263 142.886C457.414 150.255 440.596 156.754 423.858 164.258C419.695 166.125 414.864 170.941 410.71 172.139C407.019 173.203 380.165 176.467 377.166 164.965C374.166 153.463 384.922 146.96 390.913 142.891C392.394 141.885 398.496 138.78 400.237 137.991C411.717 132.79 416.669 132.109 426.789 140.167C427.603 140.765 428.751 141.89 430.746 142.886C432.741 143.882 475.967 114.933 475.967 114.933C475.967 114.933 477.748 113.584 475.964 112.839C474.191 112.097 470.183 112.184 467.661 112.239L467.614 112.24C454.542 112.457 441.379 113.573 428.307 113.763C424.826 113.818 420.876 115.256 419.395 111.042C419.03 110.003 421.492 108.921 424.678 108.57C448.446 105.95 494.69 103.554 495.186 106.503C495.964 111.126 491.705 112.893 488.409 114.851C471.597 124.885 454.636 134.837 437.75 144.816C433.713 147.209 429.455 149.493 428.751 155.312C433.158 153.762 436.417 152.892 439.305 151.614C465.931 139.867 492.742 128.365 518.96 116.129C541.031 105.823 562.362 94.6749 584.062 83.9343C598.653 76.7013 613.28 69.5227 627.908 62.3714C629.944 61.3653 632.018 60.1416 634.277 59.7338C636.314 59.3803 639.684 58.929 640.906 60.2504C642.128 61.5718 640.906 64.0029 639.684 65.0905C636.055 68.2991 631.722 71.0999 627.722 74.1181C610.429 87.2789 593.135 100.44 575.878 113.655L575.862 113.667L575.859 113.67C558.349 127.097 545.175 136.467 527.813 149.976C522.722 153.938 516.924 159.391 514.665 161.729C512.406 164.068 516.432 163.182 518.294 163.143ZM411.908 157.164C407.131 160.781 399.898 164.317 395.719 164.449C388.816 164.666 386.498 158.63 390.09 154.061C394.386 148.514 398.131 145.484 404.121 142.886C408.613 140.937 413.716 140.493 414.864 141.281C416.642 142.478 417.79 144.816 417.79 146.529C417.79 148.881 414.611 155.098 411.908 157.164Z" fill="#41721E"/>
<path fill-rule="evenodd" clip-rule="evenodd" d="M131.989 118.97C133.905 117.34 137.159 114.698 138.602 113.664C144.734 109.248 150.608 105.28 156.471 101.318C162.603 97.1751 168.723 93.0397 175.117 88.4079C178.411 86.0212 184.401 80.621 183.525 79.5154C182.456 78.6082 181.671 79.0583 180.309 79.8386C180.002 80.0147 179.665 80.2077 179.289 80.4056C178.865 80.6292 177.324 81.4254 176.838 81.6738C174.158 83.0436 171.692 84.4401 169.136 85.8873C167.683 86.7097 166.202 87.5484 164.636 88.4079C152.875 94.8638 139.798 101.398 125.999 105.779C123.304 106.634 120.211 107.324 117.325 107.868C115.734 108.168 114.918 107.241 115.734 106.263C116.625 105.195 118.123 103.806 119.702 102.343C123.433 98.8824 127.615 95.0051 125.288 93.971C120.103 91.6662 110.711 95.7025 104.635 98.314C104.395 98.4174 104.159 98.5185 103.93 98.617C100.134 100.238 96.4976 102.055 92.8646 103.869C89.0596 105.769 85.2586 107.667 81.2834 109.338C69.2201 114.372 56.9349 119.106 44.5016 123.677C43.9482 123.879 43.3977 124.071 42.8562 124.259C38.654 125.719 34.9905 126.992 34.6955 131.596C34.4734 134.97 26.5915 136.571 25.5556 133.201C24.0586 128.33 31.5501 120.467 42.7623 117.582C52.5313 115.079 58.9829 110.992 62.4854 101.284C65.9878 91.5749 102.227 69.1126 104.078 68.4138C104.348 68.3115 104.651 68.1839 104.972 68.0487C106.842 67.2601 109.327 66.2122 109.715 68.4138C110.062 70.382 106.261 72.849 103.634 74.4272C101.664 75.6003 99.6698 76.7502 97.6768 77.8997C93.5681 80.2694 89.4628 82.6372 85.5757 85.2023C77.6939 90.3723 73.8456 97.0932 71.8104 106.644C74.877 105.295 77.6274 104.089 80.1817 102.969L80.1874 102.967L80.1914 102.965C84.2289 101.194 87.777 99.6387 91.3112 98.0727C92.2495 97.6546 93.1846 97.233 94.1192 96.8116C102.916 92.8453 110.999 86.6744 121.804 85.8873C129.019 85.3431 135.531 88.0866 138.306 95.1612C140.077 94.3257 142.976 93.4483 145.834 92.5829C148.577 91.7526 151.283 90.9334 152.922 90.1726L173.046 79.5154C176.121 77.9363 179.979 75.5752 183.532 73.401C185.366 72.2784 187.119 71.2056 188.64 70.3161C193.109 67.7039 196.092 66.064 200.754 63.6695C205.838 61.7473 209.653 57.5253 214.163 52.5344C215.442 51.1182 216.778 49.64 218.215 48.1349L218.57 47.7628C228.191 37.6951 238.478 27.981 248.95 18.3759C253.353 14.3216 259.237 11.5462 267.008 12.0359C273.187 12.4441 276.407 14.7842 274.334 19.1106C272.632 22.6207 269.413 26.0763 265.675 28.6069L246.887 40.7785C238.658 45.9985 230.429 51.218 222.603 56.7421C215.521 61.7536 209.043 67.2327 205.56 70.3161C202.154 73.1965 198.749 76.077 195.255 78.8897C188.398 84.412 181.421 89.8606 174.442 95.3007L173.046 96.3883L173.045 96.389L173.028 96.4028L173.021 96.408C170.983 97.9967 168.945 99.585 166.91 101.175C164.187 103.305 161.475 105.334 158.785 107.346C154.019 110.912 149.322 114.427 144.756 118.358C143.819 119.165 142.692 120.024 141.542 120.901C137.546 123.949 133.258 127.219 135.583 129.312C138.245 131.708 153.253 127.814 162.238 125.119C179.612 120.954 196.101 116.737 212.581 112.522C229.585 108.172 246.58 103.826 264.526 99.5421C271.539 97.8577 278.854 96.8149 286.12 95.7792L287.209 95.6238C302.788 93.447 310.554 100.198 305.674 111.46C302.833 118.017 295.758 126.832 291.089 132.648C287.739 136.822 285.628 139.452 287.209 138.596C288.797 137.737 294.354 134.823 301.228 131.219L301.236 131.215L301.241 131.212C310.761 126.22 316.799 123.608 324.317 119.596C325.564 118.929 326.801 118.245 328.038 117.562L328.039 117.561L328.043 117.559C332.054 115.342 336.069 113.123 340.451 111.46C351.589 107.297 356.804 109.357 357.544 118.526C358.581 131.451 354.859 143.646 345.645 154.639C329.956 173.36 320.959 183.643 297.425 197.656C295.687 198.692 294.042 199.821 292.397 200.949C290.154 202.488 287.912 204.027 285.435 205.33C282.179 207.044 278.331 208.568 274.482 209.085C271.855 209.438 268.192 208.432 266.082 207.098C263.048 205.166 262.9 202.282 265.675 199.806C268.451 197.33 271.406 197.375 275.167 197.821C276.027 197.923 276.561 198.277 277.094 198.63C277.857 199.135 278.617 199.638 280.329 199.398C282.222 199.132 284.481 197.943 286.571 196.843C287.69 196.254 288.761 195.69 289.701 195.308C292.926 193.545 294.854 191.987 297.082 190.186C298.163 189.313 299.314 188.382 300.718 187.344C302.67 185.9 304.529 184.538 306.305 183.237C321.361 172.206 330.488 165.519 340.451 149.772C346.63 139.976 353.897 121.943 349.001 117.137C346.11 114.297 330.504 120.391 319.351 127.322C309.779 133.27 311.829 131.705 304.275 135.789C303.027 136.463 301.681 137.19 300.195 137.997C295.408 140.596 291.158 142.863 287.065 145.046C282.194 147.644 277.546 150.124 272.482 152.901C268.759 154.946 266.429 155.783 264.453 156.493C261.617 157.512 259.511 158.269 255.062 161.957C249.398 166.634 245.187 170.741 240.511 177.822C240.511 177.822 237.925 181.611 235.835 183.643C233.169 186.235 233.323 186.213 230.109 188.551C229.348 189.104 226.979 190.736 225.966 191.481C220.677 195.372 212.937 198.314 205.958 200.704C195.523 203.398 189.862 203.806 184.681 199.67C179.575 195.561 179.649 189.793 186.161 184.106C198.113 173.63 212.101 164.324 229.271 159.29C255.691 151.562 275.829 137.34 282.621 129.582C288.855 122.461 291.345 118.119 294.116 113.288C294.364 112.856 294.614 112.419 294.869 111.977C297.978 106.589 297.406 100.097 289.413 100.56C286.194 100.75 278.445 102.154 275.337 102.889C268.008 104.577 261.319 106.177 254.682 107.765C248.045 109.353 236.801 112.006 230.523 113.438C224.245 114.871 217.746 116.818 211.232 118.77C204.386 120.821 197.522 122.878 190.879 124.348C187.343 125.13 181.559 126.567 175.31 128.119C173.831 128.487 172.259 128.898 170.573 129.339C165.137 130.761 158.503 132.495 149.888 134.099C138.602 136.2 136.37 135.901 130.68 135.13C127.891 134.752 121.994 132.307 122.294 129.312C122.542 126.84 124.781 124.98 129.024 121.455C131.052 119.77 131.381 119.5 131.381 119.5C131.381 119.5 130.989 119.821 131.989 118.97ZM238.626 36.9059C255.166 28.8517 266.052 20.594 262.678 18.2942C260.174 16.5874 244.953 29.015 238.626 36.9059ZM191.046 194.772C187.284 187.115 224.238 166.185 237.709 165.023C237.709 165.023 237.11 169.516 232.499 174.021C231.946 174.561 231.791 174.955 231.523 175.246C230.957 175.862 230.17 177.209 226.813 180.063C223.894 182.547 221.895 183.643 218.665 185.908C216.486 187.436 214.153 188.934 211.03 190.665C205.098 193.954 192.975 198.196 191.046 194.772Z" fill="#41721E"/>
<path d="M601.838 147.473V142.441H602.197C603.874 142.441 605.432 142.281 606.869 141.962C608.387 141.562 609.625 140.764 610.583 139.566C611.542 138.368 612.021 136.531 612.021 134.055V96.6778C612.021 94.2019 611.542 92.4049 610.583 91.2868C609.705 90.0888 608.507 89.2901 606.989 88.8908C605.472 88.4915 603.874 88.2918 602.197 88.2918H601.838V83.2603H631.788V88.2918H631.428C629.831 88.2918 628.393 88.4915 627.116 88.8908C625.918 89.2901 624.959 90.0888 624.24 91.2868C623.601 92.4848 623.282 94.2818 623.282 96.6778V111.533H631.069L639.694 101.35C642.011 98.6345 643.488 96.558 644.127 95.1204C644.846 93.6828 645.205 92.4049 645.205 91.2868C645.205 90.1687 644.806 89.4099 644.007 89.0106C643.209 88.5314 641.931 88.2918 640.174 88.2918V83.2603H665.571V88.2918C663.654 88.2918 661.817 88.7311 660.06 89.6096C658.303 90.4083 656.546 91.6462 654.789 93.3234C653.032 94.9207 651.075 96.9573 648.919 99.4331L637.059 113.33L638.017 108.059L654.909 132.617C656.267 134.614 657.584 136.371 658.862 137.889C660.14 139.326 661.498 140.444 662.935 141.243C664.373 142.042 665.93 142.441 667.608 142.441H667.967V147.473H666.29C662.935 147.473 660.14 147.353 657.904 147.113C655.747 146.794 653.871 146.235 652.273 145.436C650.756 144.637 649.318 143.479 647.961 141.962C646.603 140.444 645.085 138.408 643.408 135.852L631.069 117.523H623.282V134.055C623.282 136.451 623.641 138.248 624.36 139.446C625.079 140.644 626.037 141.443 627.235 141.842C628.513 142.241 629.911 142.441 631.428 142.441H631.788V147.473H601.838Z" fill="#212121"/>
<path fill-rule="evenodd" clip-rule="evenodd" d="M502.509 148.671C496.2 148.671 490.849 147.433 486.456 144.957C482.143 142.401 478.869 138.648 476.633 133.696C475.28 130.7 474.336 127.266 473.802 123.393L485.506 116.505C485.581 121.874 486.137 126.486 487.175 130.342C488.293 134.495 490.09 137.649 492.566 139.806C495.122 141.882 498.436 142.92 502.509 142.92C506.662 142.92 509.977 141.882 512.453 139.806C514.928 137.649 516.725 134.495 517.844 130.342C518.342 128.489 518.73 126.462 519.006 124.261L531.504 120.668C531.046 125.673 529.927 130.015 528.146 133.696C525.75 138.648 522.356 142.401 517.963 144.957C513.651 147.433 508.499 148.671 502.509 148.671ZM531.174 106.817C530.633 103.088 529.703 99.7878 528.386 96.9176C526.15 91.9659 522.835 88.2521 518.443 85.7763C514.13 83.3004 508.819 82.0625 502.509 82.0625C496.599 82.0625 491.448 83.3004 487.055 85.7763C482.663 88.2521 479.268 91.9659 476.872 96.9176C475.639 99.4249 474.75 102.099 474.151 105.262C478.784 105.081 481.379 105.031 486.153 105.177C486.42 103.271 486.734 101.76 487.175 100.152C488.293 96.079 490.09 93.0041 492.566 90.9276C495.122 88.8511 498.436 87.8129 502.509 87.8129C506.662 87.8129 509.977 88.8511 512.453 90.9276C514.928 93.0041 516.725 96.079 517.844 100.152C518.851 103.82 519.404 108.266 519.504 113.489L531.174 106.817Z" fill="#212121"/>
<path fill-rule="evenodd" clip-rule="evenodd" d="M359.796 142.441V147.473H384.463C386.798 145.278 388.261 144.163 391.227 142.437C389.634 142.406 388.142 142.208 386.751 141.842C385.313 141.443 384.115 140.644 383.157 139.446C382.278 138.168 381.839 136.291 381.839 133.815V89.2502H390.105C391.942 89.2502 393.38 89.5697 394.418 90.2086C395.456 90.8475 396.255 91.9257 396.814 93.4432C397.453 94.8808 398.012 96.9573 398.491 99.6727L399.33 104.345H404.96L404.241 83.2603H348.175L347.457 104.345H353.087L353.926 99.6727C354.405 96.9573 354.924 94.8808 355.483 93.4432C356.122 91.9257 356.961 90.8475 357.999 90.2086C359.037 89.5697 360.475 89.2502 362.312 89.2502H370.578V133.815C370.578 136.291 370.099 138.168 369.14 139.446C368.262 140.644 367.064 141.443 365.546 141.842C364.109 142.241 362.511 142.441 360.754 142.441H359.796Z" fill="#212121"/>
<path d="M392.621 142.441H391.662C391.516 142.441 391.371 142.44 391.227 142.437C388.261 144.163 386.798 145.278 384.463 147.473H392.621V142.441Z" fill="#212121"/>
<path fill-rule="evenodd" clip-rule="evenodd" d="M248.845 149.549L248.192 151.034L256.721 147.053L275.06 97.6361C276.019 95.0804 276.897 93.1237 277.696 91.766C278.495 90.4083 279.373 89.4898 280.332 89.0106C281.37 88.5314 282.648 88.2918 284.165 88.2918H284.525V83.2603H259.846V88.2918H260.205C262.841 88.2918 264.798 88.771 266.076 89.7294C267.433 90.6079 268.112 92.0855 268.112 94.162C268.112 94.8009 268.032 95.5996 267.873 96.558C267.713 97.4365 267.433 98.3549 267.034 99.3133L258.528 122.674C258.049 124.112 257.49 125.629 256.851 127.227C256.292 128.824 255.653 130.541 254.934 132.378C254.614 133.299 254.264 134.29 253.883 135.351C253.446 134.138 252.997 132.948 252.538 131.779C251.74 129.543 250.941 127.426 250.142 125.43C249.344 123.353 248.585 121.476 247.866 119.799L239.121 98.4747C238.801 97.5962 238.562 96.7976 238.402 96.0788C238.242 95.36 238.162 94.6811 238.162 94.0422C238.162 92.0455 238.721 90.6079 239.84 89.7294C241.038 88.771 242.835 88.2918 245.231 88.2918H245.59V83.2603H216.838V88.2918H217.198C219.514 88.2918 221.231 88.7311 222.349 89.6096C223.467 90.4881 224.545 92.1653 225.583 94.6412L248.845 149.549Z" fill="#212121"/>
<path d="M224.505 167.359V168.557C224.505 169.42 224.567 170.221 224.69 170.96L229.343 167.046C228.896 167.006 228.442 166.951 227.979 166.88C226.941 166.8 225.823 166.64 224.625 166.401C224.545 166.72 224.505 167.04 224.505 167.359Z" fill="#212121"/>
<path d="M141.331 96.9174C141.331 94.963 141.356 93.7051 141.87 92.5447C137.564 94.6979 135.192 95.3998 131.409 96.5198C130.982 96.6461 130.537 96.7777 130.07 96.9174V103.327C134.341 101.606 136.797 100.575 141.331 98.5346V96.9174Z" fill="#212121"/>
<path fill-rule="evenodd" clip-rule="evenodd" d="M85.265 146.275C86.463 147.872 88.5395 148.671 91.4946 148.671C96.9254 148.671 101.198 145.196 104.313 138.248C107.428 131.3 109.345 120.957 110.063 107.22L111.022 89.2502H130.07V96.9174C130.537 96.7777 130.982 96.6461 131.409 96.5198C135.192 95.3998 137.564 94.6979 141.87 92.5447C142.028 92.1876 142.442 91.5687 142.649 91.2868C143.607 90.0888 144.805 89.2901 146.243 88.8908C147.76 88.4915 149.397 88.2918 151.155 88.2918H151.514V83.2603H93.5311V88.2918H96.5261C99.0818 88.2918 100.959 88.8109 102.157 89.8492C103.355 90.8875 103.954 92.8042 103.954 95.5996C103.954 96.4781 103.914 97.3566 103.834 98.2351C103.834 99.1137 103.794 99.9922 103.714 100.871C103.714 101.669 103.674 102.508 103.594 103.386C103.594 104.265 103.554 105.144 103.474 106.022C102.915 114.648 101.957 121.276 100.599 125.909C99.3214 130.461 97.6442 133.616 95.5677 135.373C93.4912 137.13 90.8956 138.008 87.7808 138.008C87.1419 138.008 86.463 137.969 85.7442 137.889C85.1053 137.809 84.4264 137.729 83.7076 137.649C83.6277 137.969 83.5479 138.408 83.468 138.967V140.404C83.468 142.721 84.067 144.677 85.265 146.275ZM141.331 107.22V98.5346C136.797 100.575 134.341 101.606 130.07 103.327V116.055L141.331 107.22Z" fill="#212121"/>
<ellipse cx="11.4547" cy="11.5283" rx="11.4547" ry="11.5283" transform="matrix(-0.264224 0.964476 -0.967348 -0.253507 72.9158 95.9834)" fill="#EA4949"/>
<ellipse cx="11.4547" cy="11.5283" rx="11.4547" ry="11.5283" transform="matrix(-0.264224 0.964476 -0.967348 -0.253507 65.8486 107.822)" fill="#EA4949"/>
<ellipse cx="8.62641" cy="8.68184" rx="8.62641" ry="8.68184" transform="matrix(-0.264224 0.964476 -0.967348 -0.253507 76.1392 110.261)" fill="#EA4949"/>
<path d="M49.3242 108.267C50.2883 107.133 49.7934 105.161 48.2186 103.863C46.6439 102.564 41.5624 101.867 41.5624 101.867C41.5624 101.867 43.1525 106.671 44.7272 107.97C46.3019 109.268 48.3601 109.401 49.3242 108.267Z" fill="#41721E"/>
<path d="M49.1021 106.536C50.5156 106.036 51.1029 104.085 50.4139 102.179C49.7249 100.273 45.7058 97.1412 45.7058 97.1412C45.7058 97.1412 44.6061 102.085 45.2952 103.991C45.9842 105.897 47.6886 107.037 49.1021 106.536Z" fill="#41721E"/>
<ellipse cx="249.505" cy="151.322" rx="13.0454" ry="12.8538" fill="#EA4949"/>
<ellipse cx="264.642" cy="155.447" rx="13.0454" ry="12.8538" fill="#EA4949"/>
<ellipse cx="264.642" cy="138.308" rx="13.0454" ry="12.8538" fill="#EA4949"/>
<path d="M253.079 139.88C253.921 138.442 252.976 136.351 250.968 135.208C248.959 134.066 243.18 134.249 243.18 134.249C243.18 134.249 245.909 139.272 247.917 140.415C249.925 141.557 252.236 141.318 253.079 139.88Z" fill="#41721E"/>
<path d="M252.492 138C253.956 137.18 254.214 134.904 253.068 132.918C251.922 130.932 246.842 128.21 246.842 128.21C246.842 128.21 246.618 133.903 247.764 135.89C248.911 137.876 251.027 138.821 252.492 138Z" fill="#41721E"/>
<ellipse cx="6.03368" cy="5.96452" rx="6.03368" ry="5.96452" transform="matrix(0.995008 0.0998309 -0.105221 0.994453 421.492 156.959)" fill="#EA4949"/>
<ellipse cx="6.03368" cy="5.96452" rx="6.03368" ry="5.96452" transform="matrix(0.995008 0.0998309 -0.105221 0.994453 415.975 150.47)" fill="#EA4949"/>
<ellipse cx="6.03368" cy="5.96452" rx="6.03368" ry="5.96452" transform="matrix(0.995008 0.0998309 -0.105221 0.994453 431.874 155.852)" fill="#EA4949"/>
<ellipse cx="6.03368" cy="5.96452" rx="6.03368" ry="5.96452" transform="matrix(0.995008 0.0998309 -0.105221 0.994453 419.556 144.069)" fill="#EA4949"/>
<ellipse cx="10.1995" cy="10.0825" rx="10.1995" ry="10.0825" transform="matrix(0.995008 0.0998309 -0.105221 0.994453 425.401 141.238)" fill="#EA4949"/>
<path d="M430.75 155.241C432.068 155.126 433.009 153.588 432.853 151.807C432.697 150.026 429.98 146.462 429.98 146.462C429.98 146.462 427.925 150.444 428.082 152.225C428.238 154.006 429.433 155.356 430.75 155.241Z" fill="#41721E"/>
<path d="M431.791 155.388C432.288 153.936 431.05 152.217 429.027 151.548C427.004 150.88 421.819 152.093 421.819 152.093C421.819 152.093 425.206 156.138 427.229 156.807C429.252 157.475 431.295 156.84 431.791 155.388Z" fill="#41721E"/>
<path d="M431.712 154.032C432.902 154.588 434.499 153.726 435.279 152.108C436.058 150.49 435.555 146.057 435.555 146.057C435.555 146.057 431.749 148.479 430.969 150.097C430.189 151.715 430.522 153.477 431.712 154.032Z" fill="#41721E"/>
<ellipse cx="6.97623" cy="6.97241" rx="6.97623" ry="6.97241" transform="matrix(0.844619 0.535382 -0.547718 0.836673 225.311 27.397)" fill="#EA4949"/>
<ellipse cx="6.97623" cy="6.97241" rx="6.97623" ry="6.97241" transform="matrix(0.844619 0.535382 -0.547718 0.836673 230.944 33.6162)" fill="#EA4949"/>
<ellipse cx="6.97623" cy="6.97241" rx="6.97623" ry="6.97241" transform="matrix(0.844619 0.535382 -0.547718 0.836673 236.016 25.8569)" fill="#EA4949"/>
<path d="M232.384 32.8091C233.193 32.398 233.388 31.1789 232.819 30.0862C232.25 28.9934 229.579 27.4228 229.579 27.4228C229.579 27.4228 229.318 30.4819 229.887 31.5747C230.456 32.6674 231.574 33.2201 232.384 32.8091Z" fill="#41721E"/>
<path d="M232.671 31.798C233.573 31.845 234.363 30.8855 234.435 29.655C234.507 28.4246 233.027 25.733 233.027 25.733C233.027 25.733 231.241 28.2546 231.169 29.485C231.097 30.7155 231.77 31.7511 232.671 31.798Z" fill="#41721E"/>
<ellipse cx="7.81918" cy="7.71706" rx="7.81918" ry="7.71706" transform="matrix(0.998661 0.0517459 -0.0547192 0.998503 576.361 155.95)" fill="#EA4949"/>
<ellipse cx="7.81918" cy="7.71706" rx="7.81918" ry="7.71706" transform="matrix(0.998661 0.0517459 -0.0547192 0.998503 585.296 158.899)" fill="#EA4949"/>
<ellipse cx="7.81918" cy="7.71706" rx="7.81918" ry="7.71706" transform="matrix(0.998661 0.0517459 -0.0547192 0.998503 585.851 148.632)" fill="#EA4949"/>
<path d="M590.493 159.145C591.496 159.008 592.155 157.797 591.966 156.44C591.777 155.083 589.562 152.455 589.562 152.455C589.562 152.455 588.147 155.577 588.336 156.935C588.525 158.292 589.491 159.282 590.493 159.145Z" fill="#41721E"/>
<path d="M591.296 159.219C591.619 158.091 590.605 156.822 589.031 156.386C587.457 155.949 583.537 157.068 583.537 157.068C583.537 157.068 586.286 160.036 587.86 160.472C589.434 160.909 590.972 160.348 591.296 159.219Z" fill="#41721E"/>
<path d="M591.183 158.182C592.116 158.563 593.305 157.845 593.839 156.578C594.372 155.312 593.815 151.939 593.815 151.939C593.815 151.939 590.995 153.932 590.461 155.198C589.928 156.465 590.251 157.801 591.183 158.182Z" fill="#41721E"/>
</svg>
