<svg width="750" height="230" viewBox="0 0 750 230" fill="none" xmlns="http://www.w3.org/2000/svg">
<g clip-path="url(#clip0_1211_65159)">
<path d="M601.838 147.473V142.441H602.197C603.874 142.441 605.432 142.281 606.869 141.962C608.387 141.562 609.625 140.764 610.583 139.566C611.541 138.368 612.021 136.531 612.021 134.055V96.6778C612.021 94.2019 611.541 92.4049 610.583 91.2868C609.704 90.0888 608.506 89.2901 606.989 88.8908C605.472 88.4915 603.874 88.2918 602.197 88.2918H601.838V83.2603H631.787V88.2918H631.428C629.831 88.2918 628.393 88.4915 627.115 88.8908C625.917 89.2901 624.959 90.0888 624.24 91.2868C623.601 92.4848 623.282 94.2818 623.282 96.6778V111.533H631.069L639.694 101.35C642.01 98.6345 643.488 96.558 644.127 95.1204C644.846 93.6828 645.205 92.4049 645.205 91.2868C645.205 90.1687 644.806 89.4099 644.007 89.0106C643.208 88.5314 641.93 88.2918 640.173 88.2918V83.2603H665.571V88.2918C663.654 88.2918 661.817 88.7311 660.06 89.6096C658.303 90.4083 656.546 91.6462 654.789 93.3234C653.032 94.9207 651.075 96.9573 648.919 99.4331L637.059 113.33L638.017 108.059L654.909 132.617C656.266 134.614 657.584 136.371 658.862 137.889C660.14 139.326 661.498 140.444 662.935 141.243C664.373 142.042 665.93 142.441 667.607 142.441H667.967V147.473H666.29C662.935 147.473 660.14 147.353 657.904 147.113C655.747 146.794 653.87 146.235 652.273 145.436C650.756 144.637 649.318 143.479 647.96 141.962C646.603 140.444 645.085 138.408 643.408 135.852L631.069 117.523H623.282V134.055C623.282 136.451 623.641 138.248 624.36 139.446C625.079 140.644 626.037 141.443 627.235 141.842C628.513 142.241 629.911 142.441 631.428 142.441H631.787V147.473H601.838Z" fill="#212121"/>
<path d="M502.509 148.671C496.2 148.671 490.849 147.433 486.456 144.957C482.143 142.401 478.869 138.648 476.633 133.696C474.396 128.744 473.278 122.595 473.278 115.247C473.278 107.899 474.476 101.789 476.872 96.9176C479.268 91.9659 482.663 88.2521 487.055 85.7763C491.448 83.3004 496.599 82.0625 502.509 82.0625C508.819 82.0625 514.13 83.3004 518.443 85.7763C522.835 88.2521 526.15 91.9659 528.386 96.9176C530.622 101.789 531.74 107.899 531.74 115.247C531.74 122.595 530.542 128.744 528.146 133.696C525.75 138.648 522.356 142.401 517.963 144.957C513.651 147.433 508.499 148.671 502.509 148.671ZM502.509 142.92C506.662 142.92 509.977 141.882 512.453 139.806C514.928 137.649 516.725 134.495 517.844 130.342C518.962 126.188 519.521 121.157 519.521 115.247C519.521 109.257 518.962 104.225 517.844 100.152C516.725 96.079 514.928 93.0041 512.453 90.9276C509.977 88.8511 506.662 87.8129 502.509 87.8129C498.436 87.8129 495.122 88.8511 492.566 90.9276C490.09 93.0041 488.293 96.079 487.175 100.152C486.057 104.225 485.498 109.257 485.498 115.247C485.498 121.157 486.057 126.188 487.175 130.342C488.293 134.495 490.09 137.649 492.566 139.806C495.122 141.882 498.436 142.92 502.509 142.92Z" fill="#212121"/>
<path d="M359.796 147.473V142.441H360.754C362.511 142.441 364.109 142.241 365.546 141.842C367.064 141.443 368.262 140.644 369.14 139.446C370.099 138.168 370.578 136.291 370.578 133.815V89.2502H362.312C360.475 89.2502 359.037 89.5697 357.999 90.2086C356.961 90.8475 356.122 91.9257 355.483 93.4432C354.924 94.8808 354.405 96.9573 353.926 99.6727L353.087 104.345H347.457L348.175 83.2603H404.241L404.96 104.345H399.33L398.491 99.6727C398.012 96.9573 397.453 94.8808 396.814 93.4432C396.255 91.9257 395.456 90.8475 394.418 90.2086C393.38 89.5697 391.942 89.2502 390.105 89.2502H381.839V133.815C381.839 136.291 382.278 138.168 383.157 139.446C384.115 140.644 385.313 141.443 386.751 141.842C388.268 142.241 389.905 142.441 391.662 142.441H392.621V147.473H359.796Z" fill="#212121"/>
<path d="M233.37 177.422C231.294 177.422 229.577 177.063 228.219 176.344C226.941 175.625 225.983 174.587 225.344 173.229C224.785 171.952 224.505 170.394 224.505 168.557C224.505 168.158 224.505 167.759 224.505 167.359C224.505 167.04 224.545 166.72 224.625 166.401C225.823 166.64 226.941 166.8 227.979 166.88C229.018 167.04 230.016 167.12 230.974 167.12C234.728 167.12 237.843 166.041 240.319 163.885C242.795 161.729 245.151 158.055 247.387 152.864L251.34 143.879L249.184 150.348L225.583 94.6412C224.545 92.1653 223.467 90.4881 222.349 89.6096C221.231 88.7311 219.514 88.2918 217.198 88.2918H216.838V83.2603H245.59V88.2918H245.231C242.835 88.2918 241.038 88.771 239.84 89.7294C238.721 90.6079 238.162 92.0455 238.162 94.0422C238.162 94.6811 238.242 95.36 238.402 96.0788C238.562 96.7976 238.801 97.5962 239.121 98.4747L247.866 119.799C248.585 121.476 249.344 123.353 250.142 125.43C250.941 127.426 251.74 129.543 252.538 131.779C253.417 134.015 254.255 136.331 255.054 138.727H252.658C253.537 136.331 254.295 134.215 254.934 132.378C255.653 130.541 256.292 128.824 256.851 127.227C257.49 125.629 258.049 124.112 258.528 122.674L267.034 99.3133C267.433 98.3549 267.713 97.4365 267.873 96.558C268.032 95.5996 268.112 94.8009 268.112 94.162C268.112 92.0855 267.433 90.6079 266.076 89.7294C264.798 88.771 262.841 88.2918 260.205 88.2918H259.846V83.2603H284.525V88.2918H284.165C282.648 88.2918 281.37 88.5314 280.332 89.0106C279.373 89.4898 278.495 90.4083 277.696 91.766C276.897 93.1237 276.019 95.0804 275.06 97.6361L255.054 151.546C252.658 157.935 250.382 163.007 248.225 166.76C246.149 170.594 243.953 173.309 241.637 174.907C239.32 176.584 236.565 177.422 233.37 177.422Z" fill="#212121"/>
<path d="M91.4946 148.671C88.5395 148.671 86.463 147.872 85.265 146.275C84.067 144.677 83.468 142.721 83.468 140.404C83.468 139.925 83.468 139.446 83.468 138.967C83.5479 138.408 83.6277 137.969 83.7076 137.649C84.4264 137.729 85.1053 137.809 85.7442 137.889C86.463 137.969 87.1419 138.008 87.7808 138.008C90.8956 138.008 93.4912 137.13 95.5677 135.373C97.6442 133.616 99.3214 130.461 100.599 125.909C101.957 121.276 102.915 114.648 103.474 106.022C103.554 105.144 103.594 104.265 103.594 103.386C103.674 102.508 103.714 101.669 103.714 100.871C103.794 99.9922 103.834 99.1137 103.834 98.2351C103.914 97.3566 103.954 96.4781 103.954 95.5996C103.954 92.8042 103.355 90.8875 102.157 89.8492C100.959 88.8109 99.0818 88.2918 96.5261 88.2918H93.5311V83.2603H151.514V88.2918H151.155C149.397 88.2918 147.76 88.4915 146.243 88.8908C144.805 89.2901 143.607 90.0888 142.649 91.2868C141.77 92.4848 141.331 94.3616 141.331 96.9174V133.815C141.331 136.291 141.77 138.168 142.649 139.446C143.607 140.644 144.805 141.443 146.243 141.842C147.76 142.241 149.397 142.441 151.155 142.441H151.514V147.473H120.965V142.441H121.325C123.002 142.441 124.479 142.241 125.757 141.842C127.115 141.443 128.153 140.644 128.872 139.446C129.671 138.168 130.07 136.291 130.07 133.815V89.2502H111.022L110.063 107.22C109.345 120.957 107.428 131.3 104.313 138.248C101.198 145.196 96.9254 148.671 91.4946 148.671Z" fill="#212121"/>
<path fill-rule="evenodd" clip-rule="evenodd" d="M518.294 163.143C541.957 162.654 565.621 162.11 589.284 161.729C613.021 161.322 636.759 161.294 660.459 160.669C683.863 160.044 722.188 156.095 725.183 158.662C727.279 160.459 724.598 163.959 719.858 164.122C677.382 165.509 634.944 166.923 592.469 168.092C578.989 168.473 565.51 168.147 552.956 168.147C552.956 168.147 537.333 168.545 527.814 169.743C518.294 170.941 513.138 173.081 509.245 173.637C503.346 174.478 499.361 174.191 497.593 172.334C495.826 170.477 494.779 166.434 498.741 163.524C523.479 145.251 548.179 126.924 572.657 108.461C584.84 99.2704 615.267 79.6796 613.47 76.8989C611.673 74.1181 598.023 82.6291 593.802 84.886C555.178 105.579 515.332 124.939 474.263 142.886C457.414 150.255 440.596 156.754 423.858 164.258C419.695 166.125 414.865 170.941 410.71 172.139C407.02 173.203 380.166 176.467 377.166 164.965C374.167 153.463 384.923 146.96 390.913 142.891C392.395 141.885 398.497 138.78 400.237 137.991C411.717 132.79 416.67 132.109 426.789 140.167C427.604 140.765 428.752 141.89 430.747 142.886C432.741 143.882 475.967 114.933 475.967 114.933C475.967 114.933 477.748 113.584 475.964 112.839C474.191 112.097 470.183 112.184 467.662 112.239L467.615 112.24C454.542 112.457 441.379 113.573 428.307 113.763C424.826 113.818 420.877 115.256 419.395 111.042C419.03 110.003 421.492 108.921 424.678 108.57C448.447 105.95 494.69 103.554 495.186 106.503C495.964 111.126 491.705 112.893 488.41 114.851C471.597 124.885 454.637 134.837 437.75 144.816C433.714 147.209 429.455 149.493 428.752 155.312C433.158 153.762 436.417 152.892 439.306 151.614C465.931 139.867 492.742 128.365 518.961 116.129C541.032 105.823 562.362 94.6749 584.063 83.9343C598.653 76.7013 613.281 69.5227 627.908 62.3714C629.945 61.3653 632.019 60.1416 634.277 59.7338C636.314 59.3803 639.684 58.929 640.906 60.2504C642.128 61.5718 640.906 64.0029 639.684 65.0905C636.055 68.2991 631.722 71.0999 627.723 74.1181C610.429 87.2789 593.135 100.44 575.878 113.655L575.863 113.667L575.859 113.67C558.35 127.097 545.175 136.467 527.814 149.976C522.722 153.938 516.924 159.391 514.665 161.729C512.406 164.068 516.433 163.182 518.294 163.143ZM411.908 157.164C407.131 160.781 399.898 164.317 395.719 164.449C388.817 164.666 386.498 158.63 390.09 154.061C394.386 148.514 398.131 145.484 404.121 142.886C408.614 140.937 413.717 140.493 414.865 141.281C416.642 142.478 417.79 144.816 417.79 146.529C417.79 148.881 414.611 155.098 411.908 157.164Z" fill="#17C1FB"/>
<path fill-rule="evenodd" clip-rule="evenodd" d="M131.989 118.97C133.906 117.34 137.159 114.698 138.603 113.664C144.735 109.248 150.608 105.28 156.471 101.318C162.603 97.1751 168.724 93.0397 175.117 88.4079C178.412 86.0212 184.401 80.621 183.525 79.5154C182.457 78.6082 181.672 79.0583 180.31 79.8386C180.003 80.0147 179.666 80.2077 179.29 80.4056C178.865 80.6292 177.324 81.4254 176.838 81.6738C174.159 83.0436 171.692 84.4401 169.136 85.8873C167.684 86.7097 166.202 87.5484 164.637 88.4079C152.876 94.8638 139.798 101.398 125.999 105.779C123.304 106.634 120.212 107.324 117.325 107.868C115.734 108.168 114.918 107.241 115.734 106.263C116.625 105.195 118.123 103.806 119.702 102.343C123.434 98.8824 127.615 95.0051 125.289 93.971C120.103 91.6662 110.712 95.7025 104.636 98.314C104.395 98.4174 104.16 98.5185 103.93 98.617C100.135 100.238 96.4979 102.055 92.865 103.869C89.06 105.769 85.259 107.667 81.2837 109.338C69.2205 114.372 56.9352 119.106 44.5019 123.677C43.9486 123.879 43.3981 124.071 42.8566 124.259C38.6543 125.719 34.9909 126.992 34.6958 131.596C34.4738 134.97 26.5918 136.571 25.556 133.201C24.059 128.33 31.5505 120.467 42.7626 117.582C52.5316 115.079 58.9833 110.992 62.4857 101.284C65.9882 91.5749 102.227 69.1126 104.078 68.4138C104.349 68.3115 104.651 68.1839 104.972 68.0487C106.842 67.2601 109.328 66.2122 109.715 68.4138C110.062 70.382 106.261 72.849 103.634 74.4272C101.664 75.6003 99.6701 76.7502 97.6772 77.8997C93.5685 80.2694 89.4632 82.6372 85.5761 85.2023C77.6942 90.3723 73.846 97.0932 71.8108 106.644C74.8774 105.295 77.6277 104.089 80.1821 102.969L80.1877 102.967L80.1917 102.965C84.2293 101.194 87.7773 99.6387 91.3116 98.0727C92.2498 97.6546 93.185 97.233 94.1196 96.8116C102.916 92.8453 111 86.6744 121.804 85.8873C129.02 85.3431 135.531 88.0866 138.306 95.1612C140.078 94.3257 142.976 93.4483 145.834 92.5829C148.577 91.7526 151.283 90.9334 152.923 90.1726L173.047 79.5154C176.122 77.9363 179.98 75.5752 183.532 73.401C185.366 72.2784 187.119 71.2056 188.641 70.3161C193.109 67.7039 196.092 66.064 200.755 63.6695C205.839 61.7473 209.654 57.5253 214.163 52.5344C215.443 51.1182 216.778 49.64 218.215 48.1349L218.57 47.7628C228.191 37.6951 238.478 27.981 248.95 18.3759C253.354 14.3216 259.237 11.5462 267.008 12.0359C273.188 12.4441 276.407 14.7842 274.335 19.1106C272.633 22.6207 269.413 26.0763 265.676 28.6069L246.888 40.7785C238.658 45.9985 230.43 51.218 222.604 56.7421C215.521 61.7536 209.043 67.2327 205.56 70.3161C202.155 73.1965 198.749 76.077 195.255 78.8897C188.398 84.412 181.421 89.8606 174.442 95.3007L173.047 96.3883L173.046 96.389L173.028 96.4028L173.021 96.408C170.983 97.9967 168.945 99.585 166.91 101.175C164.187 103.305 161.475 105.334 158.785 107.346C154.019 110.912 149.322 114.427 144.757 118.358C143.819 119.165 142.693 120.024 141.542 120.901C137.546 123.949 133.258 127.219 135.583 129.312C138.246 131.708 153.254 127.814 162.239 125.119C179.613 120.954 196.102 116.737 212.581 112.522C229.586 108.172 246.58 103.826 264.526 99.5421C271.539 97.8577 278.855 96.8149 286.12 95.7792L287.21 95.6238C302.788 93.447 310.555 100.198 305.675 111.46C302.833 118.017 295.758 126.832 291.089 132.648C287.739 136.822 285.628 139.452 287.21 138.596C288.797 137.737 294.355 134.823 301.229 131.219L301.237 131.215L301.242 131.212C310.761 126.22 316.8 123.608 324.318 119.596C325.564 118.929 326.801 118.245 328.038 117.562L328.039 117.561L328.043 117.559C332.054 115.342 336.069 113.123 340.451 111.46C351.589 107.297 356.805 109.357 357.545 118.526C358.581 131.451 354.86 143.646 345.646 154.639C329.956 173.36 320.959 183.643 297.425 197.656C295.687 198.692 294.042 199.821 292.398 200.949C290.155 202.488 287.912 204.027 285.436 205.33C282.179 207.044 278.331 208.568 274.483 209.085C271.855 209.438 268.192 208.432 266.083 207.098C263.048 205.166 262.901 202.282 265.676 199.806C268.451 197.33 271.407 197.375 275.167 197.821C276.028 197.923 276.562 198.277 277.094 198.63C277.857 199.135 278.617 199.638 280.329 199.398C282.223 199.132 284.481 197.943 286.571 196.843C287.69 196.254 288.761 195.69 289.701 195.308C292.926 193.545 294.854 191.987 297.082 190.186C298.163 189.313 299.314 188.382 300.718 187.344C302.67 185.9 304.529 184.538 306.305 183.237C321.362 172.206 330.488 165.519 340.451 149.772C346.631 139.976 353.897 121.943 349.002 117.137C346.11 114.297 330.504 120.391 319.351 127.322C309.78 133.27 311.83 131.705 304.275 135.789C303.027 136.463 301.681 137.19 300.195 137.997C295.409 140.596 291.158 142.863 287.065 145.046C282.195 147.644 277.547 150.124 272.482 152.901C268.759 154.946 266.429 155.783 264.453 156.493C261.618 157.512 259.511 158.269 255.063 161.957C249.398 166.634 245.187 170.741 240.511 177.822C240.511 177.822 237.926 181.611 235.835 183.643C233.169 186.235 233.324 186.213 230.109 188.551C229.348 189.104 226.979 190.736 225.967 191.481C220.678 195.372 212.938 198.314 205.959 200.704C195.523 203.398 189.862 203.806 184.682 199.67C179.575 195.561 179.649 189.793 186.162 184.106C198.114 173.63 212.101 164.324 229.271 159.29C255.692 151.562 275.829 137.34 282.621 129.582C288.856 122.461 291.346 118.119 294.116 113.288C294.364 112.856 294.614 112.419 294.87 111.977C297.978 106.589 297.406 100.097 289.413 100.56C286.194 100.75 278.445 102.154 275.337 102.889C268.008 104.577 261.319 106.177 254.682 107.765C248.045 109.353 236.801 112.006 230.523 113.438C224.245 114.871 217.747 116.818 211.233 118.77C204.386 120.821 197.522 122.878 190.879 124.348C187.343 125.13 181.559 126.567 175.31 128.119C173.831 128.487 172.26 128.898 170.574 129.339C165.137 130.761 158.503 132.495 149.889 134.099C138.603 136.2 136.37 135.901 130.68 135.13C127.892 134.752 121.994 132.307 122.294 129.312C122.542 126.84 124.781 124.98 129.025 121.455C131.053 119.77 131.382 119.5 131.382 119.5C131.382 119.5 130.989 119.821 131.989 118.97ZM238.626 36.9059C255.167 28.8517 266.053 20.594 262.679 18.2942C260.174 16.5874 244.954 29.015 238.626 36.9059ZM191.046 194.772C187.285 187.115 224.239 166.185 237.71 165.023C237.71 165.023 237.111 169.516 232.499 174.021C231.946 174.561 231.792 174.955 231.524 175.246C230.957 175.862 230.171 177.209 226.814 180.063C223.894 182.547 221.895 183.643 218.665 185.908C216.487 187.436 214.154 188.934 211.031 190.665C205.099 193.954 192.975 198.196 191.046 194.772Z" fill="#17C1FB"/>
<path d="M601.838 147.473V142.441H602.198C603.875 142.441 605.432 142.281 606.87 141.962C608.387 141.562 609.625 140.764 610.583 139.566C611.542 138.368 612.021 136.531 612.021 134.055V96.6778C612.021 94.2019 611.542 92.4049 610.583 91.2868C609.705 90.0888 608.507 89.2901 606.989 88.8908C605.472 88.4915 603.875 88.2918 602.198 88.2918H601.838V83.2603H631.788V88.2918H631.429C629.831 88.2918 628.394 88.4915 627.116 88.8908C625.918 89.2901 624.959 90.0888 624.241 91.2868C623.602 92.4848 623.282 94.2818 623.282 96.6778V111.533H631.069L639.695 101.35C642.011 98.6345 643.488 96.558 644.127 95.1204C644.846 93.6828 645.205 92.4049 645.205 91.2868C645.205 90.1687 644.806 89.4099 644.007 89.0106C643.209 88.5314 641.931 88.2918 640.174 88.2918V83.2603H665.571V88.2918C663.654 88.2918 661.818 88.7311 660.06 89.6096C658.303 90.4083 656.546 91.6462 654.789 93.3234C653.032 94.9207 651.076 96.9573 648.919 99.4331L637.059 113.33L638.017 108.059L654.909 132.617C656.267 134.614 657.585 136.371 658.863 137.889C660.14 139.326 661.498 140.444 662.936 141.243C664.373 142.042 665.931 142.441 667.608 142.441H667.967V147.473H666.29C662.936 147.473 660.14 147.353 657.904 147.113C655.748 146.794 653.871 146.235 652.274 145.436C650.756 144.637 649.319 143.479 647.961 141.962C646.603 140.444 645.086 138.408 643.408 135.852L631.069 117.523H623.282V134.055C623.282 136.451 623.642 138.248 624.36 139.446C625.079 140.644 626.038 141.443 627.236 141.842C628.513 142.241 629.911 142.441 631.429 142.441H631.788V147.473H601.838Z" fill="#212121"/>
<path fill-rule="evenodd" clip-rule="evenodd" d="M502.51 148.671C496.2 148.671 490.849 147.433 486.457 144.957C482.144 142.401 478.869 138.648 476.633 133.696C475.28 130.7 474.336 127.266 473.802 123.393L485.507 116.505C485.581 121.874 486.137 126.486 487.175 130.342C488.294 134.495 490.09 137.649 492.566 139.806C495.122 141.882 498.436 142.92 502.51 142.92C506.663 142.92 509.977 141.882 512.453 139.806C514.929 137.649 516.726 134.495 517.844 130.342C518.343 128.489 518.73 126.462 519.006 124.261L531.504 120.668C531.047 125.673 529.928 130.015 528.147 133.696C525.751 138.648 522.356 142.401 517.964 144.957C513.651 147.433 508.5 148.671 502.51 148.671ZM531.174 106.817C530.633 103.088 529.704 99.7878 528.386 96.9176C526.15 91.9659 522.836 88.2521 518.443 85.7763C514.13 83.3004 508.819 82.0625 502.51 82.0625C496.6 82.0625 491.448 83.3004 487.056 85.7763C482.663 88.2521 479.269 91.9659 476.873 96.9176C475.64 99.4249 474.75 102.099 474.152 105.262C478.784 105.081 481.379 105.031 486.153 105.177C486.421 103.271 486.734 101.76 487.175 100.152C488.294 96.079 490.09 93.0041 492.566 90.9276C495.122 88.8511 498.436 87.8129 502.51 87.8129C506.663 87.8129 509.977 88.8511 512.453 90.9276C514.929 93.0041 516.726 96.079 517.844 100.152C518.851 103.82 519.404 108.266 519.505 113.489L531.174 106.817Z" fill="#212121"/>
<path fill-rule="evenodd" clip-rule="evenodd" d="M359.796 142.441V147.473H384.464C386.798 145.278 388.262 144.163 391.227 142.437C389.635 142.406 388.142 142.208 386.751 141.842C385.313 141.443 384.115 140.644 383.157 139.446C382.279 138.168 381.839 136.291 381.839 133.815V89.2502H390.105C391.942 89.2502 393.38 89.5697 394.418 90.2086C395.456 90.8475 396.255 91.9257 396.814 93.4432C397.453 94.8808 398.012 96.9573 398.491 99.6727L399.33 104.345H404.96L404.242 83.2603H348.176L347.457 104.345H353.087L353.926 99.6727C354.405 96.9573 354.924 94.8808 355.483 93.4432C356.122 91.9257 356.961 90.8475 357.999 90.2086C359.037 89.5697 360.475 89.2502 362.312 89.2502H370.578V133.815C370.578 136.291 370.099 138.168 369.141 139.446C368.262 140.644 367.064 141.443 365.547 141.842C364.109 142.241 362.512 142.441 360.755 142.441H359.796Z" fill="#212121"/>
<path d="M392.621 142.441H391.663C391.517 142.441 391.372 142.44 391.227 142.437C388.262 144.163 386.798 145.278 384.464 147.473H392.621V142.441Z" fill="#212121"/>
<path fill-rule="evenodd" clip-rule="evenodd" d="M248.846 149.549L248.192 151.034L256.722 147.053L275.061 97.6361C276.019 95.0804 276.898 93.1237 277.696 91.766C278.495 90.4083 279.374 89.4898 280.332 89.0106C281.37 88.5314 282.648 88.2918 284.166 88.2918H284.525V83.2603H259.846V88.2918H260.206C262.841 88.2918 264.798 88.771 266.076 89.7294C267.434 90.6079 268.113 92.0855 268.113 94.162C268.113 94.8009 268.033 95.5996 267.873 96.558C267.713 97.4365 267.434 98.3549 267.034 99.3133L258.529 122.674C258.049 124.112 257.49 125.629 256.851 127.227C256.292 128.824 255.653 130.541 254.935 132.378C254.614 133.299 254.264 134.29 253.883 135.351C253.446 134.138 252.998 132.948 252.539 131.779C251.74 129.543 250.941 127.426 250.143 125.43C249.344 123.353 248.585 121.476 247.866 119.799L239.121 98.4747C238.802 97.5962 238.562 96.7976 238.402 96.0788C238.243 95.36 238.163 94.6811 238.163 94.0422C238.163 92.0455 238.722 90.6079 239.84 89.7294C241.038 88.771 242.835 88.2918 245.231 88.2918H245.59V83.2603H216.839V88.2918H217.198C219.514 88.2918 221.231 88.7311 222.349 89.6096C223.467 90.4881 224.546 92.1653 225.584 94.6412L248.846 149.549Z" fill="#212121"/>
<path d="M224.506 167.359V168.557C224.506 169.42 224.567 170.221 224.691 170.96L229.343 167.046C228.897 167.006 228.442 166.951 227.98 166.88C226.942 166.8 225.823 166.64 224.625 166.401C224.546 166.72 224.506 167.04 224.506 167.359Z" fill="#212121"/>
<path d="M141.331 96.9174C141.331 94.963 141.357 93.7051 141.87 92.5447C137.564 94.6979 135.193 95.3998 131.409 96.5198C130.982 96.6461 130.538 96.7777 130.07 96.9174V103.327C134.341 101.606 136.797 100.575 141.331 98.5346V96.9174Z" fill="#212121"/>
<path fill-rule="evenodd" clip-rule="evenodd" d="M85.2654 146.275C86.4634 147.872 88.5399 148.671 91.4949 148.671C96.9258 148.671 101.199 145.196 104.313 138.248C107.428 131.3 109.345 120.957 110.064 107.22L111.022 89.2502H130.07V96.9174C130.538 96.7777 130.982 96.6461 131.409 96.5198C135.193 95.3998 137.564 94.6979 141.87 92.5447C142.029 92.1876 142.442 91.5687 142.649 91.2868C143.608 90.0888 144.806 89.2901 146.243 88.8908C147.761 88.4915 149.398 88.2918 151.155 88.2918H151.514V83.2603H93.5315V88.2918H96.5265C99.0822 88.2918 100.959 88.8109 102.157 89.8492C103.355 90.8875 103.954 92.8042 103.954 95.5996C103.954 96.4781 103.914 97.3566 103.834 98.2351C103.834 99.1137 103.794 99.9922 103.714 100.871C103.714 101.669 103.674 102.508 103.595 103.386C103.595 104.265 103.555 105.144 103.475 106.022C102.916 114.648 101.957 121.276 100.6 125.909C99.3218 130.461 97.6446 133.616 95.5681 135.373C93.4916 137.13 90.8959 138.008 87.7812 138.008C87.1422 138.008 86.4634 137.969 85.7446 137.889C85.1056 137.809 84.4268 137.729 83.708 137.649C83.6281 137.969 83.5482 138.408 83.4684 138.967V140.404C83.4684 142.721 84.0674 144.677 85.2654 146.275ZM141.331 107.22V98.5346C136.797 100.575 134.341 101.606 130.07 103.327V116.055L141.331 107.22Z" fill="#212121"/>
<path d="M56.5789 88.4155L61.6587 103.82H78.0972L64.7981 113.34L69.8779 128.745L56.5789 119.224L43.2798 128.745L48.3596 113.34L35.0605 103.82H51.4991L56.5789 88.4155Z" fill="#FFCD29"/>
<path d="M443.812 132.557L442.233 148.679L457.307 155.141L441.257 158.643L439.678 174.765L431.338 160.807L415.288 164.31L426.184 152.181L417.843 138.223L432.917 144.685L443.812 132.557Z" fill="#FFCD29"/>
<path d="M237.25 127.589L250.926 142.974L270.002 134.912L259.378 152.482L273.054 167.867L252.813 163.341L242.189 180.911L240.303 160.544L220.061 156.018L239.137 147.956L237.25 127.589Z" fill="#FFCD29"/>
<path d="M258.006 5.7741L265.123 13.7808L275.051 9.58525L269.522 18.7293L276.64 26.736L266.105 24.3806L260.576 33.5246L259.594 22.9248L249.06 20.5694L258.987 16.3738L258.006 5.7741Z" fill="#FFCD29"/>
<path d="M580.264 144.914L582.838 157.737L596.011 159.288L584.429 165.663L587.003 178.486L577.271 169.602L565.688 175.977L571.256 164.112L561.524 155.228L574.697 156.779L580.264 144.914Z" fill="#FFCD29"/>
</g>
<defs>
<clipPath id="clip0_1211_65159">
<rect width="750" height="230" fill="white"/>
</clipPath>
</defs>
</svg>
