<svg width="750" height="230" viewBox="0 0 750 230" fill="none" xmlns="http://www.w3.org/2000/svg">
<g clip-path="url(#clip0_1211_65369)">
<path d="M601.838 147.473V142.441H602.197C603.874 142.441 605.432 142.281 606.869 141.962C608.387 141.562 609.625 140.764 610.583 139.566C611.541 138.368 612.021 136.531 612.021 134.055V96.6778C612.021 94.2019 611.541 92.4049 610.583 91.2868C609.705 90.0888 608.507 89.2901 606.989 88.8908C605.472 88.4915 603.874 88.2918 602.197 88.2918H601.838V83.2603H631.788V88.2918H631.428C629.831 88.2918 628.393 88.4915 627.115 88.8908C625.917 89.2901 624.959 90.0888 624.24 91.2868C623.601 92.4848 623.282 94.2818 623.282 96.6778V111.533H631.069L639.694 101.35C642.01 98.6345 643.488 96.558 644.127 95.1204C644.846 93.6828 645.205 92.4049 645.205 91.2868C645.205 90.1687 644.806 89.4099 644.007 89.0106C643.208 88.5314 641.931 88.2918 640.173 88.2918V83.2603H665.571V88.2918C663.654 88.2918 661.817 88.7311 660.06 89.6096C658.303 90.4083 656.546 91.6462 654.789 93.3234C653.032 94.9207 651.075 96.9573 648.919 99.4331L637.059 113.33L638.017 108.059L654.909 132.617C656.266 134.614 657.584 136.371 658.862 137.889C660.14 139.326 661.498 140.444 662.935 141.243C664.373 142.042 665.93 142.441 667.607 142.441H667.967V147.473H666.29C662.935 147.473 660.14 147.353 657.904 147.113C655.747 146.794 653.871 146.235 652.273 145.436C650.756 144.637 649.318 143.479 647.96 141.962C646.603 140.444 645.085 138.408 643.408 135.852L631.069 117.523H623.282V134.055C623.282 136.451 623.641 138.248 624.36 139.446C625.079 140.644 626.037 141.443 627.235 141.842C628.513 142.241 629.911 142.441 631.428 142.441H631.788V147.473H601.838Z" fill="#212121"/>
<path d="M502.509 148.671C496.2 148.671 490.849 147.433 486.456 144.957C482.143 142.401 478.869 138.648 476.633 133.696C474.396 128.744 473.278 122.595 473.278 115.247C473.278 107.899 474.476 101.789 476.872 96.9176C479.268 91.9659 482.663 88.2521 487.055 85.7763C491.448 83.3004 496.599 82.0625 502.509 82.0625C508.819 82.0625 514.13 83.3004 518.443 85.7763C522.835 88.2521 526.15 91.9659 528.386 96.9176C530.622 101.789 531.74 107.899 531.74 115.247C531.74 122.595 530.542 128.744 528.146 133.696C525.75 138.648 522.356 142.401 517.963 144.957C513.651 147.433 508.499 148.671 502.509 148.671ZM502.509 142.92C506.662 142.92 509.977 141.882 512.453 139.806C514.928 137.649 516.725 134.495 517.844 130.342C518.962 126.188 519.521 121.157 519.521 115.247C519.521 109.257 518.962 104.225 517.844 100.152C516.725 96.079 514.928 93.0041 512.453 90.9276C509.977 88.8511 506.662 87.8129 502.509 87.8129C498.436 87.8129 495.122 88.8511 492.566 90.9276C490.09 93.0041 488.293 96.079 487.175 100.152C486.057 104.225 485.498 109.257 485.498 115.247C485.498 121.157 486.057 126.188 487.175 130.342C488.293 134.495 490.09 137.649 492.566 139.806C495.122 141.882 498.436 142.92 502.509 142.92Z" fill="#212121"/>
<path d="M359.796 147.473V142.441H360.754C362.511 142.441 364.109 142.241 365.546 141.842C367.064 141.443 368.262 140.644 369.14 139.446C370.099 138.168 370.578 136.291 370.578 133.815V89.2502H362.312C360.475 89.2502 359.037 89.5697 357.999 90.2086C356.961 90.8475 356.122 91.9257 355.483 93.4432C354.924 94.8808 354.405 96.9573 353.926 99.6727L353.087 104.345H347.457L348.175 83.2603H404.241L404.96 104.345H399.33L398.491 99.6727C398.012 96.9573 397.453 94.8808 396.814 93.4432C396.255 91.9257 395.456 90.8475 394.418 90.2086C393.38 89.5697 391.942 89.2502 390.105 89.2502H381.839V133.815C381.839 136.291 382.278 138.168 383.157 139.446C384.115 140.644 385.313 141.443 386.751 141.842C388.268 142.241 389.905 142.441 391.662 142.441H392.621V147.473H359.796Z" fill="#212121"/>
<path d="M233.37 177.422C231.294 177.422 229.577 177.063 228.219 176.344C226.941 175.625 225.983 174.587 225.344 173.229C224.785 171.952 224.505 170.394 224.505 168.557C224.505 168.158 224.505 167.759 224.505 167.359C224.505 167.04 224.545 166.72 224.625 166.401C225.823 166.64 226.941 166.8 227.979 166.88C229.018 167.04 230.016 167.12 230.974 167.12C234.728 167.12 237.843 166.041 240.319 163.885C242.795 161.729 245.151 158.055 247.387 152.864L251.34 143.879L249.184 150.348L225.583 94.6412C224.545 92.1653 223.467 90.4881 222.349 89.6096C221.231 88.7311 219.514 88.2918 217.198 88.2918H216.838V83.2603H245.59V88.2918H245.231C242.835 88.2918 241.038 88.771 239.84 89.7294C238.721 90.6079 238.162 92.0455 238.162 94.0422C238.162 94.6811 238.242 95.36 238.402 96.0788C238.562 96.7976 238.801 97.5962 239.121 98.4747L247.866 119.799C248.585 121.476 249.344 123.353 250.142 125.43C250.941 127.426 251.74 129.543 252.538 131.779C253.417 134.015 254.255 136.331 255.054 138.727H252.658C253.537 136.331 254.295 134.215 254.934 132.378C255.653 130.541 256.292 128.824 256.851 127.227C257.49 125.629 258.049 124.112 258.528 122.674L267.034 99.3133C267.433 98.3549 267.713 97.4365 267.873 96.558C268.032 95.5996 268.112 94.8009 268.112 94.162C268.112 92.0855 267.433 90.6079 266.076 89.7294C264.798 88.771 262.841 88.2918 260.205 88.2918H259.846V83.2603H284.525V88.2918H284.165C282.648 88.2918 281.37 88.5314 280.332 89.0106C279.373 89.4898 278.495 90.4083 277.696 91.766C276.897 93.1237 276.019 95.0804 275.06 97.6361L255.054 151.546C252.658 157.935 250.382 163.007 248.225 166.76C246.149 170.594 243.953 173.309 241.637 174.907C239.32 176.584 236.565 177.422 233.37 177.422Z" fill="#212121"/>
<path d="M91.4946 148.671C88.5395 148.671 86.463 147.872 85.265 146.275C84.067 144.677 83.468 142.721 83.468 140.404C83.468 139.925 83.468 139.446 83.468 138.967C83.5479 138.408 83.6278 137.969 83.7076 137.649C84.4264 137.729 85.1053 137.809 85.7442 137.889C86.463 137.969 87.1419 138.008 87.7808 138.008C90.8956 138.008 93.4912 137.13 95.5678 135.373C97.6443 133.616 99.3215 130.461 100.599 125.909C101.957 121.276 102.915 114.648 103.474 106.022C103.554 105.144 103.594 104.265 103.594 103.386C103.674 102.508 103.714 101.669 103.714 100.871C103.794 99.9922 103.834 99.1137 103.834 98.2351C103.914 97.3566 103.954 96.4781 103.954 95.5996C103.954 92.8042 103.355 90.8875 102.157 89.8492C100.959 88.8109 99.0819 88.2918 96.5261 88.2918H93.5312V83.2603H151.514V88.2918H151.155C149.397 88.2918 147.76 88.4915 146.243 88.8908C144.805 89.2901 143.607 90.0888 142.649 91.2868C141.77 92.4848 141.331 94.3616 141.331 96.9174V133.815C141.331 136.291 141.77 138.168 142.649 139.446C143.607 140.644 144.805 141.443 146.243 141.842C147.76 142.241 149.397 142.441 151.155 142.441H151.514V147.473H120.965V142.441H121.325C123.002 142.441 124.479 142.241 125.757 141.842C127.115 141.443 128.153 140.644 128.872 139.446C129.671 138.168 130.07 136.291 130.07 133.815V89.2502H111.022L110.063 107.22C109.345 120.957 107.428 131.3 104.313 138.248C101.198 145.196 96.9255 148.671 91.4946 148.671Z" fill="#212121"/>
<path fill-rule="evenodd" clip-rule="evenodd" d="M288.533 154.012C274.392 158.86 268.248 158.493 253.796 159.242C253.796 162.947 252.831 166.281 252.039 169.232C248.604 182.018 237.386 191.012 224.519 198.932C210.232 207.692 196.083 216.585 177.996 221.418C169.525 223.666 161.338 223.309 154.505 220.545C144.566 216.524 143.272 207.669 152.02 197.889C160.768 188.109 174.859 180.435 192.284 171.097C231.755 146.833 273.606 126.175 316.191 104.865C326.448 99.73 345.821 89.1341 345.821 85.3328C345.821 84.0426 336.476 86.1718 332.401 86.8094C286.885 93.7898 266.162 96.7367 221.537 104.708C183.302 109.876 179.308 111.049 157.596 113.097C133.052 115.413 108.326 116.654 83.6447 118.03C77.3256 118.366 73.296 119.373 71.5102 124.373C69.6328 129.575 71.5102 138.486 63.2222 140.683C53.2312 143.332 20.2512 148.889 13.9518 138.737C9.70423 131.89 29.9784 108.567 54.3388 108.902C73.5708 109.137 92.9401 110.479 111.943 109.171L114.119 109.021L114.119 109.021C158.18 105.983 227.652 94.7195 235.613 93.7417C282.934 87.9306 297.31 85.3328 347.42 79.225C354.655 78.1846 367.123 75.2664 368.575 77.0435C372.605 81.9768 368.758 83.5877 365.507 85.3328C339.864 99.0923 314.084 112.751 288.533 126.578C276.536 133.088 264.906 139.968 252.542 146.982C261.962 151.168 267.974 150.607 275.209 149.164C293.525 145.506 309.506 138.324 325.257 131.008C368.438 111.04 411.481 90.9372 454.157 70.4322C483.417 56.4043 510.957 42.7698 542.598 31.93C552.672 28.4733 571.65 22.8446 594.711 17.8535C633.383 9.48373 665.883 10.849 694.144 13.0616C722.405 15.2742 736.074 24.742 739.069 29.8335C739.676 30.8649 738.878 35.833 735.175 34.326C731.445 32.8077 724.41 28.1724 716.314 25.7707C700.182 20.985 685.363 20.0172 673.778 19.9501C654.61 19.9501 640.235 20.6408 622.299 22.8446C597.107 25.94 575.273 31.1675 553.247 38.6513C528.566 47.0412 504.664 56.2365 481.448 67.0763C451.776 80.9364 426.161 95.2231 396.443 109.016C373.823 119.487 337.063 132.654 323.884 139.196C310.705 145.738 302.675 149.164 288.533 154.012ZM177.034 211.819C171.31 213.565 159.636 216.724 159.222 210.108C158.942 205.639 174.79 194.335 183.674 187.992C196.312 178.965 210.095 170.776 223.511 162.352C226.121 160.708 229.235 159.231 232.486 158.493C240.179 156.748 244.895 159.835 242.56 165.406C240.362 170.675 237.41 176.631 233.265 180.475C217.643 194.959 199.334 204.906 177.034 211.819ZM45.6845 131.622C40.2812 132.797 26.9217 133.7 23.6135 131.89C24.3278 127.402 28.4039 123.11 34.3329 121.104C40.8809 118.89 47.3787 118.165 54.5678 117.997C59.0552 117.896 60.9327 122.192 58.1853 124.742C55.0257 127.662 50.4467 130.582 45.6845 131.622Z" fill="#DBFF00"/>
<path d="M601.838 147.472V142.44H602.197C603.875 142.44 605.432 142.28 606.87 141.961C608.387 141.561 609.625 140.763 610.583 139.565C611.542 138.367 612.021 136.53 612.021 134.054V96.6768C612.021 94.2009 611.542 92.4039 610.583 91.2858C609.705 90.0878 608.507 89.2892 606.989 88.8898C605.472 88.4905 603.875 88.2908 602.197 88.2908H601.838V83.2593H631.788V88.2908H631.428C629.831 88.2908 628.394 88.4905 627.116 88.8898C625.918 89.2892 624.959 90.0878 624.241 91.2858C623.602 92.4838 623.282 94.2808 623.282 96.6768V111.532H631.069L639.695 101.349C642.011 98.6335 643.488 96.557 644.127 95.1194C644.846 93.6818 645.205 92.4039 645.205 91.2858C645.205 90.1677 644.806 89.409 644.007 89.0096C643.209 88.5304 641.931 88.2908 640.174 88.2908V83.2593H665.571V88.2908C663.654 88.2908 661.817 88.7301 660.06 89.6086C658.303 90.4073 656.546 91.6452 654.789 93.3224C653.032 94.9197 651.075 96.9563 648.919 99.4322L637.059 113.329L638.017 108.058L654.909 132.616C656.267 134.613 657.585 136.37 658.862 137.888C660.14 139.325 661.498 140.443 662.936 141.242C664.373 142.041 665.931 142.44 667.608 142.44H667.967V147.472H666.29C662.936 147.472 660.14 147.352 657.904 147.112C655.748 146.793 653.871 146.234 652.273 145.435C650.756 144.636 649.318 143.478 647.961 141.961C646.603 140.443 645.086 138.407 643.408 135.851L631.069 117.522H623.282V134.054C623.282 136.45 623.641 138.247 624.36 139.445C625.079 140.643 626.038 141.442 627.235 141.841C628.513 142.24 629.911 142.44 631.428 142.44H631.788V147.472H601.838Z" fill="#212121"/>
<path d="M502.51 148.67C496.2 148.67 490.849 147.432 486.457 144.956C482.144 142.4 478.869 138.647 476.633 133.695C474.397 128.743 473.279 122.594 473.279 115.246C473.279 107.898 474.477 101.788 476.873 96.9166C479.269 91.9649 482.663 88.2511 487.056 85.7753C491.448 83.2994 496.6 82.0615 502.51 82.0615C508.819 82.0615 514.13 83.2994 518.443 85.7753C522.836 88.2511 526.15 91.9649 528.386 96.9166C530.623 101.788 531.741 107.898 531.741 115.246C531.741 122.594 530.543 128.743 528.147 133.695C525.751 138.647 522.356 142.4 517.964 144.956C513.651 147.432 508.5 148.67 502.51 148.67ZM502.51 142.919C506.663 142.919 509.977 141.881 512.453 139.805C514.929 137.648 516.726 134.494 517.844 130.341C518.962 126.188 519.521 121.156 519.521 115.246C519.521 109.256 518.962 104.224 517.844 100.151C516.726 96.078 514.929 93.0032 512.453 90.9266C509.977 88.8501 506.663 87.8119 502.51 87.8119C498.436 87.8119 495.122 88.8501 492.566 90.9266C490.09 93.0032 488.294 96.078 487.175 100.151C486.057 104.224 485.498 109.256 485.498 115.246C485.498 121.156 486.057 126.188 487.175 130.341C488.294 134.494 490.09 137.648 492.566 139.805C495.122 141.881 498.436 142.919 502.51 142.919Z" fill="#212121"/>
<path fill-rule="evenodd" clip-rule="evenodd" d="M359.796 142.44V147.472H392.621V142.44H391.663C389.906 142.44 388.268 142.24 386.751 141.841C385.313 141.442 384.115 140.643 383.157 139.445C382.279 138.167 381.839 136.29 381.839 133.814V89.2492H390.105C391.942 89.2492 393.38 89.5687 394.418 90.2076C394.911 90.511 395.35 90.9134 395.735 91.4148L404.398 87.8511L404.242 83.2593H348.176L347.457 104.344H353.087L353.926 99.6718C354.405 96.9563 354.924 94.8798 355.483 93.4422C356.122 91.9247 356.961 90.8466 357.999 90.2076C359.037 89.5687 360.475 89.2492 362.312 89.2492H370.578V133.814C370.578 136.29 370.099 138.167 369.141 139.445C368.262 140.643 367.064 141.442 365.547 141.841C364.109 142.24 362.512 142.44 360.755 142.44H359.796Z" fill="#212121"/>
<path fill-rule="evenodd" clip-rule="evenodd" d="M233.371 177.421C231.294 177.421 229.577 177.062 228.219 176.343C226.942 175.624 225.983 174.586 225.344 173.228C224.785 171.951 224.506 170.393 224.506 168.556V167.358C224.506 167.039 224.546 166.719 224.625 166.4C225.823 166.639 226.942 166.799 227.98 166.879C229.018 167.039 230.016 167.119 230.975 167.119C234.729 167.119 237.843 166.04 240.319 163.884C242.795 161.728 245.151 158.054 247.387 152.863L248.846 149.548L229.501 103.886L240.319 101.395L247.866 119.798C248.585 121.475 249.344 123.352 250.143 125.429C250.941 127.425 251.74 129.542 252.539 131.778C252.998 132.947 253.446 134.137 253.883 135.35C254.264 134.289 254.614 133.298 254.935 132.377C255.653 130.54 256.292 128.823 256.851 127.226C257.49 125.628 258.049 124.111 258.529 122.673L267.034 99.3124C267.273 98.739 267.469 98.1799 267.622 97.6352L275.665 96.0778C275.467 96.5695 275.266 97.0886 275.061 97.6352L255.054 151.545C252.658 157.934 250.382 163.006 248.226 166.759C246.149 170.593 243.953 173.308 241.637 174.906C239.321 176.583 236.565 177.421 233.371 177.421ZM284.525 85.7751V83.2593H259.846V88.2908H260.206C261.617 88.2908 262.833 88.4282 263.855 88.7028L284.525 85.7751ZM222.349 89.6086C223.085 90.187 223.804 91.1115 224.506 92.3822L238.476 91.765C238.751 90.906 239.205 90.2271 239.84 89.7284C241.038 88.77 242.835 88.2908 245.231 88.2908H245.59V83.2593H216.839V88.2908H217.198C219.514 88.2908 221.231 88.7301 222.349 89.6086Z" fill="#212121"/>
<path d="M91.4949 148.67C88.5399 148.67 86.4634 147.871 85.2654 146.274C84.0674 144.676 83.4684 142.72 83.4684 140.403C83.4684 139.924 83.4684 139.445 83.4684 138.966C83.5482 138.407 83.6281 137.968 83.708 137.648C84.4268 137.728 85.1056 137.808 85.7446 137.888C86.4634 137.968 87.1422 138.007 87.7812 138.007C90.8959 138.007 93.4916 137.129 95.5681 135.372C97.6446 133.615 99.3218 130.46 100.6 125.908C101.957 121.276 102.916 114.647 103.475 106.021C103.555 105.143 103.595 104.264 103.595 103.386C103.674 102.507 103.714 101.668 103.714 100.87C103.794 99.9912 103.834 99.1127 103.834 98.2342C103.914 97.3556 103.954 96.4771 103.954 95.5986C103.954 92.8033 103.355 90.8865 102.157 89.8482C100.959 88.81 99.0822 88.2908 96.5265 88.2908H93.5315V83.2593H151.514V88.2908H151.155C149.398 88.2908 147.761 88.4905 146.243 88.8898C144.806 89.2892 143.608 90.0878 142.649 91.2858C141.771 92.4838 141.331 94.3607 141.331 96.9164V133.814C141.331 136.29 141.771 138.167 142.649 139.445C143.608 140.643 144.806 141.442 146.243 141.841C147.761 142.24 149.398 142.44 151.155 142.44H151.514V147.472H120.966V142.44H121.325C123.002 142.44 124.48 142.24 125.757 141.841C127.115 141.442 128.153 140.643 128.872 139.445C129.671 138.167 130.07 136.29 130.07 133.814V89.2492H111.022L110.064 107.219C109.345 120.956 107.428 131.299 104.313 138.247C101.199 145.195 96.9258 148.67 91.4949 148.67Z" fill="#212121"/>
<path d="M578.741 -28.8758L585.859 -20.8691L595.787 -25.0647L590.258 -15.9206L597.375 -7.91392L586.841 -10.2693L581.312 -1.12532L580.33 -11.7251L569.795 -14.0805L579.723 -18.2761L578.741 -28.8758Z" fill="#FFCD29"/>
</g>
<defs>
<clipPath id="clip0_1211_65369">
<rect width="750" height="230" fill="white"/>
</clipPath>
</defs>
</svg>
