<svg width="1384" height="239" viewBox="0 0 1384 239" fill="none" xmlns="http://www.w3.org/2000/svg">
<path d="M283.499 62.1535C283.527 61.6431 283.616 61.1351 283.826 60.6318C284.305 59.6278 285.371 58.9541 286.489 58.4359C290.529 56.4996 295.603 56.6507 300.011 57.9007C316.453 62.4953 330.217 73.8894 345.055 81.2337C371.316 94.2004 396.64 107.692 423.346 120.267C445.398 130.611 467.564 141.061 495.596 145.043C509.162 146.965 520.641 148.344 531.583 140.902C536.112 137.808 546.715 136.44 554.123 137.043C566.108 138.032 578.438 140.416 589.45 143.669C626.285 154.704 663.118 165.79 699.815 177.126C722.241 184.006 744.807 190.533 766.82 198.317C783.671 204.258 799.686 211.086 816.713 216.062C823.975 218.193 828.213 209.461 821.232 206.625C816.082 204.578 810.122 202.959 805.372 201.337C780.908 193.046 762.275 173.478 757.935 151.46C799.531 158.49 841.188 165.522 883.366 169.711C992.931 180.627 1104.06 172.165 1213.95 180.435C1267.15 184.448 1373.3 214.259 1374.77 204.188C1375.34 198.43 1366.91 195.485 1361.35 194.291C1344.49 190.652 1325.45 184.931 1308.66 182.113C1289.72 178.953 1270.68 176.506 1251.55 174.567C1213.1 170.681 1174.36 168.932 1135.63 168.001C1057.93 166.132 980.048 167.528 902.566 161.728C858.402 158.433 814.375 152.687 771.61 142.746C763.488 140.836 755.197 138.715 748.611 134.207C734.391 124.483 731.236 107.27 720.032 95.5178C721.817 94.9751 700.212 85.3147 698.07 84.6665C682.495 79.6973 653.45 73.2701 645.906 81.615C633.979 94.7985 658.575 120.283 675.809 128.03C690.623 134.709 707.444 137.937 721.928 145.114C736.408 152.342 748.86 165.576 745.962 179.58C686.626 161.918 627.291 144.257 567.674 127.3C548.376 121.824 529.92 119.707 513.444 130.919C504.08 137.196 491.231 133.256 481.916 129.969C462.1 122.938 442.939 115.012 424.471 106.602C406.002 98.1922 388.114 89.1404 371.1 79.6119C362.123 74.5987 355.72 67.8976 347.869 62.213C343.739 59.2347 338.764 56.2228 334.276 54.2533C287.903 34.1414 242.103 39.5798 281.043 85.5881C268.7 81.2592 256.239 76.8744 245.286 70.4012C234.333 63.928 199.972 42.1463 190.315 39.5615C180.715 37.0302 171.469 33.5921 162.552 29.6556C144.36 21.7172 127.357 11.9844 109.231 3.94629C106.617 6.34878 106.527 10.1308 108.055 13.1077C109.644 16.087 112.603 18.3536 115.766 20.2191C118.929 22.0846 122.351 23.6534 125.321 25.7158C127.884 27.5061 130.176 29.7973 130.687 32.5801C130.779 33.0954 130.811 33.6082 130.423 34.0532C130.101 34.3985 129.61 34.5324 129.179 34.6686C120.261 37.2802 86.0288 34.8924 78.8303 33.7869C70.43 32.5312 62.0475 32.0435 53.55 31.4489C43.3075 30.6825 33.0706 29.814 22.794 29.6601C18.3211 29.5841 -27.8859 46.6702 68.7286 85.8717C94.9969 96.5365 116.322 113.399 139.238 127.767C149.584 134.267 157.799 142.115 166.381 148.8C176.172 158.757 146.323 154.805 135.458 152.172C113.792 146.857 93.174 139.027 71.7177 133.209C65.4012 131.474 58.4669 129.97 52.3022 132.026C52.5286 135.565 56.7641 137.729 60.4904 139.259C92.4921 152.352 126.505 163.018 161.946 165.403C169.541 165.911 178.455 165.55 183.037 160.412C186.972 156.016 186.121 149.587 182.691 144.898C178.083 138.575 169.729 134.303 162.966 129.736C154.741 124.241 146.318 119.046 137.835 113.847C109.867 96.7713 81.149 80.1257 53.2412 63.0519C49.0284 60.4796 36.9312 53.9096 40.9897 48.3929C42.1673 46.8028 44.2738 45.9148 46.3632 45.3331C55.3304 42.928 65.6545 45.4882 74.5781 47.1229C84.942 48.9685 95.1624 51.2176 105.601 52.8104C117.178 54.602 131.857 57.1824 143.137 53.4372C162.428 47.0953 179.82 49.835 195.678 57.3223C245.132 80.78 295.841 103.418 342.272 129.006C367.453 142.902 386.005 161.751 405.666 179.161C418.004 190.089 432.965 197.387 453.123 200.442C469.443 202.883 476.181 198.138 472.151 187.95C467.113 175.216 453.531 165.978 437.506 158.228C397.679 138.991 331.619 109.551 297.912 82.5261C291.194 77.1425 285.442 71.7974 283.893 63.7551C283.617 63.2837 283.528 62.7174 283.499 62.1535ZM713.859 117.269C716.148 122.886 709.669 128.408 703.068 126.354C695.158 123.891 687.594 120.673 680.56 116.607C672.296 111.827 657.772 104.29 662.075 94.3839C662.353 93.7299 662.755 93.0297 663.382 92.6454C664.008 92.2612 664.862 92.1417 665.652 92.0709C678.903 90.9621 693.302 96.3962 702.862 103.99C707.092 107.331 710.498 111.355 713.099 115.704C713.329 115.918 713.54 116.489 713.859 117.269ZM436.536 185.405C428.296 182.365 422.958 178.265 418.793 173.75C415.373 169.982 420.268 164.652 425.289 166.847C431.847 169.666 437.639 173.223 442.646 177.822C446.678 181.461 441.93 187.411 436.536 185.405Z" fill="#17C1FB"/>
</svg>
