<svg width="24" height="24" viewBox="0 0 24 24" fill="none" xmlns="http://www.w3.org/2000/svg">
<path d="M1.25 12C1.25 17.93 6.07 22.75 12 22.75C17.93 22.75 22.75 17.93 22.75 12C22.75 6.07 17.93 1.25 12 1.25C6.07 1.25 1.25 6.07 1.25 12ZM21.25 12C21.25 17.1 17.1 21.25 12 21.25C6.9 21.25 2.75 17.1 2.75 12C2.75 6.9 6.9 2.75 12 2.75C17.1 2.75 21.25 6.9 21.25 12Z" fill="#212121"/>
<path d="M11.25 9.5L11.25 15.5C11.25 15.91 11.59 16.25 12 16.25C12.41 16.25 12.75 15.91 12.75 15.5L12.75 9.5C12.75 9.09 12.41 8.75 12 8.75C11.59 8.75 11.25 9.09 11.25 9.5Z" fill="#212121"/>
<path d="M8.25006 11.5005C8.25006 11.6905 8.32006 11.8805 8.47006 12.0305C8.76006 12.3205 9.24006 12.3205 9.53006 12.0305L12.0001 9.56055L14.4701 12.0305C14.7601 12.3205 15.2401 12.3205 15.5301 12.0305C15.8201 11.7405 15.8201 11.2605 15.5301 10.9705L12.5301 7.97055C12.2401 7.68055 11.7601 7.68055 11.4701 7.97055L8.47006 10.9705C8.32006 11.1205 8.25006 11.3105 8.25006 11.5005Z" fill="#212121"/>
</svg>
