<svg width="24" height="24" viewBox="0 0 24 24" fill="none" xmlns="http://www.w3.org/2000/svg">
<path d="M1.25 12C1.25 17.93 6.07 22.75 12 22.75C17.93 22.75 22.75 17.93 22.75 12C22.75 6.07 17.93 1.25 12 1.25C6.07 1.25 1.25 6.07 1.25 12ZM21.25 12C21.25 17.1 17.1 21.25 12 21.25C6.9 21.25 2.75 17.1 2.75 12C2.75 6.9 6.9 2.75 12 2.75C17.1 2.75 21.25 6.9 21.25 12Z" fill="#212121"/>
<path d="M14.5 11.252H8.5C8.09 11.252 7.75 11.592 7.75 12.002C7.75 12.412 8.09 12.752 8.5 12.752H14.5C14.91 12.752 15.25 12.412 15.25 12.002C15.25 11.592 14.91 11.252 14.5 11.252Z" fill="#212121"/>
<path d="M12.4999 8.2525C12.3099 8.2525 12.1199 8.3225 11.9699 8.4725C11.6799 8.7625 11.6799 9.2425 11.9699 9.5325L14.4399 12.0025L11.9699 14.4725C11.6799 14.7625 11.6799 15.2425 11.9699 15.5325C12.2599 15.8225 12.7399 15.8225 13.0299 15.5325L16.0299 12.5325C16.3199 12.2425 16.3199 11.7625 16.0299 11.4725L13.0299 8.4725C12.8799 8.3225 12.6899 8.2525 12.4999 8.2525Z" fill="#212121"/>
</svg>
