<svg width="16" height="16" viewBox="0 0 16 16" fill="none" xmlns="http://www.w3.org/2000/svg">
<path d="M13 6.5C13 10.0899 10.0899 13 6.5 13C2.91015 13 0 10.0899 0 6.5C0 2.91015 2.91015 0 6.5 0C10.0899 0 13 2.91015 13 6.5ZM1.57481 6.5C1.57481 9.22011 3.77989 11.4252 6.5 11.4252C9.22011 11.4252 11.4252 9.22011 11.4252 6.5C11.4252 3.77989 9.22011 1.57481 6.5 1.57481C3.77989 1.57481 1.57481 3.77989 1.57481 6.5Z" fill="#A8A9A9"/>
<rect x="8.91699" y="11.4883" width="1.59682" height="5.46719" rx="0.79841" transform="rotate(-34.3917 8.91699 11.4883)" fill="#A8A9A9"/>
</svg>
