<svg width="750" height="230" viewBox="0 0 750 230" fill="none" xmlns="http://www.w3.org/2000/svg">
<path d="M601.838 147.473V142.441H602.197C603.874 142.441 605.432 142.281 606.869 141.962C608.387 141.562 609.625 140.764 610.583 139.566C611.542 138.368 612.021 136.531 612.021 134.055V96.6778C612.021 94.2019 611.542 92.4049 610.583 91.2868C609.705 90.0888 608.507 89.2901 606.989 88.8908C605.472 88.4915 603.874 88.2918 602.197 88.2918H601.838V83.2603H631.788V88.2918H631.428C629.831 88.2918 628.393 88.4915 627.116 88.8908C625.918 89.2901 624.959 90.0888 624.24 91.2868C623.601 92.4848 623.282 94.2818 623.282 96.6778V111.533H631.069L639.694 101.35C642.011 98.6345 643.488 96.558 644.127 95.1204C644.846 93.6828 645.205 92.4049 645.205 91.2868C645.205 90.1687 644.806 89.4099 644.007 89.0106C643.209 88.5314 641.931 88.2918 640.174 88.2918V83.2603H665.571V88.2918C663.654 88.2918 661.817 88.7311 660.06 89.6096C658.303 90.4083 656.546 91.6462 654.789 93.3234C653.032 94.9207 651.075 96.9573 648.919 99.4331L637.059 113.33L638.017 108.059L654.909 132.617C656.267 134.614 657.584 136.371 658.862 137.889C660.14 139.326 661.498 140.444 662.935 141.243C664.373 142.042 665.93 142.441 667.608 142.441H667.967V147.473H666.29C662.935 147.473 660.14 147.353 657.904 147.113C655.747 146.794 653.871 146.235 652.273 145.436C650.756 144.637 649.318 143.479 647.961 141.962C646.603 140.444 645.085 138.408 643.408 135.852L631.069 117.523H623.282V134.055C623.282 136.451 623.641 138.248 624.36 139.446C625.079 140.644 626.037 141.443 627.235 141.842C628.513 142.241 629.911 142.441 631.428 142.441H631.788V147.473H601.838Z" fill="#212121"/>
<path d="M502.509 148.671C496.2 148.671 490.849 147.433 486.456 144.957C482.143 142.401 478.869 138.648 476.633 133.696C474.396 128.744 473.278 122.595 473.278 115.247C473.278 107.899 474.476 101.789 476.872 96.9176C479.268 91.9659 482.663 88.2521 487.055 85.7763C491.448 83.3004 496.599 82.0625 502.509 82.0625C508.819 82.0625 514.13 83.3004 518.443 85.7763C522.835 88.2521 526.15 91.9659 528.386 96.9176C530.622 101.789 531.74 107.899 531.74 115.247C531.74 122.595 530.542 128.744 528.146 133.696C525.75 138.648 522.356 142.401 517.963 144.957C513.651 147.433 508.499 148.671 502.509 148.671ZM502.509 142.92C506.662 142.92 509.977 141.882 512.453 139.806C514.928 137.649 516.725 134.495 517.844 130.342C518.962 126.188 519.521 121.157 519.521 115.247C519.521 109.257 518.962 104.225 517.844 100.152C516.725 96.079 514.928 93.0041 512.453 90.9276C509.977 88.8511 506.662 87.8129 502.509 87.8129C498.436 87.8129 495.122 88.8511 492.566 90.9276C490.09 93.0041 488.293 96.079 487.175 100.152C486.057 104.225 485.498 109.257 485.498 115.247C485.498 121.157 486.057 126.188 487.175 130.342C488.293 134.495 490.09 137.649 492.566 139.806C495.122 141.882 498.436 142.92 502.509 142.92Z" fill="#212121"/>
<path d="M359.796 147.473V142.441H360.754C362.511 142.441 364.109 142.241 365.546 141.842C367.064 141.443 368.262 140.644 369.14 139.446C370.099 138.168 370.578 136.291 370.578 133.815V89.2502H362.312C360.475 89.2502 359.037 89.5697 357.999 90.2086C356.961 90.8475 356.122 91.9257 355.483 93.4432C354.924 94.8808 354.405 96.9573 353.926 99.6727L353.087 104.345H347.457L348.175 83.2603H404.241L404.96 104.345H399.33L398.491 99.6727C398.012 96.9573 397.453 94.8808 396.814 93.4432C396.255 91.9257 395.456 90.8475 394.418 90.2086C393.38 89.5697 391.942 89.2502 390.105 89.2502H381.839V133.815C381.839 136.291 382.278 138.168 383.157 139.446C384.115 140.644 385.313 141.443 386.751 141.842C388.268 142.241 389.905 142.441 391.662 142.441H392.621V147.473H359.796Z" fill="#212121"/>
<path d="M233.371 177.422C231.294 177.422 229.577 177.063 228.219 176.344C226.941 175.625 225.983 174.587 225.344 173.229C224.785 171.952 224.506 170.394 224.506 168.557C224.506 168.158 224.506 167.759 224.506 167.359C224.506 167.04 224.545 166.72 224.625 166.401C225.823 166.64 226.941 166.8 227.98 166.88C229.018 167.04 230.016 167.12 230.975 167.12C234.728 167.12 237.843 166.041 240.319 163.885C242.795 161.729 245.151 158.055 247.387 152.864L251.341 143.879L249.184 150.348L225.584 94.6412C224.545 92.1653 223.467 90.4881 222.349 89.6096C221.231 88.7311 219.514 88.2918 217.198 88.2918H216.838V83.2603H245.59V88.2918H245.231C242.835 88.2918 241.038 88.771 239.84 89.7294C238.722 90.6079 238.163 92.0455 238.163 94.0422C238.163 94.6811 238.242 95.36 238.402 96.0788C238.562 96.7976 238.802 97.5962 239.121 98.4747L247.866 119.799C248.585 121.476 249.344 123.353 250.143 125.43C250.941 127.426 251.74 129.543 252.539 131.779C253.417 134.015 254.256 136.331 255.054 138.727H252.658C253.537 136.331 254.296 134.215 254.934 132.378C255.653 130.541 256.292 128.824 256.851 127.227C257.49 125.629 258.049 124.112 258.528 122.674L267.034 99.3133C267.434 98.3549 267.713 97.4365 267.873 96.558C268.033 95.5996 268.112 94.8009 268.112 94.162C268.112 92.0855 267.434 90.6079 266.076 89.7294C264.798 88.771 262.841 88.2918 260.206 88.2918H259.846V83.2603H284.525V88.2918H284.165C282.648 88.2918 281.37 88.5314 280.332 89.0106C279.373 89.4898 278.495 90.4083 277.696 91.766C276.898 93.1237 276.019 95.0804 275.061 97.6361L255.054 151.546C252.658 157.935 250.382 163.007 248.226 166.76C246.149 170.594 243.953 173.309 241.637 174.907C239.321 176.584 236.565 177.422 233.371 177.422Z" fill="#212121"/>
<path d="M91.4948 148.671C88.5398 148.671 86.4632 147.872 85.2652 146.275C84.0673 144.677 83.4683 142.721 83.4683 140.404C83.4683 139.925 83.4683 139.446 83.4683 138.967C83.5481 138.408 83.628 137.969 83.7079 137.649C84.4267 137.729 85.1055 137.809 85.7444 137.889C86.4632 137.969 87.1421 138.008 87.781 138.008C90.8958 138.008 93.4915 137.13 95.568 135.373C97.6445 133.616 99.3217 130.461 100.6 125.909C101.957 121.276 102.916 114.648 103.475 106.022C103.555 105.144 103.595 104.265 103.595 103.386C103.674 102.508 103.714 101.669 103.714 100.871C103.794 99.9922 103.834 99.1137 103.834 98.2351C103.914 97.3566 103.954 96.4781 103.954 95.5996C103.954 92.8042 103.355 90.8875 102.157 89.8492C100.959 88.8109 99.0821 88.2918 96.5264 88.2918H93.5314V83.2603H151.514V88.2918H151.155C149.398 88.2918 147.76 88.4915 146.243 88.8908C144.805 89.2901 143.607 90.0888 142.649 91.2868C141.77 92.4848 141.331 94.3616 141.331 96.9174V133.815C141.331 136.291 141.77 138.168 142.649 139.446C143.607 140.644 144.805 141.443 146.243 141.842C147.76 142.241 149.398 142.441 151.155 142.441H151.514V147.473H120.965V142.441H121.325C123.002 142.441 124.479 142.241 125.757 141.842C127.115 141.443 128.153 140.644 128.872 139.446C129.671 138.168 130.07 136.291 130.07 133.815V89.2502H111.022L110.064 107.22C109.345 120.957 107.428 131.3 104.313 138.248C101.199 145.196 96.9257 148.671 91.4948 148.671Z" fill="#212121"/>
<path fill-rule="evenodd" clip-rule="evenodd" d="M27.4402 162.388C32.5968 166.273 42.1733 163.537 48.0204 161.105C70.4883 151.612 93.1403 142.357 115.194 132.358C149.356 116.852 183.406 98.0205 217.338 82.2789C222.092 80.0735 232.923 77.729 232.923 84.4931C232.923 89.8028 205.399 109.466 192.369 121.492C179.478 133.349 162.324 143.831 149.432 156.025C174.11 150.891 197.408 140.055 219.508 131.374C221.402 130.63 222.054 132.49 222.054 133.168C222.054 135.839 220.443 137.661 218.555 139.147C213.03 143.539 206.585 147.289 201.198 151.748C197.791 154.585 190.244 164.457 188.293 168.953C189.491 171.747 215.563 165.226 225.461 163.064C281.953 150.7 264.231 155.102 320.631 142.468C325.971 141.286 331.358 140.104 336.791 139.124C357.548 135.425 371.092 124.558 384.714 113.628L385.272 113.181C390.704 108.823 396.644 104.601 403.274 101.29C410.594 97.608 418.743 98.4863 422.749 102.135C426.985 105.986 426.156 113.248 419.204 117.133C410.438 123.278 401.11 127.47 390.843 129.632C355.717 134.418 333.792 156.468 322.314 166.216C316.678 171.003 314.426 175.84 313.183 177.901C312.684 178.727 312.057 180.577 312.481 182.904C314.047 188.018 328.78 189.018 338.586 187.261C359.351 183.545 376.248 174.458 393.835 166.216C432.924 147.907 469.204 126.794 505.254 105.479C508.384 103.621 514.864 101.583 515.344 99.7316C515.952 97.3896 509.654 97.0362 506.955 95.0006C502.828 91.8878 501.11 86.6632 502.261 81.9339C504.563 72.6443 512.39 65.5166 520.355 58.8619C533.171 48.1337 546.998 38.0238 560.789 27.9407L562.666 26.5678C570.862 20.5887 586.792 18.5957 593.652 22.075C600.834 25.6895 603.505 36.8033 596.921 44.9106C590.751 52.4774 582.326 59.1322 574.315 65.7869C566.396 72.3741 557.74 78.4545 549.361 84.7715C547.947 86.0709 548.847 87.6002 551.387 86.9334C556.405 85.616 564.162 82.6603 571.949 80.5638C583.247 77.5222 593.776 74.1942 598.119 80.5638C602.462 86.9334 565.596 137.97 572.548 146.753C576.462 151.685 584.026 153.578 589.919 153.105C607.59 151.351 616.275 150.347 628.854 148.55L658.958 143.446C674.842 140.474 686.03 133.616 696.665 125.475C700.533 122.502 704.17 119.395 708.13 116.489C710.247 114.902 712.596 113.348 715.174 112.199C722.955 108.754 736.675 109.193 739.069 113.247C742.706 119.428 736.767 123.482 730.874 126.151C718.857 131.589 706.564 136.96 693.581 140.913C685.293 143.446 678.341 146.419 672.494 151.351C668.166 154.999 662.826 157.972 658.175 161.417C652.617 165.536 644.791 169.527 648.507 176.112C650.754 180.095 666.601 177.497 674.704 174.49C686.643 170.045 698.145 165.053 709.678 160.048L709.679 160.047L710.57 159.661C714.253 158.073 722.172 156.654 722.172 160.776C722.172 162.979 714.85 165.956 707.853 168.241C696.803 172.801 685.754 177.463 674.105 181.145C667.337 183.273 659.418 184.76 652.144 184.489C637.964 183.915 632.991 175.774 641.048 167.025C645.744 161.924 651.822 157.499 658.682 151.554L595.033 158.645C590.521 159.085 585.917 159.22 581.313 159.253C576.709 159.287 568.779 161.417 562.666 153.105C551.387 137.768 596.909 88.0233 591.218 83.8594C587.924 81.4487 545.217 97.1689 526.386 101.56C523.21 102.304 520.769 104.634 517.961 106.256C488.679 123.011 459.766 140.104 430.023 156.386C414.164 163.833 400.282 169.222 384.352 177.228C377.63 180.606 363.647 187.539 352.118 190.622C338.206 194.343 308.691 199.165 298.269 190.622C290.122 182.904 320.17 157.94 342.776 144.867C342.615 143.742 340.371 143.328 334.789 144.486C306.295 150.396 300.295 152.066 283.813 155.951C267.33 159.836 261.373 162.591 244.522 165.429C236.005 166.881 232.693 168.11 228.083 168.953C219.508 170.521 218.417 171.043 210.195 171.929C199.786 171.929 181.128 177.773 180.006 175.563C177.774 171.165 179.29 162.287 184.88 153.476C172.324 158.812 159.138 163.064 146.84 166.72C146.84 166.72 124.126 171.716 118.509 171.929C112.892 172.143 120.857 165.342 124.126 162.674C147.008 144.162 171.179 128.574 193.969 109.995C195.397 108.846 200.875 104.213 199.786 102.13C197.521 101.236 142.864 126.514 118.509 139.418C93.969 152.423 67.8695 162.643 41.7811 173.94C33.2101 176.846 26.8848 177.706 17.9758 175.563C5.04558 172.452 18.6925 150.971 32.5968 141.951C50.8289 130.061 68.8308 117.933 86.7407 105.772C90.2858 103.374 97.4222 99.526 97.4222 96.5166C97.4222 92.0846 89.6873 93.8479 87.4313 94.2871C75.7369 96.6179 64.1807 99.3879 52.6245 102.124C46.6392 103.543 33.5492 108.828 32.8269 103.543C32.4813 101.014 36.4643 98.7798 38.9965 97.6989C55.7677 92.1675 73.3679 88.1623 92.1065 85.8652C98.6903 85.0545 104.604 84.5583 107.827 89.1862C111.05 93.8817 110.682 98.8474 105.801 102.8C100 107.461 93.5087 111.718 87.063 115.974C70.3963 126.953 53.5914 137.796 36.9246 148.775C31.6299 152.322 23.8632 158.685 27.4402 162.388ZM578.09 28.3244C584.49 26.6354 589.14 29.5743 589.508 37.0398C589.508 42.1084 584.306 46.5004 578.985 50.9926C578.982 50.9949 578.979 50.9972 578.976 50.9994C578.973 51.0025 578.969 51.0056 578.965 51.0087C578.674 51.2545 578.383 51.5005 578.092 51.747C577.938 51.8777 577.784 52.0086 577.63 52.1396C566.883 61.3198 555.401 69.9836 543.902 78.6593C541.608 80.3908 539.312 82.1227 537.022 83.8594C529.471 89.6021 519.434 92.0342 515.659 88.8251C509.753 83.7797 514.013 78.8478 517.637 74.6531C517.968 74.2699 518.293 73.8929 518.605 73.5226C523.9 67.2394 530.53 61.4968 537.206 55.923C545.862 48.6264 554.886 41.5326 564.278 34.7765C568.099 32.0065 573.072 29.6418 578.09 28.3244ZM415.843 108.08C417.109 111.496 400.603 120.173 387.159 121.93C388.132 120.999 389.061 120.072 389.971 119.165C396.556 112.599 414.414 104.224 415.843 108.08ZM708.774 126.016C711.883 121.287 724.094 116.489 725.533 119.935C726.576 122.432 717.653 125.667 713.107 127.316C712.173 127.654 711.425 127.925 710.984 128.11C708.397 129.194 707.938 127.285 708.676 126.165L708.774 126.016Z" fill="#91BC73"/>
<path d="M601.838 147.472V142.44H602.197C603.874 142.44 605.432 142.28 606.869 141.961C608.387 141.561 609.625 140.763 610.583 139.565C611.542 138.367 612.021 136.53 612.021 134.054V96.6768C612.021 94.2009 611.542 92.4039 610.583 91.2858C609.705 90.0878 608.507 89.2892 606.989 88.8898C605.472 88.4905 603.874 88.2908 602.197 88.2908H601.838V83.2593H631.788V88.2908H631.428C629.831 88.2908 628.393 88.4905 627.116 88.8898C625.918 89.2892 624.959 90.0878 624.24 91.2858C623.601 92.4838 623.282 94.2808 623.282 96.6768V111.532H631.069L639.694 101.349C642.011 98.6335 643.488 96.557 644.127 95.1194C644.846 93.6818 645.205 92.4039 645.205 91.2858C645.205 90.1677 644.806 89.409 644.007 89.0096C643.209 88.5304 641.931 88.2908 640.174 88.2908V83.2593H665.571V88.2908C663.654 88.2908 661.817 88.7301 660.06 89.6086C658.303 90.4073 656.546 91.6452 654.789 93.3224C653.032 94.9197 651.075 96.9563 648.919 99.4322L637.059 113.329L638.017 108.058L654.909 132.616C656.267 134.613 657.584 136.37 658.862 137.888C660.14 139.325 661.498 140.443 662.935 141.242C664.373 142.041 665.93 142.44 667.608 142.44H667.967V147.472H666.29C662.935 147.472 660.14 147.352 657.904 147.112C655.747 146.793 653.871 146.234 652.273 145.435C650.756 144.636 649.318 143.478 647.961 141.961C646.603 140.443 645.085 138.407 643.408 135.851L631.069 117.522H623.282V134.054C623.282 136.45 623.641 138.247 624.36 139.445C625.079 140.643 626.037 141.442 627.235 141.841C628.513 142.24 629.911 142.44 631.428 142.44H631.788V147.472H601.838Z" fill="#212121"/>
<path d="M85.2652 146.274C86.4632 147.871 88.5398 148.67 91.4948 148.67C96.9257 148.67 101.199 145.195 104.313 138.247C105.807 134.915 107.025 130.802 107.968 125.908H100.6C99.3217 130.46 97.6445 133.615 95.568 135.372C93.4915 137.129 90.8958 138.007 87.781 138.007C87.1421 138.007 86.4632 137.968 85.7444 137.888C85.1055 137.808 84.4267 137.728 83.7079 137.648C83.628 137.968 83.5481 138.407 83.4683 138.966V140.403C83.4683 142.72 84.0673 144.676 85.2652 146.274Z" fill="#212121"/>
<path d="M103.595 103.386C103.595 104.264 103.555 105.143 103.475 106.021L110.064 107.219L111.022 89.2492V83.2593H93.5314V88.2908H96.5264C99.0821 88.2908 100.959 88.81 102.157 89.8482C103.355 90.8865 103.954 92.8033 103.954 95.5986C103.954 96.4771 103.914 97.3556 103.834 98.2342C103.834 99.1127 103.794 99.9912 103.714 100.87C103.714 101.668 103.674 102.507 103.595 103.386Z" fill="#212121"/>
<path fill-rule="evenodd" clip-rule="evenodd" d="M228.219 176.343C229.577 177.062 231.294 177.421 233.371 177.421C236.565 177.421 239.321 176.583 241.637 174.906C243.953 173.308 246.149 170.593 248.226 166.759C250.382 163.006 252.658 157.934 255.054 151.545L247.387 152.863C245.151 158.054 242.795 161.728 240.319 163.884C237.843 166.04 234.728 167.119 230.975 167.119C230.016 167.119 229.018 167.039 227.98 166.879C226.941 166.799 225.823 166.639 224.625 166.4C224.545 166.719 224.506 167.039 224.506 167.358V168.556C224.506 170.393 224.785 171.951 225.344 173.228C225.983 174.586 226.941 175.624 228.219 176.343ZM253.883 135.35C253.837 135.48 253.79 135.61 253.743 135.742C253.404 136.683 253.043 137.678 252.658 138.726H255.054C254.673 137.583 254.283 136.457 253.883 135.35ZM248.846 149.548L249.184 150.347L251.341 143.878L248.846 149.548Z" fill="#212121"/>
<path fill-rule="evenodd" clip-rule="evenodd" d="M404.961 104.344L404.242 83.2593L396.814 93.4422C397.453 94.8798 398.012 96.9563 398.491 99.6718L399.33 104.344H404.961Z" fill="#212121"/>
<path fill-rule="evenodd" clip-rule="evenodd" d="M473.279 115.246C473.279 122.594 474.397 128.743 476.633 133.695L487.176 130.341C486.057 126.188 485.498 121.156 485.498 115.246H473.279Z" fill="#212121"/>
<path d="M231.692 106.336C244.339 114.42 264.85 136.808 245.724 161.69" stroke="#41721E" stroke-width="6.12265" stroke-linecap="round"/>
<path d="M227.052 94.5515C226.18 98.1165 230.894 107.205 230.894 107.205C230.894 107.205 239.291 101.235 240.163 97.6703C241.034 94.1053 238.806 90.5172 235.186 89.6559C231.565 88.7947 227.924 90.9865 227.052 94.5515Z" fill="#41721E"/>
<path d="M238.802 105.663C237.931 109.228 242.645 118.317 242.645 118.317C242.645 118.317 251.041 112.347 251.913 108.782C252.785 105.217 250.557 101.628 246.936 100.767C243.316 99.906 239.674 102.098 238.802 105.663Z" fill="#41721E"/>
<path d="M248.862 119.363C247.99 122.927 252.704 132.016 252.704 132.016C252.704 132.016 261.1 126.046 261.972 122.481C262.844 118.916 260.616 115.328 256.995 114.467C253.375 113.606 249.733 115.798 248.862 119.363Z" fill="#41721E"/>
<path d="M258.942 141.086C255.859 143.14 253.126 152.983 253.126 152.983C253.126 152.983 263.416 154.147 266.499 152.093C269.581 150.039 270.389 145.91 268.302 142.87C266.215 139.831 262.024 139.032 258.942 141.086Z" fill="#41721E"/>
<path d="M220.422 101.713C223.994 100.684 233.434 104.885 233.434 104.885C233.434 104.885 227.787 113.436 224.215 114.466C220.643 115.496 216.898 113.476 215.851 109.955C214.804 106.433 216.85 102.743 220.422 101.713Z" fill="#41721E"/>
<path d="M232.171 112.826C235.743 111.796 245.183 115.998 245.183 115.998C245.183 115.998 239.536 124.549 235.964 125.579C232.392 126.609 228.647 124.589 227.6 121.067C226.553 117.546 228.599 113.856 232.171 112.826Z" fill="#41721E"/>
<path d="M242.231 126.527C245.803 125.497 255.243 129.698 255.243 129.698C255.243 129.698 249.596 138.25 246.024 139.28C242.452 140.31 238.708 138.29 237.66 134.768C236.613 131.246 238.659 127.557 242.231 126.527Z" fill="#41721E"/>
<path d="M245.81 142.976C249.501 143.459 256.414 151.061 256.414 151.061C256.414 151.061 247.735 156.622 244.043 156.139C240.352 155.656 237.755 152.318 238.243 148.683C238.73 145.048 242.118 142.493 245.81 142.976Z" fill="#41721E"/>
<path d="M238.799 158.517C241.727 156.253 252.074 156.699 252.074 156.699C252.074 156.699 250.054 166.707 247.126 168.97C244.198 171.234 239.961 170.729 237.661 167.843C235.362 164.956 235.871 160.781 238.799 158.517Z" fill="#41721E"/>
<path d="M251.129 164.333C249.078 161.271 250.371 151.147 250.371 151.147C250.371 151.147 260.327 153.96 262.377 157.023C264.428 160.086 263.573 164.205 260.466 166.224C257.36 168.242 253.179 167.396 251.129 164.333Z" fill="#41721E"/>
<path d="M225.497 91.4878C228.331 93.8682 229.946 103.948 229.946 103.948C229.946 103.948 219.59 103.973 216.756 101.593C213.922 99.2124 213.581 95.0206 215.995 92.2303C218.409 89.4399 222.663 89.1075 225.497 91.4878Z" fill="#41721E"/>
<path d="M448.865 106.422C461.527 102.459 487.457 101.092 489.886 127.333" stroke="#41721E" stroke-width="5.62669" stroke-linecap="round"/>
<path d="M437.939 102.026C439.805 104.849 448.941 107.473 448.941 107.473C448.941 107.473 450.193 98.1752 448.326 95.3527C446.46 92.5302 442.621 91.7361 439.753 93.5789C436.885 95.4218 436.072 99.2038 437.939 102.026Z" fill="#41721E"/>
<path d="M452.888 101.298C454.755 104.121 463.891 106.745 463.891 106.745C463.891 106.745 465.142 97.4471 463.276 94.6247C461.41 91.8022 457.571 91.0081 454.703 92.8509C451.834 94.6938 451.022 98.4757 452.888 101.298Z" fill="#41721E"/>
<path d="M468.526 103.316C470.392 106.138 479.528 108.763 479.528 108.763C479.528 108.763 480.78 99.4647 478.913 96.6422C477.047 93.8198 473.208 93.0257 470.34 94.8685C467.471 96.7113 466.659 100.493 468.526 103.316Z" fill="#41721E"/>
<path d="M438.622 110.913C440.178 107.909 448.978 104.332 448.978 104.332C448.978 104.332 451.206 113.447 449.65 116.451C448.094 119.456 444.363 120.652 441.318 119.123C438.273 117.593 437.066 113.918 438.622 110.913Z" fill="#41721E"/>
<path d="M453.571 110.185C455.127 107.181 463.928 103.604 463.928 103.604C463.928 103.604 466.155 112.719 464.599 115.723C463.043 118.728 459.313 119.924 456.268 118.394C453.222 116.865 452.015 113.19 453.571 110.185Z" fill="#41721E"/>
<path d="M469.209 112.204C470.765 109.199 479.566 105.622 479.566 105.622C479.566 105.622 481.793 114.737 480.237 117.742C478.681 120.746 474.951 121.942 471.905 120.413C468.86 118.884 467.653 115.208 469.209 112.204Z" fill="#41721E"/>
<path d="M434.885 101.12C438.288 100.753 446.141 106.04 446.141 106.04C446.141 106.04 439.62 112.877 436.217 113.244C432.814 113.611 429.757 111.195 429.39 107.847C429.022 104.499 431.483 101.487 434.885 101.12Z" fill="#41721E"/>
<path d="M521.569 89.6465C506.305 95.4663 479.596 115.169 494.098 145.876" stroke="#41721E" stroke-width="6.65824" stroke-linecap="square"/>
<path d="M529.243 78.1824C529.342 82.1613 522.193 90.7825 522.193 90.7825C522.193 90.7825 514.629 82.596 514.531 78.6171C514.432 74.6382 517.646 71.3153 521.709 71.1952C525.772 71.0752 529.145 74.2034 529.243 78.1824Z" fill="#41721E"/>
<path d="M514.194 87.385C514.292 91.364 507.143 99.9851 507.143 99.9851C507.143 99.9851 499.579 91.7987 499.481 87.8197C499.382 83.8408 502.596 80.5179 506.659 80.3979C510.722 80.2778 514.095 83.4061 514.194 87.385Z" fill="#41721E"/>
<path d="M500.348 99.7156C500.447 103.695 493.298 112.316 493.298 112.316C493.298 112.316 485.734 104.129 485.636 100.15C485.537 96.1714 488.751 92.8485 492.814 92.7284C496.877 92.6084 500.25 95.7367 500.348 99.7156Z" fill="#41721E"/>
<path d="M485.487 122.523C489 124.485 492.782 134.929 492.782 134.929C492.782 134.929 481.724 137.084 478.211 135.122C474.698 133.16 473.479 128.748 475.488 125.269C477.497 121.79 481.974 120.561 485.487 122.523Z" fill="#41721E"/>
<path d="M534.631 87.2745C531.074 85.3896 520.067 87.7857 520.067 87.7857C520.067 87.7857 524.083 98.1437 527.639 100.029C531.196 101.913 535.644 100.586 537.574 97.0644C539.505 93.5425 538.187 89.1594 534.631 87.2745Z" fill="#41721E"/>
<path d="M519.582 96.4757C516.026 94.5908 505.018 96.9868 505.018 96.9868C505.018 96.9868 509.034 107.345 512.59 109.23C516.147 111.115 520.595 109.787 522.526 106.266C524.456 102.744 523.138 98.3606 519.582 96.4757Z" fill="#41721E"/>
<path d="M505.737 108.808C502.181 106.923 491.174 109.319 491.174 109.319C491.174 109.319 495.189 119.677 498.746 121.562C502.302 123.447 506.75 122.12 508.681 118.598C510.612 115.076 509.294 110.693 505.737 108.808Z" fill="#41721E"/>
<path d="M498.683 124.684C494.655 124.385 485.558 130.98 485.558 130.98C485.558 130.98 493.475 138.839 497.503 139.138C501.53 139.437 505.06 136.444 505.385 132.452C505.711 128.461 502.71 124.983 498.683 124.684Z" fill="#41721E"/>
<path d="M504.883 145.838C501.654 143.45 490.412 144.197 490.412 144.197C490.412 144.197 492.812 155.035 496.042 157.424C499.272 159.812 503.869 159.155 506.31 155.956C508.752 152.757 508.113 148.227 504.883 145.838Z" fill="#41721E"/>
<path d="M531.588 75.2983C528.021 77.2059 523.96 87.5666 523.96 87.5666C523.96 87.5666 534.968 89.8694 538.535 87.9618C542.102 86.0542 543.438 81.673 541.52 78.1761C539.601 74.6791 535.155 73.3907 531.588 75.2983Z" fill="#41721E"/>
<path d="M659.13 82.3281C654.385 94.6743 641.653 102.015 642.446 126.201" stroke="#41721E" stroke-width="5.4477" stroke-linecap="round"/>
<path d="M668.766 76.2011C665.448 76.1026 658.293 81.779 658.293 81.779C658.293 81.779 665.155 87.8713 668.474 87.9697C671.792 88.0681 674.547 85.5134 674.628 82.2636C674.709 79.0138 672.084 76.2995 668.766 76.2011Z" fill="#41721E"/>
<path d="M661.123 88.3309C657.805 88.2325 650.651 93.9089 650.651 93.9089C650.651 93.9089 657.513 100.001 660.831 100.1C664.149 100.198 666.905 97.6433 666.986 94.3935C667.066 91.1437 664.442 88.4294 661.123 88.3309Z" fill="#41721E"/>
<path d="M653.818 100.487C650.499 100.388 643.345 106.065 643.345 106.065C643.345 106.065 650.207 112.157 653.525 112.255C656.844 112.354 659.599 109.799 659.68 106.549C659.761 103.299 657.136 100.585 653.818 100.487Z" fill="#41721E"/>
<path d="M647.542 116.695C644.387 117.664 639.534 125.367 639.534 125.367C639.534 125.367 648.005 128.977 651.16 128.008C654.314 127.039 656.062 123.721 655.063 120.597C654.064 117.473 650.696 115.726 647.542 116.695Z" fill="#41721E"/>
<path d="M661.204 71.8194C662.782 74.6984 660.85 83.5679 660.85 83.5679C660.85 83.5679 652.254 80.2763 650.676 77.3974C649.098 74.5184 650.176 70.9359 653.083 69.3956C655.99 67.8553 659.626 68.9405 661.204 71.8194Z" fill="#41721E"/>
<path d="M645.849 95.3419C647.427 98.2208 645.496 107.09 645.496 107.09C645.496 107.09 636.899 103.799 635.322 100.92C633.744 98.0409 634.822 94.4584 637.729 92.9181C640.636 91.3778 644.272 92.4629 645.849 95.3419Z" fill="#41721E"/>
<path d="M638.79 111.021C641.495 112.919 643.744 121.728 643.744 121.728C643.744 121.728 634.569 122.519 631.864 120.62C629.16 118.722 628.518 115.034 630.43 112.383C632.343 109.732 636.086 109.122 638.79 111.021Z" fill="#41721E"/>
<path d="M634.418 125.766C636.779 123.489 645.976 122.919 645.976 122.919C645.976 122.919 645.197 131.966 642.835 134.243C640.474 136.519 636.675 136.467 634.35 134.126C632.026 131.785 632.056 128.042 634.418 125.766Z" fill="#41721E"/>
<path d="M671.211 74.2886C669.639 77.1524 661.031 80.3714 661.031 80.3714C661.031 80.3714 659.061 71.4935 660.632 68.6297C662.204 65.7659 665.846 64.7111 668.767 66.2738C671.688 67.8365 672.782 71.4248 671.211 74.2886Z" fill="#41721E"/>
<path d="M642.12 72.1978C644.486 82.7525 644.057 78.0511 651.094 94.7465" stroke="#41721E" stroke-width="5.4477" stroke-linecap="round"/>
<path d="M633.888 64.3567C637.148 64.8748 643.045 71.825 643.045 71.825C643.045 71.825 635.168 76.5869 631.907 76.0689C628.647 75.5508 626.447 72.509 626.994 69.2748C627.54 66.0406 630.627 63.8387 633.888 64.3567Z" fill="#41721E"/>
<path d="M639.07 77.6912C642.331 78.2093 648.227 85.1595 648.227 85.1595C648.227 85.1595 640.351 89.9214 637.09 89.4034C633.829 88.8853 631.629 85.8435 632.176 82.6093C632.723 79.375 635.81 77.1731 639.07 77.6912Z" fill="#41721E"/>
<path d="M642.141 61.5076C640.041 64.0442 640.234 73.1185 640.234 73.1185C640.234 73.1185 649.3 71.478 651.401 68.9415C653.502 66.4049 653.132 62.6845 650.575 60.6317C648.018 58.5789 644.242 58.9711 642.141 61.5076Z" fill="#41721E"/>
</svg>
