<svg width="750" height="230" viewBox="0 0 750 230" fill="none" xmlns="http://www.w3.org/2000/svg">
<path d="M601.838 147.473V142.441H602.197C603.874 142.441 605.432 142.281 606.869 141.962C608.387 141.562 609.625 140.764 610.583 139.566C611.541 138.368 612.021 136.531 612.021 134.055V96.6778C612.021 94.2019 611.541 92.4049 610.583 91.2868C609.704 90.0888 608.507 89.2901 606.989 88.8908C605.472 88.4915 603.874 88.2918 602.197 88.2918H601.838V83.2603H631.787V88.2918H631.428C629.831 88.2918 628.393 88.4915 627.115 88.8908C625.917 89.2901 624.959 90.0888 624.24 91.2868C623.601 92.4848 623.282 94.2818 623.282 96.6778V111.533H631.069L639.694 101.35C642.01 98.6345 643.488 96.558 644.127 95.1204C644.846 93.6828 645.205 92.4049 645.205 91.2868C645.205 90.1687 644.806 89.4099 644.007 89.0106C643.208 88.5314 641.93 88.2918 640.173 88.2918V83.2603H665.571V88.2918C663.654 88.2918 661.817 88.7311 660.06 89.6096C658.303 90.4083 656.546 91.6462 654.789 93.3234C653.032 94.9207 651.075 96.9573 648.919 99.4331L637.059 113.33L638.017 108.059L654.909 132.617C656.266 134.614 657.584 136.371 658.862 137.889C660.14 139.326 661.498 140.444 662.935 141.243C664.373 142.042 665.93 142.441 667.607 142.441H667.967V147.473H666.29C662.935 147.473 660.14 147.353 657.904 147.113C655.747 146.794 653.87 146.235 652.273 145.436C650.756 144.637 649.318 143.479 647.96 141.962C646.603 140.444 645.085 138.408 643.408 135.852L631.069 117.523H623.282V134.055C623.282 136.451 623.641 138.248 624.36 139.446C625.079 140.644 626.037 141.443 627.235 141.842C628.513 142.241 629.911 142.441 631.428 142.441H631.787V147.473H601.838Z" fill="#212121"/>
<path d="M502.509 148.671C496.2 148.671 490.849 147.433 486.456 144.957C482.143 142.401 478.869 138.648 476.633 133.696C474.396 128.744 473.278 122.595 473.278 115.247C473.278 107.899 474.476 101.789 476.872 96.9176C479.268 91.9659 482.663 88.2521 487.055 85.7763C491.448 83.3004 496.599 82.0625 502.509 82.0625C508.819 82.0625 514.13 83.3004 518.443 85.7763C522.835 88.2521 526.15 91.9659 528.386 96.9176C530.622 101.789 531.74 107.899 531.74 115.247C531.74 122.595 530.542 128.744 528.146 133.696C525.75 138.648 522.356 142.401 517.963 144.957C513.651 147.433 508.499 148.671 502.509 148.671ZM502.509 142.92C506.662 142.92 509.977 141.882 512.453 139.806C514.928 137.649 516.725 134.495 517.844 130.342C518.962 126.188 519.521 121.157 519.521 115.247C519.521 109.257 518.962 104.225 517.844 100.152C516.725 96.079 514.928 93.0041 512.453 90.9276C509.977 88.8511 506.662 87.8129 502.509 87.8129C498.436 87.8129 495.122 88.8511 492.566 90.9276C490.09 93.0041 488.293 96.079 487.175 100.152C486.057 104.225 485.498 109.257 485.498 115.247C485.498 121.157 486.057 126.188 487.175 130.342C488.293 134.495 490.09 137.649 492.566 139.806C495.122 141.882 498.436 142.92 502.509 142.92Z" fill="#212121"/>
<path d="M359.796 147.473V142.441H360.754C362.511 142.441 364.109 142.241 365.546 141.842C367.064 141.443 368.262 140.644 369.14 139.446C370.099 138.168 370.578 136.291 370.578 133.815V89.2502H362.312C360.475 89.2502 359.037 89.5697 357.999 90.2086C356.961 90.8475 356.122 91.9257 355.483 93.4432C354.924 94.8808 354.405 96.9573 353.926 99.6727L353.087 104.345H347.457L348.175 83.2603H404.241L404.96 104.345H399.33L398.491 99.6727C398.012 96.9573 397.453 94.8808 396.814 93.4432C396.255 91.9257 395.456 90.8475 394.418 90.2086C393.38 89.5697 391.942 89.2502 390.105 89.2502H381.839V133.815C381.839 136.291 382.278 138.168 383.157 139.446C384.115 140.644 385.313 141.443 386.751 141.842C388.268 142.241 389.905 142.441 391.662 142.441H392.621V147.473H359.796Z" fill="#212121"/>
<path d="M233.37 177.422C231.294 177.422 229.577 177.063 228.219 176.344C226.941 175.625 225.983 174.587 225.344 173.229C224.785 171.952 224.505 170.394 224.505 168.557C224.505 168.158 224.505 167.759 224.505 167.359C224.505 167.04 224.545 166.72 224.625 166.401C225.823 166.64 226.941 166.8 227.979 166.88C229.018 167.04 230.016 167.12 230.974 167.12C234.728 167.12 237.843 166.041 240.319 163.885C242.795 161.729 245.151 158.055 247.387 152.864L251.34 143.879L249.184 150.348L225.583 94.6412C224.545 92.1653 223.467 90.4881 222.349 89.6096C221.231 88.7311 219.514 88.2918 217.198 88.2918H216.838V83.2603H245.59V88.2918H245.231C242.835 88.2918 241.038 88.771 239.84 89.7294C238.721 90.6079 238.162 92.0455 238.162 94.0422C238.162 94.6811 238.242 95.36 238.402 96.0788C238.562 96.7976 238.801 97.5962 239.121 98.4747L247.866 119.799C248.585 121.476 249.344 123.353 250.142 125.43C250.941 127.426 251.74 129.543 252.538 131.779C253.417 134.015 254.255 136.331 255.054 138.727H252.658C253.537 136.331 254.295 134.215 254.934 132.378C255.653 130.541 256.292 128.824 256.851 127.227C257.49 125.629 258.049 124.112 258.528 122.674L267.034 99.3133C267.433 98.3549 267.713 97.4365 267.873 96.558C268.032 95.5996 268.112 94.8009 268.112 94.162C268.112 92.0855 267.433 90.6079 266.076 89.7294C264.798 88.771 262.841 88.2918 260.205 88.2918H259.846V83.2603H284.525V88.2918H284.165C282.648 88.2918 281.37 88.5314 280.332 89.0106C279.373 89.4898 278.495 90.4083 277.696 91.766C276.897 93.1237 276.019 95.0804 275.06 97.6361L255.054 151.546C252.658 157.935 250.382 163.007 248.225 166.76C246.149 170.594 243.953 173.309 241.637 174.907C239.32 176.584 236.565 177.422 233.37 177.422Z" fill="#212121"/>
<path d="M91.4946 148.671C88.5395 148.671 86.463 147.872 85.265 146.275C84.067 144.677 83.468 142.721 83.468 140.404C83.468 139.925 83.468 139.446 83.468 138.967C83.5479 138.408 83.6277 137.969 83.7076 137.649C84.4264 137.729 85.1053 137.809 85.7442 137.889C86.463 137.969 87.1419 138.008 87.7808 138.008C90.8956 138.008 93.4912 137.13 95.5677 135.373C97.6442 133.616 99.3214 130.461 100.599 125.909C101.957 121.276 102.915 114.648 103.474 106.022C103.554 105.144 103.594 104.265 103.594 103.386C103.674 102.508 103.714 101.669 103.714 100.871C103.794 99.9922 103.834 99.1137 103.834 98.2351C103.914 97.3566 103.954 96.4781 103.954 95.5996C103.954 92.8042 103.355 90.8875 102.157 89.8492C100.959 88.8109 99.0818 88.2918 96.5261 88.2918H93.5311V83.2603H151.514V88.2918H151.155C149.397 88.2918 147.76 88.4915 146.243 88.8908C144.805 89.2901 143.607 90.0888 142.649 91.2868C141.77 92.4848 141.331 94.3616 141.331 96.9174V133.815C141.331 136.291 141.77 138.168 142.649 139.446C143.607 140.644 144.805 141.443 146.243 141.842C147.76 142.241 149.397 142.441 151.155 142.441H151.514V147.473H120.965V142.441H121.325C123.002 142.441 124.479 142.241 125.757 141.842C127.115 141.443 128.153 140.644 128.872 139.446C129.671 138.168 130.07 136.291 130.07 133.815V89.2502H111.022L110.063 107.22C109.345 120.957 107.428 131.3 104.313 138.248C101.198 145.196 96.9254 148.671 91.4946 148.671Z" fill="#212121"/>
<path fill-rule="evenodd" clip-rule="evenodd" d="M27.4401 162.388C32.5967 166.273 42.1731 163.537 48.0203 161.105C70.4882 151.612 93.1402 142.357 115.194 132.358C149.356 116.852 183.406 98.0205 217.338 82.2789C222.092 80.0735 232.923 77.729 232.923 84.4931C232.923 89.8028 205.398 109.466 192.369 121.492C179.478 133.349 162.324 143.831 149.432 156.025C174.11 150.891 197.408 140.055 219.507 131.374C221.402 130.63 222.054 132.49 222.054 133.168C222.054 135.839 220.443 137.661 218.555 139.147C213.03 143.539 206.584 147.289 201.198 151.748C197.791 154.585 190.244 164.457 188.293 168.953C189.491 171.747 215.562 165.226 225.461 163.064C281.953 150.7 264.231 155.102 320.631 142.468C325.971 141.286 331.358 140.104 336.791 139.124C357.548 135.425 371.091 124.558 384.714 113.628L385.272 113.181C390.704 108.823 396.644 104.601 403.273 101.29C410.594 97.608 418.743 98.4863 422.749 102.135C426.984 105.986 426.156 113.248 419.203 117.133C410.438 123.278 401.11 127.47 390.843 129.632C355.717 134.418 333.792 156.468 322.314 166.216C316.677 171.003 314.426 175.84 313.183 177.901C312.684 178.727 312.057 180.577 312.481 182.904C314.047 188.018 328.78 189.018 338.586 187.261C359.351 183.545 376.248 174.458 393.835 166.216C432.924 147.907 469.204 126.794 505.253 105.479C508.384 103.621 514.864 101.583 515.344 99.7316C515.952 97.3896 509.654 97.0362 506.955 95.0006C502.828 91.8878 501.11 86.6632 502.261 81.9339C504.563 72.6443 512.39 65.5166 520.355 58.8619C533.171 48.1337 546.998 38.0238 560.789 27.9407L562.666 26.5678C570.862 20.5887 586.792 18.5957 593.652 22.075C600.834 25.6895 603.504 36.8033 596.921 44.9106C590.751 52.4774 582.326 59.1322 574.315 65.7869C566.396 72.3741 557.74 78.4545 549.361 84.7715C547.947 86.0709 548.846 87.6002 551.386 86.9334C556.405 85.616 564.162 82.6603 571.949 80.5638C583.246 77.5222 593.776 74.1942 598.119 80.5638C602.462 86.9334 565.596 137.97 572.548 146.753C576.462 151.685 584.026 153.578 589.919 153.105C607.589 151.351 616.275 150.347 628.854 148.55L658.958 143.446C674.842 140.474 686.03 133.616 696.665 125.475C700.533 122.502 704.17 119.395 708.129 116.489C710.247 114.902 712.595 113.348 715.174 112.199C722.955 108.754 736.675 109.193 739.069 113.247C742.706 119.428 736.767 123.482 730.874 126.151C718.857 131.589 706.564 136.96 693.581 140.913C685.293 143.446 678.341 146.419 672.494 151.351C668.166 154.999 662.825 157.972 658.175 161.417C652.617 165.536 644.791 169.527 648.507 176.112C650.754 180.095 666.601 177.497 674.704 174.49C686.643 170.045 698.145 165.053 709.678 160.048L709.679 160.047L710.57 159.661C714.253 158.073 722.172 156.654 722.172 160.776C722.172 162.979 714.85 165.956 707.853 168.241C696.803 172.801 685.753 177.463 674.105 181.145C667.337 183.273 659.418 184.76 652.144 184.489C637.963 183.915 632.991 175.774 641.048 167.025C645.744 161.924 651.822 157.499 658.682 151.554L595.033 158.645C590.521 159.085 585.917 159.22 581.313 159.253C576.709 159.287 568.779 161.417 562.666 153.105C551.386 137.768 596.908 88.0233 591.218 83.8594C587.923 81.4487 545.217 97.1689 526.386 101.56C523.209 102.304 520.769 104.634 517.961 106.256C488.679 123.011 459.765 140.104 430.023 156.386C414.164 163.833 400.282 169.222 384.352 177.228C377.63 180.606 363.647 187.539 352.118 190.622C338.205 194.343 308.691 199.165 298.269 190.622C290.122 182.904 320.17 157.94 342.776 144.867C342.615 143.742 340.37 143.328 334.789 144.486C306.295 150.396 300.295 152.066 283.813 155.951C267.33 159.836 261.373 162.591 244.522 165.429C236.004 166.881 232.693 168.11 228.082 168.953C219.507 170.521 218.417 171.043 210.195 171.929C199.786 171.929 181.128 177.773 180.006 175.563C177.774 171.165 179.29 162.287 184.88 153.476C172.324 158.812 159.137 163.064 146.84 166.72C146.84 166.72 124.126 171.716 118.509 171.929C112.892 172.143 120.857 165.342 124.126 162.674C147.008 144.162 171.179 128.574 193.969 109.995C195.397 108.846 200.875 104.213 199.786 102.13C197.521 101.236 142.864 126.514 118.509 139.418C93.9689 152.423 67.8694 162.643 41.781 173.94C33.21 176.846 26.8847 177.706 17.9757 175.563C5.04546 172.452 18.6923 150.971 32.5967 141.951C50.8288 130.061 68.8307 117.933 86.7406 105.772C90.2857 103.374 97.4221 99.526 97.4221 96.5166C97.4221 92.0846 89.6872 93.8479 87.4312 94.2871C75.7368 96.6179 64.1806 99.3879 52.6244 102.124C46.6391 103.543 33.5491 108.828 32.8268 103.543C32.4812 101.014 36.4641 98.7798 38.9964 97.6989C55.7676 92.1675 73.3677 88.1623 92.1063 85.8652C98.6902 85.0545 104.604 84.5583 107.827 89.1862C111.05 93.8817 110.682 98.8474 105.801 102.8C100 107.461 93.5086 111.718 87.0629 115.974C70.3961 126.953 53.5912 137.796 36.9245 148.775C31.6298 152.322 23.8631 158.685 27.4401 162.388ZM578.09 28.3244C584.49 26.6354 589.14 29.5743 589.508 37.0398C589.508 42.1084 584.306 46.5004 578.984 50.9926C578.982 50.9949 578.979 50.9972 578.976 50.9994C578.973 51.0025 578.969 51.0056 578.965 51.0087C578.674 51.2545 578.383 51.5005 578.092 51.747C577.938 51.8777 577.783 52.0086 577.629 52.1396C566.883 61.3198 555.4 69.9836 543.902 78.6593C541.607 80.3908 539.312 82.1227 537.022 83.8594C529.471 89.6021 519.434 92.0342 515.659 88.8251C509.752 83.7797 514.013 78.8478 517.637 74.6531C517.968 74.2699 518.293 73.8929 518.605 73.5226C523.9 67.2394 530.53 61.4968 537.206 55.923C545.861 48.6264 554.885 41.5326 564.278 34.7765C568.099 32.0065 573.071 29.6418 578.09 28.3244ZM415.843 108.08C417.109 111.496 400.603 120.173 387.159 121.93C388.132 120.999 389.061 120.072 389.971 119.165C396.556 112.599 414.413 104.224 415.843 108.08ZM708.774 126.016C711.883 121.287 724.094 116.489 725.533 119.935C726.576 122.432 717.653 125.667 713.106 127.316C712.173 127.654 711.425 127.925 710.984 128.11C708.396 129.194 707.938 127.285 708.675 126.165L708.774 126.016Z" fill="#17C1FB"/>
<path d="M601.838 147.472V142.44H602.197C603.875 142.44 605.432 142.28 606.87 141.961C608.387 141.561 609.625 140.763 610.583 139.565C611.542 138.367 612.021 136.53 612.021 134.054V96.6768C612.021 94.2009 611.542 92.4039 610.583 91.2858C609.705 90.0878 608.507 89.2892 606.989 88.8898C605.472 88.4905 603.875 88.2908 602.197 88.2908H601.838V83.2593H631.788V88.2908H631.428C629.831 88.2908 628.394 88.4905 627.116 88.8898C625.918 89.2892 624.959 90.0878 624.241 91.2858C623.602 92.4838 623.282 94.2808 623.282 96.6768V111.532H631.069L639.695 101.349C642.011 98.6335 643.488 96.557 644.127 95.1194C644.846 93.6818 645.205 92.4039 645.205 91.2858C645.205 90.1677 644.806 89.409 644.007 89.0096C643.209 88.5304 641.931 88.2908 640.174 88.2908V83.2593H665.571V88.2908C663.654 88.2908 661.817 88.7301 660.06 89.6086C658.303 90.4073 656.546 91.6452 654.789 93.3224C653.032 94.9197 651.075 96.9563 648.919 99.4322L637.059 113.329L638.017 108.058L654.909 132.616C656.267 134.613 657.585 136.37 658.862 137.888C660.14 139.325 661.498 140.443 662.936 141.242C664.373 142.041 665.931 142.44 667.608 142.44H667.967V147.472H666.29C662.936 147.472 660.14 147.352 657.904 147.112C655.748 146.793 653.871 146.234 652.273 145.435C650.756 144.636 649.318 143.478 647.961 141.961C646.603 140.443 645.086 138.407 643.408 135.851L631.069 117.522H623.282V134.054C623.282 136.45 623.641 138.247 624.36 139.445C625.079 140.643 626.038 141.442 627.235 141.841C628.513 142.24 629.911 142.44 631.428 142.44H631.788V147.472H601.838Z" fill="#212121"/>
<path d="M85.2654 146.274C86.4634 147.871 88.5399 148.67 91.4949 148.67C96.9258 148.67 101.199 145.195 104.313 138.247C105.807 134.915 107.026 130.802 107.968 125.908H100.6C99.3218 130.46 97.6446 133.615 95.5681 135.372C93.4916 137.129 90.8959 138.007 87.7812 138.007C87.1422 138.007 86.4634 137.968 85.7446 137.888C85.1056 137.808 84.4268 137.728 83.708 137.648C83.6281 137.968 83.5482 138.407 83.4684 138.966V140.403C83.4684 142.72 84.0674 144.676 85.2654 146.274Z" fill="#212121"/>
<path d="M103.595 103.386C103.595 104.264 103.555 105.143 103.475 106.021L110.064 107.219L111.022 89.2492V83.2593H93.5315V88.2908H96.5265C99.0822 88.2908 100.959 88.81 102.157 89.8482C103.355 90.8865 103.954 92.8033 103.954 95.5986C103.954 96.4771 103.914 97.3556 103.834 98.2342C103.834 99.1127 103.794 99.9912 103.714 100.87C103.714 101.668 103.674 102.507 103.595 103.386Z" fill="#212121"/>
<path fill-rule="evenodd" clip-rule="evenodd" d="M228.219 176.343C229.577 177.062 231.294 177.421 233.371 177.421C236.565 177.421 239.321 176.583 241.637 174.906C243.953 173.308 246.149 170.593 248.226 166.759C250.382 163.006 252.658 157.934 255.054 151.545L247.387 152.863C245.151 158.054 242.795 161.728 240.319 163.884C237.843 166.04 234.729 167.119 230.975 167.119C230.016 167.119 229.018 167.039 227.98 166.879C226.942 166.799 225.823 166.639 224.625 166.4C224.546 166.719 224.506 167.039 224.506 167.358V168.556C224.506 170.393 224.785 171.951 225.344 173.228C225.983 174.586 226.942 175.624 228.219 176.343ZM253.883 135.35C253.837 135.48 253.79 135.61 253.743 135.742C253.404 136.683 253.043 137.678 252.658 138.726H255.054C254.673 137.583 254.283 136.457 253.883 135.35ZM248.846 149.548L249.184 150.347L251.341 143.878L248.846 149.548Z" fill="#212121"/>
<path fill-rule="evenodd" clip-rule="evenodd" d="M404.96 104.344L404.242 83.2593L396.814 93.4422C397.453 94.8798 398.012 96.9563 398.491 99.6718L399.33 104.344H404.96Z" fill="#212121"/>
<path fill-rule="evenodd" clip-rule="evenodd" d="M473.279 115.246C473.279 122.594 474.397 128.743 476.633 133.695L487.175 130.341C486.057 126.188 485.498 121.156 485.498 115.246H473.279Z" fill="#212121"/>
</svg>
