<svg width="750" height="230" viewBox="0 0 750 230" fill="none" xmlns="http://www.w3.org/2000/svg">
<path d="M119.545 85.0171L122.854 93.7749C89.1922 100.949 84.6535 99.1786 84.6535 108.589C87.112 119.303 96.9458 135.514 99.3097 141.197C102.508 148.887 98.4587 156.943 94.2037 161.974C90.7997 165.999 75.0718 170.11 67.6334 171.663L55.7193 174.831L61.8654 168.682L53.3554 164.489C58.9027 165.11 73.3257 164.471 86.6392 156.943C103.281 147.533 78.5073 124.148 77.4672 108.589C76.6351 96.1413 105.172 87.6879 119.545 85.0171Z" fill="#B2D0FE"/>
<path d="M151.766 71.9305C147.727 75.728 135.842 83.805 120.617 85.7328C111.967 86.8282 111.199 92.7696 117.675 94.2452C122.855 95.4257 137.909 89.3384 144.788 86.1472L156.224 81.5783L147.556 80.3377L151.766 71.9305Z" fill="#B2D0FE"/>
<path d="M601.839 147.473V142.441H602.198C603.875 142.441 605.433 142.281 606.87 141.962C608.388 141.562 609.626 140.764 610.584 139.566C611.543 138.368 612.022 136.531 612.022 134.055V96.6778C612.022 94.2019 611.543 92.4049 610.584 91.2868C609.706 90.0888 608.508 89.2901 606.99 88.8908C605.473 88.4915 603.875 88.2918 602.198 88.2918H601.839V83.2603H631.789V88.2918H631.429C629.832 88.2918 628.394 88.4915 627.116 88.8908C625.918 89.2901 624.96 90.0888 624.241 91.2868C623.602 92.4848 623.283 94.2818 623.283 96.6778V111.533H631.07L639.695 101.35C642.011 98.6345 643.489 96.558 644.128 95.1204C644.847 93.6828 645.206 92.4049 645.206 91.2868C645.206 90.1687 644.807 89.4099 644.008 89.0106C643.209 88.5314 641.932 88.2918 640.175 88.2918V83.2603H665.572V88.2918C663.655 88.2918 661.818 88.7311 660.061 89.6096C658.304 90.4083 656.547 91.6462 654.79 93.3234C653.033 94.9207 651.076 96.9573 648.92 99.4331L637.06 113.33L638.018 108.059L654.91 132.617C656.268 134.614 657.585 136.371 658.863 137.889C660.141 139.326 661.499 140.444 662.936 141.243C664.374 142.042 665.931 142.441 667.609 142.441H667.968V147.473H666.291C662.936 147.473 660.141 147.353 657.905 147.113C655.748 146.794 653.872 146.235 652.274 145.436C650.757 144.637 649.319 143.479 647.962 141.962C646.604 140.444 645.086 138.408 643.409 135.852L631.07 117.523H623.283V134.055C623.283 136.451 623.642 138.248 624.361 139.446C625.08 140.644 626.038 141.443 627.236 141.842C628.514 142.241 629.912 142.441 631.429 142.441H631.789V147.473H601.839Z" fill="#212121"/>
<path d="M502.51 148.671C496.201 148.671 490.85 147.433 486.457 144.957C482.144 142.401 478.87 138.648 476.634 133.696C474.397 128.744 473.279 122.595 473.279 115.247C473.279 107.899 474.477 101.789 476.873 96.9176C479.269 91.9659 482.664 88.2521 487.056 85.7763C491.449 83.3004 496.6 82.0625 502.51 82.0625C508.82 82.0625 514.131 83.3004 518.444 85.7763C522.836 88.2521 526.151 91.9659 528.387 96.9176C530.623 101.789 531.741 107.899 531.741 115.247C531.741 122.595 530.543 128.744 528.147 133.696C525.751 138.648 522.357 142.401 517.964 144.957C513.652 147.433 508.5 148.671 502.51 148.671ZM502.51 142.92C506.663 142.92 509.978 141.882 512.454 139.806C514.929 137.649 516.726 134.495 517.845 130.342C518.963 126.188 519.522 121.157 519.522 115.247C519.522 109.257 518.963 104.225 517.845 100.152C516.726 96.079 514.929 93.0041 512.454 90.9276C509.978 88.8511 506.663 87.8129 502.51 87.8129C498.437 87.8129 495.123 88.8511 492.567 90.9276C490.091 93.0041 488.294 96.079 487.176 100.152C486.058 104.225 485.499 109.257 485.499 115.247C485.499 121.157 486.058 126.188 487.176 130.342C488.294 134.495 490.091 137.649 492.567 139.806C495.123 141.882 498.437 142.92 502.51 142.92Z" fill="#212121"/>
<path d="M359.797 147.473V142.441H360.755C362.513 142.441 364.11 142.241 365.547 141.842C367.065 141.443 368.263 140.644 369.141 139.446C370.1 138.168 370.579 136.291 370.579 133.815V89.2502H362.313C360.476 89.2502 359.038 89.5697 358 90.2086C356.962 90.8475 356.123 91.9257 355.484 93.4432C354.925 94.8808 354.406 96.9573 353.927 99.6727L353.088 104.345H347.458L348.177 83.2603H404.243L404.961 104.345H399.331L398.492 99.6727C398.013 96.9573 397.454 94.8808 396.815 93.4432C396.256 91.9257 395.457 90.8475 394.419 90.2086C393.381 89.5697 391.943 89.2502 390.106 89.2502H381.84V133.815C381.84 136.291 382.279 138.168 383.158 139.446C384.116 140.644 385.314 141.443 386.752 141.842C388.269 142.241 389.907 142.441 391.664 142.441H392.622V147.473H359.797Z" fill="#212121"/>
<path d="M233.372 177.422C231.295 177.422 229.578 177.063 228.22 176.344C226.942 175.625 225.984 174.587 225.345 173.229C224.786 171.952 224.506 170.394 224.506 168.557C224.506 168.158 224.506 167.759 224.506 167.359C224.506 167.04 224.546 166.72 224.626 166.401C225.824 166.64 226.942 166.8 227.981 166.88C229.019 167.04 230.017 167.12 230.976 167.12C234.729 167.12 237.844 166.041 240.32 163.885C242.796 161.729 245.152 158.055 247.388 152.864L251.341 143.879L249.185 150.348L225.585 94.6412C224.546 92.1653 223.468 90.4881 222.35 89.6096C221.232 88.7311 219.515 88.2918 217.199 88.2918H216.839V83.2603H245.591V88.2918H245.232C242.836 88.2918 241.039 88.771 239.841 89.7294C238.723 90.6079 238.164 92.0455 238.164 94.0422C238.164 94.6811 238.243 95.36 238.403 96.0788C238.563 96.7976 238.803 97.5962 239.122 98.4747L247.867 119.799C248.586 121.476 249.345 123.353 250.144 125.43C250.942 127.426 251.741 129.543 252.539 131.779C253.418 134.015 254.257 136.331 255.055 138.727H252.659C253.538 136.331 254.297 134.215 254.935 132.378C255.654 130.541 256.293 128.824 256.852 127.227C257.491 125.629 258.05 124.112 258.529 122.674L267.035 99.3133C267.435 98.3549 267.714 97.4365 267.874 96.558C268.034 95.5996 268.113 94.8009 268.113 94.162C268.113 92.0855 267.435 90.6079 266.077 89.7294C264.799 88.771 262.842 88.2918 260.207 88.2918H259.847V83.2603H284.526V88.2918H284.166C282.649 88.2918 281.371 88.5314 280.333 89.0106C279.374 89.4898 278.496 90.4083 277.697 91.766C276.899 93.1237 276.02 95.0804 275.062 97.6361L255.055 151.546C252.659 157.935 250.383 163.007 248.227 166.76C246.15 170.594 243.954 173.309 241.638 174.907C239.322 176.584 236.566 177.422 233.372 177.422Z" fill="#212121"/>
<path d="M91.4958 148.671C88.5407 148.671 86.4642 147.872 85.2662 146.275C84.0682 144.677 83.4692 142.721 83.4692 140.404C83.4692 139.925 83.4692 139.446 83.4692 138.967C83.5491 138.408 83.629 137.969 83.7088 137.649C84.4276 137.729 85.1065 137.809 85.7454 137.889C86.4642 137.969 87.1431 138.008 87.782 138.008C90.8968 138.008 93.4924 137.13 95.5689 135.373C97.6455 133.616 99.3227 130.461 100.601 125.909C101.958 121.276 102.917 114.648 103.476 106.022C103.556 105.144 103.595 104.265 103.595 103.386C103.675 102.508 103.715 101.669 103.715 100.871C103.795 99.9922 103.835 99.1137 103.835 98.2351C103.915 97.3566 103.955 96.4781 103.955 95.5996C103.955 92.8042 103.356 90.8875 102.158 89.8492C100.96 88.8109 99.0831 88.2918 96.5273 88.2918H93.5324V83.2603H151.515V88.2918H151.156C149.399 88.2918 147.761 88.4915 146.244 88.8908C144.806 89.2901 143.608 90.0888 142.65 91.2868C141.771 92.4848 141.332 94.3616 141.332 96.9174V133.815C141.332 136.291 141.771 138.168 142.65 139.446C143.608 140.644 144.806 141.443 146.244 141.842C147.761 142.241 149.399 142.441 151.156 142.441H151.515V147.473H120.966V142.441H121.326C123.003 142.441 124.48 142.241 125.758 141.842C127.116 141.443 128.154 140.644 128.873 139.446C129.672 138.168 130.071 136.291 130.071 133.815V89.2502H111.023L110.065 107.22C109.346 120.957 107.429 131.3 104.314 138.248C101.2 145.196 96.9267 148.671 91.4958 148.671Z" fill="#212121"/>
<path d="M454.395 62.0756C459.7 70.6292 446.53 84.7339 436.911 91.5783C421.03 102.879 402.547 112.24 385.209 122.502C376.784 127.491 368.399 132.555 360.369 137.869C356.858 140.187 354.892 141.027 356.812 143.675C358.327 145.766 388.541 144.088 400.242 138.638C412.696 132.857 424.08 146.594 423.295 156.128C423.214 156.998 458.862 136.854 461.709 135.202C473.067 128.784 484.386 122.367 495.742 115.91C518.382 103.076 533.32 94.1146 555.998 81.3165C573.505 71.4638 599.769 54.2707 604.714 57.4063C609.737 60.5767 583.849 83.6021 578.165 88.1883C568.73 95.8179 542.335 119.181 538.036 124.374C536.426 126.319 530.596 133.065 533.019 132.334C546.238 128.524 575.651 110.573 582.514 107.791C598.089 101.48 620.059 88.18 627.509 93.7497C630.111 95.6899 625.062 100.856 622.65 102.869C610.933 112.922 598.314 122.405 587.105 132.703C582.149 137.299 556.616 156.578 550.922 165.917C543.897 177.493 574.806 177.221 581.976 173.447C597.856 165.126 666.625 111.813 695.683 89.575C695.683 89.575 720.814 66.2796 729.278 75.9625C733.597 80.9032 707.257 92.1767 685.951 108.176C679.124 113.303 669.147 122.138 669.147 122.138L652.342 136.099C652.269 136.178 596.976 176.362 578.165 185.169C566.804 190.494 553.414 189.02 542.108 182.764C539.407 181.242 536.764 179.228 535.661 176.403C534.217 172.684 535.703 168.48 537.872 165.118C540.187 161.563 564.874 139.185 573.717 132.106C579.81 127.203 593.597 117.224 603.964 108.918C605.636 107.574 604.042 104.955 602.046 105.821C595.15 108.755 586.673 113.407 583.812 114.683C577.937 117.277 544.452 135.907 532.13 138.137C486.605 146.314 569.85 81.0288 569.494 80.7403C537.024 99.861 449.072 153.248 440.73 157.404C427.313 164.05 413.94 170.845 400.242 177.162C396.63 178.843 383.101 182.551 387.533 174.277C388.963 171.621 394.729 170.2 397.393 168.744C402.306 166.034 411.652 162.219 412.615 156.128C416.461 131.805 381.486 155.42 363.307 156.128C346.331 154.589 339.326 141.366 348.908 135.579C367.023 124.61 385.695 114.186 403.772 103.218C412.118 98.1559 420.381 92.9083 428.32 87.2201C433.613 83.4405 437.255 79.5337 440.435 74.5501C441.988 72.1163 440.56 68.8124 437.636 68.4683C426.901 67.1317 416.319 69.7874 406.041 73.4125C393.194 77.9251 338.719 108.461 322.293 116.539C300.382 127.385 277.797 137.614 254.882 147.253C250.172 149.238 226.228 160.009 220.12 161.518C217.086 162.272 200.31 166.213 194.411 166.168C188.13 166.137 182.091 168.436 175.79 167.915C175.56 167.886 175.329 167.857 175.17 167.712C175.011 167.567 175.004 167.379 174.959 167.192C174.658 164.336 177.403 162.009 180.119 160.928C182.834 159.846 185.915 159.279 188.021 157.278C188.243 157.081 188.543 155.9 188.455 155.602C187.29 152.175 182.782 150.457 182.186 146.896C181.891 145.172 182.627 143.409 183.762 142.047C187.425 137.687 193.652 134.287 198.317 131.097C203.69 127.39 209.262 123.901 215.121 120.893C220.041 118.372 225.537 116.886 231.132 116.98C239.829 117.11 248.671 123.005 257.183 118.276C272.634 109.744 302.079 90.6226 311.985 83.2772C312.841 82.642 312.214 81.2697 311.152 81.5354C287.81 87.0032 214.842 104.572 190.945 110.55C148.31 121.222 57.4945 149.481 49.6393 151.356C34.8776 154.884 13.1446 160.367 9.42954 144.324C6.49269 131.609 23.7587 119.465 28.3709 115.899C37.4481 108.924 47.3729 103.087 56.8116 96.5507C75.4269 83.6395 94.1244 70.876 112.982 58.2952C123.401 51.3458 136.446 47.9951 151.244 48.4266C151.359 48.4223 151.438 48.4949 151.517 48.5674C157.039 54.7744 154.394 59.7004 148.036 64.6887C132.867 76.6046 114.465 85.0573 93.7851 90.0491C78.8351 93.659 65.1179 100.467 52.5831 109.154C41.6141 116.728 8.6021 134.699 21.0496 142.762C27.9201 147.184 45.6854 143.092 53.3718 140.808C59.9211 138.83 77.2581 133.806 127.524 121.417C178.512 108.851 279.427 82.0715 295.164 78.0175C302.596 76.0821 310.457 73.3765 318.386 71.4227C326.012 69.5556 330.494 79.6107 323.876 83.8166L323.69 83.9366C315.802 88.9817 307.875 93.9906 299.947 98.9618C284.317 108.82 268.647 118.643 253.057 128.537C243.299 134.746 232.392 139.941 225.875 149.763C225.694 150.033 225.974 150.362 226.277 150.276C232.664 148.04 239.088 145.802 245.435 143.53C251.819 141.256 260.09 139.214 265.607 135.276C281.091 127.61 296.532 119.833 312.055 112.166C331.597 102.464 351.18 92.8362 370.93 83.5414C385.638 76.6213 400.41 69.3594 415.75 63.9246C427.046 59.8846 449.416 54.038 454.395 62.0756ZM235.598 124.621C235.629 124.432 235.467 124.211 235.238 124.22C221.08 124.519 208.6 129.621 198.475 139.238C194.851 142.616 193.142 145.999 198.093 149.285C217.111 145.901 233.766 134.798 235.598 124.621ZM95.6147 82.8149C113.357 76.1217 129.849 71.7756 138.618 58.7394C138.762 58.5078 138.558 58.1759 138.29 58.1858C122.548 60.0901 106.944 68.6276 95.2504 82.3004C95.031 82.5725 95.3131 82.9392 95.6147 82.8149Z" fill="#FFCD29"/>
<path fill-rule="evenodd" clip-rule="evenodd" d="M601.839 142.441V147.473H631.789V142.441H631.429C629.912 142.441 628.514 142.241 627.236 141.842C626.038 141.443 625.08 140.644 624.361 139.446C623.642 138.248 623.283 136.451 623.283 134.055V117.523H631.07L643.409 135.852C645.086 138.408 646.604 140.444 647.962 141.962C649.319 143.479 650.757 144.637 652.274 145.436C653.872 146.235 655.748 146.794 657.905 147.113C660.141 147.353 662.936 147.473 666.291 147.473H667.968V142.441H667.609C665.931 142.441 664.374 142.042 662.936 141.243C661.499 140.444 660.141 139.326 658.863 137.889C657.585 136.371 656.268 134.614 654.91 132.617L639.598 110.356L648.92 99.4331C651.076 96.9573 653.033 94.9207 654.79 93.3234C656.547 91.6462 658.304 90.4083 660.061 89.6096C661.818 88.7311 663.655 88.2918 665.572 88.2918V83.2603H640.175V88.2918C641.932 88.2918 643.209 88.5314 644.008 89.0106C644.807 89.4099 645.206 90.1687 645.206 91.2868C645.206 92.4049 644.847 93.6828 644.128 95.1204C643.489 96.558 642.011 98.6345 639.695 101.35L631.07 111.533H623.283V104.105L612.022 111.533V134.055C612.022 136.531 611.543 138.368 610.584 139.566C609.626 140.764 608.388 141.562 606.87 141.962C605.433 142.281 603.875 142.441 602.198 142.441H601.839ZM611.319 92.4806H623.766C623.897 92.0323 624.056 91.6343 624.241 91.2868C624.96 90.0888 625.918 89.2901 627.116 88.8908C628.394 88.4915 629.832 88.2918 631.429 88.2918H631.789V83.2603H601.839V88.2918H602.198C603.875 88.2918 605.473 88.4915 606.99 88.8908C608.508 89.2901 609.706 90.0888 610.584 91.2868C610.873 91.6233 611.118 92.0212 611.319 92.4806Z" fill="#212121"/>
<path d="M502.51 148.671C496.201 148.671 490.85 147.433 486.457 144.957C482.144 142.401 478.87 138.648 476.634 133.696C474.397 128.744 473.279 122.595 473.279 115.247C473.279 107.899 474.477 101.789 476.873 96.9176C479.269 91.9659 482.664 88.2521 487.056 85.7763C491.449 83.3004 496.6 82.0625 502.51 82.0625C508.82 82.0625 514.131 83.3004 518.444 85.7763C522.836 88.2521 526.151 91.9659 528.387 96.9176C529.686 99.7486 530.608 102.998 531.153 106.665C531.545 109.308 531.741 112.169 531.741 115.247C531.741 122.595 530.543 128.744 528.147 133.696C525.751 138.648 522.357 142.401 517.964 144.957C513.652 147.433 508.5 148.671 502.51 148.671ZM502.51 142.92C506.663 142.92 509.978 141.882 512.454 139.806C513.234 139.126 513.947 138.347 514.592 137.469C515.995 135.561 517.079 133.185 517.845 130.342C518.963 126.188 519.522 121.157 519.522 115.247C519.522 114.227 519.506 113.234 519.473 112.269C519.315 107.571 518.772 103.532 517.845 100.152C516.726 96.079 514.929 93.0041 512.454 90.9276C509.978 88.8511 506.663 87.8129 502.51 87.8129C498.437 87.8129 495.123 88.8511 492.567 90.9276C490.091 93.0041 488.294 96.079 487.176 100.152C486.058 104.225 485.499 109.257 485.499 115.247C485.499 121.157 486.058 126.188 487.176 130.342C488.294 134.495 490.091 137.649 492.567 139.806C495.123 141.882 498.437 142.92 502.51 142.92Z" fill="#212121"/>
<path fill-rule="evenodd" clip-rule="evenodd" d="M381.84 89.2502V114.55L370.579 121.641V89.2502H362.313C360.476 89.2502 359.038 89.5697 358 90.2086C356.962 90.8475 356.123 91.9257 355.484 93.4432C354.925 94.8808 354.406 96.9573 353.927 99.6727L353.088 104.345H347.458L348.177 83.2603H404.243L404.961 104.345H399.331L398.492 99.6727C398.013 96.9573 397.454 94.8808 396.815 93.4432C396.256 91.9257 395.457 90.8475 394.419 90.2086C393.381 89.5697 391.943 89.2502 390.106 89.2502H381.84Z" fill="#212121"/>
<path fill-rule="evenodd" clip-rule="evenodd" d="M228.22 176.344C229.578 177.063 231.295 177.422 233.372 177.422C236.566 177.422 239.322 176.584 241.638 174.907C243.954 173.309 246.15 170.594 248.227 166.76C250.383 163.007 252.659 157.935 255.055 151.546L275.062 97.6361C275.576 96.266 276.066 95.068 276.534 94.0422L268.1 94.6412C268.071 95.1869 267.996 95.8258 267.874 96.558C267.714 97.4365 267.435 98.3549 267.035 99.3133L258.529 122.674C258.05 124.112 257.491 125.629 256.852 127.227C256.293 128.824 255.654 130.541 254.935 132.378C254.615 133.299 254.265 134.29 253.884 135.351C253.447 134.138 252.999 132.948 252.539 131.779C251.741 129.543 250.942 127.426 250.144 125.43C249.345 123.353 248.586 121.476 247.867 119.799L239.122 98.4747C238.803 97.5962 238.563 96.7976 238.403 96.0788C238.243 95.36 238.164 94.6811 238.164 94.0422C238.164 92.0455 238.723 90.6079 239.841 89.7294C241.039 88.771 242.836 88.2918 245.232 88.2918H245.591V83.2603H216.839V88.2918H217.199C219.515 88.2918 221.232 88.7311 222.35 89.6096C223.468 90.4881 224.546 92.1653 225.585 94.6412L248.847 149.549L247.388 152.864C245.152 158.055 242.796 161.729 240.32 163.885C237.844 166.041 234.729 167.12 230.976 167.12C230.017 167.12 229.019 167.04 227.981 166.88C226.942 166.8 225.824 166.64 224.626 166.401C224.546 166.72 224.506 167.04 224.506 167.359V168.557C224.506 170.394 224.786 171.952 225.345 173.229C225.984 174.587 226.942 175.625 228.22 176.344Z" fill="#212121"/>
<path fill-rule="evenodd" clip-rule="evenodd" d="M85.2662 146.275C86.4642 147.872 88.5407 148.671 91.4958 148.671C96.9267 148.671 101.2 145.196 104.314 138.248C107.429 131.3 109.346 120.957 110.065 107.22L111.023 89.2502H130.071V133.815C130.071 136.291 129.672 138.168 128.873 139.446C128.154 140.644 127.116 141.443 125.758 141.842C124.48 142.241 123.003 142.441 121.326 142.441H120.966V147.473H151.515V142.441H151.156C149.399 142.441 147.761 142.241 146.244 141.842C144.806 141.443 143.608 140.644 142.65 139.446C141.771 138.168 141.332 136.291 141.332 133.815V96.9174C141.332 94.3616 141.771 92.4848 142.65 91.2868C143.608 90.0888 144.806 89.2901 146.244 88.8908C147.761 88.4915 149.399 88.2918 151.156 88.2918H151.515V83.2603H120.966L101.289 89.2502C101.61 89.4258 101.9 89.6254 102.158 89.8492C103.356 90.8875 103.955 92.8042 103.955 95.5996C103.955 96.4781 103.915 97.3566 103.835 98.2351C103.835 99.1137 103.795 99.9922 103.715 100.871C103.715 101.669 103.675 102.508 103.595 103.386C103.595 104.265 103.556 105.144 103.476 106.022C102.917 114.648 101.958 121.276 100.601 125.909C99.3227 130.461 97.6455 133.616 95.5689 135.373C93.4924 137.13 90.8968 138.008 87.782 138.008C87.1431 138.008 86.4642 137.969 85.7454 137.889C85.1065 137.809 84.4276 137.729 83.7088 137.649C83.629 137.969 83.5491 138.408 83.4692 138.967V140.404C83.4692 142.721 84.0682 144.677 85.2662 146.275Z" fill="#212121"/>
<path d="M404.573 195.779C398.898 187.01 386.155 163.106 380.581 137.639C377.414 123.169 369.67 118.307 369.11 127.733C368.662 135.274 379.513 163.015 384.994 175.943L393.166 196.983L392.978 183.915L404.573 195.779Z" fill="#7F94FF"/>
<path d="M298.322 154.035C309.441 151.802 337.78 143.833 362.192 129.817C376.062 121.854 385.548 123.79 378.408 130.79C372.695 136.39 342.652 148.357 328.345 153.641L305.6 162.758L309.287 156.697L298.322 154.035Z" fill="#7F94FF"/>
<path d="M404.636 151.001C399.48 148.837 387.244 140.772 379.542 125.826C375.167 117.334 369.243 119.784 370.345 127.399C371.226 133.491 382.801 145.977 388.478 151.459L397.219 160.975L395.048 151.184L404.636 151.001Z" fill="#FFAFF7"/>
<path d="M428.274 127.07C420.508 128.633 400.294 130.032 381.565 123.117C370.924 119.188 365.005 124.884 371.017 130.199C375.826 134.451 397.904 136.964 408.341 137.69L425.065 139.656L416.393 133.301L428.274 127.07Z" fill="#B2D0FE"/>
<path d="M333.99 161.253C340.223 157.623 355.522 146.276 366.853 129.924C373.292 120.633 379.601 121.069 377.036 128.519C374.984 134.479 359.674 149.746 352.276 156.634L340.7 168.244L344.855 158.43L333.99 161.253Z" fill="#B2D0FE"/>
<path d="M369.678 193.86C368.957 184.911 369.422 161.394 377.047 138.922C381.379 126.154 376.884 119.708 371.724 127.179C367.596 133.156 363.548 159.177 362.04 171.44L358.919 191.156L365.212 180.488L369.678 193.86Z" fill="#FFAFF7"/>
<path d="M387.467 124.701C384.094 125.926 374.729 122.508 374.729 122.508C374.729 122.508 379.612 113.913 382.985 112.687C386.358 111.461 390.096 113.157 391.334 116.475C392.572 119.792 390.84 123.475 387.467 124.701Z" fill="#7F94FF"/>
<path d="M369.789 130.855C373.162 129.63 378.045 121.034 378.045 121.034C378.045 121.034 368.68 117.616 365.306 118.842C361.933 120.067 360.202 123.75 361.44 127.068C362.678 130.385 366.415 132.081 369.789 130.855Z" fill="#7F94FF"/>
<path d="M386.035 128.537C384.797 125.219 376.072 120.429 376.072 120.429C376.072 120.429 372.577 129.659 373.815 132.978C375.053 136.296 378.793 137.993 382.167 136.767C385.542 135.541 387.274 131.856 386.035 128.537Z" fill="#7F94FF"/>
<path d="M379.007 111.544C380.245 114.862 376.75 124.092 376.75 124.092C376.75 124.092 368.024 119.303 366.786 115.984C365.548 112.665 367.28 108.981 370.654 107.755C374.029 106.528 377.768 108.225 379.007 111.544Z" fill="#7F94FF"/>
<path d="M667.333 78.6915C666.881 80.2812 663.021 82.848 663.021 82.848C663.021 82.848 661.071 78.6996 661.523 77.1099C661.975 75.5202 663.642 74.5855 665.247 75.0223C666.851 75.459 667.785 77.1018 667.333 78.6915Z" fill="#7F94FF"/>
<path d="M664.54 88.5689C664.992 86.9792 663.042 82.8308 663.042 82.8308C663.042 82.8308 659.182 85.3976 658.73 86.9873C658.278 88.577 659.212 90.2198 660.816 90.6565C662.42 91.0933 664.087 90.1586 664.54 88.5689Z" fill="#7F94FF"/>
<path d="M668.722 81.2904C667.116 80.853 662.903 82.8116 662.903 82.8116C662.903 82.8116 665.476 86.6175 667.083 87.0548C668.689 87.4922 670.359 86.5563 670.811 84.9645C671.264 83.3726 670.329 81.7277 668.722 81.2904Z" fill="#7F94FF"/>
<path d="M658.934 78.6109C660.541 79.0482 663.114 82.8541 663.114 82.8541C663.114 82.8541 658.901 84.8127 657.295 84.3754C655.689 83.938 654.753 82.2931 655.206 80.7013C655.659 79.1095 657.328 78.1736 658.934 78.6109Z" fill="#7F94FF"/>
</svg>
