<svg width="750" height="230" viewBox="0 0 750 230" fill="none" xmlns="http://www.w3.org/2000/svg">
<path d="M119.545 85.0171L122.854 93.7749C89.1922 100.949 84.6535 99.1786 84.6535 108.589C87.112 119.303 96.9458 135.514 99.3097 141.197C102.508 148.887 98.4587 156.943 94.2037 161.974C90.7997 165.999 75.0718 170.11 67.6334 171.663L55.7193 174.831L61.8654 168.682L53.3554 164.489C58.9027 165.11 73.3257 164.471 86.6392 156.943C103.281 147.533 78.5073 124.148 77.4672 108.589C76.6351 96.1413 105.172 87.6879 119.545 85.0171Z" fill="#B2D0FE"/>
<path d="M151.766 71.9305C147.727 75.728 135.842 83.805 120.617 85.7328C111.967 86.8282 111.199 92.7696 117.675 94.2452C122.855 95.4257 137.909 89.3384 144.788 86.1472L156.224 81.5783L147.556 80.3377L151.766 71.9305Z" fill="#B2D0FE"/>
<path d="M601.839 147.473V142.441H602.199C603.876 142.441 605.433 142.281 606.871 141.962C608.388 141.562 609.626 140.764 610.585 139.566C611.543 138.368 612.022 136.531 612.022 134.055V96.6778C612.022 94.2019 611.543 92.4049 610.585 91.2868C609.706 90.0888 608.508 89.2901 606.991 88.8908C605.473 88.4915 603.876 88.2918 602.199 88.2918H601.839V83.2603H631.789V88.2918H631.43C629.832 88.2918 628.395 88.4915 627.117 88.8908C625.919 89.2901 624.961 90.0888 624.242 91.2868C623.603 92.4848 623.283 94.2818 623.283 96.6778V111.533H631.07L639.696 101.35C642.012 98.6345 643.489 96.558 644.128 95.1204C644.847 93.6828 645.207 92.4049 645.207 91.2868C645.207 90.1687 644.807 89.4099 644.009 89.0106C643.21 88.5314 641.932 88.2918 640.175 88.2918V83.2603H665.572V88.2918C663.656 88.2918 661.819 88.7311 660.062 89.6096C658.305 90.4083 656.548 91.6462 654.791 93.3234C653.034 94.9207 651.077 96.9573 648.92 99.4331L637.06 113.33L638.019 108.059L654.91 132.617C656.268 134.614 657.586 136.371 658.864 137.889C660.142 139.326 661.499 140.444 662.937 141.243C664.374 142.042 665.932 142.441 667.609 142.441H667.968V147.473H666.291C662.937 147.473 660.142 147.353 657.905 147.113C655.749 146.794 653.872 146.235 652.275 145.436C650.757 144.637 649.32 143.479 647.962 141.962C646.604 140.444 645.087 138.408 643.41 135.852L631.07 117.523H623.283V134.055C623.283 136.451 623.643 138.248 624.362 139.446C625.08 140.644 626.039 141.443 627.237 141.842C628.515 142.241 629.912 142.441 631.43 142.441H631.789V147.473H601.839Z" fill="#212121"/>
<path d="M502.511 148.671C496.202 148.671 490.851 147.433 486.458 144.957C482.145 142.401 478.871 138.648 476.635 133.696C474.398 128.744 473.28 122.595 473.28 115.247C473.28 107.899 474.478 101.789 476.874 96.9176C479.27 91.9659 482.665 88.2521 487.057 85.7763C491.45 83.3004 496.601 82.0625 502.511 82.0625C508.821 82.0625 514.132 83.3004 518.445 85.7763C522.837 88.2521 526.152 91.9659 528.388 96.9176C530.624 101.789 531.742 107.899 531.742 115.247C531.742 122.595 530.544 128.744 528.148 133.696C525.752 138.648 522.358 142.401 517.965 144.957C513.653 147.433 508.501 148.671 502.511 148.671ZM502.511 142.92C506.664 142.92 509.979 141.882 512.455 139.806C514.93 137.649 516.727 134.495 517.846 130.342C518.964 126.188 519.523 121.157 519.523 115.247C519.523 109.257 518.964 104.225 517.846 100.152C516.727 96.079 514.93 93.0041 512.455 90.9276C509.979 88.8511 506.664 87.8129 502.511 87.8129C498.438 87.8129 495.124 88.8511 492.568 90.9276C490.092 93.0041 488.295 96.079 487.177 100.152C486.059 104.225 485.5 109.257 485.5 115.247C485.5 121.157 486.059 126.188 487.177 130.342C488.295 134.495 490.092 137.649 492.568 139.806C495.124 141.882 498.438 142.92 502.511 142.92Z" fill="#212121"/>
<path d="M359.798 147.473V142.441H360.756C362.513 142.441 364.11 142.241 365.548 141.842C367.065 141.443 368.263 140.644 369.142 139.446C370.1 138.168 370.579 136.291 370.579 133.815V89.2502H362.313C360.476 89.2502 359.039 89.5697 358.001 90.2086C356.962 90.8475 356.124 91.9257 355.485 93.4432C354.926 94.8808 354.407 96.9573 353.927 99.6727L353.089 104.345H347.458L348.177 83.2603H404.243L404.962 104.345H399.331L398.493 99.6727C398.013 96.9573 397.454 94.8808 396.815 93.4432C396.256 91.9257 395.458 90.8475 394.42 90.2086C393.381 89.5697 391.944 89.2502 390.107 89.2502H381.841V133.815C381.841 136.291 382.28 138.168 383.158 139.446C384.117 140.644 385.315 141.443 386.752 141.842C388.27 142.241 389.907 142.441 391.664 142.441H392.623V147.473H359.798Z" fill="#212121"/>
<path d="M233.372 177.422C231.296 177.422 229.578 177.063 228.221 176.344C226.943 175.625 225.985 174.587 225.346 173.229C224.787 171.952 224.507 170.394 224.507 168.557C224.507 168.158 224.507 167.759 224.507 167.359C224.507 167.04 224.547 166.72 224.627 166.401C225.825 166.64 226.943 166.8 227.981 166.88C229.019 167.04 230.018 167.12 230.976 167.12C234.73 167.12 237.845 166.041 240.32 163.885C242.796 161.729 245.152 158.055 247.389 152.864L251.342 143.879L249.186 150.348L225.585 94.6412C224.547 92.1653 223.469 90.4881 222.351 89.6096C221.232 88.7311 219.515 88.2918 217.199 88.2918H216.84V83.2603H245.592V88.2918H245.232C242.836 88.2918 241.039 88.771 239.841 89.7294C238.723 90.6079 238.164 92.0455 238.164 94.0422C238.164 94.6811 238.244 95.36 238.404 96.0788C238.563 96.7976 238.803 97.5962 239.122 98.4747L247.868 119.799C248.587 121.476 249.345 123.353 250.144 125.43C250.943 127.426 251.741 129.543 252.54 131.779C253.418 134.015 254.257 136.331 255.056 138.727H252.66C253.538 136.331 254.297 134.215 254.936 132.378C255.655 130.541 256.294 128.824 256.853 127.227C257.492 125.629 258.051 124.112 258.53 122.674L267.036 99.3133C267.435 98.3549 267.715 97.4365 267.874 96.558C268.034 95.5996 268.114 94.8009 268.114 94.162C268.114 92.0855 267.435 90.6079 266.077 89.7294C264.799 88.771 262.843 88.2918 260.207 88.2918H259.848V83.2603H284.526V88.2918H284.167C282.649 88.2918 281.372 88.5314 280.333 89.0106C279.375 89.4898 278.496 90.4083 277.698 91.766C276.899 93.1237 276.021 95.0804 275.062 97.6361L255.056 151.546C252.66 157.935 250.384 163.007 248.227 166.76C246.151 170.594 243.954 173.309 241.638 174.907C239.322 176.584 236.567 177.422 233.372 177.422Z" fill="#212121"/>
<path d="M91.4963 148.671C88.5412 148.671 86.4647 147.872 85.2667 146.275C84.0687 144.677 83.4697 142.721 83.4697 140.404C83.4697 139.925 83.4697 139.446 83.4697 138.967C83.5496 138.408 83.6295 137.969 83.7093 137.649C84.4281 137.729 85.107 137.809 85.7459 137.889C86.4647 137.969 87.1436 138.008 87.7825 138.008C90.8973 138.008 93.4929 137.13 95.5694 135.373C97.646 133.616 99.3231 130.461 100.601 125.909C101.959 121.276 102.917 114.648 103.476 106.022C103.556 105.144 103.596 104.265 103.596 103.386C103.676 102.508 103.716 101.669 103.716 100.871C103.796 99.9922 103.836 99.1137 103.836 98.2351C103.915 97.3566 103.955 96.4781 103.955 95.5996C103.955 92.8042 103.356 90.8875 102.158 89.8492C100.96 88.8109 99.0835 88.2918 96.5278 88.2918H93.5329V83.2603H151.516V88.2918H151.156C149.399 88.2918 147.762 88.4915 146.244 88.8908C144.807 89.2901 143.609 90.0888 142.65 91.2868C141.772 92.4848 141.333 94.3616 141.333 96.9174V133.815C141.333 136.291 141.772 138.168 142.65 139.446C143.609 140.644 144.807 141.443 146.244 141.842C147.762 142.241 149.399 142.441 151.156 142.441H151.516V147.473H120.967V142.441H121.326C123.003 142.441 124.481 142.241 125.759 141.842C127.117 141.443 128.155 140.644 128.874 139.446C129.672 138.168 130.072 136.291 130.072 133.815V89.2502H111.024L110.065 107.22C109.346 120.957 107.43 131.3 104.315 138.248C101.2 145.196 96.9272 148.671 91.4963 148.671Z" fill="#212121"/>
<path fill-rule="evenodd" clip-rule="evenodd" d="M518.295 163.143C541.958 162.654 565.622 162.11 589.285 161.729C613.022 161.322 636.759 161.294 660.46 160.669C683.864 160.044 722.188 156.095 725.183 158.662C727.28 160.459 724.599 163.959 719.859 164.122C677.383 165.509 634.945 166.923 592.47 168.092C578.99 168.473 565.51 168.147 552.957 168.147C552.957 168.147 537.334 168.545 527.814 169.743C518.295 170.941 513.139 173.081 509.246 173.637C503.347 174.478 499.362 174.191 497.594 172.334C495.826 170.477 494.78 166.434 498.742 163.524C523.479 145.251 548.18 126.924 572.658 108.461C584.841 99.2704 615.268 79.6796 613.471 76.8989C611.674 74.1181 598.024 82.6291 593.803 84.886C555.179 105.579 515.332 124.939 474.264 142.886C457.415 150.255 440.597 156.754 423.859 164.258C419.696 166.125 414.866 170.941 410.711 172.139C407.021 173.203 380.167 176.467 377.167 164.965C374.168 153.463 384.924 146.96 390.914 142.891C392.395 141.885 398.497 138.78 400.238 137.991C411.718 132.79 416.67 132.109 426.79 140.167C427.604 140.765 428.752 141.89 430.747 142.886C432.742 143.882 475.968 114.933 475.968 114.933C475.968 114.933 477.749 113.584 475.965 112.839C474.192 112.097 470.184 112.184 467.662 112.239L467.615 112.24C454.543 112.457 441.38 113.573 428.308 113.763C424.827 113.818 420.878 115.256 419.396 111.042C419.031 110.003 421.493 108.921 424.679 108.57C448.448 105.95 494.691 103.554 495.187 106.503C495.965 111.126 491.706 112.893 488.41 114.851C471.598 124.885 454.638 134.837 437.751 144.816C433.715 147.209 429.456 149.493 428.752 155.312C433.159 153.762 436.418 152.892 439.306 151.614C465.932 139.867 492.743 128.365 518.962 116.129C541.032 105.823 562.363 94.6749 584.063 83.9343C598.654 76.7013 613.281 69.5227 627.909 62.3714C629.946 61.3653 632.019 60.1416 634.278 59.7338C636.315 59.3803 639.685 58.929 640.907 60.2504C642.129 61.5718 640.907 64.0029 639.685 65.0905C636.056 68.2991 631.723 71.0999 627.724 74.1181C610.43 87.2789 593.136 100.44 575.879 113.655L575.863 113.667L575.86 113.67C558.35 127.097 545.176 136.467 527.814 149.976C522.723 153.938 516.925 159.391 514.666 161.729C512.407 164.068 516.434 163.182 518.295 163.143ZM411.909 157.164C407.132 160.781 399.899 164.317 395.72 164.449C388.818 164.666 386.499 158.63 390.091 154.061C394.387 148.514 398.132 145.484 404.122 142.886C408.614 140.937 413.718 140.493 414.866 141.281C416.643 142.478 417.791 144.816 417.791 146.529C417.791 148.881 414.612 155.098 411.909 157.164Z" fill="#FFCD29"/>
<path fill-rule="evenodd" clip-rule="evenodd" d="M131.99 118.97C133.906 117.34 137.16 114.698 138.603 113.664C144.735 109.248 150.609 105.28 156.472 101.318C162.604 97.1751 168.724 93.0397 175.118 88.4079C178.412 86.0212 184.402 80.621 183.526 79.5154C182.458 78.6082 181.672 79.0583 180.311 79.8386C180.003 80.0147 179.667 80.2077 179.291 80.4056C178.866 80.6292 177.325 81.4254 176.839 81.6738C174.16 83.0436 171.693 84.4401 169.137 85.8873C167.685 86.7097 166.203 87.5484 164.637 88.4079C152.877 94.8638 139.799 101.398 126 105.779C123.305 106.634 120.213 107.324 117.326 107.868C115.735 108.168 114.919 107.241 115.735 106.263C116.626 105.195 118.124 103.806 119.703 102.343C123.435 98.8824 127.616 95.0051 125.29 93.971C120.104 91.6662 110.713 95.7025 104.636 98.314C104.396 98.4174 104.161 98.5185 103.931 98.617C100.135 100.238 96.4988 102.055 92.8658 103.869C89.0608 105.769 85.2599 107.667 81.2846 109.338C69.2213 114.372 56.9361 119.106 44.5028 123.677C43.9494 123.879 43.399 124.071 42.8575 124.259C38.6552 125.719 34.9917 126.992 34.6967 131.596C34.4747 134.97 26.5927 136.571 25.5569 133.201C24.0598 128.33 31.5513 120.467 42.7635 117.582C52.5325 115.079 58.9841 110.992 62.4866 101.284C65.989 91.5749 102.228 69.1126 104.079 68.4138C104.35 68.3115 104.652 68.1839 104.973 68.0487C106.843 67.2601 109.328 66.2122 109.716 68.4138C110.063 70.382 106.262 72.849 103.635 74.4272C101.665 75.6003 99.671 76.7502 97.678 77.8997C93.5693 80.2694 89.4641 82.6372 85.5769 85.2023C77.6951 90.3723 73.8468 97.0932 71.8116 106.644C74.8783 105.295 77.6286 104.089 80.1829 102.969L80.1886 102.967L80.1926 102.965C84.2301 101.194 87.7782 99.6387 91.3125 98.0727C92.2507 97.6546 93.1859 97.233 94.1205 96.8116C102.917 92.8453 111.001 86.6744 121.805 85.8873C129.021 85.3431 135.532 88.0866 138.307 95.1612C140.079 94.3257 142.977 93.4483 145.835 92.5829C148.578 91.7526 151.284 90.9334 152.924 90.1726L173.048 79.5154C176.122 77.9363 179.98 75.5752 183.533 73.401C185.367 72.2784 187.12 71.2056 188.642 70.3161C193.11 67.7039 196.093 66.064 200.756 63.6695C205.84 61.7473 209.654 57.5253 214.164 52.5344C215.444 51.1182 216.779 49.64 218.216 48.1349L218.571 47.7628C228.192 37.6951 238.479 27.981 248.951 18.3759C253.355 14.3216 259.238 11.5462 267.009 12.0359C273.189 12.4441 276.408 14.7842 274.336 19.1106C272.633 22.6207 269.414 26.0763 265.677 28.6069L246.888 40.7785C238.659 45.9985 230.431 51.218 222.604 56.7421C215.522 61.7536 209.044 67.2327 205.561 70.3161C202.155 73.1965 198.75 76.077 195.256 78.8897C188.399 84.412 181.422 89.8606 174.443 95.3007L173.048 96.3883L173.047 96.389L173.029 96.4028L173.022 96.408C170.984 97.9967 168.946 99.585 166.911 101.175C164.188 103.305 161.476 105.334 158.786 107.346C154.02 110.912 149.323 114.427 144.757 118.358C143.82 119.165 142.694 120.024 141.543 120.901C137.547 123.949 133.259 127.219 135.584 129.312C138.246 131.708 153.255 127.814 162.239 125.119C179.614 120.954 196.103 116.737 212.582 112.522C229.587 108.172 246.581 103.826 264.527 99.5421C271.54 97.8577 278.855 96.8149 286.121 95.7792L287.211 95.6238C302.789 93.447 310.556 100.198 305.675 111.46C302.834 118.017 295.759 126.832 291.09 132.648C287.74 136.822 285.629 139.452 287.211 138.596C288.798 137.737 294.356 134.823 301.23 131.219L301.238 131.215L301.242 131.212C310.762 126.22 316.8 123.608 324.318 119.596C325.565 118.929 326.802 118.245 328.039 117.562L328.04 117.561L328.044 117.559C332.055 115.342 336.07 113.123 340.452 111.46C351.59 107.297 356.806 109.357 357.546 118.526C358.582 131.451 354.86 143.646 345.646 154.639C329.957 173.36 320.96 183.643 297.426 197.656C295.688 198.692 294.043 199.821 292.399 200.949C290.156 202.488 287.913 204.027 285.437 205.33C282.18 207.044 278.332 208.568 274.483 209.085C271.856 209.438 268.193 208.432 266.084 207.098C263.049 205.166 262.901 202.282 265.677 199.806C268.452 197.33 271.407 197.375 275.168 197.821C276.028 197.923 276.563 198.277 277.095 198.63C277.858 199.135 278.618 199.638 280.33 199.398C282.223 199.132 284.482 197.943 286.572 196.843C287.691 196.254 288.762 195.69 289.702 195.308C292.927 193.545 294.855 191.987 297.083 190.186C298.164 189.313 299.315 188.382 300.719 187.344C302.671 185.9 304.53 184.538 306.306 183.237C321.362 172.206 330.489 165.519 340.452 149.772C346.632 139.976 353.898 121.943 349.003 117.137C346.111 114.297 330.505 120.391 319.352 127.322C309.78 133.27 311.831 131.705 304.276 135.789C303.028 136.463 301.682 137.19 300.196 137.997C295.41 140.596 291.159 142.863 287.066 145.046C282.196 147.644 277.547 150.124 272.483 152.901C268.76 154.946 266.43 155.783 264.454 156.493C261.619 157.512 259.512 158.269 255.063 161.957C249.399 166.634 245.188 170.741 240.512 177.822C240.512 177.822 237.927 181.611 235.836 183.643C233.17 186.235 233.324 186.213 230.11 188.551C229.349 189.104 226.98 190.736 225.967 191.481C220.679 195.372 212.939 198.314 205.96 200.704C195.524 203.398 189.863 203.806 184.682 199.67C179.576 195.561 179.65 189.793 186.162 184.106C198.115 173.63 212.102 164.324 229.272 159.29C255.693 151.562 275.83 137.34 282.622 129.582C288.857 122.461 291.347 118.119 294.117 113.288C294.365 112.856 294.615 112.419 294.87 111.977C297.979 106.589 297.407 100.097 289.414 100.56C286.195 100.75 278.446 102.154 275.338 102.889C268.009 104.577 261.32 106.177 254.683 107.765C248.046 109.353 236.802 112.006 230.524 113.438C224.246 114.871 217.747 116.818 211.234 118.77C204.387 120.821 197.523 122.878 190.88 124.348C187.344 125.13 181.56 126.567 175.311 128.119C173.832 128.487 172.261 128.898 170.575 129.339C165.138 130.761 158.504 132.495 149.89 134.099C138.603 136.2 136.371 135.901 130.681 135.13C127.892 134.752 121.995 132.307 122.295 129.312C122.543 126.84 124.782 124.98 129.026 121.455C131.054 119.77 131.382 119.5 131.382 119.5C131.382 119.5 130.99 119.821 131.99 118.97ZM238.627 36.9059C255.168 28.8517 266.053 20.594 262.679 18.2942C260.175 16.5874 244.955 29.015 238.627 36.9059ZM191.047 194.772C187.286 187.115 224.24 166.185 237.711 165.023C237.711 165.023 237.112 169.516 232.5 174.021C231.947 174.561 231.793 174.955 231.525 175.246C230.958 175.862 230.172 177.209 226.815 180.063C223.895 182.547 221.896 183.643 218.666 185.908C216.488 187.436 214.154 188.934 211.031 190.665C205.1 193.954 192.976 198.196 191.047 194.772Z" fill="#FFCD29"/>
<path d="M601.839 147.473V142.441H602.198C603.875 142.441 605.433 142.281 606.87 141.962C608.388 141.562 609.626 140.764 610.584 139.566C611.543 138.368 612.022 136.531 612.022 134.055V96.6778C612.022 94.2019 611.543 92.4049 610.584 91.2868C609.706 90.0888 608.508 89.2901 606.99 88.8908C605.473 88.4915 603.875 88.2918 602.198 88.2918H601.839V83.2603H631.789V88.2918H631.429C629.832 88.2918 628.394 88.4915 627.116 88.8908C625.918 89.2901 624.96 90.0888 624.241 91.2868C623.602 92.4848 623.283 94.2818 623.283 96.6778V111.533H631.07L639.695 101.35C642.011 98.6345 643.489 96.558 644.128 95.1204C644.847 93.6828 645.206 92.4049 645.206 91.2868C645.206 90.1687 644.807 89.4099 644.008 89.0106C643.209 88.5314 641.932 88.2918 640.175 88.2918V83.2603H665.572V88.2918C663.655 88.2918 661.818 88.7311 660.061 89.6096C658.304 90.4083 656.547 91.6462 654.79 93.3234C653.033 94.9207 651.076 96.9573 648.92 99.4331L637.06 113.33L638.018 108.059L654.91 132.617C656.268 134.614 657.585 136.371 658.863 137.889C660.141 139.326 661.499 140.444 662.936 141.243C664.374 142.042 665.931 142.441 667.609 142.441H667.968V147.473H666.291C662.936 147.473 660.141 147.353 657.905 147.113C655.748 146.794 653.872 146.235 652.274 145.436C650.757 144.637 649.319 143.479 647.962 141.962C646.604 140.444 645.086 138.408 643.409 135.852L631.07 117.523H623.283V134.055C623.283 136.451 623.642 138.248 624.361 139.446C625.08 140.644 626.038 141.443 627.236 141.842C628.514 142.241 629.912 142.441 631.429 142.441H631.789V147.473H601.839Z" fill="#212121"/>
<path fill-rule="evenodd" clip-rule="evenodd" d="M502.51 148.671C496.201 148.671 490.85 147.433 486.457 144.957C482.144 142.401 478.87 138.648 476.634 133.696C475.281 130.7 474.337 127.266 473.803 123.393L485.507 116.505C485.582 121.874 486.138 126.486 487.176 130.342C488.294 134.495 490.091 137.649 492.567 139.806C495.123 141.882 498.437 142.92 502.51 142.92C506.663 142.92 509.978 141.882 512.454 139.806C514.929 137.649 516.726 134.495 517.845 130.342C518.343 128.489 518.731 126.462 519.007 124.261L531.504 120.668C531.047 125.673 529.928 130.015 528.147 133.696C525.751 138.648 522.357 142.401 517.964 144.957C513.652 147.433 508.5 148.671 502.51 148.671ZM531.175 106.817C530.634 103.088 529.704 99.7878 528.387 96.9176C526.151 91.9659 522.836 88.2521 518.444 85.7763C514.131 83.3004 508.82 82.0625 502.51 82.0625C496.6 82.0625 491.449 83.3004 487.056 85.7763C482.664 88.2521 479.269 91.9659 476.873 96.9176C475.64 99.4249 474.751 102.099 474.152 105.262C478.785 105.081 481.38 105.031 486.154 105.177C486.421 103.271 486.735 101.76 487.176 100.152C488.294 96.079 490.091 93.0041 492.567 90.9276C495.123 88.8511 498.437 87.8129 502.51 87.8129C506.663 87.8129 509.978 88.8511 512.454 90.9276C514.929 93.0041 516.726 96.079 517.845 100.152C518.852 103.82 519.405 108.266 519.505 113.489L531.175 106.817Z" fill="#212121"/>
<path fill-rule="evenodd" clip-rule="evenodd" d="M359.797 142.441V147.473H384.464C386.799 145.278 388.262 144.163 391.228 142.437C389.635 142.406 388.143 142.208 386.752 141.842C385.314 141.443 384.116 140.644 383.158 139.446C382.279 138.168 381.84 136.291 381.84 133.815V89.2502H390.106C391.943 89.2502 393.381 89.5697 394.419 90.2086C395.457 90.8475 396.256 91.9257 396.815 93.4432C397.454 94.8808 398.013 96.9573 398.492 99.6727L399.331 104.345H404.961L404.243 83.2603H348.177L347.458 104.345H353.088L353.927 99.6727C354.406 96.9573 354.925 94.8808 355.484 93.4432C356.123 91.9257 356.962 90.8475 358 90.2086C359.038 89.5697 360.476 89.2502 362.313 89.2502H370.579V133.815C370.579 136.291 370.1 138.168 369.141 139.446C368.263 140.644 367.065 141.443 365.547 141.842C364.11 142.241 362.513 142.441 360.755 142.441H359.797Z" fill="#212121"/>
<path d="M392.622 142.441H391.664C391.518 142.441 391.373 142.44 391.228 142.437C388.262 144.163 386.799 145.278 384.464 147.473H392.622V142.441Z" fill="#212121"/>
<path fill-rule="evenodd" clip-rule="evenodd" d="M248.847 149.549L248.193 151.034L256.722 147.053L275.062 97.6361C276.02 95.0804 276.899 93.1237 277.697 91.766C278.496 90.4083 279.374 89.4898 280.333 89.0106C281.371 88.5314 282.649 88.2918 284.166 88.2918H284.526V83.2603H259.847V88.2918H260.207C262.842 88.2918 264.799 88.771 266.077 89.7294C267.435 90.6079 268.113 92.0855 268.113 94.162C268.113 94.8009 268.034 95.5996 267.874 96.558C267.714 97.4365 267.435 98.3549 267.035 99.3133L258.529 122.674C258.05 124.112 257.491 125.629 256.852 127.227C256.293 128.824 255.654 130.541 254.935 132.378C254.615 133.299 254.265 134.29 253.884 135.351C253.447 134.138 252.999 132.948 252.539 131.779C251.741 129.543 250.942 127.426 250.144 125.43C249.345 123.353 248.586 121.476 247.867 119.799L239.122 98.4747C238.803 97.5962 238.563 96.7976 238.403 96.0788C238.243 95.36 238.164 94.6811 238.164 94.0422C238.164 92.0455 238.723 90.6079 239.841 89.7294C241.039 88.771 242.836 88.2918 245.232 88.2918H245.591V83.2603H216.839V88.2918H217.199C219.515 88.2918 221.232 88.7311 222.35 89.6096C223.468 90.4881 224.546 92.1653 225.585 94.6412L248.847 149.549Z" fill="#212121"/>
<path d="M224.506 167.359V168.557C224.506 169.42 224.568 170.221 224.691 170.96L229.344 167.046C228.897 167.006 228.443 166.951 227.981 166.88C226.942 166.8 225.824 166.64 224.626 166.401C224.546 166.72 224.506 167.04 224.506 167.359Z" fill="#212121"/>
<path d="M141.332 96.9174C141.332 94.963 141.358 93.7051 141.871 92.5447C137.565 94.6979 135.194 95.3998 131.41 96.5198C130.983 96.6461 130.538 96.7777 130.071 96.9174V103.327C134.342 101.606 136.798 100.575 141.332 98.5346V96.9174Z" fill="#212121"/>
<path fill-rule="evenodd" clip-rule="evenodd" d="M85.2662 146.275C86.4642 147.872 88.5407 148.671 91.4958 148.671C96.9267 148.671 101.2 145.196 104.314 138.248C107.429 131.3 109.346 120.957 110.065 107.22L111.023 89.2502H130.071V96.9174C130.538 96.7777 130.983 96.6461 131.41 96.5198C135.194 95.3998 137.565 94.6979 141.871 92.5447C142.029 92.1876 142.443 91.5687 142.65 91.2868C143.608 90.0888 144.806 89.2901 146.244 88.8908C147.761 88.4915 149.399 88.2918 151.156 88.2918H151.515V83.2603H93.5324V88.2918H96.5273C99.0831 88.2918 100.96 88.8109 102.158 89.8492C103.356 90.8875 103.955 92.8042 103.955 95.5996C103.955 96.4781 103.915 97.3566 103.835 98.2351C103.835 99.1137 103.795 99.9922 103.715 100.871C103.715 101.669 103.675 102.508 103.595 103.386C103.595 104.265 103.556 105.144 103.476 106.022C102.917 114.648 101.958 121.276 100.601 125.909C99.3227 130.461 97.6455 133.616 95.5689 135.373C93.4924 137.13 90.8968 138.008 87.782 138.008C87.1431 138.008 86.4642 137.969 85.7454 137.889C85.1065 137.809 84.4276 137.729 83.7088 137.649C83.629 137.969 83.5491 138.408 83.4692 138.967V140.404C83.4692 142.721 84.0682 144.677 85.2662 146.275ZM141.332 107.22V98.5346C136.798 100.575 134.342 101.606 130.071 103.327V116.055L141.332 107.22Z" fill="#212121"/>
<path d="M404.573 195.779C398.898 187.01 386.155 163.106 380.581 137.639C377.414 123.169 369.67 118.307 369.11 127.733C368.662 135.274 379.513 163.015 384.994 175.943L393.166 196.983L392.978 183.915L404.573 195.779Z" fill="#7F94FF"/>
<path d="M298.322 154.035C309.441 151.802 337.78 143.833 362.192 129.817C376.062 121.854 385.548 123.79 378.408 130.79C372.695 136.39 342.652 148.357 328.345 153.641L305.6 162.758L309.287 156.697L298.322 154.035Z" fill="#7F94FF"/>
<path d="M404.636 151.001C399.48 148.837 387.244 140.772 379.542 125.826C375.167 117.334 369.243 119.784 370.345 127.399C371.226 133.491 382.801 145.977 388.478 151.459L397.219 160.975L395.048 151.184L404.636 151.001Z" fill="#FFAFF7"/>
<path d="M428.274 127.07C420.508 128.633 400.294 130.032 381.565 123.117C370.924 119.188 365.005 124.884 371.017 130.199C375.826 134.451 397.904 136.964 408.341 137.69L425.065 139.656L416.393 133.301L428.274 127.07Z" fill="#B2D0FE"/>
<path d="M333.99 161.253C340.223 157.623 355.522 146.276 366.853 129.924C373.292 120.633 379.601 121.069 377.036 128.519C374.984 134.479 359.674 149.746 352.276 156.634L340.7 168.244L344.855 158.43L333.99 161.253Z" fill="#B2D0FE"/>
<path d="M369.678 193.86C368.957 184.911 369.422 161.394 377.047 138.922C381.379 126.154 376.884 119.708 371.724 127.179C367.596 133.156 363.548 159.177 362.04 171.44L358.919 191.156L365.212 180.488L369.678 193.86Z" fill="#FFAFF7"/>
<path d="M387.467 124.701C384.094 125.926 374.729 122.508 374.729 122.508C374.729 122.508 379.612 113.913 382.985 112.687C386.358 111.461 390.096 113.157 391.334 116.475C392.572 119.792 390.84 123.475 387.467 124.701Z" fill="#7F94FF"/>
<path d="M369.789 130.855C373.162 129.63 378.045 121.034 378.045 121.034C378.045 121.034 368.68 117.616 365.306 118.842C361.933 120.067 360.202 123.75 361.44 127.068C362.678 130.385 366.415 132.081 369.789 130.855Z" fill="#7F94FF"/>
<path d="M386.035 128.537C384.797 125.219 376.072 120.429 376.072 120.429C376.072 120.429 372.577 129.659 373.815 132.978C375.053 136.296 378.793 137.993 382.167 136.767C385.542 135.541 387.274 131.856 386.035 128.537Z" fill="#7F94FF"/>
<path d="M379.007 111.544C380.245 114.862 376.75 124.092 376.75 124.092C376.75 124.092 368.024 119.303 366.786 115.984C365.548 112.665 367.28 108.981 370.654 107.755C374.029 106.528 377.768 108.225 379.007 111.544Z" fill="#7F94FF"/>
<path d="M667.333 78.6915C666.881 80.2812 663.021 82.848 663.021 82.848C663.021 82.848 661.071 78.6996 661.523 77.1099C661.975 75.5202 663.642 74.5855 665.247 75.0223C666.851 75.459 667.785 77.1018 667.333 78.6915Z" fill="#7F94FF"/>
<path d="M664.54 88.5689C664.992 86.9792 663.042 82.8308 663.042 82.8308C663.042 82.8308 659.182 85.3976 658.73 86.9873C658.278 88.577 659.212 90.2198 660.816 90.6565C662.42 91.0933 664.087 90.1586 664.54 88.5689Z" fill="#7F94FF"/>
<path d="M668.722 81.2904C667.116 80.853 662.903 82.8116 662.903 82.8116C662.903 82.8116 665.476 86.6175 667.083 87.0548C668.689 87.4922 670.359 86.5563 670.811 84.9645C671.264 83.3726 670.329 81.7277 668.722 81.2904Z" fill="#7F94FF"/>
<path d="M658.934 78.6109C660.541 79.0482 663.114 82.8541 663.114 82.8541C663.114 82.8541 658.901 84.8127 657.295 84.3754C655.689 83.938 654.753 82.2931 655.206 80.7013C655.659 79.1095 657.328 78.1736 658.934 78.6109Z" fill="#7F94FF"/>
</svg>
