<svg width="750" height="230" viewBox="0 0 750 230" fill="none" xmlns="http://www.w3.org/2000/svg">
<path d="M601.838 147.473V142.441H602.197C603.874 142.441 605.432 142.281 606.869 141.962C608.387 141.562 609.625 140.764 610.583 139.566C611.542 138.368 612.021 136.531 612.021 134.055V96.6778C612.021 94.2019 611.542 92.4049 610.583 91.2868C609.705 90.0888 608.507 89.2901 606.989 88.8908C605.472 88.4915 603.874 88.2918 602.197 88.2918H601.838V83.2603H631.788V88.2918H631.428C629.831 88.2918 628.393 88.4915 627.116 88.8908C625.918 89.2901 624.959 90.0888 624.24 91.2868C623.601 92.4848 623.282 94.2818 623.282 96.6778V111.533H631.069L639.694 101.35C642.011 98.6345 643.488 96.558 644.127 95.1204C644.846 93.6828 645.205 92.4049 645.205 91.2868C645.205 90.1687 644.806 89.4099 644.007 89.0106C643.209 88.5314 641.931 88.2918 640.174 88.2918V83.2603H665.571V88.2918C663.654 88.2918 661.817 88.7311 660.06 89.6096C658.303 90.4083 656.546 91.6462 654.789 93.3234C653.032 94.9207 651.075 96.9573 648.919 99.4331L637.059 113.33L638.017 108.059L654.909 132.617C656.267 134.614 657.584 136.371 658.862 137.889C660.14 139.326 661.498 140.444 662.935 141.243C664.373 142.042 665.93 142.441 667.608 142.441H667.967V147.473H666.29C662.935 147.473 660.14 147.353 657.904 147.113C655.747 146.794 653.871 146.235 652.273 145.436C650.756 144.637 649.318 143.479 647.961 141.962C646.603 140.444 645.085 138.408 643.408 135.852L631.069 117.523H623.282V134.055C623.282 136.451 623.641 138.248 624.36 139.446C625.079 140.644 626.037 141.443 627.235 141.842C628.513 142.241 629.911 142.441 631.428 142.441H631.788V147.473H601.838Z" fill="#212121"/>
<path d="M502.51 148.671C496.2 148.671 490.849 147.433 486.456 144.957C482.144 142.401 478.869 138.648 476.633 133.696C474.397 128.744 473.279 122.595 473.279 115.247C473.279 107.899 474.477 101.789 476.873 96.9176C479.269 91.9659 482.663 88.2521 487.055 85.7763C491.448 83.3004 496.599 82.0625 502.51 82.0625C508.819 82.0625 514.13 83.3004 518.443 85.7763C522.835 88.2521 526.15 91.9659 528.386 96.9176C530.622 101.789 531.741 107.899 531.741 115.247C531.741 122.595 530.543 128.744 528.147 133.696C525.751 138.648 522.356 142.401 517.964 144.957C513.651 147.433 508.499 148.671 502.51 148.671ZM502.51 142.92C506.663 142.92 509.977 141.882 512.453 139.806C514.929 137.649 516.726 134.495 517.844 130.342C518.962 126.188 519.521 121.157 519.521 115.247C519.521 109.257 518.962 104.225 517.844 100.152C516.726 96.079 514.929 93.0041 512.453 90.9276C509.977 88.8511 506.663 87.8129 502.51 87.8129C498.436 87.8129 495.122 88.8511 492.566 90.9276C490.09 93.0041 488.293 96.079 487.175 100.152C486.057 104.225 485.498 109.257 485.498 115.247C485.498 121.157 486.057 126.188 487.175 130.342C488.293 134.495 490.09 137.649 492.566 139.806C495.122 141.882 498.436 142.92 502.51 142.92Z" fill="#212121"/>
<path d="M359.796 147.473V142.441H360.754C362.512 142.441 364.109 142.241 365.546 141.842C367.064 141.443 368.262 140.644 369.14 139.446C370.099 138.168 370.578 136.291 370.578 133.815V89.2502H362.312C360.475 89.2502 359.037 89.5697 357.999 90.2086C356.961 90.8475 356.122 91.9257 355.483 93.4432C354.924 94.8808 354.405 96.9573 353.926 99.6727L353.087 104.345H347.457L348.176 83.2603H404.242L404.96 104.345H399.33L398.491 99.6727C398.012 96.9573 397.453 94.8808 396.814 93.4432C396.255 91.9257 395.456 90.8475 394.418 90.2086C393.38 89.5697 391.942 89.2502 390.105 89.2502H381.839V133.815C381.839 136.291 382.278 138.168 383.157 139.446C384.115 140.644 385.313 141.443 386.751 141.842C388.268 142.241 389.906 142.441 391.663 142.441H392.621V147.473H359.796Z" fill="#212121"/>
<path d="M233.371 177.422C231.294 177.422 229.577 177.063 228.219 176.344C226.941 175.625 225.983 174.587 225.344 173.229C224.785 171.952 224.506 170.394 224.506 168.557C224.506 168.158 224.506 167.759 224.506 167.359C224.506 167.04 224.545 166.72 224.625 166.401C225.823 166.64 226.941 166.8 227.98 166.88C229.018 167.04 230.016 167.12 230.975 167.12C234.728 167.12 237.843 166.041 240.319 163.885C242.795 161.729 245.151 158.055 247.387 152.864L251.341 143.879L249.184 150.348L225.584 94.6412C224.545 92.1653 223.467 90.4881 222.349 89.6096C221.231 88.7311 219.514 88.2918 217.198 88.2918H216.838V83.2603H245.59V88.2918H245.231C242.835 88.2918 241.038 88.771 239.84 89.7294C238.722 90.6079 238.163 92.0455 238.163 94.0422C238.163 94.6811 238.242 95.36 238.402 96.0788C238.562 96.7976 238.802 97.5962 239.121 98.4747L247.866 119.799C248.585 121.476 249.344 123.353 250.143 125.43C250.941 127.426 251.74 129.543 252.539 131.779C253.417 134.015 254.256 136.331 255.054 138.727H252.658C253.537 136.331 254.296 134.215 254.934 132.378C255.653 130.541 256.292 128.824 256.851 127.227C257.49 125.629 258.049 124.112 258.528 122.674L267.034 99.3133C267.434 98.3549 267.713 97.4365 267.873 96.558C268.033 95.5996 268.112 94.8009 268.112 94.162C268.112 92.0855 267.434 90.6079 266.076 89.7294C264.798 88.771 262.841 88.2918 260.206 88.2918H259.846V83.2603H284.525V88.2918H284.165C282.648 88.2918 281.37 88.5314 280.332 89.0106C279.373 89.4898 278.495 90.4083 277.696 91.766C276.898 93.1237 276.019 95.0804 275.061 97.6361L255.054 151.546C252.658 157.935 250.382 163.007 248.226 166.76C246.149 170.594 243.953 173.309 241.637 174.907C239.321 176.584 236.565 177.422 233.371 177.422Z" fill="#212121"/>
<path d="M91.4948 148.671C88.5398 148.671 86.4632 147.872 85.2652 146.275C84.0673 144.677 83.4683 142.721 83.4683 140.404C83.4683 139.925 83.4683 139.446 83.4683 138.967C83.5481 138.408 83.628 137.969 83.7079 137.649C84.4267 137.729 85.1055 137.809 85.7444 137.889C86.4632 137.969 87.1421 138.008 87.781 138.008C90.8958 138.008 93.4915 137.13 95.568 135.373C97.6445 133.616 99.3217 130.461 100.6 125.909C101.957 121.276 102.916 114.648 103.475 106.022C103.555 105.144 103.595 104.265 103.595 103.386C103.674 102.508 103.714 101.669 103.714 100.871C103.794 99.9922 103.834 99.1137 103.834 98.2351C103.914 97.3566 103.954 96.4781 103.954 95.5996C103.954 92.8042 103.355 90.8875 102.157 89.8492C100.959 88.8109 99.0821 88.2918 96.5264 88.2918H93.5314V83.2603H151.514V88.2918H151.155C149.398 88.2918 147.76 88.4915 146.243 88.8908C144.805 89.2901 143.607 90.0888 142.649 91.2868C141.77 92.4848 141.331 94.3616 141.331 96.9174V133.815C141.331 136.291 141.77 138.168 142.649 139.446C143.607 140.644 144.805 141.443 146.243 141.842C147.76 142.241 149.398 142.441 151.155 142.441H151.514V147.473H120.965V142.441H121.325C123.002 142.441 124.479 142.241 125.757 141.842C127.115 141.443 128.153 140.644 128.872 139.446C129.671 138.168 130.07 136.291 130.07 133.815V89.2502H111.022L110.064 107.22C109.345 120.957 107.428 131.3 104.313 138.248C101.199 145.196 96.9257 148.671 91.4948 148.671Z" fill="#212121"/>
<path fill-rule="evenodd" clip-rule="evenodd" d="M27.4393 162.388C32.5958 166.273 42.1723 163.537 48.0195 161.105C70.4873 151.612 93.1393 142.357 115.193 132.358C149.355 116.852 183.405 98.0205 217.337 82.2789C222.091 80.0735 232.922 77.729 232.922 84.4931C232.922 89.8028 205.398 109.466 192.368 121.492C179.477 133.349 162.323 143.831 149.431 156.025C174.109 150.891 197.407 140.055 219.507 131.374C221.401 130.63 222.053 132.49 222.053 133.168C222.053 135.839 220.442 137.661 218.554 139.147C213.029 143.539 206.584 147.289 201.197 151.748C197.79 154.585 190.243 164.457 188.292 168.953C189.49 171.747 215.562 165.226 225.46 163.064C281.952 150.7 264.23 155.102 320.63 142.468C325.97 141.286 331.357 140.104 336.79 139.124C357.547 135.425 371.091 124.558 384.713 113.628L385.271 113.181C390.704 108.823 396.643 104.601 403.273 101.29C410.593 97.608 418.742 98.4863 422.748 102.135C426.984 105.986 426.155 113.248 419.203 117.133C410.437 123.278 401.109 127.47 390.842 129.632C355.716 134.418 333.791 156.468 322.313 166.216C316.677 171.003 314.425 175.84 313.182 177.901C312.683 178.727 312.056 180.577 312.48 182.904C314.046 188.018 328.779 189.018 338.585 187.261C359.35 183.545 376.247 174.458 393.834 166.216C432.923 147.907 469.203 126.794 505.253 105.479C508.383 103.621 514.863 101.583 515.343 99.7316C515.951 97.3896 509.653 97.0362 506.954 95.0006C502.827 91.8878 501.109 86.6632 502.26 81.9339C504.562 72.6443 512.389 65.5166 520.354 58.8619C533.17 48.1337 546.997 38.0238 560.788 27.9407L562.665 26.5678C570.861 20.5887 586.791 18.5957 593.651 22.075C600.833 25.6895 603.504 36.8033 596.92 44.9106C590.75 52.4774 582.325 59.1322 574.314 65.7869C566.395 72.3741 557.739 78.4545 549.36 84.7715C547.946 86.0709 548.846 87.6002 551.386 86.9334C556.404 85.616 564.161 82.6603 571.948 80.5638C583.246 77.5222 593.775 74.1942 598.118 80.5638C602.461 86.9334 565.595 137.97 572.547 146.753C576.461 151.685 584.025 153.578 589.918 153.105C607.589 151.351 616.274 150.347 628.853 148.55L658.957 143.446C674.841 140.474 686.029 133.616 696.664 125.475C700.532 122.502 704.169 119.395 708.129 116.489C710.246 114.902 712.595 113.348 715.173 112.199C722.954 108.754 736.674 109.193 739.068 113.247C742.705 119.428 736.766 123.482 730.873 126.151C718.856 131.589 706.563 136.96 693.58 140.913C685.292 143.446 678.34 146.419 672.493 151.351C668.165 154.999 662.825 157.972 658.174 161.417C652.616 165.536 644.79 169.527 648.506 176.112C650.753 180.095 666.6 177.497 674.703 174.49C686.642 170.045 698.144 165.053 709.677 160.048L709.678 160.047L710.569 159.661C714.252 158.073 722.171 156.654 722.171 160.776C722.171 162.979 714.849 165.956 707.852 168.241C696.802 172.801 685.753 177.463 674.104 181.145C667.336 183.273 659.418 184.76 652.143 184.489C637.963 183.915 632.99 175.774 641.047 167.025C645.743 161.924 651.821 157.499 658.681 151.554L595.032 158.645C590.52 159.085 585.916 159.22 581.312 159.253C576.708 159.287 568.778 161.417 562.665 153.105C551.386 137.768 596.908 88.0233 591.217 83.8594C587.923 81.4487 545.216 97.1689 526.385 101.56C523.209 102.304 520.768 104.634 517.96 106.256C488.678 123.011 459.765 140.104 430.022 156.386C414.163 163.833 400.281 169.222 384.351 177.228C377.629 180.606 363.646 187.539 352.117 190.622C338.205 194.343 308.69 199.165 298.268 190.622C290.121 182.904 320.169 157.94 342.775 144.867C342.614 143.742 340.37 143.328 334.788 144.486C306.294 150.396 300.294 152.066 283.812 155.951C267.329 159.836 261.372 162.591 244.521 165.429C236.004 166.881 232.692 168.11 228.082 168.953C219.507 170.521 218.416 171.043 210.194 171.929C199.785 171.929 181.127 177.773 180.005 175.563C177.773 171.165 179.289 162.287 184.879 153.476C172.323 158.812 159.137 163.064 146.839 166.72C146.839 166.72 124.125 171.716 118.508 171.929C112.891 172.143 120.856 165.342 124.125 162.674C147.007 144.162 171.178 128.574 193.968 109.995C195.396 108.846 200.874 104.213 199.785 102.13C197.52 101.236 142.863 126.514 118.508 139.418C93.968 152.423 67.8686 162.643 41.7802 173.94C33.2091 176.846 26.8838 177.706 17.9748 175.563C5.04461 172.452 18.6915 150.971 32.5958 141.951C50.8279 130.061 68.8299 117.933 86.7397 105.772C90.2849 103.374 97.4212 99.526 97.4212 96.5166C97.4212 92.0846 89.6863 93.8479 87.4303 94.2871C75.736 96.6179 64.1798 99.3879 52.6235 102.124C46.6382 103.543 33.5482 108.828 32.8259 103.543C32.4803 101.014 36.4633 98.7798 38.9955 97.6989C55.7667 92.1675 73.3669 88.1623 92.1055 85.8652C98.6893 85.0545 104.603 84.5583 107.826 89.1862C111.049 93.8817 110.681 98.8474 105.8 102.8C99.9994 107.461 93.5077 111.718 87.062 115.974C70.3953 126.953 53.5904 137.796 36.9236 148.775C31.6289 152.322 23.8622 158.685 27.4393 162.388ZM578.089 28.3244C584.489 26.6354 589.139 29.5743 589.507 37.0398C589.507 42.1084 584.305 46.5004 578.984 50.9926C578.981 50.9949 578.978 50.9972 578.976 50.9994C578.972 51.0025 578.968 51.0056 578.964 51.0087C578.673 51.2545 578.382 51.5005 578.091 51.747C577.937 51.8777 577.783 52.0086 577.629 52.1396C566.882 61.3198 555.4 69.9836 543.901 78.6593C541.607 80.3908 539.311 82.1227 537.021 83.8594C529.47 89.6021 519.433 92.0342 515.658 88.8251C509.752 83.7797 514.012 78.8478 517.636 74.6531C517.967 74.2699 518.292 73.8929 518.605 73.5226C523.899 67.2394 530.529 61.4968 537.205 55.923C545.861 48.6264 554.885 41.5326 564.277 34.7765C568.098 32.0065 573.071 29.6418 578.089 28.3244ZM415.842 108.08C417.108 111.496 400.602 120.173 387.158 121.93C388.131 120.999 389.06 120.072 389.97 119.165C396.555 112.599 414.413 104.224 415.842 108.08ZM708.773 126.016C711.882 121.287 724.093 116.489 725.532 119.935C726.575 122.432 717.652 125.667 713.106 127.316C712.172 127.654 711.424 127.925 710.983 128.11C708.396 129.194 707.937 127.285 708.675 126.165L708.773 126.016Z" fill="#91BC73"/>
<path d="M601.837 147.472V142.44H602.197C603.874 142.44 605.431 142.28 606.869 141.961C608.386 141.561 609.624 140.763 610.583 139.565C611.541 138.367 612.02 136.53 612.02 134.054V96.6768C612.02 94.2009 611.541 92.4039 610.583 91.2858C609.704 90.0878 608.506 89.2892 606.989 88.8898C605.471 88.4905 603.874 88.2908 602.197 88.2908H601.837V83.2593H631.787V88.2908H631.428C629.83 88.2908 628.393 88.4905 627.115 88.8898C625.917 89.2892 624.959 90.0878 624.24 91.2858C623.601 92.4838 623.281 94.2808 623.281 96.6768V111.532H631.068L639.694 101.349C642.01 98.6335 643.488 96.557 644.126 95.1194C644.845 93.6818 645.205 92.4039 645.205 91.2858C645.205 90.1677 644.805 89.409 644.007 89.0096C643.208 88.5304 641.93 88.2908 640.173 88.2908V83.2593H665.571V88.2908C663.654 88.2908 661.817 88.7301 660.06 89.6086C658.303 90.4073 656.546 91.6452 654.789 93.3224C653.032 94.9197 651.075 96.9563 648.918 99.4322L637.058 113.329L638.017 108.058L654.908 132.616C656.266 134.613 657.584 136.37 658.862 137.888C660.14 139.325 661.497 140.443 662.935 141.242C664.373 142.041 665.93 142.44 667.607 142.44H667.967V147.472H666.289C662.935 147.472 660.14 147.352 657.903 147.112C655.747 146.793 653.87 146.234 652.273 145.435C650.755 144.636 649.318 143.478 647.96 141.961C646.602 140.443 645.085 138.407 643.408 135.851L631.068 117.522H623.281V134.054C623.281 136.45 623.641 138.247 624.36 139.445C625.078 140.643 626.037 141.442 627.235 141.841C628.513 142.24 629.91 142.44 631.428 142.44H631.787V147.472H601.837Z" fill="#212121"/>
<path d="M85.2645 146.274C86.4625 147.871 88.539 148.67 91.4941 148.67C96.925 148.67 101.198 145.195 104.313 138.247C105.806 134.915 107.025 130.802 107.967 125.908H100.599C99.3209 130.46 97.6438 133.615 95.5672 135.372C93.4907 137.129 90.8951 138.007 87.7803 138.007C87.1414 138.007 86.4625 137.968 85.7437 137.888C85.1048 137.808 84.4259 137.728 83.7071 137.648C83.6273 137.968 83.5474 138.407 83.4675 138.966V140.403C83.4675 142.72 84.0665 144.676 85.2645 146.274Z" fill="#212121"/>
<path d="M103.594 103.386C103.594 104.264 103.554 105.143 103.474 106.021L110.063 107.219L111.021 89.2492V83.2593H93.5307V88.2908H96.5256C99.0813 88.2908 100.958 88.81 102.156 89.8482C103.354 90.8865 103.953 92.8033 103.953 95.5986C103.953 96.4771 103.913 97.3556 103.833 98.2342C103.833 99.1127 103.793 99.9912 103.714 100.87C103.714 101.668 103.674 102.507 103.594 103.386Z" fill="#212121"/>
<path fill-rule="evenodd" clip-rule="evenodd" d="M228.219 176.343C229.576 177.062 231.293 177.421 233.37 177.421C236.565 177.421 239.32 176.583 241.636 174.906C243.952 173.308 246.148 170.593 248.225 166.759C250.381 163.006 252.658 157.934 255.054 151.545L247.386 152.863C245.15 158.054 242.794 161.728 240.318 163.884C237.842 166.04 234.728 167.119 230.974 167.119C230.016 167.119 229.017 167.039 227.979 166.879C226.941 166.799 225.823 166.639 224.625 166.4C224.545 166.719 224.505 167.039 224.505 167.358V168.556C224.505 170.393 224.784 171.951 225.343 173.228C225.982 174.586 226.941 175.624 228.219 176.343ZM253.883 135.35C253.836 135.48 253.789 135.61 253.742 135.742C253.403 136.683 253.042 137.678 252.658 138.726H255.054C254.672 137.583 254.282 136.457 253.883 135.35ZM248.845 149.548L249.183 150.347L251.34 143.878L248.845 149.548Z" fill="#212121"/>
<path fill-rule="evenodd" clip-rule="evenodd" d="M404.96 104.344L404.241 83.2593L396.813 93.4422C397.452 94.8798 398.011 96.9563 398.49 99.6718L399.329 104.344H404.96Z" fill="#212121"/>
<path fill-rule="evenodd" clip-rule="evenodd" d="M473.278 115.246C473.278 122.594 474.396 128.743 476.632 133.695L487.175 130.341C486.056 126.188 485.497 121.156 485.497 115.246H473.278Z" fill="#212121"/>
<path d="M44.6136 117.09C42.0952 117.09 40.0536 119.858 40.0536 123.274C40.0536 126.689 44.6136 133.924 44.6136 133.924C44.6136 133.924 49.1736 126.689 49.1736 123.274C49.1736 119.858 47.132 117.09 44.6136 117.09Z" fill="#FFAFF7"/>
<path d="M44.418 150.69C41.8996 150.69 39.858 147.921 39.858 144.506C39.858 141.091 44.418 133.855 44.418 133.855C44.418 133.855 48.978 141.091 48.978 144.506C48.978 147.921 46.9364 150.69 44.418 150.69Z" fill="#FFAFF7"/>
<path d="M59.7073 126.296C58.5796 124.078 55.1529 123.519 52.0535 125.048C48.9542 126.577 44.4305 133.835 44.4305 133.835C44.4305 133.835 53.038 134.612 56.1373 133.083C59.2367 131.554 60.835 128.515 59.7073 126.296Z" fill="#FFAFF7"/>
<path d="M29.3253 141.481C28.1976 139.263 29.7959 136.224 32.8953 134.695C35.9947 133.165 44.6021 133.943 44.6021 133.943C44.6021 133.943 40.0785 141.2 36.9791 142.73C33.8798 144.259 30.453 143.7 29.3253 141.481Z" fill="#FFAFF7"/>
<path d="M58.8809 142.826C60.224 140.727 58.9358 137.549 56.0036 135.728C53.0714 133.906 44.428 133.848 44.428 133.848C44.428 133.848 48.2075 141.508 51.1397 143.329C54.0719 145.151 57.5377 144.925 58.8809 142.826Z" fill="#FFAFF7"/>
<path d="M30.1493 124.954C31.4924 122.855 34.9582 122.63 37.8904 124.451C40.8226 126.273 44.6021 133.932 44.6021 133.932C44.6021 133.932 35.9587 133.874 33.0265 132.053C30.0943 130.231 28.8062 127.053 30.1493 124.954Z" fill="#FFAFF7"/>
<path d="M699.613 121.411C697.425 121.779 696.078 124.494 696.604 127.475C697.131 130.456 702.208 136.104 702.208 136.104C702.208 136.104 705.054 129.123 704.528 126.142C704.001 123.161 701.801 121.043 699.613 121.411Z" fill="#FFAFF7"/>
<path d="M704.593 150.746C702.405 151.115 700.205 148.997 699.678 146.016C699.152 143.035 701.998 136.053 701.998 136.053C701.998 136.053 707.075 141.701 707.602 144.682C708.128 147.663 706.781 150.378 704.593 150.746Z" fill="#FFAFF7"/>
<path d="M714.18 127.22C712.854 125.448 709.78 125.461 707.315 127.25C704.85 129.038 702.029 136.036 702.029 136.036C702.029 136.036 709.652 135.456 712.118 133.668C714.583 131.879 715.506 128.993 714.18 127.22Z" fill="#FFAFF7"/>
<path d="M690.027 144.938C688.7 143.166 689.624 140.279 692.089 138.491C694.554 136.702 702.178 136.122 702.178 136.122C702.178 136.122 699.357 143.12 696.892 144.908C694.426 146.697 691.353 146.71 690.027 144.938Z" fill="#FFAFF7"/>
<path d="M715.996 141.754C716.842 139.731 715.228 137.153 712.39 135.995C709.553 134.837 702.01 136.047 702.01 136.047C702.01 136.047 706.489 142.163 709.326 143.32C712.164 144.478 715.15 143.777 715.996 141.754Z" fill="#FFAFF7"/>
<path d="M688.207 130.406C689.053 128.383 692.039 127.681 694.876 128.839C697.714 129.997 702.193 136.113 702.193 136.113C702.193 136.113 694.65 137.323 691.812 136.165C688.975 135.007 687.361 132.429 688.207 130.406Z" fill="#FFAFF7"/>
<path d="M432.898 133.56C431.053 133.871 429.917 136.16 430.361 138.674C430.805 141.187 435.086 145.95 435.086 145.95C435.086 145.95 437.486 140.063 437.042 137.549C436.598 135.036 434.743 133.25 432.898 133.56Z" fill="#FFAFF7"/>
<path d="M437.097 158.298C435.252 158.608 433.397 156.822 432.953 154.309C432.509 151.795 434.909 145.908 434.909 145.908C434.909 145.908 439.19 150.671 439.634 153.184C440.078 155.698 438.942 157.987 437.097 158.298Z" fill="#FFAFF7"/>
<path d="M445.181 138.46C444.062 136.965 441.471 136.976 439.392 138.484C437.313 139.993 434.934 145.893 434.934 145.893C434.934 145.893 441.363 145.404 443.441 143.896C445.52 142.388 446.299 139.954 445.181 138.46Z" fill="#FFAFF7"/>
<path d="M424.814 153.4C423.695 151.905 424.474 149.471 426.553 147.963C428.632 146.455 435.06 145.966 435.06 145.966C435.06 145.966 432.681 151.867 430.602 153.375C428.524 154.883 425.932 154.894 424.814 153.4Z" fill="#FFAFF7"/>
<path d="M446.713 150.715C447.426 149.01 446.065 146.835 443.672 145.859C441.28 144.882 434.92 145.903 434.92 145.903C434.92 145.903 438.696 151.06 441.089 152.036C443.481 153.013 445.999 152.421 446.713 150.715Z" fill="#FFAFF7"/>
<path d="M423.279 141.145C423.993 139.439 426.511 138.848 428.903 139.824C431.296 140.801 435.073 145.958 435.073 145.958C435.073 145.958 428.712 146.978 426.32 146.001C423.927 145.025 422.566 142.851 423.279 141.145Z" fill="#FFAFF7"/>
<path d="M293.325 130.525C290.152 129.275 286.143 131.773 284.372 136.104C282.6 140.435 284.591 151.872 284.591 151.872C284.591 151.872 294.089 144.96 295.861 140.629C297.633 136.298 296.497 131.775 293.325 130.525Z" fill="#FFAFF7"/>
<path d="M275.699 172.99C272.526 171.741 271.391 167.217 273.162 162.886C274.934 158.555 284.432 151.644 284.432 151.644C284.432 151.644 286.424 163.08 284.652 167.411C282.88 171.742 278.872 174.24 275.699 172.99Z" fill="#FFAFF7"/>
<path d="M307.673 149.716C307.402 146.363 303.356 143.969 298.636 144.368C293.915 144.767 284.407 151.682 284.407 151.682C284.407 151.682 294.897 156.907 299.617 156.508C304.337 156.109 307.944 153.068 307.673 149.716Z" fill="#FFAFF7"/>
<path d="M261.35 153.799C261.079 150.446 264.685 147.405 269.406 147.006C274.126 146.607 284.616 151.832 284.616 151.832C284.616 151.832 275.107 158.748 270.387 159.146C265.667 159.545 261.621 157.151 261.35 153.799Z" fill="#FFAFF7"/>
<path d="M298.061 170.239C300.856 168.244 300.882 163.574 298.119 159.809C295.356 156.044 284.444 151.681 284.444 151.681C284.444 151.681 285.236 163.27 287.998 167.035C290.761 170.8 295.266 172.235 298.061 170.239Z" fill="#FFAFF7"/>
<path d="M270.961 133.273C273.756 131.278 278.261 132.712 281.024 136.477C283.786 140.243 284.578 151.831 284.578 151.831C284.578 151.831 273.666 147.469 270.903 143.704C268.14 139.939 268.166 135.269 270.961 133.273Z" fill="#FFAFF7"/>
<path d="M591.429 11.0503C589.622 10.577 587.611 12.1915 586.936 14.6564C586.262 17.1214 588.105 23.2001 588.105 23.2001C588.105 23.2001 592.805 18.8355 593.48 16.3705C594.154 13.9056 593.236 11.5236 591.429 11.0503Z" fill="#FFAFF7"/>
<path d="M584.682 35.2415C582.875 34.7681 581.957 32.3862 582.632 29.9212C583.306 27.4563 588.006 23.0917 588.006 23.0917C588.006 23.0917 589.849 29.1704 589.175 31.6353C588.501 34.1003 586.489 35.7148 584.682 35.2415Z" fill="#FFAFF7"/>
<path d="M600.497 20.5463C600.125 18.7413 597.766 17.6988 595.229 18.2176C592.693 18.7365 587.993 23.1039 587.993 23.1039C587.993 23.1039 594.042 25.2729 596.579 24.754C599.116 24.2351 600.87 22.3513 600.497 20.5463Z" fill="#FFAFF7"/>
<path d="M575.615 25.7425C575.242 23.9375 576.997 22.0537 579.534 21.5348C582.07 21.0159 588.119 23.1849 588.119 23.1849C588.119 23.1849 583.42 27.5523 580.883 28.0712C578.346 28.5901 575.988 27.5475 575.615 25.7425Z" fill="#FFAFF7"/>
<path d="M596.649 32.3058C598.033 31.0432 597.735 28.507 595.983 26.6411C594.231 24.7752 588.013 23.1088 588.013 23.1088C588.013 23.1088 589.218 29.3476 590.97 31.2135C592.722 33.0794 595.265 33.5684 596.649 32.3058Z" fill="#FFAFF7"/>
<path d="M579.465 13.9822C580.85 12.7196 583.392 13.2086 585.144 15.0745C586.897 16.9404 588.101 23.1791 588.101 23.1791C588.101 23.1791 581.883 21.5127 580.131 19.6468C578.379 17.781 578.081 15.2448 579.465 13.9822Z" fill="#FFAFF7"/>
</svg>
