<svg width="750" height="230" viewBox="0 0 750 230" fill="none" xmlns="http://www.w3.org/2000/svg">
<path d="M601.838 147.473V142.441H602.197C603.874 142.441 605.432 142.281 606.869 141.962C608.387 141.562 609.625 140.764 610.583 139.566C611.542 138.368 612.021 136.531 612.021 134.055V96.6778C612.021 94.2019 611.542 92.4049 610.583 91.2868C609.705 90.0888 608.507 89.2901 606.989 88.8908C605.472 88.4915 603.874 88.2918 602.197 88.2918H601.838V83.2603H631.788V88.2918H631.428C629.831 88.2918 628.393 88.4915 627.116 88.8908C625.918 89.2901 624.959 90.0888 624.24 91.2868C623.601 92.4848 623.282 94.2818 623.282 96.6778V111.533H631.069L639.694 101.35C642.011 98.6345 643.488 96.558 644.127 95.1204C644.846 93.6828 645.205 92.4049 645.205 91.2868C645.205 90.1687 644.806 89.4099 644.007 89.0106C643.209 88.5314 641.931 88.2918 640.174 88.2918V83.2603H665.571V88.2918C663.654 88.2918 661.817 88.7311 660.06 89.6096C658.303 90.4083 656.546 91.6462 654.789 93.3234C653.032 94.9207 651.075 96.9573 648.919 99.4331L637.059 113.33L638.017 108.059L654.909 132.617C656.267 134.614 657.584 136.371 658.862 137.889C660.14 139.326 661.498 140.444 662.935 141.243C664.373 142.042 665.93 142.441 667.608 142.441H667.967V147.473H666.29C662.935 147.473 660.14 147.353 657.904 147.113C655.747 146.794 653.871 146.235 652.273 145.436C650.756 144.637 649.318 143.479 647.961 141.962C646.603 140.444 645.085 138.408 643.408 135.852L631.069 117.523H623.282V134.055C623.282 136.451 623.641 138.248 624.36 139.446C625.079 140.644 626.037 141.443 627.235 141.842C628.513 142.241 629.911 142.441 631.428 142.441H631.788V147.473H601.838Z" fill="#212121"/>
<path d="M502.509 148.671C496.2 148.671 490.849 147.433 486.456 144.957C482.143 142.401 478.869 138.648 476.633 133.696C474.396 128.744 473.278 122.595 473.278 115.247C473.278 107.899 474.476 101.789 476.872 96.9176C479.268 91.9659 482.663 88.2521 487.055 85.7763C491.448 83.3004 496.599 82.0625 502.509 82.0625C508.819 82.0625 514.13 83.3004 518.443 85.7763C522.835 88.2521 526.15 91.9659 528.386 96.9176C530.622 101.789 531.74 107.899 531.74 115.247C531.74 122.595 530.542 128.744 528.146 133.696C525.75 138.648 522.356 142.401 517.963 144.957C513.651 147.433 508.499 148.671 502.509 148.671ZM502.509 142.92C506.662 142.92 509.977 141.882 512.453 139.806C514.928 137.649 516.725 134.495 517.844 130.342C518.962 126.188 519.521 121.157 519.521 115.247C519.521 109.257 518.962 104.225 517.844 100.152C516.725 96.079 514.928 93.0041 512.453 90.9276C509.977 88.8511 506.662 87.8129 502.509 87.8129C498.436 87.8129 495.122 88.8511 492.566 90.9276C490.09 93.0041 488.293 96.079 487.175 100.152C486.057 104.225 485.498 109.257 485.498 115.247C485.498 121.157 486.057 126.188 487.175 130.342C488.293 134.495 490.09 137.649 492.566 139.806C495.122 141.882 498.436 142.92 502.509 142.92Z" fill="#212121"/>
<path d="M359.796 147.473V142.441H360.754C362.511 142.441 364.109 142.241 365.546 141.842C367.064 141.443 368.262 140.644 369.14 139.446C370.099 138.168 370.578 136.291 370.578 133.815V89.2502H362.312C360.475 89.2502 359.037 89.5697 357.999 90.2086C356.961 90.8475 356.122 91.9257 355.483 93.4432C354.924 94.8808 354.405 96.9573 353.926 99.6727L353.087 104.345H347.457L348.175 83.2603H404.241L404.96 104.345H399.33L398.491 99.6727C398.012 96.9573 397.453 94.8808 396.814 93.4432C396.255 91.9257 395.456 90.8475 394.418 90.2086C393.38 89.5697 391.942 89.2502 390.105 89.2502H381.839V133.815C381.839 136.291 382.278 138.168 383.157 139.446C384.115 140.644 385.313 141.443 386.751 141.842C388.268 142.241 389.905 142.441 391.662 142.441H392.621V147.473H359.796Z" fill="#212121"/>
<path d="M233.37 177.422C231.294 177.422 229.577 177.063 228.219 176.344C226.941 175.625 225.983 174.587 225.344 173.229C224.785 171.952 224.505 170.394 224.505 168.557C224.505 168.158 224.505 167.759 224.505 167.359C224.505 167.04 224.545 166.72 224.625 166.401C225.823 166.64 226.941 166.8 227.979 166.88C229.018 167.04 230.016 167.12 230.974 167.12C234.728 167.12 237.843 166.041 240.319 163.885C242.795 161.729 245.151 158.055 247.387 152.864L251.34 143.879L249.184 150.348L225.583 94.6412C224.545 92.1653 223.467 90.4881 222.349 89.6096C221.231 88.7311 219.514 88.2918 217.198 88.2918H216.838V83.2603H245.59V88.2918H245.231C242.835 88.2918 241.038 88.771 239.84 89.7294C238.721 90.6079 238.162 92.0455 238.162 94.0422C238.162 94.6811 238.242 95.36 238.402 96.0788C238.562 96.7976 238.801 97.5962 239.121 98.4747L247.866 119.799C248.585 121.476 249.344 123.353 250.142 125.43C250.941 127.426 251.74 129.543 252.538 131.779C253.417 134.015 254.255 136.331 255.054 138.727H252.658C253.537 136.331 254.295 134.215 254.934 132.378C255.653 130.541 256.292 128.824 256.851 127.227C257.49 125.629 258.049 124.112 258.528 122.674L267.034 99.3133C267.433 98.3549 267.713 97.4365 267.873 96.558C268.032 95.5996 268.112 94.8009 268.112 94.162C268.112 92.0855 267.433 90.6079 266.076 89.7294C264.798 88.771 262.841 88.2918 260.205 88.2918H259.846V83.2603H284.525V88.2918H284.165C282.648 88.2918 281.37 88.5314 280.332 89.0106C279.373 89.4898 278.495 90.4083 277.696 91.766C276.897 93.1237 276.019 95.0804 275.06 97.6361L255.054 151.546C252.658 157.935 250.382 163.007 248.225 166.76C246.149 170.594 243.953 173.309 241.637 174.907C239.32 176.584 236.565 177.422 233.37 177.422Z" fill="#212121"/>
<path d="M91.4946 148.671C88.5395 148.671 86.463 147.872 85.265 146.275C84.067 144.677 83.468 142.721 83.468 140.404C83.468 139.925 83.468 139.446 83.468 138.967C83.5479 138.408 83.6277 137.969 83.7076 137.649C84.4264 137.729 85.1053 137.809 85.7442 137.889C86.463 137.969 87.1419 138.008 87.7808 138.008C90.8956 138.008 93.4912 137.13 95.5677 135.373C97.6442 133.616 99.3214 130.461 100.599 125.909C101.957 121.276 102.915 114.648 103.474 106.022C103.554 105.144 103.594 104.265 103.594 103.386C103.674 102.508 103.714 101.669 103.714 100.871C103.794 99.9922 103.834 99.1137 103.834 98.2351C103.914 97.3566 103.954 96.4781 103.954 95.5996C103.954 92.8042 103.355 90.8875 102.157 89.8492C100.959 88.8109 99.0818 88.2918 96.5261 88.2918H93.5311V83.2603H151.514V88.2918H151.155C149.397 88.2918 147.76 88.4915 146.243 88.8908C144.805 89.2901 143.607 90.0888 142.649 91.2868C141.77 92.4848 141.331 94.3616 141.331 96.9174V133.815C141.331 136.291 141.77 138.168 142.649 139.446C143.607 140.644 144.805 141.443 146.243 141.842C147.76 142.241 149.397 142.441 151.155 142.441H151.514V147.473H120.965V142.441H121.325C123.002 142.441 124.479 142.241 125.757 141.842C127.115 141.443 128.153 140.644 128.872 139.446C129.671 138.168 130.07 136.291 130.07 133.815V89.2502H111.022L110.063 107.22C109.345 120.957 107.428 131.3 104.313 138.248C101.198 145.196 96.9254 148.671 91.4946 148.671Z" fill="#212121"/>
<path d="M454.394 62.0756C459.699 70.6292 446.529 84.7339 436.91 91.5783C421.029 102.879 402.546 112.24 385.208 122.502C376.782 127.491 368.398 132.555 360.368 137.869C356.857 140.187 354.891 141.027 356.81 143.675C358.326 145.766 388.54 144.088 400.241 138.638C412.695 132.857 424.078 146.594 423.294 156.128C423.212 156.998 458.86 136.854 461.708 135.202C473.065 128.784 484.385 122.367 495.741 115.91C518.38 103.076 533.318 94.1146 555.997 81.3165C573.504 71.4638 599.768 54.2707 604.713 57.4063C609.735 60.5767 583.848 83.6021 578.164 88.1883C568.729 95.8179 542.333 119.181 538.035 124.374C536.425 126.319 530.595 133.065 533.018 132.334C546.237 128.524 575.65 110.573 582.513 107.791C598.087 101.48 620.058 88.18 627.508 93.7497C630.11 95.6899 625.061 100.856 622.649 102.869C610.932 112.922 598.313 122.405 587.103 132.703C582.148 137.299 556.615 156.578 550.921 165.917C543.896 177.493 574.805 177.221 581.975 173.447C597.855 165.126 666.624 111.813 695.682 89.575C695.682 89.575 720.813 66.2796 729.277 75.9625C733.595 80.9032 707.256 92.1767 685.95 108.176C679.123 113.303 669.146 122.138 669.146 122.138L652.341 136.099C652.267 136.178 596.975 176.362 578.164 185.169C566.803 190.494 553.413 189.02 542.106 182.764C539.406 181.242 536.763 179.228 535.66 176.403C534.215 172.684 535.701 168.48 537.87 165.118C540.185 161.563 564.872 139.185 573.716 132.106C579.809 127.203 593.596 117.224 603.963 108.918C605.635 107.574 604.041 104.955 602.044 105.821C595.149 108.755 586.672 113.407 583.81 114.683C577.936 117.277 544.451 135.907 532.129 138.137C486.603 146.314 569.849 81.0288 569.493 80.7403C537.023 99.861 449.071 153.248 440.728 157.404C427.311 164.05 413.938 170.845 400.241 177.162C396.629 178.843 383.099 182.551 387.532 174.277C388.962 171.621 394.728 170.2 397.391 168.744C402.304 166.034 411.651 162.219 412.614 156.128C416.46 131.805 381.485 155.42 363.305 156.128C346.33 154.589 339.325 141.366 348.907 135.579C367.022 124.61 385.694 114.186 403.771 103.218C412.117 98.1559 420.38 92.9083 428.319 87.2201C433.612 83.4405 437.254 79.5337 440.433 74.5501C441.987 72.1163 440.559 68.8124 437.635 68.4683C426.9 67.1317 416.317 69.7874 406.04 73.4125C393.192 77.9251 338.718 108.461 322.292 116.539C300.381 127.385 277.796 137.614 254.881 147.253C250.17 149.238 226.227 160.009 220.119 161.518C217.084 162.272 200.309 166.213 194.41 166.168C188.129 166.137 182.089 168.436 175.789 167.915C175.558 167.886 175.327 167.857 175.169 167.712C175.01 167.567 175.003 167.379 174.957 167.192C174.657 164.336 177.402 162.009 180.117 160.928C182.833 159.846 185.913 159.279 188.02 157.278C188.242 157.081 188.541 155.9 188.453 155.602C187.289 152.175 182.781 150.457 182.185 146.896C181.889 145.172 182.626 143.409 183.761 142.047C187.424 137.687 193.651 134.287 198.316 131.097C203.688 127.39 209.261 123.901 215.12 120.893C220.04 118.372 225.536 116.886 231.13 116.98C239.828 117.11 248.67 123.005 257.182 118.276C272.633 109.744 302.078 90.6226 311.983 83.2772C312.84 82.642 312.213 81.2697 311.151 81.5354C287.809 87.0032 214.841 104.572 190.944 110.55C148.309 121.222 57.4932 149.481 49.638 151.356C34.8764 154.884 13.1434 160.367 9.42832 144.324C6.49147 131.609 23.7575 119.465 28.3697 115.899C37.4469 108.924 47.3717 103.087 56.8103 96.5507C75.4256 83.6395 94.1232 70.876 112.981 58.2952C123.399 51.3458 136.445 47.9951 151.243 48.4266C151.357 48.4223 151.437 48.4949 151.516 48.5674C157.038 54.7744 154.392 59.7004 148.035 64.6887C132.866 76.6046 114.463 85.0573 93.7839 90.0491C78.8339 93.659 65.1167 100.467 52.5819 109.154C41.6129 116.728 8.60088 134.699 21.0483 142.762C27.9189 147.184 45.6842 143.092 53.3706 140.808C59.9199 138.83 77.2569 133.806 127.523 121.417C178.51 108.851 279.425 82.0715 295.163 78.0175C302.594 76.0821 310.456 73.3765 318.385 71.4227C326.011 69.5556 330.493 79.6107 323.875 83.8166L323.688 83.9366C315.801 88.9817 307.874 93.9906 299.946 98.9618C284.316 108.82 268.646 118.643 253.055 128.537C243.298 134.746 232.391 139.941 225.874 149.763C225.692 150.033 225.973 150.362 226.276 150.276C232.662 148.04 239.087 145.802 245.433 143.53C251.818 141.256 260.088 139.214 265.605 135.276C281.09 127.61 296.531 119.833 312.054 112.166C331.596 102.464 351.179 92.8362 370.928 83.5414C385.637 76.6213 400.409 69.3594 415.749 63.9246C427.044 59.8846 449.414 54.038 454.394 62.0756ZM235.597 124.621C235.628 124.432 235.466 124.211 235.237 124.22C221.079 124.519 208.599 129.621 198.474 139.238C194.85 142.616 193.141 145.999 198.092 149.285C217.11 145.901 233.764 134.798 235.597 124.621ZM95.6135 82.8149C113.356 76.1217 129.848 71.7756 138.617 58.7394C138.761 58.5078 138.557 58.1759 138.289 58.1858C122.546 60.0901 106.942 68.6276 95.2492 82.3004C95.0298 82.5725 95.3119 82.9392 95.6135 82.8149Z" fill="#41721E"/>
<path fill-rule="evenodd" clip-rule="evenodd" d="M601.838 142.441V147.473H631.788V142.441H631.428C629.911 142.441 628.513 142.241 627.235 141.842C626.037 141.443 625.079 140.644 624.36 139.446C623.641 138.248 623.282 136.451 623.282 134.055V117.523H631.069L643.408 135.852C645.085 138.408 646.603 140.444 647.961 141.962C649.318 143.479 650.756 144.637 652.273 145.436C653.871 146.235 655.747 146.794 657.904 147.113C660.14 147.353 662.935 147.473 666.29 147.473H667.967V142.441H667.608C665.93 142.441 664.373 142.042 662.935 141.243C661.498 140.444 660.14 139.326 658.862 137.889C657.584 136.371 656.267 134.614 654.909 132.617L639.597 110.356L648.919 99.4331C651.075 96.9573 653.032 94.9207 654.789 93.3234C656.546 91.6462 658.303 90.4083 660.06 89.6096C661.817 88.7311 663.654 88.2918 665.571 88.2918V83.2603H640.174V88.2918C641.931 88.2918 643.209 88.5314 644.007 89.0106C644.806 89.4099 645.205 90.1687 645.205 91.2868C645.205 92.4049 644.846 93.6828 644.127 95.1204C643.488 96.558 642.011 98.6345 639.694 101.35L631.069 111.533H623.282V104.105L612.021 111.533V134.055C612.021 136.531 611.542 138.368 610.583 139.566C609.625 140.764 608.387 141.562 606.869 141.962C605.432 142.281 603.874 142.441 602.197 142.441H601.838ZM611.318 92.4806H623.765C623.897 92.0323 624.055 91.6343 624.24 91.2868C624.959 90.0888 625.918 89.2901 627.116 88.8908C628.393 88.4915 629.831 88.2918 631.428 88.2918H631.788V83.2603H601.838V88.2918H602.197C603.874 88.2918 605.472 88.4915 606.989 88.8908C608.507 89.2901 609.705 90.0888 610.583 91.2868C610.872 91.6233 611.117 92.0212 611.318 92.4806Z" fill="#212121"/>
<path d="M502.509 148.671C496.2 148.671 490.849 147.433 486.456 144.957C482.143 142.401 478.869 138.648 476.633 133.696C474.396 128.744 473.278 122.595 473.278 115.247C473.278 107.899 474.476 101.789 476.872 96.9176C479.268 91.9659 482.663 88.2521 487.055 85.7763C491.448 83.3004 496.599 82.0625 502.509 82.0625C508.819 82.0625 514.13 83.3004 518.443 85.7763C522.835 88.2521 526.15 91.9659 528.386 96.9176C529.685 99.7486 530.607 102.998 531.152 106.665C531.544 109.308 531.74 112.169 531.74 115.247C531.74 122.595 530.542 128.744 528.146 133.696C525.75 138.648 522.356 142.401 517.963 144.957C513.651 147.433 508.499 148.671 502.509 148.671ZM502.509 142.92C506.662 142.92 509.977 141.882 512.453 139.806C513.233 139.126 513.946 138.347 514.591 137.469C515.994 135.561 517.078 133.185 517.844 130.342C518.962 126.188 519.521 121.157 519.521 115.247C519.521 114.227 519.505 113.234 519.472 112.269C519.314 107.571 518.771 103.532 517.844 100.152C516.725 96.079 514.928 93.0041 512.453 90.9276C509.977 88.8511 506.662 87.8129 502.509 87.8129C498.436 87.8129 495.122 88.8511 492.566 90.9276C490.09 93.0041 488.293 96.079 487.175 100.152C486.057 104.225 485.498 109.257 485.498 115.247C485.498 121.157 486.057 126.188 487.175 130.342C488.293 134.495 490.09 137.649 492.566 139.806C495.122 141.882 498.436 142.92 502.509 142.92Z" fill="#212121"/>
<path fill-rule="evenodd" clip-rule="evenodd" d="M381.839 89.2502V114.55L370.578 121.641V89.2502H362.312C360.475 89.2502 359.037 89.5697 357.999 90.2086C356.961 90.8475 356.122 91.9257 355.483 93.4432C354.924 94.8808 354.405 96.9573 353.926 99.6727L353.087 104.345H347.457L348.175 83.2603H404.241L404.96 104.345H399.33L398.491 99.6727C398.012 96.9573 397.453 94.8808 396.814 93.4432C396.255 91.9257 395.456 90.8475 394.418 90.2086C393.38 89.5697 391.942 89.2502 390.105 89.2502H381.839Z" fill="#212121"/>
<path fill-rule="evenodd" clip-rule="evenodd" d="M228.219 176.344C229.577 177.063 231.294 177.422 233.37 177.422C236.565 177.422 239.32 176.584 241.637 174.907C243.953 173.309 246.149 170.594 248.225 166.76C250.382 163.007 252.658 157.935 255.054 151.546L275.06 97.6361C275.574 96.266 276.065 95.068 276.533 94.0422L268.099 94.6412C268.07 95.1869 267.995 95.8258 267.873 96.558C267.713 97.4365 267.433 98.3549 267.034 99.3133L258.528 122.674C258.049 124.112 257.49 125.629 256.851 127.227C256.292 128.824 255.653 130.541 254.934 132.378C254.614 133.299 254.264 134.29 253.883 135.351C253.446 134.138 252.997 132.948 252.538 131.779C251.74 129.543 250.941 127.426 250.142 125.43C249.344 123.353 248.585 121.476 247.866 119.799L239.121 98.4747C238.801 97.5962 238.562 96.7976 238.402 96.0788C238.242 95.36 238.162 94.6811 238.162 94.0422C238.162 92.0455 238.721 90.6079 239.84 89.7294C241.038 88.771 242.835 88.2918 245.231 88.2918H245.59V83.2603H216.838V88.2918H217.198C219.514 88.2918 221.231 88.7311 222.349 89.6096C223.467 90.4881 224.545 92.1653 225.583 94.6412L248.845 149.549L247.387 152.864C245.151 158.055 242.795 161.729 240.319 163.885C237.843 166.041 234.728 167.12 230.974 167.12C230.016 167.12 229.018 167.04 227.979 166.88C226.941 166.8 225.823 166.64 224.625 166.401C224.545 166.72 224.505 167.04 224.505 167.359V168.557C224.505 170.394 224.785 171.952 225.344 173.229C225.983 174.587 226.941 175.625 228.219 176.344Z" fill="#212121"/>
<path fill-rule="evenodd" clip-rule="evenodd" d="M85.265 146.275C86.463 147.872 88.5395 148.671 91.4946 148.671C96.9254 148.671 101.198 145.196 104.313 138.248C107.428 131.3 109.345 120.957 110.063 107.22L111.022 89.2502H130.07V133.815C130.07 136.291 129.671 138.168 128.872 139.446C128.153 140.644 127.115 141.443 125.757 141.842C124.479 142.241 123.002 142.441 121.325 142.441H120.965V147.473H151.514V142.441H151.155C149.397 142.441 147.76 142.241 146.243 141.842C144.805 141.443 143.607 140.644 142.649 139.446C141.77 138.168 141.331 136.291 141.331 133.815V96.9174C141.331 94.3616 141.77 92.4848 142.649 91.2868C143.607 90.0888 144.805 89.2901 146.243 88.8908C147.76 88.4915 149.397 88.2918 151.155 88.2918H151.514V83.2603H120.965L101.287 89.2502C101.609 89.4258 101.898 89.6254 102.157 89.8492C103.355 90.8875 103.954 92.8042 103.954 95.5996C103.954 96.4781 103.914 97.3566 103.834 98.2351C103.834 99.1137 103.794 99.9922 103.714 100.871C103.714 101.669 103.674 102.508 103.594 103.386C103.594 104.265 103.554 105.144 103.474 106.022C102.915 114.648 101.957 121.276 100.599 125.909C99.3214 130.461 97.6442 133.616 95.5677 135.373C93.4912 137.13 90.8956 138.008 87.7808 138.008C87.1419 138.008 86.463 137.969 85.7442 137.889C85.1053 137.809 84.4264 137.729 83.7076 137.649C83.6277 137.969 83.5479 138.408 83.468 138.967V140.404C83.468 142.721 84.067 144.677 85.265 146.275Z" fill="#212121"/>
<ellipse cx="11.4547" cy="11.5283" rx="11.4547" ry="11.5283" transform="matrix(-0.264224 0.964476 -0.967348 -0.253507 63.8206 91.2031)" fill="#EA4949"/>
<ellipse cx="11.4547" cy="11.5283" rx="11.4547" ry="11.5283" transform="matrix(-0.264224 0.964476 -0.967348 -0.253507 56.7534 103.042)" fill="#EA4949"/>
<ellipse cx="8.62641" cy="8.68184" rx="8.62641" ry="8.68184" transform="matrix(-0.264224 0.964476 -0.967348 -0.253507 67.0439 105.481)" fill="#EA4949"/>
<path d="M40.2287 103.487C41.1929 102.353 40.6979 100.381 39.1232 99.0826C37.5485 97.7842 32.4669 97.0872 32.4669 97.0872C32.4669 97.0872 34.057 101.891 35.6317 103.189C37.2065 104.488 39.2646 104.621 40.2287 103.487Z" fill="#41721E"/>
<path d="M40.0069 101.756C41.4204 101.256 42.0077 99.3046 41.3187 97.3985C40.6296 95.4925 36.6106 92.3609 36.6106 92.3609C36.6106 92.3609 35.5109 97.3049 36.1999 99.2109C36.889 101.117 38.5934 102.256 40.0069 101.756Z" fill="#41721E"/>
<ellipse cx="290.733" cy="87.3987" rx="13.0454" ry="12.8538" fill="#EA4949"/>
<ellipse cx="305.87" cy="91.5237" rx="13.0454" ry="12.8538" fill="#EA4949"/>
<ellipse cx="305.87" cy="74.3855" rx="13.0454" ry="12.8538" fill="#EA4949"/>
<path d="M294.307 75.9572C295.149 74.5196 294.204 72.4279 292.196 71.2855C290.187 70.143 284.408 70.326 284.408 70.326C284.408 70.326 287.137 75.3493 289.145 76.4918C291.153 77.6343 293.464 77.3949 294.307 75.9572Z" fill="#41721E"/>
<path d="M293.72 74.0775C295.184 73.2569 295.442 70.9815 294.296 68.9953C293.15 67.009 288.07 64.2872 288.07 64.2872C288.07 64.2872 287.846 69.9806 288.992 71.9668C290.139 73.9531 292.255 74.8981 293.72 74.0775Z" fill="#41721E"/>
<ellipse cx="6.97623" cy="6.97241" rx="6.97623" ry="6.97241" transform="matrix(0.844619 0.535382 -0.547718 0.836673 409.628 147.475)" fill="#EA4949"/>
<ellipse cx="6.97623" cy="6.97241" rx="6.97623" ry="6.97241" transform="matrix(0.844619 0.535382 -0.547718 0.836673 415.261 153.694)" fill="#EA4949"/>
<ellipse cx="6.97623" cy="6.97241" rx="6.97623" ry="6.97241" transform="matrix(0.844619 0.535382 -0.547718 0.836673 420.333 145.935)" fill="#EA4949"/>
<path d="M416.701 152.887C417.511 152.476 417.706 151.257 417.137 150.164C416.568 149.071 413.896 147.5 413.896 147.5C413.896 147.5 413.636 150.56 414.205 151.652C414.774 152.745 415.892 153.298 416.701 152.887Z" fill="#41721E"/>
<path d="M416.989 151.876C417.891 151.923 418.68 150.963 418.752 149.733C418.824 148.502 417.344 145.811 417.344 145.811C417.344 145.811 415.559 148.332 415.487 149.563C415.415 150.793 416.087 151.829 416.989 151.876Z" fill="#41721E"/>
<ellipse cx="6.03368" cy="5.96452" rx="6.03368" ry="5.96452" transform="matrix(0.995008 0.0998309 -0.105221 0.994453 556.698 119.323)" fill="#EA4949"/>
<ellipse cx="6.03368" cy="5.96452" rx="6.03368" ry="5.96452" transform="matrix(0.995008 0.0998309 -0.105221 0.994453 551.181 112.833)" fill="#EA4949"/>
<ellipse cx="6.03368" cy="5.96452" rx="6.03368" ry="5.96452" transform="matrix(0.995008 0.0998309 -0.105221 0.994453 567.08 118.216)" fill="#EA4949"/>
<ellipse cx="6.03368" cy="5.96452" rx="6.03368" ry="5.96452" transform="matrix(0.995008 0.0998309 -0.105221 0.994453 554.762 106.432)" fill="#EA4949"/>
<ellipse cx="10.1995" cy="10.0825" rx="10.1995" ry="10.0825" transform="matrix(0.995008 0.0998309 -0.105221 0.994453 560.606 103.602)" fill="#EA4949"/>
<path d="M565.956 117.604C567.274 117.489 568.215 115.952 568.059 114.17C567.903 112.389 565.186 108.825 565.186 108.825C565.186 108.825 563.131 112.807 563.287 114.588C563.444 116.369 564.638 117.72 565.956 117.604Z" fill="#41721E"/>
<path d="M566.997 117.751C567.493 116.299 566.256 114.58 564.233 113.911C562.21 113.243 557.025 114.456 557.025 114.456C557.025 114.456 560.412 118.501 562.435 119.17C564.458 119.838 566.501 119.203 566.997 117.751Z" fill="#41721E"/>
<path d="M566.918 116.396C568.108 116.951 569.705 116.089 570.484 114.471C571.264 112.853 570.761 108.42 570.761 108.42C570.761 108.42 566.954 110.842 566.175 112.46C565.395 114.078 565.728 115.84 566.918 116.396Z" fill="#41721E"/>
<ellipse cx="7.81918" cy="7.71706" rx="7.81918" ry="7.71706" transform="matrix(0.998661 0.0517459 -0.0547192 0.998503 680.647 89.6382)" fill="#EA4949"/>
<ellipse cx="7.81918" cy="7.71706" rx="7.81918" ry="7.71706" transform="matrix(0.998661 0.0517459 -0.0547192 0.998503 689.582 92.5869)" fill="#EA4949"/>
<ellipse cx="7.81918" cy="7.71706" rx="7.81918" ry="7.71706" transform="matrix(0.998661 0.0517459 -0.0547192 0.998503 690.137 82.3198)" fill="#EA4949"/>
<path d="M694.78 92.8331C695.782 92.6965 696.442 91.4854 696.253 90.1281C696.064 88.7708 693.849 86.1428 693.849 86.1428C693.849 86.1428 692.434 89.2654 692.623 90.6228C692.811 91.9801 693.777 92.9697 694.78 92.8331Z" fill="#41721E"/>
<path d="M695.582 92.9074C695.905 91.779 694.891 90.5102 693.317 90.0737C691.743 89.6371 687.823 90.7555 687.823 90.7555C687.823 90.7555 690.572 93.7237 692.146 94.1602C693.72 94.5968 695.259 94.0359 695.582 92.9074Z" fill="#41721E"/>
<path d="M695.47 91.8695C696.402 92.2505 697.591 91.5326 698.125 90.2661C698.659 88.9996 698.101 85.6268 698.101 85.6268C698.101 85.6268 695.282 87.62 694.748 88.8865C694.214 90.153 694.537 91.4885 695.47 91.8695Z" fill="#41721E"/>
</svg>
