<svg width="750" height="230" viewBox="0 0 750 230" fill="none" xmlns="http://www.w3.org/2000/svg">
<path d="M601.838 147.473V142.441H602.197C603.874 142.441 605.432 142.281 606.869 141.962C608.387 141.562 609.625 140.764 610.583 139.566C611.542 138.368 612.021 136.531 612.021 134.055V96.6778C612.021 94.2019 611.542 92.4049 610.583 91.2868C609.705 90.0888 608.507 89.2901 606.989 88.8908C605.472 88.4915 603.874 88.2918 602.197 88.2918H601.838V83.2603H631.788V88.2918H631.428C629.831 88.2918 628.393 88.4915 627.116 88.8908C625.918 89.2901 624.959 90.0888 624.24 91.2868C623.601 92.4848 623.282 94.2818 623.282 96.6778V111.533H631.069L639.694 101.35C642.011 98.6345 643.488 96.558 644.127 95.1204C644.846 93.6828 645.205 92.4049 645.205 91.2868C645.205 90.1687 644.806 89.4099 644.007 89.0106C643.209 88.5314 641.931 88.2918 640.174 88.2918V83.2603H665.571V88.2918C663.654 88.2918 661.817 88.7311 660.06 89.6096C658.303 90.4083 656.546 91.6462 654.789 93.3234C653.032 94.9207 651.075 96.9573 648.919 99.4331L637.059 113.33L638.017 108.059L654.909 132.617C656.267 134.614 657.584 136.371 658.862 137.889C660.14 139.326 661.498 140.444 662.935 141.243C664.373 142.042 665.93 142.441 667.608 142.441H667.967V147.473H666.29C662.935 147.473 660.14 147.353 657.904 147.113C655.747 146.794 653.871 146.235 652.273 145.436C650.756 144.637 649.318 143.479 647.961 141.962C646.603 140.444 645.085 138.408 643.408 135.852L631.069 117.523H623.282V134.055C623.282 136.451 623.641 138.248 624.36 139.446C625.079 140.644 626.037 141.443 627.235 141.842C628.513 142.241 629.911 142.441 631.428 142.441H631.788V147.473H601.838Z" fill="#212121"/>
<path d="M502.509 148.671C496.2 148.671 490.849 147.433 486.456 144.957C482.143 142.401 478.869 138.648 476.633 133.696C474.396 128.744 473.278 122.595 473.278 115.247C473.278 107.899 474.476 101.789 476.872 96.9176C479.268 91.9659 482.663 88.2521 487.055 85.7763C491.448 83.3004 496.599 82.0625 502.509 82.0625C508.819 82.0625 514.13 83.3004 518.443 85.7763C522.835 88.2521 526.15 91.9659 528.386 96.9176C530.622 101.789 531.74 107.899 531.74 115.247C531.74 122.595 530.542 128.744 528.146 133.696C525.75 138.648 522.356 142.401 517.963 144.957C513.651 147.433 508.499 148.671 502.509 148.671ZM502.509 142.92C506.662 142.92 509.977 141.882 512.453 139.806C514.928 137.649 516.725 134.495 517.844 130.342C518.962 126.188 519.521 121.157 519.521 115.247C519.521 109.257 518.962 104.225 517.844 100.152C516.725 96.079 514.928 93.0041 512.453 90.9276C509.977 88.8511 506.662 87.8129 502.509 87.8129C498.436 87.8129 495.122 88.8511 492.566 90.9276C490.09 93.0041 488.293 96.079 487.175 100.152C486.057 104.225 485.498 109.257 485.498 115.247C485.498 121.157 486.057 126.188 487.175 130.342C488.293 134.495 490.09 137.649 492.566 139.806C495.122 141.882 498.436 142.92 502.509 142.92Z" fill="#212121"/>
<path d="M359.796 147.473V142.441H360.754C362.511 142.441 364.109 142.241 365.546 141.842C367.064 141.443 368.262 140.644 369.14 139.446C370.099 138.168 370.578 136.291 370.578 133.815V89.2502H362.312C360.475 89.2502 359.037 89.5697 357.999 90.2086C356.961 90.8475 356.122 91.9257 355.483 93.4432C354.924 94.8808 354.405 96.9573 353.926 99.6727L353.087 104.345H347.457L348.175 83.2603H404.241L404.96 104.345H399.33L398.491 99.6727C398.012 96.9573 397.453 94.8808 396.814 93.4432C396.255 91.9257 395.456 90.8475 394.418 90.2086C393.38 89.5697 391.942 89.2502 390.105 89.2502H381.839V133.815C381.839 136.291 382.278 138.168 383.157 139.446C384.115 140.644 385.313 141.443 386.751 141.842C388.268 142.241 389.905 142.441 391.662 142.441H392.621V147.473H359.796Z" fill="#212121"/>
<path d="M233.37 177.422C231.294 177.422 229.577 177.063 228.219 176.344C226.941 175.625 225.983 174.587 225.344 173.229C224.785 171.952 224.505 170.394 224.505 168.557C224.505 168.158 224.505 167.759 224.505 167.359C224.505 167.04 224.545 166.72 224.625 166.401C225.823 166.64 226.941 166.8 227.979 166.88C229.018 167.04 230.016 167.12 230.974 167.12C234.728 167.12 237.843 166.041 240.319 163.885C242.795 161.729 245.151 158.055 247.387 152.864L251.34 143.879L249.184 150.348L225.583 94.6412C224.545 92.1653 223.467 90.4881 222.349 89.6096C221.231 88.7311 219.514 88.2918 217.198 88.2918H216.838V83.2603H245.59V88.2918H245.231C242.835 88.2918 241.038 88.771 239.84 89.7294C238.721 90.6079 238.162 92.0455 238.162 94.0422C238.162 94.6811 238.242 95.36 238.402 96.0788C238.562 96.7976 238.801 97.5962 239.121 98.4747L247.866 119.799C248.585 121.476 249.344 123.353 250.142 125.43C250.941 127.426 251.74 129.543 252.538 131.779C253.417 134.015 254.255 136.331 255.054 138.727H252.658C253.537 136.331 254.295 134.215 254.934 132.378C255.653 130.541 256.292 128.824 256.851 127.227C257.49 125.629 258.049 124.112 258.528 122.674L267.034 99.3133C267.433 98.3549 267.713 97.4365 267.873 96.558C268.032 95.5996 268.112 94.8009 268.112 94.162C268.112 92.0855 267.433 90.6079 266.076 89.7294C264.798 88.771 262.841 88.2918 260.205 88.2918H259.846V83.2603H284.525V88.2918H284.165C282.648 88.2918 281.37 88.5314 280.332 89.0106C279.373 89.4898 278.495 90.4083 277.696 91.766C276.897 93.1237 276.019 95.0804 275.06 97.6361L255.054 151.546C252.658 157.935 250.382 163.007 248.225 166.76C246.149 170.594 243.953 173.309 241.637 174.907C239.32 176.584 236.565 177.422 233.37 177.422Z" fill="#212121"/>
<path d="M91.4946 148.671C88.5395 148.671 86.463 147.872 85.265 146.275C84.067 144.677 83.468 142.721 83.468 140.404C83.468 139.925 83.468 139.446 83.468 138.967C83.5479 138.408 83.6277 137.969 83.7076 137.649C84.4264 137.729 85.1053 137.809 85.7442 137.889C86.463 137.969 87.1419 138.008 87.7808 138.008C90.8956 138.008 93.4912 137.13 95.5677 135.373C97.6442 133.616 99.3214 130.461 100.599 125.909C101.957 121.276 102.915 114.648 103.474 106.022C103.554 105.144 103.594 104.265 103.594 103.386C103.674 102.508 103.714 101.669 103.714 100.871C103.794 99.9922 103.834 99.1137 103.834 98.2351C103.914 97.3566 103.954 96.4781 103.954 95.5996C103.954 92.8042 103.355 90.8875 102.157 89.8492C100.959 88.8109 99.0818 88.2918 96.5261 88.2918H93.5311V83.2603H151.514V88.2918H151.155C149.397 88.2918 147.76 88.4915 146.243 88.8908C144.805 89.2901 143.607 90.0888 142.649 91.2868C141.77 92.4848 141.331 94.3616 141.331 96.9174V133.815C141.331 136.291 141.77 138.168 142.649 139.446C143.607 140.644 144.805 141.443 146.243 141.842C147.76 142.241 149.397 142.441 151.155 142.441H151.514V147.473H120.965V142.441H121.325C123.002 142.441 124.479 142.241 125.757 141.842C127.115 141.443 128.153 140.644 128.872 139.446C129.671 138.168 130.07 136.291 130.07 133.815V89.2502H111.022L110.063 107.22C109.345 120.957 107.428 131.3 104.313 138.248C101.198 145.196 96.9254 148.671 91.4946 148.671Z" fill="#212121"/>
<path d="M494.746 123.026C492.58 124.818 494.096 128.05 497.067 128.05H502.358C520.088 128.077 537.787 128.022 555.517 128.131C582.376 128.321 606.418 125.443 628.913 113.766C673.904 90.357 697.708 60.8702 717.666 27.3325C721.441 19.4572 718.965 7.72579 724.844 6.31367C738.614 2.97348 731.59 26.3277 725.216 36.7013C703.432 72.3301 674.213 102.767 624.148 124.899C603.014 134.241 577.58 135.11 552.114 134.621C533.177 134.241 514.147 135.436 495.21 136.088C485.03 136.441 479.12 139.808 475.221 146.271C471.694 152.001 465.939 157.813 458.791 161.805C454.49 164.221 433.665 175.111 418.968 179.266C410.984 181.52 402.104 180.352 409.932 167.589C416.771 156.482 436.172 141.682 451.086 138.831C466 135.979 473.953 129.896 480.389 121.396C482.091 119.17 479.708 116.291 476.768 116.943C474.386 117.486 472.282 118.056 470.301 118.545C440.906 125.877 411.634 132.395 382.27 139.808C369.398 143.067 357.268 144.886 346.438 136.468C344.055 134.621 336.382 134.078 332.204 135.002C320.477 137.609 308.688 140.623 298.137 144.751C277.374 152.87 257.354 161.859 235.756 170.983C225.019 175.464 197.109 183.068 189.714 179.266C181.235 174.894 178.884 165.036 185.196 158.41C191.044 152.246 200.172 146.271 209.022 141.112C216.108 137.011 230.775 130.086 240.955 125.035C243.956 123.542 242.687 119.523 239.222 119.604C189.126 120.88 59.9882 126.502 9.39701 124.818C5.34352 124.682 5.03409 119.305 9.08758 119.007C9.11852 119.007 9.14946 119.007 9.18041 119.007C20.9386 118.436 178.512 116.508 223.998 112.543C228.33 112.163 232.693 112 237.056 112.082C266.946 112.652 290.37 102.957 311.38 90.1941C322.148 83.6494 352.874 73.5202 360.548 83.0792C368.841 93.4256 343.127 103.935 332.235 107.547C323.076 110.615 312.339 112.109 302.066 113.412C285.512 115.476 271 119.821 257.88 126.556C239.377 136.088 220.563 145.348 202.4 155.151C195.964 158.6 188.94 162.945 194.355 169.3C197.202 172.64 210.909 172.233 219.79 168.458C245.689 157.595 271.588 146.706 296.992 135.409C309.957 129.598 324.19 126.773 339.507 126.366C346.16 126.203 353.926 127.289 359.403 129.543C366.891 132.666 373.389 133.399 381.558 131.417C420.36 122.048 459.472 113.25 497.933 103.365C512.352 99.6444 548.308 83.6494 553.723 82.3731C554.837 82.1015 556.074 82.0472 557.374 82.1287C562.139 82.3459 564.058 88.0216 559.911 90.0854C559.88 90.1126 559.849 90.1126 559.819 90.1397C550.412 94.702 540.479 98.9112 530.237 102.713C516.994 107.791 505.607 113.928 494.746 123.026ZM458.234 145.158C451.086 144.128 428.451 157.716 423.593 164.505C417.745 172.679 422.402 171.146 428.405 168.784C440.225 164.167 445.238 160.8 454.985 152.979C457.615 150.888 462.38 145.755 458.234 145.158ZM317.383 102.985C329.543 100.839 350.646 93.0982 346.438 89.4321C343.994 86.9881 322.984 92.3937 315.217 97.4176C308.441 101.763 308.471 104.56 317.383 102.985Z" fill="#41721E"/>
<path d="M601.838 147.473V142.441H602.197C603.874 142.441 605.432 142.281 606.869 141.962C608.387 141.562 609.625 140.764 610.583 139.566C611.542 138.368 612.021 136.531 612.021 134.055V96.6778C612.021 94.2019 611.542 92.4049 610.583 91.2868C609.705 90.0888 608.507 89.2901 606.989 88.8908C605.472 88.4915 603.874 88.2918 602.197 88.2918H601.838V83.2603H631.788V88.2918H631.428C629.831 88.2918 628.393 88.4915 627.116 88.8908C625.918 89.2901 624.959 90.0888 624.24 91.2868C623.601 92.4848 623.282 94.2818 623.282 96.6778V111.533H631.069L639.694 101.35C642.011 98.6345 643.488 96.558 644.127 95.1204C644.846 93.6828 645.205 92.4049 645.205 91.2868C645.205 90.1687 644.806 89.4099 644.007 89.0106C643.209 88.5314 641.931 88.2918 640.174 88.2918V83.2603H665.571V88.2918C663.654 88.2918 661.817 88.7311 660.06 89.6096C658.303 90.4083 656.546 91.6462 654.789 93.3234C653.032 94.9207 651.075 96.9573 648.919 99.4331L637.059 113.33L638.017 108.059L654.909 132.617C656.267 134.614 657.584 136.371 658.862 137.889C660.14 139.326 661.498 140.444 662.935 141.243C664.373 142.042 665.93 142.441 667.608 142.441H667.967V147.473H666.29C662.935 147.473 660.14 147.353 657.904 147.113C655.747 146.794 653.871 146.235 652.273 145.436C650.756 144.637 649.318 143.479 647.961 141.962C646.603 140.444 645.085 138.408 643.408 135.852L631.069 117.523H623.282V134.055C623.282 136.451 623.641 138.248 624.36 139.446C625.079 140.644 626.037 141.443 627.235 141.842C628.513 142.241 629.911 142.441 631.428 142.441H631.788V147.473H601.838Z" fill="#212121"/>
<path fill-rule="evenodd" clip-rule="evenodd" d="M486.456 144.957C490.849 147.433 496.2 148.671 502.509 148.671C508.499 148.671 513.651 147.433 517.963 144.957C520.86 143.271 523.323 141.065 525.352 138.337L515.577 135.961C514.696 137.478 513.654 138.759 512.453 139.806C509.977 141.882 506.662 142.92 502.509 142.92C498.436 142.92 495.122 141.882 492.566 139.806C490.09 137.649 488.293 134.495 487.175 130.342C486.057 126.188 485.498 121.157 485.498 115.247C485.498 109.257 486.057 104.225 487.175 100.152C488.293 96.079 490.09 93.0041 492.566 90.9276C495.122 88.8511 498.436 87.8129 502.509 87.8129C506.662 87.8129 509.977 88.8511 512.453 90.9276C514.928 93.0041 516.725 96.079 517.844 100.152C518.962 104.225 519.521 109.257 519.521 115.247C519.521 118.376 519.364 121.258 519.051 123.895H531.102C531.528 121.225 531.74 118.342 531.74 115.247C531.74 107.899 530.622 101.789 528.386 96.9176C526.15 91.9659 522.835 88.2521 518.443 85.7763C514.13 83.3004 508.819 82.0625 502.509 82.0625C496.599 82.0625 491.448 83.3004 487.055 85.7763C482.663 88.2521 479.268 91.9659 476.872 96.9176C474.476 101.789 473.278 107.899 473.278 115.247C473.278 122.595 474.396 128.744 476.633 133.696C478.869 138.648 482.143 142.401 486.456 144.957Z" fill="#212121"/>
<path fill-rule="evenodd" clip-rule="evenodd" d="M359.796 142.441V147.473H376.208H392.621V142.441H391.662C389.905 142.441 388.268 142.241 386.751 141.842C385.941 141.617 385.208 141.266 384.551 140.788C384.04 140.417 383.576 139.97 383.157 139.446C382.278 138.168 381.839 136.291 381.839 133.815V129.478V89.2502H390.105C391.942 89.2502 393.38 89.5697 394.418 90.2086C395.456 90.8475 396.255 91.9257 396.814 93.4432C397.453 94.8808 398.012 96.9573 398.491 99.6727L399.33 104.345H404.96L404.241 83.2603H365.687L366.445 89.2502H370.578V129.478V133.815C370.578 136.291 370.099 138.168 369.14 139.446C368.262 140.644 367.064 141.443 365.546 141.842C364.914 142.018 364.252 142.154 363.558 142.253C362.674 142.378 361.739 142.441 360.754 142.441H359.796Z" fill="#212121"/>
<path fill-rule="evenodd" clip-rule="evenodd" d="M228.219 176.344C229.577 177.063 231.294 177.422 233.37 177.422C236.565 177.422 239.32 176.584 241.637 174.907C243.643 173.523 245.56 171.299 247.387 168.237L226.434 174.907C226.937 175.478 227.532 175.957 228.219 176.344ZM246.522 154.783L256.027 148.925L275.06 97.6361C276.019 95.0804 276.897 93.1237 277.696 91.766C278.495 90.4083 279.373 89.4898 280.332 89.0106C281.37 88.5314 282.648 88.2918 284.165 88.2918H284.525V83.2603H259.846V88.2918H260.205C262.841 88.2918 264.798 88.771 266.076 89.7294C267.433 90.6079 268.112 92.0855 268.112 94.162C268.112 94.8009 268.032 95.5996 267.873 96.558C267.713 97.4365 267.433 98.3549 267.034 99.3133L258.528 122.674C258.049 124.112 257.49 125.629 256.851 127.227C256.292 128.824 255.653 130.541 254.934 132.378C254.614 133.299 254.264 134.29 253.883 135.351C253.446 134.138 252.997 132.948 252.538 131.779C251.74 129.543 250.941 127.426 250.142 125.43C249.344 123.353 248.585 121.476 247.866 119.799L239.121 98.4747C238.801 97.5962 238.562 96.7976 238.402 96.0788C238.242 95.36 238.162 94.6811 238.162 94.0422C238.162 92.0455 238.721 90.6079 239.84 89.7294C241.038 88.771 242.835 88.2918 245.231 88.2918H245.59V83.2603H216.838V88.2918H217.198C219.514 88.2918 221.231 88.7311 222.349 89.6096C223.467 90.4881 224.545 92.1653 225.583 94.6412L248.845 149.549L247.387 152.864C247.1 153.528 246.812 154.168 246.522 154.783Z" fill="#212121"/>
<path fill-rule="evenodd" clip-rule="evenodd" d="M85.265 146.275C86.463 147.872 88.5395 148.671 91.4946 148.671C96.9254 148.671 101.198 145.196 104.313 138.248C107.428 131.3 109.345 120.957 110.063 107.22L111.022 89.2502H130.07V112.956H141.331V96.9174C141.331 94.3616 141.77 92.4848 142.649 91.2868C143.607 90.0888 144.805 89.2901 146.243 88.8908C147.76 88.4915 149.397 88.2918 151.155 88.2918H151.514V83.2603H93.5311V88.2918H96.5261C99.0818 88.2918 100.959 88.8109 102.157 89.8492C103.355 90.8875 103.954 92.8042 103.954 95.5996C103.954 96.4781 103.914 97.3566 103.834 98.2351C103.834 99.1137 103.794 99.9922 103.714 100.871C103.714 101.669 103.674 102.508 103.594 103.386C103.594 104.265 103.554 105.144 103.474 106.022C102.915 114.648 101.957 121.276 100.599 125.909C99.3214 130.461 97.6442 133.616 95.5677 135.373C93.4912 137.13 90.8956 138.008 87.7808 138.008C87.1419 138.008 86.463 137.969 85.7442 137.889C85.1053 137.809 84.4264 137.729 83.7076 137.649C83.6277 137.969 83.5479 138.408 83.468 138.967V140.404C83.468 142.721 84.067 144.677 85.265 146.275ZM130.07 125.909V133.815C130.07 136.291 129.671 138.168 128.872 139.446C128.153 140.644 127.115 141.443 125.757 141.842C124.479 142.241 123.002 142.441 121.325 142.441H120.965V147.473H151.514V142.441H151.155C149.397 142.441 147.76 142.241 146.243 141.842C144.805 141.443 143.607 140.644 142.649 139.446C141.77 138.168 141.331 136.291 141.331 133.815V125.909H130.07Z" fill="#212121"/>
<ellipse cx="11.4547" cy="11.5283" rx="11.4547" ry="11.5283" transform="matrix(-0.264224 0.964476 -0.967348 -0.253507 59.5769 103.153)" fill="#EA4949"/>
<ellipse cx="11.4547" cy="11.5283" rx="11.4547" ry="11.5283" transform="matrix(-0.264224 0.964476 -0.967348 -0.253507 52.5098 114.991)" fill="#EA4949"/>
<ellipse cx="8.62641" cy="8.68184" rx="8.62641" ry="8.68184" transform="matrix(-0.264224 0.964476 -0.967348 -0.253507 62.8003 117.431)" fill="#EA4949"/>
<path d="M35.9853 115.437C36.9495 114.303 36.4545 112.331 34.8798 111.032C33.305 109.734 28.2235 109.037 28.2235 109.037C28.2235 109.037 29.8136 113.841 31.3883 115.139C32.963 116.437 35.0212 116.571 35.9853 115.437Z" fill="#41721E"/>
<path d="M35.7633 113.706C37.1768 113.205 37.7641 111.254 37.075 109.348C36.386 107.442 32.367 104.311 32.367 104.311C32.367 104.311 31.2673 109.255 31.9563 111.161C32.6453 113.067 34.3498 114.206 35.7633 113.706Z" fill="#41721E"/>
<ellipse cx="261.63" cy="153.69" rx="13.0454" ry="12.8538" fill="#EA4949"/>
<ellipse cx="276.768" cy="157.815" rx="13.0454" ry="12.8538" fill="#EA4949"/>
<ellipse cx="276.768" cy="140.677" rx="13.0454" ry="12.8538" fill="#EA4949"/>
<path d="M265.204 142.248C266.047 140.811 265.102 138.719 263.093 137.577C261.085 136.434 255.305 136.617 255.305 136.617C255.305 136.617 258.034 141.64 260.043 142.783C262.051 143.925 264.362 143.686 265.204 142.248Z" fill="#41721E"/>
<path d="M264.617 140.369C266.082 139.548 266.34 137.273 265.194 135.286C264.047 133.3 258.967 130.578 258.967 130.578C258.967 130.578 258.744 136.272 259.89 138.258C261.036 140.244 263.153 141.189 264.617 140.369Z" fill="#41721E"/>
<ellipse cx="6.03368" cy="5.96452" rx="6.03368" ry="5.96452" transform="matrix(0.995008 0.0998309 -0.105221 0.994453 425.736 122.311)" fill="#EA4949"/>
<ellipse cx="6.03368" cy="5.96452" rx="6.03368" ry="5.96452" transform="matrix(0.995008 0.0998309 -0.105221 0.994453 420.219 115.821)" fill="#EA4949"/>
<ellipse cx="6.03368" cy="5.96452" rx="6.03368" ry="5.96452" transform="matrix(0.995008 0.0998309 -0.105221 0.994453 436.118 121.204)" fill="#EA4949"/>
<ellipse cx="6.03368" cy="5.96452" rx="6.03368" ry="5.96452" transform="matrix(0.995008 0.0998309 -0.105221 0.994453 423.8 109.42)" fill="#EA4949"/>
<ellipse cx="10.1995" cy="10.0825" rx="10.1995" ry="10.0825" transform="matrix(0.995008 0.0998309 -0.105221 0.994453 429.644 106.589)" fill="#EA4949"/>
<path d="M434.994 120.592C436.311 120.477 437.253 118.939 437.097 117.158C436.94 115.377 434.224 111.813 434.224 111.813C434.224 111.813 432.169 115.795 432.325 117.576C432.482 119.357 433.676 120.708 434.994 120.592Z" fill="#41721E"/>
<path d="M436.035 120.739C436.531 119.287 435.294 117.568 433.271 116.899C431.247 116.231 426.063 117.444 426.063 117.444C426.063 117.444 429.45 121.489 431.473 122.158C433.496 122.826 435.538 122.191 436.035 120.739Z" fill="#41721E"/>
<path d="M435.956 119.383C437.146 119.939 438.743 119.077 439.522 117.459C440.302 115.841 439.799 111.408 439.799 111.408C439.799 111.408 435.992 113.83 435.213 115.448C434.433 117.066 434.766 118.828 435.956 119.383Z" fill="#41721E"/>
<ellipse cx="6.97623" cy="6.97241" rx="6.97623" ry="6.97241" transform="matrix(0.844619 0.535382 -0.547718 0.836673 568.479 118.203)" fill="#EA4949"/>
<ellipse cx="6.97623" cy="6.97241" rx="6.97623" ry="6.97241" transform="matrix(0.844619 0.535382 -0.547718 0.836673 574.113 124.422)" fill="#EA4949"/>
<ellipse cx="6.97623" cy="6.97241" rx="6.97623" ry="6.97241" transform="matrix(0.844619 0.535382 -0.547718 0.836673 579.185 116.663)" fill="#EA4949"/>
<path d="M575.553 123.615C576.362 123.204 576.557 121.985 575.988 120.892C575.419 119.799 572.748 118.228 572.748 118.228C572.748 118.228 572.487 121.288 573.056 122.38C573.625 123.473 574.743 124.026 575.553 123.615Z" fill="#41721E"/>
<path d="M575.84 122.604C576.742 122.651 577.531 121.691 577.604 120.461C577.676 119.23 576.196 116.539 576.196 116.539C576.196 116.539 574.41 119.06 574.338 120.291C574.266 121.521 574.939 122.557 575.84 122.604Z" fill="#41721E"/>
<ellipse cx="7.81918" cy="7.71706" rx="7.81918" ry="7.71706" transform="matrix(0.998661 0.0517459 -0.0547192 0.998503 698.23 34.0801)" fill="#EA4949"/>
<ellipse cx="7.81918" cy="7.71706" rx="7.81918" ry="7.71706" transform="matrix(0.998661 0.0517459 -0.0547192 0.998503 707.165 37.0288)" fill="#EA4949"/>
<ellipse cx="7.81918" cy="7.71706" rx="7.81918" ry="7.71706" transform="matrix(0.998661 0.0517459 -0.0547192 0.998503 707.72 26.7617)" fill="#EA4949"/>
<path d="M712.362 37.275C713.365 37.1384 714.024 35.9273 713.835 34.57C713.647 33.2127 711.431 30.5847 711.431 30.5847C711.431 30.5847 710.016 33.7073 710.205 35.0646C710.394 36.422 711.36 37.4116 712.362 37.275Z" fill="#41721E"/>
<path d="M713.165 37.3493C713.488 36.2209 712.474 34.9521 710.9 34.5155C709.326 34.079 705.406 35.1974 705.406 35.1974C705.406 35.1974 708.155 38.1656 709.729 38.6021C711.303 39.0387 712.841 38.4778 713.165 37.3493Z" fill="#41721E"/>
<path d="M713.053 36.3114C713.985 36.6924 715.174 35.9745 715.708 34.708C716.242 33.4415 715.684 30.0687 715.684 30.0687C715.684 30.0687 712.864 32.0618 712.331 33.3284C711.797 34.5949 712.12 35.9304 713.053 36.3114Z" fill="#41721E"/>
</svg>
