<svg width="750" height="230" viewBox="0 0 750 230" fill="none" xmlns="http://www.w3.org/2000/svg">
<path d="M601.837 147.473V142.441H602.197C603.874 142.441 605.431 142.281 606.869 141.962C608.386 141.562 609.624 140.764 610.582 139.566C611.541 138.368 612.02 136.531 612.02 134.055V96.6778C612.02 94.2019 611.541 92.4049 610.582 91.2868C609.704 90.0888 608.506 89.2901 606.989 88.8908C605.471 88.4915 603.874 88.2918 602.197 88.2918H601.837V83.2603H631.787V88.2918H631.428C629.83 88.2918 628.393 88.4915 627.115 88.8908C625.917 89.2901 624.958 90.0888 624.24 91.2868C623.601 92.4848 623.281 94.2818 623.281 96.6778V111.533H631.068L639.694 101.35C642.01 98.6345 643.487 96.558 644.126 95.1204C644.845 93.6828 645.204 92.4049 645.204 91.2868C645.204 90.1687 644.805 89.4099 644.006 89.0106C643.208 88.5314 641.93 88.2918 640.173 88.2918V83.2603H665.57V88.2918C663.653 88.2918 661.817 88.7311 660.06 89.6096C658.302 90.4083 656.545 91.6462 654.788 93.3234C653.031 94.9207 651.075 96.9573 648.918 99.4331L637.058 113.33L638.016 108.059L654.908 132.617C656.266 134.614 657.584 136.371 658.862 137.889C660.139 139.326 661.497 140.444 662.935 141.243C664.372 142.042 665.93 142.441 667.607 142.441H667.966V147.473H666.289C662.935 147.473 660.139 147.353 657.903 147.113C655.747 146.794 653.87 146.235 652.273 145.436C650.755 144.637 649.318 143.479 647.96 141.962C646.602 140.444 645.085 138.408 643.407 135.852L631.068 117.523H623.281V134.055C623.281 136.451 623.641 138.248 624.359 139.446C625.078 140.644 626.037 141.443 627.235 141.842C628.512 142.241 629.91 142.441 631.428 142.441H631.787V147.473H601.837Z" fill="#212121"/>
<path d="M502.509 148.671C496.199 148.671 490.848 147.433 486.456 144.957C482.143 142.401 478.868 138.648 476.632 133.696C474.396 128.744 473.278 122.595 473.278 115.247C473.278 107.899 474.476 101.789 476.872 96.9176C479.268 91.9659 482.662 88.2521 487.055 85.7763C491.447 83.3004 496.599 82.0625 502.509 82.0625C508.818 82.0625 514.129 83.3004 518.442 85.7763C522.835 88.2521 526.149 91.9659 528.385 96.9176C530.622 101.789 531.74 107.899 531.74 115.247C531.74 122.595 530.542 128.744 528.146 133.696C525.75 138.648 522.356 142.401 517.963 144.957C513.65 147.433 508.499 148.671 502.509 148.671ZM502.509 142.92C506.662 142.92 509.976 141.882 512.452 139.806C514.928 137.649 516.725 134.495 517.843 130.342C518.961 126.188 519.52 121.157 519.52 115.247C519.52 109.257 518.961 104.225 517.843 100.152C516.725 96.079 514.928 93.0041 512.452 90.9276C509.976 88.8511 506.662 87.8129 502.509 87.8129C498.436 87.8129 495.121 88.8511 492.565 90.9276C490.09 93.0041 488.293 96.079 487.175 100.152C486.056 104.225 485.497 109.257 485.497 115.247C485.497 121.157 486.056 126.188 487.175 130.342C488.293 134.495 490.09 137.649 492.565 139.806C495.121 141.882 498.436 142.92 502.509 142.92Z" fill="#212121"/>
<path d="M359.795 147.473V142.441H360.754C362.511 142.441 364.108 142.241 365.546 141.842C367.063 141.443 368.261 140.644 369.14 139.446C370.098 138.168 370.577 136.291 370.577 133.815V89.2502H362.311C360.474 89.2502 359.037 89.5697 357.998 90.2086C356.96 90.8475 356.122 91.9257 355.483 93.4432C354.924 94.8808 354.404 96.9573 353.925 99.6727L353.087 104.345H347.456L348.175 83.2603H404.241L404.96 104.345H399.329L398.49 99.6727C398.011 96.9573 397.452 94.8808 396.813 93.4432C396.254 91.9257 395.456 90.8475 394.417 90.2086C393.379 89.5697 391.941 89.2502 390.105 89.2502H381.838V133.815C381.838 136.291 382.278 138.168 383.156 139.446C384.115 140.644 385.313 141.443 386.75 141.842C388.268 142.241 389.905 142.441 391.662 142.441H392.62V147.473H359.795Z" fill="#212121"/>
<path d="M233.37 177.422C231.293 177.422 229.576 177.063 228.219 176.344C226.941 175.625 225.982 174.587 225.343 173.229C224.784 171.952 224.505 170.394 224.505 168.557C224.505 168.158 224.505 167.759 224.505 167.359C224.505 167.04 224.545 166.72 224.625 166.401C225.823 166.64 226.941 166.8 227.979 166.88C229.017 167.04 230.016 167.12 230.974 167.12C234.728 167.12 237.842 166.041 240.318 163.885C242.794 161.729 245.15 158.055 247.386 152.864L251.34 143.879L249.183 150.348L225.583 94.6412C224.545 92.1653 223.467 90.4881 222.348 89.6096C221.23 88.7311 219.513 88.2918 217.197 88.2918H216.838V83.2603H245.589V88.2918H245.23C242.834 88.2918 241.037 88.771 239.839 89.7294C238.721 90.6079 238.162 92.0455 238.162 94.0422C238.162 94.6811 238.242 95.36 238.401 96.0788C238.561 96.7976 238.801 97.5962 239.12 98.4747L247.866 119.799C248.584 121.476 249.343 123.353 250.142 125.43C250.94 127.426 251.739 129.543 252.538 131.779C253.416 134.015 254.255 136.331 255.054 138.727H252.658C253.536 136.331 254.295 134.215 254.934 132.378C255.653 130.541 256.291 128.824 256.851 127.227C257.489 125.629 258.049 124.112 258.528 122.674L267.033 99.3133C267.433 98.3549 267.712 97.4365 267.872 96.558C268.032 95.5996 268.112 94.8009 268.112 94.162C268.112 92.0855 267.433 90.6079 266.075 89.7294C264.797 88.771 262.84 88.2918 260.205 88.2918H259.846V83.2603H284.524V88.2918H284.165C282.647 88.2918 281.369 88.5314 280.331 89.0106C279.373 89.4898 278.494 90.4083 277.696 91.766C276.897 93.1237 276.018 95.0804 275.06 97.6361L255.054 151.546C252.658 157.935 250.381 163.007 248.225 166.76C246.148 170.594 243.952 173.309 241.636 174.907C239.32 176.584 236.565 177.422 233.37 177.422Z" fill="#212121"/>
<path d="M91.4941 148.671C88.539 148.671 86.4625 147.872 85.2645 146.275C84.0665 144.677 83.4675 142.721 83.4675 140.404C83.4675 139.925 83.4675 139.446 83.4675 138.967C83.5474 138.408 83.6273 137.969 83.7071 137.649C84.4259 137.729 85.1048 137.809 85.7437 137.889C86.4625 137.969 87.1414 138.008 87.7803 138.008C90.8951 138.008 93.4907 137.13 95.5672 135.373C97.6438 133.616 99.3209 130.461 100.599 125.909C101.957 121.276 102.915 114.648 103.474 106.022C103.554 105.144 103.594 104.265 103.594 103.386C103.674 102.508 103.714 101.669 103.714 100.871C103.793 99.9922 103.833 99.1137 103.833 98.2351C103.913 97.3566 103.953 96.4781 103.953 95.5996C103.953 92.8042 103.354 90.8875 102.156 89.8492C100.958 88.8109 99.0813 88.2918 96.5256 88.2918H93.5307V83.2603H151.513V88.2918H151.154C149.397 88.2918 147.76 88.4915 146.242 88.8908C144.805 89.2901 143.607 90.0888 142.648 91.2868C141.77 92.4848 141.33 94.3616 141.33 96.9174V133.815C141.33 136.291 141.77 138.168 142.648 139.446C143.607 140.644 144.805 141.443 146.242 141.842C147.76 142.241 149.397 142.441 151.154 142.441H151.513V147.473H120.965V142.441H121.324C123.001 142.441 124.479 142.241 125.757 141.842C127.114 141.443 128.153 140.644 128.871 139.446C129.67 138.168 130.069 136.291 130.069 133.815V89.2502H111.021L110.063 107.22C109.344 120.957 107.427 131.3 104.313 138.248C101.198 145.196 96.925 148.671 91.4941 148.671Z" fill="#212121"/>
<path fill-rule="evenodd" clip-rule="evenodd" d="M288.533 154.012C274.392 158.86 268.248 158.493 253.796 159.242C253.796 162.947 252.831 166.281 252.038 169.232C248.604 182.018 237.386 191.012 224.519 198.932C210.232 207.692 196.083 216.585 177.996 221.418C169.524 223.666 161.338 223.309 154.505 220.545C144.566 216.524 143.272 207.669 152.02 197.889C160.768 188.109 174.859 180.435 192.284 171.097C231.755 146.833 273.606 126.175 316.191 104.865C326.448 99.73 345.821 89.1341 345.821 85.3328C345.821 84.0426 336.476 86.1718 332.401 86.8094C286.885 93.7898 266.162 96.7367 221.537 104.708C183.302 109.876 179.307 111.049 157.596 113.097C133.052 115.413 108.325 116.654 83.6445 118.03C77.3254 118.366 73.2958 119.373 71.51 124.373C69.6326 129.575 71.51 138.486 63.222 140.683C53.2311 143.332 20.2511 148.889 13.9516 138.737C9.70405 131.89 29.9782 108.567 54.3386 108.902C73.5706 109.137 92.9399 110.479 111.943 109.171L114.119 109.021L114.119 109.021C158.18 105.983 227.652 94.7195 235.613 93.7417C282.934 87.9306 297.31 85.3328 347.42 79.225C354.655 78.1846 367.123 75.2664 368.575 77.0435C372.604 81.9768 368.758 83.5877 365.507 85.3328C339.864 99.0923 314.084 112.751 288.533 126.578C276.536 133.088 264.906 139.968 252.542 146.982C261.962 151.168 267.973 150.607 275.208 149.164C293.524 145.506 309.505 138.324 325.257 131.008C368.438 111.04 411.48 90.9372 454.157 70.4322C483.417 56.4043 510.957 42.7698 542.598 31.93C552.672 28.4733 571.649 22.8446 594.711 17.8535C633.383 9.48373 665.883 10.849 694.144 13.0616C722.405 15.2742 736.074 24.742 739.069 29.8335C739.675 30.8649 738.878 35.833 735.175 34.326C731.445 32.8077 724.41 28.1724 716.314 25.7707C700.182 20.985 685.363 20.0172 673.778 19.9501C654.61 19.9501 640.234 20.6408 622.299 22.8446C597.107 25.94 575.272 31.1675 553.247 38.6513C528.566 47.0412 504.664 56.2365 481.448 67.0763C451.776 80.9364 426.161 95.2231 396.443 109.016C373.823 119.487 337.063 132.654 323.884 139.196C310.705 145.738 302.675 149.164 288.533 154.012ZM177.034 211.819C171.31 213.565 159.636 216.724 159.221 210.108C158.942 205.639 174.79 194.335 183.674 187.992C196.312 178.965 210.095 170.776 223.511 162.352C226.121 160.708 229.235 159.231 232.486 158.493C240.179 156.748 244.895 159.835 242.56 165.406C240.362 170.675 237.41 176.631 233.265 180.475C217.643 194.959 199.334 204.906 177.034 211.819ZM45.6843 131.622C40.281 132.797 26.9215 133.7 23.6134 131.89C24.3276 127.402 28.4038 123.11 34.3327 121.104C40.8807 118.89 47.3785 118.165 54.5676 117.997C59.0551 117.896 60.9325 122.192 58.1851 124.742C55.0256 127.662 50.4465 130.582 45.6843 131.622Z" fill="#41721E"/>
<path d="M601.838 147.472V142.44H602.197C603.874 142.44 605.432 142.28 606.869 141.961C608.387 141.561 609.625 140.763 610.583 139.565C611.542 138.367 612.021 136.53 612.021 134.054V96.6768C612.021 94.2009 611.542 92.4039 610.583 91.2858C609.705 90.0878 608.507 89.2892 606.989 88.8898C605.472 88.4905 603.874 88.2908 602.197 88.2908H601.838V83.2593H631.788V88.2908H631.428C629.831 88.2908 628.393 88.4905 627.116 88.8898C625.918 89.2892 624.959 90.0878 624.24 91.2858C623.601 92.4838 623.282 94.2808 623.282 96.6768V111.532H631.069L639.694 101.349C642.011 98.6335 643.488 96.557 644.127 95.1194C644.846 93.6818 645.205 92.4039 645.205 91.2858C645.205 90.1677 644.806 89.409 644.007 89.0096C643.209 88.5304 641.931 88.2908 640.174 88.2908V83.2593H665.571V88.2908C663.654 88.2908 661.817 88.7301 660.06 89.6086C658.303 90.4073 656.546 91.6452 654.789 93.3224C653.032 94.9197 651.075 96.9563 648.919 99.4322L637.059 113.329L638.017 108.058L654.909 132.616C656.267 134.613 657.584 136.37 658.862 137.888C660.14 139.325 661.498 140.443 662.935 141.242C664.373 142.041 665.93 142.44 667.608 142.44H667.967V147.472H666.29C662.935 147.472 660.14 147.352 657.904 147.112C655.747 146.793 653.871 146.234 652.273 145.435C650.756 144.636 649.318 143.478 647.961 141.961C646.603 140.443 645.085 138.407 643.408 135.851L631.069 117.522H623.282V134.054C623.282 136.45 623.641 138.247 624.36 139.445C625.079 140.643 626.037 141.442 627.235 141.841C628.513 142.24 629.911 142.44 631.428 142.44H631.788V147.472H601.838Z" fill="#212121"/>
<path d="M502.509 148.67C496.2 148.67 490.849 147.432 486.456 144.956C482.143 142.4 478.869 138.647 476.633 133.695C474.396 128.743 473.278 122.594 473.278 115.246C473.278 107.898 474.476 101.788 476.872 96.9166C479.268 91.9649 482.663 88.2511 487.055 85.7753C491.448 83.2994 496.599 82.0615 502.509 82.0615C508.819 82.0615 514.13 83.2994 518.443 85.7753C522.835 88.2511 526.15 91.9649 528.386 96.9166C530.622 101.788 531.74 107.898 531.74 115.246C531.74 122.594 530.542 128.743 528.146 133.695C525.75 138.647 522.356 142.4 517.963 144.956C513.651 147.432 508.499 148.67 502.509 148.67ZM502.509 142.919C506.662 142.919 509.977 141.881 512.453 139.805C514.928 137.648 516.725 134.494 517.844 130.341C518.962 126.188 519.521 121.156 519.521 115.246C519.521 109.256 518.962 104.224 517.844 100.151C516.725 96.078 514.928 93.0032 512.453 90.9266C509.977 88.8501 506.662 87.8119 502.509 87.8119C498.436 87.8119 495.122 88.8501 492.566 90.9266C490.09 93.0032 488.293 96.078 487.175 100.151C486.057 104.224 485.498 109.256 485.498 115.246C485.498 121.156 486.057 126.188 487.175 130.341C488.293 134.494 490.09 137.648 492.566 139.805C495.122 141.881 498.436 142.919 502.509 142.919Z" fill="#212121"/>
<path fill-rule="evenodd" clip-rule="evenodd" d="M359.796 142.44V147.472H392.621V142.44H391.662C389.905 142.44 388.268 142.24 386.751 141.841C385.313 141.442 384.115 140.643 383.157 139.445C382.278 138.167 381.839 136.29 381.839 133.814V89.2492H390.105C391.942 89.2492 393.38 89.5687 394.418 90.2076C394.911 90.511 395.35 90.9134 395.735 91.4148L404.398 87.8511L404.241 83.2593H348.175L347.457 104.344H353.087L353.926 99.6718C354.405 96.9563 354.924 94.8798 355.483 93.4422C356.122 91.9247 356.961 90.8466 357.999 90.2076C359.037 89.5687 360.475 89.2492 362.312 89.2492H370.578V133.814C370.578 136.29 370.099 138.167 369.14 139.445C368.262 140.643 367.064 141.442 365.546 141.841C364.109 142.24 362.511 142.44 360.754 142.44H359.796Z" fill="#212121"/>
<path fill-rule="evenodd" clip-rule="evenodd" d="M233.37 177.421C231.294 177.421 229.577 177.062 228.219 176.343C226.941 175.624 225.983 174.586 225.344 173.228C224.785 171.951 224.505 170.393 224.505 168.556V167.358C224.505 167.039 224.545 166.719 224.625 166.4C225.823 166.639 226.941 166.799 227.979 166.879C229.018 167.039 230.016 167.119 230.974 167.119C234.728 167.119 237.843 166.04 240.319 163.884C242.795 161.728 245.151 158.054 247.387 152.863L248.845 149.548L229.501 103.886L240.319 101.395L247.866 119.798C248.585 121.475 249.344 123.352 250.142 125.429C250.941 127.425 251.74 129.542 252.538 131.778C252.997 132.947 253.446 134.137 253.883 135.35C254.264 134.289 254.614 133.298 254.934 132.377C255.653 130.54 256.292 128.823 256.851 127.226C257.49 125.628 258.049 124.111 258.528 122.673L267.034 99.3124C267.273 98.739 267.469 98.1799 267.622 97.6352L275.664 96.0778C275.467 96.5695 275.265 97.0886 275.06 97.6352L255.054 151.545C252.658 157.934 250.382 163.006 248.225 166.759C246.149 170.593 243.953 173.308 241.637 174.906C239.32 176.583 236.565 177.421 233.37 177.421ZM284.525 85.7751V83.2593H259.846V88.2908H260.205C261.616 88.2908 262.833 88.4282 263.854 88.7028L284.525 85.7751ZM222.349 89.6086C223.085 90.187 223.804 91.1115 224.505 92.3822L238.476 91.765C238.75 90.906 239.205 90.2271 239.84 89.7284C241.038 88.77 242.835 88.2908 245.231 88.2908H245.59V83.2593H216.838V88.2908H217.198C219.514 88.2908 221.231 88.7301 222.349 89.6086Z" fill="#212121"/>
<path d="M91.4946 148.67C88.5395 148.67 86.463 147.871 85.265 146.274C84.067 144.676 83.468 142.72 83.468 140.403C83.468 139.924 83.468 139.445 83.468 138.966C83.5479 138.407 83.6277 137.968 83.7076 137.648C84.4264 137.728 85.1053 137.808 85.7442 137.888C86.463 137.968 87.1419 138.007 87.7808 138.007C90.8956 138.007 93.4912 137.129 95.5677 135.372C97.6442 133.615 99.3214 130.46 100.599 125.908C101.957 121.276 102.915 114.647 103.474 106.021C103.554 105.143 103.594 104.264 103.594 103.386C103.674 102.507 103.714 101.668 103.714 100.87C103.794 99.9912 103.834 99.1127 103.834 98.2342C103.914 97.3556 103.954 96.4771 103.954 95.5986C103.954 92.8033 103.355 90.8865 102.157 89.8482C100.959 88.81 99.0818 88.2908 96.5261 88.2908H93.5311V83.2593H151.514V88.2908H151.155C149.397 88.2908 147.76 88.4905 146.243 88.8898C144.805 89.2892 143.607 90.0878 142.649 91.2858C141.77 92.4838 141.331 94.3607 141.331 96.9164V133.814C141.331 136.29 141.77 138.167 142.649 139.445C143.607 140.643 144.805 141.442 146.243 141.841C147.76 142.24 149.397 142.44 151.155 142.44H151.514V147.472H120.965V142.44H121.325C123.002 142.44 124.479 142.24 125.757 141.841C127.115 141.442 128.153 140.643 128.872 139.445C129.671 138.167 130.07 136.29 130.07 133.814V89.2492H111.022L110.063 107.219C109.345 120.956 107.428 131.299 104.313 138.247C101.198 145.195 96.9254 148.67 91.4946 148.67Z" fill="#212121"/>
<ellipse cx="11.4547" cy="11.5283" rx="11.4547" ry="11.5283" transform="matrix(-0.264224 0.964476 -0.967348 -0.253507 54.7253 100.762)" fill="#EA4949"/>
<ellipse cx="11.4547" cy="11.5283" rx="11.4547" ry="11.5283" transform="matrix(-0.264224 0.964476 -0.967348 -0.253507 47.6582 112.6)" fill="#EA4949"/>
<ellipse cx="8.62641" cy="8.68184" rx="8.62641" ry="8.68184" transform="matrix(-0.264224 0.964476 -0.967348 -0.253507 57.9487 115.04)" fill="#EA4949"/>
<path d="M31.1335 113.045C32.0977 111.911 31.6027 109.94 30.028 108.641C28.4532 107.343 23.3717 106.646 23.3717 106.646C23.3717 106.646 24.9618 111.45 26.5365 112.748C28.1112 114.046 30.1694 114.18 31.1335 113.045Z" fill="#41721E"/>
<path d="M30.9117 111.315C32.3252 110.814 32.9125 108.863 32.2235 106.957C31.5344 105.051 27.5154 101.919 27.5154 101.919C27.5154 101.919 26.4157 106.863 27.1047 108.77C27.7938 110.676 29.4982 111.815 30.9117 111.315Z" fill="#41721E"/>
<ellipse cx="6.97623" cy="6.97241" rx="6.97623" ry="6.97241" transform="matrix(0.844619 0.535382 -0.547718 0.836673 432.668 72.2012)" fill="#EA4949"/>
<ellipse cx="6.97623" cy="6.97241" rx="6.97623" ry="6.97241" transform="matrix(0.844619 0.535382 -0.547718 0.836673 438.301 78.4204)" fill="#EA4949"/>
<ellipse cx="6.97623" cy="6.97241" rx="6.97623" ry="6.97241" transform="matrix(0.844619 0.535382 -0.547718 0.836673 443.373 70.6611)" fill="#EA4949"/>
<path d="M439.741 77.6133C440.551 77.2022 440.746 75.9831 440.177 74.8904C439.608 73.7976 436.936 72.227 436.936 72.227C436.936 72.227 436.676 75.2861 437.245 76.3789C437.814 77.4716 438.931 78.0243 439.741 77.6133Z" fill="#41721E"/>
<path d="M440.029 76.6022C440.93 76.6492 441.72 75.6897 441.792 74.4592C441.864 73.2288 440.384 70.5372 440.384 70.5372C440.384 70.5372 438.599 73.0588 438.527 74.2892C438.454 75.5197 439.127 76.5553 440.029 76.6022Z" fill="#41721E"/>
<ellipse cx="6.03368" cy="5.96452" rx="6.03368" ry="5.96452" transform="matrix(0.995008 0.0998309 -0.105221 0.994453 540.329 37.4771)" fill="#EA4949"/>
<ellipse cx="6.03368" cy="5.96452" rx="6.03368" ry="5.96452" transform="matrix(0.995008 0.0998309 -0.105221 0.994453 534.812 30.9873)" fill="#EA4949"/>
<ellipse cx="6.03368" cy="5.96452" rx="6.03368" ry="5.96452" transform="matrix(0.995008 0.0998309 -0.105221 0.994453 550.711 36.3696)" fill="#EA4949"/>
<ellipse cx="6.03368" cy="5.96452" rx="6.03368" ry="5.96452" transform="matrix(0.995008 0.0998309 -0.105221 0.994453 538.393 24.5864)" fill="#EA4949"/>
<ellipse cx="10.1995" cy="10.0825" rx="10.1995" ry="10.0825" transform="matrix(0.995008 0.0998309 -0.105221 0.994453 544.237 21.7559)" fill="#EA4949"/>
<path d="M549.587 35.7587C550.904 35.6433 551.846 34.1059 551.69 32.3247C551.533 30.5435 548.817 26.9791 548.817 26.9791C548.817 26.9791 546.762 30.9612 546.918 32.7424C547.075 34.5236 548.269 35.874 549.587 35.7587Z" fill="#41721E"/>
<path d="M550.628 35.9053C551.124 34.4532 549.887 32.7341 547.864 32.0657C545.84 31.3972 540.656 32.6105 540.656 32.6105C540.656 32.6105 544.043 36.6558 546.066 37.3242C548.089 37.9927 550.131 37.3574 550.628 35.9053Z" fill="#41721E"/>
<path d="M550.549 34.5498C551.739 35.1051 553.336 34.2436 554.115 32.6255C554.895 31.0074 554.392 26.5743 554.392 26.5743C554.392 26.5743 550.585 28.9965 549.806 30.6146C549.026 32.2327 549.359 33.9945 550.549 34.5498Z" fill="#41721E"/>
<ellipse cx="7.81918" cy="7.71706" rx="7.81918" ry="7.71706" transform="matrix(0.998661 0.0517459 -0.0547192 0.998503 658.819 8.98779)" fill="#EA4949"/>
<ellipse cx="7.81918" cy="7.71706" rx="7.81918" ry="7.71706" transform="matrix(0.998661 0.0517459 -0.0547192 0.998503 667.754 11.9365)" fill="#EA4949"/>
<ellipse cx="7.81918" cy="7.71706" rx="7.81918" ry="7.71706" transform="matrix(0.998661 0.0517459 -0.0547192 0.998503 668.309 1.66943)" fill="#EA4949"/>
<path d="M672.951 12.1827C673.954 12.0461 674.613 10.835 674.424 9.47771C674.235 8.12039 672.02 5.49242 672.02 5.49242C672.02 5.49242 670.605 8.61504 670.794 9.97236C670.983 11.3297 671.949 12.3193 672.951 12.1827Z" fill="#41721E"/>
<path d="M673.754 12.2571C674.077 11.1286 673.063 9.85984 671.489 9.42326C669.915 8.98668 665.995 10.1051 665.995 10.1051C665.995 10.1051 668.744 13.0733 670.318 13.5099C671.892 13.9464 673.43 13.3855 673.754 12.2571Z" fill="#41721E"/>
<path d="M673.641 11.2191C674.574 11.6001 675.763 10.8822 676.297 9.61573C676.83 8.34921 676.273 4.97644 676.273 4.97644C676.273 4.97644 673.453 6.96956 672.919 8.23608C672.386 9.5026 672.709 10.8382 673.641 11.2191Z" fill="#41721E"/>
<ellipse cx="245.867" cy="165.658" rx="13.0454" ry="12.8538" fill="#EA4949"/>
<ellipse cx="261.004" cy="169.783" rx="13.0454" ry="12.8538" fill="#EA4949"/>
<ellipse cx="261.004" cy="152.645" rx="13.0454" ry="12.8538" fill="#EA4949"/>
<path d="M249.441 154.217C250.283 152.779 249.338 150.687 247.33 149.545C245.321 148.402 239.542 148.585 239.542 148.585C239.542 148.585 242.271 153.609 244.279 154.751C246.287 155.894 248.598 155.654 249.441 154.217Z" fill="#41721E"/>
<path d="M248.854 152.337C250.318 151.516 250.576 149.241 249.43 147.255C248.284 145.268 243.204 142.546 243.204 142.546C243.204 142.546 242.98 148.24 244.126 150.226C245.272 152.212 247.389 153.157 248.854 152.337Z" fill="#41721E"/>
</svg>
