<svg width="750" height="230" viewBox="0 0 750 230" fill="none" xmlns="http://www.w3.org/2000/svg">
<path d="M601.837 147.473V142.441H602.197C603.874 142.441 605.431 142.281 606.869 141.962C608.386 141.562 609.624 140.764 610.582 139.566C611.541 138.368 612.02 136.531 612.02 134.055V96.6778C612.02 94.2019 611.541 92.4049 610.582 91.2868C609.704 90.0888 608.506 89.2901 606.989 88.8908C605.471 88.4915 603.874 88.2918 602.197 88.2918H601.837V83.2603H631.787V88.2918H631.428C629.83 88.2918 628.393 88.4915 627.115 88.8908C625.917 89.2901 624.958 90.0888 624.24 91.2868C623.601 92.4848 623.281 94.2818 623.281 96.6778V111.533H631.068L639.694 101.35C642.01 98.6345 643.487 96.558 644.126 95.1204C644.845 93.6828 645.204 92.4049 645.204 91.2868C645.204 90.1687 644.805 89.4099 644.006 89.0106C643.208 88.5314 641.93 88.2918 640.173 88.2918V83.2603H665.57V88.2918C663.653 88.2918 661.817 88.7311 660.06 89.6096C658.302 90.4083 656.545 91.6462 654.788 93.3234C653.031 94.9207 651.075 96.9573 648.918 99.4331L637.058 113.33L638.016 108.059L654.908 132.617C656.266 134.614 657.584 136.371 658.862 137.889C660.139 139.326 661.497 140.444 662.935 141.243C664.372 142.042 665.93 142.441 667.607 142.441H667.966V147.473H666.289C662.935 147.473 660.139 147.353 657.903 147.113C655.747 146.794 653.87 146.235 652.273 145.436C650.755 144.637 649.318 143.479 647.96 141.962C646.602 140.444 645.085 138.408 643.407 135.852L631.068 117.523H623.281V134.055C623.281 136.451 623.641 138.248 624.359 139.446C625.078 140.644 626.037 141.443 627.235 141.842C628.512 142.241 629.91 142.441 631.428 142.441H631.787V147.473H601.837Z" fill="#212121"/>
<path d="M502.509 148.671C496.199 148.671 490.848 147.433 486.456 144.957C482.143 142.401 478.868 138.648 476.632 133.696C474.396 128.744 473.278 122.595 473.278 115.247C473.278 107.899 474.476 101.789 476.872 96.9176C479.268 91.9659 482.662 88.2521 487.055 85.7763C491.447 83.3004 496.599 82.0625 502.509 82.0625C508.818 82.0625 514.129 83.3004 518.442 85.7763C522.835 88.2521 526.149 91.9659 528.385 96.9176C530.622 101.789 531.74 107.899 531.74 115.247C531.74 122.595 530.542 128.744 528.146 133.696C525.75 138.648 522.356 142.401 517.963 144.957C513.65 147.433 508.499 148.671 502.509 148.671ZM502.509 142.92C506.662 142.92 509.976 141.882 512.452 139.806C514.928 137.649 516.725 134.495 517.843 130.342C518.961 126.188 519.52 121.157 519.52 115.247C519.52 109.257 518.961 104.225 517.843 100.152C516.725 96.079 514.928 93.0041 512.452 90.9276C509.976 88.8511 506.662 87.8129 502.509 87.8129C498.436 87.8129 495.121 88.8511 492.565 90.9276C490.09 93.0041 488.293 96.079 487.175 100.152C486.056 104.225 485.497 109.257 485.497 115.247C485.497 121.157 486.056 126.188 487.175 130.342C488.293 134.495 490.09 137.649 492.565 139.806C495.121 141.882 498.436 142.92 502.509 142.92Z" fill="#212121"/>
<path d="M359.795 147.473V142.441H360.754C362.511 142.441 364.108 142.241 365.546 141.842C367.063 141.443 368.261 140.644 369.14 139.446C370.098 138.168 370.577 136.291 370.577 133.815V89.2502H362.311C360.474 89.2502 359.037 89.5697 357.998 90.2086C356.96 90.8475 356.122 91.9257 355.483 93.4432C354.924 94.8808 354.404 96.9573 353.925 99.6727L353.087 104.345H347.456L348.175 83.2603H404.241L404.96 104.345H399.329L398.49 99.6727C398.011 96.9573 397.452 94.8808 396.813 93.4432C396.254 91.9257 395.456 90.8475 394.417 90.2086C393.379 89.5697 391.941 89.2502 390.105 89.2502H381.838V133.815C381.838 136.291 382.278 138.168 383.156 139.446C384.115 140.644 385.313 141.443 386.75 141.842C388.268 142.241 389.905 142.441 391.662 142.441H392.62V147.473H359.795Z" fill="#212121"/>
<path d="M233.37 177.422C231.293 177.422 229.576 177.063 228.219 176.344C226.941 175.625 225.982 174.587 225.343 173.229C224.784 171.952 224.505 170.394 224.505 168.557C224.505 168.158 224.505 167.759 224.505 167.359C224.505 167.04 224.545 166.72 224.625 166.401C225.823 166.64 226.941 166.8 227.979 166.88C229.017 167.04 230.016 167.12 230.974 167.12C234.728 167.12 237.842 166.041 240.318 163.885C242.794 161.729 245.15 158.055 247.386 152.864L251.34 143.879L249.183 150.348L225.583 94.6412C224.545 92.1653 223.467 90.4881 222.348 89.6096C221.23 88.7311 219.513 88.2918 217.197 88.2918H216.838V83.2603H245.589V88.2918H245.23C242.834 88.2918 241.037 88.771 239.839 89.7294C238.721 90.6079 238.162 92.0455 238.162 94.0422C238.162 94.6811 238.242 95.36 238.401 96.0788C238.561 96.7976 238.801 97.5962 239.12 98.4747L247.866 119.799C248.584 121.476 249.343 123.353 250.142 125.43C250.94 127.426 251.739 129.543 252.538 131.779C253.416 134.015 254.255 136.331 255.054 138.727H252.658C253.536 136.331 254.295 134.215 254.934 132.378C255.653 130.541 256.291 128.824 256.851 127.227C257.489 125.629 258.049 124.112 258.528 122.674L267.033 99.3133C267.433 98.3549 267.712 97.4365 267.872 96.558C268.032 95.5996 268.112 94.8009 268.112 94.162C268.112 92.0855 267.433 90.6079 266.075 89.7294C264.797 88.771 262.84 88.2918 260.205 88.2918H259.846V83.2603H284.524V88.2918H284.165C282.647 88.2918 281.369 88.5314 280.331 89.0106C279.373 89.4898 278.494 90.4083 277.696 91.766C276.897 93.1237 276.018 95.0804 275.06 97.6361L255.054 151.546C252.658 157.935 250.381 163.007 248.225 166.76C246.148 170.594 243.952 173.309 241.636 174.907C239.32 176.584 236.565 177.422 233.37 177.422Z" fill="#212121"/>
<path d="M91.4941 148.671C88.539 148.671 86.4625 147.872 85.2645 146.275C84.0665 144.677 83.4675 142.721 83.4675 140.404C83.4675 139.925 83.4675 139.446 83.4675 138.967C83.5474 138.408 83.6273 137.969 83.7071 137.649C84.4259 137.729 85.1048 137.809 85.7437 137.889C86.4625 137.969 87.1414 138.008 87.7803 138.008C90.8951 138.008 93.4907 137.13 95.5672 135.373C97.6438 133.616 99.3209 130.461 100.599 125.909C101.957 121.276 102.915 114.648 103.474 106.022C103.554 105.144 103.594 104.265 103.594 103.386C103.674 102.508 103.714 101.669 103.714 100.871C103.793 99.9922 103.833 99.1137 103.833 98.2351C103.913 97.3566 103.953 96.4781 103.953 95.5996C103.953 92.8042 103.354 90.8875 102.156 89.8492C100.958 88.8109 99.0813 88.2918 96.5256 88.2918H93.5307V83.2603H151.513V88.2918H151.154C149.397 88.2918 147.76 88.4915 146.242 88.8908C144.805 89.2901 143.607 90.0888 142.648 91.2868C141.77 92.4848 141.33 94.3616 141.33 96.9174V133.815C141.33 136.291 141.77 138.168 142.648 139.446C143.607 140.644 144.805 141.443 146.242 141.842C147.76 142.241 149.397 142.441 151.154 142.441H151.513V147.473H120.965V142.441H121.324C123.001 142.441 124.479 142.241 125.757 141.842C127.114 141.443 128.153 140.644 128.871 139.446C129.67 138.168 130.069 136.291 130.069 133.815V89.2502H111.021L110.063 107.22C109.344 120.957 107.427 131.3 104.313 138.248C101.198 145.196 96.925 148.671 91.4941 148.671Z" fill="#212121"/>
<path fill-rule="evenodd" clip-rule="evenodd" d="M27.4397 162.388C32.5963 166.273 42.1728 163.537 48.02 161.105C70.4878 151.612 93.1398 142.357 115.193 132.358C149.356 116.852 183.406 98.0205 217.338 82.2789C222.092 80.0735 232.923 77.729 232.923 84.4931C232.923 89.8028 205.398 109.466 192.369 121.492C179.477 133.349 162.323 143.831 149.432 156.025C174.11 150.891 197.407 140.055 219.507 131.374C221.401 130.63 222.054 132.49 222.054 133.168C222.054 135.839 220.442 137.661 218.555 139.147C213.03 143.539 206.584 147.289 201.197 151.748C197.79 154.585 190.244 164.457 188.292 168.953C189.49 171.747 215.562 165.226 225.461 163.064C281.953 150.7 264.23 155.102 320.63 142.468C325.971 141.286 331.357 140.104 336.79 139.124C357.548 135.425 371.091 124.558 384.714 113.628L385.271 113.181C390.704 108.823 396.643 104.601 403.273 101.29C410.594 97.608 418.743 98.4863 422.748 102.135C426.984 105.986 426.155 113.248 419.203 117.133C410.437 123.278 401.109 127.47 390.842 129.632C355.717 134.418 333.792 156.468 322.314 166.216C316.677 171.003 314.426 175.84 313.183 177.901C312.684 178.727 312.057 180.577 312.481 182.904C314.046 188.018 328.779 189.018 338.586 187.261C359.35 183.545 376.247 174.458 393.835 166.216C432.923 147.907 469.203 126.794 505.253 105.479C508.384 103.621 514.864 101.583 515.344 99.7316C515.951 97.3896 509.653 97.0362 506.955 95.0006C502.828 91.8878 501.109 86.6632 502.26 81.9339C504.562 72.6443 512.389 65.5166 520.354 58.8619C533.171 48.1337 546.998 38.0238 560.788 27.9407L562.666 26.5678C570.861 20.5887 586.791 18.5957 593.651 22.075C600.834 25.6895 603.504 36.8033 596.92 44.9106C590.751 52.4774 582.325 59.1322 574.314 65.7869C566.395 72.3741 557.74 78.4545 549.36 84.7715C547.947 86.0709 548.846 87.6002 551.386 86.9334C556.404 85.616 564.162 82.6603 571.949 80.5638C583.246 77.5222 593.776 74.1942 598.119 80.5638C602.461 86.9334 565.596 137.97 572.548 146.753C576.461 151.685 584.025 153.578 589.919 153.105C607.589 151.351 616.274 150.347 628.853 148.55L658.958 143.446C674.842 140.474 686.03 133.616 696.665 125.475C700.532 122.502 704.17 119.395 708.129 116.489C710.247 114.902 712.595 113.348 715.173 112.199C722.954 108.754 736.674 109.193 739.069 113.247C742.706 119.428 736.766 123.482 730.873 126.151C718.857 131.589 706.564 136.96 693.58 140.913C685.293 143.446 678.341 146.419 672.493 151.351C668.166 154.999 662.825 157.972 658.175 161.417C652.616 165.536 644.791 169.527 648.506 176.112C650.753 180.095 666.6 177.497 674.703 174.49C686.643 170.045 698.144 165.053 709.678 160.048L709.678 160.047L710.569 159.661C714.253 158.073 722.171 156.654 722.171 160.776C722.171 162.979 714.85 165.956 707.853 168.241C696.803 172.801 685.753 177.463 674.105 181.145C667.337 183.273 659.418 184.76 652.144 184.489C637.963 183.915 632.99 175.774 641.048 167.025C645.744 161.924 651.821 157.499 658.681 151.554L595.033 158.645C590.521 159.085 585.916 159.22 581.312 159.253C576.708 159.287 568.779 161.417 562.666 153.105C551.386 137.768 596.908 88.0233 591.218 83.8594C587.923 81.4487 545.217 97.1689 526.386 101.56C523.209 102.304 520.769 104.634 517.96 106.256C488.678 123.011 459.765 140.104 430.023 156.386C414.164 163.833 400.282 169.222 384.352 177.228C377.63 180.606 363.646 187.539 352.118 190.622C338.205 194.343 308.69 199.165 298.269 190.622C290.121 182.904 320.17 157.94 342.776 144.867C342.614 143.742 340.37 143.328 334.789 144.486C306.295 150.396 300.295 152.066 283.812 155.951C267.33 159.836 261.373 162.591 244.522 165.429C236.004 166.881 232.693 168.11 228.082 168.953C219.507 170.521 218.417 171.043 210.195 171.929C199.786 171.929 181.128 177.773 180.006 175.563C177.774 171.165 179.29 162.287 184.88 153.476C172.323 158.812 159.137 163.064 146.84 166.72C146.84 166.72 124.125 171.716 118.508 171.929C112.891 172.143 120.856 165.342 124.125 162.674C147.007 144.162 171.179 128.574 193.969 109.995C195.396 108.846 200.874 104.213 199.786 102.13C197.52 101.236 142.864 126.514 118.508 139.418C93.9685 152.423 67.8691 162.643 41.7806 173.94C33.2096 176.846 26.8843 177.706 17.9753 175.563C5.04509 172.452 18.692 150.971 32.5963 141.951C50.8284 130.061 68.8303 117.933 86.7402 105.772C90.2853 103.374 97.4217 99.526 97.4217 96.5166C97.4217 92.0846 89.6868 93.8479 87.4308 94.2871C75.7364 96.6179 64.1802 99.3879 52.624 102.124C46.6387 103.543 33.5487 108.828 32.8264 103.543C32.4808 101.014 36.4638 98.7798 38.996 97.6989C55.7672 92.1675 73.3674 88.1623 92.106 85.8652C98.6898 85.0545 104.604 84.5583 107.827 89.1862C111.05 93.8817 110.681 98.8474 105.801 102.8C99.9998 107.461 93.5082 111.718 87.0625 115.974C70.3958 126.953 53.5909 137.796 36.9241 148.775C31.6294 152.322 23.8627 158.685 27.4397 162.388ZM578.09 28.3244C584.489 26.6354 589.139 29.5743 589.508 37.0398C589.508 42.1084 584.305 46.5004 578.984 50.9926C578.981 50.9949 578.979 50.9972 578.976 50.9994C578.972 51.0025 578.969 51.0056 578.965 51.0087C578.674 51.2545 578.382 51.5005 578.092 51.747C577.937 51.8777 577.783 52.0086 577.629 52.1396C566.882 61.3198 555.4 69.9836 543.902 78.6593C541.607 80.3908 539.312 82.1227 537.021 83.8594C529.471 89.6021 519.434 92.0342 515.658 88.8251C509.752 83.7797 514.013 78.8478 517.636 74.6531C517.967 74.2699 518.293 73.8929 518.605 73.5226C523.9 67.2394 530.53 61.4968 537.205 55.923C545.861 48.6264 554.885 41.5326 564.277 34.7765C568.099 32.0065 573.071 29.6418 578.09 28.3244ZM415.842 108.08C417.109 111.496 400.603 120.173 387.159 121.93C388.132 120.999 389.061 120.072 389.971 119.165C396.555 112.599 414.413 104.224 415.842 108.08ZM708.774 126.016C711.883 121.287 724.094 116.489 725.532 119.935C726.575 122.432 717.653 125.667 713.106 127.316C712.173 127.654 711.424 127.925 710.984 128.11C708.396 129.194 707.937 127.285 708.675 126.165L708.774 126.016Z" fill="#41721E"/>
<path d="M601.838 147.472V142.44H602.197C603.874 142.44 605.432 142.28 606.869 141.961C608.387 141.561 609.625 140.763 610.583 139.565C611.542 138.367 612.021 136.53 612.021 134.054V96.6768C612.021 94.2009 611.542 92.4039 610.583 91.2858C609.705 90.0878 608.507 89.2892 606.989 88.8898C605.472 88.4905 603.874 88.2908 602.197 88.2908H601.838V83.2593H631.788V88.2908H631.428C629.831 88.2908 628.393 88.4905 627.116 88.8898C625.918 89.2892 624.959 90.0878 624.24 91.2858C623.601 92.4838 623.282 94.2808 623.282 96.6768V111.532H631.069L639.694 101.349C642.011 98.6335 643.488 96.557 644.127 95.1194C644.846 93.6818 645.205 92.4039 645.205 91.2858C645.205 90.1677 644.806 89.409 644.007 89.0096C643.209 88.5304 641.931 88.2908 640.174 88.2908V83.2593H665.571V88.2908C663.654 88.2908 661.817 88.7301 660.06 89.6086C658.303 90.4073 656.546 91.6452 654.789 93.3224C653.032 94.9197 651.075 96.9563 648.919 99.4322L637.059 113.329L638.017 108.058L654.909 132.616C656.267 134.613 657.584 136.37 658.862 137.888C660.14 139.325 661.498 140.443 662.935 141.242C664.373 142.041 665.93 142.44 667.608 142.44H667.967V147.472H666.29C662.935 147.472 660.14 147.352 657.904 147.112C655.747 146.793 653.871 146.234 652.273 145.435C650.756 144.636 649.318 143.478 647.961 141.961C646.603 140.443 645.085 138.407 643.408 135.851L631.069 117.522H623.282V134.054C623.282 136.45 623.641 138.247 624.36 139.445C625.079 140.643 626.037 141.442 627.235 141.841C628.513 142.24 629.911 142.44 631.428 142.44H631.788V147.472H601.838Z" fill="#212121"/>
<path d="M85.265 146.274C86.463 147.871 88.5395 148.67 91.4946 148.67C96.9254 148.67 101.198 145.195 104.313 138.247C105.807 134.915 107.025 130.802 107.968 125.908H100.599C99.3214 130.46 97.6442 133.615 95.5677 135.372C93.4912 137.129 90.8956 138.007 87.7808 138.007C87.1419 138.007 86.463 137.968 85.7442 137.888C85.1053 137.808 84.4264 137.728 83.7076 137.648C83.6277 137.968 83.5479 138.407 83.468 138.966V140.403C83.468 142.72 84.067 144.676 85.265 146.274Z" fill="#212121"/>
<path d="M103.594 103.386C103.594 104.264 103.554 105.143 103.474 106.021L110.063 107.219L111.022 89.2492V83.2593H93.5311V88.2908H96.5261C99.0818 88.2908 100.959 88.81 102.157 89.8482C103.355 90.8865 103.954 92.8033 103.954 95.5986C103.954 96.4771 103.914 97.3556 103.834 98.2342C103.834 99.1127 103.794 99.9912 103.714 100.87C103.714 101.668 103.674 102.507 103.594 103.386Z" fill="#212121"/>
<path fill-rule="evenodd" clip-rule="evenodd" d="M228.219 176.343C229.577 177.062 231.294 177.421 233.37 177.421C236.565 177.421 239.32 176.583 241.637 174.906C243.953 173.308 246.149 170.593 248.225 166.759C250.382 163.006 252.658 157.934 255.054 151.545L247.387 152.863C245.151 158.054 242.795 161.728 240.319 163.884C237.843 166.04 234.728 167.119 230.974 167.119C230.016 167.119 229.018 167.039 227.979 166.879C226.941 166.799 225.823 166.639 224.625 166.4C224.545 166.719 224.505 167.039 224.505 167.358V168.556C224.505 170.393 224.785 171.951 225.344 173.228C225.983 174.586 226.941 175.624 228.219 176.343ZM253.883 135.35C253.837 135.48 253.79 135.61 253.742 135.742C253.404 136.683 253.042 137.678 252.658 138.726H255.054C254.673 137.583 254.283 136.457 253.883 135.35ZM248.845 149.548L249.184 150.347L251.34 143.878L248.845 149.548Z" fill="#212121"/>
<path fill-rule="evenodd" clip-rule="evenodd" d="M404.96 104.344L404.241 83.2593L396.814 93.4422C397.453 94.8798 398.012 96.9563 398.491 99.6718L399.33 104.344H404.96Z" fill="#212121"/>
<path fill-rule="evenodd" clip-rule="evenodd" d="M473.278 115.246C473.278 122.594 474.396 128.743 476.633 133.695L487.175 130.341C486.057 126.188 485.498 121.156 485.498 115.246H473.278Z" fill="#212121"/>
<ellipse cx="11.4547" cy="11.5283" rx="11.4547" ry="11.5283" transform="matrix(-0.264224 0.964476 -0.967348 -0.253507 58.3635 119.878)" fill="#EA4949"/>
<ellipse cx="11.4547" cy="11.5283" rx="11.4547" ry="11.5283" transform="matrix(-0.264224 0.964476 -0.967348 -0.253507 51.2964 131.717)" fill="#EA4949"/>
<ellipse cx="8.62641" cy="8.68184" rx="8.62641" ry="8.68184" transform="matrix(-0.264224 0.964476 -0.967348 -0.253507 61.5869 134.156)" fill="#EA4949"/>
<path d="M34.772 132.162C35.7361 131.028 35.2411 129.056 33.6664 127.758C32.0917 126.46 27.0101 125.763 27.0101 125.763C27.0101 125.763 28.6002 130.566 30.1749 131.865C31.7497 133.163 33.8078 133.296 34.772 132.162Z" fill="#41721E"/>
<path d="M34.5499 130.431C35.9634 129.931 36.5507 127.98 35.8616 126.074C35.1726 124.168 31.1536 121.036 31.1536 121.036C31.1536 121.036 30.0539 125.98 30.7429 127.886C31.432 129.792 33.1364 130.932 34.5499 130.431Z" fill="#41721E"/>
<ellipse cx="266.482" cy="157.892" rx="13.0454" ry="12.8538" fill="#EA4949"/>
<ellipse cx="281.619" cy="162.017" rx="13.0454" ry="12.8538" fill="#EA4949"/>
<ellipse cx="281.619" cy="144.879" rx="13.0454" ry="12.8538" fill="#EA4949"/>
<path d="M270.056 146.45C270.898 145.013 269.953 142.921 267.945 141.779C265.936 140.636 260.157 140.819 260.157 140.819C260.157 140.819 262.886 145.843 264.894 146.985C266.902 148.127 269.213 147.888 270.056 146.45Z" fill="#41721E"/>
<path d="M269.469 144.571C270.933 143.75 271.191 141.475 270.045 139.488C268.899 137.502 263.819 134.78 263.819 134.78C263.819 134.78 263.595 140.474 264.741 142.46C265.887 144.446 268.004 145.391 269.469 144.571Z" fill="#41721E"/>
<ellipse cx="6.03368" cy="5.96452" rx="6.03368" ry="5.96452" transform="matrix(0.995008 0.0998309 -0.105221 0.994453 425.736 150.387)" fill="#EA4949"/>
<ellipse cx="6.03368" cy="5.96452" rx="6.03368" ry="5.96452" transform="matrix(0.995008 0.0998309 -0.105221 0.994453 420.219 143.897)" fill="#EA4949"/>
<ellipse cx="6.03368" cy="5.96452" rx="6.03368" ry="5.96452" transform="matrix(0.995008 0.0998309 -0.105221 0.994453 436.118 149.28)" fill="#EA4949"/>
<ellipse cx="6.03368" cy="5.96452" rx="6.03368" ry="5.96452" transform="matrix(0.995008 0.0998309 -0.105221 0.994453 423.8 137.497)" fill="#EA4949"/>
<ellipse cx="10.1995" cy="10.0825" rx="10.1995" ry="10.0825" transform="matrix(0.995008 0.0998309 -0.105221 0.994453 429.644 134.666)" fill="#EA4949"/>
<path d="M434.994 148.669C436.311 148.553 437.253 147.016 437.097 145.235C436.94 143.454 434.224 139.889 434.224 139.889C434.224 139.889 432.169 143.871 432.325 145.653C432.482 147.434 433.676 148.784 434.994 148.669Z" fill="#41721E"/>
<path d="M436.035 148.815C436.531 147.363 435.294 145.644 433.271 144.976C431.247 144.307 426.063 145.521 426.063 145.521C426.063 145.521 429.45 149.566 431.473 150.234C433.496 150.903 435.538 150.268 436.035 148.815Z" fill="#41721E"/>
<path d="M435.956 147.46C437.146 148.015 438.743 147.154 439.522 145.536C440.302 143.918 439.799 139.484 439.799 139.484C439.799 139.484 435.992 141.907 435.213 143.525C434.433 145.143 434.766 146.905 435.956 147.46Z" fill="#41721E"/>
<ellipse cx="6.97623" cy="6.97241" rx="6.97623" ry="6.97241" transform="matrix(0.844619 0.535382 -0.547718 0.836673 581.213 14.2539)" fill="#EA4949"/>
<ellipse cx="6.97623" cy="6.97241" rx="6.97623" ry="6.97241" transform="matrix(0.844619 0.535382 -0.547718 0.836673 586.846 20.4731)" fill="#EA4949"/>
<ellipse cx="6.97623" cy="6.97241" rx="6.97623" ry="6.97241" transform="matrix(0.844619 0.535382 -0.547718 0.836673 591.918 12.7139)" fill="#EA4949"/>
<path d="M588.286 19.666C589.096 19.255 589.291 18.0359 588.722 16.9431C588.153 15.8503 585.481 14.2797 585.481 14.2797C585.481 14.2797 585.22 17.3388 585.79 18.4316C586.359 19.5244 587.476 20.077 588.286 19.666Z" fill="#41721E"/>
<path d="M588.574 18.655C589.475 18.7019 590.265 17.7425 590.337 16.512C590.409 15.2815 588.929 12.5899 588.929 12.5899C588.929 12.5899 587.144 15.1115 587.072 16.342C586.999 17.5724 587.672 18.608 588.574 18.655Z" fill="#41721E"/>
<ellipse cx="7.81918" cy="7.71706" rx="7.81918" ry="7.71706" transform="matrix(0.998661 0.0517459 -0.0547192 0.998503 685.497 126.676)" fill="#EA4949"/>
<ellipse cx="7.81918" cy="7.71706" rx="7.81918" ry="7.71706" transform="matrix(0.998661 0.0517459 -0.0547192 0.998503 694.431 129.625)" fill="#EA4949"/>
<ellipse cx="7.81918" cy="7.71706" rx="7.81918" ry="7.71706" transform="matrix(0.998661 0.0517459 -0.0547192 0.998503 694.987 119.358)" fill="#EA4949"/>
<path d="M699.629 129.871C700.631 129.735 701.291 128.524 701.102 127.166C700.913 125.809 698.698 123.181 698.698 123.181C698.698 123.181 697.283 126.304 697.472 127.661C697.661 129.018 698.627 130.008 699.629 129.871Z" fill="#41721E"/>
<path d="M700.431 129.946C700.755 128.817 699.741 127.548 698.167 127.112C696.593 126.675 692.672 127.794 692.672 127.794C692.672 127.794 695.421 130.762 696.996 131.198C698.57 131.635 700.108 131.074 700.431 129.946Z" fill="#41721E"/>
<path d="M700.319 128.908C701.252 129.289 702.441 128.571 702.974 127.304C703.508 126.038 702.95 122.665 702.95 122.665C702.95 122.665 700.131 124.658 699.597 125.925C699.063 127.191 699.387 128.527 700.319 128.908Z" fill="#41721E"/>
</svg>
