<svg width="750" height="230" viewBox="0 0 750 230" fill="none" xmlns="http://www.w3.org/2000/svg">
<path d="M601.838 147.473V142.441H602.198C603.875 142.441 605.432 142.281 606.87 141.962C608.387 141.562 609.625 140.764 610.583 139.566C611.542 138.368 612.021 136.531 612.021 134.055V96.6778C612.021 94.2019 611.542 92.4049 610.583 91.2868C609.705 90.0888 608.507 89.2901 606.989 88.8908C605.472 88.4915 603.875 88.2918 602.198 88.2918H601.838V83.2603H631.788V88.2918H631.429C629.831 88.2918 628.394 88.4915 627.116 88.8908C625.918 89.2901 624.959 90.0888 624.241 91.2868C623.602 92.4848 623.282 94.2818 623.282 96.6778V111.533H631.069L639.695 101.35C642.011 98.6345 643.488 96.558 644.127 95.1204C644.846 93.6828 645.205 92.4049 645.205 91.2868C645.205 90.1687 644.806 89.4099 644.007 89.0106C643.209 88.5314 641.931 88.2918 640.174 88.2918V83.2603H665.571V88.2918C663.654 88.2918 661.818 88.7311 660.06 89.6096C658.303 90.4083 656.546 91.6462 654.789 93.3234C653.032 94.9207 651.076 96.9573 648.919 99.4331L637.059 113.33L638.017 108.059L654.909 132.617C656.267 134.614 657.585 136.371 658.863 137.889C660.14 139.326 661.498 140.444 662.936 141.243C664.373 142.042 665.931 142.441 667.608 142.441H667.967V147.473H666.29C662.936 147.473 660.14 147.353 657.904 147.113C655.748 146.794 653.871 146.235 652.274 145.436C650.756 144.637 649.319 143.479 647.961 141.962C646.603 140.444 645.086 138.408 643.408 135.852L631.069 117.523H623.282V134.055C623.282 136.451 623.642 138.248 624.36 139.446C625.079 140.644 626.038 141.443 627.236 141.842C628.513 142.241 629.911 142.441 631.429 142.441H631.788V147.473H601.838Z" fill="#212121"/>
<path d="M502.51 148.671C496.2 148.671 490.849 147.433 486.457 144.957C482.144 142.401 478.869 138.648 476.633 133.696C474.397 128.744 473.279 122.595 473.279 115.247C473.279 107.899 474.477 101.789 476.873 96.9176C479.269 91.9659 482.663 88.2521 487.056 85.7763C491.448 83.3004 496.6 82.0625 502.51 82.0625C508.819 82.0625 514.13 83.3004 518.443 85.7763C522.836 88.2521 526.15 91.9659 528.386 96.9176C530.623 101.789 531.741 107.899 531.741 115.247C531.741 122.595 530.543 128.744 528.147 133.696C525.751 138.648 522.356 142.401 517.964 144.957C513.651 147.433 508.5 148.671 502.51 148.671ZM502.51 142.92C506.663 142.92 509.977 141.882 512.453 139.806C514.929 137.649 516.726 134.495 517.844 130.342C518.962 126.188 519.521 121.157 519.521 115.247C519.521 109.257 518.962 104.225 517.844 100.152C516.726 96.079 514.929 93.0041 512.453 90.9276C509.977 88.8511 506.663 87.8129 502.51 87.8129C498.436 87.8129 495.122 88.8511 492.566 90.9276C490.09 93.0041 488.294 96.079 487.175 100.152C486.057 104.225 485.498 109.257 485.498 115.247C485.498 121.157 486.057 126.188 487.175 130.342C488.294 134.495 490.09 137.649 492.566 139.806C495.122 141.882 498.436 142.92 502.51 142.92Z" fill="#212121"/>
<path d="M359.796 147.473V142.441H360.755C362.512 142.441 364.109 142.241 365.547 141.842C367.064 141.443 368.262 140.644 369.141 139.446C370.099 138.168 370.578 136.291 370.578 133.815V89.2502H362.312C360.475 89.2502 359.037 89.5697 357.999 90.2086C356.961 90.8475 356.122 91.9257 355.483 93.4432C354.924 94.8808 354.405 96.9573 353.926 99.6727L353.087 104.345H347.457L348.176 83.2603H404.242L404.96 104.345H399.33L398.491 99.6727C398.012 96.9573 397.453 94.8808 396.814 93.4432C396.255 91.9257 395.456 90.8475 394.418 90.2086C393.38 89.5697 391.942 89.2502 390.105 89.2502H381.839V133.815C381.839 136.291 382.279 138.168 383.157 139.446C384.115 140.644 385.313 141.443 386.751 141.842C388.268 142.241 389.906 142.441 391.663 142.441H392.621V147.473H359.796Z" fill="#212121"/>
<path d="M233.371 177.422C231.294 177.422 229.577 177.063 228.219 176.344C226.942 175.625 225.983 174.587 225.344 173.229C224.785 171.952 224.506 170.394 224.506 168.557C224.506 168.158 224.506 167.759 224.506 167.359C224.506 167.04 224.546 166.72 224.625 166.401C225.823 166.64 226.942 166.8 227.98 166.88C229.018 167.04 230.016 167.12 230.975 167.12C234.729 167.12 237.843 166.041 240.319 163.885C242.795 161.729 245.151 158.055 247.387 152.864L251.341 143.879L249.184 150.348L225.584 94.6412C224.546 92.1653 223.467 90.4881 222.349 89.6096C221.231 88.7311 219.514 88.2918 217.198 88.2918H216.839V83.2603H245.59V88.2918H245.231C242.835 88.2918 241.038 88.771 239.84 89.7294C238.722 90.6079 238.163 92.0455 238.163 94.0422C238.163 94.6811 238.243 95.36 238.402 96.0788C238.562 96.7976 238.802 97.5962 239.121 98.4747L247.866 119.799C248.585 121.476 249.344 123.353 250.143 125.43C250.941 127.426 251.74 129.543 252.539 131.779C253.417 134.015 254.256 136.331 255.054 138.727H252.658C253.537 136.331 254.296 134.215 254.935 132.378C255.653 130.541 256.292 128.824 256.851 127.227C257.49 125.629 258.049 124.112 258.529 122.674L267.034 99.3133C267.434 98.3549 267.713 97.4365 267.873 96.558C268.033 95.5996 268.113 94.8009 268.113 94.162C268.113 92.0855 267.434 90.6079 266.076 89.7294C264.798 88.771 262.841 88.2918 260.206 88.2918H259.846V83.2603H284.525V88.2918H284.166C282.648 88.2918 281.37 88.5314 280.332 89.0106C279.374 89.4898 278.495 90.4083 277.696 91.766C276.898 93.1237 276.019 95.0804 275.061 97.6361L255.054 151.546C252.658 157.935 250.382 163.007 248.226 166.76C246.149 170.594 243.953 173.309 241.637 174.907C239.321 176.584 236.565 177.422 233.371 177.422Z" fill="#212121"/>
<path d="M91.4949 148.671C88.5399 148.671 86.4634 147.872 85.2654 146.275C84.0674 144.677 83.4684 142.721 83.4684 140.404C83.4684 139.925 83.4684 139.446 83.4684 138.967C83.5482 138.408 83.6281 137.969 83.708 137.649C84.4268 137.729 85.1056 137.809 85.7446 137.889C86.4634 137.969 87.1422 138.008 87.7812 138.008C90.8959 138.008 93.4916 137.13 95.5681 135.373C97.6446 133.616 99.3218 130.461 100.6 125.909C101.957 121.276 102.916 114.648 103.475 106.022C103.555 105.144 103.595 104.265 103.595 103.386C103.674 102.508 103.714 101.669 103.714 100.871C103.794 99.9922 103.834 99.1137 103.834 98.2351C103.914 97.3566 103.954 96.4781 103.954 95.5996C103.954 92.8042 103.355 90.8875 102.157 89.8492C100.959 88.8109 99.0822 88.2918 96.5265 88.2918H93.5315V83.2603H151.514V88.2918H151.155C149.398 88.2918 147.761 88.4915 146.243 88.8908C144.806 89.2901 143.608 90.0888 142.649 91.2868C141.771 92.4848 141.331 94.3616 141.331 96.9174V133.815C141.331 136.291 141.771 138.168 142.649 139.446C143.608 140.644 144.806 141.443 146.243 141.842C147.761 142.241 149.398 142.441 151.155 142.441H151.514V147.473H120.966V142.441H121.325C123.002 142.441 124.48 142.241 125.757 141.842C127.115 141.443 128.153 140.644 128.872 139.446C129.671 138.168 130.07 136.291 130.07 133.815V89.2502H111.022L110.064 107.22C109.345 120.957 107.428 131.3 104.313 138.248C101.199 145.196 96.9258 148.671 91.4949 148.671Z" fill="#212121"/>
<path d="M494.746 123.026C492.58 124.818 494.097 128.05 497.067 128.05H502.358C520.088 128.077 537.788 128.022 555.518 128.131C582.376 128.321 606.418 125.443 628.914 113.766C673.904 90.357 697.708 60.8702 717.666 27.3325C721.441 19.4572 718.965 7.72579 724.845 6.31367C738.614 2.97348 731.59 26.3277 725.216 36.7013C703.432 72.3301 674.214 102.767 624.149 124.899C603.015 134.241 577.58 135.11 552.114 134.621C533.177 134.241 514.147 135.436 495.21 136.088C485.03 136.441 479.12 139.808 475.222 146.271C471.694 152.001 465.939 157.813 458.791 161.805C454.49 164.221 433.666 175.111 418.968 179.266C410.985 181.52 402.104 180.352 409.933 167.589C416.771 156.482 436.172 141.682 451.086 138.831C466.001 135.979 473.953 129.896 480.389 121.396C482.091 119.17 479.708 116.291 476.769 116.943C474.386 117.486 472.282 118.056 470.302 118.545C440.906 125.877 411.634 132.395 382.27 139.808C369.398 143.067 357.268 144.886 346.438 136.468C344.056 134.621 336.382 134.078 332.205 135.002C320.477 137.609 308.688 140.623 298.137 144.751C277.374 152.87 257.354 161.859 235.757 170.983C225.019 175.464 197.109 183.068 189.714 179.266C181.236 174.894 178.884 165.036 185.196 158.41C191.044 152.246 200.172 146.271 209.022 141.112C216.108 137.011 230.775 130.086 240.955 125.035C243.956 123.542 242.688 119.523 239.222 119.604C189.126 120.88 59.9885 126.502 9.39725 124.818C5.34376 124.682 5.03434 119.305 9.08782 119.007C9.11877 119.007 9.14971 119.007 9.18065 119.007C20.9389 118.436 178.513 116.508 223.998 112.543C228.33 112.163 232.693 112 237.056 112.082C266.947 112.652 290.37 102.957 311.38 90.1941C322.148 83.6494 352.874 73.5202 360.548 83.0792C368.841 93.4256 343.127 103.935 332.236 107.547C323.077 110.615 312.34 112.109 302.067 113.412C285.512 115.476 271 119.821 257.88 126.556C239.377 136.088 220.564 145.348 202.4 155.151C195.964 158.6 188.94 162.945 194.355 169.3C197.202 172.64 210.91 172.233 219.79 168.458C245.689 157.595 271.588 146.706 296.992 135.409C309.957 129.598 324.191 126.773 339.507 126.366C346.16 126.203 353.926 127.289 359.403 129.543C366.891 132.666 373.389 133.399 381.558 131.417C420.36 122.048 459.472 113.25 497.933 103.365C512.353 99.6444 548.308 83.6494 553.723 82.3731C554.837 82.1015 556.075 82.0472 557.374 82.1287C562.139 82.3459 564.058 88.0216 559.912 90.0854C559.881 90.1126 559.85 90.1126 559.819 90.1397C550.412 94.702 540.48 98.9112 530.238 102.713C516.994 107.791 505.607 113.928 494.746 123.026ZM458.234 145.158C451.086 144.128 428.452 157.716 423.594 164.505C417.745 172.679 422.402 171.146 428.405 168.784C440.225 164.167 445.238 160.8 454.985 152.979C457.615 150.888 462.38 145.755 458.234 145.158ZM317.383 102.985C329.544 100.839 350.647 93.0982 346.438 89.4321C343.994 86.9881 322.984 92.3937 315.217 97.4176C308.441 101.763 308.472 104.56 317.383 102.985Z" fill="#17C1FB"/>
<path d="M601.838 147.473V142.441H602.198C603.875 142.441 605.432 142.281 606.87 141.962C608.387 141.562 609.625 140.764 610.583 139.566C611.542 138.368 612.021 136.531 612.021 134.055V96.6778C612.021 94.2019 611.542 92.4049 610.583 91.2868C609.705 90.0888 608.507 89.2901 606.989 88.8908C605.472 88.4915 603.875 88.2918 602.198 88.2918H601.838V83.2603H631.788V88.2918H631.429C629.831 88.2918 628.394 88.4915 627.116 88.8908C625.918 89.2901 624.959 90.0888 624.241 91.2868C623.602 92.4848 623.282 94.2818 623.282 96.6778V111.533H631.069L639.695 101.35C642.011 98.6345 643.488 96.558 644.127 95.1204C644.846 93.6828 645.205 92.4049 645.205 91.2868C645.205 90.1687 644.806 89.4099 644.007 89.0106C643.209 88.5314 641.931 88.2918 640.174 88.2918V83.2603H665.571V88.2918C663.654 88.2918 661.818 88.7311 660.06 89.6096C658.303 90.4083 656.546 91.6462 654.789 93.3234C653.032 94.9207 651.076 96.9573 648.919 99.4331L637.059 113.33L638.017 108.059L654.909 132.617C656.267 134.614 657.585 136.371 658.863 137.889C660.14 139.326 661.498 140.444 662.936 141.243C664.373 142.042 665.931 142.441 667.608 142.441H667.967V147.473H666.29C662.936 147.473 660.14 147.353 657.904 147.113C655.748 146.794 653.871 146.235 652.274 145.436C650.756 144.637 649.319 143.479 647.961 141.962C646.603 140.444 645.086 138.408 643.408 135.852L631.069 117.523H623.282V134.055C623.282 136.451 623.642 138.248 624.36 139.446C625.079 140.644 626.038 141.443 627.236 141.842C628.513 142.241 629.911 142.441 631.429 142.441H631.788V147.473H601.838Z" fill="#212121"/>
<path fill-rule="evenodd" clip-rule="evenodd" d="M486.457 144.957C490.849 147.433 496.2 148.671 502.51 148.671C508.5 148.671 513.651 147.433 517.964 144.957C520.861 143.271 523.324 141.065 525.352 138.337L515.578 135.961C514.696 137.478 513.654 138.759 512.453 139.806C509.977 141.882 506.663 142.92 502.51 142.92C498.436 142.92 495.122 141.882 492.566 139.806C490.09 137.649 488.294 134.495 487.175 130.342C486.057 126.188 485.498 121.157 485.498 115.247C485.498 109.257 486.057 104.225 487.175 100.152C488.294 96.079 490.09 93.0041 492.566 90.9276C495.122 88.8511 498.436 87.8129 502.51 87.8129C506.663 87.8129 509.977 88.8511 512.453 90.9276C514.929 93.0041 516.726 96.079 517.844 100.152C518.962 104.225 519.521 109.257 519.521 115.247C519.521 118.376 519.364 121.258 519.051 123.895H531.103C531.528 121.225 531.741 118.342 531.741 115.247C531.741 107.899 530.623 101.789 528.386 96.9176C526.15 91.9659 522.836 88.2521 518.443 85.7763C514.13 83.3004 508.819 82.0625 502.51 82.0625C496.6 82.0625 491.448 83.3004 487.056 85.7763C482.663 88.2521 479.269 91.9659 476.873 96.9176C474.477 101.789 473.279 107.899 473.279 115.247C473.279 122.595 474.397 128.744 476.633 133.696C478.869 138.648 482.144 142.401 486.457 144.957Z" fill="#212121"/>
<path fill-rule="evenodd" clip-rule="evenodd" d="M359.796 142.441V147.473H376.209H392.621V142.441H391.663C389.906 142.441 388.268 142.241 386.751 141.842C385.942 141.617 385.209 141.266 384.551 140.788C384.041 140.417 383.576 139.97 383.157 139.446C382.279 138.168 381.839 136.291 381.839 133.815V129.478V89.2502H390.105C391.942 89.2502 393.38 89.5697 394.418 90.2086C395.456 90.8475 396.255 91.9257 396.814 93.4432C397.453 94.8808 398.012 96.9573 398.491 99.6727L399.33 104.345H404.96L404.242 83.2603H365.688L366.445 89.2502H370.578V129.478V133.815C370.578 136.291 370.099 138.168 369.141 139.446C368.262 140.644 367.064 141.443 365.547 141.842C364.915 142.018 364.252 142.154 363.559 142.253C362.674 142.378 361.739 142.441 360.755 142.441H359.796Z" fill="#212121"/>
<path fill-rule="evenodd" clip-rule="evenodd" d="M228.219 176.344C229.577 177.063 231.294 177.422 233.371 177.422C236.565 177.422 239.321 176.584 241.637 174.907C243.644 173.523 245.56 171.299 247.387 168.237L226.434 174.907C226.937 175.478 227.532 175.957 228.219 176.344ZM246.522 154.783L256.027 148.925L275.061 97.6361C276.019 95.0804 276.898 93.1237 277.696 91.766C278.495 90.4083 279.374 89.4898 280.332 89.0106C281.37 88.5314 282.648 88.2918 284.166 88.2918H284.525V83.2603H259.846V88.2918H260.206C262.841 88.2918 264.798 88.771 266.076 89.7294C267.434 90.6079 268.113 92.0855 268.113 94.162C268.113 94.8009 268.033 95.5996 267.873 96.558C267.713 97.4365 267.434 98.3549 267.034 99.3133L258.529 122.674C258.049 124.112 257.49 125.629 256.851 127.227C256.292 128.824 255.653 130.541 254.935 132.378C254.614 133.299 254.264 134.29 253.883 135.351C253.446 134.138 252.998 132.948 252.539 131.779C251.74 129.543 250.941 127.426 250.143 125.43C249.344 123.353 248.585 121.476 247.866 119.799L239.121 98.4747C238.802 97.5962 238.562 96.7976 238.402 96.0788C238.243 95.36 238.163 94.6811 238.163 94.0422C238.163 92.0455 238.722 90.6079 239.84 89.7294C241.038 88.771 242.835 88.2918 245.231 88.2918H245.59V83.2603H216.839V88.2918H217.198C219.514 88.2918 221.231 88.7311 222.349 89.6096C223.467 90.4881 224.546 92.1653 225.584 94.6412L248.846 149.549L247.387 152.864C247.101 153.528 246.812 154.168 246.522 154.783Z" fill="#212121"/>
<path fill-rule="evenodd" clip-rule="evenodd" d="M85.2654 146.275C86.4634 147.872 88.5399 148.671 91.4949 148.671C96.9258 148.671 101.199 145.196 104.313 138.248C107.428 131.3 109.345 120.957 110.064 107.22L111.022 89.2502H130.07V112.956H141.331V96.9174C141.331 94.3616 141.771 92.4848 142.649 91.2868C143.608 90.0888 144.806 89.2901 146.243 88.8908C147.761 88.4915 149.398 88.2918 151.155 88.2918H151.514V83.2603H93.5315V88.2918H96.5265C99.0822 88.2918 100.959 88.8109 102.157 89.8492C103.355 90.8875 103.954 92.8042 103.954 95.5996C103.954 96.4781 103.914 97.3566 103.834 98.2351C103.834 99.1137 103.794 99.9922 103.714 100.871C103.714 101.669 103.674 102.508 103.595 103.386C103.595 104.265 103.555 105.144 103.475 106.022C102.916 114.648 101.957 121.276 100.6 125.909C99.3218 130.461 97.6446 133.616 95.5681 135.373C93.4916 137.13 90.8959 138.008 87.7812 138.008C87.1422 138.008 86.4634 137.969 85.7446 137.889C85.1056 137.809 84.4268 137.729 83.708 137.649C83.6281 137.969 83.5482 138.408 83.4684 138.967V140.404C83.4684 142.721 84.0674 144.677 85.2654 146.275ZM130.07 125.909V133.815C130.07 136.291 129.671 138.168 128.872 139.446C128.153 140.644 127.115 141.443 125.757 141.842C124.48 142.241 123.002 142.441 121.325 142.441H120.966V147.473H151.514V142.441H151.155C149.398 142.441 147.761 142.241 146.243 141.842C144.806 141.443 143.608 140.644 142.649 139.446C141.771 138.168 141.331 136.291 141.331 133.815V125.909H130.07Z" fill="#212121"/>
<path d="M45.0591 93.1948L50.1389 108.599H66.5774L53.2784 118.12L58.3582 133.524L45.0591 124.004L31.76 133.524L36.8398 118.12L23.5407 108.599H39.9793L45.0591 93.1948Z" fill="#FFCD29"/>
<path d="M443.812 102.089L442.233 118.211L457.307 124.673L441.257 128.175L439.678 144.297L431.338 130.34L415.288 133.842L426.184 121.713L417.843 107.756L432.917 114.217L443.812 102.089Z" fill="#FFCD29"/>
<path d="M263.927 126.394L277.603 141.779L296.679 133.717L286.056 151.287L299.732 166.672L279.49 162.146L268.867 179.716L266.98 159.349L246.738 154.823L265.814 146.761L263.927 126.394Z" fill="#FFCD29"/>
<path d="M699.396 35.0471L706.514 43.0538L716.441 38.8582L710.913 48.0022L718.03 56.0089L707.496 53.6535L701.967 62.7975L700.985 52.1978L690.45 49.8424L700.378 45.6468L699.396 35.0471Z" fill="#FFCD29"/>
<path d="M585.721 114.446L588.295 127.269L601.468 128.82L589.886 135.195L592.46 148.018L582.727 139.135L571.145 145.509L576.713 133.644L566.98 124.76L580.153 126.311L585.721 114.446Z" fill="#FFCD29"/>
</svg>
